<?xml version="1.0" encoding="UTF-8"?>
<svg id="Capa_1" xmlns="http://www.w3.org/2000/svg" version="1.1" xmlns:xlink="http://www.w3.org/1999/xlink" viewBox="0 0 1280 720">
  <!-- Generator: Adobe Illustrator 29.3.1, SVG Export Plug-In . SVG Version: 2.1.0 Build 151)  -->
  <defs>
    <style>
      .st0 {
        fill: #8a236e;
      }

      .st1 {
        filter: url(#AI_DesenfoqueGaussiano_74);
      }

      .st1, .st2, .st3, .st4, .st5 {
        opacity: .5;
      }

      .st2 {
        filter: url(#AI_DesenfoqueGaussiano_71);
      }

      .st6 {
        fill: #cd3c17;
      }

      .st7, .st8 {
        font-size: 42px;
      }

      .st7, .st8, .st9 {
        fill: #fff;
        font-family: BonoboSemiBold, Bonobo;
      }

      .st3 {
        filter: url(#AI_DesenfoqueGaussiano_73);
      }

      .st10 {
        fill: #333;
      }

      .st11 {
        fill: none;
        stroke: #4d4d4d;
        stroke-miterlimit: 10;
        stroke-width: 2px;
      }

      .st8 {
        opacity: 1;
      }

      .st4 {
        filter: url(#AI_DesenfoqueGaussiano_7);
      }

      .st5 {
        filter: url(#AI_DesenfoqueGaussiano_72);
      }

      .st12 {
        fill: #f29c37;
      }

      .st9 {
        font-size: 42px;
      }

      .st13 {
        fill: #046e7c;
      }
    </style>
    <filter id="AI_DesenfoqueGaussiano_7">
      <feGaussianBlur stdDeviation="7"/>
    </filter>
    <filter id="AI_DesenfoqueGaussiano_71" data-name="AI_DesenfoqueGaussiano_7">
      <feGaussianBlur stdDeviation="7"/>
    </filter>
    <filter id="AI_DesenfoqueGaussiano_72" data-name="AI_DesenfoqueGaussiano_7">
      <feGaussianBlur stdDeviation="7"/>
    </filter>
    <filter id="AI_DesenfoqueGaussiano_73" data-name="AI_DesenfoqueGaussiano_7">
      <feGaussianBlur stdDeviation="7"/>
    </filter>
    <filter id="AI_DesenfoqueGaussiano_74" data-name="AI_DesenfoqueGaussiano_7">
      <feGaussianBlur stdDeviation="7"/>
    </filter>
  </defs>
  <g>
    <path d="M1091.5,98.8c-2,0-3.8-.4-5.5-1.2s-3.2-1.8-4.5-3.2c-1.3-1.4-2.3-2.9-3-4.7-.7-1.8-1.1-3.7-1.1-5.7s.4-4.1,1.2-5.9c.8-1.8,1.8-3.4,3.2-4.7,1.3-1.3,2.8-2.3,4.5-3.1,1.7-.7,3.5-1.1,5.3-1.1s4,.5,6,1.4,3.6,2.4,5.1,4.4l-4.4,2.4c-.9-1.1-2-1.9-3.1-2.5s-2.4-.8-3.6-.8-2.3.2-3.4.7c-1.1.5-2.1,1.2-2.9,2.1-.8.9-1.5,1.9-2,3.1-.5,1.2-.7,2.5-.7,3.9s.2,2.6.7,3.8c.5,1.2,1.1,2.2,2,3.1.8.9,1.8,1.6,2.9,2.1,1.1.5,2.3.8,3.5.8s1.7-.1,2.5-.4,1.6-.6,2.3-1.2c.7-.5,1.4-1.1,1.9-1.8.6-.7,1-1.5,1.4-2.4h-5.2v-4.3h11.1c0,2.1-.3,4-1,5.9-.7,1.8-1.7,3.4-3,4.8-1.3,1.4-2.8,2.5-4.5,3.3-1.7.8-3.6,1.2-5.5,1.2Z"/>
    <path d="M1109.2,98.3v-28.5h17.9v5h-12.9v5.8h10.3v5h-10.3v7.8h12.9v5h-17.9Z"/>
    <path d="M1141.9,98.8c-1.6,0-3.1-.2-4.5-.7-1.4-.5-2.7-1.2-3.8-2.1-1.1-.9-1.9-2-2.3-3.4l4.7-1.7c.2.5.6,1,1.2,1.5.6.4,1.3.8,2.1,1.1s1.7.4,2.7.4,1.9-.2,2.8-.5c.9-.3,1.6-.7,2.1-1.3.5-.6.8-1.2.8-1.9s-.3-1.4-.8-1.8c-.6-.5-1.3-.9-2.1-1.2-.9-.3-1.8-.5-2.7-.7-2-.3-3.8-.8-5.4-1.4-1.6-.7-2.9-1.6-3.8-2.7-.9-1.2-1.4-2.7-1.4-4.5s.5-3.2,1.5-4.5c1-1.3,2.3-2.3,3.9-3,1.6-.7,3.4-1.1,5.2-1.1s3.1.2,4.5.7c1.5.5,2.7,1.2,3.8,2.1,1.1.9,1.9,2.1,2.4,3.4l-4.7,1.7c-.2-.5-.6-1-1.2-1.5-.6-.4-1.3-.8-2.1-1.1-.8-.3-1.7-.4-2.7-.4-1,0-1.9.1-2.7.5-.9.3-1.6.8-2.1,1.3-.5.5-.8,1.2-.8,1.9s.3,1.6.8,2.1c.5.5,1.2.8,2,1,.9.2,1.8.4,2.9.6,1.9.3,3.7.8,5.3,1.5,1.6.7,2.9,1.6,3.9,2.8,1,1.2,1.5,2.6,1.5,4.3s-.5,3.2-1.5,4.5c-1,1.3-2.3,2.3-3.9,3-1.6.7-3.4,1.1-5.3,1.1Z"/>
    <path d="M1177.8,69.7v5h-8.7v23.6h-5v-23.6h-8.7v-5h22.4Z"/>
    <path d="M1182.5,98.3v-28.5h5v28.5h-5Z"/>
    <path d="M1206.2,98.8c-1.9,0-3.7-.4-5.4-1.2-1.7-.8-3.2-1.8-4.5-3.2-1.3-1.4-2.3-2.9-3-4.7s-1.1-3.7-1.1-5.7.4-4,1.1-5.7c.7-1.8,1.7-3.4,3-4.7,1.3-1.4,2.8-2.4,4.5-3.2,1.7-.8,3.5-1.2,5.4-1.2s3.8.4,5.5,1.2c1.7.8,3.2,1.8,4.5,3.2,1.3,1.4,2.3,2.9,3,4.7.7,1.8,1.1,3.7,1.1,5.7s-.4,4-1.1,5.7c-.7,1.8-1.7,3.4-3,4.7-1.3,1.4-2.8,2.4-4.5,3.2-1.7.8-3.5,1.2-5.5,1.2ZM1206.2,93.8c1.3,0,2.4-.3,3.5-.8,1.1-.5,2.1-1.2,2.9-2.1.8-.9,1.5-1.9,2-3.1.5-1.2.7-2.4.7-3.8s-.2-2.6-.7-3.8c-.5-1.2-1.1-2.2-2-3.1s-1.8-1.6-2.9-2.1c-1.1-.5-2.3-.8-3.5-.8s-2.4.3-3.5.8c-1.1.5-2.1,1.2-2.9,2.1-.8.9-1.5,1.9-2,3.1-.5,1.2-.7,2.4-.7,3.8s.2,2.6.7,3.8c.5,1.2,1.1,2.2,2,3.1s1.8,1.6,2.9,2.1,2.3.8,3.5.8ZM1204.9,67.5l1.6-5.9h5l-3.3,5.9h-3.3Z"/>
    <path d="M1224,98.3v-28.5h5.4l12.1,19.6v-19.6h5v28.5h-5.4l-12.1-19.6v19.6h-5Z"/>
    <path d="M1049.6,138.7v-28.5h17.9v5h-12.9v5.8h10.3v5h-10.3v7.8h12.9v5h-17.9Z"/>
    <path d="M1072.1,138.7v-28.5h9.5c2,0,3.8.4,5.5,1.1,1.7.7,3.2,1.8,4.5,3.1s2.3,2.8,3.1,4.5c.7,1.7,1.1,3.6,1.1,5.5s-.4,3.8-1.1,5.5c-.7,1.7-1.8,3.2-3.1,4.5-1.3,1.3-2.8,2.3-4.5,3.1-1.7.7-3.6,1.1-5.5,1.1h-9.5ZM1077.1,133.8h4.5c1.3,0,2.5-.2,3.6-.7,1.1-.5,2.1-1.1,3-2s1.5-1.8,2-3,.7-2.3.7-3.6-.2-2.5-.7-3.6-1.2-2.1-2-3-1.8-1.5-3-2c-1.1-.5-2.3-.7-3.6-.7h-4.5v18.6Z"/>
    <path d="M1099.8,138.7v-28.5h5v28.5h-5Z"/>
    <path d="M1131.9,110.2v5h-8.7v23.6h-5v-23.6h-8.7v-5h22.4Z"/>
    <path d="M1147.6,139.3c-1.9,0-3.7-.4-5.4-1.2-1.7-.8-3.2-1.8-4.5-3.2-1.3-1.4-2.3-2.9-3-4.7s-1.1-3.7-1.1-5.7.4-4,1.1-5.7c.7-1.8,1.7-3.4,3-4.7,1.3-1.4,2.8-2.4,4.5-3.2,1.7-.8,3.5-1.2,5.4-1.2s3.8.4,5.5,1.2c1.7.8,3.2,1.8,4.5,3.2,1.3,1.4,2.3,2.9,3,4.7.7,1.8,1.1,3.7,1.1,5.7s-.4,4-1.1,5.7c-.7,1.8-1.7,3.4-3,4.7-1.3,1.4-2.8,2.4-4.5,3.2-1.7.8-3.5,1.2-5.5,1.2ZM1147.6,134.3c1.3,0,2.4-.3,3.5-.8,1.1-.5,2.1-1.2,2.9-2.1.8-.9,1.5-1.9,2-3.1.5-1.2.7-2.4.7-3.8s-.2-2.6-.7-3.8c-.5-1.2-1.1-2.2-2-3.1s-1.8-1.6-2.9-2.1c-1.1-.5-2.3-.8-3.5-.8s-2.4.3-3.5.8c-1.1.5-2.1,1.2-2.9,2.1-.8.9-1.5,1.9-2,3.1-.5,1.2-.7,2.4-.7,3.8s.2,2.6.7,3.8c.5,1.2,1.1,2.2,2,3.1s1.8,1.6,2.9,2.1,2.3.8,3.5.8Z"/>
    <path d="M1165.4,138.7v-28.5h11c1.5,0,2.9.4,4.2,1.2s2.2,1.8,3,3.1,1.1,2.7,1.1,4.3-.2,2.5-.7,3.6c-.5,1.1-1.1,2-2,2.8-.8.8-1.8,1.4-2.9,1.8l6.8,11.8h-5.7l-6.6-11.4h-3.2v11.4h-5ZM1170.3,122.4h5.4c.7,0,1.4-.2,1.9-.5.6-.4,1.1-.8,1.4-1.4.4-.6.5-1.3.5-2s-.2-1.4-.5-2c-.4-.6-.8-1.1-1.4-1.4-.6-.4-1.2-.5-1.9-.5h-5.4v7.9Z"/>
    <path d="M1190.4,138.7v-28.5h5v28.5h-5Z"/>
    <path d="M1210.4,110.2h5.7l10.4,28.5h-5.3l-1.8-5.1h-12.2l-1.8,5.1h-5.3l10.4-28.5ZM1209,128.7h8.6l-4.3-11.8-4.3,11.8Z"/>
    <path d="M1230,138.7v-28.5h5v23.6h11.9v5h-16.9Z"/>
  </g>
  <g>
    <path class="st13" d="M499.1,145.8c-5.3,0-10.2-1-14.9-3.1-4.6-2.1-8.7-5-12.2-8.7-3.5-3.7-6.3-8-8.3-12.9-2-4.9-3-10.1-3-15.7s1-10.8,3-15.7c2-4.9,4.8-9.2,8.3-12.9,3.5-3.7,7.6-6.6,12.2-8.7,4.6-2.1,9.6-3.1,14.9-3.1s10.3,1,14.9,3.1c4.6,2.1,8.7,5,12.2,8.7,3.5,3.7,6.3,8,8.3,12.9,2,4.9,3,10.1,3,15.7s-1,10.8-3,15.7c-2,4.9-4.7,9.2-8.3,12.9-3.5,3.7-7.6,6.6-12.2,8.7-4.6,2.1-9.6,3.1-14.9,3.1ZM499.1,132.2c3.4,0,6.6-.7,9.6-2.1,3-1.4,5.7-3.3,7.9-5.8,2.3-2.5,4.1-5.3,5.3-8.5,1.3-3.2,1.9-6.7,1.9-10.4s-.6-7.1-1.9-10.4c-1.3-3.2-3.1-6.1-5.4-8.5s-4.9-4.4-7.9-5.8c-3-1.4-6.2-2.1-9.6-2.1s-6.6.7-9.6,2.1c-3,1.4-5.7,3.4-7.9,5.8-2.3,2.5-4.1,5.3-5.3,8.5-1.3,3.2-1.9,6.7-1.9,10.4s.6,7.2,1.9,10.4c1.3,3.2,3.1,6.1,5.4,8.5,2.3,2.5,4.9,4.4,7.9,5.8,3,1.4,6.2,2.1,9.6,2.1Z"/>
    <path class="st13" d="M553.2,145.8c-2.9,0-5.7-.5-8.4-1.4s-5.2-2.4-7.4-4.3l8.7-10.5c.8.7,1.8,1.3,3,1.8,1.2.5,2.6.8,4.1.8s3.9-.5,5.6-1.6c1.7-1.1,3-2.4,4-4.2,1-1.7,1.5-3.6,1.5-5.7v-54.4h13.6v54.4c0,4.6-1.1,8.7-3.3,12.5-2.2,3.8-5.2,6.8-9,9.1-3.7,2.3-7.9,3.4-12.4,3.4Z"/>
    <path class="st13" d="M619.4,145.8c-4.3,0-8.4-.7-12.4-2s-7.4-3.3-10.4-5.8c-3-2.5-5.1-5.6-6.4-9.2l12.8-4.7c.5,1.5,1.6,2.8,3.2,4.1,1.6,1.2,3.5,2.2,5.8,3,2.3.7,4.8,1.1,7.4,1.1s5.2-.4,7.6-1.3c2.4-.8,4.3-2,5.7-3.5,1.4-1.5,2.2-3.3,2.2-5.3s-.8-3.7-2.3-5c-1.5-1.3-3.5-2.4-5.8-3.1-2.4-.8-4.8-1.4-7.3-1.8-5.5-.9-10.5-2.2-14.9-4-4.4-1.8-7.8-4.2-10.4-7.4-2.5-3.2-3.8-7.2-3.8-12.2s1.4-8.8,4.1-12.4c2.7-3.5,6.3-6.3,10.7-8.2,4.4-2,9.2-3,14.3-3s8.4.7,12.4,2c4,1.3,7.5,3.3,10.4,5.8,3,2.6,5.1,5.6,6.4,9.2l-12.8,4.6c-.5-1.5-1.6-2.8-3.2-4.1-1.6-1.2-3.5-2.2-5.8-2.9-2.3-.7-4.8-1.1-7.4-1.1-2.6,0-5.1.4-7.5,1.3-2.4.9-4.3,2.1-5.8,3.5-1.5,1.5-2.2,3.2-2.2,5.1s.7,4.4,2.1,5.6c1.4,1.3,3.3,2.2,5.6,2.8,2.3.6,4.9,1.1,7.8,1.6,5.2.8,10,2.2,14.4,4.1,4.4,1.9,8,4.5,10.6,7.7,2.7,3.2,4,7.1,4,11.8s-1.3,8.8-4,12.4c-2.7,3.5-6.2,6.3-10.6,8.3-4.4,2-9.2,3-14.4,3Z"/>
    <path class="st13" d="M694.8,66.4l-22.6,84.2h-13.6l22.6-84.2h13.6Z"/>
    <path class="st13" d="M742.2,145.8c-5.3,0-10.2-1-14.9-3.1-4.6-2.1-8.7-5-12.2-8.7-3.5-3.7-6.3-8-8.3-12.9-2-4.9-3-10.1-3-15.7s1-10.8,3-15.7c2-4.9,4.8-9.2,8.3-12.9,3.5-3.7,7.6-6.6,12.2-8.7,4.6-2.1,9.6-3.1,14.9-3.1s10.3,1,14.9,3.1c4.6,2.1,8.7,5,12.2,8.7,3.5,3.7,6.3,8,8.3,12.9,2,4.9,3,10.1,3,15.7s-1,10.8-3,15.7c-2,4.9-4.7,9.2-8.3,12.9-3.5,3.7-7.6,6.6-12.2,8.7-4.6,2.1-9.6,3.1-14.9,3.1ZM742.2,132.2c3.4,0,6.6-.7,9.6-2.1,3-1.4,5.7-3.3,7.9-5.8,2.3-2.5,4.1-5.3,5.3-8.5,1.3-3.2,1.9-6.7,1.9-10.4s-.7-7.1-1.9-10.4c-1.3-3.2-3.1-6.1-5.4-8.5-2.3-2.4-4.9-4.4-7.9-5.8-3-1.4-6.2-2.1-9.6-2.1s-6.6.7-9.6,2.1c-3,1.4-5.7,3.4-7.9,5.8-2.3,2.5-4.1,5.3-5.3,8.5-1.3,3.2-1.9,6.7-1.9,10.4s.6,7.2,1.9,10.4c1.3,3.2,3.1,6.1,5.4,8.5,2.3,2.5,4.9,4.4,7.9,5.8,3,1.4,6.2,2.1,9.6,2.1Z"/>
    <path class="st13" d="M787.9,144.3l15.1-77.9h11.2l19,49.9,19-49.9h11.2l15.1,77.9h-13.9l-9.4-48.2-17.5,46.4h-9.3l-17.5-46.4-9.3,48.2h-13.9Z"/>
    <path class="st13" d="M889.9,144.3v-77.9h27.8c4.2,0,8.1,1.1,11.5,3.2,3.4,2.1,6.2,5,8.2,8.5,2,3.6,3,7.5,3,11.7s-1,8.3-3.1,11.9c-2.1,3.5-4.8,6.4-8.3,8.5-3.5,2.1-7.2,3.1-11.3,3.1h-14.3v31h-13.6ZM903.4,99.7h12.8c1.9,0,3.7-.5,5.3-1.4,1.6-1,2.9-2.3,3.8-3.9.9-1.6,1.4-3.5,1.4-5.5s-.5-3.9-1.4-5.5c-.9-1.6-2.2-2.9-3.8-3.9-1.6-1-3.4-1.4-5.3-1.4h-12.8v21.7Z"/>
  </g>
  <g class="st4">
    <rect class="st10" x="319.4" y="252.9" width="13.1" height="489.8" transform="translate(-119.7 103.6) rotate(-15.3)"/>
  </g>
  <g class="st2">
    <rect class="st10" x="584" y="237.3" width="16.5" height="495"/>
  </g>
  <path class="st11" d="M131.8,649.3c-15.8,0-31.6.1-47.3.2-5.8-14.5-11.7-28.9-17.5-43.4"/>
  <g>
    <path d="M20.4,523.6c-1,0-1.9-.2-2.7-.7-.7-.5-1.3-1.2-1.7-2-.4-.8-.6-1.8-.6-2.8v-7.4h1.5v7.4c0,.7.1,1.4.4,2,.3.6.7,1.1,1.2,1.5.5.4,1.1.5,1.9.5s1.4-.2,1.9-.6.9-.9,1.2-1.5c.3-.6.4-1.3.4-2v-7.4h1.5v7.4c0,.8-.1,1.5-.3,2.2-.2.7-.6,1.3-1,1.8-.4.5-1,.9-1.6,1.2-.6.3-1.3.4-2.1.4Z"/>
    <path d="M32.3,515.8h-2.1v7.6h-1.5v-7.6s-1.6,0-1.6,0v-1.5h1.6v-2.9s1.5,0,1.5,0v2.9h2.1v1.5Z"/>
    <path d="M34.7,512.8c-.2,0-.4,0-.6-.2-.2-.2-.2-.4-.2-.6s0-.4.2-.6c.2-.2.4-.2.6-.2s.4,0,.6.2c.2.2.2.4.2.6s0,.4-.2.6c-.2.2-.4.2-.6.2ZM33.9,514.3h1.5v9.1h-1.5v-9.1Z"/>
    <path d="M37.6,523.4v-13.7h1.5v13.7h-1.5Z"/>
    <path d="M42.1,512.8c-.2,0-.4,0-.6-.2-.2-.2-.2-.4-.2-.6s0-.4.2-.6c.2-.2.4-.2.6-.2s.4,0,.6.2c.2.2.2.4.2.6s0,.4-.2.6c-.2.2-.4.2-.6.2ZM41.4,514.3h1.5v9.1h-1.5v-9.1Z"/>
    <path d="M52.5,515.8l-5.6,6h5.6v1.5h-7.8v-1.5l5.6-6h-5.6v-1.5h7.8v1.5Z"/>
    <path d="M61.5,514.3h1.5v9.1h-1.5v-1.5c-.3.5-.7,1-1.2,1.3-.5.3-1.1.5-1.8.5s-1.3-.1-1.9-.4c-.6-.3-1.1-.6-1.5-1-.4-.4-.8-1-1-1.5-.2-.6-.4-1.2-.4-1.9s.1-1.3.4-1.8c.2-.6.6-1.1,1-1.5.4-.4.9-.8,1.5-1,.6-.2,1.2-.4,1.8-.4s1.3.2,1.9.5,1,.8,1.3,1.3v-1.6ZM58.4,522.1c.6,0,1.1-.1,1.6-.4s.8-.7,1-1.2.4-1.1.4-1.7-.1-1.2-.4-1.7c-.2-.5-.6-.9-1-1.2-.4-.3-1-.4-1.6-.4s-1.1.1-1.6.4c-.5.3-.9.7-1.2,1.2-.3.5-.4,1.1-.4,1.7s.1,1.2.4,1.7c.3.5.7.9,1.2,1.2.5.3,1,.4,1.6.4Z"/>
    <path d="M75.1,523.6c-.9,0-1.7-.2-2.4-.5-.8-.3-1.4-.8-2-1.4s-1-1.3-1.4-2.1-.5-1.7-.5-2.6.2-1.8.5-2.6.8-1.5,1.4-2.1c.6-.6,1.2-1.1,2-1.4.8-.3,1.6-.5,2.4-.5s1.7.2,2.4.5c.8.3,1.4.8,2,1.4.6.6,1,1.3,1.4,2.1s.5,1.7.5,2.6-.2,1.8-.5,2.6-.8,1.5-1.4,2.1-1.2,1.1-2,1.4c-.8.3-1.6.5-2.4.5ZM75.1,522.1c.7,0,1.3-.1,1.9-.4.6-.3,1.1-.6,1.5-1.1.4-.5.8-1,1-1.6.2-.6.4-1.3.4-2s-.1-1.3-.4-2c-.2-.6-.6-1.2-1-1.6s-.9-.8-1.5-1.1c-.6-.3-1.2-.4-1.8-.4s-1.3.1-1.9.4c-.6.3-1.1.6-1.5,1.1-.4.5-.8,1-1,1.6-.2.6-.4,1.3-.4,2s.1,1.4.4,2c.2.6.6,1.2,1,1.6.4.5.9.8,1.5,1.1.6.3,1.2.4,1.8.4Z"/>
    <path d="M84,523.6c-.4,0-.8,0-1.2-.2s-.8-.4-1.1-.6l1-1.2c.2.2.4.3.6.4.2,0,.5.1.8.1.4,0,.8-.1,1.1-.3.3-.2.6-.5.8-.8.2-.3.3-.7.3-1.1v-9.2h1.5v9.2c0,.7-.2,1.3-.5,1.9-.3.6-.8,1-1.3,1.4-.6.4-1.2.5-1.9.5Z"/>
    <path d="M94.4,523.6c-.7,0-1.3-.1-2-.3-.6-.2-1.2-.5-1.7-.9s-.8-.9-1-1.4l1.4-.5c.1.3.3.6.7.9s.7.4,1.2.6c.4.1.9.2,1.4.2s1.1,0,1.5-.3c.5-.2.9-.4,1.1-.8.3-.3.4-.7.4-1.1s-.2-.8-.5-1.1c-.3-.3-.7-.5-1.2-.7s-1-.3-1.5-.4c-.9-.1-1.7-.4-2.4-.6-.7-.3-1.2-.6-1.6-1.1-.4-.5-.6-1.1-.6-1.9s.2-1.4.6-1.9c.4-.6,1-1,1.7-1.3s1.5-.5,2.3-.5,1.3.1,2,.3c.6.2,1.2.5,1.7.9.5.4.8.9,1,1.5l-1.4.5c-.1-.3-.3-.6-.7-.9-.3-.3-.7-.4-1.2-.6-.4-.1-.9-.2-1.4-.2-.5,0-1,0-1.5.3-.5.2-.8.4-1.1.8-.3.3-.4.7-.4,1.1s.1.9.4,1.2c.3.3.6.5,1.1.6.5.1,1,.3,1.6.4.8.1,1.6.4,2.3.7.7.3,1.3.7,1.7,1.2.4.5.6,1.1.6,1.8s-.2,1.4-.6,1.9c-.4.6-1,1-1.7,1.3-.7.3-1.5.5-2.3.5Z"/>
    <path d="M105.1,519.9v-5.6h1.5v5.3c0,.5.1.9.3,1.3.2.4.5.7.9.9.4.2.8.3,1.3.3s.9-.1,1.3-.3c.4-.2.7-.5.9-.9.2-.4.3-.8.3-1.3v-5.3h1.5v9.1s-1.5,0-1.5,0v-1.2c-.3.4-.7.8-1.2,1-.5.3-1,.4-1.6.4s-1.3-.2-1.9-.5c-.6-.3-1-.8-1.3-1.3-.3-.6-.5-1.2-.5-1.9Z"/>
    <path d="M20.2,541.8c-.9,0-1.7-.2-2.4-.5-.8-.3-1.4-.8-2-1.4s-1-1.3-1.4-2.1-.5-1.7-.5-2.6.2-1.8.5-2.6.8-1.5,1.4-2.1c.6-.6,1.2-1.1,2-1.4.8-.3,1.6-.5,2.4-.5s1.7.2,2.4.5c.8.3,1.4.8,2,1.4.6.6,1,1.3,1.4,2.1s.5,1.7.5,2.6-.2,1.8-.5,2.6-.8,1.5-1.4,2.1-1.2,1.1-2,1.4c-.8.3-1.6.5-2.4.5ZM20.2,540.3c.7,0,1.3-.1,1.9-.4.6-.3,1.1-.6,1.5-1.1.4-.5.8-1,1-1.6.2-.6.4-1.3.4-2s-.1-1.3-.4-2c-.2-.6-.6-1.2-1-1.6s-.9-.8-1.5-1.1c-.6-.3-1.2-.4-1.8-.4s-1.3.1-1.9.4c-.6.3-1.1.6-1.5,1.1-.4.5-.8,1-1,1.6-.2.6-.4,1.3-.4,2s.1,1.4.4,2c.2.6.6,1.2,1,1.6.4.5.9.8,1.5,1.1.6.3,1.2.4,1.8.4Z"/>
    <path d="M28,541.6l2.5-12.7h1.2l3.4,9,3.4-9h1.2l2.5,12.7h-1.6l-1.8-9.2-3.2,8.6h-1l-3.2-8.6-1.8,9.2h-1.6Z"/>
    <path d="M44,541.6v-12.7h4.2c.7,0,1.3.2,1.9.5.5.3,1,.8,1.3,1.4.3.6.5,1.2.5,1.9s-.2,1.3-.5,1.9c-.3.6-.8,1-1.3,1.3s-1.2.5-1.8.5h-2.7v5.2h-1.5ZM45.5,534.8h2.5c.4,0,.8-.1,1.1-.3.3-.2.6-.5.8-.8.2-.3.3-.7.3-1.2s-.1-.8-.3-1.2c-.2-.3-.5-.6-.8-.8-.3-.2-.7-.3-1.1-.3h-2.5v4.6Z"/>
    <path d="M59.6,546.1h-1.5v-13.7h1.5v1.6c.3-.5.7-1,1.2-1.3.5-.3,1.1-.5,1.8-.5s1.3.1,1.9.4c.6.2,1.1.6,1.5,1,.4.4.8.9,1,1.5.2.6.4,1.2.4,1.9s-.1,1.3-.4,1.9c-.2.6-.6,1.1-1,1.5-.4.4-.9.8-1.5,1s-1.2.4-1.9.4-1.3-.2-1.8-.5c-.5-.3-.9-.8-1.2-1.3v6.1ZM62.6,533.7c-.6,0-1.1.1-1.5.4-.4.3-.8.7-1,1.2-.2.5-.4,1.1-.4,1.7s.1,1.2.4,1.7c.2.5.6.9,1,1.2.4.3,1,.4,1.6.4s1.1-.1,1.6-.4c.5-.3.9-.7,1.2-1.2s.4-1.1.4-1.7-.1-1.2-.4-1.7c-.3-.5-.7-.9-1.2-1.2-.5-.3-1-.4-1.6-.4Z"/>
    <path d="M76.2,532.5h1.5v9.1h-1.5v-1.5c-.3.5-.7,1-1.2,1.3-.5.3-1.1.5-1.8.5s-1.3-.1-1.9-.4c-.6-.3-1.1-.6-1.5-1-.4-.4-.8-1-1-1.5-.2-.6-.4-1.2-.4-1.9s.1-1.3.4-1.8c.2-.6.6-1.1,1-1.5.4-.4.9-.8,1.5-1,.6-.2,1.2-.4,1.8-.4s1.3.2,1.9.5,1,.8,1.3,1.3v-1.6ZM73.2,540.3c.6,0,1.1-.1,1.6-.4s.8-.7,1-1.2.4-1.1.4-1.7-.1-1.2-.4-1.7c-.2-.5-.6-.9-1-1.2-.4-.3-1-.4-1.6-.4s-1.1.1-1.6.4c-.5.3-.9.7-1.2,1.2-.3.5-.4,1.1-.4,1.7s.1,1.2.4,1.7c.3.5.7.9,1.2,1.2.5.3,1,.4,1.6.4Z"/>
    <path d="M79.6,541.6v-9.1h1.5v1.1c.3-.4.7-.8,1.2-1,.5-.3,1-.4,1.6-.4s.7,0,1,.1l-.6,1.5c-.2,0-.5-.1-.7-.1-.5,0-.9.1-1.3.3-.4.2-.7.5-.9.9-.2.4-.3.8-.3,1.3v5.3h-1.5Z"/>
    <path d="M92.9,532.5h1.5v9.1h-1.5v-1.5c-.3.5-.7,1-1.2,1.3-.5.3-1.1.5-1.8.5s-1.3-.1-1.9-.4c-.6-.3-1.1-.6-1.5-1-.4-.4-.8-1-1-1.5-.2-.6-.4-1.2-.4-1.9s.1-1.3.4-1.8c.2-.6.6-1.1,1-1.5.4-.4.9-.8,1.5-1,.6-.2,1.2-.4,1.8-.4s1.3.2,1.9.5,1,.8,1.3,1.3v-1.6ZM89.9,540.3c.6,0,1.1-.1,1.6-.4s.8-.7,1-1.2.4-1.1.4-1.7-.1-1.2-.4-1.7c-.2-.5-.6-.9-1-1.2-.4-.3-1-.4-1.6-.4s-1.1.1-1.6.4c-.5.3-.9.7-1.2,1.2-.3.5-.4,1.1-.4,1.7s.1,1.2.4,1.7c.3.5.7.9,1.2,1.2.5.3,1,.4,1.6.4Z"/>
    <path d="M100.6,541.6v-13.7h1.5v13.7h-1.5Z"/>
    <path d="M111.6,532.5h1.5v9.1h-1.5v-1.5c-.3.5-.7,1-1.2,1.3-.5.3-1.1.5-1.8.5s-1.3-.1-1.9-.4c-.6-.3-1.1-.6-1.5-1-.4-.4-.8-1-1-1.5-.2-.6-.4-1.2-.4-1.9s.1-1.3.4-1.8c.2-.6.6-1.1,1-1.5.4-.4.9-.8,1.5-1,.6-.2,1.2-.4,1.8-.4s1.3.2,1.9.5,1,.8,1.3,1.3v-1.6ZM108.5,540.3c.6,0,1.1-.1,1.6-.4s.8-.7,1-1.2.4-1.1.4-1.7-.1-1.2-.4-1.7c-.2-.5-.6-.9-1-1.2-.4-.3-1-.4-1.6-.4s-1.1.1-1.6.4c-.5.3-.9.7-1.2,1.2-.3.5-.4,1.1-.4,1.7s.1,1.2.4,1.7c.3.5.7.9,1.2,1.2.5.3,1,.4,1.6.4Z"/>
    <path d="M10,550.7h1.5v9.4c0,.6-.1,1.2-.4,1.7s-.6,1-1,1.4c-.4.4-.9.7-1.5.9-.6.2-1.1.3-1.7.3s-1.2-.1-1.8-.4c-.6-.3-1.1-.7-1.5-1.1-.4-.5-.8-1-1-1.6l1.4-.6c.1.4.3.8.6,1.1s.7.6,1.1.8c.4.2.8.3,1.2.3s.8,0,1.2-.2c.4-.1.7-.3,1-.6s.5-.5.7-.9c.2-.3.3-.7.3-1.1v-1.8c-.3.5-.7.9-1.2,1.3-.5.3-1.1.5-1.8.5s-1.2-.1-1.8-.4-1.1-.6-1.5-1c-.4-.4-.8-.9-1-1.5s-.4-1.2-.4-1.9.1-1.3.4-1.9c.2-.6.6-1.1,1-1.5s.9-.8,1.5-1,1.2-.4,1.8-.4,1.3.2,1.8.5c.5.3.9.7,1.2,1.3v-1.5ZM7,558.5c.6,0,1.1-.2,1.5-.5.4-.3.8-.7,1-1.2s.4-1,.4-1.6-.1-1.2-.4-1.7c-.2-.5-.6-.9-1-1.2-.4-.3-.9-.5-1.5-.5s-1.1.1-1.6.4c-.5.3-.8.7-1.1,1.2-.3.5-.4,1.1-.4,1.7s.1,1.2.4,1.7c.3.5.7.9,1.1,1.2.5.3,1,.4,1.6.4Z"/>
    <path d="M17.6,560c-.8,0-1.6-.2-2.3-.6-.7-.4-1.2-1-1.6-1.7-.4-.7-.6-1.5-.6-2.4s.1-1.3.4-1.9c.2-.6.6-1.1,1-1.5.4-.4.9-.8,1.5-1s1.1-.4,1.8-.4,1.3.1,1.9.4c.6.3,1.1.7,1.5,1.2.4.5.7,1.1.9,1.7.2.6.3,1.3.2,2.1h-7.4c0,.5.2,1,.5,1.4.3.4.6.7,1,1,.4.2.9.4,1.4.4.5,0,1-.1,1.5-.4s.8-.7,1.1-1.2l1.6.4c-.4.8-.9,1.5-1.6,2s-1.6.8-2.5.8ZM14.7,554.6h5.9c0-.5-.2-1-.5-1.4s-.6-.8-1.1-1c-.4-.3-.9-.4-1.4-.4s-1,.1-1.4.4-.8.6-1.1,1c-.3.4-.4.9-.5,1.4Z"/>
    <path d="M26.5,559.9c-.5,0-1-.1-1.4-.3s-.9-.4-1.2-.7c-.3-.3-.6-.6-.8-1l1.3-.6c0,.2.3.4.5.6.2.2.5.3.8.4s.6.2.9.2.6,0,.9-.2c.3-.1.5-.3.7-.5s.3-.4.3-.7-.1-.5-.3-.7c-.2-.2-.5-.3-.8-.4-.3,0-.6-.2-.9-.3-.6-.2-1.2-.3-1.7-.6s-.9-.5-1.2-.8-.4-.8-.4-1.3.2-1.1.5-1.5c.3-.4.7-.7,1.2-1,.5-.2,1.1-.3,1.6-.3s1.4.2,2,.5,1.1.7,1.4,1.3l-1.2.7c-.1-.2-.3-.4-.5-.6s-.5-.3-.7-.4c-.3,0-.6-.1-.8-.2-.4,0-.7,0-1,.1-.3.1-.6.3-.7.5s-.3.5-.3.8,0,.5.3.7c.2.2.5.3.8.4.3,0,.7.2,1,.3.6.2,1.1.4,1.5.6s.9.5,1.2.9c.3.3.4.8.4,1.3,0,.6-.2,1-.5,1.5-.3.4-.8.7-1.3,1-.5.2-1.1.3-1.7.3Z"/>
    <path d="M36.3,552.2h-2.1v7.6h-1.5v-7.6s-1.6,0-1.6,0v-1.5h1.6v-2.9s1.5,0,1.5,0v2.9h2.1v1.5Z"/>
    <path d="M38.6,549.2c-.2,0-.4,0-.6-.2-.2-.2-.2-.4-.2-.6s0-.4.2-.6c.2-.2.4-.2.6-.2s.4,0,.6.2c.2.2.2.4.2.6s0,.4-.2.6c-.2.2-.4.2-.6.2ZM37.8,550.7h1.5v9.1h-1.5v-9.1Z"/>
    <path d="M45.4,560c-.8,0-1.6-.2-2.3-.6-.7-.4-1.2-1-1.6-1.7-.4-.7-.6-1.5-.6-2.4s.1-1.3.4-1.9c.2-.6.6-1.1,1-1.5.4-.4.9-.8,1.5-1s1.1-.4,1.8-.4,1.6.2,2.3.6c.7.4,1.2,1,1.6,1.7.4.7.6,1.5.6,2.4s-.1,1.3-.4,1.9c-.2.6-.6,1.1-1,1.5-.4.4-.9.8-1.4,1s-1.1.4-1.8.4ZM45.4,558.5c.6,0,1.1-.1,1.5-.5s.8-.7,1.1-1.2c.3-.5.4-1,.4-1.6s-.1-1.1-.4-1.6c-.3-.5-.6-.9-1.1-1.2-.5-.3-1-.4-1.5-.4s-1.1.1-1.5.5c-.5.3-.8.7-1.1,1.2-.3.5-.4,1-.4,1.6s.1,1.2.4,1.7c.3.5.6.9,1.1,1.2.5.3,1,.4,1.5.4ZM45,549.7l.7-2.6h1.5l-1.2,2.6h-1Z"/>
    <path d="M59.5,554.1v5.7h-1.5v-5.3c0-.5-.1-.9-.3-1.3-.2-.4-.5-.7-.9-.9-.4-.2-.8-.3-1.3-.3s-.9.1-1.3.3c-.4.2-.7.5-.9.9-.2.4-.3.8-.3,1.3v5.3h-1.5v-9.1h1.5v1.1c.3-.4.7-.8,1.2-1,.5-.3,1-.4,1.6-.4s1.3.2,1.9.5c.6.3,1,.8,1.3,1.3.3.6.5,1.2.5,1.9Z"/>
    <path d="M73.1,546.1h1.5v13.7h-1.5v-1.5c-.3.5-.7,1-1.2,1.3-.5.3-1.1.5-1.8.5s-1.3-.1-1.9-.4c-.6-.2-1.1-.6-1.5-1-.4-.4-.8-.9-1-1.5-.2-.6-.4-1.2-.4-1.9s.1-1.3.4-1.9c.2-.6.6-1.1,1-1.5s.9-.8,1.5-1c.6-.2,1.2-.4,1.9-.4s1.3.2,1.8.5c.5.3.9.8,1.2,1.3v-6.1ZM70,558.5c.6,0,1.1-.1,1.6-.4s.8-.7,1-1.2.4-1.1.4-1.7-.1-1.2-.4-1.7c-.2-.5-.6-.9-1-1.2-.4-.3-1-.4-1.6-.4s-1.1.1-1.6.4c-.5.3-.9.7-1.2,1.2-.3.5-.4,1.1-.4,1.7s.1,1.2.4,1.7c.3.5.7.9,1.2,1.2.5.3,1,.4,1.6.4Z"/>
    <path d="M80.7,560c-.8,0-1.6-.2-2.3-.6-.7-.4-1.2-1-1.6-1.7-.4-.7-.6-1.5-.6-2.4s.1-1.3.4-1.9c.2-.6.6-1.1,1-1.5.4-.4.9-.8,1.5-1s1.1-.4,1.8-.4,1.3.1,1.9.4c.6.3,1.1.7,1.5,1.2.4.5.7,1.1.9,1.7.2.6.3,1.3.2,2.1h-7.4c0,.5.2,1,.5,1.4.3.4.6.7,1,1,.4.2.9.4,1.4.4.5,0,1-.1,1.5-.4s.8-.7,1.1-1.2l1.6.4c-.4.8-.9,1.5-1.6,2s-1.6.8-2.5.8ZM77.7,554.6h5.9c0-.5-.2-1-.5-1.4s-.6-.8-1.1-1c-.4-.3-.9-.4-1.4-.4s-1,.1-1.4.4-.8.6-1.1,1c-.3.4-.4.9-.5,1.4Z"/>
    <path d="M96,552.2h-2.1v7.6h-1.5v-7.6s-1.6,0-1.6,0v-1.5h1.6v-2.9s1.5,0,1.5,0v2.9h2.1v1.5Z"/>
    <path d="M97.2,556.3v-5.6h1.5v5.3c0,.5.1.9.3,1.3.2.4.5.7.9.9.4.2.8.3,1.3.3s.9-.1,1.3-.3c.4-.2.7-.5.9-.9.2-.4.3-.8.3-1.3v-5.3h1.5v9.1s-1.5,0-1.5,0v-1.2c-.3.4-.7.8-1.2,1-.5.3-1,.4-1.6.4s-1.3-.2-1.9-.5c-.6-.3-1-.8-1.3-1.3-.3-.6-.5-1.2-.5-1.9Z"/>
    <path d="M109.9,559.9c-.5,0-1-.1-1.4-.3s-.9-.4-1.2-.7c-.3-.3-.6-.6-.8-1l1.3-.6c0,.2.3.4.5.6.2.2.5.3.8.4s.6.2.9.2.6,0,.9-.2c.3-.1.5-.3.7-.5s.3-.4.3-.7-.1-.5-.3-.7c-.2-.2-.5-.3-.8-.4-.3,0-.6-.2-.9-.3-.6-.2-1.2-.3-1.7-.6s-.9-.5-1.2-.8-.4-.8-.4-1.3.2-1.1.5-1.5c.3-.4.7-.7,1.2-1,.5-.2,1.1-.3,1.6-.3s1.4.2,2,.5,1.1.7,1.4,1.3l-1.2.7c-.1-.2-.3-.4-.5-.6s-.5-.3-.7-.4c-.3,0-.6-.1-.8-.2-.4,0-.7,0-1,.1-.3.1-.6.3-.7.5s-.3.5-.3.8,0,.5.3.7c.2.2.5.3.8.4.3,0,.7.2,1,.3.6.2,1.1.4,1.5.6s.9.5,1.2.9c.3.3.4.8.4,1.3,0,.6-.2,1-.5,1.5-.3.4-.8.7-1.3,1-.5.2-1.1.3-1.7.3Z"/>
    <path d="M45,582.5h-2.2v-13.7h2.2v1.2c.3-.4.7-.7,1.1-1,.4-.3.9-.4,1.5-.4s1.3.1,1.9.4c.6.2,1.1.6,1.5,1,.4.4.8.9,1,1.5.2.6.4,1.2.4,1.9s-.1,1.3-.4,1.9c-.2.6-.6,1.1-1,1.5-.4.4-.9.8-1.5,1s-1.2.4-1.9.4-1.1-.1-1.5-.4c-.4-.3-.8-.6-1.1-1v5.7ZM47.5,570.8c-.5,0-.9.1-1.2.4-.4.2-.6.6-.9,1-.2.4-.3.8-.3,1.3s.1.9.3,1.3c.2.4.5.7.9,1s.8.4,1.2.4.9-.1,1.3-.4c.4-.2.7-.6.9-1,.2-.4.3-.9.3-1.3s-.1-.9-.3-1.3c-.2-.4-.5-.7-.9-1-.4-.2-.8-.4-1.3-.4Z"/>
    <path d="M53.8,578v-9.1s2.2,0,2.2,0v.8c.3-.3.7-.6,1.1-.8s.9-.3,1.4-.3.7,0,1,.1l-.9,2.2c-.2,0-.5-.1-.7-.1-.4,0-.7,0-1,.3-.3.2-.5.4-.7.7-.2.3-.3.6-.3,1v5.2h-2.2Z"/>
    <path d="M64.1,578.2c-.8,0-1.6-.2-2.3-.6-.7-.4-1.2-1-1.6-1.7-.4-.7-.6-1.5-.6-2.4s.1-1.3.4-1.9c.2-.6.6-1.1,1-1.5.4-.4.9-.8,1.5-1s1.1-.4,1.8-.4,1.6.2,2.3.6c.7.4,1.2,1,1.6,1.7.4.7.6,1.5.6,2.4s-.1,1.3-.4,1.9c-.2.6-.6,1.1-1,1.5-.4.4-.9.8-1.4,1s-1.1.4-1.8.4ZM64.1,576c.4,0,.8-.1,1.2-.4.4-.2.6-.5.8-.9.2-.4.3-.8.3-1.3s-.1-.9-.3-1.3c-.2-.4-.5-.7-.8-.9s-.7-.4-1.2-.4-.8.1-1.2.4c-.4.2-.6.6-.8.9-.2.4-.3.8-.3,1.3s.1.9.3,1.3c.2.4.5.7.9.9s.7.3,1.2.3Z"/>
    <path d="M75.8,575.2l2,1.1c-.4.6-.9,1-1.6,1.4s-1.3.5-2.1.5-1.6-.2-2.3-.6c-.7-.4-1.2-1-1.6-1.7-.4-.7-.6-1.5-.6-2.4s.1-1.3.4-1.9c.2-.6.6-1.1,1-1.5.4-.4.9-.8,1.5-1s1.1-.4,1.8-.4,1.4.2,2.1.5,1.2.8,1.6,1.4l-2,1.1c-.2-.2-.5-.4-.8-.6-.3-.1-.6-.2-.9-.2-.4,0-.8.1-1.2.4-.4.2-.6.6-.8.9-.2.4-.3.8-.3,1.3s.1.9.3,1.3c.2.4.5.7.8.9.4.2.7.4,1.2.4s.6,0,.9-.2c.3-.1.5-.3.7-.6Z"/>
    <path d="M83.1,578.2c-.8,0-1.6-.2-2.3-.6-.7-.4-1.2-1-1.6-1.7s-.6-1.5-.6-2.4.1-1.3.4-1.9c.2-.6.6-1.1,1-1.5.4-.4.9-.8,1.5-1s1.1-.4,1.8-.4,1.4.2,2,.5,1.1.7,1.5,1.2c.4.5.7,1.1.9,1.8s.2,1.4.1,2.1h-6.7c0,.3.2.6.4.9.2.3.4.5.7.6.3.2.6.2,1,.2.4,0,.7,0,1.1-.3.3-.2.6-.5.8-.8l2.3.5c-.4.8-.9,1.5-1.7,2s-1.6.8-2.5.8ZM80.9,572.5h4.5c0-.4-.2-.7-.4-1-.2-.3-.5-.5-.8-.7-.3-.2-.7-.3-1-.3s-.7,0-1,.3-.6.4-.8.7c-.2.3-.4.6-.4,1Z"/>
    <path d="M91.9,578.1c-.5,0-.9-.1-1.4-.3-.4-.2-.8-.4-1.2-.7-.3-.3-.6-.6-.8-1l1.9-.8c0,.1.2.2.4.4.2.1.4.2.6.3.2,0,.5.1.8.1s.5,0,.7,0c.2,0,.4-.2.5-.3.1-.1.2-.3.2-.5s0-.4-.2-.5c-.2-.1-.3-.2-.6-.3s-.5-.1-.7-.2c-.6-.1-1.1-.3-1.6-.5-.5-.2-.9-.6-1.2-.9-.3-.4-.5-.9-.5-1.4s.2-1.1.5-1.6c.3-.4.7-.8,1.2-1,.5-.2,1.1-.4,1.7-.4s1.4.1,2,.5,1.1.7,1.4,1.3l-1.8,1c0-.1-.2-.3-.4-.4-.2-.1-.3-.2-.5-.3-.2,0-.4-.1-.6-.1-.3,0-.5,0-.7,0-.2,0-.4.2-.5.3-.1.1-.2.3-.2.6s0,.4.3.5c.2.1.4.2.7.3s.5.1.7.2c.5.2,1,.4,1.5.6s.8.6,1.1.9.4.8.4,1.3c0,.6-.2,1.1-.5,1.5-.4.4-.8.8-1.4,1-.6.2-1.1.3-1.8.3Z"/>
    <path d="M101,578.2c-.8,0-1.6-.2-2.3-.6-.7-.4-1.2-1-1.6-1.7-.4-.7-.6-1.5-.6-2.4s.1-1.3.4-1.9c.2-.6.6-1.1,1-1.5.4-.4.9-.8,1.5-1s1.1-.4,1.8-.4,1.6.2,2.3.6c.7.4,1.2,1,1.6,1.7.4.7.6,1.5.6,2.4s-.1,1.3-.4,1.9c-.2.6-.6,1.1-1,1.5-.4.4-.9.8-1.4,1s-1.1.4-1.8.4ZM101,576c.4,0,.8-.1,1.2-.4.4-.2.6-.5.8-.9.2-.4.3-.8.3-1.3s-.1-.9-.3-1.3c-.2-.4-.5-.7-.8-.9s-.7-.4-1.2-.4-.8.1-1.2.4c-.4.2-.6.6-.8.9-.2.4-.3.8-.3,1.3s.1.9.3,1.3c.2.4.5.7.9.9s.7.3,1.2.3Z"/>
    <path d="M109.7,578.1c-.5,0-.9-.1-1.4-.3-.4-.2-.8-.4-1.2-.7-.3-.3-.6-.6-.8-1l1.9-.8c0,.1.2.2.4.4.2.1.4.2.6.3.2,0,.5.1.8.1s.5,0,.7,0c.2,0,.4-.2.5-.3.1-.1.2-.3.2-.5s0-.4-.2-.5c-.2-.1-.3-.2-.6-.3s-.5-.1-.7-.2c-.6-.1-1.1-.3-1.6-.5-.5-.2-.9-.6-1.2-.9-.3-.4-.5-.9-.5-1.4s.2-1.1.5-1.6c.3-.4.7-.8,1.2-1,.5-.2,1.1-.4,1.7-.4s1.4.1,2,.5,1.1.7,1.4,1.3l-1.8,1c0-.1-.2-.3-.4-.4-.2-.1-.3-.2-.5-.3-.2,0-.4-.1-.6-.1-.3,0-.5,0-.7,0-.2,0-.4.2-.5.3-.1.1-.2.3-.2.6s0,.4.3.5c.2.1.4.2.7.3s.5.1.7.2c.5.2,1,.4,1.5.6s.8.6,1.1.9.4.8.4,1.3c0,.6-.2,1.1-.5,1.5-.4.4-.8.8-1.4,1-.6.2-1.1.3-1.8.3Z"/>
    <path d="M32.8,596.4c-.8,0-1.6-.2-2.3-.6-.7-.4-1.2-1-1.6-1.7s-.6-1.5-.6-2.4.1-1.3.4-1.9c.2-.6.6-1.1,1-1.5.4-.4.9-.8,1.5-1s1.1-.4,1.8-.4,1.4.2,2,.5,1.1.7,1.5,1.2c.4.5.7,1.1.9,1.8s.2,1.4.1,2.1h-6.7c0,.3.2.6.4.9.2.3.4.5.7.6.3.2.6.2,1,.2.4,0,.7,0,1.1-.3.3-.2.6-.5.8-.8l2.3.5c-.4.8-.9,1.5-1.7,2s-1.6.8-2.5.8ZM30.6,590.7h4.5c0-.4-.2-.7-.4-1-.2-.3-.5-.5-.8-.7-.3-.2-.7-.3-1-.3s-.7,0-1,.3-.6.4-.8.7c-.2.3-.4.6-.4,1Z"/>
    <path d="M45.7,582.5h2.2v13.7h-2.2v-1.1c-.3.4-.7.7-1.1,1-.4.3-1,.4-1.5.4s-1.3-.1-1.9-.4c-.6-.2-1.1-.6-1.5-1-.4-.4-.8-.9-1-1.5-.2-.6-.4-1.2-.4-1.9s.1-1.3.4-1.9c.2-.6.6-1.1,1-1.5.4-.4.9-.8,1.5-1,.6-.2,1.2-.4,1.9-.4s1.1.1,1.5.4c.4.3.8.6,1.1,1v-5.7ZM43.1,594.3c.5,0,.9-.1,1.3-.4.4-.2.6-.6.9-1,.2-.4.3-.8.3-1.3s-.1-.9-.3-1.3c-.2-.4-.5-.7-.9-1s-.8-.4-1.3-.4-.9.1-1.3.4c-.4.2-.7.6-.9,1-.2.4-.3.8-.3,1.3s.1.9.3,1.3c.2.4.5.7.9,1,.4.2.8.4,1.3.4Z"/>
    <path d="M51.2,585.9c-.3,0-.6-.1-.8-.3-.2-.2-.3-.5-.3-.8s.1-.6.3-.8c.2-.2.5-.3.8-.3s.6.1.8.3c.2.2.3.5.3.8s-.1.6-.3.8c-.2.2-.5.3-.8.3ZM50.1,587.1h2.2v9.1h-2.2v-9.1Z"/>
    <path d="M59.4,589.3h-1.8v6.9h-2.2v-6.9h-1.3v-2.2h1.3v-2.9h2.2v2.9h1.8v2.2Z"/>
    <path d="M64.8,596.4c-.8,0-1.6-.2-2.3-.6-.7-.4-1.2-1-1.6-1.7-.4-.7-.6-1.5-.6-2.4s.1-1.3.4-1.9c.2-.6.6-1.1,1-1.5.4-.4.9-.8,1.5-1s1.1-.4,1.8-.4,1.6.2,2.3.6c.7.4,1.2,1,1.6,1.7.4.7.6,1.5.6,2.4s-.1,1.3-.4,1.9c-.2.6-.6,1.1-1,1.5-.4.4-.9.8-1.4,1s-1.1.4-1.8.4ZM64.8,594.2c.4,0,.8-.1,1.2-.4.4-.2.6-.5.8-.9.2-.4.3-.8.3-1.3s-.1-.9-.3-1.3c-.2-.4-.5-.7-.8-.9s-.7-.4-1.2-.4-.8.1-1.2.4c-.4.2-.6.6-.8.9-.2.4-.3.8-.3,1.3s.1.9.3,1.3c.2.4.5.7.9.9s.7.3,1.2.3Z"/>
    <path d="M70.8,596.2v-9.1s2.2,0,2.2,0v.8c.3-.3.7-.6,1.1-.8s.9-.3,1.4-.3.7,0,1,.1l-.9,2.2c-.2,0-.5-.1-.7-.1-.4,0-.7,0-1,.3-.3.2-.5.4-.7.7-.2.3-.3.6-.3,1v5.2h-2.2Z"/>
    <path d="M78.7,585.9c-.3,0-.6-.1-.8-.3-.2-.2-.3-.5-.3-.8s.1-.6.3-.8c.2-.2.5-.3.8-.3s.6.1.8.3c.2.2.3.5.3.8s-.1.6-.3.8c-.2.2-.5.3-.8.3ZM77.6,587.1h2.2v9.1h-2.2v-9.1Z"/>
    <path d="M88.6,587.1h2.2v9.1h-2.2v-1.1c-.3.4-.7.7-1.1,1-.4.3-.9.4-1.5.4s-1.3-.1-1.9-.4c-.6-.3-1.1-.6-1.6-1.1-.4-.4-.8-1-1-1.6-.3-.6-.4-1.2-.4-1.9s.1-1.3.4-1.8.6-1.1,1-1.5c.4-.4.9-.8,1.5-1,.6-.2,1.2-.4,1.8-.4s1.1.1,1.6.4c.5.3.9.6,1.2,1v-1.2ZM86,594.3c.5,0,.9-.1,1.3-.4.4-.2.6-.6.9-1,.2-.4.3-.8.3-1.3s-.1-.9-.3-1.3c-.2-.4-.5-.7-.9-1s-.8-.4-1.3-.4-.9.1-1.3.4c-.4.2-.7.6-.9,1-.2.4-.3.8-.3,1.3s.1.9.3,1.3c.2.4.5.7.9,1,.4.2.8.4,1.3.4Z"/>
    <path d="M92.7,596.2v-13.7h2.2v13.7h-2.2Z"/>
    <path d="M101,596.4c-.8,0-1.6-.2-2.3-.6-.7-.4-1.2-1-1.6-1.7s-.6-1.5-.6-2.4.1-1.3.4-1.9c.2-.6.6-1.1,1-1.5.4-.4.9-.8,1.5-1s1.1-.4,1.8-.4,1.4.2,2,.5,1.1.7,1.5,1.2c.4.5.7,1.1.9,1.8s.2,1.4.1,2.1h-6.7c0,.3.2.6.4.9.2.3.4.5.7.6.3.2.6.2,1,.2.4,0,.7,0,1.1-.3.3-.2.6-.5.8-.8l2.3.5c-.4.8-.9,1.5-1.7,2s-1.6.8-2.5.8ZM98.7,590.7h4.5c0-.4-.2-.7-.4-1-.2-.3-.5-.5-.8-.7-.3-.2-.7-.3-1-.3s-.7,0-1,.3-.6.4-.8.7c-.2.3-.4.6-.4,1Z"/>
    <path d="M109.7,596.3c-.5,0-.9-.1-1.4-.3-.4-.2-.8-.4-1.2-.7-.3-.3-.6-.6-.8-1l1.9-.8c0,.1.2.2.4.4.2.1.4.2.6.3.2,0,.5.1.8.1s.5,0,.7,0c.2,0,.4-.2.5-.3.1-.1.2-.3.2-.5s0-.4-.2-.5c-.2-.1-.3-.2-.6-.3s-.5-.1-.7-.2c-.6-.1-1.1-.3-1.6-.5-.5-.2-.9-.6-1.2-.9-.3-.4-.5-.9-.5-1.4s.2-1.1.5-1.6c.3-.4.7-.8,1.2-1,.5-.2,1.1-.4,1.7-.4s1.4.1,2,.5,1.1.7,1.4,1.3l-1.8,1c0-.1-.2-.3-.4-.4-.2-.1-.3-.2-.5-.3-.2,0-.4-.1-.6-.1-.3,0-.5,0-.7,0-.2,0-.4.2-.5.3-.1.1-.2.3-.2.6s0,.4.3.5c.2.1.4.2.7.3s.5.1.7.2c.5.2,1,.4,1.5.6s.8.6,1.1.9.4.8.4,1.3c0,.6-.2,1.1-.5,1.5-.4.4-.8.8-1.4,1-.6.2-1.1.3-1.8.3Z"/>
  </g>
  <g class="st5">
    <rect class="st10" x="257.7" y="236.7" width="15.8" height="490"/>
  </g>
  <rect class="st13" x="143.1" y="227.2" width="119.4" height="499.9"/>
  <rect class="st0" x="592" y="232.1" width="119.4" height="499.9"/>
  <g class="st3">
    <rect class="st10" x="869.7" y="236.6" width="16.5" height="495"/>
  </g>
  <rect class="st6" x="877.7" y="231.4" width="119.4" height="499.9"/>
  <rect class="st12" x="330.8" y="228.9" width="119.4" height="532.3" transform="translate(-116.7 120.5) rotate(-15.3)"/>
  <text class="st8" transform="translate(216.3 698.7) rotate(-90)"><tspan x="0" y="0">IMPLEMENTACIÓN</tspan></text>
  <text class="st9" transform="translate(456.6 680.8) rotate(-105.3)"><tspan x="0" y="0">ACTUALIZACIÓN</tspan></text>
  <g class="st1">
    <rect class="st10" x="1054" y="245.2" width="13.1" height="489.8" transform="translate(-91.7 297) rotate(-15.3)"/>
  </g>
  <rect class="st13" x="1065.2" y="223.8" width="125.5" height="532.3" transform="translate(-89.3 314.8) rotate(-15.3)"/>
  <text class="st9" transform="translate(1180.8 700.6) rotate(-105.3)"><tspan x="0" y="0">VISUALIZACIÓN DE</tspan><tspan x="0" y="45.5">DATOS</tspan></text>
  <path class="st11" d="M427.4,381.4h47.6c5.9-14.5,11.7-28.9,17.6-43.4"/>
  <g>
    <path d="M451.9,237.8v-12.7h4.2c.9,0,1.7.2,2.5.5.8.3,1.4.8,2,1.4s1,1.3,1.4,2c.3.8.5,1.6.5,2.5s-.2,1.7-.5,2.5c-.3.8-.8,1.4-1.4,2s-1.3,1-2,1.4c-.8.3-1.6.5-2.5.5h-4.2ZM453.4,236.3h2.7c.7,0,1.3-.1,1.9-.4.6-.3,1.1-.6,1.5-1,.4-.4.8-1,1-1.5.3-.6.4-1.2.4-1.9s-.1-1.3-.4-1.9c-.3-.6-.6-1.1-1-1.5-.4-.4-1-.8-1.5-1-.6-.3-1.2-.4-1.9-.4h-2.7v9.7Z"/>
    <path d="M464.8,227.2c-.2,0-.4,0-.6-.2-.2-.2-.2-.4-.2-.6s0-.4.2-.6c.2-.2.4-.2.6-.2s.4,0,.6.2c.2.2.2.4.2.6s0,.4-.2.6c-.2.2-.4.2-.6.2ZM464,228.7h1.5v9.1h-1.5v-9.1Z"/>
    <path d="M470.5,238c-.5,0-1-.1-1.4-.3-.5-.2-.9-.4-1.2-.7-.3-.3-.6-.6-.8-1l1.3-.6c0,.2.3.4.5.6.2.2.5.3.8.4s.6.2.9.2.6,0,.9-.2c.3-.1.5-.3.7-.5.2-.2.3-.4.3-.7s-.1-.5-.3-.7c-.2-.2-.5-.3-.8-.4-.3-.1-.6-.2-.9-.3-.6-.2-1.2-.3-1.7-.6s-.9-.5-1.2-.8-.4-.8-.4-1.3.2-1.1.5-1.5c.3-.4.7-.7,1.2-1s1.1-.3,1.6-.3,1.4.2,2,.5c.6.3,1.1.7,1.4,1.3l-1.2.7c-.1-.2-.3-.4-.5-.6-.2-.2-.5-.3-.7-.4-.3,0-.6-.1-.8-.2-.4,0-.7,0-1,.1-.3.1-.6.3-.7.5s-.3.5-.3.8,0,.5.3.7c.2.2.5.3.8.4.3,0,.7.2,1,.3.6.2,1.1.4,1.5.6.5.2.9.5,1.2.9.3.3.4.8.4,1.3,0,.6-.2,1-.5,1.5-.3.4-.8.7-1.3,1-.5.2-1.1.3-1.7.3Z"/>
    <path d="M477.6,226.5v2.2h2.7v1.5h-2.7v7.6h-1.5v-7.6h-1.2v-1.5h1.2v-2.2c0-.5.1-.9.3-1.3.2-.4.5-.7.9-.9s.8-.3,1.3-.3.7,0,1,.2c.3.1.6.3.9.6l-1.1,1.1c0-.1-.2-.2-.3-.3-.1,0-.3,0-.4,0-.3,0-.5,0-.7.3s-.3.4-.3.7Z"/>
    <path d="M482,237.8v-9.1h1.5v1.1c.3-.4.7-.8,1.2-1,.5-.3,1-.4,1.6-.4s.7,0,1,.1l-.6,1.5c-.2,0-.5-.1-.7-.1-.5,0-.9.1-1.3.3s-.7.5-.9.9c-.2.4-.3.8-.3,1.3v5.3h-1.5Z"/>
    <path d="M488,234.4v-5.6h1.5v5.3c0,.5.1.9.3,1.3.2.4.5.7.9.9s.8.3,1.3.3.9-.1,1.3-.3.7-.5.9-.9c.2-.4.3-.8.3-1.3v-5.3h1.5v9.1s-1.5,0-1.5,0v-1.2c-.3.4-.7.8-1.2,1s-1,.4-1.6.4-1.3-.2-1.9-.5c-.6-.3-1-.8-1.3-1.3-.3-.6-.5-1.2-.5-1.9Z"/>
    <path d="M502.6,230.2h-2.1v7.6h-1.5v-7.6s-1.6,0-1.6,0v-1.5h1.6v-2.9s1.5,0,1.5,0v2.9h2.1v1.5Z"/>
    <path d="M511.3,228.7h1.5v9.1h-1.5v-1.5c-.3.5-.7,1-1.2,1.3-.5.3-1.1.5-1.8.5s-1.3-.1-1.9-.4c-.6-.3-1.1-.6-1.5-1-.4-.4-.8-1-1-1.5-.2-.6-.4-1.2-.4-1.9s.1-1.3.4-1.8.6-1.1,1-1.5.9-.8,1.5-1c.6-.2,1.2-.4,1.8-.4s1.3.2,1.9.5c.5.3,1,.8,1.3,1.3v-1.6ZM508.3,236.6c.6,0,1.1-.1,1.6-.4s.8-.7,1-1.2c.2-.5.4-1.1.4-1.7s-.1-1.2-.4-1.7-.6-.9-1-1.2c-.4-.3-1-.4-1.6-.4s-1.1.1-1.6.4c-.5.3-.9.7-1.2,1.2-.3.5-.4,1.1-.4,1.7s.1,1.2.4,1.7c.3.5.7.9,1.2,1.2.5.3,1,.4,1.6.4Z"/>
    <path d="M526.4,224.2h1.5v13.7h-1.5v-1.5c-.3.5-.7,1-1.2,1.3-.5.3-1.1.5-1.8.5s-1.3-.1-1.9-.4c-.6-.2-1.1-.6-1.5-1-.4-.4-.8-.9-1-1.5-.2-.6-.4-1.2-.4-1.9s.1-1.3.4-1.9c.2-.6.6-1.1,1-1.5s.9-.8,1.5-1c.6-.2,1.2-.4,1.9-.4s1.3.2,1.8.5c.5.3.9.8,1.2,1.3v-6.1ZM523.3,236.6c.6,0,1.1-.1,1.6-.4s.8-.7,1-1.2c.2-.5.4-1.1.4-1.7s-.1-1.2-.4-1.7-.6-.9-1-1.2c-.4-.3-1-.4-1.6-.4s-1.1.1-1.6.4c-.5.3-.9.7-1.2,1.2-.3.5-.4,1.1-.4,1.7s.1,1.2.4,1.7c.3.5.7.9,1.2,1.2.5.3,1,.4,1.6.4Z"/>
    <path d="M534,238.1c-.8,0-1.6-.2-2.3-.6-.7-.4-1.2-1-1.6-1.7s-.6-1.5-.6-2.4.1-1.3.4-1.9c.2-.6.6-1.1,1-1.5.4-.4.9-.8,1.5-1,.6-.2,1.1-.4,1.8-.4s1.3.1,1.9.4c.6.3,1.1.7,1.5,1.2.4.5.7,1.1.9,1.7.2.6.3,1.3.2,2.1h-7.4c0,.5.2,1,.5,1.4.3.4.6.7,1,1s.9.4,1.4.4c.5,0,1-.1,1.5-.4s.8-.7,1.1-1.2l1.6.4c-.4.8-.9,1.5-1.6,2-.7.5-1.6.8-2.5.8ZM531.1,232.6h5.9c0-.5-.2-1-.5-1.4s-.6-.8-1.1-1c-.4-.3-.9-.4-1.4-.4s-1,.1-1.4.4-.8.6-1.1,1c-.3.4-.4.9-.5,1.4Z"/>
    <path d="M544.6,237.8v-13.7h1.5v13.7h-1.5Z"/>
    <path d="M552.2,238.1c-.8,0-1.6-.2-2.3-.6-.7-.4-1.2-1-1.6-1.7s-.6-1.5-.6-2.4.1-1.3.4-1.9c.2-.6.6-1.1,1-1.5.4-.4.9-.8,1.5-1,.6-.2,1.1-.4,1.8-.4s1.6.2,2.3.6c.7.4,1.2,1,1.6,1.7.4.7.6,1.5.6,2.4s-.1,1.3-.4,1.9c-.2.6-.6,1.1-1,1.5-.4.4-.9.8-1.4,1-.5.2-1.1.4-1.8.4ZM552.2,236.5c.6,0,1.1-.2,1.5-.5s.8-.7,1.1-1.2c.3-.5.4-1,.4-1.6s-.1-1.1-.4-1.6-.6-.9-1.1-1.2-1-.4-1.5-.4-1.1.2-1.5.5c-.5.3-.8.7-1.1,1.2-.3.5-.4,1-.4,1.6s.1,1.2.4,1.7c.3.5.6.9,1.1,1.2.5.3,1,.4,1.5.4Z"/>
    <path d="M561.1,238c-.5,0-1-.1-1.4-.3-.5-.2-.9-.4-1.2-.7-.3-.3-.6-.6-.8-1l1.3-.6c0,.2.3.4.5.6.2.2.5.3.8.4s.6.2.9.2.6,0,.9-.2c.3-.1.5-.3.7-.5.2-.2.3-.4.3-.7s-.1-.5-.3-.7c-.2-.2-.5-.3-.8-.4-.3-.1-.6-.2-.9-.3-.6-.2-1.2-.3-1.7-.6s-.9-.5-1.2-.8-.4-.8-.4-1.3.2-1.1.5-1.5c.3-.4.7-.7,1.2-1s1.1-.3,1.6-.3,1.4.2,2,.5c.6.3,1.1.7,1.4,1.3l-1.2.7c-.1-.2-.3-.4-.5-.6-.2-.2-.5-.3-.7-.4-.3,0-.6-.1-.8-.2-.4,0-.7,0-1,.1-.3.1-.6.3-.7.5s-.3.5-.3.8,0,.5.3.7c.2.2.5.3.8.4.3,0,.7.2,1,.3.6.2,1.1.4,1.5.6.5.2.9.5,1.2.9.3.3.4.8.4,1.3,0,.6-.2,1-.5,1.5-.3.4-.8.7-1.3,1-.5.2-1.1.3-1.7.3Z"/>
    <path d="M456.7,249.5c.9,0,1.7.2,2.4.6.7.4,1.3,1,1.7,1.7.4.7.6,1.5.6,2.4s-.1,1.3-.4,1.9c-.2.6-.6,1.1-1,1.5-.4.4-.9.8-1.5,1-.6.2-1.2.4-1.9.4s-1.1-.1-1.5-.4c-.4-.3-.8-.6-1.1-1v1.2h-2.2v-13.7h2.2v5.7c.3-.4.7-.7,1.1-1,.4-.3.9-.4,1.5-.4ZM456.7,256.9c.5,0,.9-.1,1.3-.4s.7-.6.9-1c.2-.4.3-.8.3-1.3s-.1-.9-.3-1.3c-.2-.4-.5-.7-.9-1-.4-.2-.8-.4-1.3-.4s-.9.1-1.2.4c-.4.2-.6.6-.9,1-.2.4-.3.8-.3,1.3s.1.9.3,1.3c.2.4.5.7.9,1s.8.4,1.2.4Z"/>
    <path d="M467,259.1c-.8,0-1.6-.2-2.3-.6-.7-.4-1.2-1-1.6-1.7-.4-.7-.6-1.5-.6-2.4s.1-1.3.4-1.9c.2-.6.6-1.1,1-1.5.4-.4.9-.8,1.5-1,.6-.2,1.1-.4,1.8-.4s1.4.2,2,.5,1.1.7,1.5,1.2.7,1.1.9,1.8.2,1.4.1,2.1h-6.7c0,.3.2.6.4.9.2.3.4.5.7.6.3.2.6.2,1,.3.4,0,.7,0,1.1-.3.3-.2.6-.5.8-.8l2.3.5c-.4.8-.9,1.5-1.7,2-.7.5-1.6.8-2.5.8ZM464.8,253.4h4.5c0-.4-.2-.7-.4-1-.2-.3-.5-.5-.8-.7-.3-.2-.7-.3-1-.3s-.7,0-1,.3-.6.4-.8.7-.4.6-.4,1Z"/>
    <path d="M481.3,253.1v5.8h-2.2v-5.2c0-.4,0-.7-.3-1-.2-.3-.4-.5-.7-.7-.3-.2-.6-.3-1-.3s-.7,0-1,.3c-.3.2-.5.4-.7.7s-.3.6-.3,1v5.2h-2.2v-9.1s2.2,0,2.2,0v.8c.3-.3.7-.6,1.1-.8.4-.2.9-.3,1.4-.3s1.3.2,1.8.5c.5.3,1,.8,1.3,1.3.3.5.5,1.1.5,1.8Z"/>
    <path d="M487,259.1c-.8,0-1.6-.2-2.3-.6-.7-.4-1.2-1-1.6-1.7-.4-.7-.6-1.5-.6-2.4s.1-1.3.4-1.9c.2-.6.6-1.1,1-1.5.4-.4.9-.8,1.5-1,.6-.2,1.1-.4,1.8-.4s1.4.2,2,.5,1.1.7,1.5,1.2.7,1.1.9,1.8.2,1.4.1,2.1h-6.7c0,.3.2.6.4.9.2.3.4.5.7.6.3.2.6.2,1,.3.4,0,.7,0,1.1-.3.3-.2.6-.5.8-.8l2.3.5c-.4.8-.9,1.5-1.7,2-.7.5-1.6.8-2.5.8ZM484.7,253.4h4.5c0-.4-.2-.7-.4-1-.2-.3-.5-.5-.8-.7-.3-.2-.7-.3-1-.3s-.7,0-1,.3-.6.4-.8.7-.4.6-.4,1Z"/>
    <path d="M495.7,247.8v1.9h2.5v2.2h-2.5v6.9h-2.2v-6.9h-1v-2.2h1v-1.9c0-.5.1-1,.4-1.4.3-.4.6-.8,1-1,.4-.3.9-.4,1.4-.4s.8,0,1.1.2c.4.2.7.4,1,.7l-1.6,1.6c0-.1-.1-.2-.2-.2-.1,0-.2,0-.3,0-.2,0-.3,0-.5.2-.1.1-.2.3-.2.5Z"/>
    <path d="M500.8,248.6c-.3,0-.6-.1-.8-.3-.2-.2-.3-.5-.3-.8s.1-.6.3-.8c.2-.2.5-.3.8-.3s.6.1.8.3c.2.2.3.5.3.8s-.1.6-.3.8c-.2.2-.5.3-.8.3ZM499.6,249.7h2.2v9.1h-2.2v-9.1Z"/>
    <path d="M509.5,256.1l2,1.1c-.4.6-.9,1-1.6,1.4-.6.3-1.3.5-2.1.5s-1.6-.2-2.3-.6c-.7-.4-1.2-1-1.6-1.7s-.6-1.5-.6-2.4.1-1.3.4-1.9c.2-.6.6-1.1,1-1.5.4-.4.9-.8,1.5-1,.6-.2,1.1-.4,1.8-.4s1.4.2,2.1.5c.6.3,1.2.8,1.6,1.4l-2,1.1c-.2-.2-.5-.4-.8-.6-.3-.1-.6-.2-.9-.2-.4,0-.8.1-1.2.4-.4.2-.6.6-.8.9-.2.4-.3.8-.3,1.3s.1.9.3,1.3c.2.4.5.7.8.9.4.2.7.4,1.2.4s.6,0,.9-.2c.3-.1.5-.3.7-.6Z"/>
    <path d="M513.9,248.6c-.3,0-.6-.1-.8-.3-.2-.2-.3-.5-.3-.8s.1-.6.3-.8c.2-.2.5-.3.8-.3s.6.1.8.3c.2.2.3.5.3.8s-.1.6-.3.8c-.2.2-.5.3-.8.3ZM512.8,249.7h2.2v9.1h-2.2v-9.1Z"/>
    <path d="M521,259.1c-.8,0-1.6-.2-2.3-.6-.7-.4-1.2-1-1.6-1.7s-.6-1.5-.6-2.4.1-1.3.4-1.9c.2-.6.6-1.1,1-1.5.4-.4.9-.8,1.5-1,.6-.2,1.1-.4,1.8-.4s1.6.2,2.3.6c.7.4,1.2,1,1.6,1.7.4.7.6,1.5.6,2.4s-.1,1.3-.4,1.9c-.2.6-.6,1.1-1,1.5-.4.4-.9.8-1.4,1-.5.2-1.1.4-1.8.4ZM521,256.8c.4,0,.8-.1,1.2-.4.4-.2.6-.5.8-.9.2-.4.3-.8.3-1.3s-.1-.9-.3-1.3c-.2-.4-.5-.7-.8-.9-.4-.2-.7-.4-1.2-.4s-.8.1-1.2.4c-.4.2-.6.6-.8.9-.2.4-.3.8-.3,1.3s.1.9.3,1.3c.2.4.5.7.9.9s.7.3,1.2.3Z"/>
    <path d="M529.7,259c-.5,0-.9-.1-1.4-.3s-.8-.4-1.2-.7-.6-.6-.8-1l1.9-.8c0,.1.2.3.4.4.2.1.4.2.6.3.2,0,.5.1.8.1s.5,0,.7,0c.2,0,.4-.2.5-.3.1-.1.2-.3.2-.5s0-.4-.2-.5c-.2-.1-.3-.2-.6-.3-.2,0-.5-.1-.7-.2-.6-.1-1.1-.3-1.6-.5s-.9-.6-1.2-.9c-.3-.4-.5-.9-.5-1.4s.2-1.1.5-1.6c.3-.4.7-.8,1.2-1,.5-.2,1.1-.4,1.7-.4s1.4.2,2,.5,1.1.7,1.4,1.3l-1.8,1c0-.1-.2-.3-.4-.4-.2-.1-.3-.2-.5-.3-.2,0-.4-.1-.6-.1-.3,0-.5,0-.7,0s-.4.2-.5.3c-.1.1-.2.3-.2.6s0,.4.3.5c.2.1.4.2.7.3.3,0,.5.1.7.2.5.2,1,.4,1.5.6s.8.6,1.1.9c.3.4.4.8.4,1.3,0,.6-.2,1.1-.5,1.5-.4.4-.8.8-1.4,1-.6.2-1.1.3-1.8.3Z"/>
    <path d="M458.8,266.2h2.2v13.7h-2.2v-1.1c-.3.4-.7.7-1.1,1-.4.3-1,.4-1.5.4s-1.3-.1-1.9-.4c-.6-.2-1.1-.6-1.5-1-.4-.4-.8-.9-1-1.5-.2-.6-.4-1.2-.4-1.9s.1-1.3.4-1.9c.2-.6.6-1.1,1-1.5s.9-.8,1.5-1c.6-.2,1.2-.4,1.9-.4s1.1.1,1.5.4c.4.3.8.6,1.1,1v-5.7ZM456.2,277.9c.5,0,.9-.1,1.3-.4.4-.2.6-.6.9-1,.2-.4.3-.8.3-1.3s-.1-.9-.3-1.3c-.2-.4-.5-.7-.9-1s-.8-.4-1.3-.4-.9.1-1.3.4c-.4.2-.7.6-.9,1-.2.4-.3.8-.3,1.3s.1.9.3,1.3c.2.4.5.7.9,1,.4.2.8.4,1.3.4Z"/>
    <path d="M467.1,280.1c-.8,0-1.6-.2-2.3-.6-.7-.4-1.2-1-1.6-1.7-.4-.7-.6-1.5-.6-2.4s.1-1.3.4-1.9c.2-.6.6-1.1,1-1.5.4-.4.9-.8,1.5-1,.6-.2,1.1-.4,1.8-.4s1.4.2,2,.5,1.1.7,1.5,1.2.7,1.1.9,1.8.2,1.4.1,2.1h-6.7c0,.3.2.6.4.9.2.3.4.5.7.6.3.2.6.2,1,.3.4,0,.7,0,1.1-.3.3-.2.6-.5.8-.8l2.3.5c-.4.8-.9,1.5-1.7,2-.7.5-1.6.8-2.5.8ZM464.8,274.4h4.5c0-.4-.2-.7-.4-1-.2-.3-.5-.5-.8-.7-.3-.2-.7-.3-1-.3s-.7,0-1,.3-.6.4-.8.7-.4.6-.4,1Z"/>
    <path d="M477.6,279.8v-13.7h2.2v13.7h-2.2Z"/>
    <path d="M488.7,270.7h2.2v9.1h-2.2v-1.1c-.3.4-.7.7-1.1,1s-.9.4-1.5.4-1.3-.1-1.9-.4c-.6-.3-1.1-.6-1.6-1.1-.4-.4-.8-1-1-1.6-.3-.6-.4-1.2-.4-1.9s.1-1.3.4-1.8c.2-.6.6-1.1,1-1.5s.9-.8,1.5-1c.6-.2,1.2-.4,1.8-.4s1.1.1,1.6.4c.5.3.9.6,1.2,1v-1.2ZM486.1,277.9c.5,0,.9-.1,1.3-.4.4-.2.6-.6.9-1,.2-.4.3-.8.3-1.3s-.1-.9-.3-1.3c-.2-.4-.5-.7-.9-1s-.8-.4-1.3-.4-.9.1-1.3.4c-.4.2-.7.6-.9,1-.2.4-.3.8-.3,1.3s.1.9.3,1.3c.2.4.5.7.9,1,.4.2.8.4,1.3.4Z"/>
    <path d="M495.5,280c-.5,0-.9-.1-1.4-.3s-.8-.4-1.2-.7-.6-.6-.8-1l1.9-.8c0,.1.2.3.4.4.2.1.4.2.6.3.2,0,.5.1.8.1s.5,0,.7,0c.2,0,.4-.2.5-.3.1-.1.2-.3.2-.5s0-.4-.2-.5c-.2-.1-.3-.2-.6-.3-.2,0-.5-.1-.7-.2-.6-.1-1.1-.3-1.6-.5s-.9-.6-1.2-.9c-.3-.4-.5-.9-.5-1.4s.2-1.1.5-1.6c.3-.4.7-.8,1.2-1,.5-.2,1.1-.4,1.7-.4s1.4.2,2,.5,1.1.7,1.4,1.3l-1.8,1c0-.1-.2-.3-.4-.4-.2-.1-.3-.2-.5-.3-.2,0-.4-.1-.6-.1-.3,0-.5,0-.7,0s-.4.2-.5.3c-.1.1-.2.3-.2.6s0,.4.3.5c.2.1.4.2.7.3.3,0,.5.1.7.2.5.2,1,.4,1.5.6s.8.6,1.1.9c.3.4.4.8.4,1.3,0,.6-.2,1.1-.5,1.5-.4.4-.8.8-1.4,1-.6.2-1.1.3-1.8.3Z"/>
    <path d="M513.4,274.1v5.8h-2.2v-5.2c0-.4,0-.7-.3-1-.2-.3-.4-.5-.7-.7-.3-.2-.6-.3-1-.3s-.7,0-1,.3c-.3.2-.5.4-.7.7s-.3.6-.3,1v5.2h-2.2v-9.1s2.2,0,2.2,0v.8c.3-.3.7-.6,1.1-.8.4-.2.9-.3,1.4-.3s1.3.2,1.8.5c.5.3,1,.8,1.3,1.3.3.5.5,1.1.5,1.8Z"/>
    <path d="M514.9,276.5v-5.7h2.2v5.2c0,.4,0,.7.3,1,.2.3.4.5.7.7.3.2.6.3,1,.3s.7,0,1-.3c.3-.2.5-.4.7-.7.2-.3.3-.6.3-1v-5.2h2.2v9.1s-2.2,0-2.2,0v-.8c-.3.3-.7.6-1.1.8-.4.2-.9.3-1.4.3s-1.3-.2-1.8-.5c-.5-.3-1-.8-1.3-1.3-.3-.5-.5-1.1-.5-1.8Z"/>
    <path d="M528.9,280.1c-.8,0-1.6-.2-2.3-.6-.7-.4-1.2-1-1.6-1.7-.4-.7-.6-1.5-.6-2.4s.1-1.3.4-1.9c.2-.6.6-1.1,1-1.5.4-.4.9-.8,1.5-1,.6-.2,1.1-.4,1.8-.4s1.4.2,2,.5,1.1.7,1.5,1.2.7,1.1.9,1.8.2,1.4.1,2.1h-6.7c0,.3.2.6.4.9.2.3.4.5.7.6.3.2.6.2,1,.3.4,0,.7,0,1.1-.3.3-.2.6-.5.8-.8l2.3.5c-.4.8-.9,1.5-1.7,2-.7.5-1.6.8-2.5.8ZM526.6,274.4h4.5c0-.4-.2-.7-.4-1-.2-.3-.5-.5-.8-.7-.3-.2-.7-.3-1-.3s-.7,0-1,.3-.6.4-.8.7-.4.6-.4,1Z"/>
    <path d="M540.1,279.8h-2.9l-3.3-9.1h2.4l2.4,6.6,2.4-6.6h2.4l-3.3,9.1Z"/>
    <path d="M551.2,270.7h2.2v9.1h-2.2v-1.1c-.3.4-.7.7-1.1,1s-.9.4-1.5.4-1.3-.1-1.9-.4c-.6-.3-1.1-.6-1.6-1.1-.4-.4-.8-1-1-1.6-.3-.6-.4-1.2-.4-1.9s.1-1.3.4-1.8c.2-.6.6-1.1,1-1.5s.9-.8,1.5-1c.6-.2,1.2-.4,1.8-.4s1.1.1,1.6.4c.5.3.9.6,1.2,1v-1.2ZM548.6,277.9c.5,0,.9-.1,1.3-.4.4-.2.6-.6.9-1,.2-.4.3-.8.3-1.3s-.1-.9-.3-1.3c-.2-.4-.5-.7-.9-1s-.8-.4-1.3-.4-.9.1-1.3.4c-.4.2-.7.6-.9,1-.2.4-.3.8-.3,1.3s.1.9.3,1.3c.2.4.5.7.9,1,.4.2.8.4,1.3.4Z"/>
    <path d="M558,280c-.5,0-.9-.1-1.4-.3s-.8-.4-1.2-.7-.6-.6-.8-1l1.9-.8c0,.1.2.3.4.4.2.1.4.2.6.3.2,0,.5.1.8.1s.5,0,.7,0c.2,0,.4-.2.5-.3.1-.1.2-.3.2-.5s0-.4-.2-.5c-.2-.1-.3-.2-.6-.3-.2,0-.5-.1-.7-.2-.6-.1-1.1-.3-1.6-.5s-.9-.6-1.2-.9c-.3-.4-.5-.9-.5-1.4s.2-1.1.5-1.6c.3-.4.7-.8,1.2-1,.5-.2,1.1-.4,1.7-.4s1.4.2,2,.5,1.1.7,1.4,1.3l-1.8,1c0-.1-.2-.3-.4-.4-.2-.1-.3-.2-.5-.3-.2,0-.4-.1-.6-.1-.3,0-.5,0-.7,0s-.4.2-.5.3c-.1.1-.2.3-.2.6s0,.4.3.5c.2.1.4.2.7.3.3,0,.5.1.7.2.5.2,1,.4,1.5.6s.8.6,1.1.9c.3.4.4.8.4,1.3,0,.6-.2,1.1-.5,1.5-.4.4-.8.8-1.4,1-.6.2-1.1.3-1.8.3Z"/>
    <path d="M457.5,300.8h-2.9l-3.3-9.1h2.4l2.4,6.6,2.4-6.6h2.4l-3.3,9.1Z"/>
    <path d="M465.8,301.1c-.8,0-1.6-.2-2.3-.6-.7-.4-1.2-1-1.6-1.7-.4-.7-.6-1.5-.6-2.4s.1-1.3.4-1.9c.2-.6.6-1.1,1-1.5.4-.4.9-.8,1.5-1,.6-.2,1.1-.4,1.8-.4s1.4.2,2,.5,1.1.7,1.5,1.2.7,1.1.9,1.8.2,1.4.1,2.1h-6.7c0,.3.2.6.4.9.2.3.4.5.7.6.3.2.6.2,1,.3.4,0,.7,0,1.1-.3.3-.2.6-.5.8-.8l2.3.5c-.4.8-.9,1.5-1.7,2-.7.5-1.6.8-2.5.8ZM463.6,295.4h4.5c0-.4-.2-.7-.4-1-.2-.3-.5-.5-.8-.7-.3-.2-.7-.3-1-.3s-.7,0-1,.3-.6.4-.8.7-.4.6-.4,1Z"/>
    <path d="M471.8,300.8v-9.1s2.2,0,2.2,0v.8c.3-.3.7-.6,1.1-.8.4-.2.9-.3,1.4-.3s.7,0,1,.1l-.9,2.2c-.2,0-.5-.1-.7-.1-.4,0-.7,0-1,.3-.3.2-.5.4-.7.7s-.3.6-.3,1v5.2h-2.2Z"/>
    <path d="M481.2,301c-.5,0-.9-.1-1.4-.3s-.8-.4-1.2-.7-.6-.6-.8-1l1.9-.8c0,.1.2.3.4.4.2.1.4.2.6.3.2,0,.5.1.8.1s.5,0,.7,0c.2,0,.4-.2.5-.3.1-.1.2-.3.2-.5s0-.4-.2-.5c-.2-.1-.3-.2-.6-.3-.2,0-.5-.1-.7-.2-.6-.1-1.1-.3-1.6-.5s-.9-.6-1.2-.9c-.3-.4-.5-.9-.5-1.4s.2-1.1.5-1.6c.3-.4.7-.8,1.2-1,.5-.2,1.1-.4,1.7-.4s1.4.2,2,.5,1.1.7,1.4,1.3l-1.8,1c0-.1-.2-.3-.4-.4-.2-.1-.3-.2-.5-.3-.2,0-.4-.1-.6-.1-.3,0-.5,0-.7,0s-.4.2-.5.3c-.1.1-.2.3-.2.6s0,.4.3.5c.2.1.4.2.7.3.3,0,.5.1.7.2.5.2,1,.4,1.5.6s.8.6,1.1.9c.3.4.4.8.4,1.3,0,.6-.2,1.1-.5,1.5-.4.4-.8.8-1.4,1-.6.2-1.1.3-1.8.3Z"/>
    <path d="M487.4,290.6c-.3,0-.6-.1-.8-.3-.2-.2-.3-.5-.3-.8s.1-.6.3-.8c.2-.2.5-.3.8-.3s.6.1.8.3c.2.2.3.5.3.8s-.1.6-.3.8c-.2.2-.5.3-.8.3ZM486.2,291.7h2.2v9.1h-2.2v-9.1Z"/>
    <path d="M494.4,301.1c-.8,0-1.6-.2-2.3-.6-.7-.4-1.2-1-1.6-1.7s-.6-1.5-.6-2.4.1-1.3.4-1.9c.2-.6.6-1.1,1-1.5.4-.4.9-.8,1.5-1,.6-.2,1.1-.4,1.8-.4s1.6.2,2.3.6c.7.4,1.2,1,1.6,1.7.4.7.6,1.5.6,2.4s-.1,1.3-.4,1.9c-.2.6-.6,1.1-1,1.5-.4.4-.9.8-1.4,1-.5.2-1.1.4-1.8.4ZM494.4,298.9c.4,0,.8-.1,1.2-.4.4-.2.6-.5.8-.9.2-.4.3-.8.3-1.3s-.1-.9-.3-1.3c-.2-.4-.5-.7-.8-.9-.4-.2-.7-.4-1.2-.4s-.8.1-1.2.4c-.4.2-.6.6-.8.9-.2.4-.3.8-.3,1.3s.1.9.3,1.3c.2.4.5.7.9.9s.7.3,1.2.3Z"/>
    <path d="M508.8,295.1v5.8h-2.2v-5.2c0-.4,0-.7-.3-1-.2-.3-.4-.5-.7-.7-.3-.2-.6-.3-1-.3s-.7,0-1,.3c-.3.2-.5.4-.7.7s-.3.6-.3,1v5.2h-2.2v-9.1s2.2,0,2.2,0v.8c.3-.3.7-.6,1.1-.8.4-.2.9-.3,1.4-.3s1.3.2,1.8.5c.5.3,1,.8,1.3,1.3.3.5.5,1.1.5,1.8Z"/>
    <path d="M514.4,301.1c-.8,0-1.6-.2-2.3-.6-.7-.4-1.2-1-1.6-1.7-.4-.7-.6-1.5-.6-2.4s.1-1.3.4-1.9c.2-.6.6-1.1,1-1.5.4-.4.9-.8,1.5-1,.6-.2,1.1-.4,1.8-.4s1.4.2,2,.5,1.1.7,1.5,1.2.7,1.1.9,1.8.2,1.4.1,2.1h-6.7c0,.3.2.6.4.9.2.3.4.5.7.6.3.2.6.2,1,.3.4,0,.7,0,1.1-.3.3-.2.6-.5.8-.8l2.3.5c-.4.8-.9,1.5-1.7,2-.7.5-1.6.8-2.5.8ZM512.2,295.4h4.5c0-.4-.2-.7-.4-1-.2-.3-.5-.5-.8-.7-.3-.2-.7-.3-1-.3s-.7,0-1,.3-.6.4-.8.7-.4.6-.4,1Z"/>
    <path d="M523.1,301c-.5,0-.9-.1-1.4-.3s-.8-.4-1.2-.7-.6-.6-.8-1l1.9-.8c0,.1.2.3.4.4.2.1.4.2.6.3.2,0,.5.1.8.1s.5,0,.7,0c.2,0,.4-.2.5-.3.1-.1.2-.3.2-.5s0-.4-.2-.5c-.2-.1-.3-.2-.6-.3-.2,0-.5-.1-.7-.2-.6-.1-1.1-.3-1.6-.5s-.9-.6-1.2-.9c-.3-.4-.5-.9-.5-1.4s.2-1.1.5-1.6c.3-.4.7-.8,1.2-1,.5-.2,1.1-.4,1.7-.4s1.4.2,2,.5,1.1.7,1.4,1.3l-1.8,1c0-.1-.2-.3-.4-.4-.2-.1-.3-.2-.5-.3-.2,0-.4-.1-.6-.1-.3,0-.5,0-.7,0s-.4.2-.5.3c-.1.1-.2.3-.2.6s0,.4.3.5c.2.1.4.2.7.3.3,0,.5.1.7.2.5.2,1,.4,1.5.6s.8.6,1.1.9c.3.4.4.8.4,1.3,0,.6-.2,1.1-.5,1.5-.4.4-.8.8-1.4,1-.6.2-1.1.3-1.8.3Z"/>
    <path d="M540.1,287.2h1.5v13.7h-1.5v-1.5c-.3.5-.7,1-1.2,1.3-.5.3-1.1.5-1.8.5s-1.3-.1-1.9-.4c-.6-.2-1.1-.6-1.5-1-.4-.4-.8-.9-1-1.5-.2-.6-.4-1.2-.4-1.9s.1-1.3.4-1.9c.2-.6.6-1.1,1-1.5s.9-.8,1.5-1c.6-.2,1.2-.4,1.9-.4s1.3.2,1.8.5c.5.3.9.8,1.2,1.3v-6.1ZM537,299.6c.6,0,1.1-.1,1.6-.4s.8-.7,1-1.2c.2-.5.4-1.1.4-1.7s-.1-1.2-.4-1.7-.6-.9-1-1.2c-.4-.3-1-.4-1.6-.4s-1.1.1-1.6.4c-.5.3-.9.7-1.2,1.2-.3.5-.4,1.1-.4,1.7s.1,1.2.4,1.7c.3.5.7.9,1.2,1.2.5.3,1,.4,1.6.4Z"/>
    <path d="M547.7,301.1c-.8,0-1.6-.2-2.3-.6-.7-.4-1.2-1-1.6-1.7s-.6-1.5-.6-2.4.1-1.3.4-1.9c.2-.6.6-1.1,1-1.5.4-.4.9-.8,1.5-1,.6-.2,1.1-.4,1.8-.4s1.3.1,1.9.4c.6.3,1.1.7,1.5,1.2.4.5.7,1.1.9,1.7.2.6.3,1.3.2,2.1h-7.4c0,.5.2,1,.5,1.4.3.4.6.7,1,1s.9.4,1.4.4c.5,0,1-.1,1.5-.4s.8-.7,1.1-1.2l1.6.4c-.4.8-.9,1.5-1.6,2-.7.5-1.6.8-2.5.8ZM544.7,295.6h5.9c0-.5-.2-1-.5-1.4s-.6-.8-1.1-1c-.4-.3-.9-.4-1.4-.4s-1,.1-1.4.4-.8.6-1.1,1c-.3.4-.4.9-.5,1.4Z"/>
    <path d="M457.8,322.1c-.9,0-1.7-.2-2.4-.5-.8-.3-1.4-.8-2-1.4s-1-1.3-1.4-2.1-.5-1.7-.5-2.6.2-1.8.5-2.6.8-1.5,1.4-2.1,1.2-1.1,2-1.4c.8-.3,1.6-.5,2.4-.5s1.7.2,2.4.5c.8.3,1.4.8,2,1.4s1,1.3,1.4,2.1.5,1.7.5,2.6-.2,1.8-.5,2.6-.8,1.5-1.4,2.1-1.2,1.1-2,1.4c-.8.3-1.6.5-2.4.5ZM457.8,320.6c.7,0,1.3-.1,1.9-.4.6-.3,1.1-.6,1.5-1.1.4-.5.8-1,1-1.6.2-.6.4-1.3.4-2s-.1-1.3-.4-2c-.2-.6-.6-1.2-1-1.6s-.9-.8-1.5-1.1c-.6-.3-1.2-.4-1.8-.4s-1.3.1-1.9.4c-.6.3-1.1.6-1.5,1.1-.4.5-.8,1-1,1.6-.2.6-.4,1.3-.4,2s.1,1.4.4,2c.2.6.6,1.2,1,1.6s.9.8,1.5,1.1c.6.3,1.2.4,1.8.4Z"/>
    <path d="M466.7,322.1c-.4,0-.8,0-1.2-.2-.4-.1-.8-.4-1.1-.6l1-1.2c.2.2.4.3.6.4.2,0,.5.1.8.1.4,0,.8-.1,1.1-.3.3-.2.6-.5.8-.8s.3-.7.3-1.1v-9.2h1.5v9.2c0,.7-.2,1.3-.5,1.9-.3.6-.8,1-1.3,1.4-.6.4-1.2.5-1.9.5Z"/>
    <path d="M477.1,322.1c-.7,0-1.3-.1-2-.3s-1.2-.5-1.7-.9c-.5-.4-.8-.9-1-1.4l1.4-.5c.1.3.3.6.7.9.3.3.7.4,1.2.6.4.1.9.2,1.4.2s1.1,0,1.5-.3c.5-.2.9-.4,1.1-.8.3-.3.4-.7.4-1.1s-.2-.8-.5-1.1c-.3-.3-.7-.5-1.2-.7s-1-.3-1.5-.4c-.9-.1-1.7-.4-2.4-.6s-1.2-.6-1.6-1.1c-.4-.5-.6-1.1-.6-1.9s.2-1.4.6-1.9c.4-.6,1-1,1.7-1.3.7-.3,1.5-.5,2.3-.5s1.3.1,2,.3c.6.2,1.2.5,1.7.9.5.4.8.9,1,1.5l-1.4.5c-.1-.3-.3-.6-.7-.9s-.7-.4-1.2-.6c-.4-.1-.9-.2-1.4-.2-.5,0-1,0-1.5.3s-.8.4-1.1.8c-.3.3-.4.7-.4,1.1s.1.9.4,1.2.6.5,1.1.6,1,.3,1.6.4c.8.1,1.6.4,2.3.7.7.3,1.3.7,1.7,1.2s.6,1.1.6,1.8-.2,1.4-.6,1.9-1,1-1.7,1.3c-.7.3-1.5.5-2.3.5Z"/>
    <path d="M494.3,312.7h1.6l-5,13.7h-1.6l1.6-4.6-3.3-9.1h1.7l2.4,7,2.6-7Z"/>
    <path d="M508.1,322.1c-.9,0-1.7-.2-2.4-.5-.8-.3-1.4-.8-2-1.4s-1-1.3-1.4-2.1-.5-1.7-.5-2.6.2-1.8.5-2.6.8-1.5,1.4-2.1,1.2-1.1,2-1.4c.8-.3,1.6-.5,2.4-.5s1.7.2,2.4.5c.8.3,1.4.8,2,1.4s1,1.3,1.4,2.1.5,1.7.5,2.6-.2,1.8-.5,2.6-.8,1.5-1.4,2.1-1.2,1.1-2,1.4c-.8.3-1.6.5-2.4.5ZM508.1,320.6c.7,0,1.3-.1,1.9-.4.6-.3,1.1-.6,1.5-1.1.4-.5.8-1,1-1.6.2-.6.4-1.3.4-2s-.1-1.3-.4-2c-.2-.6-.6-1.2-1-1.6s-.9-.8-1.5-1.1c-.6-.3-1.2-.4-1.8-.4s-1.3.1-1.9.4c-.6.3-1.1.6-1.5,1.1-.4.5-.8,1-1,1.6-.2.6-.4,1.3-.4,2s.1,1.4.4,2c.2.6.6,1.2,1,1.6s.9.8,1.5,1.1c.6.3,1.2.4,1.8.4Z"/>
    <path d="M515.8,321.8l2.5-12.7h1.2l3.4,9,3.4-9h1.2l2.5,12.7h-1.6l-1.8-9.2-3.2,8.6h-1l-3.2-8.6-1.8,9.2h-1.6Z"/>
    <path d="M531.9,321.8v-12.7h4.2c.7,0,1.3.2,1.9.5.5.3,1,.8,1.3,1.4.3.6.5,1.2.5,1.9s-.2,1.3-.5,1.9c-.3.6-.8,1-1.3,1.3-.6.3-1.2.5-1.8.5h-2.7v5.2h-1.5ZM533.4,315.1h2.5c.4,0,.8-.1,1.1-.3.3-.2.6-.5.8-.8.2-.3.3-.7.3-1.2s-.1-.8-.3-1.2c-.2-.3-.5-.6-.8-.8-.3-.2-.7-.3-1.1-.3h-2.5v4.6Z"/>
  </g>
  <path class="st11" d="M1166.9,361.8h47.6c5.9-14.5,11.7-28.9,17.6-43.4"/>
  <g>
    <path d="M1174.1,250c-.9,0-1.7-.2-2.5-.5s-1.4-.8-2-1.4c-.6-.6-1-1.3-1.3-2.1-.3-.8-.5-1.7-.5-2.6s.2-1.8.5-2.6c.3-.8.8-1.5,1.4-2.1s1.3-1.1,2-1.4,1.6-.5,2.4-.5,1.9.2,2.7.7c.9.4,1.6,1.1,2.2,1.9l-1.4.7c-.5-.6-1-1-1.7-1.4-.6-.3-1.3-.5-2-.5s-1.3.1-1.8.4c-.6.3-1.1.6-1.5,1.1-.4.5-.8,1-1,1.6-.2.6-.4,1.3-.4,2s.1,1.4.4,2c.2.6.6,1.2,1,1.6.4.5.9.8,1.5,1.1.6.3,1.2.4,1.8.4s1,0,1.5-.3c.5-.2.9-.4,1.3-.7.4-.3.7-.7,1-1.1s.5-.9.6-1.4h-3.1v-1.4h4.9c0,.9-.2,1.7-.5,2.5-.3.8-.8,1.5-1.4,2.1-.6.6-1.2,1.1-2,1.4-.8.3-1.6.5-2.4.5Z"/>
    <path d="M1186.1,250c-.8,0-1.6-.2-2.3-.6-.7-.4-1.2-1-1.6-1.7-.4-.7-.6-1.5-.6-2.4s.1-1.3.4-1.9c.2-.6.6-1.1,1-1.5.4-.4.9-.8,1.5-1,.6-.2,1.1-.4,1.8-.4s1.3.1,1.9.4c.6.3,1.1.7,1.5,1.2.4.5.7,1.1.9,1.7.2.6.3,1.3.2,2.1h-7.4c0,.5.2,1,.5,1.4.3.4.6.7,1,1,.4.2.9.4,1.4.4.5,0,1-.1,1.5-.4.4-.3.8-.7,1.1-1.2l1.6.4c-.4.8-.9,1.5-1.6,2-.7.5-1.6.8-2.5.8ZM1183.1,244.5h5.9c0-.5-.2-1-.5-1.4-.3-.4-.6-.8-1.1-1s-.9-.4-1.4-.4-1,.1-1.4.4c-.4.2-.8.6-1.1,1s-.4.9-.5,1.4Z"/>
    <path d="M1194.9,249.9c-.5,0-1-.1-1.4-.3-.5-.2-.9-.4-1.2-.7-.3-.3-.6-.6-.8-1l1.3-.6c0,.2.3.4.5.6.2.2.5.3.8.4s.6.2.9.2.6,0,.9-.2.5-.3.7-.5c.2-.2.3-.4.3-.7s-.1-.5-.3-.7c-.2-.2-.5-.3-.8-.4-.3-.1-.6-.2-.9-.3-.6-.2-1.2-.3-1.7-.6s-.9-.5-1.2-.8-.4-.8-.4-1.3.2-1.1.5-1.5c.3-.4.7-.7,1.2-1s1.1-.3,1.6-.3,1.4.2,2,.5c.6.3,1.1.7,1.4,1.3l-1.2.7c-.1-.2-.3-.4-.5-.6-.2-.2-.5-.3-.7-.4-.3,0-.6-.1-.8-.2-.4,0-.7,0-1,.1s-.6.3-.7.5c-.2.2-.3.5-.3.8s0,.5.3.7.5.3.8.4c.3,0,.7.2,1,.3.6.2,1.1.4,1.5.6.5.2.9.5,1.2.9.3.3.4.8.4,1.3,0,.6-.2,1-.5,1.5-.3.4-.8.7-1.3,1-.5.2-1.1.3-1.7.3Z"/>
    <path d="M1204.7,242.2h-2.1v7.6h-1.5v-7.6s-1.6,0-1.6,0v-1.5h1.6v-2.9s1.5,0,1.5,0v2.9h2.1v1.5Z"/>
    <path d="M1207,239.1c-.2,0-.4,0-.6-.2-.2-.2-.2-.4-.2-.6s0-.4.2-.6c.2-.2.4-.2.6-.2s.4,0,.6.2.2.4.2.6,0,.4-.2.6c-.2.2-.4.2-.6.2ZM1206.3,240.6h1.5v9.1h-1.5v-9.1Z"/>
    <path d="M1213.9,250c-.8,0-1.6-.2-2.3-.6-.7-.4-1.2-1-1.6-1.7-.4-.7-.6-1.5-.6-2.4s.1-1.3.4-1.9c.2-.6.6-1.1,1-1.5.4-.4.9-.8,1.5-1,.6-.2,1.1-.4,1.8-.4s1.6.2,2.3.6c.7.4,1.2,1,1.6,1.7.4.7.6,1.5.6,2.4s-.1,1.3-.4,1.9c-.2.6-.6,1.1-1,1.5-.4.4-.9.8-1.4,1-.5.2-1.1.4-1.8.4ZM1213.9,248.4c.6,0,1.1-.2,1.5-.5s.8-.7,1.1-1.2c.3-.5.4-1,.4-1.6s-.1-1.1-.4-1.6c-.3-.5-.6-.9-1.1-1.2s-1-.4-1.5-.4-1.1.2-1.5.5-.8.7-1.1,1.2c-.3.5-.4,1-.4,1.6s.1,1.2.4,1.7c.3.5.6.9,1.1,1.2.5.3,1,.4,1.5.4Z"/>
    <path d="M1228,244.1v5.7h-1.5v-5.3c0-.5-.1-.9-.3-1.3-.2-.4-.5-.7-.9-.9s-.8-.3-1.3-.3-.9.1-1.3.3-.7.5-.9.9c-.2.4-.3.8-.3,1.3v5.3h-1.5v-9.1h1.5v1.1c.3-.4.7-.8,1.2-1,.5-.3,1-.4,1.6-.4s1.3.2,1.9.5c.6.3,1,.8,1.3,1.3.3.6.5,1.2.5,1.9Z"/>
    <path d="M1236.9,240.6h1.5v9.1h-1.5v-1.5c-.3.5-.7,1-1.2,1.3-.5.3-1.1.5-1.8.5s-1.3-.1-1.9-.4c-.6-.3-1.1-.6-1.5-1-.4-.4-.8-1-1-1.5-.2-.6-.4-1.2-.4-1.9s.1-1.3.4-1.8c.2-.6.6-1.1,1-1.5.4-.4.9-.8,1.5-1s1.2-.4,1.8-.4,1.3.2,1.9.5c.5.3,1,.8,1.3,1.3v-1.6ZM1233.9,248.5c.6,0,1.1-.1,1.6-.4.4-.3.8-.7,1-1.2.2-.5.4-1.1.4-1.7s-.1-1.2-.4-1.7-.6-.9-1-1.2c-.4-.3-1-.4-1.6-.4s-1.1.1-1.6.4c-.5.3-.9.7-1.2,1.2-.3.5-.4,1.1-.4,1.7s.1,1.2.4,1.7c.3.5.7.9,1.2,1.2s1,.4,1.6.4Z"/>
    <path d="M1249.4,242.2h-2.1v7.6h-1.5v-7.6s-1.6,0-1.6,0v-1.5h1.6v-2.9s1.5,0,1.5,0v2.9h2.1v1.5Z"/>
    <path d="M1250.6,246.3v-5.6h1.5v5.3c0,.5.1.9.3,1.3.2.4.5.7.9.9s.8.3,1.3.3.9-.1,1.3-.3c.4-.2.7-.5.9-.9.2-.4.3-.8.3-1.3v-5.3h1.5v9.1s-1.5,0-1.5,0v-1.2c-.3.4-.7.8-1.2,1-.5.3-1,.4-1.6.4s-1.3-.2-1.9-.5c-.6-.3-1-.8-1.3-1.3-.3-.6-.5-1.2-.5-1.9Z"/>
    <path d="M1263.3,249.9c-.5,0-1-.1-1.4-.3-.5-.2-.9-.4-1.2-.7-.3-.3-.6-.6-.8-1l1.3-.6c0,.2.3.4.5.6.2.2.5.3.8.4s.6.2.9.2.6,0,.9-.2.5-.3.7-.5c.2-.2.3-.4.3-.7s-.1-.5-.3-.7c-.2-.2-.5-.3-.8-.4-.3-.1-.6-.2-.9-.3-.6-.2-1.2-.3-1.7-.6s-.9-.5-1.2-.8-.4-.8-.4-1.3.2-1.1.5-1.5c.3-.4.7-.7,1.2-1s1.1-.3,1.6-.3,1.4.2,2,.5c.6.3,1.1.7,1.4,1.3l-1.2.7c-.1-.2-.3-.4-.5-.6-.2-.2-.5-.3-.7-.4-.3,0-.6-.1-.8-.2-.4,0-.7,0-1,.1s-.6.3-.7.5c-.2.2-.3.5-.3.8s0,.5.3.7.5.3.8.4c.3,0,.7.2,1,.3.6.2,1.1.4,1.5.6.5.2.9.5,1.2.9.3.3.4.8.4,1.3,0,.6-.2,1-.5,1.5-.3.4-.8.7-1.3,1-.5.2-1.1.3-1.7.3Z"/>
    <path d="M1175.6,257.1h1.5v13.7h-1.5v-1.5c-.3.5-.7,1-1.2,1.3-.5.3-1.1.5-1.8.5s-1.3-.1-1.9-.4c-.6-.2-1.1-.6-1.5-1-.4-.4-.8-.9-1-1.5-.2-.6-.4-1.2-.4-1.9s.1-1.3.4-1.9c.2-.6.6-1.1,1-1.5.4-.4.9-.8,1.5-1,.6-.2,1.2-.4,1.9-.4s1.3.2,1.8.5c.5.3.9.8,1.2,1.3v-6.1ZM1172.5,269.5c.6,0,1.1-.1,1.6-.4.4-.3.8-.7,1-1.2.2-.5.4-1.1.4-1.7s-.1-1.2-.4-1.7-.6-.9-1-1.2c-.4-.3-1-.4-1.6-.4s-1.1.1-1.6.4-.9.7-1.2,1.2c-.3.5-.4,1.1-.4,1.7s.1,1.2.4,1.7c.3.5.7.9,1.2,1.2s1,.4,1.6.4Z"/>
    <path d="M1186.5,261.6h1.5v9.1h-1.5v-1.5c-.3.5-.7,1-1.2,1.3-.5.3-1.1.5-1.8.5s-1.3-.1-1.9-.4c-.6-.3-1.1-.6-1.5-1-.4-.4-.8-1-1-1.5-.2-.6-.4-1.2-.4-1.9s.1-1.3.4-1.8c.2-.6.6-1.1,1-1.5.4-.4.9-.8,1.5-1s1.2-.4,1.8-.4,1.3.2,1.9.5c.5.3,1,.8,1.3,1.3v-1.6ZM1183.5,269.5c.6,0,1.1-.1,1.6-.4.4-.3.8-.7,1-1.2.2-.5.4-1.1.4-1.7s-.1-1.2-.4-1.7-.6-.9-1-1.2c-.4-.3-1-.4-1.6-.4s-1.1.1-1.6.4c-.5.3-.9.7-1.2,1.2-.3.5-.4,1.1-.4,1.7s.1,1.2.4,1.7c.3.5.7.9,1.2,1.2s1,.4,1.6.4Z"/>
    <path d="M1194.6,263.2h-2.1v7.6h-1.5v-7.6s-1.6,0-1.6,0v-1.5h1.6v-2.9s1.5,0,1.5,0v2.9h2.1v1.5Z"/>
    <path d="M1200,271c-.8,0-1.6-.2-2.3-.6-.7-.4-1.2-1-1.6-1.7-.4-.7-.6-1.5-.6-2.4s.1-1.3.4-1.9c.2-.6.6-1.1,1-1.5.4-.4.9-.8,1.5-1,.6-.2,1.1-.4,1.8-.4s1.6.2,2.3.6c.7.4,1.2,1,1.6,1.7.4.7.6,1.5.6,2.4s-.1,1.3-.4,1.9c-.2.6-.6,1.1-1,1.5-.4.4-.9.8-1.4,1-.5.2-1.1.4-1.8.4ZM1200,269.4c.6,0,1.1-.2,1.5-.5s.8-.7,1.1-1.2c.3-.5.4-1,.4-1.6s-.1-1.1-.4-1.6c-.3-.5-.6-.9-1.1-1.2s-1-.4-1.5-.4-1.1.2-1.5.5-.8.7-1.1,1.2c-.3.5-.4,1-.4,1.6s.1,1.2.4,1.7c.3.5.6.9,1.1,1.2.5.3,1,.4,1.5.4Z"/>
    <path d="M1208.9,270.9c-.5,0-1-.1-1.4-.3-.5-.2-.9-.4-1.2-.7-.3-.3-.6-.6-.8-1l1.3-.6c0,.2.3.4.5.6.2.2.5.3.8.4s.6.2.9.2.6,0,.9-.2.5-.3.7-.5c.2-.2.3-.4.3-.7s-.1-.5-.3-.7c-.2-.2-.5-.3-.8-.4-.3-.1-.6-.2-.9-.3-.6-.2-1.2-.3-1.7-.6s-.9-.5-1.2-.8-.4-.8-.4-1.3.2-1.1.5-1.5c.3-.4.7-.7,1.2-1s1.1-.3,1.6-.3,1.4.2,2,.5c.6.3,1.1.7,1.4,1.3l-1.2.7c-.1-.2-.3-.4-.5-.6-.2-.2-.5-.3-.7-.4-.3,0-.6-.1-.8-.2-.4,0-.7,0-1,.1s-.6.3-.7.5c-.2.2-.3.5-.3.8s0,.5.3.7.5.3.8.4c.3,0,.7.2,1,.3.6.2,1.1.4,1.5.6.5.2.9.5,1.2.9.3.3.4.8.4,1.3,0,.6-.2,1-.5,1.5-.3.4-.8.7-1.3,1-.5.2-1.1.3-1.7.3Z"/>
    <path d="M1224.6,268.3l1.4.7c-.4.6-.9,1-1.6,1.4-.6.3-1.3.5-2.1.5s-1.6-.2-2.3-.6c-.7-.4-1.2-1-1.6-1.7-.4-.7-.6-1.5-.6-2.4s.1-1.3.4-1.9c.2-.6.6-1.1,1-1.5.4-.4.9-.8,1.5-1,.6-.2,1.1-.4,1.8-.4s1.4.2,2.1.5c.6.3,1.2.8,1.6,1.4l-1.4.7c-.3-.4-.6-.6-1-.8-.4-.2-.8-.3-1.2-.3s-1.1.2-1.5.5c-.5.3-.8.7-1.1,1.2-.3.5-.4,1-.4,1.6s.1,1.1.4,1.6c.3.5.6.9,1.1,1.2.5.3,1,.4,1.5.4s.9-.1,1.3-.3.7-.5,1-.8Z"/>
    <path d="M1231.4,271c-.8,0-1.6-.2-2.3-.6-.7-.4-1.2-1-1.6-1.7-.4-.7-.6-1.5-.6-2.4s.1-1.3.4-1.9c.2-.6.6-1.1,1-1.5.4-.4.9-.8,1.5-1,.6-.2,1.1-.4,1.8-.4s1.6.2,2.3.6c.7.4,1.2,1,1.6,1.7.4.7.6,1.5.6,2.4s-.1,1.3-.4,1.9c-.2.6-.6,1.1-1,1.5-.4.4-.9.8-1.4,1-.5.2-1.1.4-1.8.4ZM1231.4,269.4c.6,0,1.1-.2,1.5-.5s.8-.7,1.1-1.2c.3-.5.4-1,.4-1.6s-.1-1.1-.4-1.6c-.3-.5-.6-.9-1.1-1.2s-1-.4-1.5-.4-1.1.2-1.5.5-.8.7-1.1,1.2c-.3.5-.4,1-.4,1.6s.1,1.2.4,1.7c.3.5.6.9,1.1,1.2.5.3,1,.4,1.5.4Z"/>
    <path d="M1245.5,265.1v5.7h-1.5v-5.3c0-.5-.1-.9-.3-1.3-.2-.4-.5-.7-.9-.9s-.8-.3-1.3-.3-.9.1-1.3.3-.7.5-.9.9c-.2.4-.3.8-.3,1.3v5.3h-1.5v-9.1h1.5v1.1c.3-.4.7-.8,1.2-1,.5-.3,1-.4,1.6-.4s1.3.2,1.9.5c.6.3,1,.8,1.3,1.3.3.6.5,1.2.5,1.9Z"/>
    <path d="M1255.7,271c-.8,0-1.6-.2-2.3-.6-.7-.4-1.2-1-1.6-1.7-.4-.7-.6-1.5-.6-2.4s.1-1.3.4-1.9c.2-.6.6-1.1,1-1.5.4-.4.9-.8,1.5-1,.6-.2,1.1-.4,1.8-.4s1.3.1,1.9.4c.6.3,1.1.7,1.5,1.2.4.5.7,1.1.9,1.7.2.6.3,1.3.2,2.1h-7.4c0,.5.2,1,.5,1.4.3.4.6.7,1,1,.4.2.9.4,1.4.4.5,0,1-.1,1.5-.4.4-.3.8-.7,1.1-1.2l1.6.4c-.4.8-.9,1.5-1.6,2-.7.5-1.6.8-2.5.8ZM1252.8,265.5h5.9c0-.5-.2-1-.5-1.4-.3-.4-.6-.8-1.1-1s-.9-.4-1.4-.4-1,.1-1.4.4c-.4.2-.8.6-1.1,1s-.4.9-.5,1.4Z"/>
    <path d="M1261.7,270.7v-13.7h1.5v13.7h-1.5Z"/>
    <path d="M1168.2,286.8v-12.7h4.6c.7,0,1.3.2,1.9.5.6.3,1,.8,1.3,1.4.3.6.5,1.2.5,1.9s-.2,1.4-.5,1.9-.8,1-1.4,1.4c-.6.3-1.2.5-1.8.5h-2.3v5.1h-2.2ZM1170.5,279.5h2.1c.3,0,.6,0,.9-.2.3-.2.5-.4.6-.6.2-.3.2-.6.2-.9s0-.6-.2-.9c-.2-.3-.4-.5-.6-.6-.3-.2-.5-.2-.9-.2h-2.1v3.5Z"/>
    <path d="M1181.5,287.1c-.8,0-1.6-.2-2.3-.6-.7-.4-1.2-1-1.6-1.7-.4-.7-.6-1.5-.6-2.4s.1-1.3.4-1.9c.2-.6.6-1.1,1-1.5.4-.4.9-.8,1.5-1,.6-.2,1.1-.4,1.8-.4s1.6.2,2.3.6c.7.4,1.2,1,1.6,1.7.4.7.6,1.5.6,2.4s-.1,1.3-.4,1.9c-.2.6-.6,1.1-1,1.5-.4.4-.9.8-1.4,1-.5.2-1.1.4-1.8.4ZM1181.5,284.9c.4,0,.8-.1,1.2-.4.4-.2.6-.5.8-.9.2-.4.3-.8.3-1.3s-.1-.9-.3-1.3c-.2-.4-.5-.7-.8-.9-.4-.2-.7-.4-1.2-.4s-.8.1-1.2.4c-.4.2-.6.6-.8.9-.2.4-.3.8-.3,1.3s.1.9.3,1.3c.2.4.5.7.9.9.4.2.7.3,1.2.3Z"/>
    <path d="M1187.5,286.8v-9.1s2.2,0,2.2,0v.8c.3-.3.7-.6,1.1-.8.4-.2.9-.3,1.4-.3s.7,0,1,.1l-.9,2.2c-.2,0-.5-.1-.7-.1-.4,0-.7,0-1,.3-.3.2-.5.4-.7.7s-.3.6-.3,1v5.2h-2.2Z"/>
    <path d="M1199.4,280h-1.8v6.9h-2.2v-6.9h-1.3v-2.2h1.3v-2.9h2.2v2.9h1.8v2.2Z"/>
    <path d="M1207.7,277.7h2.2v9.1h-2.2v-1.1c-.3.4-.7.7-1.1,1-.4.3-.9.4-1.5.4s-1.3-.1-1.9-.4c-.6-.3-1.1-.6-1.6-1.1s-.8-1-1-1.6c-.3-.6-.4-1.2-.4-1.9s.1-1.3.4-1.8c.2-.6.6-1.1,1-1.5.4-.4.9-.8,1.5-1s1.2-.4,1.8-.4,1.1.1,1.6.4c.5.3.9.6,1.2,1v-1.2ZM1205.1,284.9c.5,0,.9-.1,1.3-.4.4-.2.6-.6.9-1,.2-.4.3-.8.3-1.3s-.1-.9-.3-1.3c-.2-.4-.5-.7-.9-1s-.8-.4-1.3-.4-.9.1-1.3.4c-.4.2-.7.6-.9,1s-.3.8-.3,1.3.1.9.3,1.3.5.7.9,1c.4.2.8.4,1.3.4Z"/>
    <path d="M1211.8,286.8v-13.7h2.2v13.7h-2.2Z"/>
    <path d="M1168.2,302.9v-12.7h4.6c.7,0,1.3.1,1.8.4.5.3,1,.7,1.3,1.2s.5,1.1.5,1.8,0,.6-.1.9c0,.3-.2.6-.4.9-.2.3-.4.4-.7.6.4,0,.7.3,1,.5s.4.6.6.9c.1.3.2.7.3,1,0,.4,0,.7,0,1,0,.7-.2,1.3-.5,1.8-.3.5-.8.9-1.3,1.3s-1.2.5-1.9.5h-5.2ZM1170.5,295.1h2.2c.4,0,.8-.1,1.2-.4.3-.3.5-.6.5-1.1s-.2-.9-.5-1.1c-.3-.3-.7-.4-1.2-.4h-2.2v3ZM1170.5,301h2.7c.4,0,.7,0,1-.3.3-.2.5-.4.7-.7.2-.3.3-.7.3-1.1s0-.7-.3-1c-.2-.3-.4-.5-.7-.7-.3-.2-.6-.3-1-.3h-2.7v4Z"/>
    <path d="M1180.1,292.7c-.3,0-.6-.1-.8-.3-.2-.2-.3-.5-.3-.8s.1-.6.3-.8c.2-.2.5-.3.8-.3s.6.1.8.3c.2.2.3.5.3.8s-.1.6-.3.8c-.2.2-.5.3-.8.3ZM1178.9,293.8h2.2v9.1h-2.2v-9.1Z"/>
    <path d="M1188.2,293.6c.9,0,1.7.2,2.4.6.7.4,1.3,1,1.7,1.7.4.7.6,1.5.6,2.4s-.1,1.3-.4,1.9-.6,1.1-1,1.5c-.4.4-.9.8-1.5,1-.6.2-1.2.4-1.9.4s-1.1-.1-1.5-.4c-.4-.3-.8-.6-1.1-1v1.2h-2.2v-13.7h2.2v5.7c.3-.4.7-.7,1.1-1,.4-.3.9-.4,1.5-.4ZM1188.2,301c.5,0,.9-.1,1.3-.4.4-.2.7-.6.9-1,.2-.4.3-.8.3-1.3s-.1-.9-.3-1.3c-.2-.4-.5-.7-.9-1s-.8-.4-1.3-.4-.9.1-1.2.4c-.4.2-.6.6-.9,1-.2.4-.3.8-.3,1.3s.1.9.3,1.3c.2.4.5.7.9,1s.8.4,1.2.4Z"/>
    <path d="M1194.3,302.9v-13.7h2.2v13.7h-2.2Z"/>
    <path d="M1199.8,292.7c-.3,0-.6-.1-.8-.3-.2-.2-.3-.5-.3-.8s.1-.6.3-.8c.2-.2.5-.3.8-.3s.6.1.8.3c.2.2.3.5.3.8s-.1.6-.3.8c-.2.2-.5.3-.8.3ZM1198.7,293.8h2.2v9.1h-2.2v-9.1Z"/>
    <path d="M1206.9,303.2c-.8,0-1.6-.2-2.3-.6-.7-.4-1.2-1-1.6-1.7-.4-.7-.6-1.5-.6-2.4s.1-1.3.4-1.9c.2-.6.6-1.1,1-1.5.4-.4.9-.8,1.5-1,.6-.2,1.1-.4,1.8-.4s1.6.2,2.3.6c.7.4,1.2,1,1.6,1.7.4.7.6,1.5.6,2.4s-.1,1.3-.4,1.9c-.2.6-.6,1.1-1,1.5-.4.4-.9.8-1.4,1-.5.2-1.1.4-1.8.4ZM1206.9,301c.4,0,.8-.1,1.2-.4.4-.2.6-.5.8-.9.2-.4.3-.8.3-1.3s-.1-.9-.3-1.3c-.2-.4-.5-.7-.8-.9-.4-.2-.7-.4-1.2-.4s-.8.1-1.2.4c-.4.2-.6.6-.8.9-.2.4-.3.8-.3,1.3s.1.9.3,1.3c.2.4.5.7.9.9.4.2.7.3,1.2.3Z"/>
    <path d="M1212.9,302.9v-9.1h2.2v.8c.3-.3.7-.6,1.1-.8.4-.2.9-.3,1.4-.3s1.2.1,1.7.4c.5.3,1,.7,1.3,1.2.3-.5.7-.9,1.3-1.2s1.1-.4,1.7-.4,1.3.2,1.8.5c.5.3,1,.8,1.3,1.3.3.5.5,1.1.5,1.8v5.8h-2.2v-5.2c0-.4,0-.7-.3-1-.2-.3-.4-.5-.7-.7s-.6-.3-1-.3-.7,0-1,.3c-.3.2-.5.4-.7.7-.2.3-.3.6-.3,1v5.2h-2.2v-5.2c0-.4,0-.7-.3-1-.2-.3-.4-.5-.7-.7-.3-.2-.6-.3-1-.3s-.7,0-1,.3c-.3.2-.5.4-.7.7s-.3.6-.3,1v5.2h-2.2Z"/>
    <path d="M1232.9,303.2c-.8,0-1.6-.2-2.3-.6-.7-.4-1.2-1-1.6-1.7-.4-.7-.6-1.5-.6-2.4s.1-1.3.4-1.9c.2-.6.6-1.1,1-1.5.4-.4.9-.8,1.5-1,.6-.2,1.1-.4,1.8-.4s1.4.2,2,.5c.6.3,1.1.7,1.5,1.2.4.5.7,1.1.9,1.8s.2,1.4.1,2.1h-6.7c0,.3.2.6.4.9.2.3.4.5.7.6.3.2.6.2,1,.3.4,0,.7,0,1.1-.3.3-.2.6-.5.8-.8l2.3.5c-.4.8-.9,1.5-1.7,2-.7.5-1.6.8-2.5.8ZM1230.6,297.5h4.5c0-.4-.2-.7-.4-1-.2-.3-.5-.5-.8-.7-.3-.2-.7-.3-1-.3s-.7,0-1,.3-.6.4-.8.7-.4.6-.4,1ZM1232.3,292.8l.7-2.6h2.2l-1.5,2.6h-1.5Z"/>
    <path d="M1243.7,296.1h-1.8v6.9h-2.2v-6.9h-1.3v-2.2h1.3v-2.9h2.2v2.9h1.8v2.2Z"/>
    <path d="M1245.4,302.9v-9.1s2.2,0,2.2,0v.8c.3-.3.7-.6,1.1-.8.4-.2.9-.3,1.4-.3s.7,0,1,.1l-.9,2.2c-.2,0-.5-.1-.7-.1-.4,0-.7,0-1,.3-.3.2-.5.4-.7.7s-.3.6-.3,1v5.2h-2.2Z"/>
    <path d="M1253.2,292.7c-.3,0-.6-.1-.8-.3-.2-.2-.3-.5-.3-.8s.1-.6.3-.8c.2-.2.5-.3.8-.3s.6.1.8.3c.2.2.3.5.3.8s-.1.6-.3.8c-.2.2-.5.3-.8.3ZM1252.1,293.8h2.2v9.1h-2.2v-9.1Z"/>
    <path d="M1261.9,300.2l2,1.1c-.4.6-.9,1-1.6,1.4-.6.3-1.3.5-2.1.5s-1.6-.2-2.3-.6c-.7-.4-1.2-1-1.6-1.7-.4-.7-.6-1.5-.6-2.4s.1-1.3.4-1.9c.2-.6.6-1.1,1-1.5.4-.4.9-.8,1.5-1,.6-.2,1.1-.4,1.8-.4s1.4.2,2.1.5c.6.3,1.2.8,1.6,1.4l-2,1.1c-.2-.2-.5-.4-.8-.6-.3-.1-.6-.2-.9-.2-.4,0-.8.1-1.2.4-.4.2-.6.6-.8.9-.2.4-.3.8-.3,1.3s.1.9.3,1.3c.2.4.5.7.8.9.4.2.7.4,1.2.4s.6,0,.9-.2c.3-.1.5-.3.7-.6Z"/>
    <path d="M1269.3,303.2c-.8,0-1.6-.2-2.3-.6-.7-.4-1.2-1-1.6-1.7-.4-.7-.6-1.5-.6-2.4s.1-1.3.4-1.9c.2-.6.6-1.1,1-1.5.4-.4.9-.8,1.5-1,.6-.2,1.1-.4,1.8-.4s1.6.2,2.3.6c.7.4,1.2,1,1.6,1.7.4.7.6,1.5.6,2.4s-.1,1.3-.4,1.9c-.2.6-.6,1.1-1,1.5-.4.4-.9.8-1.4,1-.5.2-1.1.4-1.8.4ZM1269.3,301c.4,0,.8-.1,1.2-.4.4-.2.6-.5.8-.9.2-.4.3-.8.3-1.3s-.1-.9-.3-1.3c-.2-.4-.5-.7-.8-.9-.4-.2-.7-.4-1.2-.4s-.8.1-1.2.4c-.4.2-.6.6-.8.9-.2.4-.3.8-.3,1.3s.1.9.3,1.3c.2.4.5.7.9.9.4.2.7.3,1.2.3Z"/>
  </g>
  <path class="st11" d="M725.7,649.6h56.8c7-14.5,14-28.9,21-43.4"/>
  <g>
    <path d="M730.7,513.7h2.6l4.6,12.7h-2.4l-.8-2.3h-5.5l-.8,2.3h-2.4l4.6-12.7ZM730.1,522h3.8l-1.9-5.3-1.9,5.3Z"/>
    <path d="M738.7,523.1v-5.7h2.2v5.2c0,.4,0,.7.3,1,.2.3.4.5.7.7.3.2.6.3,1,.3s.7,0,1-.3c.3-.2.5-.4.7-.7.2-.3.3-.6.3-1v-5.2h2.2v9.1s-2.2,0-2.2,0v-.8c-.3.3-.7.6-1.1.8-.4.2-.9.3-1.4.3s-1.3-.2-1.8-.5c-.5-.3-1-.8-1.3-1.3-.3-.5-.5-1.1-.5-1.8Z"/>
    <path d="M748.8,526.5v-9.1h2.2v.8c.3-.3.7-.6,1.1-.8s.9-.3,1.4-.3,1.2.1,1.7.4c.5.3,1,.7,1.3,1.2.3-.5.7-.9,1.3-1.2.5-.3,1.1-.4,1.7-.4s1.3.2,1.8.5c.5.3,1,.8,1.3,1.3.3.5.5,1.1.5,1.8v5.8h-2.2v-5.2c0-.4,0-.7-.3-1-.2-.3-.4-.5-.7-.7s-.6-.3-1-.3-.7,0-1,.3c-.3.2-.5.4-.7.7-.2.3-.3.6-.3,1v5.2h-2.2v-5.2c0-.4,0-.7-.3-1-.2-.3-.4-.5-.7-.7-.3-.2-.6-.3-1-.3s-.7,0-1,.3c-.3.2-.5.4-.7.7s-.3.6-.3,1v5.2h-2.2Z"/>
    <path d="M768.8,526.7c-.8,0-1.6-.2-2.3-.6-.7-.4-1.2-1-1.6-1.7-.4-.7-.6-1.5-.6-2.4s.1-1.3.4-1.9c.2-.6.6-1.1,1-1.5.4-.4.9-.8,1.5-1,.6-.2,1.1-.4,1.8-.4s1.4.2,2,.5c.6.3,1.1.7,1.5,1.2.4.5.7,1.1.9,1.8s.2,1.4.1,2.1h-6.7c0,.3.2.6.4.9.2.3.4.5.7.6.3.2.6.2,1,.2.4,0,.7,0,1.1-.3.3-.2.6-.5.8-.8l2.3.5c-.4.8-.9,1.5-1.7,2s-1.6.8-2.5.8ZM766.6,521h4.5c0-.4-.2-.7-.4-1-.2-.3-.5-.5-.8-.7-.3-.2-.7-.3-1-.3s-.7,0-1,.3-.6.4-.8.7c-.2.3-.4.6-.4,1Z"/>
    <path d="M783.2,520.7v5.8h-2.2v-5.2c0-.4,0-.7-.3-1-.2-.3-.4-.5-.7-.7-.3-.2-.6-.3-1-.3s-.7,0-1,.3c-.3.2-.5.4-.7.7-.2.3-.3.6-.3,1v5.2h-2.2v-9.1s2.2,0,2.2,0v.8c.3-.3.7-.6,1.1-.8.4-.2.9-.3,1.4-.3s1.3.2,1.8.5c.5.3,1,.8,1.3,1.3.3.5.5,1.1.5,1.8Z"/>
    <path d="M789.9,519.6h-1.8v6.9h-2.2v-6.9h-1.3v-2.2h1.3v-2.9h2.2v2.9h1.8v2.2Z"/>
    <path d="M798.2,517.4h2.2v9.1h-2.2v-1.1c-.3.4-.7.7-1.1,1-.4.3-.9.4-1.5.4s-1.3-.1-1.9-.4c-.6-.3-1.1-.6-1.6-1.1s-.8-1-1-1.6c-.3-.6-.4-1.2-.4-1.9s.1-1.3.4-1.8c.2-.6.6-1.1,1-1.5.4-.4.9-.8,1.5-1,.6-.2,1.2-.4,1.8-.4s1.1.1,1.6.4c.5.3.9.6,1.2,1v-1.2ZM795.6,524.6c.5,0,.9-.1,1.3-.4.4-.2.6-.6.9-1s.3-.8.3-1.3-.1-.9-.3-1.3c-.2-.4-.5-.7-.9-1s-.8-.4-1.3-.4-.9.1-1.3.4c-.4.2-.7.6-.9,1s-.3.8-.3,1.3.1.9.3,1.3c.2.4.5.7.9,1,.4.2.8.4,1.3.4Z"/>
    <path d="M806.6,526.5v-13.7h2.2v13.7h-2.2Z"/>
    <path d="M817.7,517.4h2.2v9.1h-2.2v-1.1c-.3.4-.7.7-1.1,1-.4.3-.9.4-1.5.4s-1.3-.1-1.9-.4c-.6-.3-1.1-.6-1.6-1.1s-.8-1-1-1.6c-.3-.6-.4-1.2-.4-1.9s.1-1.3.4-1.8c.2-.6.6-1.1,1-1.5.4-.4.9-.8,1.5-1,.6-.2,1.2-.4,1.8-.4s1.1.1,1.6.4c.5.3.9.6,1.2,1v-1.2ZM815.1,524.6c.5,0,.9-.1,1.3-.4.4-.2.6-.6.9-1s.3-.8.3-1.3-.1-.9-.3-1.3c-.2-.4-.5-.7-.9-1s-.8-.4-1.3-.4-.9.1-1.3.4c-.4.2-.7.6-.9,1s-.3.8-.3,1.3.1.9.3,1.3c.2.4.5.7.9,1,.4.2.8.4,1.3.4Z"/>
    <path d="M732.1,547.5h-2.9l-3.3-9.1h2.4l2.4,6.6,2.4-6.6h2.4l-3.3,9.1Z"/>
    <path d="M737.9,537.2c-.3,0-.6-.1-.8-.3-.2-.2-.3-.5-.3-.8s.1-.6.3-.8c.2-.2.5-.3.8-.3s.6.1.8.3c.2.2.3.5.3.8s-.1.6-.3.8c-.2.2-.5.3-.8.3ZM736.8,538.4h2.2v9.1h-2.2v-9.1Z"/>
    <path d="M743.7,547.6c-.5,0-.9-.1-1.4-.3-.4-.2-.8-.4-1.2-.7-.3-.3-.6-.6-.8-1l1.9-.8c0,.1.2.2.4.4s.4.2.6.3c.2,0,.5.1.8.1s.5,0,.7,0c.2,0,.4-.2.5-.3.1-.1.2-.3.2-.5s0-.4-.2-.5c-.2-.1-.3-.2-.6-.3s-.5-.1-.7-.2c-.6-.1-1.1-.3-1.6-.5-.5-.2-.9-.6-1.2-.9-.3-.4-.5-.9-.5-1.4s.2-1.1.5-1.6c.3-.4.7-.8,1.2-1s1.1-.4,1.7-.4,1.4.1,2,.5,1.1.7,1.4,1.3l-1.8,1c0-.1-.2-.3-.4-.4-.2-.1-.3-.2-.5-.3s-.4-.1-.6-.1c-.3,0-.5,0-.7,0-.2,0-.4.2-.5.3s-.2.3-.2.6,0,.4.3.5c.2.1.4.2.7.3.3,0,.5.1.7.2.5.2,1,.4,1.5.6s.8.6,1.1.9c.3.4.4.8.4,1.3,0,.6-.2,1.1-.5,1.5-.4.4-.8.8-1.4,1-.6.2-1.1.3-1.8.3Z"/>
    <path d="M749.9,537.2c-.3,0-.6-.1-.8-.3-.2-.2-.3-.5-.3-.8s.1-.6.3-.8c.2-.2.5-.3.8-.3s.6.1.8.3c.2.2.3.5.3.8s-.1.6-.3.8c-.2.2-.5.3-.8.3ZM748.7,538.4h2.2v9.1h-2.2v-9.1Z"/>
    <path d="M758,538.1c.9,0,1.7.2,2.4.6.7.4,1.3,1,1.7,1.7.4.7.6,1.5.6,2.4s-.1,1.3-.4,1.9c-.2.6-.6,1.1-1,1.5-.4.4-.9.8-1.5,1-.6.2-1.2.4-1.9.4s-1.1-.1-1.5-.4c-.4-.3-.8-.6-1.1-1v1.2h-2.2v-13.7h2.2v5.7c.3-.4.7-.7,1.1-1,.4-.3.9-.4,1.5-.4ZM758,545.6c.5,0,.9-.1,1.3-.4.4-.2.7-.6.9-1s.3-.8.3-1.3-.1-.9-.3-1.3-.5-.7-.9-1c-.4-.2-.8-.4-1.3-.4s-.9.1-1.2.4c-.4.2-.6.6-.9,1-.2.4-.3.8-.3,1.3s.1.9.3,1.3c.2.4.5.7.9,1s.8.4,1.2.4Z"/>
    <path d="M765.2,537.2c-.3,0-.6-.1-.8-.3-.2-.2-.3-.5-.3-.8s.1-.6.3-.8c.2-.2.5-.3.8-.3s.6.1.8.3c.2.2.3.5.3.8s-.1.6-.3.8c-.2.2-.5.3-.8.3ZM764,538.4h2.2v9.1h-2.2v-9.1Z"/>
    <path d="M768.5,547.5v-13.7h2.2v13.7h-2.2Z"/>
    <path d="M774,537.2c-.3,0-.6-.1-.8-.3-.2-.2-.3-.5-.3-.8s.1-.6.3-.8c.2-.2.5-.3.8-.3s.6.1.8.3c.2.2.3.5.3.8s-.1.6-.3.8c-.2.2-.5.3-.8.3ZM772.9,538.4h2.2v9.1h-2.2v-9.1Z"/>
    <path d="M783.9,533.8h2.2v13.7h-2.2v-1.1c-.3.4-.7.7-1.1,1-.4.3-1,.4-1.5.4s-1.3-.1-1.9-.4c-.6-.2-1.1-.6-1.5-1s-.8-.9-1-1.5c-.2-.6-.4-1.2-.4-1.9s.1-1.3.4-1.9c.2-.6.6-1.1,1-1.5.4-.4.9-.8,1.5-1,.6-.2,1.2-.4,1.9-.4s1.1.1,1.5.4c.4.3.8.6,1.1,1v-5.7ZM781.3,545.6c.5,0,.9-.1,1.3-.4.4-.2.6-.6.9-1s.3-.8.3-1.3-.1-.9-.3-1.3c-.2-.4-.5-.7-.9-1s-.8-.4-1.3-.4-.9.1-1.3.4c-.4.2-.7.6-.9,1s-.3.8-.3,1.3.1.9.3,1.3c.2.4.5.7.9,1,.4.2.8.4,1.3.4Z"/>
    <path d="M795.1,538.4h2.2v9.1h-2.2v-1.1c-.3.4-.7.7-1.1,1-.4.3-.9.4-1.5.4s-1.3-.1-1.9-.4c-.6-.3-1.1-.6-1.6-1.1s-.8-1-1-1.6c-.3-.6-.4-1.2-.4-1.9s.1-1.3.4-1.8c.2-.6.6-1.1,1-1.5.4-.4.9-.8,1.5-1,.6-.2,1.2-.4,1.8-.4s1.1.1,1.6.4c.5.3.9.6,1.2,1v-1.2ZM792.5,545.6c.5,0,.9-.1,1.3-.4.4-.2.6-.6.9-1s.3-.8.3-1.3-.1-.9-.3-1.3c-.2-.4-.5-.7-.9-1s-.8-.4-1.3-.4-.9.1-1.3.4c-.4.2-.7.6-.9,1s-.3.8-.3,1.3.1.9.3,1.3c.2.4.5.7.9,1,.4.2.8.4,1.3.4Z"/>
    <path d="M805.8,533.8h2.2v13.7h-2.2v-1.1c-.3.4-.7.7-1.1,1-.4.3-1,.4-1.5.4s-1.3-.1-1.9-.4c-.6-.2-1.1-.6-1.5-1s-.8-.9-1-1.5c-.2-.6-.4-1.2-.4-1.9s.1-1.3.4-1.9c.2-.6.6-1.1,1-1.5.4-.4.9-.8,1.5-1,.6-.2,1.2-.4,1.9-.4s1.1.1,1.5.4c.4.3.8.6,1.1,1v-5.7ZM803.2,545.6c.5,0,.9-.1,1.3-.4.4-.2.6-.6.9-1s.3-.8.3-1.3-.1-.9-.3-1.3c-.2-.4-.5-.7-.9-1s-.8-.4-1.3-.4-.9.1-1.3.4c-.4.2-.7.6-.9,1s-.3.8-.3,1.3.1.9.3,1.3c.2.4.5.7.9,1,.4.2.8.4,1.3.4Z"/>
    <path d="M821.5,533.8h2.2v13.7h-2.2v-1.1c-.3.4-.7.7-1.1,1-.4.3-1,.4-1.5.4s-1.3-.1-1.9-.4c-.6-.2-1.1-.6-1.5-1s-.8-.9-1-1.5c-.2-.6-.4-1.2-.4-1.9s.1-1.3.4-1.9c.2-.6.6-1.1,1-1.5.4-.4.9-.8,1.5-1,.6-.2,1.2-.4,1.9-.4s1.1.1,1.5.4c.4.3.8.6,1.1,1v-5.7ZM818.9,545.6c.5,0,.9-.1,1.3-.4.4-.2.6-.6.9-1s.3-.8.3-1.3-.1-.9-.3-1.3c-.2-.4-.5-.7-.9-1s-.8-.4-1.3-.4-.9.1-1.3.4c-.4.2-.7.6-.9,1s-.3.8-.3,1.3.1.9.3,1.3c.2.4.5.7.9,1,.4.2.8.4,1.3.4Z"/>
    <path d="M829.7,547.7c-.8,0-1.6-.2-2.3-.6-.7-.4-1.2-1-1.6-1.7-.4-.7-.6-1.5-.6-2.4s.1-1.3.4-1.9c.2-.6.6-1.1,1-1.5.4-.4.9-.8,1.5-1,.6-.2,1.1-.4,1.8-.4s1.4.2,2,.5c.6.3,1.1.7,1.5,1.2.4.5.7,1.1.9,1.8s.2,1.4.1,2.1h-6.7c0,.3.2.6.4.9.2.3.4.5.7.6.3.2.6.2,1,.2.4,0,.7,0,1.1-.3.3-.2.6-.5.8-.8l2.3.5c-.4.8-.9,1.5-1.7,2s-1.6.8-2.5.8ZM827.5,542h4.5c0-.4-.2-.7-.4-1-.2-.3-.5-.5-.8-.7-.3-.2-.7-.3-1-.3s-.7,0-1,.3-.6.4-.8.7c-.2.3-.4.6-.4,1Z"/>
    <path d="M845.2,540.6h-1.8v6.9h-2.2v-6.9h-1.3v-2.2h1.3v-2.9h2.2v2.9h1.8v2.2Z"/>
    <path d="M846.4,544.1v-5.7h2.2v5.2c0,.4,0,.7.3,1,.2.3.4.5.7.7.3.2.6.3,1,.3s.7,0,1-.3c.3-.2.5-.4.7-.7.2-.3.3-.6.3-1v-5.2h2.2v9.1s-2.2,0-2.2,0v-.8c-.3.3-.7.6-1.1.8-.4.2-.9.3-1.4.3s-1.3-.2-1.8-.5c-.5-.3-1-.8-1.3-1.3-.3-.5-.5-1.1-.5-1.8Z"/>
    <path d="M729.1,568.7c-.5,0-.9-.1-1.4-.3-.4-.2-.8-.4-1.2-.7-.3-.3-.6-.6-.8-1l1.9-.8c0,.1.2.2.4.4s.4.2.6.3c.2,0,.5.1.8.1s.5,0,.7,0c.2,0,.4-.2.5-.3.1-.1.2-.3.2-.5s0-.4-.2-.5c-.2-.1-.3-.2-.6-.3s-.5-.1-.7-.2c-.6-.1-1.1-.3-1.6-.5-.5-.2-.9-.6-1.2-.9-.3-.4-.5-.9-.5-1.4s.2-1.1.5-1.6c.3-.4.7-.8,1.2-1s1.1-.4,1.7-.4,1.4.1,2,.5,1.1.7,1.4,1.3l-1.8,1c0-.1-.2-.3-.4-.4-.2-.1-.3-.2-.5-.3s-.4-.1-.6-.1c-.3,0-.5,0-.7,0-.2,0-.4.2-.5.3s-.2.3-.2.6,0,.4.3.5c.2.1.4.2.7.3.3,0,.5.1.7.2.5.2,1,.4,1.5.6s.8.6,1.1.9c.3.4.4.8.4,1.3,0,.6-.2,1.1-.5,1.5-.4.4-.8.8-1.4,1-.6.2-1.1.3-1.8.3Z"/>
    <path d="M735.3,558.2c-.3,0-.6-.1-.8-.3-.2-.2-.3-.5-.3-.8s.1-.6.3-.8c.2-.2.5-.3.8-.3s.6.1.8.3c.2.2.3.5.3.8s-.1.6-.3.8c-.2.2-.5.3-.8.3ZM734.2,559.4h2.2v9.1h-2.2v-9.1Z"/>
    <path d="M743.4,561.6h-1.8v6.9h-2.2v-6.9h-1.3v-2.2h1.3v-2.9h2.2v2.9h1.8v2.2Z"/>
    <path d="M746.1,558.2c-.3,0-.6-.1-.8-.3-.2-.2-.3-.5-.3-.8s.1-.6.3-.8c.2-.2.5-.3.8-.3s.6.1.8.3c.2.2.3.5.3.8s-.1.6-.3.8c-.2.2-.5.3-.8.3ZM744.9,559.4h2.2v9.1h-2.2v-9.1Z"/>
    <path d="M753.1,568.7c-.8,0-1.6-.2-2.3-.6-.7-.4-1.2-1-1.6-1.7-.4-.7-.6-1.5-.6-2.4s.1-1.3.4-1.9c.2-.6.6-1.1,1-1.5.4-.4.9-.8,1.5-1,.6-.2,1.1-.4,1.8-.4s1.6.2,2.3.6c.7.4,1.2,1,1.6,1.7.4.7.6,1.5.6,2.4s-.1,1.3-.4,1.9c-.2.6-.6,1.1-1,1.5-.4.4-.9.8-1.4,1s-1.1.4-1.8.4ZM753.1,566.5c.4,0,.8-.1,1.2-.4.4-.2.6-.5.8-.9.2-.4.3-.8.3-1.3s-.1-.9-.3-1.3c-.2-.4-.5-.7-.8-.9-.4-.2-.7-.4-1.2-.4s-.8.1-1.2.4c-.4.2-.6.6-.8.9-.2.4-.3.8-.3,1.3s.1.9.3,1.3c.2.4.5.7.9.9.4.2.7.3,1.2.3Z"/>
    <path d="M768.4,568.5h-2.2l-3-9.1h2.2l2,5.9,2-5.9h2.2l2,5.9,2-5.9h2.2l-3,9.1h-2.2l-2-5.9-2,5.9Z"/>
    <path d="M782.6,568.7c-.8,0-1.6-.2-2.3-.6-.7-.4-1.2-1-1.6-1.7-.4-.7-.6-1.5-.6-2.4s.1-1.3.4-1.9c.2-.6.6-1.1,1-1.5.4-.4.9-.8,1.5-1,.6-.2,1.1-.4,1.8-.4s1.4.2,2,.5c.6.3,1.1.7,1.5,1.2.4.5.7,1.1.9,1.8s.2,1.4.1,2.1h-6.7c0,.3.2.6.4.9.2.3.4.5.7.6.3.2.6.2,1,.2.4,0,.7,0,1.1-.3.3-.2.6-.5.8-.8l2.3.5c-.4.8-.9,1.5-1.7,2s-1.6.8-2.5.8ZM780.3,563h4.5c0-.4-.2-.7-.4-1-.2-.3-.5-.5-.8-.7-.3-.2-.7-.3-1-.3s-.7,0-1,.3-.6.4-.8.7c-.2.3-.4.6-.4,1Z"/>
    <path d="M793.3,559.1c.9,0,1.7.2,2.4.6.7.4,1.3,1,1.7,1.7.4.7.6,1.5.6,2.4s-.1,1.3-.4,1.9c-.2.6-.6,1.1-1,1.5-.4.4-.9.8-1.5,1-.6.2-1.2.4-1.9.4s-1.1-.1-1.5-.4c-.4-.3-.8-.6-1.1-1v1.2h-2.2v-13.7h2.2v5.7c.3-.4.7-.7,1.1-1,.4-.3.9-.4,1.5-.4ZM793.2,566.6c.5,0,.9-.1,1.3-.4.4-.2.7-.6.9-1s.3-.8.3-1.3-.1-.9-.3-1.3-.5-.7-.9-1c-.4-.2-.8-.4-1.3-.4s-.9.1-1.2.4c-.4.2-.6.6-.9,1-.2.4-.3.8-.3,1.3s.1.9.3,1.3c.2.4.5.7.9,1s.8.4,1.2.4Z"/>
    <path d="M810.4,566.1l1.4.7c-.4.6-.9,1-1.6,1.4-.6.3-1.3.5-2.1.5s-1.6-.2-2.3-.6c-.7-.4-1.2-1-1.6-1.7-.4-.7-.6-1.5-.6-2.4s.1-1.3.4-1.9c.2-.6.6-1.1,1-1.5.4-.4.9-.8,1.5-1,.6-.2,1.1-.4,1.8-.4s1.4.2,2.1.5c.6.3,1.2.8,1.6,1.4l-1.4.7c-.3-.4-.6-.6-1-.8-.4-.2-.8-.3-1.2-.3s-1.1.1-1.5.5c-.5.3-.8.7-1.1,1.2-.3.5-.4,1-.4,1.6s.1,1.1.4,1.6c.3.5.6.9,1.1,1.2.5.3,1,.4,1.5.4s.9-.1,1.3-.3c.4-.2.7-.5,1-.8Z"/>
    <path d="M817.2,568.7c-.8,0-1.6-.2-2.3-.6-.7-.4-1.2-1-1.6-1.7-.4-.7-.6-1.5-.6-2.4s.1-1.3.4-1.9c.2-.6.6-1.1,1-1.5.4-.4.9-.8,1.5-1,.6-.2,1.1-.4,1.8-.4s1.6.2,2.3.6c.7.4,1.2,1,1.6,1.7.4.7.6,1.5.6,2.4s-.1,1.3-.4,1.9c-.2.6-.6,1.1-1,1.5-.4.4-.9.8-1.4,1s-1.1.4-1.8.4ZM817.2,567.2c.6,0,1.1-.1,1.5-.5s.8-.7,1.1-1.2c.3-.5.4-1,.4-1.6s-.1-1.1-.4-1.6c-.3-.5-.6-.9-1.1-1.2-.5-.3-1-.4-1.5-.4s-1.1.1-1.5.5-.8.7-1.1,1.2c-.3.5-.4,1-.4,1.6s.1,1.2.4,1.7c.3.5.6.9,1.1,1.2.5.3,1,.4,1.5.4Z"/>
    <path d="M831.3,562.8v5.7h-1.5v-5.3c0-.5-.1-.9-.3-1.3-.2-.4-.5-.7-.9-.9-.4-.2-.8-.3-1.3-.3s-.9.1-1.3.3c-.4.2-.7.5-.9.9-.2.4-.3.8-.3,1.3v5.3h-1.5v-9.1h1.5v1.1c.3-.4.7-.8,1.2-1,.5-.3,1-.4,1.6-.4s1.3.2,1.9.5c.6.3,1,.8,1.3,1.3.3.6.5,1.2.5,1.9Z"/>
    <path d="M837.1,565v-5.6h1.5v5.3c0,.5.1.9.3,1.3.2.4.5.7.9.9.4.2.8.3,1.3.3s.9-.1,1.3-.3c.4-.2.7-.5.9-.9.2-.4.3-.8.3-1.3v-5.3h1.5v9.1s-1.5,0-1.5,0v-1.2c-.3.4-.7.8-1.2,1-.5.3-1,.4-1.6.4s-1.3-.2-1.9-.5c-.6-.3-1-.8-1.3-1.3-.3-.6-.5-1.2-.5-1.9Z"/>
    <path d="M855.1,562.8v5.7h-1.5v-5.3c0-.5-.1-.9-.3-1.3-.2-.4-.5-.7-.9-.9-.4-.2-.8-.3-1.3-.3s-.9.1-1.3.3c-.4.2-.7.5-.9.9-.2.4-.3.8-.3,1.3v5.3h-1.5v-9.1h1.5v1.1c.3-.4.7-.8,1.2-1,.5-.3,1-.4,1.6-.4s1.3.2,1.9.5c.6.3,1,.8,1.3,1.3.3.6.5,1.2.5,1.9Z"/>
    <path d="M733.8,575.8h1.5v13.7h-1.5v-1.5c-.3.5-.7,1-1.2,1.3-.5.3-1.1.5-1.8.5s-1.3-.1-1.9-.4c-.6-.2-1.1-.6-1.5-1s-.8-.9-1-1.5c-.2-.6-.4-1.2-.4-1.9s.1-1.3.4-1.9c.2-.6.6-1.1,1-1.5.4-.4.9-.8,1.5-1,.6-.2,1.2-.4,1.9-.4s1.3.2,1.8.5c.5.3.9.8,1.2,1.3v-6.1ZM730.7,588.2c.6,0,1.1-.1,1.6-.4.4-.3.8-.7,1-1.2.2-.5.4-1.1.4-1.7s-.1-1.2-.4-1.7c-.2-.5-.6-.9-1-1.2-.4-.3-1-.4-1.6-.4s-1.1.1-1.6.4c-.5.3-.9.7-1.2,1.2-.3.5-.4,1.1-.4,1.7s.1,1.2.4,1.7c.3.5.7.9,1.2,1.2s1,.4,1.6.4Z"/>
    <path d="M738.3,578.9c-.2,0-.4,0-.6-.2-.2-.2-.2-.4-.2-.6s0-.4.2-.6c.2-.2.4-.2.6-.2s.4,0,.6.2.2.4.2.6,0,.4-.2.6c-.2.2-.4.2-.6.2ZM737.5,580.4h1.5v9.1h-1.5v-9.1Z"/>
    <path d="M743.9,589.7c-.5,0-1-.1-1.4-.3-.5-.2-.9-.4-1.2-.7-.3-.3-.6-.6-.8-1l1.3-.6c0,.2.3.4.5.6.2.2.5.3.8.4s.6.2.9.2.6,0,.9-.2c.3-.1.5-.3.7-.5.2-.2.3-.4.3-.7s-.1-.5-.3-.7c-.2-.2-.5-.3-.8-.4-.3,0-.6-.2-.9-.3-.6-.2-1.2-.3-1.7-.6s-.9-.5-1.2-.8-.4-.8-.4-1.3.2-1.1.5-1.5c.3-.4.7-.7,1.2-1,.5-.2,1.1-.3,1.6-.3s1.4.2,2,.5,1.1.7,1.4,1.3l-1.2.7c-.1-.2-.3-.4-.5-.6-.2-.2-.5-.3-.7-.4-.3,0-.6-.1-.8-.2-.4,0-.7,0-1,.1s-.6.3-.7.5c-.2.2-.3.5-.3.8s0,.5.3.7c.2.2.5.3.8.4.3,0,.7.2,1,.3.6.2,1.1.4,1.5.6s.9.5,1.2.9c.3.3.4.8.4,1.3,0,.6-.2,1-.5,1.5-.3.4-.8.7-1.3,1-.5.2-1.1.3-1.7.3Z"/>
    <path d="M752.9,589.7c-.8,0-1.6-.2-2.3-.6-.7-.4-1.2-1-1.6-1.7-.4-.7-.6-1.5-.6-2.4s.1-1.3.4-1.9c.2-.6.6-1.1,1-1.5.4-.4.9-.8,1.5-1,.6-.2,1.1-.4,1.8-.4s1.3.1,1.9.4c.6.3,1.1.7,1.5,1.2.4.5.7,1.1.9,1.7s.3,1.3.2,2.1h-7.4c0,.5.2,1,.5,1.4.3.4.6.7,1,1,.4.2.9.4,1.4.4.5,0,1-.1,1.5-.4.4-.3.8-.7,1.1-1.2l1.6.4c-.4.8-.9,1.5-1.6,2s-1.6.8-2.5.8ZM749.9,584.3h5.9c0-.5-.2-1-.5-1.4-.3-.4-.6-.8-1.1-1s-.9-.4-1.4-.4-1,.1-1.4.4c-.4.2-.8.6-1.1,1s-.4.9-.5,1.4Z"/>
    <path d="M767,583.8v5.7h-1.5v-5.3c0-.5-.1-.9-.3-1.3-.2-.4-.5-.7-.9-.9-.4-.2-.8-.3-1.3-.3s-.9.1-1.3.3c-.4.2-.7.5-.9.9-.2.4-.3.8-.3,1.3v5.3h-1.5v-9.1h1.5v1.1c.3-.4.7-.8,1.2-1,.5-.3,1-.4,1.6-.4s1.3.2,1.9.5c.6.3,1,.8,1.3,1.3.3.6.5,1.2.5,1.9ZM764.5,579.3c-.2,0-.5,0-.8-.2s-.6-.3-.9-.5c-.3-.2-.5-.3-.8-.5-.2-.1-.4-.2-.6-.1-.1,0-.2.1-.3.3,0,.2,0,.3,0,.6l-1,.3c-.1-.4-.1-.7,0-1.1s.3-.6.5-.8c.3-.2.6-.3,1-.3s.5,0,.8.2c.3.1.6.3.8.5s.5.3.8.5c.2.1.4.2.6.2s.2,0,.3-.1c0-.1.1-.2.1-.4,0-.1,0-.3,0-.4l1-.3c.1.4.2.8,0,1.1,0,.3-.3.6-.5.8s-.6.3-1,.3Z"/>
    <path d="M772.6,589.7c-.8,0-1.6-.2-2.3-.6-.7-.4-1.2-1-1.6-1.7-.4-.7-.6-1.5-.6-2.4s.1-1.3.4-1.9c.2-.6.6-1.1,1-1.5.4-.4.9-.8,1.5-1,.6-.2,1.1-.4,1.8-.4s1.6.2,2.3.6c.7.4,1.2,1,1.6,1.7.4.7.6,1.5.6,2.4s-.1,1.3-.4,1.9c-.2.6-.6,1.1-1,1.5-.4.4-.9.8-1.4,1s-1.1.4-1.8.4ZM772.6,588.2c.6,0,1.1-.1,1.5-.5s.8-.7,1.1-1.2c.3-.5.4-1,.4-1.6s-.1-1.1-.4-1.6c-.3-.5-.6-.9-1.1-1.2-.5-.3-1-.4-1.5-.4s-1.1.1-1.5.5-.8.7-1.1,1.2c-.3.5-.4,1-.4,1.6s.1,1.2.4,1.7c.3.5.6.9,1.1,1.2.5.3,1,.4,1.5.4Z"/>
    <path d="M790.5,580.4h1.5v9.1h-1.5v-1.5c-.3.5-.7,1-1.2,1.3-.5.3-1.1.5-1.8.5s-1.3-.1-1.9-.4c-.6-.3-1.1-.6-1.5-1-.4-.4-.8-1-1-1.5-.2-.6-.4-1.2-.4-1.9s.1-1.3.4-1.8c.2-.6.6-1.1,1-1.5.4-.4.9-.8,1.5-1s1.2-.4,1.8-.4,1.3.2,1.9.5,1,.8,1.3,1.3v-1.6ZM787.5,588.2c.6,0,1.1-.1,1.6-.4.4-.3.8-.7,1-1.2.2-.5.4-1.1.4-1.7s-.1-1.2-.4-1.7c-.2-.5-.6-.9-1-1.2-.4-.3-1-.4-1.6-.4s-1.1.1-1.6.4c-.5.3-.9.7-1.2,1.2-.3.5-.4,1.1-.4,1.7s.1,1.2.4,1.7c.3.5.7.9,1.2,1.2s1,.4,1.6.4Z"/>
    <path d="M798.6,581.9h-2.1v7.6h-1.5v-7.6s-1.6,0-1.6,0v-1.5h1.6v-2.9s1.5,0,1.5,0v2.9h2.1v1.5Z"/>
    <path d="M800.2,589.5v-9.1h1.5v1.1c.3-.4.7-.8,1.2-1,.5-.3,1-.4,1.6-.4s.7,0,1,.1l-.6,1.5c-.2,0-.5-.1-.7-.1-.5,0-.9.1-1.3.3-.4.2-.7.5-.9.9-.2.4-.3.8-.3,1.3v5.3h-1.5Z"/>
    <path d="M813.6,580.4h1.5v9.1h-1.5v-1.5c-.3.5-.7,1-1.2,1.3-.5.3-1.1.5-1.8.5s-1.3-.1-1.9-.4c-.6-.3-1.1-.6-1.5-1-.4-.4-.8-1-1-1.5-.2-.6-.4-1.2-.4-1.9s.1-1.3.4-1.8c.2-.6.6-1.1,1-1.5.4-.4.9-.8,1.5-1s1.2-.4,1.8-.4,1.3.2,1.9.5,1,.8,1.3,1.3v-1.6ZM810.5,588.2c.6,0,1.1-.1,1.6-.4.4-.3.8-.7,1-1.2.2-.5.4-1.1.4-1.7s-.1-1.2-.4-1.7c-.2-.5-.6-.9-1-1.2-.4-.3-1-.4-1.6-.4s-1.1.1-1.6.4c-.5.3-.9.7-1.2,1.2-.3.5-.4,1.1-.4,1.7s.1,1.2.4,1.7c.3.5.7.9,1.2,1.2s1,.4,1.6.4Z"/>
    <path d="M823,587.1l1.4.7c-.4.6-.9,1-1.6,1.4-.6.3-1.3.5-2.1.5s-1.6-.2-2.3-.6c-.7-.4-1.2-1-1.6-1.7-.4-.7-.6-1.5-.6-2.4s.1-1.3.4-1.9c.2-.6.6-1.1,1-1.5.4-.4.9-.8,1.5-1,.6-.2,1.1-.4,1.8-.4s1.4.2,2.1.5c.6.3,1.2.8,1.6,1.4l-1.4.7c-.3-.4-.6-.6-1-.8-.4-.2-.8-.3-1.2-.3s-1.1.1-1.5.5c-.5.3-.8.7-1.1,1.2-.3.5-.4,1-.4,1.6s.1,1.1.4,1.6c.3.5.6.9,1.1,1.2.5.3,1,.4,1.5.4s.9-.1,1.3-.3c.4-.2.7-.5,1-.8Z"/>
    <path d="M830.7,581.9h-2.1v7.6h-1.5v-7.6s-1.6,0-1.6,0v-1.5h1.6v-2.9s1.5,0,1.5,0v2.9h2.1v1.5Z"/>
    <path d="M833,578.9c-.2,0-.4,0-.6-.2-.2-.2-.2-.4-.2-.6s0-.4.2-.6c.2-.2.4-.2.6-.2s.4,0,.6.2.2.4.2.6,0,.4-.2.6c-.2.2-.4.2-.6.2ZM832.3,580.4h1.5v9.1h-1.5v-9.1Z"/>
    <path d="M840.5,589.5h-2l-3.3-9.1h1.6l2.7,7.3,2.7-7.3h1.6l-3.3,9.1Z"/>
    <path d="M849,589.7c-.8,0-1.6-.2-2.3-.6-.7-.4-1.2-1-1.6-1.7-.4-.7-.6-1.5-.6-2.4s.1-1.3.4-1.9c.2-.6.6-1.1,1-1.5.4-.4.9-.8,1.5-1,.6-.2,1.1-.4,1.8-.4s1.6.2,2.3.6c.7.4,1.2,1,1.6,1.7.4.7.6,1.5.6,2.4s-.1,1.3-.4,1.9c-.2.6-.6,1.1-1,1.5-.4.4-.9.8-1.4,1s-1.1.4-1.8.4ZM849,588.2c.6,0,1.1-.1,1.5-.5s.8-.7,1.1-1.2c.3-.5.4-1,.4-1.6s-.1-1.1-.4-1.6c-.3-.5-.6-.9-1.1-1.2-.5-.3-1-.4-1.5-.4s-1.1.1-1.5.5-.8.7-1.1,1.2c-.3.5-.4,1-.4,1.6s.1,1.2.4,1.7c.3.5.6.9,1.1,1.2.5.3,1,.4,1.5.4Z"/>
  </g>
  <rect x="988.3" y="58.6" width="2.1" height="94.5"/>
  <text class="st7" transform="translate(666.3 696.8) rotate(-90)"><tspan x="0" y="0">DISEÑO DE TEMAS</tspan></text>
  <text class="st7" transform="translate(951.1 699.9) rotate(-90)"><tspan x="0" y="0">SOPORTE OJS/OMP</tspan></text>
  <path class="st11" d="M865.5,381.1c-15.8,0-31.6.1-47.3.2-5.8-14.5-11.7-28.9-17.5-43.4"/>
  <g>
    <path d="M762.5,290.2v-12.7h4.2c.7,0,1.3.2,1.9.5.5.3,1,.8,1.3,1.4.3.6.5,1.2.5,1.9s-.2,1.3-.5,1.9-.8,1-1.3,1.3c-.6.3-1.2.5-1.8.5h-2.7v5.2h-1.5ZM764,283.5h2.5c.4,0,.8-.1,1.1-.3.3-.2.6-.5.8-.8.2-.3.3-.7.3-1.2s-.1-.8-.3-1.2c-.2-.3-.5-.6-.8-.8-.3-.2-.7-.3-1.1-.3h-2.5v4.6Z"/>
    <path d="M771.9,290.2v-9.1h1.5v1.1c.3-.4.7-.8,1.2-1,.5-.3,1-.4,1.6-.4s.7,0,1,.1l-.6,1.5c-.2,0-.5-.1-.7-.1-.5,0-.9.1-1.3.3s-.7.5-.9.9c-.2.4-.3.8-.3,1.3v5.3h-1.5Z"/>
    <path d="M781.9,290.5c-.8,0-1.6-.2-2.3-.6-.7-.4-1.2-1-1.6-1.7-.4-.7-.6-1.5-.6-2.4s.1-1.3.4-1.9c.2-.6.6-1.1,1-1.5.4-.4.9-.8,1.5-1,.6-.2,1.1-.4,1.8-.4s1.3.1,1.9.4c.6.3,1.1.7,1.5,1.2.4.5.7,1.1.9,1.7.2.6.3,1.3.2,2.1h-7.4c0,.5.2,1,.5,1.4.3.4.6.7,1,1,.4.2.9.4,1.4.4.5,0,1-.1,1.5-.4.4-.3.8-.7,1.1-1.2l1.6.4c-.4.8-.9,1.5-1.6,2-.7.5-1.6.8-2.5.8ZM779,285h5.9c0-.5-.2-1-.5-1.4-.3-.4-.6-.8-1.1-1s-.9-.4-1.4-.4-1,.1-1.4.4c-.4.2-.8.6-1.1,1s-.4.9-.5,1.4Z"/>
    <path d="M790.8,290.4c-.5,0-1-.1-1.4-.3-.5-.2-.9-.4-1.2-.7-.3-.3-.6-.6-.8-1l1.3-.6c0,.2.3.4.5.6.2.2.5.3.8.4s.6.2.9.2.6,0,.9-.2.5-.3.7-.5c.2-.2.3-.4.3-.7s-.1-.5-.3-.7c-.2-.2-.5-.3-.8-.4-.3-.1-.6-.2-.9-.3-.6-.2-1.2-.3-1.7-.6s-.9-.5-1.2-.8-.4-.8-.4-1.3.2-1.1.5-1.5c.3-.4.7-.7,1.2-1s1.1-.3,1.6-.3,1.4.2,2,.5c.6.3,1.1.7,1.4,1.3l-1.2.7c-.1-.2-.3-.4-.5-.6-.2-.2-.5-.3-.7-.4-.3,0-.6-.1-.8-.2-.4,0-.7,0-1,.1s-.6.3-.7.5c-.2.2-.3.5-.3.8s0,.5.3.7.5.3.8.4c.3,0,.7.2,1,.3.6.2,1.1.4,1.5.6.5.2.9.5,1.2.9.3.3.4.8.4,1.3,0,.6-.2,1-.5,1.5-.3.4-.8.7-1.3,1-.5.2-1.1.3-1.7.3Z"/>
    <path d="M800.6,282.6h-2.1v7.6h-1.5v-7.6s-1.6,0-1.6,0v-1.5h1.6v-2.9s1.5,0,1.5,0v2.9h2.1v1.5Z"/>
    <path d="M809.3,281.1h1.5v9.1h-1.5v-1.5c-.3.5-.7,1-1.2,1.3-.5.3-1.1.5-1.8.5s-1.3-.1-1.9-.4c-.6-.3-1.1-.6-1.5-1-.4-.4-.8-1-1-1.5-.2-.6-.4-1.2-.4-1.9s.1-1.3.4-1.8c.2-.6.6-1.1,1-1.5.4-.4.9-.8,1.5-1s1.2-.4,1.8-.4,1.3.2,1.9.5c.5.3,1,.8,1.3,1.3v-1.6ZM806.2,289c.6,0,1.1-.1,1.6-.4.4-.3.8-.7,1-1.2.2-.5.4-1.1.4-1.7s-.1-1.2-.4-1.7-.6-.9-1-1.2c-.4-.3-1-.4-1.6-.4s-1.1.1-1.6.4c-.5.3-.9.7-1.2,1.2-.3.5-.4,1.1-.4,1.7s.1,1.2.4,1.7c.3.5.7.9,1.2,1.2s1,.4,1.6.4Z"/>
    <path d="M812.6,290.2v-9.1h1.5v1.1c.3-.4.7-.8,1.2-1s1-.4,1.6-.4,1.3.2,1.8.5,1,.8,1.3,1.3c.3-.5.8-1,1.3-1.3.6-.3,1.2-.5,1.8-.5s1.3.2,1.9.5c.6.3,1,.8,1.3,1.3.3.6.5,1.2.5,1.9v5.7h-1.5v-5.3c0-.4-.1-.9-.3-1.2s-.5-.7-.9-.9-.8-.3-1.2-.3-.9.1-1.2.3-.7.5-.9.9c-.2.4-.3.8-.3,1.3v5.3h-1.5v-5.3c0-.5-.1-.9-.3-1.3-.2-.4-.5-.7-.9-.9s-.8-.3-1.2-.3-.9.1-1.2.3-.7.5-.9.9-.3.8-.3,1.2v5.3h-1.5Z"/>
    <path d="M832.6,290.5c-.8,0-1.6-.2-2.3-.6-.7-.4-1.2-1-1.6-1.7-.4-.7-.6-1.5-.6-2.4s.1-1.3.4-1.9c.2-.6.6-1.1,1-1.5.4-.4.9-.8,1.5-1,.6-.2,1.1-.4,1.8-.4s1.6.2,2.3.6c.7.4,1.2,1,1.6,1.7.4.7.6,1.5.6,2.4s-.1,1.3-.4,1.9c-.2.6-.6,1.1-1,1.5-.4.4-.9.8-1.4,1-.5.2-1.1.4-1.8.4ZM832.6,288.9c.6,0,1.1-.2,1.5-.5s.8-.7,1.1-1.2c.3-.5.4-1,.4-1.6s-.1-1.1-.4-1.6c-.3-.5-.6-.9-1.1-1.2s-1-.4-1.5-.4-1.1.2-1.5.5-.8.7-1.1,1.2c-.3.5-.4,1-.4,1.6s.1,1.2.4,1.7c.3.5.6.9,1.1,1.2.5.3,1,.4,1.5.4Z"/>
    <path d="M841.5,290.4c-.5,0-1-.1-1.4-.3-.5-.2-.9-.4-1.2-.7-.3-.3-.6-.6-.8-1l1.3-.6c0,.2.3.4.5.6.2.2.5.3.8.4s.6.2.9.2.6,0,.9-.2.5-.3.7-.5c.2-.2.3-.4.3-.7s-.1-.5-.3-.7c-.2-.2-.5-.3-.8-.4-.3-.1-.6-.2-.9-.3-.6-.2-1.2-.3-1.7-.6s-.9-.5-1.2-.8-.4-.8-.4-1.3.2-1.1.5-1.5c.3-.4.7-.7,1.2-1s1.1-.3,1.6-.3,1.4.2,2,.5c.6.3,1.1.7,1.4,1.3l-1.2.7c-.1-.2-.3-.4-.5-.6-.2-.2-.5-.3-.7-.4-.3,0-.6-.1-.8-.2-.4,0-.7,0-1,.1s-.6.3-.7.5c-.2.2-.3.5-.3.8s0,.5.3.7.5.3.8.4c.3,0,.7.2,1,.3.6.2,1.1.4,1.5.6.5.2.9.5,1.2.9.3.3.4.8.4,1.3,0,.6-.2,1-.5,1.5-.3.4-.8.7-1.3,1-.5.2-1.1.3-1.7.3Z"/>
    <path d="M786.7,306.5c-.5,0-.9-.1-1.4-.3-.4-.2-.8-.4-1.2-.7s-.6-.6-.8-1l1.9-.8c0,.1.2.3.4.4.2.1.4.2.6.3.2,0,.5.1.8.1s.5,0,.7,0c.2,0,.4-.2.5-.3.1-.1.2-.3.2-.5s0-.4-.2-.5c-.2-.1-.3-.2-.6-.3-.2,0-.5-.1-.7-.2-.6-.1-1.1-.3-1.6-.5-.5-.2-.9-.6-1.2-.9-.3-.4-.5-.9-.5-1.4s.2-1.1.5-1.6c.3-.4.7-.8,1.2-1s1.1-.4,1.7-.4,1.4.2,2,.5,1.1.7,1.4,1.3l-1.8,1c0-.1-.2-.3-.4-.4-.2-.1-.3-.2-.5-.3-.2,0-.4-.1-.6-.1-.3,0-.5,0-.7,0-.2,0-.4.2-.5.3-.1.1-.2.3-.2.6s0,.4.3.5c.2.1.4.2.7.3.3,0,.5.1.7.2.5.2,1,.4,1.5.6s.8.6,1.1.9c.3.4.4.8.4,1.3,0,.6-.2,1.1-.5,1.5-.4.4-.8.8-1.4,1-.6.2-1.1.3-1.8.3Z"/>
    <path d="M795.8,306.6c-.8,0-1.6-.2-2.3-.6-.7-.4-1.2-1-1.6-1.7-.4-.7-.6-1.5-.6-2.4s.1-1.3.4-1.9c.2-.6.6-1.1,1-1.5.4-.4.9-.8,1.5-1,.6-.2,1.1-.4,1.8-.4s1.4.2,2,.5c.6.3,1.1.7,1.5,1.2.4.5.7,1.1.9,1.8s.2,1.4.1,2.1h-6.7c0,.3.2.6.4.9.2.3.4.5.7.6.3.2.6.2,1,.3.4,0,.7,0,1.1-.3.3-.2.6-.5.8-.8l2.3.5c-.4.8-.9,1.5-1.7,2-.7.5-1.6.8-2.5.8ZM793.6,300.9h4.5c0-.4-.2-.7-.4-1-.2-.3-.5-.5-.8-.7-.3-.2-.7-.3-1-.3s-.7,0-1,.3-.6.4-.8.7-.4.6-.4,1Z"/>
    <path d="M801.8,306.3v-9.1s2.2,0,2.2,0v.8c.3-.3.7-.6,1.1-.8.4-.2.9-.3,1.4-.3s.7,0,1,.1l-.9,2.2c-.2,0-.5-.1-.7-.1-.4,0-.7,0-1,.3-.3.2-.5.4-.7.7s-.3.6-.3,1v5.2h-2.2Z"/>
    <path d="M814.4,306.3h-2.9l-3.3-9.1h2.4l2.4,6.6,2.4-6.6h2.4l-3.3,9.1Z"/>
    <path d="M820.2,296c-.3,0-.6-.1-.8-.3-.2-.2-.3-.5-.3-.8s.1-.6.3-.8c.2-.2.5-.3.8-.3s.6.1.8.3c.2.2.3.5.3.8s-.1.6-.3.8c-.2.2-.5.3-.8.3ZM819.1,297.2h2.2v9.1h-2.2v-9.1Z"/>
    <path d="M828.9,303.6l2,1.1c-.4.6-.9,1-1.6,1.4-.6.3-1.3.5-2.1.5s-1.6-.2-2.3-.6c-.7-.4-1.2-1-1.6-1.7-.4-.7-.6-1.5-.6-2.4s.1-1.3.4-1.9c.2-.6.6-1.1,1-1.5.4-.4.9-.8,1.5-1,.6-.2,1.1-.4,1.8-.4s1.4.2,2.1.5c.6.3,1.2.8,1.6,1.4l-2,1.1c-.2-.2-.5-.4-.8-.6-.3-.1-.6-.2-.9-.2-.4,0-.8.1-1.2.4-.4.2-.6.6-.8.9-.2.4-.3.8-.3,1.3s.1.9.3,1.3c.2.4.5.7.8.9.4.2.7.4,1.2.4s.6,0,.9-.2c.3-.1.5-.3.7-.6Z"/>
    <path d="M833.3,296c-.3,0-.6-.1-.8-.3-.2-.2-.3-.5-.3-.8s.1-.6.3-.8c.2-.2.5-.3.8-.3s.6.1.8.3c.2.2.3.5.3.8s-.1.6-.3.8c-.2.2-.5.3-.8.3ZM832.2,297.2h2.2v9.1h-2.2v-9.1Z"/>
    <path d="M840.4,306.6c-.8,0-1.6-.2-2.3-.6-.7-.4-1.2-1-1.6-1.7-.4-.7-.6-1.5-.6-2.4s.1-1.3.4-1.9c.2-.6.6-1.1,1-1.5.4-.4.9-.8,1.5-1,.6-.2,1.1-.4,1.8-.4s1.6.2,2.3.6c.7.4,1.2,1,1.6,1.7.4.7.6,1.5.6,2.4s-.1,1.3-.4,1.9c-.2.6-.6,1.1-1,1.5-.4.4-.9.8-1.4,1-.5.2-1.1.4-1.8.4ZM840.4,304.3c.4,0,.8-.1,1.2-.4.4-.2.6-.5.8-.9.2-.4.3-.8.3-1.3s-.1-.9-.3-1.3c-.2-.4-.5-.7-.8-.9-.4-.2-.7-.4-1.2-.4s-.8.1-1.2.4c-.4.2-.6.6-.8.9-.2.4-.3.8-.3,1.3s.1.9.3,1.3c.2.4.5.7.9.9.4.2.7.3,1.2.3Z"/>
    <path d="M759.7,315.5h-1.8v6.9h-2.2v-6.9h-1.3v-2.2h1.3v-2.9h2.2v2.9h1.8v2.2Z"/>
    <path d="M765.2,322.7c-.8,0-1.6-.2-2.3-.6-.7-.4-1.2-1-1.6-1.7-.4-.7-.6-1.5-.6-2.4s.1-1.3.4-1.9c.2-.6.6-1.1,1-1.5.4-.4.9-.8,1.5-1,.6-.2,1.1-.4,1.8-.4s1.6.2,2.3.6c.7.4,1.2,1,1.6,1.7.4.7.6,1.5.6,2.4s-.1,1.3-.4,1.9c-.2.6-.6,1.1-1,1.5-.4.4-.9.8-1.4,1-.5.2-1.1.4-1.8.4ZM765.2,320.4c.4,0,.8-.1,1.2-.4.4-.2.6-.5.8-.9.2-.4.3-.8.3-1.3s-.1-.9-.3-1.3c-.2-.4-.5-.7-.8-.9-.4-.2-.7-.4-1.2-.4s-.8.1-1.2.4c-.4.2-.6.6-.8.9-.2.4-.3.8-.3,1.3s.1.9.3,1.3c.2.4.5.7.9.9.4.2.7.3,1.2.3Z"/>
    <path d="M778.1,308.8h2.2v13.7h-2.2v-1.1c-.3.4-.7.7-1.1,1-.4.3-1,.4-1.5.4s-1.3-.1-1.9-.4c-.6-.2-1.1-.6-1.5-1-.4-.4-.8-.9-1-1.5-.2-.6-.4-1.2-.4-1.9s.1-1.3.4-1.9c.2-.6.6-1.1,1-1.5.4-.4.9-.8,1.5-1,.6-.2,1.2-.4,1.9-.4s1.1.1,1.5.4c.4.3.8.6,1.1,1v-5.7ZM775.5,320.5c.5,0,.9-.1,1.3-.4.4-.2.6-.6.9-1,.2-.4.3-.8.3-1.3s-.1-.9-.3-1.3c-.2-.4-.5-.7-.9-1s-.8-.4-1.3-.4-.9.1-1.3.4c-.4.2-.7.6-.9,1s-.3.8-.3,1.3.1.9.3,1.3.5.7.9,1c.4.2.8.4,1.3.4Z"/>
    <path d="M786.4,322.7c-.8,0-1.6-.2-2.3-.6-.7-.4-1.2-1-1.6-1.7-.4-.7-.6-1.5-.6-2.4s.1-1.3.4-1.9c.2-.6.6-1.1,1-1.5.4-.4.9-.8,1.5-1,.6-.2,1.1-.4,1.8-.4s1.6.2,2.3.6c.7.4,1.2,1,1.6,1.7.4.7.6,1.5.6,2.4s-.1,1.3-.4,1.9c-.2.6-.6,1.1-1,1.5-.4.4-.9.8-1.4,1-.5.2-1.1.4-1.8.4ZM786.4,320.4c.4,0,.8-.1,1.2-.4.4-.2.6-.5.8-.9.2-.4.3-.8.3-1.3s-.1-.9-.3-1.3c-.2-.4-.5-.7-.8-.9-.4-.2-.7-.4-1.2-.4s-.8.1-1.2.4c-.4.2-.6.6-.8.9-.2.4-.3.8-.3,1.3s.1.9.3,1.3c.2.4.5.7.9.9.4.2.7.3,1.2.3Z"/>
    <path d="M800.9,322.7c-.8,0-1.6-.2-2.3-.6-.7-.4-1.2-1-1.6-1.7-.4-.7-.6-1.5-.6-2.4s.1-1.3.4-1.9c.2-.6.6-1.1,1-1.5.4-.4.9-.8,1.5-1,.6-.2,1.1-.4,1.8-.4s1.4.2,2,.5c.6.3,1.1.7,1.5,1.2.4.5.7,1.1.9,1.8s.2,1.4.1,2.1h-6.7c0,.3.2.6.4.9.2.3.4.5.7.6.3.2.6.2,1,.3.4,0,.7,0,1.1-.3.3-.2.6-.5.8-.8l2.3.5c-.4.8-.9,1.5-1.7,2-.7.5-1.6.8-2.5.8ZM798.7,317h4.5c0-.4-.2-.7-.4-1-.2-.3-.5-.5-.8-.7-.3-.2-.7-.3-1-.3s-.7,0-1,.3-.6.4-.8.7-.4.6-.4,1Z"/>
    <path d="M806.8,322.4v-13.7h2.2v13.7h-2.2Z"/>
    <path d="M822.4,313.3h2.2v9.1h-2.2v-1.1c-.3.4-.7.7-1.1,1-.4.3-.9.4-1.5.4s-1.3-.1-1.9-.4c-.6-.3-1.1-.6-1.6-1.1s-.8-1-1-1.6c-.3-.6-.4-1.2-.4-1.9s.1-1.3.4-1.8c.2-.6.6-1.1,1-1.5.4-.4.9-.8,1.5-1s1.2-.4,1.8-.4,1.1.1,1.6.4c.5.3.9.6,1.2,1v-1.2ZM819.8,320.5c.5,0,.9-.1,1.3-.4.4-.2.6-.6.9-1,.2-.4.3-.8.3-1.3s-.1-.9-.3-1.3c-.2-.4-.5-.7-.9-1s-.8-.4-1.3-.4-.9.1-1.3.4c-.4.2-.7.6-.9,1s-.3.8-.3,1.3.1.9.3,1.3.5.7.9,1c.4.2.8.4,1.3.4Z"/>
    <path d="M834.8,316.7v5.8h-2.2v-5.2c0-.4,0-.7-.3-1s-.4-.5-.7-.7c-.3-.2-.6-.3-1-.3s-.7,0-1,.3c-.3.2-.5.4-.7.7s-.3.6-.3,1v5.2h-2.2v-9.1s2.2,0,2.2,0v.8c.3-.3.7-.6,1.1-.8.4-.2.9-.3,1.4-.3s1.3.2,1.8.5c.5.3,1,.8,1.3,1.3.3.5.5,1.1.5,1.8ZM832.2,312.4c-.2,0-.5,0-.8-.2s-.6-.3-.9-.5c-.3-.2-.6-.4-.8-.5-.2-.1-.4-.1-.5,0,0,0-.1.2-.1.3,0,.1,0,.3,0,.5l-1.3.4c-.2-.5-.2-.9-.1-1.3,0-.4.3-.7.5-.9.3-.2.6-.4,1.1-.4s.5,0,.8.2.6.3.9.5c.3.2.5.3.8.5s.4.2.5.2.2,0,.2-.1,0-.2,0-.3,0-.2,0-.3l1.3-.4c.2.5.2.9.1,1.3,0,.4-.3.7-.6.9-.3.2-.6.3-1.1.3Z"/>
    <path d="M840.4,322.7c-.8,0-1.6-.2-2.3-.6-.7-.4-1.2-1-1.6-1.7-.4-.7-.6-1.5-.6-2.4s.1-1.3.4-1.9c.2-.6.6-1.1,1-1.5.4-.4.9-.8,1.5-1,.6-.2,1.1-.4,1.8-.4s1.6.2,2.3.6c.7.4,1.2,1,1.6,1.7.4.7.6,1.5.6,2.4s-.1,1.3-.4,1.9c-.2.6-.6,1.1-1,1.5-.4.4-.9.8-1.4,1-.5.2-1.1.4-1.8.4ZM840.4,320.4c.4,0,.8-.1,1.2-.4.4-.2.6-.5.8-.9.2-.4.3-.8.3-1.3s-.1-.9-.3-1.3c-.2-.4-.5-.7-.8-.9-.4-.2-.7-.4-1.2-.4s-.8.1-1.2.4c-.4.2-.6.6-.8.9-.2.4-.3.8-.3,1.3s.1.9.3,1.3c.2.4.5.7.9.9.4.2.7.3,1.2.3Z"/>
  </g>
</svg>