<?xml version="1.0" encoding="UTF-8"?>
<svg id="Capa_1" xmlns="http://www.w3.org/2000/svg" version="1.1" xmlns:xlink="http://www.w3.org/1999/xlink" viewBox="0 0 430 932">
  <!-- Generator: Adobe Illustrator 29.3.1, SVG Export Plug-In . SVG Version: 2.1.0 Build 151)  -->
  <defs>
    <style>
      .st0 {
        fill: #8a236e;
      }

      .st1 {
        filter: url(#AI_DesenfoqueGaussiano_74);
      }

      .st1, .st2, .st3, .st4, .st5 {
        opacity: .5;
      }

      .st2 {
        filter: url(#AI_DesenfoqueGaussiano_71);
      }

      .st6 {
        opacity: 1;
      }

      .st6, .st7, .st8, .st9 {
        fill: #fff;
        font-family: BonoboSemiBold, Bonobo;
      }

      .st6, .st9 {
        font-size: 22.9px;
      }

      .st7 {
        font-size: 22.9px;
      }

      .st10 {
        fill: #cd3c17;
      }

      .st3 {
        filter: url(#AI_DesenfoqueGaussiano_73);
      }

      .st8 {
        font-size: 22.9px;
      }

      .st11 {
        fill: #333;
      }

      .st12 {
        fill: none;
        stroke: #4d4d4d;
        stroke-miterlimit: 10;
        stroke-width: 2px;
      }

      .st4 {
        filter: url(#AI_DesenfoqueGaussiano_7);
      }

      .st5 {
        filter: url(#AI_DesenfoqueGaussiano_72);
      }

      .st13 {
        fill: #f29c37;
      }

      .st14 {
        fill: #046e7c;
      }
    </style>
    <filter id="AI_DesenfoqueGaussiano_7">
      <feGaussianBlur stdDeviation="7"/>
    </filter>
    <filter id="AI_DesenfoqueGaussiano_71" data-name="AI_DesenfoqueGaussiano_7">
      <feGaussianBlur stdDeviation="7"/>
    </filter>
    <filter id="AI_DesenfoqueGaussiano_72" data-name="AI_DesenfoqueGaussiano_7">
      <feGaussianBlur stdDeviation="7"/>
    </filter>
    <filter id="AI_DesenfoqueGaussiano_73" data-name="AI_DesenfoqueGaussiano_7">
      <feGaussianBlur stdDeviation="7"/>
    </filter>
    <filter id="AI_DesenfoqueGaussiano_74" data-name="AI_DesenfoqueGaussiano_7">
      <feGaussianBlur stdDeviation="7"/>
    </filter>
  </defs>
  <g>
    <path d="M344.9,176.3c-.9,0-1.8-.2-2.6-.5-.8-.4-1.5-.9-2.1-1.5-.6-.6-1.1-1.4-1.4-2.2-.3-.8-.5-1.7-.5-2.7s.2-1.9.5-2.8c.4-.8.9-1.6,1.5-2.2.6-.6,1.3-1.1,2.1-1.4.8-.3,1.6-.5,2.5-.5s1.9.2,2.8.7c.9.4,1.7,1.1,2.4,2.1l-2.1,1.1c-.4-.5-.9-.9-1.5-1.2s-1.1-.4-1.7-.4-1.1.1-1.6.3c-.5.2-1,.6-1.4,1-.4.4-.7.9-.9,1.5-.2.6-.3,1.2-.3,1.8s.1,1.2.3,1.8c.2.6.5,1,.9,1.5s.8.7,1.4,1c.5.2,1.1.4,1.7.4s.8,0,1.2-.2c.4-.1.7-.3,1.1-.5.3-.2.6-.5.9-.9.3-.3.5-.7.7-1.1h-2.4v-2h5.2c0,1-.1,1.9-.5,2.7-.3.9-.8,1.6-1.4,2.3-.6.7-1.3,1.2-2.1,1.5-.8.4-1.7.6-2.6.6Z"/>
    <path d="M353.2,176v-13.4h8.4v2.3h-6.1v2.7h4.8v2.3h-4.8v3.7h6.1v2.3h-8.4Z"/>
    <path d="M368.5,176.3c-.7,0-1.4-.1-2.1-.3-.7-.2-1.3-.6-1.8-1-.5-.4-.9-1-1.1-1.6l2.2-.8c0,.3.3.5.5.7.3.2.6.4,1,.5s.8.2,1.3.2.9,0,1.3-.2c.4-.1.7-.3,1-.6s.4-.6.4-.9-.1-.6-.4-.9c-.3-.2-.6-.4-1-.5-.4-.1-.8-.2-1.3-.3-.9-.1-1.8-.4-2.6-.7-.8-.3-1.3-.7-1.8-1.3-.4-.5-.7-1.2-.7-2.1s.2-1.5.7-2.1,1.1-1.1,1.8-1.4c.8-.3,1.6-.5,2.5-.5s1.4.1,2.1.3c.7.2,1.3.6,1.8,1s.9,1,1.1,1.6l-2.2.8c0-.3-.3-.5-.5-.7-.3-.2-.6-.4-1-.5s-.8-.2-1.3-.2c-.5,0-.9,0-1.3.2-.4.1-.7.4-1,.6s-.4.5-.4.9.1.7.4,1c.2.2.6.4,1,.5.4,0,.8.2,1.3.3.9.1,1.7.4,2.5.7s1.4.8,1.8,1.3c.5.6.7,1.2.7,2s-.2,1.5-.7,2.1c-.5.6-1.1,1.1-1.8,1.4s-1.6.5-2.5.5Z"/>
    <path d="M385.4,162.6v2.3h-4.1v11h-2.3v-11h-4.1v-2.3h10.5Z"/>
    <path d="M387.5,176v-13.4h2.3v13.4h-2.3Z"/>
    <path d="M398.7,176.3c-.9,0-1.8-.2-2.6-.5-.8-.4-1.5-.9-2.1-1.5-.6-.6-1.1-1.4-1.4-2.2-.3-.8-.5-1.7-.5-2.7s.2-1.9.5-2.7c.3-.8.8-1.6,1.4-2.2.6-.6,1.3-1.1,2.1-1.5.8-.4,1.6-.5,2.6-.5s1.8.2,2.6.5c.8.4,1.5.9,2.1,1.5.6.6,1.1,1.4,1.4,2.2.3.8.5,1.7.5,2.7s-.2,1.9-.5,2.7c-.3.8-.8,1.6-1.4,2.2-.6.6-1.3,1.1-2.1,1.5-.8.4-1.6.5-2.6.5ZM398.7,173.9c.6,0,1.1-.1,1.7-.4.5-.2,1-.6,1.4-1,.4-.4.7-.9.9-1.5s.3-1.1.3-1.8-.1-1.2-.3-1.8c-.2-.6-.5-1-.9-1.5s-.8-.8-1.4-1c-.5-.2-1.1-.4-1.6-.4s-1.1.1-1.7.4c-.5.2-1,.6-1.4,1-.4.4-.7.9-.9,1.5s-.3,1.1-.3,1.8.1,1.2.3,1.8c.2.6.5,1,.9,1.5.4.4.8.8,1.4,1s1.1.4,1.6.4ZM398.1,161.6l.8-2.8h2.3l-1.5,2.8h-1.5Z"/>
    <path d="M407,176v-13.4h2.5l5.6,9.2v-9.2h2.3v13.4h-2.5l-5.7-9.2v9.2h-2.3Z"/>
    <path d="M325.3,193.4v-13.4h8.4v2.3h-6.1v2.7h4.8v2.3h-4.8v3.7h6.1v2.3h-8.4Z"/>
    <path d="M335.9,193.4v-13.4h4.4c.9,0,1.8.2,2.6.5s1.5.8,2.1,1.4c.6.6,1.1,1.3,1.4,2.1.3.8.5,1.7.5,2.6s-.2,1.8-.5,2.6c-.3.8-.8,1.5-1.4,2.1-.6.6-1.3,1.1-2.1,1.4s-1.7.5-2.6.5h-4.4ZM338.2,191.1h2.1c.6,0,1.2-.1,1.7-.3s1-.5,1.4-.9c.4-.4.7-.9.9-1.4.2-.5.3-1.1.3-1.7s-.1-1.2-.3-1.7c-.2-.5-.5-1-.9-1.4s-.9-.7-1.4-.9c-.5-.2-1.1-.3-1.7-.3h-2.1v8.7Z"/>
    <path d="M348.8,193.4v-13.4h2.3v13.4h-2.3Z"/>
    <path d="M363.8,180v2.3h-4.1v11h-2.3v-11h-4.1v-2.3h10.5Z"/>
    <path d="M371.2,193.6c-.9,0-1.8-.2-2.6-.5-.8-.4-1.5-.9-2.1-1.5-.6-.6-1.1-1.4-1.4-2.2-.3-.8-.5-1.7-.5-2.7s.2-1.9.5-2.7c.3-.8.8-1.6,1.4-2.2.6-.6,1.3-1.1,2.1-1.5.8-.4,1.6-.5,2.6-.5s1.8.2,2.6.5c.8.4,1.5.9,2.1,1.5.6.6,1.1,1.4,1.4,2.2.3.8.5,1.7.5,2.7s-.2,1.9-.5,2.7c-.3.8-.8,1.6-1.4,2.2-.6.6-1.3,1.1-2.1,1.5-.8.4-1.6.5-2.6.5ZM371.2,191.3c.6,0,1.1-.1,1.7-.4.5-.2,1-.6,1.4-1,.4-.4.7-.9.9-1.5s.3-1.1.3-1.8-.1-1.2-.3-1.8c-.2-.6-.5-1-.9-1.5s-.8-.8-1.4-1c-.5-.2-1.1-.4-1.6-.4s-1.1.1-1.7.4c-.5.2-1,.6-1.4,1-.4.4-.7.9-.9,1.5s-.3,1.1-.3,1.8.1,1.2.3,1.8c.2.6.5,1,.9,1.5.4.4.8.8,1.4,1s1.1.4,1.6.4Z"/>
    <path d="M379.5,193.4v-13.4h5.1c.7,0,1.4.2,2,.5.6.4,1.1.8,1.4,1.5.3.6.5,1.3.5,2s-.1,1.2-.3,1.7-.5.9-.9,1.3c-.4.4-.8.6-1.4.8l3.2,5.5h-2.7l-3.1-5.3h-1.5v5.3h-2.3ZM381.9,185.7h2.5c.3,0,.6,0,.9-.2.3-.2.5-.4.7-.7.2-.3.2-.6.2-.9s0-.7-.2-.9c-.2-.3-.4-.5-.7-.7-.3-.2-.6-.2-.9-.2h-2.5v3.7Z"/>
    <path d="M391.2,193.4v-13.4h2.3v13.4h-2.3Z"/>
    <path d="M400.6,180h2.7l4.9,13.4h-2.5l-.9-2.4h-5.7l-.9,2.4h-2.5l4.9-13.4ZM400,188.7h4l-2-5.5-2,5.5Z"/>
    <path d="M409.8,193.4v-13.4h2.3v11h5.6v2.3h-7.9Z"/>
  </g>
  <g>
    <path class="st14" d="M96.5,196.4c-2.3,0-4.4-.5-6.4-1.4-2-.9-3.7-2.1-5.3-3.7s-2.7-3.4-3.6-5.5c-.9-2.1-1.3-4.3-1.3-6.7s.4-4.6,1.3-6.7c.9-2.1,2-3.9,3.6-5.5s3.3-2.8,5.3-3.7c2-.9,4.1-1.4,6.4-1.4s4.4.5,6.4,1.4c2,.9,3.7,2.1,5.3,3.7,1.5,1.6,2.7,3.4,3.6,5.5.9,2.1,1.3,4.3,1.3,6.7s-.4,4.6-1.3,6.7c-.9,2.1-2,3.9-3.6,5.5-1.5,1.6-3.3,2.8-5.3,3.7-2,.9-4.1,1.4-6.4,1.4ZM96.5,190.6c1.5,0,2.8-.3,4.1-.9,1.3-.6,2.4-1.4,3.4-2.5s1.7-2.3,2.3-3.7c.6-1.4.8-2.9.8-4.4s-.3-3.1-.8-4.5c-.6-1.4-1.3-2.6-2.3-3.7-1-1.1-2.1-1.9-3.4-2.5-1.3-.6-2.7-.9-4.1-.9s-2.8.3-4.1.9c-1.3.6-2.4,1.4-3.4,2.5-1,1.1-1.7,2.3-2.3,3.7-.5,1.4-.8,2.9-.8,4.4s.3,3.1.8,4.5c.6,1.4,1.3,2.6,2.3,3.7,1,1.1,2.1,1.9,3.4,2.5s2.7.9,4.1.9Z"/>
    <path class="st14" d="M119.8,196.4c-1.2,0-2.4-.2-3.6-.6s-2.2-1-3.2-1.8l3.7-4.5c.4.3.8.5,1.3.8.5.2,1.1.3,1.8.3s1.7-.2,2.4-.7c.7-.5,1.3-1.1,1.7-1.8.4-.7.7-1.6.7-2.4v-23.4h5.8v23.4c0,2-.5,3.8-1.4,5.4-1,1.6-2.2,2.9-3.9,3.9-1.6,1-3.4,1.5-5.3,1.5Z"/>
    <path class="st14" d="M148.2,196.4c-1.9,0-3.6-.3-5.3-.9-1.7-.6-3.2-1.4-4.5-2.5s-2.2-2.4-2.8-3.9l5.5-2c.2.6.7,1.2,1.4,1.7.7.5,1.5.9,2.5,1.3,1,.3,2,.5,3.2.5s2.3-.2,3.3-.5c1-.4,1.8-.9,2.5-1.5.6-.6.9-1.4.9-2.3s-.3-1.6-1-2.2c-.7-.6-1.5-1-2.5-1.4s-2.1-.6-3.2-.8c-2.4-.4-4.5-.9-6.4-1.7-1.9-.8-3.4-1.8-4.5-3.2-1.1-1.4-1.6-3.1-1.6-5.3s.6-3.8,1.7-5.3,2.7-2.7,4.6-3.5c1.9-.8,3.9-1.3,6.1-1.3s3.6.3,5.3.9c1.7.6,3.2,1.4,4.5,2.5,1.3,1.1,2.2,2.4,2.8,4l-5.5,2c-.2-.6-.7-1.2-1.4-1.7s-1.5-.9-2.5-1.3-2-.5-3.2-.5c-1.1,0-2.2.2-3.2.5-1,.4-1.8.9-2.5,1.5-.6.6-1,1.4-1,2.2s.3,1.9.9,2.4c.6.5,1.4.9,2.4,1.2,1,.2,2.1.5,3.3.7,2.2.4,4.3.9,6.2,1.8s3.4,1.9,4.6,3.3c1.1,1.4,1.7,3.1,1.7,5.1s-.6,3.8-1.7,5.3c-1.1,1.5-2.7,2.7-4.6,3.6s-4,1.3-6.2,1.3Z"/>
    <path class="st14" d="M180.6,162.3l-9.7,36.2h-5.8l9.7-36.2h5.8Z"/>
    <path class="st14" d="M200.9,196.4c-2.3,0-4.4-.5-6.4-1.4-2-.9-3.7-2.1-5.3-3.7s-2.7-3.4-3.6-5.5c-.9-2.1-1.3-4.3-1.3-6.7s.4-4.6,1.3-6.7c.9-2.1,2-3.9,3.6-5.5s3.3-2.8,5.3-3.7c2-.9,4.1-1.4,6.4-1.4s4.4.5,6.4,1.4c2,.9,3.7,2.1,5.3,3.7,1.5,1.6,2.7,3.4,3.6,5.5.9,2.1,1.3,4.3,1.3,6.7s-.4,4.6-1.3,6.7c-.9,2.1-2,3.9-3.6,5.5-1.5,1.6-3.3,2.8-5.3,3.7-2,.9-4.1,1.4-6.4,1.4ZM200.9,190.6c1.5,0,2.8-.3,4.1-.9,1.3-.6,2.4-1.4,3.4-2.5s1.7-2.3,2.3-3.7c.6-1.4.8-2.9.8-4.4s-.3-3.1-.8-4.5c-.6-1.4-1.3-2.6-2.3-3.7-1-1.1-2.1-1.9-3.4-2.5-1.3-.6-2.7-.9-4.1-.9s-2.8.3-4.1.9c-1.3.6-2.4,1.4-3.4,2.5-1,1.1-1.7,2.3-2.3,3.7-.5,1.4-.8,2.9-.8,4.4s.3,3.1.8,4.5c.6,1.4,1.3,2.6,2.3,3.7,1,1.1,2.1,1.9,3.4,2.5s2.7.9,4.1.9Z"/>
    <path class="st14" d="M220.6,195.8l6.5-33.5h4.8l8.2,21.5,8.2-21.5h4.8l6.5,33.5h-6l-4-20.7-7.5,20h-4l-7.5-20-4,20.7h-6Z"/>
    <path class="st14" d="M264.4,195.8v-33.5h12c1.8,0,3.5.5,4.9,1.4,1.5.9,2.6,2.1,3.5,3.7.9,1.5,1.3,3.2,1.3,5s-.4,3.6-1.3,5.1c-.9,1.5-2.1,2.7-3.6,3.6-1.5.9-3.1,1.4-4.9,1.4h-6.1v13.3h-5.8ZM270.2,176.6h5.5c.8,0,1.6-.2,2.3-.6.7-.4,1.2-1,1.6-1.7.4-.7.6-1.5.6-2.3s-.2-1.7-.6-2.4c-.4-.7-1-1.3-1.6-1.7-.7-.4-1.4-.6-2.3-.6h-5.5v9.3Z"/>
  </g>
  <rect x="306.7" y="159" width=".9" height="40.6"/>
  <g>
    <path class="st12" d="M92.9,361.8c-8.6,0-17.2,0-25.8.1-3.2-7.9-6.4-15.8-9.6-23.7"/>
    <path class="st12" d="M119.6,487.9c-8.6,0-17.2,0-25.8.1-3.2-7.9-6.4-15.8-9.6-23.7"/>
    <path class="st12" d="M140.6,666.7c-8.6,0-17.2,0-25.8.1-3.2-7.9-6.4-15.8-9.6-23.7"/>
    <path class="st12" d="M118.8,751.9c-8.6,0-17.2,0-25.8.1-3.2-7.9-6.4-15.8-9.6-23.7"/>
    <g>
      <path d="M35.9,293.2c-.6,0-1-.1-1.4-.4-.4-.3-.7-.6-.9-1.1s-.3-1-.3-1.5v-4.1h.8v4.1c0,.4,0,.8.2,1.1.1.3.4.6.6.8s.6.3,1,.3.8-.1,1-.3.5-.5.6-.8.2-.7.2-1.1v-4.1h.8v4.1c0,.4,0,.8-.2,1.2s-.3.7-.5,1c-.2.3-.5.5-.9.7-.3.2-.7.2-1.1.2Z"/>
      <path d="M42.4,288.9h-1.1v4.1h-.8v-4.1s-.8,0-.8,0v-.8h.9v-1.6s.8,0,.8,0v1.6h1.1v.8Z"/>
      <path d="M43.7,287.3c-.1,0-.2,0-.3-.1,0,0-.1-.2-.1-.3s0-.2.1-.3c0,0,.2-.1.3-.1s.2,0,.3.1c0,0,.1.2.1.3s0,.2-.1.3c0,0-.2.1-.3.1ZM43.3,288.1h.8v5h-.8v-5Z"/>
      <path d="M45.3,293.1v-7.5h.8v7.5h-.8Z"/>
      <path d="M47.8,287.3c-.1,0-.2,0-.3-.1,0,0-.1-.2-.1-.3s0-.2.1-.3c0,0,.2-.1.3-.1s.2,0,.3.1c0,0,.1.2.1.3s0,.2-.1.3c0,0-.2.1-.3.1ZM47.3,288.1h.8v5h-.8v-5Z"/>
      <path d="M53.4,288.9l-3.1,3.3h3.1v.8h-4.2v-.8l3.1-3.3h-3.1v-.8h4.2v.8Z"/>
      <path d="M58.3,288.1h.8v5h-.8v-.8c-.2.3-.4.5-.7.7-.3.2-.6.3-1,.3s-.7,0-1-.2c-.3-.1-.6-.3-.8-.6s-.4-.5-.6-.8c-.1-.3-.2-.7-.2-1s0-.7.2-1c.1-.3.3-.6.6-.8s.5-.4.8-.6c.3-.1.6-.2,1-.2s.7,0,1,.3c.3.2.5.4.7.7v-.8ZM56.7,292.4c.3,0,.6,0,.9-.2.2-.2.4-.4.6-.7s.2-.6.2-.9,0-.6-.2-.9c-.1-.3-.3-.5-.6-.7-.2-.2-.5-.2-.8-.2s-.6,0-.9.2c-.3.2-.5.4-.6.7-.2.3-.2.6-.2.9s0,.6.2.9c.2.3.4.5.6.7.3.2.6.2.9.2Z"/>
      <path d="M65.8,293.2c-.5,0-.9,0-1.3-.3s-.8-.4-1.1-.8c-.3-.3-.6-.7-.7-1.2-.2-.4-.3-.9-.3-1.4s0-1,.3-1.4c.2-.4.4-.8.7-1.2.3-.3.7-.6,1.1-.8.4-.2.9-.3,1.3-.3s.9,0,1.3.3c.4.2.8.4,1.1.8.3.3.6.7.7,1.2s.3.9.3,1.4,0,1-.3,1.4c-.2.4-.4.8-.7,1.2-.3.3-.7.6-1.1.8s-.9.3-1.3.3ZM65.8,292.4c.4,0,.7,0,1-.2.3-.1.6-.3.8-.6.2-.3.4-.6.6-.9.1-.3.2-.7.2-1.1s0-.7-.2-1.1c-.1-.3-.3-.6-.6-.9-.2-.3-.5-.5-.8-.6-.3-.1-.6-.2-1-.2s-.7,0-1,.2c-.3.1-.6.3-.8.6-.2.3-.4.6-.6.9-.1.3-.2.7-.2,1.1s0,.7.2,1.1.3.6.6.9.5.5.8.6c.3.1.6.2,1,.2Z"/>
      <path d="M70.6,293.2c-.2,0-.5,0-.7-.1-.2,0-.4-.2-.6-.4l.5-.6c0,0,.2.1.3.2s.3,0,.4,0c.2,0,.4,0,.6-.2.2-.1.3-.3.4-.5.1-.2.2-.4.2-.6v-5h.8v5c0,.4,0,.7-.3,1s-.4.6-.7.8c-.3.2-.6.3-1,.3Z"/>
      <path d="M76.3,293.2c-.4,0-.7,0-1.1-.2-.3-.1-.7-.3-.9-.5-.3-.2-.4-.5-.6-.8l.8-.3c0,.2.2.3.4.5.2.1.4.2.6.3s.5.1.8.1.6,0,.8-.1c.3,0,.5-.2.6-.4.2-.2.2-.4.2-.6s0-.4-.2-.6c-.2-.2-.4-.3-.6-.4-.3,0-.5-.2-.8-.2-.5,0-.9-.2-1.3-.3-.4-.1-.7-.4-.9-.6s-.3-.6-.3-1,.1-.8.4-1.1c.2-.3.5-.5.9-.7s.8-.2,1.2-.2.7,0,1.1.2c.3.1.7.3.9.5.3.2.5.5.6.8l-.8.3c0-.2-.2-.4-.4-.5-.2-.1-.4-.2-.6-.3-.2,0-.5-.1-.8-.1-.3,0-.6,0-.8.1-.3,0-.5.2-.6.4-.2.2-.2.4-.2.6s0,.5.2.6c.1.1.3.3.6.3.3,0,.5.1.9.2.5,0,.9.2,1.3.4.4.2.7.4.9.7.2.3.4.6.4,1s-.1.8-.4,1.1c-.2.3-.5.5-.9.7s-.8.2-1.3.2Z"/>
      <path d="M82.1,291.2v-3.1h.8v2.9c0,.3,0,.5.2.7.1.2.3.4.5.5.2.1.4.2.7.2s.5,0,.7-.2c.2-.1.4-.3.5-.5.1-.2.2-.4.2-.7v-2.9h.8v5s-.8,0-.8,0v-.6c-.2.2-.4.4-.7.6-.3.1-.6.2-.9.2s-.7,0-1-.3c-.3-.2-.5-.4-.7-.7-.2-.3-.3-.6-.3-1Z"/>
      <path d="M35.8,302.4c-.5,0-.9,0-1.3-.3s-.8-.4-1.1-.8c-.3-.3-.6-.7-.7-1.2-.2-.4-.3-.9-.3-1.4s0-1,.3-1.4c.2-.4.4-.8.7-1.2.3-.3.7-.6,1.1-.8.4-.2.9-.3,1.3-.3s.9,0,1.3.3c.4.2.8.4,1.1.8.3.3.6.7.7,1.2s.3.9.3,1.4,0,1-.3,1.4c-.2.4-.4.8-.7,1.2-.3.3-.7.6-1.1.8s-.9.3-1.3.3ZM35.8,301.5c.4,0,.7,0,1-.2.3-.1.6-.3.8-.6.2-.3.4-.6.6-.9.1-.3.2-.7.2-1.1s0-.7-.2-1.1c-.1-.3-.3-.6-.6-.9-.2-.3-.5-.5-.8-.6-.3-.1-.6-.2-1-.2s-.7,0-1,.2c-.3.1-.6.3-.8.6-.2.3-.4.6-.6.9-.1.3-.2.7-.2,1.1s0,.7.2,1.1.3.6.6.9.5.5.8.6c.3.1.6.2,1,.2Z"/>
      <path d="M40,302.3l1.3-7h.6l1.9,4.9,1.9-4.9h.6l1.4,7h-.8l-1-5-1.8,4.7h-.6l-1.8-4.7-1,5h-.8Z"/>
      <path d="M48.8,302.3v-7h2.3c.4,0,.7,0,1,.3s.5.4.7.7c.2.3.3.7.3,1s0,.7-.3,1-.4.6-.7.7c-.3.2-.6.3-1,.3h-1.5v2.9h-.8ZM49.6,298.6h1.4c.2,0,.4,0,.6-.2.2-.1.3-.3.4-.5.1-.2.2-.4.2-.6s0-.5-.2-.6c-.1-.2-.3-.3-.4-.5-.2-.1-.4-.2-.6-.2h-1.4v2.5Z"/>
      <path d="M57.3,304.7h-.8v-7.5h.8v.8c.2-.3.4-.5.7-.7.3-.2.6-.3,1-.3s.7,0,1,.2.6.3.8.6c.2.2.4.5.6.8s.2.7.2,1,0,.7-.2,1-.3.6-.6.8c-.2.2-.5.4-.8.6s-.7.2-1,.2-.7,0-1-.3c-.3-.2-.5-.4-.7-.7v3.3ZM59,298c-.3,0-.6,0-.8.2-.2.2-.4.4-.6.7-.1.3-.2.6-.2.9s0,.6.2.9.3.5.6.7c.2.2.5.2.8.2s.6,0,.9-.2c.3-.2.5-.4.6-.7.2-.3.2-.6.2-.9s0-.6-.2-.9c-.2-.3-.4-.5-.6-.7-.3-.2-.6-.2-.9-.2Z"/>
      <path d="M66.4,297.3h.8v5h-.8v-.8c-.2.3-.4.5-.7.7-.3.2-.6.3-1,.3s-.7,0-1-.2c-.3-.1-.6-.3-.8-.6s-.4-.5-.6-.8c-.1-.3-.2-.7-.2-1s0-.7.2-1c.1-.3.3-.6.6-.8s.5-.4.8-.6c.3-.1.6-.2,1-.2s.7,0,1,.3c.3.2.5.4.7.7v-.8ZM64.7,301.6c.3,0,.6,0,.9-.2.2-.2.4-.4.6-.7s.2-.6.2-.9,0-.6-.2-.9c-.1-.3-.3-.5-.6-.7-.2-.2-.5-.2-.8-.2s-.6,0-.9.2c-.3.2-.5.4-.6.7-.2.3-.2.6-.2.9s0,.6.2.9c.2.3.4.5.6.7.3.2.6.2.9.2Z"/>
      <path d="M68.2,302.3v-5h.8v.6c.2-.2.4-.4.7-.6.3-.1.6-.2.9-.2s.4,0,.6,0l-.3.8c-.1,0-.3,0-.4,0-.2,0-.5,0-.7.2-.2.1-.4.3-.5.5-.1.2-.2.4-.2.7v2.9h-.8Z"/>
      <path d="M75.5,297.3h.8v5h-.8v-.8c-.2.3-.4.5-.7.7-.3.2-.6.3-1,.3s-.7,0-1-.2c-.3-.1-.6-.3-.8-.6s-.4-.5-.6-.8c-.1-.3-.2-.7-.2-1s0-.7.2-1c.1-.3.3-.6.6-.8s.5-.4.8-.6c.3-.1.6-.2,1-.2s.7,0,1,.3c.3.2.5.4.7.7v-.8ZM73.8,301.6c.3,0,.6,0,.9-.2.2-.2.4-.4.6-.7s.2-.6.2-.9,0-.6-.2-.9c-.1-.3-.3-.5-.6-.7-.2-.2-.5-.2-.8-.2s-.6,0-.9.2c-.3.2-.5.4-.6.7-.2.3-.2.6-.2.9s0,.6.2.9c.2.3.4.5.6.7.3.2.6.2.9.2Z"/>
      <path d="M79.7,302.3v-7.5h.8v7.5h-.8Z"/>
      <path d="M85.7,297.3h.8v5h-.8v-.8c-.2.3-.4.5-.7.7-.3.2-.6.3-1,.3s-.7,0-1-.2c-.3-.1-.6-.3-.8-.6s-.4-.5-.6-.8c-.1-.3-.2-.7-.2-1s0-.7.2-1c.1-.3.3-.6.6-.8s.5-.4.8-.6c.3-.1.6-.2,1-.2s.7,0,1,.3c.3.2.5.4.7.7v-.8ZM84,301.6c.3,0,.6,0,.9-.2.2-.2.4-.4.6-.7s.2-.6.2-.9,0-.6-.2-.9c-.1-.3-.3-.5-.6-.7-.2-.2-.5-.2-.8-.2s-.6,0-.9.2c-.3.2-.5.4-.6.7-.2.3-.2.6-.2.9s0,.6.2.9c.2.3.4.5.6.7.3.2.6.2.9.2Z"/>
      <path d="M30.2,306.5h.8v5.1c0,.3,0,.6-.2.9-.1.3-.3.5-.6.7-.2.2-.5.4-.8.5-.3.1-.6.2-1,.2s-.7,0-1-.2c-.3-.2-.6-.4-.8-.6s-.4-.5-.5-.9l.8-.3c0,.2.2.4.3.6.2.2.4.3.6.4.2.1.4.2.7.2s.4,0,.6-.1.4-.2.6-.3c.2-.1.3-.3.4-.5,0-.2.1-.4.1-.6v-1c-.2.3-.4.5-.7.7s-.6.3-1,.3-.7,0-1-.2c-.3-.1-.6-.3-.8-.6-.2-.2-.4-.5-.5-.8-.1-.3-.2-.7-.2-1s0-.7.2-1c.1-.3.3-.6.5-.8.2-.2.5-.4.8-.6.3-.1.6-.2,1-.2s.7,0,1,.3c.3.2.5.4.7.7v-.8ZM28.6,310.7c.3,0,.6,0,.8-.2.2-.2.4-.4.5-.7.1-.3.2-.6.2-.9s0-.6-.2-.9c-.1-.3-.3-.5-.6-.7-.2-.2-.5-.2-.8-.2s-.6,0-.9.2c-.3.2-.5.4-.6.7-.2.3-.2.6-.2.9s0,.6.2.9c.2.3.4.5.6.7.3.2.5.2.8.2Z"/>
      <path d="M34.4,311.6c-.5,0-.9-.1-1.2-.4-.4-.2-.7-.6-.9-.9-.2-.4-.3-.8-.3-1.3s0-.7.2-1c.1-.3.3-.6.5-.8.2-.2.5-.4.8-.6.3-.1.6-.2,1-.2s.7,0,1,.2c.3.2.6.4.8.6.2.3.4.6.5.9s.2.7.1,1.1h-4.1c0,.3.1.5.3.8.1.2.3.4.6.5.2.1.5.2.8.2.3,0,.6,0,.8-.2.2-.2.4-.4.6-.6l.8.2c-.2.4-.5.8-.9,1.1-.4.3-.8.4-1.3.4ZM32.8,308.6h3.2c0-.3-.1-.5-.3-.8-.2-.2-.3-.4-.6-.6s-.5-.2-.8-.2-.5,0-.8.2c-.2.1-.4.3-.6.5-.2.2-.2.5-.3.8Z"/>
      <path d="M39.2,311.5c-.3,0-.5,0-.8-.2-.3,0-.5-.2-.7-.4s-.3-.3-.4-.5l.7-.3c0,.1.1.2.3.3.1,0,.3.2.4.2s.3,0,.5,0,.4,0,.5,0c.2,0,.3-.1.4-.3s.2-.2.2-.4,0-.3-.2-.4c-.1,0-.3-.2-.4-.2-.2,0-.3-.1-.5-.2-.3,0-.6-.2-.9-.3-.3-.1-.5-.3-.6-.5s-.2-.4-.2-.7,0-.6.3-.8.4-.4.7-.5c.3-.1.6-.2.9-.2s.8,0,1.1.3c.3.2.6.4.7.7l-.7.4c0-.1-.1-.2-.3-.3-.1,0-.2-.2-.4-.2-.1,0-.3,0-.5,0-.2,0-.4,0-.5,0-.2,0-.3.1-.4.3s-.2.3-.2.4,0,.3.2.4.2.2.4.2.4.1.6.2c.3,0,.6.2.8.3s.5.3.6.5c.2.2.2.4.2.7,0,.3,0,.6-.3.8-.2.2-.4.4-.7.5-.3.1-.6.2-.9.2Z"/>
      <path d="M44.6,307.3h-1.1v4.1h-.8v-4.1s-.8,0-.8,0v-.8h.9v-1.6s.8,0,.8,0v1.6h1.1v.8Z"/>
      <path d="M45.8,305.6c-.1,0-.2,0-.3-.1,0,0-.1-.2-.1-.3s0-.2.1-.3c0,0,.2-.1.3-.1s.2,0,.3.1c0,0,.1.2.1.3s0,.2-.1.3c0,0-.2.1-.3.1ZM45.4,306.5h.8v5h-.8v-5Z"/>
      <path d="M49.6,311.6c-.5,0-.9-.1-1.2-.4-.4-.2-.7-.6-.9-.9-.2-.4-.3-.8-.3-1.3s0-.7.2-1c.1-.3.3-.6.5-.8.2-.2.5-.4.8-.6.3-.1.6-.2,1-.2s.9.1,1.2.4.7.6.9.9.3.8.3,1.3,0,.7-.2,1c-.1.3-.3.6-.5.8-.2.2-.5.4-.8.6s-.6.2-1,.2ZM49.6,310.7c.3,0,.6,0,.8-.2.2-.2.4-.4.6-.7s.2-.6.2-.9,0-.6-.2-.9-.3-.5-.6-.7c-.2-.2-.5-.2-.8-.2s-.6,0-.8.2c-.2.2-.4.4-.6.7-.1.3-.2.6-.2.9s0,.6.2.9c.1.3.3.5.6.6.3.2.5.2.8.2ZM49.3,305.9l.4-1.4h.8l-.7,1.4h-.6Z"/>
      <path d="M57.3,308.3v3.1h-.8v-2.9c0-.3,0-.5-.2-.7-.1-.2-.3-.4-.5-.5-.2-.1-.4-.2-.7-.2s-.5,0-.7.2c-.2.1-.4.3-.5.5-.1.2-.2.4-.2.7v2.9h-.8v-5h.8v.6c.2-.2.4-.4.7-.6.3-.1.6-.2.9-.2s.7,0,1,.3c.3.2.5.4.7.7.2.3.3.6.3,1Z"/>
      <path d="M64.6,304h.8v7.5h-.8v-.8c-.2.3-.4.5-.7.7-.3.2-.6.3-1,.3s-.7,0-1-.2c-.3-.1-.6-.3-.8-.6s-.4-.5-.6-.8c-.1-.3-.2-.7-.2-1s0-.7.2-1c.1-.3.3-.6.6-.8.2-.2.5-.4.8-.6.3-.1.7-.2,1-.2s.7,0,1,.3c.3.2.5.4.7.7v-3.3ZM63,310.7c.3,0,.6,0,.9-.2.2-.2.4-.4.6-.7s.2-.6.2-.9,0-.6-.2-.9c-.1-.3-.3-.5-.6-.7-.2-.2-.5-.2-.8-.2s-.6,0-.9.2c-.3.2-.5.4-.6.7-.2.3-.2.6-.2.9s0,.6.2.9c.2.3.4.5.6.7.3.2.6.2.9.2Z"/>
      <path d="M68.8,311.6c-.5,0-.9-.1-1.2-.4-.4-.2-.7-.6-.9-.9-.2-.4-.3-.8-.3-1.3s0-.7.2-1c.1-.3.3-.6.5-.8.2-.2.5-.4.8-.6.3-.1.6-.2,1-.2s.7,0,1,.2c.3.2.6.4.8.6.2.3.4.6.5.9s.2.7.1,1.1h-4.1c0,.3.1.5.3.8.1.2.3.4.6.5.2.1.5.2.8.2.3,0,.6,0,.8-.2.2-.2.4-.4.6-.6l.8.2c-.2.4-.5.8-.9,1.1-.4.3-.8.4-1.3.4ZM67.2,308.6h3.2c0-.3-.1-.5-.3-.8-.2-.2-.3-.4-.6-.6s-.5-.2-.8-.2-.5,0-.8.2c-.2.1-.4.3-.6.5-.2.2-.2.5-.3.8Z"/>
      <path d="M77.1,307.3h-1.1v4.1h-.8v-4.1s-.8,0-.8,0v-.8h.9v-1.6s.8,0,.8,0v1.6h1.1v.8Z"/>
      <path d="M77.8,309.5v-3.1h.8v2.9c0,.3,0,.5.2.7.1.2.3.4.5.5.2.1.4.2.7.2s.5,0,.7-.2c.2-.1.4-.3.5-.5.1-.2.2-.4.2-.7v-2.9h.8v5s-.8,0-.8,0v-.6c-.2.2-.4.4-.7.6-.3.1-.6.2-.9.2s-.7,0-1-.3c-.3-.2-.5-.4-.7-.7-.2-.3-.3-.6-.3-1Z"/>
      <path d="M84.7,311.5c-.3,0-.5,0-.8-.2-.3,0-.5-.2-.7-.4s-.3-.3-.4-.5l.7-.3c0,.1.1.2.3.3.1,0,.3.2.4.2s.3,0,.5,0,.4,0,.5,0c.2,0,.3-.1.4-.3s.2-.2.2-.4,0-.3-.2-.4c-.1,0-.3-.2-.4-.2-.2,0-.3-.1-.5-.2-.3,0-.6-.2-.9-.3-.3-.1-.5-.3-.6-.5s-.2-.4-.2-.7,0-.6.3-.8.4-.4.7-.5c.3-.1.6-.2.9-.2s.8,0,1.1.3c.3.2.6.4.7.7l-.7.4c0-.1-.1-.2-.3-.3-.1,0-.2-.2-.4-.2-.1,0-.3,0-.5,0-.2,0-.4,0-.5,0-.2,0-.3.1-.4.3s-.2.3-.2.4,0,.3.2.4.2.2.4.2.4.1.6.2c.3,0,.6.2.8.3s.5.3.6.5c.2.2.2.4.2.7,0,.3,0,.6-.3.8-.2.2-.4.4-.7.5-.3.1-.6.2-.9.2Z"/>
      <path d="M49.3,323.1h-1.2v-7.5h1.2v.6c.2-.2.4-.4.6-.5.2-.1.5-.2.8-.2s.7,0,1,.2c.3.1.6.3.8.6.2.2.4.5.6.8.1.3.2.7.2,1s0,.7-.2,1c-.1.3-.3.6-.6.8-.2.2-.5.4-.8.6-.3.1-.7.2-1,.2s-.6,0-.8-.2c-.2-.1-.4-.3-.6-.5v3.1ZM50.7,316.7c-.3,0-.5,0-.7.2s-.4.3-.5.5c-.1.2-.2.5-.2.7s0,.5.2.7c.1.2.3.4.5.5s.4.2.7.2.5,0,.7-.2c.2-.1.4-.3.5-.5.1-.2.2-.5.2-.7s0-.5-.2-.7c-.1-.2-.3-.4-.5-.5s-.4-.2-.7-.2Z"/>
      <path d="M54.1,320.6v-5s1.2,0,1.2,0v.4c.2-.2.4-.3.6-.4.2-.1.5-.2.8-.2s.4,0,.5,0l-.5,1.2c-.1,0-.3,0-.4,0-.2,0-.4,0-.5.1-.2,0-.3.2-.4.4,0,.2-.1.3-.1.5v2.8h-1.2Z"/>
      <path d="M59.8,320.7c-.5,0-.9-.1-1.2-.4-.4-.2-.7-.6-.9-.9-.2-.4-.3-.8-.3-1.3s0-.7.2-1c.1-.3.3-.6.5-.8.2-.2.5-.4.8-.6.3-.1.6-.2,1-.2s.9.1,1.2.4.7.6.9.9.3.8.3,1.3,0,.7-.2,1c-.1.3-.3.6-.5.8-.2.2-.5.4-.8.6s-.6.2-1,.2ZM59.8,319.5c.2,0,.5,0,.7-.2.2-.1.3-.3.5-.5.1-.2.2-.4.2-.7s0-.5-.2-.7c-.1-.2-.3-.4-.5-.5-.2-.1-.4-.2-.6-.2s-.5,0-.6.2c-.2.1-.3.3-.5.5-.1.2-.2.4-.2.7s0,.5.2.7c.1.2.3.4.5.5.2.1.4.2.6.2Z"/>
      <path d="M66.1,319.1l1.1.6c-.2.3-.5.6-.9.8-.3.2-.7.3-1.1.3s-.9-.1-1.2-.4c-.4-.2-.7-.6-.9-.9-.2-.4-.3-.8-.3-1.3s0-.7.2-1c.1-.3.3-.6.5-.8.2-.2.5-.4.8-.6.3-.1.6-.2,1-.2s.8,0,1.1.3c.3.2.6.4.9.8l-1.1.6c-.1-.1-.3-.2-.4-.3s-.3-.1-.5-.1c-.2,0-.5,0-.6.2-.2.1-.3.3-.5.5-.1.2-.2.4-.2.7s0,.5.2.7c.1.2.3.4.5.5.2.1.4.2.6.2s.3,0,.5-.1c.2,0,.3-.2.4-.3Z"/>
      <path d="M70.1,320.7c-.5,0-.9-.1-1.2-.4-.4-.2-.7-.6-.9-.9s-.3-.8-.3-1.3,0-.7.2-1c.1-.3.3-.6.5-.8.2-.2.5-.4.8-.6.3-.1.6-.2,1-.2s.7,0,1.1.2c.3.2.6.4.8.7.2.3.4.6.5,1s.1.7,0,1.1h-3.6c0,.2.1.4.2.5s.2.3.4.4c.2,0,.3.1.6.1.2,0,.4,0,.6-.2s.3-.2.4-.4l1.2.3c-.2.4-.5.8-.9,1.1-.4.3-.8.4-1.3.4ZM68.9,317.6h2.4c0-.2-.1-.4-.2-.5-.1-.2-.3-.3-.4-.4-.2,0-.4-.1-.6-.1s-.4,0-.6.1c-.2,0-.3.2-.4.4s-.2.3-.2.5Z"/>
      <path d="M74.9,320.7c-.3,0-.5,0-.7-.2-.2,0-.5-.2-.6-.4-.2-.2-.3-.3-.4-.5l1-.4c0,0,.1.1.2.2s.2.1.3.2c.1,0,.3,0,.4,0s.2,0,.4,0c.1,0,.2,0,.3-.2s.1-.2.1-.3,0-.2-.1-.3-.2-.1-.3-.2c-.1,0-.3,0-.4,0-.3,0-.6-.2-.9-.3-.3-.1-.5-.3-.7-.5s-.2-.5-.2-.8,0-.6.3-.8c.2-.2.4-.4.7-.6.3-.1.6-.2.9-.2s.8,0,1.1.2.6.4.8.7l-1,.6c0,0-.1-.2-.2-.2,0,0-.2-.1-.3-.2-.1,0-.2,0-.3,0-.1,0-.3,0-.4,0s-.2,0-.3.2c0,0-.1.2-.1.3s0,.2.1.3c0,0,.2.1.4.1.1,0,.3,0,.4.1.3,0,.6.2.8.4.3.1.5.3.6.5s.2.4.2.7c0,.3,0,.6-.3.8-.2.2-.4.4-.7.5s-.6.2-1,.1Z"/>
      <path d="M79.9,320.7c-.5,0-.9-.1-1.2-.4-.4-.2-.7-.6-.9-.9-.2-.4-.3-.8-.3-1.3s0-.7.2-1c.1-.3.3-.6.5-.8.2-.2.5-.4.8-.6.3-.1.6-.2,1-.2s.9.1,1.2.4.7.6.9.9.3.8.3,1.3,0,.7-.2,1c-.1.3-.3.6-.5.8-.2.2-.5.4-.8.6s-.6.2-1,.2ZM79.9,319.5c.2,0,.5,0,.7-.2.2-.1.3-.3.5-.5.1-.2.2-.4.2-.7s0-.5-.2-.7c-.1-.2-.3-.4-.5-.5-.2-.1-.4-.2-.6-.2s-.5,0-.6.2c-.2.1-.3.3-.5.5-.1.2-.2.4-.2.7s0,.5.2.7c.1.2.3.4.5.5.2.1.4.2.6.2Z"/>
      <path d="M84.6,320.7c-.3,0-.5,0-.7-.2-.2,0-.5-.2-.6-.4-.2-.2-.3-.3-.4-.5l1-.4c0,0,.1.1.2.2s.2.1.3.2c.1,0,.3,0,.4,0s.2,0,.4,0c.1,0,.2,0,.3-.2s.1-.2.1-.3,0-.2-.1-.3-.2-.1-.3-.2c-.1,0-.3,0-.4,0-.3,0-.6-.2-.9-.3-.3-.1-.5-.3-.7-.5s-.2-.5-.2-.8,0-.6.3-.8c.2-.2.4-.4.7-.6.3-.1.6-.2.9-.2s.8,0,1.1.2.6.4.8.7l-1,.6c0,0-.1-.2-.2-.2,0,0-.2-.1-.3-.2-.1,0-.2,0-.3,0-.1,0-.3,0-.4,0s-.2,0-.3.2c0,0-.1.2-.1.3s0,.2.1.3c0,0,.2.1.4.1.1,0,.3,0,.4.1.3,0,.6.2.8.4.3.1.5.3.6.5s.2.4.2.7c0,.3,0,.6-.3.8-.2.2-.4.4-.7.5s-.6.2-1,.1Z"/>
      <path d="M42.7,329.9c-.5,0-.9-.1-1.2-.4-.4-.2-.7-.6-.9-.9s-.3-.8-.3-1.3,0-.7.2-1c.1-.3.3-.6.5-.8.2-.2.5-.4.8-.6.3-.1.6-.2,1-.2s.7,0,1.1.2c.3.2.6.4.8.7.2.3.4.6.5,1s.1.7,0,1.1h-3.6c0,.2.1.4.2.5s.2.3.4.4c.2,0,.3.1.6.1.2,0,.4,0,.6-.2s.3-.2.4-.4l1.2.3c-.2.4-.5.8-.9,1.1-.4.3-.8.4-1.3.4ZM41.5,326.8h2.4c0-.2-.1-.4-.2-.5-.1-.2-.3-.3-.4-.4-.2,0-.4-.1-.6-.1s-.4,0-.6.1c-.2,0-.3.2-.4.4s-.2.3-.2.5Z"/>
      <path d="M49.7,322.3h1.2v7.5h-1.2v-.6c-.2.2-.4.4-.6.5s-.5.2-.8.2-.7,0-1-.2c-.3-.1-.6-.3-.8-.6s-.4-.5-.6-.8c-.1-.3-.2-.7-.2-1s0-.7.2-1c.1-.3.3-.6.6-.8s.5-.4.8-.6c.3-.1.7-.2,1-.2s.6,0,.8.2c.2.1.4.3.6.5v-3.1ZM48.3,328.7c.3,0,.5,0,.7-.2.2-.1.4-.3.5-.5.1-.2.2-.5.2-.7s0-.5-.2-.7c-.1-.2-.3-.4-.5-.5-.2-.1-.4-.2-.7-.2s-.5,0-.7.2c-.2.1-.4.3-.5.5-.1.2-.2.5-.2.7s0,.5.2.7c.1.2.3.4.5.5.2.1.4.2.7.2Z"/>
      <path d="M52.7,324.2c-.2,0-.3,0-.5-.2-.1-.1-.2-.3-.2-.4s0-.3.2-.4c.1-.1.3-.2.4-.2s.3,0,.4.2c.1.1.2.3.2.4s0,.3-.2.4-.3.2-.4.2ZM52.1,324.8h1.2v5h-1.2v-5Z"/>
      <path d="M57.2,326h-1v3.8h-1.2v-3.8h-.7v-1.2h.7v-1.6h1.2v1.6h1v1.2Z"/>
      <path d="M60.2,329.9c-.5,0-.9-.1-1.2-.4-.4-.2-.7-.6-.9-.9-.2-.4-.3-.8-.3-1.3s0-.7.2-1c.1-.3.3-.6.5-.8.2-.2.5-.4.8-.6.3-.1.6-.2,1-.2s.9.1,1.2.4.7.6.9.9.3.8.3,1.3,0,.7-.2,1c-.1.3-.3.6-.5.8-.2.2-.5.4-.8.6s-.6.2-1,.2ZM60.2,328.7c.2,0,.5,0,.7-.2.2-.1.3-.3.5-.5.1-.2.2-.4.2-.7s0-.5-.2-.7c-.1-.2-.3-.4-.5-.5-.2-.1-.4-.2-.6-.2s-.5,0-.6.2c-.2.1-.3.3-.5.5-.1.2-.2.4-.2.7s0,.5.2.7c.1.2.3.4.5.5.2.1.4.2.6.2Z"/>
      <path d="M63.4,329.8v-5s1.2,0,1.2,0v.4c.2-.2.4-.3.6-.4.2-.1.5-.2.8-.2s.4,0,.5,0l-.5,1.2c-.1,0-.3,0-.4,0-.2,0-.4,0-.5.1-.2,0-.3.2-.4.4,0,.2-.1.3-.1.5v2.8h-1.2Z"/>
      <path d="M67.7,324.2c-.2,0-.3,0-.5-.2-.1-.1-.2-.3-.2-.4s0-.3.2-.4c.1-.1.3-.2.4-.2s.3,0,.4.2c.1.1.2.3.2.4s0,.3-.2.4-.3.2-.4.2ZM67.1,324.8h1.2v5h-1.2v-5Z"/>
      <path d="M73.1,324.8h1.2v5h-1.2v-.6c-.2.2-.4.4-.6.5-.2.1-.5.2-.8.2s-.7,0-1-.2-.6-.3-.8-.6c-.2-.2-.4-.5-.6-.8-.1-.3-.2-.7-.2-1s0-.7.2-1c.1-.3.3-.6.5-.8s.5-.4.8-.6c.3-.1.6-.2,1-.2s.6,0,.9.2c.3.1.5.3.7.6v-.6ZM71.7,328.7c.3,0,.5,0,.7-.2.2-.1.4-.3.5-.5.1-.2.2-.5.2-.7s0-.5-.2-.7c-.1-.2-.3-.4-.5-.5-.2-.1-.4-.2-.7-.2s-.5,0-.7.2c-.2.1-.4.3-.5.5-.1.2-.2.5-.2.7s0,.5.2.7c.1.2.3.4.5.5.2.1.4.2.7.2Z"/>
      <path d="M75.4,329.8v-7.5h1.2v7.5h-1.2Z"/>
      <path d="M79.9,329.9c-.5,0-.9-.1-1.2-.4-.4-.2-.7-.6-.9-.9s-.3-.8-.3-1.3,0-.7.2-1c.1-.3.3-.6.5-.8.2-.2.5-.4.8-.6.3-.1.6-.2,1-.2s.7,0,1.1.2c.3.2.6.4.8.7.2.3.4.6.5,1s.1.7,0,1.1h-3.6c0,.2.1.4.2.5s.2.3.4.4c.2,0,.3.1.6.1.2,0,.4,0,.6-.2s.3-.2.4-.4l1.2.3c-.2.4-.5.8-.9,1.1-.4.3-.8.4-1.3.4ZM78.7,326.8h2.4c0-.2-.1-.4-.2-.5-.1-.2-.3-.3-.4-.4-.2,0-.4-.1-.6-.1s-.4,0-.6.1c-.2,0-.3.2-.4.4s-.2.3-.2.5Z"/>
      <path d="M84.6,329.9c-.3,0-.5,0-.7-.2-.2,0-.5-.2-.6-.4-.2-.2-.3-.3-.4-.5l1-.4c0,0,.1.1.2.2s.2.1.3.2c.1,0,.3,0,.4,0s.2,0,.4,0c.1,0,.2,0,.3-.2s.1-.2.1-.3,0-.2-.1-.3-.2-.1-.3-.2c-.1,0-.3,0-.4,0-.3,0-.6-.2-.9-.3-.3-.1-.5-.3-.7-.5s-.2-.5-.2-.8,0-.6.3-.8c.2-.2.4-.4.7-.6.3-.1.6-.2.9-.2s.8,0,1.1.2.6.4.8.7l-1,.6c0,0-.1-.2-.2-.2,0,0-.2-.1-.3-.2-.1,0-.2,0-.3,0-.1,0-.3,0-.4,0s-.2,0-.3.2c0,0-.1.2-.1.3s0,.2.1.3c0,0,.2.1.4.1.1,0,.3,0,.4.1.3,0,.6.2.8.4.3.1.5.3.6.5s.2.4.2.7c0,.3,0,.6-.3.8-.2.2-.4.4-.7.5s-.6.2-1,.1Z"/>
    </g>
    <g class="st4">
      <rect class="st11" x="244.9" y="243.9" width="8.6" height="296.4" transform="translate(-157.4 616.8) rotate(-86.5)"/>
    </g>
    <g>
      <g class="st2">
        <rect class="st11" x="133.9" y="493" width="286.7" height="7.1" transform="translate(-44.5 27.6) rotate(-5.3)"/>
      </g>
      <rect class="st13" x="239.5" y="316.6" width="65.1" height="290.5" transform="translate(706.9 148.5) rotate(84.7)"/>
      <text class="st8" transform="translate(165.6 480.5) rotate(-5.3)"><tspan x="0" y="0">ACTUALIZACIÓN</tspan></text>
    </g>
    <path class="st12" d="M305.1,578.2c8.7,0,17.3,0,26,0,3.2-4.7,6.4-9.4,9.6-14.1"/>
    <g>
      <path d="M25.6,429.4v-7h2.3c.5,0,.9,0,1.4.3.4.2.8.4,1.1.8.3.3.6.7.7,1.1s.3.9.3,1.3,0,.9-.3,1.3-.4.8-.7,1.1c-.3.3-.7.6-1.1.8-.4.2-.9.3-1.4.3h-2.3ZM26.4,428.6h1.5c.4,0,.7,0,1-.2.3-.1.6-.3.8-.6s.4-.5.6-.8c.1-.3.2-.7.2-1s0-.7-.2-1c-.1-.3-.3-.6-.6-.8-.2-.2-.5-.4-.8-.6-.3-.1-.7-.2-1-.2h-1.5v5.3Z"/>
      <path d="M32.6,423.7c-.1,0-.2,0-.3-.1,0,0-.1-.2-.1-.3s0-.2.1-.3c0,0,.2-.1.3-.1s.2,0,.3.1c0,0,.1.2.1.3s0,.2-.1.3c0,0-.2.1-.3.1ZM32.2,424.5h.8v5h-.8v-5Z"/>
      <path d="M35.7,429.5c-.3,0-.5,0-.8-.2-.3,0-.5-.2-.7-.4s-.3-.3-.4-.5l.7-.3c0,.1.1.2.3.3.1,0,.3.2.4.2s.3,0,.5,0,.4,0,.5,0c.2,0,.3-.1.4-.3s.2-.2.2-.4,0-.3-.2-.4c-.1,0-.3-.2-.4-.2-.2,0-.3-.1-.5-.2-.3,0-.6-.2-.9-.3-.3-.1-.5-.3-.6-.5s-.2-.4-.2-.7,0-.6.3-.8.4-.4.7-.5c.3-.1.6-.2.9-.2s.8,0,1.1.3c.3.2.6.4.7.7l-.7.4c0-.1-.1-.2-.3-.3-.1,0-.2-.2-.4-.2-.1,0-.3,0-.5,0-.2,0-.4,0-.5,0-.2,0-.3.1-.4.3s-.2.3-.2.4,0,.3.2.4.2.2.4.2.4.1.6.2c.3,0,.6.2.8.3s.5.3.6.5c.2.2.2.4.2.7,0,.3,0,.6-.3.8-.2.2-.4.4-.7.5-.3.1-.6.2-.9.2Z"/>
      <path d="M39.6,423.2v1.2h1.5v.8h-1.5v4.1h-.8v-4.1h-.6v-.8h.6v-1.2c0-.3,0-.5.2-.7.1-.2.3-.4.5-.5s.4-.2.7-.2.4,0,.5.1c.2,0,.3.2.5.3l-.6.6c0,0-.1-.1-.2-.1,0,0-.2,0-.2,0-.1,0-.3,0-.4.2-.1.1-.2.2-.2.4Z"/>
      <path d="M42,429.4v-5h.8v.6c.2-.2.4-.4.7-.6.3-.1.6-.2.9-.2s.4,0,.6,0l-.3.8c-.1,0-.3,0-.4,0-.2,0-.5,0-.7.2-.2.1-.4.3-.5.5-.1.2-.2.4-.2.7v2.9h-.8Z"/>
      <path d="M45.3,427.6v-3.1h.8v2.9c0,.3,0,.5.2.7.1.2.3.4.5.5.2.1.4.2.7.2s.5,0,.7-.2c.2-.1.4-.3.5-.5.1-.2.2-.4.2-.7v-2.9h.8v5s-.8,0-.8,0v-.6c-.2.2-.4.4-.7.6-.3.1-.6.2-.9.2s-.7,0-1-.3c-.3-.2-.5-.4-.7-.7-.2-.3-.3-.6-.3-1Z"/>
      <path d="M53.2,425.3h-1.1v4.1h-.8v-4.1s-.8,0-.8,0v-.8h.9v-1.6s.8,0,.8,0v1.6h1.1v.8Z"/>
      <path d="M58,424.5h.8v5h-.8v-.8c-.2.3-.4.5-.7.7-.3.2-.6.3-1,.3s-.7,0-1-.2c-.3-.1-.6-.3-.8-.6s-.4-.5-.6-.8c-.1-.3-.2-.7-.2-1s0-.7.2-1c.1-.3.3-.6.6-.8s.5-.4.8-.6c.3-.1.6-.2,1-.2s.7,0,1,.3c.3.2.5.4.7.7v-.8ZM56.3,428.8c.3,0,.6,0,.9-.2.2-.2.4-.4.6-.7s.2-.6.2-.9,0-.6-.2-.9c-.1-.3-.3-.5-.6-.7-.2-.2-.5-.2-.8-.2s-.6,0-.9.2c-.3.2-.5.4-.6.7-.2.3-.2.6-.2.9s0,.6.2.9c.2.3.4.5.6.7.3.2.6.2.9.2Z"/>
      <path d="M66.2,422h.8v7.5h-.8v-.8c-.2.3-.4.5-.7.7-.3.2-.6.3-1,.3s-.7,0-1-.2c-.3-.1-.6-.3-.8-.6s-.4-.5-.6-.8c-.1-.3-.2-.7-.2-1s0-.7.2-1c.1-.3.3-.6.6-.8.2-.2.5-.4.8-.6.3-.1.7-.2,1-.2s.7,0,1,.3c.3.2.5.4.7.7v-3.3ZM64.5,428.8c.3,0,.6,0,.9-.2.2-.2.4-.4.6-.7s.2-.6.2-.9,0-.6-.2-.9c-.1-.3-.3-.5-.6-.7-.2-.2-.5-.2-.8-.2s-.6,0-.9.2c-.3.2-.5.4-.6.7-.2.3-.2.6-.2.9s0,.6.2.9c.2.3.4.5.6.7.3.2.6.2.9.2Z"/>
      <path d="M70.4,429.6c-.5,0-.9-.1-1.2-.4-.4-.2-.7-.6-.9-.9-.2-.4-.3-.8-.3-1.3s0-.7.2-1c.1-.3.3-.6.5-.8.2-.2.5-.4.8-.6.3-.1.6-.2,1-.2s.7,0,1,.2c.3.2.6.4.8.6.2.3.4.6.5.9s.2.7.1,1.1h-4.1c0,.3.1.5.3.8.1.2.3.4.6.5.2.1.5.2.8.2.3,0,.6,0,.8-.2.2-.2.4-.4.6-.6l.8.2c-.2.4-.5.8-.9,1.1-.4.3-.8.4-1.3.4ZM68.7,426.6h3.2c0-.3-.1-.5-.3-.8-.2-.2-.3-.4-.6-.6s-.5-.2-.8-.2-.5,0-.8.2c-.2.1-.4.3-.6.5-.2.2-.2.5-.3.8Z"/>
      <path d="M76.1,429.4v-7.5h.8v7.5h-.8Z"/>
      <path d="M80.3,429.6c-.5,0-.9-.1-1.2-.4-.4-.2-.7-.6-.9-.9-.2-.4-.3-.8-.3-1.3s0-.7.2-1c.1-.3.3-.6.5-.8.2-.2.5-.4.8-.6.3-.1.6-.2,1-.2s.9.1,1.2.4.7.6.9.9.3.8.3,1.3,0,.7-.2,1c-.1.3-.3.6-.5.8-.2.2-.5.4-.8.6s-.6.2-1,.2ZM80.3,428.7c.3,0,.6,0,.8-.2.2-.2.4-.4.6-.7s.2-.6.2-.9,0-.6-.2-.9-.3-.5-.6-.7c-.2-.2-.5-.2-.8-.2s-.6,0-.8.2c-.2.2-.4.4-.6.7-.1.3-.2.6-.2.9s0,.6.2.9c.1.3.3.5.6.6.3.2.5.2.8.2Z"/>
      <path d="M85.1,429.5c-.3,0-.5,0-.8-.2-.3,0-.5-.2-.7-.4s-.3-.3-.4-.5l.7-.3c0,.1.1.2.3.3.1,0,.3.2.4.2s.3,0,.5,0,.4,0,.5,0c.2,0,.3-.1.4-.3s.2-.2.2-.4,0-.3-.2-.4c-.1,0-.3-.2-.4-.2-.2,0-.3-.1-.5-.2-.3,0-.6-.2-.9-.3-.3-.1-.5-.3-.6-.5s-.2-.4-.2-.7,0-.6.3-.8.4-.4.7-.5c.3-.1.6-.2.9-.2s.8,0,1.1.3c.3.2.6.4.7.7l-.7.4c0-.1-.1-.2-.3-.3-.1,0-.2-.2-.4-.2-.1,0-.3,0-.5,0-.2,0-.4,0-.5,0-.2,0-.3.1-.4.3s-.2.3-.2.4,0,.3.2.4.2.2.4.2.4.1.6.2c.3,0,.6.2.8.3s.5.3.6.5c.2.2.2.4.2.7,0,.3,0,.6-.3.8-.2.2-.4.4-.7.5-.3.1-.6.2-.9.2Z"/>
      <path d="M16.2,433.5c.5,0,.9.1,1.3.4s.7.6.9.9c.2.4.4.8.4,1.3s0,.7-.2,1c-.1.3-.3.6-.6.8-.2.2-.5.4-.8.6-.3.1-.7.2-1,.2s-.6,0-.8-.2-.4-.3-.6-.5v.6h-1.2v-7.5h1.2v3.1c.2-.2.4-.4.6-.5s.5-.2.8-.2ZM16.2,437.6c.3,0,.5,0,.7-.2s.4-.3.5-.5c.1-.2.2-.5.2-.7s0-.5-.2-.7c-.1-.2-.3-.4-.5-.5-.2-.1-.4-.2-.7-.2s-.5,0-.7.2-.4.3-.5.5c-.1.2-.2.5-.2.7s0,.5.2.7c.1.2.3.4.5.5.2.1.4.2.7.2Z"/>
      <path d="M21.8,438.7c-.5,0-.9-.1-1.2-.4-.4-.2-.7-.6-.9-.9-.2-.4-.3-.8-.3-1.3s0-.7.2-1c.1-.3.3-.6.5-.8.2-.2.5-.4.8-.6.3-.1.6-.2,1-.2s.7,0,1.1.2c.3.2.6.4.8.7s.4.6.5,1,.1.7,0,1.1h-3.6c0,.2.1.4.2.5s.2.3.4.4.3.1.6.1c.2,0,.4,0,.6-.2s.3-.2.4-.4l1.2.3c-.2.4-.5.8-.9,1.1-.4.3-.8.4-1.3.4ZM20.6,435.6h2.4c0-.2-.1-.4-.2-.5-.1-.2-.3-.3-.4-.4-.2,0-.4-.1-.6-.1s-.4,0-.6.1c-.2,0-.3.2-.4.4-.1.2-.2.3-.2.5Z"/>
      <path d="M29.6,435.5v3.1h-1.2v-2.8c0-.2,0-.4-.1-.5,0-.2-.2-.3-.4-.4-.2,0-.3-.1-.5-.1s-.4,0-.5.1c-.2,0-.3.2-.4.4,0,.2-.1.3-.1.5v2.8h-1.2v-5s1.2,0,1.2,0v.4c.2-.2.4-.3.6-.4.2-.1.5-.2.8-.2s.7,0,1,.3c.3.2.5.4.7.7.2.3.3.6.3,1Z"/>
      <path d="M32.7,438.7c-.5,0-.9-.1-1.2-.4-.4-.2-.7-.6-.9-.9-.2-.4-.3-.8-.3-1.3s0-.7.2-1c.1-.3.3-.6.5-.8.2-.2.5-.4.8-.6.3-.1.6-.2,1-.2s.7,0,1.1.2c.3.2.6.4.8.7s.4.6.5,1,.1.7,0,1.1h-3.6c0,.2.1.4.2.5s.2.3.4.4.3.1.6.1c.2,0,.4,0,.6-.2s.3-.2.4-.4l1.2.3c-.2.4-.5.8-.9,1.1-.4.3-.8.4-1.3.4ZM31.5,435.6h2.4c0-.2-.1-.4-.2-.5-.1-.2-.3-.3-.4-.4-.2,0-.4-.1-.6-.1s-.4,0-.6.1c-.2,0-.3.2-.4.4-.1.2-.2.3-.2.5Z"/>
      <path d="M37.5,432.6v1h1.4v1.2h-1.4v3.8h-1.2v-3.8h-.5v-1.2h.5v-1c0-.3,0-.5.2-.8.1-.2.3-.4.6-.6s.5-.2.8-.2.4,0,.6.1c.2,0,.4.2.5.4l-.9.9c0,0,0,0-.1-.1s-.1,0-.2,0c0,0-.2,0-.3.1,0,0-.1.2-.1.2Z"/>
      <path d="M40.2,433c-.2,0-.3,0-.5-.2-.1-.1-.2-.3-.2-.4s0-.3.2-.4c.1-.1.3-.2.4-.2s.3,0,.4.2c.1.1.2.3.2.4s0,.3-.2.4c-.1.1-.3.2-.4.2ZM39.6,433.6h1.2v5h-1.2v-5Z"/>
      <path d="M45,437.1l1.1.6c-.2.3-.5.6-.9.8-.3.2-.7.3-1.1.3s-.9-.1-1.2-.4c-.4-.2-.7-.6-.9-.9s-.3-.8-.3-1.3,0-.7.2-1c.1-.3.3-.6.5-.8.2-.2.5-.4.8-.6.3-.1.6-.2,1-.2s.8,0,1.1.3c.3.2.6.4.9.8l-1.1.6c-.1-.1-.3-.2-.4-.3s-.3-.1-.5-.1c-.2,0-.5,0-.6.2-.2.1-.3.3-.5.5-.1.2-.2.4-.2.7s0,.5.2.7c.1.2.3.4.5.5.2.1.4.2.6.2s.3,0,.5-.1c.2,0,.3-.2.4-.3Z"/>
      <path d="M47.4,433c-.2,0-.3,0-.5-.2-.1-.1-.2-.3-.2-.4s0-.3.2-.4c.1-.1.3-.2.4-.2s.3,0,.4.2c.1.1.2.3.2.4s0,.3-.2.4c-.1.1-.3.2-.4.2ZM46.8,433.6h1.2v5h-1.2v-5Z"/>
      <path d="M51.3,438.7c-.5,0-.9-.1-1.2-.4-.4-.2-.7-.6-.9-.9s-.3-.8-.3-1.3,0-.7.2-1c.1-.3.3-.6.5-.8.2-.2.5-.4.8-.6.3-.1.6-.2,1-.2s.9.1,1.2.4.7.6.9.9c.2.4.3.8.3,1.3s0,.7-.2,1c-.1.3-.3.6-.5.8-.2.2-.5.4-.8.6s-.6.2-1,.2ZM51.3,437.5c.2,0,.5,0,.7-.2.2-.1.3-.3.5-.5.1-.2.2-.4.2-.7s0-.5-.2-.7c-.1-.2-.3-.4-.5-.5-.2-.1-.4-.2-.6-.2s-.5,0-.6.2c-.2.1-.3.3-.5.5-.1.2-.2.4-.2.7s0,.5.2.7c.1.2.3.4.5.5s.4.2.6.2Z"/>
      <path d="M56,438.7c-.3,0-.5,0-.7-.2-.2,0-.5-.2-.6-.4-.2-.2-.3-.3-.4-.5l1-.4c0,0,.1.1.2.2,0,0,.2.1.3.2.1,0,.3,0,.4,0s.2,0,.4,0c.1,0,.2,0,.3-.2s.1-.2.1-.3,0-.2-.1-.3c0,0-.2-.1-.3-.2-.1,0-.3,0-.4,0-.3,0-.6-.2-.9-.3-.3-.1-.5-.3-.7-.5s-.2-.5-.2-.8,0-.6.3-.8c.2-.2.4-.4.7-.6.3-.1.6-.2.9-.2s.8,0,1.1.2.6.4.8.7l-1,.6c0,0-.1-.2-.2-.2,0,0-.2-.1-.3-.2s-.2,0-.3,0c-.1,0-.3,0-.4,0s-.2,0-.3.2c0,0-.1.2-.1.3s0,.2.1.3c0,0,.2.1.4.1.1,0,.3,0,.4.1.3,0,.6.2.8.4.3.1.5.3.6.5s.2.4.2.7c0,.3,0,.6-.3.8-.2.2-.4.4-.7.5s-.6.2-1,.1Z"/>
      <path d="M65,431.2h1.2v7.5h-1.2v-.6c-.2.2-.4.4-.6.5-.2.1-.5.2-.8.2s-.7,0-1-.2c-.3-.1-.6-.3-.8-.6-.2-.2-.4-.5-.6-.8-.1-.3-.2-.7-.2-1s0-.7.2-1c.1-.3.3-.6.6-.8s.5-.4.8-.6c.3-.1.7-.2,1-.2s.6,0,.8.2.4.3.6.5v-3.1ZM63.6,437.6c.3,0,.5,0,.7-.2.2-.1.4-.3.5-.5.1-.2.2-.5.2-.7s0-.5-.2-.7c-.1-.2-.3-.4-.5-.5-.2-.1-.4-.2-.7-.2s-.5,0-.7.2c-.2.1-.4.3-.5.5-.1.2-.2.5-.2.7s0,.5.2.7c.1.2.3.4.5.5.2.1.4.2.7.2Z"/>
      <path d="M69.5,438.7c-.5,0-.9-.1-1.2-.4-.4-.2-.7-.6-.9-.9-.2-.4-.3-.8-.3-1.3s0-.7.2-1c.1-.3.3-.6.5-.8.2-.2.5-.4.8-.6.3-.1.6-.2,1-.2s.7,0,1.1.2c.3.2.6.4.8.7s.4.6.5,1,.1.7,0,1.1h-3.6c0,.2.1.4.2.5s.2.3.4.4.3.1.6.1c.2,0,.4,0,.6-.2s.3-.2.4-.4l1.2.3c-.2.4-.5.8-.9,1.1-.4.3-.8.4-1.3.4ZM68.3,435.6h2.4c0-.2-.1-.4-.2-.5-.1-.2-.3-.3-.4-.4-.2,0-.4-.1-.6-.1s-.4,0-.6.1c-.2,0-.3.2-.4.4-.1.2-.2.3-.2.5Z"/>
      <path d="M75.3,438.6v-7.5h1.2v7.5h-1.2Z"/>
      <path d="M81.4,433.6h1.2v5h-1.2v-.6c-.2.2-.4.4-.6.5s-.5.2-.8.2-.7,0-1-.2c-.3-.1-.6-.3-.8-.6-.2-.2-.4-.5-.6-.8-.1-.3-.2-.7-.2-1s0-.7.2-1,.3-.6.5-.8c.2-.2.5-.4.8-.6.3-.1.6-.2,1-.2s.6,0,.9.2c.3.1.5.3.7.6v-.6ZM80,437.6c.3,0,.5,0,.7-.2.2-.1.4-.3.5-.5.1-.2.2-.5.2-.7s0-.5-.2-.7c-.1-.2-.3-.4-.5-.5-.2-.1-.4-.2-.7-.2s-.5,0-.7.2c-.2.1-.4.3-.5.5-.1.2-.2.5-.2.7s0,.5.2.7c.1.2.3.4.5.5.2.1.4.2.7.2Z"/>
      <path d="M85.1,438.7c-.3,0-.5,0-.7-.2-.2,0-.5-.2-.6-.4-.2-.2-.3-.3-.4-.5l1-.4c0,0,.1.1.2.2,0,0,.2.1.3.2.1,0,.3,0,.4,0s.2,0,.4,0c.1,0,.2,0,.3-.2s.1-.2.1-.3,0-.2-.1-.3c0,0-.2-.1-.3-.2-.1,0-.3,0-.4,0-.3,0-.6-.2-.9-.3-.3-.1-.5-.3-.7-.5s-.2-.5-.2-.8,0-.6.3-.8c.2-.2.4-.4.7-.6.3-.1.6-.2.9-.2s.8,0,1.1.2.6.4.8.7l-1,.6c0,0-.1-.2-.2-.2,0,0-.2-.1-.3-.2s-.2,0-.3,0c-.1,0-.3,0-.4,0s-.2,0-.3.2c0,0-.1.2-.1.3s0,.2.1.3c0,0,.2.1.4.1.1,0,.3,0,.4.1.3,0,.6.2.8.4.3.1.5.3.6.5s.2.4.2.7c0,.3,0,.6-.3.8-.2.2-.4.4-.7.5s-.6.2-1,.1Z"/>
      <path d="M16.6,444.6v3.1h-1.2v-2.8c0-.2,0-.4-.1-.5,0-.2-.2-.3-.4-.4-.2,0-.3-.1-.5-.1s-.4,0-.5.1c-.2,0-.3.2-.4.4,0,.2-.1.3-.1.5v2.8h-1.2v-5s1.2,0,1.2,0v.4c.2-.2.4-.3.6-.4.2-.1.5-.2.8-.2s.7,0,1,.3c.3.2.5.4.7.7.2.3.3.6.3,1Z"/>
      <path d="M17.4,445.9v-3.1h1.2v2.8c0,.2,0,.4.1.5,0,.2.2.3.4.4.2,0,.3.1.5.1s.4,0,.5-.1c.2,0,.3-.2.4-.4,0-.2.1-.3.1-.5v-2.8h1.2v5s-1.2,0-1.2,0v-.5c-.2.2-.4.3-.6.4-.2.1-.5.2-.8.2s-.7,0-1-.3-.5-.4-.7-.7c-.2-.3-.3-.6-.3-1Z"/>
      <path d="M25.1,447.9c-.5,0-.9-.1-1.2-.4-.4-.2-.7-.6-.9-.9-.2-.4-.3-.8-.3-1.3s0-.7.2-1c.1-.3.3-.6.5-.8.2-.2.5-.4.8-.6.3-.1.6-.2,1-.2s.7,0,1.1.2c.3.2.6.4.8.7s.4.6.5,1,.1.7,0,1.1h-3.6c0,.2.1.4.2.5s.2.3.4.4.3.1.6.1c.2,0,.4,0,.6-.2s.3-.2.4-.4l1.2.3c-.2.4-.5.8-.9,1.1-.4.3-.8.4-1.3.4ZM23.9,444.8h2.4c0-.2-.1-.4-.2-.5-.1-.2-.3-.3-.4-.4-.2,0-.4-.1-.6-.1s-.4,0-.6.1c-.2,0-.3.2-.4.4-.1.2-.2.3-.2.5Z"/>
      <path d="M31.2,447.8h-1.6l-1.8-5h1.3l1.3,3.6,1.3-3.6h1.3l-1.8,5Z"/>
      <path d="M37.3,442.8h1.2v5h-1.2v-.6c-.2.2-.4.4-.6.5s-.5.2-.8.2-.7,0-1-.2c-.3-.1-.6-.3-.8-.6-.2-.2-.4-.5-.6-.8-.1-.3-.2-.7-.2-1s0-.7.2-1,.3-.6.5-.8c.2-.2.5-.4.8-.6.3-.1.6-.2,1-.2s.6,0,.9.2c.3.1.5.3.7.6v-.6ZM35.9,446.7c.3,0,.5,0,.7-.2.2-.1.4-.3.5-.5.1-.2.2-.5.2-.7s0-.5-.2-.7c-.1-.2-.3-.4-.5-.5-.2-.1-.4-.2-.7-.2s-.5,0-.7.2c-.2.1-.4.3-.5.5-.1.2-.2.5-.2.7s0,.5.2.7c.1.2.3.4.5.5.2.1.4.2.7.2Z"/>
      <path d="M40.9,447.9c-.3,0-.5,0-.7-.2-.2,0-.5-.2-.6-.4-.2-.2-.3-.3-.4-.5l1-.4c0,0,.1.1.2.2,0,0,.2.1.3.2.1,0,.3,0,.4,0s.2,0,.4,0c.1,0,.2,0,.3-.2s.1-.2.1-.3,0-.2-.1-.3c0,0-.2-.1-.3-.2-.1,0-.3,0-.4,0-.3,0-.6-.2-.9-.3-.3-.1-.5-.3-.7-.5s-.2-.5-.2-.8,0-.6.3-.8c.2-.2.4-.4.7-.6.3-.1.6-.2.9-.2s.8,0,1.1.2.6.4.8.7l-1,.6c0,0-.1-.2-.2-.2,0,0-.2-.1-.3-.2s-.2,0-.3,0c-.1,0-.3,0-.4,0s-.2,0-.3.2c0,0-.1.2-.1.3s0,.2.1.3c0,0,.2.1.4.1.1,0,.3,0,.4.1.3,0,.6.2.8.4.3.1.5.3.6.5s.2.4.2.7c0,.3,0,.6-.3.8-.2.2-.4.4-.7.5s-.6.2-1,.1Z"/>
      <path d="M49.3,447.8h-1.6l-1.8-5h1.3l1.3,3.6,1.3-3.6h1.3l-1.8,5Z"/>
      <path d="M53.8,447.9c-.5,0-.9-.1-1.2-.4-.4-.2-.7-.6-.9-.9-.2-.4-.3-.8-.3-1.3s0-.7.2-1c.1-.3.3-.6.5-.8.2-.2.5-.4.8-.6.3-.1.6-.2,1-.2s.7,0,1.1.2c.3.2.6.4.8.7s.4.6.5,1,.1.7,0,1.1h-3.6c0,.2.1.4.2.5s.2.3.4.4.3.1.6.1c.2,0,.4,0,.6-.2s.3-.2.4-.4l1.2.3c-.2.4-.5.8-.9,1.1-.4.3-.8.4-1.3.4ZM52.6,444.8h2.4c0-.2-.1-.4-.2-.5-.1-.2-.3-.3-.4-.4-.2,0-.4-.1-.6-.1s-.4,0-.6.1c-.2,0-.3.2-.4.4-.1.2-.2.3-.2.5Z"/>
      <path d="M57.1,447.8v-5s1.2,0,1.2,0v.4c.2-.2.4-.3.6-.4.2-.1.5-.2.8-.2s.4,0,.5,0l-.5,1.2c-.1,0-.3,0-.4,0-.2,0-.4,0-.5.1-.2,0-.3.2-.4.4,0,.2-.1.3-.1.5v2.8h-1.2Z"/>
      <path d="M62.2,447.9c-.3,0-.5,0-.7-.2-.2,0-.5-.2-.6-.4-.2-.2-.3-.3-.4-.5l1-.4c0,0,.1.1.2.2,0,0,.2.1.3.2.1,0,.3,0,.4,0s.2,0,.4,0c.1,0,.2,0,.3-.2s.1-.2.1-.3,0-.2-.1-.3c0,0-.2-.1-.3-.2-.1,0-.3,0-.4,0-.3,0-.6-.2-.9-.3-.3-.1-.5-.3-.7-.5s-.2-.5-.2-.8,0-.6.3-.8c.2-.2.4-.4.7-.6.3-.1.6-.2.9-.2s.8,0,1.1.2.6.4.8.7l-1,.6c0,0-.1-.2-.2-.2,0,0-.2-.1-.3-.2s-.2,0-.3,0c-.1,0-.3,0-.4,0s-.2,0-.3.2c0,0-.1.2-.1.3s0,.2.1.3c0,0,.2.1.4.1.1,0,.3,0,.4.1.3,0,.6.2.8.4.3.1.5.3.6.5s.2.4.2.7c0,.3,0,.6-.3.8-.2.2-.4.4-.7.5s-.6.2-1,.1Z"/>
      <path d="M65.5,442.2c-.2,0-.3,0-.5-.2-.1-.1-.2-.3-.2-.4s0-.3.2-.4c.1-.1.3-.2.4-.2s.3,0,.4.2c.1.1.2.3.2.4s0,.3-.2.4c-.1.1-.3.2-.4.2ZM64.9,442.8h1.2v5h-1.2v-5Z"/>
      <path d="M69.4,447.9c-.5,0-.9-.1-1.2-.4-.4-.2-.7-.6-.9-.9s-.3-.8-.3-1.3,0-.7.2-1c.1-.3.3-.6.5-.8.2-.2.5-.4.8-.6.3-.1.6-.2,1-.2s.9.1,1.2.4.7.6.9.9c.2.4.3.8.3,1.3s0,.7-.2,1c-.1.3-.3.6-.5.8-.2.2-.5.4-.8.6s-.6.2-1,.2ZM69.4,446.7c.2,0,.5,0,.7-.2.2-.1.3-.3.5-.5.1-.2.2-.4.2-.7s0-.5-.2-.7c-.1-.2-.3-.4-.5-.5-.2-.1-.4-.2-.6-.2s-.5,0-.6.2c-.2.1-.3.3-.5.5-.1.2-.2.4-.2.7s0,.5.2.7c.1.2.3.4.5.5s.4.2.6.2Z"/>
      <path d="M77.2,444.6v3.1h-1.2v-2.8c0-.2,0-.4-.1-.5,0-.2-.2-.3-.4-.4-.2,0-.3-.1-.5-.1s-.4,0-.5.1c-.2,0-.3.2-.4.4,0,.2-.1.3-.1.5v2.8h-1.2v-5s1.2,0,1.2,0v.4c.2-.2.4-.3.6-.4.2-.1.5-.2.8-.2s.7,0,1,.3c.3.2.5.4.7.7.2.3.3.6.3,1Z"/>
      <path d="M80.3,447.9c-.5,0-.9-.1-1.2-.4-.4-.2-.7-.6-.9-.9-.2-.4-.3-.8-.3-1.3s0-.7.2-1c.1-.3.3-.6.5-.8.2-.2.5-.4.8-.6.3-.1.6-.2,1-.2s.7,0,1.1.2c.3.2.6.4.8.7s.4.6.5,1,.1.7,0,1.1h-3.6c0,.2.1.4.2.5s.2.3.4.4.3.1.6.1c.2,0,.4,0,.6-.2s.3-.2.4-.4l1.2.3c-.2.4-.5.8-.9,1.1-.4.3-.8.4-1.3.4ZM79.1,444.8h2.4c0-.2-.1-.4-.2-.5-.1-.2-.3-.3-.4-.4-.2,0-.4-.1-.6-.1s-.4,0-.6.1c-.2,0-.3.2-.4.4-.1.2-.2.3-.2.5Z"/>
      <path d="M85.1,447.9c-.3,0-.5,0-.7-.2-.2,0-.5-.2-.6-.4-.2-.2-.3-.3-.4-.5l1-.4c0,0,.1.1.2.2,0,0,.2.1.3.2.1,0,.3,0,.4,0s.2,0,.4,0c.1,0,.2,0,.3-.2s.1-.2.1-.3,0-.2-.1-.3c0,0-.2-.1-.3-.2-.1,0-.3,0-.4,0-.3,0-.6-.2-.9-.3-.3-.1-.5-.3-.7-.5s-.2-.5-.2-.8,0-.6.3-.8c.2-.2.4-.4.7-.6.3-.1.6-.2.9-.2s.8,0,1.1.2.6.4.8.7l-1,.6c0,0-.1-.2-.2-.2,0,0-.2-.1-.3-.2s-.2,0-.3,0c-.1,0-.3,0-.4,0s-.2,0-.3.2c0,0-.1.2-.1.3s0,.2.1.3c0,0,.2.1.4.1.1,0,.3,0,.4.1.3,0,.6.2.8.4.3.1.5.3.6.5s.2.4.2.7c0,.3,0,.6-.3.8-.2.2-.4.4-.7.5s-.6.2-1,.1Z"/>
      <path d="M29.1,449.5h.8v7.5h-.8v-.8c-.2.3-.4.5-.7.7-.3.2-.6.3-1,.3s-.7,0-1-.2c-.3-.1-.6-.3-.8-.6-.2-.2-.4-.5-.6-.8-.1-.3-.2-.7-.2-1s0-.7.2-1c.1-.3.3-.6.6-.8s.5-.4.8-.6c.3-.1.7-.2,1-.2s.7,0,1,.3c.3.2.5.4.7.7v-3.3ZM27.4,456.3c.3,0,.6,0,.9-.2.2-.2.4-.4.6-.7.1-.3.2-.6.2-.9s0-.6-.2-.9-.3-.5-.6-.7c-.2-.2-.5-.2-.8-.2s-.6,0-.9.2-.5.4-.6.7c-.2.3-.2.6-.2.9s0,.6.2.9c.2.3.4.5.6.7.3.2.6.2.9.2Z"/>
      <path d="M33.2,457.1c-.5,0-.9-.1-1.2-.4-.4-.2-.7-.6-.9-.9s-.3-.8-.3-1.3,0-.7.2-1c.1-.3.3-.6.5-.8.2-.2.5-.4.8-.6.3-.1.6-.2,1-.2s.7,0,1,.2c.3.2.6.4.8.6.2.3.4.6.5.9s.2.7.1,1.1h-4.1c0,.3.1.5.3.8.1.2.3.4.6.5.2.1.5.2.8.2.3,0,.6,0,.8-.2s.4-.4.6-.6l.8.2c-.2.4-.5.8-.9,1.1-.4.3-.8.4-1.3.4ZM31.6,454.1h3.2c0-.3-.1-.5-.3-.8-.2-.2-.3-.4-.6-.6-.2-.1-.5-.2-.8-.2s-.5,0-.8.2c-.2.1-.4.3-.6.5-.2.2-.2.5-.3.8Z"/>
      <path d="M42.2,457.1c-.5,0-.9,0-1.3-.3-.4-.2-.8-.4-1.1-.8s-.6-.7-.7-1.2c-.2-.4-.3-.9-.3-1.4s0-1,.3-1.4c.2-.4.4-.8.7-1.1s.7-.6,1.1-.8c.4-.2.9-.3,1.3-.3s.9,0,1.3.3c.4.2.8.4,1.1.8.3.3.6.7.7,1.1s.3.9.3,1.4,0,1-.3,1.4-.4.8-.7,1.2c-.3.3-.7.6-1.1.8-.4.2-.9.3-1.3.3ZM42.2,456.2c.4,0,.7,0,1-.2s.6-.3.8-.6.4-.6.6-.9c.1-.3.2-.7.2-1.1s0-.7-.2-1.1-.3-.6-.6-.9c-.2-.3-.5-.5-.8-.6-.3-.1-.6-.2-1-.2s-.7,0-1,.2c-.3.1-.6.3-.8.6-.2.3-.4.6-.6.9s-.2.7-.2,1.1,0,.7.2,1.1c.1.3.3.6.6.9.2.3.5.5.8.6.3.1.6.2,1,.2Z"/>
      <path d="M47.1,457.1c-.2,0-.5,0-.7-.1-.2,0-.4-.2-.6-.4l.5-.6c0,0,.2.1.3.2.1,0,.3,0,.4,0,.2,0,.4,0,.6-.2.2-.1.3-.3.4-.5.1-.2.2-.4.2-.6v-5h.8v5c0,.4,0,.7-.3,1-.2.3-.4.6-.7.8-.3.2-.6.3-1,.3Z"/>
      <path d="M52.7,457.1c-.4,0-.7,0-1.1-.2-.3-.1-.7-.3-.9-.5-.3-.2-.4-.5-.6-.8l.8-.3c0,.2.2.3.4.5.2.1.4.2.6.3s.5.1.8.1.6,0,.8-.1c.3,0,.5-.2.6-.4.2-.2.2-.4.2-.6s0-.4-.2-.6c-.2-.2-.4-.3-.6-.4s-.5-.2-.8-.2c-.5,0-.9-.2-1.3-.3-.4-.1-.7-.4-.9-.6s-.3-.6-.3-1,.1-.8.4-1.1c.2-.3.5-.5.9-.7s.8-.2,1.2-.2.7,0,1.1.2c.3.1.7.3.9.5.3.2.5.5.6.8l-.8.3c0-.2-.2-.4-.4-.5-.2-.1-.4-.2-.6-.3-.2,0-.5-.1-.8-.1-.3,0-.6,0-.8.1-.3,0-.5.2-.6.4-.2.2-.2.4-.2.6s0,.5.2.6.3.3.6.3c.3,0,.5.1.9.2.5,0,.9.2,1.3.4s.7.4.9.7c.2.3.4.6.4,1s-.1.8-.4,1.1c-.2.3-.5.5-.9.7-.4.2-.8.2-1.3.2Z"/>
      <path d="M62.2,452h.9l-2.7,7.5h-.9l.9-2.5-1.8-5h.9l1.3,3.8,1.4-3.8Z"/>
      <path d="M69.6,457.1c-.5,0-.9,0-1.3-.3-.4-.2-.8-.4-1.1-.8s-.6-.7-.7-1.2c-.2-.4-.3-.9-.3-1.4s0-1,.3-1.4c.2-.4.4-.8.7-1.1s.7-.6,1.1-.8c.4-.2.9-.3,1.3-.3s.9,0,1.3.3c.4.2.8.4,1.1.8.3.3.6.7.7,1.1s.3.9.3,1.4,0,1-.3,1.4-.4.8-.7,1.2c-.3.3-.7.6-1.1.8-.4.2-.9.3-1.3.3ZM69.6,456.2c.4,0,.7,0,1-.2s.6-.3.8-.6.4-.6.6-.9c.1-.3.2-.7.2-1.1s0-.7-.2-1.1-.3-.6-.6-.9c-.2-.3-.5-.5-.8-.6-.3-.1-.6-.2-1-.2s-.7,0-1,.2c-.3.1-.6.3-.8.6-.2.3-.4.6-.6.9s-.2.7-.2,1.1,0,.7.2,1.1c.1.3.3.6.6.9.2.3.5.5.8.6.3.1.6.2,1,.2Z"/>
      <path d="M73.9,457l1.3-7h.6l1.9,4.9,1.9-4.9h.6l1.4,7h-.8l-1-5-1.8,4.7h-.6l-1.8-4.7-1,5h-.8Z"/>
      <path d="M82.6,457v-7h2.3c.4,0,.7,0,1,.3.3.2.5.4.7.7s.3.7.3,1,0,.7-.3,1-.4.6-.7.7c-.3.2-.6.3-1,.3h-1.5v2.9h-.8ZM83.5,453.3h1.4c.2,0,.4,0,.6-.2.2-.1.3-.3.4-.5.1-.2.2-.4.2-.6s0-.5-.2-.6c-.1-.2-.3-.3-.4-.5-.2-.1-.4-.2-.6-.2h-1.4v2.5Z"/>
    </g>
    <g>
      <path d="M334,515.5h1.4l2.5,7h-1.3l-.4-1.2h-3l-.4,1.2h-1.3l2.5-7ZM333.7,520h2.1l-1-2.9-1,2.9Z"/>
      <path d="M338.4,520.6v-3.1h1.2v2.8c0,.2,0,.4.1.5,0,.2.2.3.4.4.2,0,.3.1.5.1s.4,0,.5-.1c.2,0,.3-.2.4-.4,0-.2.1-.3.1-.5v-2.8h1.2v5s-1.2,0-1.2,0v-.5c-.2.2-.4.3-.6.4-.2.1-.5.2-.8.2s-.7,0-1-.3-.5-.4-.7-.7c-.2-.3-.3-.6-.3-1Z"/>
      <path d="M343.9,522.5v-5h1.2v.4c.2-.2.4-.3.6-.4s.5-.2.8-.2.7,0,1,.2c.3.2.5.4.7.7.2-.3.4-.5.7-.7s.6-.2.9-.2.7,0,1,.3c.3.2.5.4.7.7.2.3.3.6.3,1v3.1h-1.2v-2.8c0-.2,0-.4-.1-.5,0-.2-.2-.3-.4-.4-.2,0-.3-.1-.5-.1s-.4,0-.5.1c-.2,0-.3.2-.4.4,0,.2-.1.3-.1.5v2.8h-1.2v-2.8c0-.2,0-.4-.1-.5,0-.2-.2-.3-.4-.4-.2,0-.3-.1-.5-.1s-.4,0-.5.1c-.2,0-.3.2-.4.4,0,.2-.1.3-.1.5v2.8h-1.2Z"/>
      <path d="M354.8,522.6c-.5,0-.9-.1-1.2-.4s-.7-.6-.9-.9c-.2-.4-.3-.8-.3-1.3s0-.7.2-1c.1-.3.3-.6.5-.8.2-.2.5-.4.8-.6.3-.1.6-.2,1-.2s.7,0,1.1.2c.3.2.6.4.8.7.2.3.4.6.5,1s.1.7,0,1.1h-3.6c0,.2.1.4.2.5.1.1.2.3.4.4s.3.1.6.1c.2,0,.4,0,.6-.2s.3-.2.4-.4l1.2.3c-.2.4-.5.8-.9,1.1-.4.3-.8.4-1.3.4ZM353.6,519.5h2.4c0-.2-.1-.4-.2-.5-.1-.2-.3-.3-.4-.4-.2,0-.4-.1-.6-.1s-.4,0-.6.1c-.2,0-.3.2-.4.4-.1.2-.2.3-.2.5Z"/>
      <path d="M362.6,519.3v3.1h-1.2v-2.8c0-.2,0-.4-.1-.5,0-.2-.2-.3-.4-.4-.2,0-.3-.1-.5-.1s-.4,0-.5.1c-.2,0-.3.2-.4.4,0,.2-.1.3-.1.5v2.8h-1.2v-5s1.2,0,1.2,0v.4c.2-.2.4-.3.6-.4s.5-.2.8-.2.7,0,1,.3.5.4.7.7c.2.3.3.6.3,1Z"/>
      <path d="M366.3,518.7h-1v3.8h-1.2v-3.8h-.7v-1.2h.7v-1.6h1.2v1.6h1v1.2Z"/>
      <path d="M370.8,517.5h1.2v5h-1.2v-.6c-.2.2-.4.4-.6.5s-.5.2-.8.2-.7,0-1-.2c-.3-.1-.6-.3-.8-.6-.2-.2-.4-.5-.6-.8-.1-.3-.2-.7-.2-1s0-.7.2-1,.3-.6.5-.8.5-.4.8-.6c.3-.1.6-.2,1-.2s.6,0,.9.2c.3.1.5.3.7.6v-.6ZM369.4,521.4c.3,0,.5,0,.7-.2.2-.1.4-.3.5-.5.1-.2.2-.5.2-.7s0-.5-.2-.7c-.1-.2-.3-.4-.5-.5-.2-.1-.4-.2-.7-.2s-.5,0-.7.2c-.2.1-.4.3-.5.5-.1.2-.2.5-.2.7s0,.5.2.7c.1.2.3.4.5.5.2.1.4.2.7.2Z"/>
      <path d="M375.4,522.5v-7.5h1.2v7.5h-1.2Z"/>
      <path d="M381.5,517.5h1.2v5h-1.2v-.6c-.2.2-.4.4-.6.5s-.5.2-.8.2-.7,0-1-.2c-.3-.1-.6-.3-.8-.6-.2-.2-.4-.5-.6-.8-.1-.3-.2-.7-.2-1s0-.7.2-1,.3-.6.5-.8.5-.4.8-.6c.3-.1.6-.2,1-.2s.6,0,.9.2c.3.1.5.3.7.6v-.6ZM380.1,521.4c.3,0,.5,0,.7-.2.2-.1.4-.3.5-.5.1-.2.2-.5.2-.7s0-.5-.2-.7c-.1-.2-.3-.4-.5-.5-.2-.1-.4-.2-.7-.2s-.5,0-.7.2c-.2.1-.4.3-.5.5-.1.2-.2.5-.2.7s0,.5.2.7c.1.2.3.4.5.5.2.1.4.2.7.2Z"/>
      <path d="M334.8,531.6h-1.6l-1.8-5h1.3l1.3,3.6,1.3-3.6h1.3l-1.8,5Z"/>
      <path d="M337.9,526c-.2,0-.3,0-.5-.2-.1-.1-.2-.3-.2-.4s0-.3.2-.4c.1-.1.3-.2.4-.2s.3,0,.4.2c.1.1.2.3.2.4s0,.3-.2.4c-.1.1-.3.2-.4.2ZM337.3,526.7h1.2v5h-1.2v-5Z"/>
      <path d="M341.1,531.7c-.3,0-.5,0-.7-.2-.2,0-.5-.2-.6-.4s-.3-.3-.4-.5l1-.4c0,0,.1.1.2.2,0,0,.2.1.3.2s.3,0,.4,0,.2,0,.4,0c.1,0,.2,0,.3-.2s.1-.2.1-.3,0-.2-.1-.3c0,0-.2-.1-.3-.2-.1,0-.3,0-.4,0-.3,0-.6-.2-.9-.3-.3-.1-.5-.3-.7-.5s-.2-.5-.2-.8,0-.6.3-.8.4-.4.7-.6c.3-.1.6-.2.9-.2s.8,0,1.1.2c.3.2.6.4.8.7l-1,.6c0,0-.1-.2-.2-.2,0,0-.2-.1-.3-.2-.1,0-.2,0-.3,0-.1,0-.3,0-.4,0s-.2,0-.3.2c0,0-.1.2-.1.3s0,.2.1.3c0,0,.2.1.4.1s.3,0,.4.1c.3,0,.6.2.8.4s.5.3.6.5.2.4.2.7c0,.3,0,.6-.3.8s-.4.4-.7.5c-.3.1-.6.2-1,.1Z"/>
      <path d="M344.5,526c-.2,0-.3,0-.5-.2-.1-.1-.2-.3-.2-.4s0-.3.2-.4c.1-.1.3-.2.4-.2s.3,0,.4.2c.1.1.2.3.2.4s0,.3-.2.4c-.1.1-.3.2-.4.2ZM343.9,526.7h1.2v5h-1.2v-5Z"/>
      <path d="M348.9,526.5c.5,0,.9.1,1.3.4s.7.6.9.9.4.8.4,1.3,0,.7-.2,1c-.1.3-.3.6-.6.8-.2.2-.5.4-.8.6s-.7.2-1,.2-.6,0-.8-.2c-.2-.1-.4-.3-.6-.5v.6h-1.2v-7.5h1.2v3.1c.2-.2.4-.4.6-.5.2-.1.5-.2.8-.2ZM348.9,530.6c.3,0,.5,0,.7-.2s.4-.3.5-.5.2-.5.2-.7,0-.5-.2-.7c-.1-.2-.3-.4-.5-.5-.2-.1-.4-.2-.7-.2s-.5,0-.7.2c-.2.1-.4.3-.5.5-.1.2-.2.5-.2.7s0,.5.2.7c.1.2.3.4.5.5.2.1.4.2.7.2Z"/>
      <path d="M352.8,526c-.2,0-.3,0-.5-.2-.1-.1-.2-.3-.2-.4s0-.3.2-.4c.1-.1.3-.2.4-.2s.3,0,.4.2c.1.1.2.3.2.4s0,.3-.2.4c-.1.1-.3.2-.4.2ZM352.2,526.7h1.2v5h-1.2v-5Z"/>
      <path d="M354.6,531.6v-7.5h1.2v7.5h-1.2Z"/>
      <path d="M357.6,526c-.2,0-.3,0-.5-.2-.1-.1-.2-.3-.2-.4s0-.3.2-.4c.1-.1.3-.2.4-.2s.3,0,.4.2c.1.1.2.3.2.4s0,.3-.2.4c-.1.1-.3.2-.4.2ZM357,526.7h1.2v5h-1.2v-5Z"/>
      <path d="M363.1,524.2h1.2v7.5h-1.2v-.6c-.2.2-.4.4-.6.5-.2.1-.5.2-.8.2s-.7,0-1-.2-.6-.3-.8-.6c-.2-.2-.4-.5-.6-.8-.1-.3-.2-.7-.2-1s0-.7.2-1,.3-.6.6-.8.5-.4.8-.6.7-.2,1-.2.6,0,.8.2c.2.1.4.3.6.5v-3.1ZM361.6,530.6c.3,0,.5,0,.7-.2.2-.1.4-.3.5-.5.1-.2.2-.5.2-.7s0-.5-.2-.7c-.1-.2-.3-.4-.5-.5-.2-.1-.4-.2-.7-.2s-.5,0-.7.2c-.2.1-.4.3-.5.5-.1.2-.2.5-.2.7s0,.5.2.7c.1.2.3.4.5.5.2.1.4.2.7.2Z"/>
      <path d="M369.1,526.7h1.2v5h-1.2v-.6c-.2.2-.4.4-.6.5s-.5.2-.8.2-.7,0-1-.2c-.3-.1-.6-.3-.8-.6-.2-.2-.4-.5-.6-.8-.1-.3-.2-.7-.2-1s0-.7.2-1,.3-.6.5-.8.5-.4.8-.6c.3-.1.6-.2,1-.2s.6,0,.9.2c.3.1.5.3.7.6v-.6ZM367.7,530.6c.3,0,.5,0,.7-.2.2-.1.4-.3.5-.5.1-.2.2-.5.2-.7s0-.5-.2-.7c-.1-.2-.3-.4-.5-.5-.2-.1-.4-.2-.7-.2s-.5,0-.7.2c-.2.1-.4.3-.5.5-.1.2-.2.5-.2.7s0,.5.2.7c.1.2.3.4.5.5.2.1.4.2.7.2Z"/>
      <path d="M375,524.2h1.2v7.5h-1.2v-.6c-.2.2-.4.4-.6.5-.2.1-.5.2-.8.2s-.7,0-1-.2-.6-.3-.8-.6c-.2-.2-.4-.5-.6-.8-.1-.3-.2-.7-.2-1s0-.7.2-1,.3-.6.6-.8.5-.4.8-.6.7-.2,1-.2.6,0,.8.2c.2.1.4.3.6.5v-3.1ZM373.6,530.6c.3,0,.5,0,.7-.2.2-.1.4-.3.5-.5.1-.2.2-.5.2-.7s0-.5-.2-.7c-.1-.2-.3-.4-.5-.5-.2-.1-.4-.2-.7-.2s-.5,0-.7.2c-.2.1-.4.3-.5.5-.1.2-.2.5-.2.7s0,.5.2.7c.1.2.3.4.5.5.2.1.4.2.7.2Z"/>
      <path d="M383.5,524.2h1.2v7.5h-1.2v-.6c-.2.2-.4.4-.6.5-.2.1-.5.2-.8.2s-.7,0-1-.2-.6-.3-.8-.6c-.2-.2-.4-.5-.6-.8-.1-.3-.2-.7-.2-1s0-.7.2-1,.3-.6.6-.8.5-.4.8-.6.7-.2,1-.2.6,0,.8.2c.2.1.4.3.6.5v-3.1ZM382.1,530.6c.3,0,.5,0,.7-.2.2-.1.4-.3.5-.5.1-.2.2-.5.2-.7s0-.5-.2-.7c-.1-.2-.3-.4-.5-.5-.2-.1-.4-.2-.7-.2s-.5,0-.7.2c-.2.1-.4.3-.5.5-.1.2-.2.5-.2.7s0,.5.2.7c.1.2.3.4.5.5.2.1.4.2.7.2Z"/>
      <path d="M388.1,531.8c-.5,0-.9-.1-1.2-.4s-.7-.6-.9-.9c-.2-.4-.3-.8-.3-1.3s0-.7.2-1c.1-.3.3-.6.5-.8.2-.2.5-.4.8-.6.3-.1.6-.2,1-.2s.7,0,1.1.2c.3.2.6.4.8.7.2.3.4.6.5,1s.1.7,0,1.1h-3.6c0,.2.1.4.2.5.1.1.2.3.4.4s.3.1.6.1c.2,0,.4,0,.6-.2s.3-.2.4-.4l1.2.3c-.2.4-.5.8-.9,1.1-.4.3-.8.4-1.3.4ZM386.8,528.7h2.4c0-.2-.1-.4-.2-.5-.1-.2-.3-.3-.4-.4-.2,0-.4-.1-.6-.1s-.4,0-.6.1c-.2,0-.3.2-.4.4-.1.2-.2.3-.2.5Z"/>
      <path d="M396.5,527.9h-1v3.8h-1.2v-3.8h-.7v-1.2h.7v-1.6h1.2v1.6h1v1.2Z"/>
      <path d="M397.2,529.8v-3.1h1.2v2.8c0,.2,0,.4.1.5,0,.2.2.3.4.4.2,0,.3.1.5.1s.4,0,.5-.1c.2,0,.3-.2.4-.4,0-.2.1-.3.1-.5v-2.8h1.2v5s-1.2,0-1.2,0v-.5c-.2.2-.4.3-.6.4-.2.1-.5.2-.8.2s-.7,0-1-.3-.5-.4-.7-.7c-.2-.3-.3-.6-.3-1Z"/>
      <path d="M333.2,540.9c-.3,0-.5,0-.7-.2-.2,0-.5-.2-.6-.4s-.3-.3-.4-.5l1-.4c0,0,.1.1.2.2,0,0,.2.1.3.2s.3,0,.4,0,.2,0,.4,0c.1,0,.2,0,.3-.2s.1-.2.1-.3,0-.2-.1-.3c0,0-.2-.1-.3-.2-.1,0-.3,0-.4,0-.3,0-.6-.2-.9-.3-.3-.1-.5-.3-.7-.5s-.2-.5-.2-.8,0-.6.3-.8.4-.4.7-.6c.3-.1.6-.2.9-.2s.8,0,1.1.2c.3.2.6.4.8.7l-1,.6c0,0-.1-.2-.2-.2,0,0-.2-.1-.3-.2-.1,0-.2,0-.3,0-.1,0-.3,0-.4,0s-.2,0-.3.2c0,0-.1.2-.1.3s0,.2.1.3c0,0,.2.1.4.1s.3,0,.4.1c.3,0,.6.2.8.4s.5.3.6.5.2.4.2.7c0,.3,0,.6-.3.8s-.4.4-.7.5c-.3.1-.6.2-1,.1Z"/>
      <path d="M336.5,535.2c-.2,0-.3,0-.5-.2-.1-.1-.2-.3-.2-.4s0-.3.2-.4c.1-.1.3-.2.4-.2s.3,0,.4.2c.1.1.2.3.2.4s0,.3-.2.4c-.1.1-.3.2-.4.2ZM335.9,535.8h1.2v5h-1.2v-5Z"/>
      <path d="M341,537h-1v3.8h-1.2v-3.8h-.7v-1.2h.7v-1.6h1.2v1.6h1v1.2Z"/>
      <path d="M342.4,535.2c-.2,0-.3,0-.5-.2-.1-.1-.2-.3-.2-.4s0-.3.2-.4c.1-.1.3-.2.4-.2s.3,0,.4.2c.1.1.2.3.2.4s0,.3-.2.4c-.1.1-.3.2-.4.2ZM341.8,535.8h1.2v5h-1.2v-5Z"/>
      <path d="M346.3,540.9c-.5,0-.9-.1-1.2-.4s-.7-.6-.9-.9c-.2-.4-.3-.8-.3-1.3s0-.7.2-1c.1-.3.3-.6.5-.8.2-.2.5-.4.8-.6.3-.1.6-.2,1-.2s.9.1,1.2.4.7.6.9.9c.2.4.3.8.3,1.3s0,.7-.2,1c-.1.3-.3.6-.5.8-.2.2-.5.4-.8.6s-.6.2-1,.2ZM346.3,539.7c.2,0,.5,0,.7-.2.2-.1.3-.3.5-.5.1-.2.2-.4.2-.7s0-.5-.2-.7c-.1-.2-.3-.4-.5-.5-.2-.1-.4-.2-.6-.2s-.5,0-.6.2c-.2.1-.3.3-.5.5-.1.2-.2.4-.2.7s0,.5.2.7c.1.2.3.4.5.5s.4.2.6.2Z"/>
      <path d="M354.6,540.8h-1.2l-1.7-5h1.2l1.1,3.2,1.1-3.2h1.2l1.1,3.2,1.1-3.2h1.2l-1.7,5h-1.2l-1.1-3.2-1.1,3.2Z"/>
      <path d="M362.3,540.9c-.5,0-.9-.1-1.2-.4s-.7-.6-.9-.9c-.2-.4-.3-.8-.3-1.3s0-.7.2-1c.1-.3.3-.6.5-.8.2-.2.5-.4.8-.6.3-.1.6-.2,1-.2s.7,0,1.1.2c.3.2.6.4.8.7.2.3.4.6.5,1s.1.7,0,1.1h-3.6c0,.2.1.4.2.5.1.1.2.3.4.4s.3.1.6.1c.2,0,.4,0,.6-.2s.3-.2.4-.4l1.2.3c-.2.4-.5.8-.9,1.1-.4.3-.8.4-1.3.4ZM361.1,537.8h2.4c0-.2-.1-.4-.2-.5-.1-.2-.3-.3-.4-.4-.2,0-.4-.1-.6-.1s-.4,0-.6.1c-.2,0-.3.2-.4.4-.1.2-.2.3-.2.5Z"/>
      <path d="M368.2,535.7c.5,0,.9.1,1.3.4s.7.6.9.9.4.8.4,1.3,0,.7-.2,1c-.1.3-.3.6-.6.8-.2.2-.5.4-.8.6s-.7.2-1,.2-.6,0-.8-.2c-.2-.1-.4-.3-.6-.5v.6h-1.2v-7.5h1.2v3.1c.2-.2.4-.4.6-.5.2-.1.5-.2.8-.2ZM368.1,539.8c.3,0,.5,0,.7-.2s.4-.3.5-.5.2-.5.2-.7,0-.5-.2-.7c-.1-.2-.3-.4-.5-.5-.2-.1-.4-.2-.7-.2s-.5,0-.7.2c-.2.1-.4.3-.5.5-.1.2-.2.5-.2.7s0,.5.2.7c.1.2.3.4.5.5.2.1.4.2.7.2Z"/>
      <path d="M377.5,539.5l.7.4c-.2.3-.5.6-.9.8-.3.2-.7.3-1.1.3s-.9-.1-1.2-.4-.7-.6-.9-.9c-.2-.4-.3-.8-.3-1.3s0-.7.2-1c.1-.3.3-.6.5-.8.2-.2.5-.4.8-.6.3-.1.6-.2,1-.2s.8,0,1.1.3c.3.2.6.4.9.8l-.7.4c-.2-.2-.3-.3-.6-.5-.2-.1-.4-.2-.7-.2s-.6,0-.8.2-.4.4-.6.7c-.1.3-.2.6-.2.9s0,.6.2.9c.1.3.3.5.6.6.2.2.5.2.8.2s.5,0,.7-.2c.2-.1.4-.3.5-.4Z"/>
      <path d="M381.2,540.9c-.5,0-.9-.1-1.2-.4s-.7-.6-.9-.9c-.2-.4-.3-.8-.3-1.3s0-.7.2-1c.1-.3.3-.6.5-.8.2-.2.5-.4.8-.6.3-.1.6-.2,1-.2s.9.1,1.2.4.7.6.9.9c.2.4.3.8.3,1.3s0,.7-.2,1c-.1.3-.3.6-.5.8-.2.2-.5.4-.8.6s-.6.2-1,.2ZM381.2,540.1c.3,0,.6,0,.8-.2s.4-.4.6-.7c.1-.3.2-.6.2-.9s0-.6-.2-.9-.3-.5-.6-.7c-.2-.2-.5-.2-.8-.2s-.6,0-.8.2-.4.4-.6.7c-.1.3-.2.6-.2.9s0,.6.2.9c.1.3.3.5.6.6s.5.2.8.2Z"/>
      <path d="M388.9,537.7v3.1h-.8v-2.9c0-.3,0-.5-.2-.7-.1-.2-.3-.4-.5-.5-.2-.1-.4-.2-.7-.2s-.5,0-.7.2-.4.3-.5.5c-.1.2-.2.4-.2.7v2.9h-.8v-5h.8v.6c.2-.2.4-.4.7-.6.3-.1.6-.2.9-.2s.7,0,1,.3.5.4.7.7.3.6.3,1Z"/>
      <path d="M392.1,538.9v-3.1h.8v2.9c0,.3,0,.5.2.7.1.2.3.4.5.5s.4.2.7.2.5,0,.7-.2c.2-.1.4-.3.5-.5.1-.2.2-.4.2-.7v-2.9h.8v5s-.8,0-.8,0v-.6c-.2.2-.4.4-.7.6-.3.1-.6.2-.9.2s-.7,0-1-.3-.5-.4-.7-.7-.3-.6-.3-1Z"/>
      <path d="M401.9,537.7v3.1h-.8v-2.9c0-.3,0-.5-.2-.7-.1-.2-.3-.4-.5-.5-.2-.1-.4-.2-.7-.2s-.5,0-.7.2-.4.3-.5.5c-.1.2-.2.4-.2.7v2.9h-.8v-5h.8v.6c.2-.2.4-.4.7-.6.3-.1.6-.2.9-.2s.7,0,1,.3.5.4.7.7.3.6.3,1Z"/>
      <path d="M335.7,542.5h.8v7.5h-.8v-.8c-.2.3-.4.5-.7.7-.3.2-.6.3-1,.3s-.7,0-1-.2-.6-.3-.8-.6c-.2-.2-.4-.5-.6-.8-.1-.3-.2-.7-.2-1s0-.7.2-1c.1-.3.3-.6.6-.8s.5-.4.8-.6c.3-.1.7-.2,1-.2s.7,0,1,.3c.3.2.5.4.7.7v-3.3ZM334,549.3c.3,0,.6,0,.9-.2.2-.2.4-.4.6-.7.1-.3.2-.6.2-.9s0-.6-.2-.9c-.1-.3-.3-.5-.6-.7-.2-.2-.5-.2-.8-.2s-.6,0-.9.2-.5.4-.6.7c-.2.3-.2.6-.2.9s0,.6.2.9.4.5.6.7c.3.2.6.2.9.2Z"/>
      <path d="M338.1,544.2c-.1,0-.2,0-.3-.1s-.1-.2-.1-.3,0-.2.1-.3c0,0,.2-.1.3-.1s.2,0,.3.1c0,0,.1.2.1.3s0,.2-.1.3-.2.1-.3.1ZM337.7,545h.8v5h-.8v-5Z"/>
      <path d="M341.2,550.1c-.3,0-.5,0-.8-.2-.3,0-.5-.2-.7-.4s-.3-.3-.4-.5l.7-.3c0,.1.1.2.3.3.1,0,.3.2.4.2s.3,0,.5,0,.4,0,.5,0c.2,0,.3-.1.4-.2.1-.1.2-.2.2-.4s0-.3-.2-.4c-.1,0-.2-.2-.4-.2s-.3-.1-.5-.2c-.3,0-.6-.2-.9-.3-.3-.1-.5-.3-.6-.5-.2-.2-.2-.4-.2-.7s0-.6.3-.8c.2-.2.4-.4.7-.5.3-.1.6-.2.9-.2s.8,0,1.1.3c.3.2.6.4.7.7l-.7.4c0-.1-.1-.2-.3-.3s-.2-.2-.4-.2c-.1,0-.3,0-.5,0-.2,0-.4,0-.5,0-.2,0-.3.1-.4.3-.1.1-.2.3-.2.4s0,.3.2.4c.1,0,.2.2.4.2s.4.1.6.2c.3,0,.6.2.8.3.3.1.5.3.6.5.2.2.2.4.2.7,0,.3,0,.6-.3.8-.2.2-.4.4-.7.5-.3.1-.6.2-.9.2Z"/>
      <path d="M346.1,550.1c-.5,0-.9-.1-1.2-.4s-.7-.6-.9-.9c-.2-.4-.3-.8-.3-1.3s0-.7.2-1c.1-.3.3-.6.5-.8.2-.2.5-.4.8-.6.3-.1.6-.2,1-.2s.7,0,1,.2c.3.2.6.4.8.6.2.3.4.6.5.9s.2.7.1,1.1h-4.1c0,.3.1.5.3.8.1.2.3.4.6.5s.5.2.8.2c.3,0,.6,0,.8-.2.2-.2.4-.4.6-.6l.8.2c-.2.4-.5.8-.9,1.1-.4.3-.8.4-1.3.4ZM344.5,547.1h3.2c0-.3-.1-.5-.3-.8-.2-.2-.3-.4-.6-.6-.2-.1-.5-.2-.8-.2s-.5,0-.8.2c-.2.1-.4.3-.6.5-.2.2-.2.5-.3.8Z"/>
      <path d="M353.8,546.9v3.1h-.8v-2.9c0-.3,0-.5-.2-.7-.1-.2-.3-.4-.5-.5-.2-.1-.4-.2-.7-.2s-.5,0-.7.2-.4.3-.5.5c-.1.2-.2.4-.2.7v2.9h-.8v-5h.8v.6c.2-.2.4-.4.7-.6.3-.1.6-.2.9-.2s.7,0,1,.3.5.4.7.7.3.6.3,1ZM352.4,544.4c-.1,0-.3,0-.4-.1-.2,0-.3-.2-.5-.3-.2-.1-.3-.2-.4-.3-.1,0-.2,0-.3,0,0,0-.1,0-.2.2s0,.2,0,.3h-.5c0,0,0-.3,0-.4,0-.2.1-.3.3-.4s.3-.2.5-.2.3,0,.4.1c.2,0,.3.2.5.3.2,0,.3.2.4.2s.2.1.3.1.1,0,.2,0c0,0,0-.1,0-.2,0,0,0-.1,0-.2l.5-.2c0,.2,0,.4,0,.6,0,.2-.1.3-.3.4-.1.1-.3.2-.5.2Z"/>
      <path d="M356.9,550.1c-.5,0-.9-.1-1.2-.4s-.7-.6-.9-.9c-.2-.4-.3-.8-.3-1.3s0-.7.2-1c.1-.3.3-.6.5-.8.2-.2.5-.4.8-.6.3-.1.6-.2,1-.2s.9.1,1.2.4.7.6.9.9c.2.4.3.8.3,1.3s0,.7-.2,1c-.1.3-.3.6-.5.8-.2.2-.5.4-.8.6s-.6.2-1,.2ZM356.9,549.3c.3,0,.6,0,.8-.2s.4-.4.6-.7c.1-.3.2-.6.2-.9s0-.6-.2-.9-.3-.5-.6-.7c-.2-.2-.5-.2-.8-.2s-.6,0-.8.2-.4.4-.6.7c-.1.3-.2.6-.2.9s0,.6.2.9c.1.3.3.5.6.6s.5.2.8.2Z"/>
      <path d="M366.7,545h.8v5h-.8v-.8c-.2.3-.4.5-.7.7-.3.2-.6.3-1,.3s-.7,0-1-.2c-.3-.1-.6-.3-.8-.6s-.4-.5-.6-.8-.2-.7-.2-1,0-.7.2-1c.1-.3.3-.6.6-.8.2-.2.5-.4.8-.6.3-.1.6-.2,1-.2s.7,0,1,.3.5.4.7.7v-.8ZM365,549.3c.3,0,.6,0,.9-.2.2-.2.4-.4.6-.7.1-.3.2-.6.2-.9s0-.6-.2-.9c-.1-.3-.3-.5-.6-.7-.2-.2-.5-.2-.8-.2s-.6,0-.9.2c-.3.2-.5.4-.6.7s-.2.6-.2.9,0,.6.2.9.4.5.6.7c.3.2.6.2.9.2Z"/>
      <path d="M371.1,545.8h-1.1v4.1h-.8v-4.1s-.8,0-.8,0v-.8h.9v-1.6s.8,0,.8,0v1.6h1.1v.8Z"/>
      <path d="M371.9,550v-5h.8v.6c.2-.2.4-.4.7-.6.3-.1.6-.2.9-.2s.4,0,.6,0l-.3.8c-.1,0-.3,0-.4,0-.2,0-.5,0-.7.2s-.4.3-.5.5c-.1.2-.2.4-.2.7v2.9h-.8Z"/>
      <path d="M379.2,545h.8v5h-.8v-.8c-.2.3-.4.5-.7.7-.3.2-.6.3-1,.3s-.7,0-1-.2c-.3-.1-.6-.3-.8-.6s-.4-.5-.6-.8-.2-.7-.2-1,0-.7.2-1c.1-.3.3-.6.6-.8.2-.2.5-.4.8-.6.3-.1.6-.2,1-.2s.7,0,1,.3.5.4.7.7v-.8ZM377.6,549.3c.3,0,.6,0,.9-.2.2-.2.4-.4.6-.7.1-.3.2-.6.2-.9s0-.6-.2-.9c-.1-.3-.3-.5-.6-.7-.2-.2-.5-.2-.8-.2s-.6,0-.9.2c-.3.2-.5.4-.6.7s-.2.6-.2.9,0,.6.2.9.4.5.6.7c.3.2.6.2.9.2Z"/>
      <path d="M384.4,548.7l.7.4c-.2.3-.5.6-.9.8-.3.2-.7.3-1.1.3s-.9-.1-1.2-.4-.7-.6-.9-.9c-.2-.4-.3-.8-.3-1.3s0-.7.2-1c.1-.3.3-.6.5-.8.2-.2.5-.4.8-.6.3-.1.6-.2,1-.2s.8,0,1.1.3c.3.2.6.4.9.8l-.7.4c-.2-.2-.3-.3-.6-.5-.2-.1-.4-.2-.7-.2s-.6,0-.8.2-.4.4-.6.7c-.1.3-.2.6-.2.9s0,.6.2.9c.1.3.3.5.6.6.2.2.5.2.8.2s.5,0,.7-.2c.2-.1.4-.3.5-.4Z"/>
      <path d="M388.6,545.8h-1.1v4.1h-.8v-4.1s-.8,0-.8,0v-.8h.9v-1.6s.8,0,.8,0v1.6h1.1v.8Z"/>
      <path d="M389.9,544.2c-.1,0-.2,0-.3-.1s-.1-.2-.1-.3,0-.2.1-.3c0,0,.2-.1.3-.1s.2,0,.3.1c0,0,.1.2.1.3s0,.2-.1.3-.2.1-.3.1ZM389.4,545h.8v5h-.8v-5Z"/>
      <path d="M394,550h-1.1l-1.8-5h.9l1.5,4,1.5-4h.9l-1.8,5Z"/>
      <path d="M398.6,550.1c-.5,0-.9-.1-1.2-.4s-.7-.6-.9-.9c-.2-.4-.3-.8-.3-1.3s0-.7.2-1c.1-.3.3-.6.5-.8.2-.2.5-.4.8-.6.3-.1.6-.2,1-.2s.9.1,1.2.4.7.6.9.9c.2.4.3.8.3,1.3s0,.7-.2,1c-.1.3-.3.6-.5.8-.2.2-.5.4-.8.6s-.6.2-1,.2ZM398.6,549.3c.3,0,.6,0,.8-.2s.4-.4.6-.7c.1-.3.2-.6.2-.9s0-.6-.2-.9-.3-.5-.6-.7c-.2-.2-.5-.2-.8-.2s-.6,0-.8.2-.4.4-.6.7c-.1.3-.2.6-.2.9s0,.6.2.9c.1.3.3.5.6.6s.5.2.8.2Z"/>
    </g>
    <g>
      <g class="st5">
        <rect class="st11" x="151.4" y="448.1" width="9" height="279.2" transform="translate(-440 708.4) rotate(-86.6)"/>
      </g>
      <rect class="st0" x="126.8" y="412.5" width="65.1" height="282.6" transform="translate(721.7 427.5) rotate(93.4)"/>
      <text class="st9" transform="translate(37.3 555.4) rotate(3.4)"><tspan x="0" y="0">DISEÑO DE TEMAS</tspan></text>
    </g>
    <g>
      <g class="st3">
        <rect class="st11" x="270.2" y="624.1" width="7.1" height="284.7" transform="translate(-505 1003.1) rotate(-87.2)"/>
      </g>
      <rect class="st14" x="239.3" y="585.4" width="68.5" height="290.5" transform="translate(1016.4 492.6) rotate(92.8)"/>
      <text class="st8" transform="translate(155.3 722.5) rotate(2.8)"><tspan x="0" y="0">VISUALIZACIÓN DE</tspan><tspan x="0" y="24.8">DATOS</tspan></text>
    </g>
    <g>
      <path d="M44.5,691.3c-.5,0-.9,0-1.3-.3-.4-.2-.8-.4-1.1-.8-.3-.3-.6-.7-.7-1.2s-.3-.9-.3-1.4,0-1,.3-1.4c.2-.4.4-.8.8-1.1.3-.3.7-.6,1.1-.8.4-.2.8-.3,1.3-.3s1,.1,1.5.4.9.6,1.2,1.1l-.7.4c-.3-.3-.6-.6-.9-.7-.3-.2-.7-.3-1.1-.3s-.7,0-1,.2c-.3.1-.6.3-.8.6s-.4.5-.6.9c-.1.3-.2.7-.2,1.1s0,.7.2,1.1c.1.3.3.6.6.9.2.3.5.5.8.6.3.1.7.2,1,.2s.6,0,.8-.1c.3,0,.5-.2.7-.4s.4-.4.6-.6c.2-.2.3-.5.4-.8h-1.7v-.7h2.7c0,.5,0,.9-.3,1.4-.2.4-.4.8-.7,1.1-.3.3-.7.6-1.1.8-.4.2-.8.3-1.3.3Z"/>
      <path d="M51,691.3c-.5,0-.9-.1-1.2-.4-.4-.2-.7-.6-.9-.9s-.3-.8-.3-1.3,0-.7.2-1c.1-.3.3-.6.5-.8.2-.2.5-.4.8-.6.3-.1.6-.2,1-.2s.7,0,1,.2c.3.2.6.4.8.6.2.3.4.6.5.9s.2.7.1,1.1h-4.1c0,.3.1.5.3.8.1.2.3.4.6.5.2.1.5.2.8.2.3,0,.6,0,.8-.2s.4-.4.6-.6l.8.2c-.2.4-.5.8-.9,1.1-.4.3-.8.4-1.3.4ZM49.4,688.3h3.2c0-.3-.1-.5-.3-.8-.2-.2-.3-.4-.6-.6-.2-.1-.5-.2-.8-.2s-.5,0-.8.2c-.2.1-.4.3-.6.5-.2.2-.2.5-.3.8Z"/>
      <path d="M55.8,691.2c-.3,0-.5,0-.8-.2-.3,0-.5-.2-.7-.4s-.3-.3-.4-.5l.7-.3c0,.1.1.2.3.3.1,0,.3.2.4.2s.3,0,.5,0,.4,0,.5,0c.2,0,.3-.1.4-.2.1-.1.2-.2.2-.4s0-.3-.2-.4c-.1,0-.3-.2-.4-.2-.2,0-.3-.1-.5-.2-.3,0-.6-.2-.9-.3-.3-.1-.5-.3-.6-.5-.2-.2-.2-.4-.2-.7s0-.6.3-.8c.2-.2.4-.4.7-.5.3-.1.6-.2.9-.2s.8,0,1.1.3c.3.2.6.4.7.7l-.7.4c0-.1-.1-.2-.3-.3-.1,0-.2-.2-.4-.2-.1,0-.3,0-.5,0-.2,0-.4,0-.5,0-.2,0-.3.1-.4.3s-.2.3-.2.4,0,.3.2.4.2.2.4.2.4.1.6.2c.3,0,.6.2.8.3.3.1.5.3.6.5.2.2.2.4.2.7,0,.3,0,.6-.3.8-.2.2-.4.4-.7.5-.3.1-.6.2-.9.2Z"/>
      <path d="M61.2,687h-1.1v4.1h-.8v-4.1s-.8,0-.8,0v-.8h.9v-1.6s.8,0,.8,0v1.6h1.1v.8Z"/>
      <path d="M62.5,685.4c-.1,0-.2,0-.3-.1s-.1-.2-.1-.3,0-.2.1-.3c0,0,.2-.1.3-.1s.2,0,.3.1c0,0,.1.2.1.3s0,.2-.1.3-.2.1-.3.1ZM62,686.2h.8v5h-.8v-5Z"/>
      <path d="M66.2,691.3c-.5,0-.9-.1-1.2-.4-.4-.2-.7-.6-.9-.9s-.3-.8-.3-1.3,0-.7.2-1c.1-.3.3-.6.5-.8.2-.2.5-.4.8-.6.3-.1.6-.2,1-.2s.9.1,1.2.4.7.6.9.9c.2.4.3.8.3,1.3s0,.7-.2,1c-.1.3-.3.6-.5.8-.2.2-.5.4-.8.6s-.6.2-1,.2ZM66.2,690.4c.3,0,.6,0,.8-.2.2-.2.4-.4.6-.7.1-.3.2-.6.2-.9s0-.6-.2-.9-.3-.5-.6-.7c-.2-.2-.5-.2-.8-.2s-.6,0-.8.2-.4.4-.6.7c-.1.3-.2.6-.2.9s0,.6.2.9c.1.3.3.5.6.6.3.2.5.2.8.2Z"/>
      <path d="M73.9,688v3.1h-.8v-2.9c0-.3,0-.5-.2-.7-.1-.2-.3-.4-.5-.5-.2-.1-.4-.2-.7-.2s-.5,0-.7.2c-.2.1-.4.3-.5.5-.1.2-.2.4-.2.7v2.9h-.8v-5h.8v.6c.2-.2.4-.4.7-.6.3-.1.6-.2.9-.2s.7,0,1,.3c.3.2.5.4.7.7.2.3.3.6.3,1Z"/>
      <path d="M78.8,686.2h.8v5h-.8v-.8c-.2.3-.4.5-.7.7-.3.2-.6.3-1,.3s-.7,0-1-.2-.6-.3-.8-.6c-.2-.2-.4-.5-.6-.8-.1-.3-.2-.7-.2-1s0-.7.2-1c.1-.3.3-.6.6-.8.2-.2.5-.4.8-.6.3-.1.6-.2,1-.2s.7,0,1,.3c.3.2.5.4.7.7v-.8ZM77.1,690.4c.3,0,.6,0,.9-.2.2-.2.4-.4.6-.7.1-.3.2-.6.2-.9s0-.6-.2-.9-.3-.5-.6-.7c-.2-.2-.5-.2-.8-.2s-.6,0-.9.2c-.3.2-.5.4-.6.7-.2.3-.2.6-.2.9s0,.6.2.9c.2.3.4.5.6.7.3.2.6.2.9.2Z"/>
      <path d="M85.6,687h-1.1v4.1h-.8v-4.1s-.8,0-.8,0v-.8h.9v-1.6s.8,0,.8,0v1.6h1.1v.8Z"/>
      <path d="M86.2,689.2v-3.1h.8v2.9c0,.3,0,.5.2.7s.3.4.5.5.4.2.7.2.5,0,.7-.2c.2-.1.4-.3.5-.5.1-.2.2-.4.2-.7v-2.9h.8v5s-.8,0-.8,0v-.6c-.2.2-.4.4-.7.6-.3.1-.6.2-.9.2s-.7,0-1-.3c-.3-.2-.5-.4-.7-.7-.2-.3-.3-.6-.3-1Z"/>
      <path d="M93.1,691.2c-.3,0-.5,0-.8-.2-.3,0-.5-.2-.7-.4s-.3-.3-.4-.5l.7-.3c0,.1.1.2.3.3.1,0,.3.2.4.2s.3,0,.5,0,.4,0,.5,0c.2,0,.3-.1.4-.2.1-.1.2-.2.2-.4s0-.3-.2-.4c-.1,0-.3-.2-.4-.2-.2,0-.3-.1-.5-.2-.3,0-.6-.2-.9-.3-.3-.1-.5-.3-.6-.5-.2-.2-.2-.4-.2-.7s0-.6.3-.8c.2-.2.4-.4.7-.5.3-.1.6-.2.9-.2s.8,0,1.1.3c.3.2.6.4.7.7l-.7.4c0-.1-.1-.2-.3-.3-.1,0-.2-.2-.4-.2-.1,0-.3,0-.5,0-.2,0-.4,0-.5,0-.2,0-.3.1-.4.3s-.2.3-.2.4,0,.3.2.4.2.2.4.2.4.1.6.2c.3,0,.6.2.8.3.3.1.5.3.6.5.2.2.2.4.2.7,0,.3,0,.6-.3.8-.2.2-.4.4-.7.5-.3.1-.6.2-.9.2Z"/>
      <path d="M46.9,695.1h.8v7.5h-.8v-.8c-.2.3-.4.5-.7.7-.3.2-.6.3-1,.3s-.7,0-1-.2c-.3-.1-.6-.3-.8-.6-.2-.2-.4-.5-.6-.8-.1-.3-.2-.7-.2-1s0-.7.2-1c.1-.3.3-.6.6-.8s.5-.4.8-.6c.3-.1.7-.2,1-.2s.7,0,1,.3c.3.2.5.4.7.7v-3.3ZM45.2,701.9c.3,0,.6,0,.9-.2.2-.2.4-.4.6-.7.1-.3.2-.6.2-.9s0-.6-.2-.9-.3-.5-.6-.7c-.2-.2-.5-.2-.8-.2s-.6,0-.9.2-.5.4-.6.7c-.2.3-.2.6-.2.9s0,.6.2.9c.2.3.4.5.6.7.3.2.6.2.9.2Z"/>
      <path d="M52.9,697.6h.8v5h-.8v-.8c-.2.3-.4.5-.7.7-.3.2-.6.3-1,.3s-.7,0-1-.2-.6-.3-.8-.6c-.2-.2-.4-.5-.6-.8-.1-.3-.2-.7-.2-1s0-.7.2-1c.1-.3.3-.6.6-.8.2-.2.5-.4.8-.6.3-.1.6-.2,1-.2s.7,0,1,.3c.3.2.5.4.7.7v-.8ZM51.2,701.9c.3,0,.6,0,.9-.2.2-.2.4-.4.6-.7.1-.3.2-.6.2-.9s0-.6-.2-.9-.3-.5-.6-.7c-.2-.2-.5-.2-.8-.2s-.6,0-.9.2c-.3.2-.5.4-.6.7-.2.3-.2.6-.2.9s0,.6.2.9c.2.3.4.5.6.7.3.2.6.2.9.2Z"/>
      <path d="M57.3,698.5h-1.1v4.1h-.8v-4.1s-.8,0-.8,0v-.8h.9v-1.6s.8,0,.8,0v1.6h1.1v.8Z"/>
      <path d="M60.2,702.7c-.5,0-.9-.1-1.2-.4-.4-.2-.7-.6-.9-.9s-.3-.8-.3-1.3,0-.7.2-1c.1-.3.3-.6.5-.8.2-.2.5-.4.8-.6.3-.1.6-.2,1-.2s.9.1,1.2.4.7.6.9.9c.2.4.3.8.3,1.3s0,.7-.2,1c-.1.3-.3.6-.5.8-.2.2-.5.4-.8.6s-.6.2-1,.2ZM60.2,701.9c.3,0,.6,0,.8-.2.2-.2.4-.4.6-.7.1-.3.2-.6.2-.9s0-.6-.2-.9-.3-.5-.6-.7c-.2-.2-.5-.2-.8-.2s-.6,0-.8.2-.4.4-.6.7c-.1.3-.2.6-.2.9s0,.6.2.9c.1.3.3.5.6.6.3.2.5.2.8.2Z"/>
      <path d="M65.1,702.7c-.3,0-.5,0-.8-.2-.3,0-.5-.2-.7-.4s-.3-.3-.4-.5l.7-.3c0,.1.1.2.3.3.1,0,.3.2.4.2s.3,0,.5,0,.4,0,.5,0c.2,0,.3-.1.4-.2.1-.1.2-.2.2-.4s0-.3-.2-.4c-.1,0-.3-.2-.4-.2-.2,0-.3-.1-.5-.2-.3,0-.6-.2-.9-.3-.3-.1-.5-.3-.6-.5-.2-.2-.2-.4-.2-.7s0-.6.3-.8c.2-.2.4-.4.7-.5.3-.1.6-.2.9-.2s.8,0,1.1.3c.3.2.6.4.7.7l-.7.4c0-.1-.1-.2-.3-.3-.1,0-.2-.2-.4-.2-.1,0-.3,0-.5,0-.2,0-.4,0-.5,0-.2,0-.3.1-.4.3s-.2.3-.2.4,0,.3.2.4.2.2.4.2.4.1.6.2c.3,0,.6.2.8.3.3.1.5.3.6.5.2.2.2.4.2.7,0,.3,0,.6-.3.8-.2.2-.4.4-.7.5-.3.1-.6.2-.9.2Z"/>
      <path d="M73.6,701.3l.7.4c-.2.3-.5.6-.9.8-.3.2-.7.3-1.1.3s-.9-.1-1.2-.4c-.4-.2-.7-.6-.9-.9s-.3-.8-.3-1.3,0-.7.2-1c.1-.3.3-.6.5-.8.2-.2.5-.4.8-.6.3-.1.6-.2,1-.2s.8,0,1.1.3c.3.2.6.4.9.8l-.7.4c-.2-.2-.3-.3-.6-.5-.2-.1-.4-.2-.7-.2s-.6,0-.8.2-.4.4-.6.7c-.1.3-.2.6-.2.9s0,.6.2.9c.1.3.3.5.6.6.2.2.5.2.8.2s.5,0,.7-.2c.2-.1.4-.3.5-.4Z"/>
      <path d="M77.4,702.7c-.5,0-.9-.1-1.2-.4-.4-.2-.7-.6-.9-.9s-.3-.8-.3-1.3,0-.7.2-1c.1-.3.3-.6.5-.8.2-.2.5-.4.8-.6.3-.1.6-.2,1-.2s.9.1,1.2.4.7.6.9.9c.2.4.3.8.3,1.3s0,.7-.2,1c-.1.3-.3.6-.5.8-.2.2-.5.4-.8.6s-.6.2-1,.2ZM77.4,701.9c.3,0,.6,0,.8-.2.2-.2.4-.4.6-.7.1-.3.2-.6.2-.9s0-.6-.2-.9-.3-.5-.6-.7c-.2-.2-.5-.2-.8-.2s-.6,0-.8.2-.4.4-.6.7c-.1.3-.2.6-.2.9s0,.6.2.9c.1.3.3.5.6.6.3.2.5.2.8.2Z"/>
      <path d="M85.1,699.5v3.1h-.8v-2.9c0-.3,0-.5-.2-.7-.1-.2-.3-.4-.5-.5-.2-.1-.4-.2-.7-.2s-.5,0-.7.2c-.2.1-.4.3-.5.5-.1.2-.2.4-.2.7v2.9h-.8v-5h.8v.6c.2-.2.4-.4.7-.6.3-.1.6-.2.9-.2s.7,0,1,.3c.3.2.5.4.7.7.2.3.3.6.3,1Z"/>
      <path d="M90.6,702.7c-.5,0-.9-.1-1.2-.4-.4-.2-.7-.6-.9-.9s-.3-.8-.3-1.3,0-.7.2-1c.1-.3.3-.6.5-.8.2-.2.5-.4.8-.6.3-.1.6-.2,1-.2s.7,0,1,.2c.3.2.6.4.8.6.2.3.4.6.5.9s.2.7.1,1.1h-4.1c0,.3.1.5.3.8.1.2.3.4.6.5.2.1.5.2.8.2.3,0,.6,0,.8-.2s.4-.4.6-.6l.8.2c-.2.4-.5.8-.9,1.1-.4.3-.8.4-1.3.4ZM89,699.8h3.2c0-.3-.1-.5-.3-.8-.2-.2-.3-.4-.6-.6-.2-.1-.5-.2-.8-.2s-.5,0-.8.2c-.2.1-.4.3-.6.5-.2.2-.2.5-.3.8Z"/>
      <path d="M93.9,702.6v-7.5h.8v7.5h-.8Z"/>
      <path d="M69.7,711.4v-7h2.5c.4,0,.7,0,1,.3.3.2.5.4.7.8.2.3.3.7.3,1s0,.7-.3,1.1c-.2.3-.4.6-.7.8-.3.2-.6.3-1,.3h-1.3v2.8h-1.2ZM71,707.4h1.1c.2,0,.3,0,.5-.1.1,0,.3-.2.3-.3,0-.1.1-.3.1-.5s0-.3-.1-.5c0-.1-.2-.3-.3-.3-.1,0-.3-.1-.5-.1h-1.1v1.9Z"/>
      <path d="M77,711.5c-.5,0-.9-.1-1.2-.4-.4-.2-.7-.6-.9-.9s-.3-.8-.3-1.3,0-.7.2-1c.1-.3.3-.6.5-.8.2-.2.5-.4.8-.6.3-.1.6-.2,1-.2s.9.1,1.2.4.7.6.9.9c.2.4.3.8.3,1.3s0,.7-.2,1c-.1.3-.3.6-.5.8-.2.2-.5.4-.8.6s-.6.2-1,.2ZM77,710.3c.2,0,.5,0,.7-.2.2-.1.3-.3.5-.5.1-.2.2-.4.2-.7s0-.5-.2-.7c-.1-.2-.3-.4-.5-.5-.2-.1-.4-.2-.6-.2s-.5,0-.6.2c-.2.1-.3.3-.5.5-.1.2-.2.4-.2.7s0,.5.2.7c.1.2.3.4.5.5s.4.2.6.2Z"/>
      <path d="M80.3,711.4v-5s1.2,0,1.2,0v.4c.2-.2.4-.3.6-.4.2-.1.5-.2.8-.2s.4,0,.5,0l-.5,1.2c-.1,0-.3,0-.4,0-.2,0-.4,0-.5.1-.2,0-.3.2-.4.4,0,.2-.1.3-.1.5v2.8h-1.2Z"/>
      <path d="M86.7,707.6h-1v3.8h-1.2v-3.8h-.7v-1.2h.7v-1.6h1.2v1.6h1v1.2Z"/>
      <path d="M91.3,706.4h1.2v5h-1.2v-.6c-.2.2-.4.4-.6.5s-.5.2-.8.2-.7,0-1-.2c-.3-.1-.6-.3-.8-.6-.2-.2-.4-.5-.6-.8-.1-.3-.2-.7-.2-1s0-.7.2-1,.3-.6.5-.8c.2-.2.5-.4.8-.6.3-.1.6-.2,1-.2s.6,0,.9.2c.3.1.5.3.7.6v-.6ZM89.9,710.3c.3,0,.5,0,.7-.2.2-.1.4-.3.5-.5.1-.2.2-.5.2-.7s0-.5-.2-.7c-.1-.2-.3-.4-.5-.5-.2-.1-.4-.2-.7-.2s-.5,0-.7.2c-.2.1-.4.3-.5.5-.1.2-.2.5-.2.7s0,.5.2.7c.1.2.3.4.5.5.2.1.4.2.7.2Z"/>
      <path d="M93.5,711.4v-7.5h1.2v7.5h-1.2Z"/>
      <path d="M37.4,720.2v-7h2.5c.4,0,.7,0,1,.2s.5.4.7.6c.2.3.3.6.3,1s0,.3,0,.5c0,.2-.1.3-.2.5-.1.1-.2.2-.4.3.2,0,.4.1.5.3.1.1.2.3.3.5,0,.2.1.4.2.6,0,.2,0,.4,0,.5,0,.4,0,.7-.3,1s-.4.5-.7.7c-.3.2-.6.3-1,.3h-2.8ZM38.6,715.9h1.2c.2,0,.5,0,.6-.2.2-.2.3-.4.3-.6s0-.5-.3-.6c-.2-.1-.4-.2-.6-.2h-1.2v1.6ZM38.6,719.1h1.5c.2,0,.4,0,.5-.1.2,0,.3-.2.4-.4s.1-.4.1-.6,0-.4-.1-.5c0-.2-.2-.3-.4-.4-.2-.1-.3-.2-.5-.2h-1.5v2.2Z"/>
      <path d="M43.8,714.6c-.2,0-.3,0-.5-.2-.1-.1-.2-.3-.2-.4s0-.3.2-.4c.1-.1.3-.2.4-.2s.3,0,.4.2c.1.1.2.3.2.4s0,.3-.2.4c-.1.1-.3.2-.4.2ZM43.2,715.2h1.2v5h-1.2v-5Z"/>
      <path d="M48.3,715.1c.5,0,.9.1,1.3.4s.7.6.9.9c.2.4.4.8.4,1.3s0,.7-.2,1c-.1.3-.3.6-.6.8-.2.2-.5.4-.8.6-.3.1-.7.2-1,.2s-.6,0-.8-.2-.4-.3-.6-.5v.6h-1.2v-7.5h1.2v3.1c.2-.2.4-.4.6-.5s.5-.2.8-.2ZM48.3,719.1c.3,0,.5,0,.7-.2s.4-.3.5-.5c.1-.2.2-.5.2-.7s0-.5-.2-.7c-.1-.2-.3-.4-.5-.5-.2-.1-.4-.2-.7-.2s-.5,0-.7.2-.4.3-.5.5c-.1.2-.2.5-.2.7s0,.5.2.7c.1.2.3.4.5.5.2.1.4.2.7.2Z"/>
      <path d="M51.6,720.2v-7.5h1.2v7.5h-1.2Z"/>
      <path d="M54.6,714.6c-.2,0-.3,0-.5-.2-.1-.1-.2-.3-.2-.4s0-.3.2-.4c.1-.1.3-.2.4-.2s.3,0,.4.2c.1.1.2.3.2.4s0,.3-.2.4c-.1.1-.3.2-.4.2ZM54,715.2h1.2v5h-1.2v-5Z"/>
      <path d="M58.5,720.3c-.5,0-.9-.1-1.2-.4-.4-.2-.7-.6-.9-.9s-.3-.8-.3-1.3,0-.7.2-1c.1-.3.3-.6.5-.8.2-.2.5-.4.8-.6.3-.1.6-.2,1-.2s.9.1,1.2.4.7.6.9.9c.2.4.3.8.3,1.3s0,.7-.2,1c-.1.3-.3.6-.5.8-.2.2-.5.4-.8.6s-.6.2-1,.2ZM58.5,719.1c.2,0,.5,0,.7-.2.2-.1.3-.3.5-.5.1-.2.2-.4.2-.7s0-.5-.2-.7c-.1-.2-.3-.4-.5-.5-.2-.1-.4-.2-.6-.2s-.5,0-.6.2c-.2.1-.3.3-.5.5-.1.2-.2.4-.2.7s0,.5.2.7c.1.2.3.4.5.5s.4.2.6.2Z"/>
      <path d="M61.7,720.2v-5h1.2v.4c.2-.2.4-.3.6-.4.2-.1.5-.2.8-.2s.7,0,1,.2c.3.2.5.4.7.7.2-.3.4-.5.7-.7s.6-.2.9-.2.7,0,1,.3.5.4.7.7c.2.3.3.6.3,1v3.1h-1.2v-2.8c0-.2,0-.4-.1-.5,0-.2-.2-.3-.4-.4s-.3-.1-.5-.1-.4,0-.5.1c-.2,0-.3.2-.4.4,0,.2-.1.3-.1.5v2.8h-1.2v-2.8c0-.2,0-.4-.1-.5,0-.2-.2-.3-.4-.4-.2,0-.3-.1-.5-.1s-.4,0-.5.1c-.2,0-.3.2-.4.4,0,.2-.1.3-.1.5v2.8h-1.2Z"/>
      <path d="M72.7,720.3c-.5,0-.9-.1-1.2-.4-.4-.2-.7-.6-.9-.9-.2-.4-.3-.8-.3-1.3s0-.7.2-1c.1-.3.3-.6.5-.8.2-.2.5-.4.8-.6.3-.1.6-.2,1-.2s.7,0,1.1.2c.3.2.6.4.8.7s.4.6.5,1,.1.7,0,1.1h-3.6c0,.2.1.4.2.5s.2.3.4.4.3.1.6.1c.2,0,.4,0,.6-.2s.3-.2.4-.4l1.2.3c-.2.4-.5.8-.9,1.1-.4.3-.8.4-1.3.4ZM71.4,717.2h2.4c0-.2-.1-.4-.2-.5-.1-.2-.3-.3-.4-.4-.2,0-.4-.1-.6-.1s-.4,0-.6.1c-.2,0-.3.2-.4.4-.1.2-.2.3-.2.5ZM72.3,714.7l.4-1.4h1.2l-.8,1.4h-.8Z"/>
      <path d="M78.6,716.4h-1v3.8h-1.2v-3.8h-.7v-1.2h.7v-1.6h1.2v1.6h1v1.2Z"/>
      <path d="M79.5,720.2v-5s1.2,0,1.2,0v.4c.2-.2.4-.3.6-.4.2-.1.5-.2.8-.2s.4,0,.5,0l-.5,1.2c-.1,0-.3,0-.4,0-.2,0-.4,0-.5.1-.2,0-.3.2-.4.4,0,.2-.1.3-.1.5v2.8h-1.2Z"/>
      <path d="M83.8,714.6c-.2,0-.3,0-.5-.2-.1-.1-.2-.3-.2-.4s0-.3.2-.4c.1-.1.3-.2.4-.2s.3,0,.4.2c.1.1.2.3.2.4s0,.3-.2.4c-.1.1-.3.2-.4.2ZM83.1,715.2h1.2v5h-1.2v-5Z"/>
      <path d="M88.5,718.7l1.1.6c-.2.3-.5.6-.9.8-.3.2-.7.3-1.1.3s-.9-.1-1.2-.4c-.4-.2-.7-.6-.9-.9s-.3-.8-.3-1.3,0-.7.2-1c.1-.3.3-.6.5-.8.2-.2.5-.4.8-.6.3-.1.6-.2,1-.2s.8,0,1.1.3c.3.2.6.4.9.8l-1.1.6c-.1-.1-.3-.2-.4-.3s-.3-.1-.5-.1c-.2,0-.5,0-.6.2-.2.1-.3.3-.5.5-.1.2-.2.4-.2.7s0,.5.2.7c.1.2.3.4.5.5.2.1.4.2.6.2s.3,0,.5-.1c.2,0,.3-.2.4-.3Z"/>
      <path d="M92.5,720.3c-.5,0-.9-.1-1.2-.4-.4-.2-.7-.6-.9-.9s-.3-.8-.3-1.3,0-.7.2-1c.1-.3.3-.6.5-.8.2-.2.5-.4.8-.6.3-.1.6-.2,1-.2s.9.1,1.2.4.7.6.9.9c.2.4.3.8.3,1.3s0,.7-.2,1c-.1.3-.3.6-.5.8-.2.2-.5.4-.8.6s-.6.2-1,.2ZM92.5,719.1c.2,0,.5,0,.7-.2.2-.1.3-.3.5-.5.1-.2.2-.4.2-.7s0-.5-.2-.7c-.1-.2-.3-.4-.5-.5-.2-.1-.4-.2-.6-.2s-.5,0-.6.2c-.2.1-.3.3-.5.5-.1.2-.2.4-.2.7s0,.5.2.7c.1.2.3.4.5.5s.4.2.6.2Z"/>
    </g>
    <g>
      <g class="st1">
        <rect class="st11" x="147.8" y="664.4" width="268.8" height="9" transform="translate(-45.5 21.1) rotate(-4)"/>
      </g>
      <g>
        <rect class="st10" x="249" y="500.8" width="65.1" height="272.8" transform="translate(897.7 312.3) rotate(86)"/>
        <text class="st7" transform="translate(163.1 652.9) rotate(-4)"><tspan x="0" y="0">SOPORTE OJS/OMP</tspan></text>
      </g>
    </g>
    <g>
      <path d="M74.1,616.7v-7h2.3c.4,0,.7,0,1,.3.3.2.5.4.7.7s.3.7.3,1,0,.7-.3,1-.4.6-.7.7c-.3.2-.6.3-1,.3h-1.5v2.9h-.8ZM74.9,613h1.4c.2,0,.4,0,.6-.2.2-.1.3-.3.4-.5.1-.2.2-.4.2-.6s0-.5-.2-.6c-.1-.2-.3-.3-.4-.5-.2-.1-.4-.2-.6-.2h-1.4v2.5Z"/>
      <path d="M79.3,616.7v-5h.8v.6c.2-.2.4-.4.7-.6.3-.1.6-.2.9-.2s.4,0,.6,0l-.3.8c-.1,0-.3,0-.4,0-.2,0-.5,0-.7.2-.2.1-.4.3-.5.5-.1.2-.2.4-.2.7v2.9h-.8Z"/>
      <path d="M84.7,616.8c-.5,0-.9-.1-1.2-.4-.4-.2-.7-.6-.9-.9s-.3-.8-.3-1.3,0-.7.2-1c.1-.3.3-.6.5-.8.2-.2.5-.4.8-.6.3-.1.6-.2,1-.2s.7,0,1,.2c.3.2.6.4.8.6.2.3.4.6.5.9s.2.7.1,1.1h-4.1c0,.3.1.5.3.8.1.2.3.4.6.5.2.1.5.2.8.2.3,0,.6,0,.8-.2s.4-.4.6-.6l.8.2c-.2.4-.5.8-.9,1.1-.4.3-.8.4-1.3.4ZM83.1,613.8h3.2c0-.3-.1-.5-.3-.8-.2-.2-.3-.4-.6-.6-.2-.1-.5-.2-.8-.2s-.5,0-.8.2c-.2.1-.4.3-.6.5-.2.2-.2.5-.3.8Z"/>
      <path d="M89.6,616.8c-.3,0-.5,0-.8-.2-.3,0-.5-.2-.7-.4s-.3-.3-.4-.5l.7-.3c0,.1.1.2.3.3.1,0,.3.2.4.2s.3,0,.5,0,.4,0,.5,0c.2,0,.3-.1.4-.2.1-.1.2-.2.2-.4s0-.3-.2-.4c-.1,0-.3-.2-.4-.2-.2,0-.3-.1-.5-.2-.3,0-.6-.2-.9-.3-.3-.1-.5-.3-.6-.5-.2-.2-.2-.4-.2-.7s0-.6.3-.8c.2-.2.4-.4.7-.5.3-.1.6-.2.9-.2s.8,0,1.1.3c.3.2.6.4.7.7l-.7.4c0-.1-.1-.2-.3-.3-.1,0-.2-.2-.4-.2-.1,0-.3,0-.5,0-.2,0-.4,0-.5,0-.2,0-.3.1-.4.3s-.2.3-.2.4,0,.3.2.4.2.2.4.2.4.1.6.2c.3,0,.6.2.8.3.3.1.5.3.6.5.2.2.2.4.2.7,0,.3,0,.6-.3.8-.2.2-.4.4-.7.5-.3.1-.6.2-.9.2Z"/>
      <path d="M94.9,612.5h-1.1v4.1h-.8v-4.1s-.8,0-.8,0v-.8h.9v-1.6s.8,0,.8,0v1.6h1.1v.8Z"/>
      <path d="M99.7,611.7h.8v5h-.8v-.8c-.2.3-.4.5-.7.7-.3.2-.6.3-1,.3s-.7,0-1-.2-.6-.3-.8-.6c-.2-.2-.4-.5-.6-.8-.1-.3-.2-.7-.2-1s0-.7.2-1c.1-.3.3-.6.6-.8.2-.2.5-.4.8-.6.3-.1.6-.2,1-.2s.7,0,1,.3c.3.2.5.4.7.7v-.8ZM98,616c.3,0,.6,0,.9-.2.2-.2.4-.4.6-.7.1-.3.2-.6.2-.9s0-.6-.2-.9-.3-.5-.6-.7c-.2-.2-.5-.2-.8-.2s-.6,0-.9.2c-.3.2-.5.4-.6.7-.2.3-.2.6-.2.9s0,.6.2.9c.2.3.4.5.6.7.3.2.6.2.9.2Z"/>
      <path d="M101.5,616.7v-5h.8v.6c.2-.2.4-.4.7-.6s.6-.2.9-.2.7,0,1,.3c.3.2.5.4.7.7.2-.3.4-.5.7-.7.3-.2.6-.3,1-.3s.7,0,1,.3.5.4.7.7.3.6.3,1v3.1h-.8v-2.9c0-.2,0-.5-.2-.7-.1-.2-.3-.4-.5-.5-.2-.1-.4-.2-.7-.2s-.5,0-.7.2c-.2.1-.4.3-.5.5-.1.2-.2.4-.2.7v2.9h-.8v-2.9c0-.3,0-.5-.2-.7s-.3-.4-.5-.5c-.2-.1-.4-.2-.7-.2s-.5,0-.7.2-.4.3-.5.5c-.1.2-.2.4-.2.7v2.9h-.8Z"/>
      <path d="M112.4,616.8c-.5,0-.9-.1-1.2-.4-.4-.2-.7-.6-.9-.9s-.3-.8-.3-1.3,0-.7.2-1c.1-.3.3-.6.5-.8.2-.2.5-.4.8-.6.3-.1.6-.2,1-.2s.9.1,1.2.4.7.6.9.9c.2.4.3.8.3,1.3s0,.7-.2,1c-.1.3-.3.6-.5.8-.2.2-.5.4-.8.6s-.6.2-1,.2ZM112.4,616c.3,0,.6,0,.8-.2.2-.2.4-.4.6-.7.1-.3.2-.6.2-.9s0-.6-.2-.9-.3-.5-.6-.7c-.2-.2-.5-.2-.8-.2s-.6,0-.8.2-.4.4-.6.7c-.1.3-.2.6-.2.9s0,.6.2.9c.1.3.3.5.6.6.3.2.5.2.8.2Z"/>
      <path d="M117.2,616.8c-.3,0-.5,0-.8-.2-.3,0-.5-.2-.7-.4s-.3-.3-.4-.5l.7-.3c0,.1.1.2.3.3.1,0,.3.2.4.2s.3,0,.5,0,.4,0,.5,0c.2,0,.3-.1.4-.2.1-.1.2-.2.2-.4s0-.3-.2-.4c-.1,0-.3-.2-.4-.2-.2,0-.3-.1-.5-.2-.3,0-.6-.2-.9-.3-.3-.1-.5-.3-.6-.5-.2-.2-.2-.4-.2-.7s0-.6.3-.8c.2-.2.4-.4.7-.5.3-.1.6-.2.9-.2s.8,0,1.1.3c.3.2.6.4.7.7l-.7.4c0-.1-.1-.2-.3-.3-.1,0-.2-.2-.4-.2-.1,0-.3,0-.5,0-.2,0-.4,0-.5,0-.2,0-.3.1-.4.3s-.2.3-.2.4,0,.3.2.4.2.2.4.2.4.1.6.2c.3,0,.6.2.8.3.3.1.5.3.6.5.2.2.2.4.2.7,0,.3,0,.6-.3.8-.2.2-.4.4-.7.5-.3.1-.6.2-.9.2Z"/>
      <path d="M87.3,625.9c-.3,0-.5,0-.7-.2-.2,0-.5-.2-.6-.4-.2-.2-.3-.3-.4-.5l1-.4c0,0,.1.1.2.2,0,0,.2.1.3.2.1,0,.3,0,.4,0s.2,0,.4,0c.1,0,.2,0,.3-.2s.1-.2.1-.3,0-.2-.1-.3c0,0-.2-.1-.3-.2-.1,0-.3,0-.4,0-.3,0-.6-.2-.9-.3-.3-.1-.5-.3-.7-.5s-.2-.5-.2-.8,0-.6.3-.8c.2-.2.4-.4.7-.6.3-.1.6-.2.9-.2s.8,0,1.1.2.6.4.8.7l-1,.6c0,0-.1-.2-.2-.2,0,0-.2-.1-.3-.2s-.2,0-.3,0c-.1,0-.3,0-.4,0s-.2,0-.3.2c0,0-.1.2-.1.3s0,.2.1.3c0,0,.2.1.4.1.1,0,.3,0,.4.1.3,0,.6.2.8.4.3.1.5.3.6.5s.2.4.2.7c0,.3,0,.6-.3.8-.2.2-.4.4-.7.5s-.6.2-1,.1Z"/>
      <path d="M92.3,626c-.5,0-.9-.1-1.2-.4-.4-.2-.7-.6-.9-.9-.2-.4-.3-.8-.3-1.3s0-.7.2-1c.1-.3.3-.6.5-.8.2-.2.5-.4.8-.6.3-.1.6-.2,1-.2s.7,0,1.1.2c.3.2.6.4.8.7s.4.6.5,1,.1.7,0,1.1h-3.6c0,.2.1.4.2.5s.2.3.4.4.3.1.6.1c.2,0,.4,0,.6-.2s.3-.2.4-.4l1.2.3c-.2.4-.5.8-.9,1.1-.4.3-.8.4-1.3.4ZM91.1,622.9h2.4c0-.2-.1-.4-.2-.5-.1-.2-.3-.3-.4-.4-.2,0-.4-.1-.6-.1s-.4,0-.6.1c-.2,0-.3.2-.4.4-.1.2-.2.3-.2.5Z"/>
      <path d="M95.6,625.8v-5s1.2,0,1.2,0v.4c.2-.2.4-.3.6-.4.2-.1.5-.2.8-.2s.4,0,.5,0l-.5,1.2c-.1,0-.3,0-.4,0-.2,0-.4,0-.5.1-.2,0-.3.2-.4.4,0,.2-.1.3-.1.5v2.8h-1.2Z"/>
      <path d="M102.4,625.8h-1.6l-1.8-5h1.3l1.3,3.6,1.3-3.6h1.3l-1.8,5Z"/>
      <path d="M105.6,620.2c-.2,0-.3,0-.5-.2-.1-.1-.2-.3-.2-.4s0-.3.2-.4c.1-.1.3-.2.4-.2s.3,0,.4.2c.1.1.2.3.2.4s0,.3-.2.4c-.1.1-.3.2-.4.2ZM105,620.9h1.2v5h-1.2v-5Z"/>
      <path d="M110.4,624.3l1.1.6c-.2.3-.5.6-.9.8-.3.2-.7.3-1.1.3s-.9-.1-1.2-.4c-.4-.2-.7-.6-.9-.9s-.3-.8-.3-1.3,0-.7.2-1c.1-.3.3-.6.5-.8.2-.2.5-.4.8-.6.3-.1.6-.2,1-.2s.8,0,1.1.3c.3.2.6.4.9.8l-1.1.6c-.1-.1-.3-.2-.4-.3s-.3-.1-.5-.1c-.2,0-.5,0-.6.2-.2.1-.3.3-.5.5-.1.2-.2.4-.2.7s0,.5.2.7c.1.2.3.4.5.5.2.1.4.2.6.2s.3,0,.5-.1c.2,0,.3-.2.4-.3Z"/>
      <path d="M112.8,620.2c-.2,0-.3,0-.5-.2-.1-.1-.2-.3-.2-.4s0-.3.2-.4c.1-.1.3-.2.4-.2s.3,0,.4.2c.1.1.2.3.2.4s0,.3-.2.4c-.1.1-.3.2-.4.2ZM112.2,620.9h1.2v5h-1.2v-5Z"/>
      <path d="M116.6,626c-.5,0-.9-.1-1.2-.4-.4-.2-.7-.6-.9-.9s-.3-.8-.3-1.3,0-.7.2-1c.1-.3.3-.6.5-.8.2-.2.5-.4.8-.6.3-.1.6-.2,1-.2s.9.1,1.2.4.7.6.9.9c.2.4.3.8.3,1.3s0,.7-.2,1c-.1.3-.3.6-.5.8-.2.2-.5.4-.8.6s-.6.2-1,.2ZM116.6,624.7c.2,0,.5,0,.7-.2.2-.1.3-.3.5-.5.1-.2.2-.4.2-.7s0-.5-.2-.7c-.1-.2-.3-.4-.5-.5-.2-.1-.4-.2-.6-.2s-.5,0-.6.2c-.2.1-.3.3-.5.5-.1.2-.2.4-.2.7s0,.5.2.7c.1.2.3.4.5.5s.4.2.6.2Z"/>
      <path d="M72.6,631.2h-1v3.8h-1.2v-3.8h-.7v-1.2h.7v-1.6h1.2v1.6h1v1.2Z"/>
      <path d="M75.6,635.1c-.5,0-.9-.1-1.2-.4-.4-.2-.7-.6-.9-.9s-.3-.8-.3-1.3,0-.7.2-1c.1-.3.3-.6.5-.8.2-.2.5-.4.8-.6.3-.1.6-.2,1-.2s.9.1,1.2.4.7.6.9.9c.2.4.3.8.3,1.3s0,.7-.2,1c-.1.3-.3.6-.5.8-.2.2-.5.4-.8.6s-.6.2-1,.2ZM75.6,633.9c.2,0,.5,0,.7-.2.2-.1.3-.3.5-.5.1-.2.2-.4.2-.7s0-.5-.2-.7c-.1-.2-.3-.4-.5-.5-.2-.1-.4-.2-.6-.2s-.5,0-.6.2c-.2.1-.3.3-.5.5-.1.2-.2.4-.2.7s0,.5.2.7c.1.2.3.4.5.5s.4.2.6.2Z"/>
      <path d="M82.6,627.6h1.2v7.5h-1.2v-.6c-.2.2-.4.4-.6.5-.2.1-.5.2-.8.2s-.7,0-1-.2c-.3-.1-.6-.3-.8-.6-.2-.2-.4-.5-.6-.8-.1-.3-.2-.7-.2-1s0-.7.2-1c.1-.3.3-.6.6-.8s.5-.4.8-.6c.3-.1.7-.2,1-.2s.6,0,.8.2.4.3.6.5v-3.1ZM81.2,634c.3,0,.5,0,.7-.2.2-.1.4-.3.5-.5.1-.2.2-.5.2-.7s0-.5-.2-.7c-.1-.2-.3-.4-.5-.5-.2-.1-.4-.2-.7-.2s-.5,0-.7.2c-.2.1-.4.3-.5.5-.1.2-.2.5-.2.7s0,.5.2.7c.1.2.3.4.5.5.2.1.4.2.7.2Z"/>
      <path d="M87.1,635.1c-.5,0-.9-.1-1.2-.4-.4-.2-.7-.6-.9-.9s-.3-.8-.3-1.3,0-.7.2-1c.1-.3.3-.6.5-.8.2-.2.5-.4.8-.6.3-.1.6-.2,1-.2s.9.1,1.2.4.7.6.9.9c.2.4.3.8.3,1.3s0,.7-.2,1c-.1.3-.3.6-.5.8-.2.2-.5.4-.8.6s-.6.2-1,.2ZM87.1,633.9c.2,0,.5,0,.7-.2.2-.1.3-.3.5-.5.1-.2.2-.4.2-.7s0-.5-.2-.7c-.1-.2-.3-.4-.5-.5-.2-.1-.4-.2-.6-.2s-.5,0-.6.2c-.2.1-.3.3-.5.5-.1.2-.2.4-.2.7s0,.5.2.7c.1.2.3.4.5.5s.4.2.6.2Z"/>
      <path d="M95.1,635.1c-.5,0-.9-.1-1.2-.4-.4-.2-.7-.6-.9-.9-.2-.4-.3-.8-.3-1.3s0-.7.2-1c.1-.3.3-.6.5-.8.2-.2.5-.4.8-.6.3-.1.6-.2,1-.2s.7,0,1.1.2c.3.2.6.4.8.7s.4.6.5,1,.1.7,0,1.1h-3.6c0,.2.1.4.2.5s.2.3.4.4.3.1.6.1c.2,0,.4,0,.6-.2s.3-.2.4-.4l1.2.3c-.2.4-.5.8-.9,1.1-.4.3-.8.4-1.3.4ZM93.9,632h2.4c0-.2-.1-.4-.2-.5-.1-.2-.3-.3-.4-.4-.2,0-.4-.1-.6-.1s-.4,0-.6.1c-.2,0-.3.2-.4.4-.1.2-.2.3-.2.5Z"/>
      <path d="M98.3,635v-7.5h1.2v7.5h-1.2Z"/>
      <path d="M106.8,630h1.2v5h-1.2v-.6c-.2.2-.4.4-.6.5s-.5.2-.8.2-.7,0-1-.2c-.3-.1-.6-.3-.8-.6-.2-.2-.4-.5-.6-.8-.1-.3-.2-.7-.2-1s0-.7.2-1,.3-.6.5-.8c.2-.2.5-.4.8-.6.3-.1.6-.2,1-.2s.6,0,.9.2c.3.1.5.3.7.6v-.6ZM105.4,634c.3,0,.5,0,.7-.2.2-.1.4-.3.5-.5.1-.2.2-.5.2-.7s0-.5-.2-.7c-.1-.2-.3-.4-.5-.5-.2-.1-.4-.2-.7-.2s-.5,0-.7.2c-.2.1-.4.3-.5.5-.1.2-.2.5-.2.7s0,.5.2.7c.1.2.3.4.5.5.2.1.4.2.7.2Z"/>
      <path d="M113.6,631.9v3.1h-1.2v-2.8c0-.2,0-.4-.1-.5,0-.2-.2-.3-.4-.4-.2,0-.3-.1-.5-.1s-.4,0-.5.1c-.2,0-.3.2-.4.4,0,.2-.1.3-.1.5v2.8h-1.2v-5s1.2,0,1.2,0v.4c.2-.2.4-.3.6-.4.2-.1.5-.2.8-.2s.7,0,1,.3c.3.2.5.4.7.7.2.3.3.6.3,1ZM112.1,629.5c-.1,0-.3,0-.4-.1-.2,0-.3-.2-.5-.3-.2-.1-.3-.2-.4-.3s-.2,0-.3,0c0,0,0,0,0,.2,0,0,0,.2,0,.3l-.7.2c0-.3-.1-.5,0-.7,0-.2.1-.4.3-.5.2-.1.4-.2.6-.2s.3,0,.4.1c.2,0,.3.2.5.2.2,0,.3.2.4.2s.2.1.3.1.1,0,.1,0c0,0,0-.1,0-.2,0,0,0-.1,0-.2l.7-.2c0,.3.1.5,0,.7,0,.2-.2.4-.3.5-.2.1-.4.2-.6.2Z"/>
      <path d="M116.6,635.1c-.5,0-.9-.1-1.2-.4-.4-.2-.7-.6-.9-.9s-.3-.8-.3-1.3,0-.7.2-1c.1-.3.3-.6.5-.8.2-.2.5-.4.8-.6.3-.1.6-.2,1-.2s.9.1,1.2.4.7.6.9.9c.2.4.3.8.3,1.3s0,.7-.2,1c-.1.3-.3.6-.5.8-.2.2-.5.4-.8.6s-.6.2-1,.2ZM116.6,633.9c.2,0,.5,0,.7-.2.2-.1.3-.3.5-.5.1-.2.2-.4.2-.7s0-.5-.2-.7c-.1-.2-.3-.4-.5-.5-.2-.1-.4-.2-.6-.2s-.5,0-.6.2c-.2.1-.3.3-.5.5-.1.2-.2.4-.2.7s0,.5.2.7c.1.2.3.4.5.5s.4.2.6.2Z"/>
    </g>
    <g>
      <rect class="st14" x="221.5" y="206.8" width="65.1" height="302.6" transform="translate(627.1 126.5) rotate(93.5)"/>
      <text class="st6" transform="translate(132.9 358) rotate(3.5)"><tspan x="0" y="0">IMPLEMENTACIÓN</tspan></text>
    </g>
  </g>
</svg>