<?xml version="1.0" encoding="UTF-8"?>
<svg id="Capa_1" xmlns="http://www.w3.org/2000/svg" version="1.1" xmlns:xlink="http://www.w3.org/1999/xlink" viewBox="0 0 768 1024">
  <!-- Generator: Adobe Illustrator 29.3.1, SVG Export Plug-In . SVG Version: 2.1.0 Build 151)  -->
  <defs>
    <style>
      .st0 {
        fill: #8a236e;
      }

      .st1 {
        filter: url(#AI_DesenfoqueGaussiano_74);
      }

      .st1, .st2, .st3, .st4, .st5 {
        opacity: .5;
      }

      .st2 {
        filter: url(#AI_DesenfoqueGaussiano_71);
      }

      .st6 {
        opacity: 1;
      }

      .st6, .st7, .st8, .st9 {
        fill: #fff;
        font-family: BonoboSemiBold, Bonobo;
      }

      .st6, .st9 {
        font-size: 36.3px;
      }

      .st10 {
        fill: #cd3c17;
      }

      .st3 {
        filter: url(#AI_DesenfoqueGaussiano_73);
      }

      .st11 {
        fill: #333;
      }

      .st12 {
        fill: none;
        stroke: #4d4d4d;
        stroke-miterlimit: 10;
        stroke-width: 2px;
      }

      .st4 {
        filter: url(#AI_DesenfoqueGaussiano_7);
      }

      .st5 {
        filter: url(#AI_DesenfoqueGaussiano_72);
      }

      .st7 {
        font-size: 36.3px;
      }

      .st8 {
        font-size: 36.3px;
      }

      .st13 {
        fill: #f29c37;
      }

      .st14 {
        fill: #046e7c;
      }
    </style>
    <filter id="AI_DesenfoqueGaussiano_7">
      <feGaussianBlur stdDeviation="7"/>
    </filter>
    <filter id="AI_DesenfoqueGaussiano_71" data-name="AI_DesenfoqueGaussiano_7">
      <feGaussianBlur stdDeviation="7"/>
    </filter>
    <filter id="AI_DesenfoqueGaussiano_72" data-name="AI_DesenfoqueGaussiano_7">
      <feGaussianBlur stdDeviation="7"/>
    </filter>
    <filter id="AI_DesenfoqueGaussiano_73" data-name="AI_DesenfoqueGaussiano_7">
      <feGaussianBlur stdDeviation="7"/>
    </filter>
    <filter id="AI_DesenfoqueGaussiano_74" data-name="AI_DesenfoqueGaussiano_7">
      <feGaussianBlur stdDeviation="7"/>
    </filter>
  </defs>
  <g>
    <path d="M620.4,86.8c-1.6,0-3-.3-4.4-.9-1.3-.6-2.5-1.5-3.5-2.5s-1.8-2.3-2.3-3.7c-.6-1.4-.8-2.9-.8-4.5s.3-3.2.9-4.6c.6-1.4,1.4-2.6,2.5-3.7s2.2-1.8,3.6-2.4c1.3-.6,2.7-.8,4.2-.8s3.2.4,4.7,1.1c1.5.8,2.9,1.9,4,3.5l-3.5,1.9c-.7-.9-1.5-1.5-2.5-2-.9-.4-1.9-.6-2.8-.6s-1.8.2-2.7.6c-.9.4-1.6.9-2.3,1.6-.7.7-1.2,1.5-1.6,2.5s-.6,2-.6,3.1.2,2.1.6,3c.4.9.9,1.8,1.5,2.5.7.7,1.4,1.2,2.3,1.6.9.4,1.8.6,2.8.6s1.3-.1,1.9-.3,1.2-.5,1.8-.9c.6-.4,1.1-.9,1.5-1.4.4-.6.8-1.2,1.1-1.9h-4.1v-3.4h8.7c0,1.6-.2,3.2-.8,4.6s-1.3,2.7-2.4,3.8c-1,1.1-2.2,2-3.5,2.6-1.3.6-2.8.9-4.4.9Z"/>
    <path d="M634.3,86.4v-22.4h14.1v3.9h-10.2v4.6h8.1v3.9h-8.1v6.2h10.2v3.9h-14.1Z"/>
    <path d="M660,86.8c-1.2,0-2.4-.2-3.6-.6-1.1-.4-2.1-1-3-1.7-.9-.7-1.5-1.6-1.8-2.6l3.7-1.3c.1.4.5.8.9,1.2.5.4,1,.6,1.7.8.7.2,1.4.3,2.1.3s1.5-.1,2.2-.4c.7-.2,1.2-.6,1.6-1,.4-.4.6-.9.6-1.5s-.2-1.1-.7-1.5c-.4-.4-1-.7-1.7-.9-.7-.2-1.4-.4-2.1-.5-1.6-.2-3-.6-4.3-1.1-1.3-.5-2.3-1.2-3-2.1-.7-.9-1.1-2.1-1.1-3.5s.4-2.5,1.2-3.6c.8-1,1.8-1.8,3.1-2.4,1.3-.6,2.6-.8,4.1-.8s2.4.2,3.6.6,2.1.9,3,1.7c.9.7,1.5,1.6,1.9,2.7l-3.7,1.3c-.2-.4-.5-.8-.9-1.2-.5-.4-1-.6-1.7-.8-.7-.2-1.4-.3-2.1-.3-.8,0-1.5.1-2.2.4s-1.2.6-1.7,1c-.4.4-.6.9-.6,1.5s.2,1.3.6,1.6c.4.4.9.6,1.6.8.7.2,1.4.3,2.2.5,1.5.2,2.9.6,4.2,1.2,1.3.6,2.3,1.3,3.1,2.2.8.9,1.2,2.1,1.2,3.4s-.4,2.5-1.2,3.6-1.8,1.8-3.1,2.4c-1.3.6-2.7.8-4.2.8Z"/>
    <path d="M688.2,63.9v3.9h-6.9v18.5h-3.9v-18.5h-6.9v-3.9h17.6Z"/>
    <path d="M691.9,86.4v-22.4h3.9v22.4h-3.9Z"/>
    <path d="M710.6,86.8c-1.5,0-2.9-.3-4.3-.9-1.3-.6-2.5-1.4-3.5-2.5-1-1.1-1.8-2.3-2.4-3.7-.6-1.4-.9-2.9-.9-4.5s.3-3.1.9-4.5c.6-1.4,1.4-2.6,2.4-3.7s2.2-1.9,3.5-2.5c1.3-.6,2.8-.9,4.3-.9s3,.3,4.3.9c1.3.6,2.5,1.4,3.5,2.5s1.8,2.3,2.4,3.7c.6,1.4.9,2.9.9,4.5s-.3,3.1-.9,4.5c-.6,1.4-1.4,2.6-2.4,3.7-1,1.1-2.2,1.9-3.5,2.5-1.3.6-2.8.9-4.3.9ZM710.6,82.9c1,0,1.9-.2,2.8-.6.9-.4,1.6-1,2.3-1.7s1.2-1.5,1.5-2.5c.4-.9.6-1.9.6-3s-.2-2.1-.6-3c-.4-.9-.9-1.8-1.5-2.5-.7-.7-1.4-1.3-2.3-1.7-.9-.4-1.8-.6-2.8-.6s-1.9.2-2.8.6c-.9.4-1.6,1-2.3,1.7-.7.7-1.2,1.5-1.5,2.5-.4.9-.6,1.9-.6,3s.2,2.1.6,3c.4.9.9,1.8,1.5,2.5.7.7,1.4,1.3,2.3,1.7s1.8.6,2.8.6ZM709.6,62.2l1.3-4.6h3.9l-2.6,4.6h-2.6Z"/>
    <path d="M724.5,86.4v-22.4h4.2l9.5,15.4v-15.4h3.9v22.4h-4.2l-9.5-15.4v15.4h-3.9Z"/>
    <path d="M587.5,115.6v-22.4h14.1v3.9h-10.2v4.6h8.1v3.9h-8.1v6.2h10.2v3.9h-14.1Z"/>
    <path d="M605.2,115.6v-22.4h7.4c1.5,0,3,.3,4.4.9,1.4.6,2.5,1.4,3.6,2.4,1,1,1.8,2.2,2.4,3.6.6,1.4.9,2.8.9,4.4s-.3,3-.9,4.4c-.6,1.4-1.4,2.5-2.4,3.6s-2.2,1.8-3.6,2.4c-1.4.6-2.8.9-4.4.9h-7.4ZM609.1,111.7h3.5c1,0,1.9-.2,2.8-.6s1.7-.9,2.3-1.6c.7-.7,1.2-1.4,1.6-2.3s.6-1.8.6-2.8-.2-2-.6-2.8c-.4-.9-.9-1.7-1.6-2.3-.7-.7-1.4-1.2-2.3-1.6-.9-.4-1.8-.6-2.8-.6h-3.5v14.6Z"/>
    <path d="M626.9,115.6v-22.4h3.9v22.4h-3.9Z"/>
    <path d="M652.1,93.1v3.9h-6.9v18.5h-3.9v-18.5h-6.9v-3.9h17.6Z"/>
    <path d="M664.5,116c-1.5,0-2.9-.3-4.3-.9-1.3-.6-2.5-1.4-3.5-2.5-1-1.1-1.8-2.3-2.4-3.7-.6-1.4-.9-2.9-.9-4.5s.3-3.1.9-4.5c.6-1.4,1.4-2.6,2.4-3.7s2.2-1.9,3.5-2.5c1.3-.6,2.8-.9,4.3-.9s3,.3,4.3.9c1.3.6,2.5,1.4,3.5,2.5s1.8,2.3,2.4,3.7c.6,1.4.9,2.9.9,4.5s-.3,3.1-.9,4.5c-.6,1.4-1.4,2.6-2.4,3.7-1,1.1-2.2,1.9-3.5,2.5-1.3.6-2.8.9-4.3.9ZM664.5,112.1c1,0,1.9-.2,2.8-.6.9-.4,1.6-1,2.3-1.7s1.2-1.5,1.5-2.5c.4-.9.6-1.9.6-3s-.2-2.1-.6-3c-.4-.9-.9-1.8-1.5-2.5-.7-.7-1.4-1.3-2.3-1.7-.9-.4-1.8-.6-2.8-.6s-1.9.2-2.8.6c-.9.4-1.6,1-2.3,1.7-.7.7-1.2,1.5-1.5,2.5-.4.9-.6,1.9-.6,3s.2,2.1.6,3c.4.9.9,1.8,1.5,2.5.7.7,1.4,1.3,2.3,1.7s1.8.6,2.8.6Z"/>
    <path d="M678.5,115.6v-22.4h8.6c1.2,0,2.3.3,3.3.9,1,.6,1.8,1.4,2.3,2.4.6,1,.9,2.2.9,3.4s-.2,1.9-.6,2.8c-.4.8-.9,1.6-1.5,2.2-.7.6-1.4,1.1-2.3,1.4l5.4,9.3h-4.5l-5.2-8.9h-2.5v8.9h-3.9ZM682.4,102.7h4.2c.6,0,1.1-.1,1.5-.4.5-.3.8-.7,1.1-1.1.3-.5.4-1,.4-1.6s-.1-1.1-.4-1.6c-.3-.5-.6-.8-1.1-1.1-.5-.3-1-.4-1.5-.4h-4.2v6.2Z"/>
    <path d="M698.1,115.6v-22.4h3.9v22.4h-3.9Z"/>
    <path d="M713.9,93.1h4.5l8.2,22.4h-4.2l-1.4-4h-9.6l-1.4,4h-4.2l8.1-22.4ZM712.7,107.7h6.7l-3.4-9.3-3.4,9.3Z"/>
    <path d="M729.2,115.6v-22.4h3.9v18.5h9.3v3.9h-13.3Z"/>
  </g>
  <g>
    <path class="st14" d="M203.5,120.7c-3.8,0-7.4-.8-10.7-2.3-3.3-1.5-6.3-3.6-8.8-6.3-2.5-2.7-4.5-5.8-6-9.3-1.4-3.5-2.2-7.3-2.2-11.3s.7-7.8,2.2-11.3c1.4-3.5,3.4-6.6,6-9.3,2.5-2.7,5.5-4.8,8.8-6.3,3.3-1.5,6.9-2.3,10.7-2.3s7.4.8,10.8,2.3c3.3,1.5,6.3,3.6,8.8,6.3,2.5,2.7,4.5,5.8,6,9.3,1.4,3.5,2.1,7.3,2.1,11.3s-.7,7.8-2.1,11.3c-1.4,3.5-3.4,6.6-6,9.3-2.5,2.7-5.5,4.8-8.8,6.3-3.3,1.5-6.9,2.3-10.8,2.3ZM203.5,110.9c2.5,0,4.8-.5,6.9-1.5,2.2-1,4.1-2.4,5.7-4.2,1.6-1.8,2.9-3.8,3.9-6.2.9-2.3,1.4-4.8,1.4-7.5s-.5-5.1-1.4-7.5c-.9-2.3-2.2-4.4-3.9-6.2-1.6-1.8-3.5-3.2-5.7-4.2-2.2-1-4.5-1.5-6.9-1.5s-4.8.5-6.9,1.5c-2.2,1-4.1,2.4-5.7,4.2-1.6,1.8-2.9,3.8-3.9,6.2-.9,2.3-1.4,4.8-1.4,7.5s.5,5.2,1.4,7.5c.9,2.3,2.2,4.4,3.9,6.2,1.6,1.8,3.5,3.2,5.7,4.2,2.2,1,4.5,1.5,6.9,1.5Z"/>
    <path class="st14" d="M242.5,120.7c-2.1,0-4.1-.3-6-1-2-.7-3.8-1.7-5.4-3.1l6.3-7.5c.6.5,1.3.9,2.2,1.3.9.4,1.8.6,3,.6s2.8-.4,4-1.1c1.2-.8,2.2-1.8,2.9-3,.7-1.2,1.1-2.6,1.1-4.1v-39.2h9.8v39.2c0,3.3-.8,6.3-2.4,9-1.6,2.7-3.8,4.9-6.5,6.5s-5.7,2.5-9,2.5Z"/>
    <path class="st14" d="M290.2,120.7c-3.1,0-6.1-.5-8.9-1.5s-5.3-2.4-7.5-4.2c-2.1-1.8-3.7-4-4.6-6.6l9.2-3.4c.4,1.1,1.1,2,2.3,2.9,1.2.9,2.6,1.6,4.2,2.1,1.7.5,3.4.8,5.3.8s3.8-.3,5.5-.9c1.7-.6,3.1-1.4,4.1-2.5s1.6-2.3,1.6-3.8-.5-2.7-1.6-3.6c-1.1-.9-2.5-1.7-4.2-2.3-1.7-.6-3.5-1-5.3-1.3-4-.6-7.6-1.6-10.7-2.9-3.2-1.3-5.7-3.1-7.5-5.3-1.8-2.3-2.8-5.2-2.8-8.8s1-6.4,2.9-8.9c2-2.5,4.5-4.5,7.7-5.9,3.2-1.4,6.6-2.1,10.3-2.1s6,.5,8.9,1.4c2.9,1,5.4,2.4,7.5,4.2,2.2,1.8,3.7,4.1,4.6,6.7l-9.2,3.3c-.4-1.1-1.1-2-2.3-2.9-1.2-.9-2.6-1.6-4.2-2.1-1.7-.5-3.4-.8-5.3-.8-1.9,0-3.7.3-5.4.9-1.7.6-3.1,1.5-4.2,2.5s-1.6,2.3-1.6,3.7.5,3.1,1.5,4.1c1,.9,2.3,1.6,4,2,1.7.4,3.6.8,5.6,1.1,3.7.6,7.2,1.6,10.4,3,3.2,1.4,5.7,3.2,7.7,5.6,1.9,2.3,2.9,5.1,2.9,8.5s-1,6.4-2.9,8.9c-1.9,2.6-4.5,4.5-7.7,6-3.2,1.4-6.7,2.1-10.4,2.1Z"/>
    <path class="st14" d="M344.6,63.4l-16.3,60.7h-9.8l16.3-60.7h9.8Z"/>
    <path class="st14" d="M378.7,120.7c-3.8,0-7.4-.8-10.7-2.3-3.3-1.5-6.3-3.6-8.8-6.3-2.5-2.7-4.5-5.8-6-9.3-1.4-3.5-2.2-7.3-2.2-11.3s.7-7.8,2.2-11.3c1.4-3.5,3.4-6.6,6-9.3,2.5-2.7,5.5-4.8,8.8-6.3,3.3-1.5,6.9-2.3,10.7-2.3s7.4.8,10.8,2.3c3.3,1.5,6.3,3.6,8.8,6.3,2.5,2.7,4.5,5.8,6,9.3,1.4,3.5,2.1,7.3,2.1,11.3s-.7,7.8-2.1,11.3c-1.4,3.5-3.4,6.6-6,9.3-2.5,2.7-5.5,4.8-8.8,6.3-3.3,1.5-6.9,2.3-10.8,2.3ZM378.7,110.9c2.5,0,4.8-.5,6.9-1.5,2.2-1,4.1-2.4,5.7-4.2,1.6-1.8,2.9-3.8,3.9-6.2.9-2.3,1.4-4.8,1.4-7.5s-.5-5.1-1.4-7.5c-.9-2.3-2.2-4.4-3.9-6.2-1.6-1.8-3.5-3.2-5.7-4.2-2.2-1-4.5-1.5-6.9-1.5s-4.8.5-6.9,1.5c-2.2,1-4.1,2.4-5.7,4.2-1.6,1.8-2.9,3.8-3.9,6.2-.9,2.3-1.4,4.8-1.4,7.5s.5,5.2,1.4,7.5c.9,2.3,2.2,4.4,3.9,6.2,1.6,1.8,3.5,3.2,5.7,4.2,2.2,1,4.5,1.5,6.9,1.5Z"/>
    <path class="st14" d="M411.7,119.6l10.9-56.2h8.1l13.7,36,13.7-36h8.1l10.9,56.2h-10l-6.7-34.8-12.6,33.5h-6.7l-12.6-33.5-6.7,34.8h-10Z"/>
    <path class="st14" d="M485.2,119.6v-56.2h20.1c3.1,0,5.8.8,8.3,2.3s4.4,3.6,5.9,6.1,2.2,5.4,2.2,8.5-.7,6-2.2,8.6c-1.5,2.6-3.5,4.6-6,6.1-2.5,1.5-5.2,2.3-8.1,2.3h-10.3v22.4h-9.8ZM495,87.5h9.2c1.4,0,2.7-.3,3.8-1,1.2-.7,2.1-1.6,2.8-2.8.7-1.2,1-2.5,1-3.9s-.3-2.8-1-4c-.7-1.2-1.6-2.1-2.8-2.8-1.2-.7-2.4-1-3.8-1h-9.2v15.6Z"/>
  </g>
  <rect x="556.2" y="57.8" width="1.5" height="68.2"/>
  <g>
    <path class="st12" d="M190.8,326.9c-13.6,0-27.2.1-40.9.2-5-12.5-10.1-25-15.1-37.5"/>
    <path class="st12" d="M233.1,526.3c-13.6,0-27.2.1-40.9.2-5-12.5-10.1-25-15.1-37.5"/>
    <path class="st12" d="M266.4,824.6c-13.6,0-27.2.1-40.9.2-5-12.5-10.1-25-15.1-37.5"/>
    <path class="st12" d="M231.9,973.2c-13.6,0-27.2.1-40.9.2-5-12.5-10.1-25-15.1-37.5"/>
    <g>
      <path d="M69.3,187.1c-1.4,0-2.6-.3-3.6-1s-1.8-1.6-2.3-2.7c-.5-1.1-.8-2.4-.8-3.8v-10h2.1v10c0,1,.2,1.9.5,2.7.4.8.9,1.5,1.6,2,.7.5,1.5.7,2.5.7s1.9-.2,2.5-.7c.7-.5,1.2-1.2,1.6-2,.4-.8.5-1.7.5-2.7v-10h2.1v10c0,1-.2,2-.5,2.9-.3.9-.8,1.7-1.3,2.4-.6.7-1.3,1.2-2.1,1.6s-1.8.6-2.8.6Z"/>
      <path d="M85.3,176.6h-2.8v10.2h-2.1v-10.2s-2.1,0-2.1,0v-2.1h2.1v-3.8s2,0,2,0v3.8h2.8v2.1Z"/>
      <path d="M88.4,172.5c-.3,0-.6-.1-.8-.3-.2-.2-.3-.5-.3-.8s.1-.6.3-.8.5-.3.8-.3.6.1.8.3c.2.2.3.5.3.8s-.1.6-.3.8c-.2.2-.5.3-.8.3ZM87.4,174.5h2.1v12.3h-2.1v-12.3Z"/>
      <path d="M92.4,186.8v-18.4h2.1v18.4h-2.1Z"/>
      <path d="M98.5,172.5c-.3,0-.6-.1-.8-.3-.2-.2-.3-.5-.3-.8s.1-.6.3-.8.5-.3.8-.3.6.1.8.3c.2.2.3.5.3.8s-.1.6-.3.8c-.2.2-.5.3-.8.3ZM97.4,174.5h2.1v12.3h-2.1v-12.3Z"/>
      <path d="M112.4,176.6l-7.5,8.1h7.5v2.1h-10.5v-2.1l7.5-8.1h-7.5v-2.1h10.5v2.1Z"/>
      <path d="M124.6,174.5h2.1v12.3h-2.1v-2.1c-.5.7-1,1.3-1.7,1.7-.7.4-1.5.7-2.4.7s-1.7-.2-2.5-.5-1.5-.8-2.1-1.4c-.6-.6-1.1-1.3-1.4-2.1s-.5-1.6-.5-2.5.2-1.7.5-2.5c.3-.8.8-1.5,1.4-2,.6-.6,1.3-1,2-1.4.8-.3,1.6-.5,2.5-.5s1.8.2,2.5.7c.7.5,1.3,1,1.8,1.8v-2.1ZM120.4,185.1c.8,0,1.5-.2,2.1-.6.6-.4,1-.9,1.4-1.6.3-.7.5-1.4.5-2.2s-.2-1.6-.5-2.3c-.3-.7-.8-1.2-1.4-1.6-.6-.4-1.3-.6-2.1-.6s-1.5.2-2.2.6c-.7.4-1.2.9-1.6,1.6-.4.7-.6,1.4-.6,2.2s.2,1.6.6,2.2c.4.7.9,1.2,1.6,1.6.7.4,1.4.6,2.2.6Z"/>
      <path d="M142.9,187.1c-1.2,0-2.3-.2-3.3-.7s-1.9-1.1-2.7-1.9c-.8-.8-1.4-1.8-1.8-2.8-.4-1.1-.7-2.2-.7-3.4s.2-2.4.7-3.4c.4-1.1,1-2,1.8-2.8.8-.8,1.7-1.5,2.7-1.9s2.1-.7,3.3-.7,2.3.2,3.3.7,1.9,1.1,2.7,1.9,1.4,1.8,1.8,2.8c.4,1.1.7,2.2.7,3.4s-.2,2.4-.7,3.4c-.4,1.1-1,2-1.8,2.8-.8.8-1.7,1.5-2.7,1.9s-2.1.7-3.3.7ZM142.9,185c.9,0,1.7-.2,2.5-.5s1.4-.9,2-1.5c.6-.6,1-1.4,1.4-2.2.3-.8.5-1.7.5-2.6s-.2-1.8-.5-2.6-.8-1.6-1.4-2.2-1.3-1.1-2-1.5-1.6-.5-2.5-.5-1.7.2-2.5.5-1.5.9-2,1.5c-.6.6-1,1.4-1.4,2.2-.3.8-.5,1.7-.5,2.6s.2,1.8.5,2.6c.3.8.8,1.6,1.4,2.2.6.6,1.3,1.1,2,1.5s1.6.5,2.5.5Z"/>
      <path d="M154.8,187.1c-.6,0-1.1,0-1.7-.3s-1-.5-1.5-.9l1.3-1.6c.2.2.5.4.8.5.3.1.7.2,1,.2.5,0,1-.1,1.5-.4.4-.3.8-.7,1.1-1.1.3-.5.4-1,.4-1.5v-12.4h2.1v12.4c0,.9-.2,1.8-.7,2.5s-1,1.4-1.8,1.9-1.6.7-2.5.7Z"/>
      <path d="M168.8,187.1c-.9,0-1.8-.1-2.7-.4-.9-.3-1.6-.7-2.2-1.2-.6-.5-1.1-1.2-1.4-1.9l1.9-.7c.2.5.5.9.9,1.2.4.3,1,.6,1.6.8s1.2.3,1.9.3,1.4-.1,2.1-.4c.6-.2,1.1-.6,1.5-1,.4-.4.6-.9.6-1.5s-.2-1.1-.6-1.5c-.4-.4-.9-.7-1.6-.9s-1.3-.4-2-.5c-1.2-.2-2.2-.5-3.2-.8-.9-.4-1.7-.9-2.2-1.5-.5-.7-.8-1.5-.8-2.6s.3-1.9.9-2.6c.6-.7,1.3-1.3,2.3-1.7.9-.4,2-.6,3.1-.6s1.8.1,2.6.4,1.6.7,2.3,1.2c.7.5,1.1,1.2,1.4,2l-1.9.7c-.2-.5-.5-.9-.9-1.2s-1-.6-1.6-.8c-.6-.2-1.2-.3-1.9-.3-.7,0-1.4.1-2,.4s-1.1.6-1.5,1-.6.9-.6,1.5.2,1.2.5,1.6.9.6,1.5.8,1.3.3,2.1.5c1.1.2,2.1.5,3.1.9s1.7.9,2.3,1.6c.6.7.9,1.5.9,2.5s-.3,1.9-.9,2.6c-.6.7-1.3,1.3-2.3,1.7-.9.4-2,.6-3.1.6Z"/>
      <path d="M183.2,182.1v-7.6h2.1v7.1c0,.6.2,1.2.5,1.7.3.5.7.9,1.2,1.2.5.3,1.1.4,1.7.4s1.2-.1,1.7-.4c.5-.3.9-.7,1.2-1.2s.5-1.1.5-1.7v-7.1h2.1v12.3s-2,0-2,0v-1.6c-.4.6-1,1-1.7,1.4s-1.4.5-2.1.5-1.8-.2-2.5-.7c-.8-.4-1.4-1-1.8-1.8s-.7-1.6-.7-2.5Z"/>
      <path d="M69,210.6c-1.2,0-2.3-.2-3.3-.7s-1.9-1.1-2.7-1.9c-.8-.8-1.4-1.8-1.8-2.8-.4-1.1-.7-2.2-.7-3.4s.2-2.4.7-3.4c.4-1.1,1-2,1.8-2.8.8-.8,1.7-1.5,2.7-1.9s2.1-.7,3.3-.7,2.3.2,3.3.7,1.9,1.1,2.7,1.9,1.4,1.8,1.8,2.8c.4,1.1.7,2.2.7,3.4s-.2,2.4-.7,3.4c-.4,1.1-1,2-1.8,2.8-.8.8-1.7,1.5-2.7,1.9s-2.1.7-3.3.7ZM69,208.6c.9,0,1.7-.2,2.5-.5s1.4-.9,2-1.5c.6-.6,1-1.4,1.4-2.2.3-.8.5-1.7.5-2.6s-.2-1.8-.5-2.6-.8-1.6-1.4-2.2-1.3-1.1-2-1.5-1.6-.5-2.5-.5-1.7.2-2.5.5-1.5.9-2,1.5c-.6.6-1,1.4-1.4,2.2-.3.8-.5,1.7-.5,2.6s.2,1.8.5,2.6c.3.8.8,1.6,1.4,2.2.6.6,1.3,1.1,2,1.5s1.6.5,2.5.5Z"/>
      <path d="M79.4,210.3l3.3-17.2h1.6l4.6,12.2,4.6-12.2h1.6l3.3,17.2h-2.1l-2.4-12.4-4.4,11.5h-1.4l-4.3-11.5-2.4,12.4h-2.1Z"/>
      <path d="M101,210.3v-17.2h5.7c.9,0,1.8.2,2.5.7s1.3,1.1,1.8,1.8c.4.8.7,1.6.7,2.6s-.2,1.8-.7,2.6c-.4.8-1,1.4-1.8,1.8-.7.4-1.6.7-2.5.7h-3.6v7h-2.1ZM103.1,201.2h3.4c.6,0,1.1-.1,1.5-.4.5-.3.8-.6,1.1-1.1.3-.5.4-1,.4-1.6s-.1-1.1-.4-1.6c-.3-.5-.6-.8-1.1-1.1-.5-.3-1-.4-1.5-.4h-3.4v6.2Z"/>
      <path d="M122,216.5h-2.1v-18.4h2.1v2.1c.4-.7,1-1.3,1.7-1.7.7-.4,1.5-.7,2.5-.7s1.7.2,2.5.5c.8.3,1.5.8,2.1,1.4.6.6,1,1.3,1.4,2.1s.5,1.6.5,2.5-.2,1.7-.5,2.5-.8,1.5-1.4,2.1c-.6.6-1.3,1.1-2.1,1.4-.8.3-1.6.5-2.5.5s-1.8-.2-2.5-.7-1.2-1-1.7-1.7v8.2ZM126.1,199.8c-.8,0-1.5.2-2.1.6-.6.4-1.1.9-1.4,1.6-.3.7-.5,1.4-.5,2.2s.2,1.6.5,2.2c.3.7.8,1.2,1.4,1.6s1.3.6,2.1.6,1.5-.2,2.2-.6c.7-.4,1.2-.9,1.6-1.6.4-.7.6-1.4.6-2.3s-.2-1.6-.6-2.2c-.4-.7-.9-1.2-1.6-1.6-.7-.4-1.4-.6-2.2-.6Z"/>
      <path d="M144.4,198.1h2.1v12.3h-2.1v-2.1c-.5.7-1,1.3-1.7,1.7-.7.4-1.5.7-2.4.7s-1.7-.2-2.5-.5-1.5-.8-2.1-1.4c-.6-.6-1.1-1.3-1.4-2.1s-.5-1.6-.5-2.5.2-1.7.5-2.5c.3-.8.8-1.5,1.4-2,.6-.6,1.3-1,2-1.4.8-.3,1.6-.5,2.5-.5s1.8.2,2.5.7c.7.5,1.3,1,1.8,1.8v-2.1ZM140.3,208.7c.8,0,1.5-.2,2.1-.6.6-.4,1-.9,1.4-1.6.3-.7.5-1.4.5-2.2s-.2-1.6-.5-2.3c-.3-.7-.8-1.2-1.4-1.6-.6-.4-1.3-.6-2.1-.6s-1.5.2-2.2.6c-.7.4-1.2.9-1.6,1.6-.4.7-.6,1.4-.6,2.2s.2,1.6.6,2.2c.4.7.9,1.2,1.6,1.6.7.4,1.4.6,2.2.6Z"/>
      <path d="M148.9,210.3v-12.3h2.1v1.5c.4-.6,1-1,1.6-1.4s1.4-.5,2.2-.5.9,0,1.4.2l-.8,2.1c-.3-.1-.7-.2-1-.2-.6,0-1.2.1-1.7.4-.5.3-.9.7-1.2,1.2-.3.5-.5,1.1-.5,1.7v7.2h-2.1Z"/>
      <path d="M166.8,198.1h2.1v12.3h-2.1v-2.1c-.5.7-1,1.3-1.7,1.7-.7.4-1.5.7-2.4.7s-1.7-.2-2.5-.5-1.5-.8-2.1-1.4c-.6-.6-1.1-1.3-1.4-2.1s-.5-1.6-.5-2.5.2-1.7.5-2.5c.3-.8.8-1.5,1.4-2,.6-.6,1.3-1,2-1.4.8-.3,1.6-.5,2.5-.5s1.8.2,2.5.7c.7.5,1.3,1,1.8,1.8v-2.1ZM162.7,208.7c.8,0,1.5-.2,2.1-.6.6-.4,1-.9,1.4-1.6.3-.7.5-1.4.5-2.2s-.2-1.6-.5-2.3c-.3-.7-.8-1.2-1.4-1.6-.6-.4-1.3-.6-2.1-.6s-1.5.2-2.2.6c-.7.4-1.2.9-1.6,1.6-.4.7-.6,1.4-.6,2.2s.2,1.6.6,2.2c.4.7.9,1.2,1.6,1.6.7.4,1.4.6,2.2.6Z"/>
      <path d="M177.2,210.3v-18.4h2.1v18.4h-2.1Z"/>
      <path d="M192,198.1h2.1v12.3h-2.1v-2.1c-.5.7-1,1.3-1.7,1.7-.7.4-1.5.7-2.4.7s-1.7-.2-2.5-.5-1.5-.8-2.1-1.4c-.6-.6-1.1-1.3-1.4-2.1s-.5-1.6-.5-2.5.2-1.7.5-2.5c.3-.8.8-1.5,1.4-2,.6-.6,1.3-1,2-1.4.8-.3,1.6-.5,2.5-.5s1.8.2,2.5.7c.7.5,1.3,1,1.8,1.8v-2.1ZM187.9,208.7c.8,0,1.5-.2,2.1-.6.6-.4,1-.9,1.4-1.6.3-.7.5-1.4.5-2.2s-.2-1.6-.5-2.3c-.3-.7-.8-1.2-1.4-1.6-.6-.4-1.3-.6-2.1-.6s-1.5.2-2.2.6c-.7.4-1.2.9-1.6,1.6-.4.7-.6,1.4-.6,2.2s.2,1.6.6,2.2c.4.7.9,1.2,1.6,1.6.7.4,1.4.6,2.2.6Z"/>
      <path d="M55.3,221.6h2.1v12.6c0,.8-.2,1.6-.5,2.3-.3.7-.8,1.3-1.4,1.8-.6.5-1.3.9-2,1.2s-1.5.4-2.4.4-1.7-.2-2.5-.6-1.5-.9-2.1-1.5c-.6-.6-1-1.3-1.3-2.1l1.9-.9c.2.6.4,1.1.8,1.5.4.5.9.8,1.4,1.1.5.3,1.1.4,1.7.4s1.1,0,1.6-.3c.5-.2,1-.4,1.4-.8.4-.3.7-.7,1-1.2.2-.4.3-.9.3-1.4v-2.4c-.4.7-1,1.3-1.6,1.7s-1.5.7-2.4.7-1.7-.2-2.4-.5c-.8-.3-1.4-.8-2-1.4-.6-.6-1-1.3-1.3-2.1-.3-.8-.5-1.6-.5-2.5s.2-1.7.5-2.5c.3-.8.8-1.5,1.3-2.1.6-.6,1.2-1.1,2-1.4.8-.3,1.6-.5,2.4-.5s1.7.2,2.4.6c.7.4,1.2,1,1.6,1.7v-2ZM51.3,232.2c.8,0,1.5-.2,2.1-.6.6-.4,1-1,1.4-1.6.3-.7.5-1.4.5-2.2s-.2-1.6-.5-2.2c-.3-.7-.8-1.2-1.4-1.6s-1.3-.6-2.1-.6-1.5.2-2.1.6c-.6.4-1.1.9-1.5,1.6-.4.7-.6,1.4-.6,2.2s.2,1.6.6,2.2.9,1.2,1.5,1.6c.6.4,1.3.6,2.1.6Z"/>
      <path d="M65.5,234.2c-1.1,0-2.2-.3-3.1-.9-.9-.6-1.7-1.4-2.2-2.3-.6-1-.8-2.1-.8-3.2s.2-1.7.5-2.5c.3-.8.8-1.5,1.3-2.1s1.2-1.1,2-1.4c.7-.3,1.5-.5,2.4-.5s1.8.2,2.5.6c.8.4,1.4.9,2,1.6s1,1.4,1.2,2.3c.3.9.4,1.8.3,2.8h-10c0,.7.3,1.3.7,1.9.4.5.8,1,1.4,1.3.6.3,1.2.5,1.9.5.7,0,1.4-.2,2-.6.6-.4,1.1-.9,1.4-1.6l2.1.5c-.5,1.1-1.2,2-2.2,2.7-1,.7-2.1,1-3.3,1ZM61.5,226.9h8c0-.7-.3-1.3-.7-1.9-.4-.6-.9-1-1.4-1.4-.6-.3-1.2-.5-1.9-.5s-1.3.2-1.9.5c-.6.3-1,.8-1.4,1.4-.4.6-.6,1.2-.7,1.9Z"/>
      <path d="M77.4,234.1c-.7,0-1.3-.1-1.9-.4-.6-.2-1.2-.5-1.6-.9-.5-.4-.8-.8-1-1.3l1.8-.8c.1.3.3.5.7.8.3.2.7.4,1.1.6s.8.2,1.3.2.9,0,1.3-.2c.4-.1.7-.3,1-.6.2-.3.4-.6.4-1s-.1-.7-.4-1c-.3-.2-.6-.4-1-.6-.4-.1-.8-.3-1.3-.4-.8-.2-1.6-.5-2.3-.8-.7-.3-1.2-.7-1.6-1.1-.4-.5-.6-1.1-.6-1.8s.2-1.4.6-2c.4-.6,1-1,1.7-1.3.7-.3,1.4-.5,2.2-.5s1.9.2,2.7.6,1.4,1,1.8,1.7l-1.7,1c-.1-.3-.4-.6-.6-.8-.3-.2-.6-.4-1-.5-.4-.1-.7-.2-1.1-.2-.5,0-.9,0-1.3.2-.4.1-.7.3-1,.6-.2.3-.4.6-.4,1s.1.7.4.9c.3.2.6.4,1,.5.4.1.9.3,1.4.4.7.2,1.4.5,2.1.8.6.3,1.2.7,1.6,1.2.4.5.6,1,.6,1.7,0,.8-.2,1.4-.7,2-.4.6-1,1-1.7,1.3s-1.5.4-2.3.4Z"/>
      <path d="M90.6,223.7h-2.8v10.2h-2.1v-10.2s-2.1,0-2.1,0v-2.1h2.1v-3.8s2,0,2,0v3.8h2.8v2.1Z"/>
      <path d="M93.7,219.6c-.3,0-.6-.1-.8-.3-.2-.2-.3-.5-.3-.8s.1-.6.3-.8.5-.3.8-.3.6.1.8.3c.2.2.3.5.3.8s-.1.6-.3.8c-.2.2-.5.3-.8.3ZM92.7,221.6h2.1v12.3h-2.1v-12.3Z"/>
      <path d="M102.9,234.2c-1.1,0-2.2-.3-3.1-.9-.9-.6-1.7-1.4-2.2-2.3-.6-1-.8-2.1-.8-3.2s.2-1.7.5-2.5c.3-.8.8-1.5,1.3-2.1s1.2-1.1,2-1.4c.7-.3,1.5-.5,2.4-.5s2.2.3,3.1.9c.9.6,1.7,1.4,2.2,2.3.6,1,.8,2.1.8,3.3s-.2,1.7-.5,2.5c-.3.8-.8,1.5-1.3,2.1-.6.6-1.2,1.1-1.9,1.4-.7.3-1.5.5-2.4.5ZM102.9,232.2c.8,0,1.5-.2,2.1-.6.6-.4,1.1-.9,1.5-1.6.4-.7.5-1.4.5-2.2s-.2-1.5-.5-2.2c-.4-.7-.9-1.2-1.5-1.6-.6-.4-1.3-.6-2.1-.6s-1.5.2-2.1.6c-.6.4-1.1.9-1.5,1.6-.4.7-.5,1.4-.5,2.2s.2,1.6.6,2.2c.4.7.9,1.2,1.5,1.6.6.4,1.3.6,2,.6ZM102.4,220.3l1-3.5h2.1l-1.7,3.5h-1.4Z"/>
      <path d="M121.9,226.3v7.6h-2.1v-7.2c0-.6-.2-1.2-.5-1.7-.3-.5-.7-.9-1.2-1.2-.5-.3-1.1-.4-1.7-.4s-1.2.1-1.7.4c-.5.3-.9.7-1.2,1.2-.3.5-.5,1.1-.5,1.7v7.2h-2.1v-12.3h2.1v1.5c.4-.6,1-1,1.6-1.4s1.4-.5,2.2-.5,1.8.2,2.5.7c.8.4,1.4,1,1.8,1.8.4.8.7,1.6.7,2.5Z"/>
      <path d="M140.1,215.5h2.1v18.4h-2.1v-2.1c-.4.7-1,1.3-1.7,1.7-.7.4-1.5.7-2.5.7s-1.7-.2-2.5-.5c-.8-.3-1.5-.8-2.1-1.4-.6-.6-1.1-1.3-1.4-2.1-.3-.8-.5-1.6-.5-2.5s.2-1.7.5-2.5c.3-.8.8-1.5,1.4-2.1.6-.6,1.3-1.1,2.1-1.4.8-.3,1.6-.5,2.5-.5s1.8.2,2.5.7c.7.4,1.3,1,1.7,1.7v-8.2ZM136,232.2c.8,0,1.5-.2,2.1-.6.6-.4,1-.9,1.4-1.6.3-.7.5-1.4.5-2.2s-.2-1.6-.5-2.3c-.3-.7-.8-1.2-1.4-1.6-.6-.4-1.3-.6-2.1-.6s-1.5.2-2.2.6c-.7.4-1.2.9-1.6,1.6-.4.7-.6,1.4-.6,2.2s.2,1.6.6,2.2c.4.7.9,1.2,1.6,1.6.7.4,1.4.6,2.2.6Z"/>
      <path d="M150.4,234.2c-1.1,0-2.2-.3-3.1-.9-.9-.6-1.7-1.4-2.2-2.3-.6-1-.8-2.1-.8-3.2s.2-1.7.5-2.5c.3-.8.8-1.5,1.3-2.1s1.2-1.1,2-1.4c.7-.3,1.5-.5,2.4-.5s1.8.2,2.5.6c.8.4,1.4.9,2,1.6s1,1.4,1.2,2.3c.3.9.4,1.8.3,2.8h-10c0,.7.3,1.3.7,1.9.4.5.8,1,1.4,1.3.6.3,1.2.5,1.9.5.7,0,1.4-.2,2-.6.6-.4,1.1-.9,1.4-1.6l2.1.5c-.5,1.1-1.2,2-2.2,2.7-1,.7-2.1,1-3.3,1ZM146.4,226.9h8c0-.7-.3-1.3-.7-1.9-.4-.6-.9-1-1.4-1.4-.6-.3-1.2-.5-1.9-.5s-1.3.2-1.9.5c-.6.3-1,.8-1.4,1.4-.4.6-.6,1.2-.7,1.9Z"/>
      <path d="M170.9,223.7h-2.8v10.2h-2.1v-10.2s-2.1,0-2.1,0v-2.1h2.1v-3.8s2,0,2,0v3.8h2.8v2.1Z"/>
      <path d="M172.6,229.2v-7.6h2.1v7.1c0,.6.2,1.2.5,1.7.3.5.7.9,1.2,1.2.5.3,1.1.4,1.7.4s1.2-.1,1.7-.4c.5-.3.9-.7,1.2-1.2s.5-1.1.5-1.7v-7.1h2.1v12.3s-2,0-2,0v-1.6c-.4.6-1,1-1.7,1.4s-1.4.5-2.1.5-1.8-.2-2.5-.7c-.8-.4-1.4-1-1.8-1.8s-.7-1.6-.7-2.5Z"/>
      <path d="M189.7,234.1c-.7,0-1.3-.1-1.9-.4-.6-.2-1.2-.5-1.6-.9-.5-.4-.8-.8-1-1.3l1.8-.8c.1.3.3.5.7.8.3.2.7.4,1.1.6s.8.2,1.3.2.9,0,1.3-.2c.4-.1.7-.3,1-.6.2-.3.4-.6.4-1s-.1-.7-.4-1c-.3-.2-.6-.4-1-.6-.4-.1-.8-.3-1.3-.4-.8-.2-1.6-.5-2.3-.8-.7-.3-1.2-.7-1.6-1.1-.4-.5-.6-1.1-.6-1.8s.2-1.4.6-2c.4-.6,1-1,1.7-1.3.7-.3,1.4-.5,2.2-.5s1.9.2,2.7.6,1.4,1,1.8,1.7l-1.7,1c-.1-.3-.4-.6-.6-.8-.3-.2-.6-.4-1-.5-.4-.1-.7-.2-1.1-.2-.5,0-.9,0-1.3.2-.4.1-.7.3-1,.6-.2.3-.4.6-.4,1s.1.7.4.9c.3.2.6.4,1,.5.4.1.9.3,1.4.4.7.2,1.4.5,2.1.8.6.3,1.2.7,1.6,1.2.4.5.6,1,.6,1.7,0,.8-.2,1.4-.7,2-.4.6-1,1-1.7,1.3s-1.5.4-2.3.4Z"/>
      <path d="M102.3,263.6h-3v-18.4h3v1.6c.4-.6.9-1,1.5-1.4s1.3-.5,2.1-.5,1.7.2,2.5.5c.8.3,1.5.8,2.1,1.4.6.6,1.1,1.3,1.4,2.1.3.8.5,1.6.5,2.5s-.2,1.7-.5,2.5c-.3.8-.8,1.5-1.4,2.1-.6.6-1.3,1.1-2.1,1.4-.8.3-1.6.5-2.5.5s-1.5-.2-2.1-.5-1.1-.8-1.5-1.4v7.7ZM105.8,247.8c-.6,0-1.2.2-1.7.5s-.9.8-1.2,1.3c-.3.5-.4,1.1-.4,1.8s.1,1.3.4,1.8c.3.5.7,1,1.2,1.3.5.3,1,.5,1.7.5s1.2-.2,1.7-.5c.5-.3.9-.7,1.2-1.3.3-.5.5-1.1.5-1.8s-.2-1.2-.5-1.8c-.3-.5-.7-1-1.2-1.3-.5-.3-1.1-.5-1.7-.5Z"/>
      <path d="M114.2,257.5v-12.3s3,0,3,0v1.1c.4-.4.9-.8,1.5-1,.6-.3,1.2-.4,1.9-.4s.9,0,1.3.2l-1.2,3c-.3-.1-.6-.2-.9-.2-.5,0-.9.1-1.3.3-.4.2-.7.5-.9.9-.2.4-.3.8-.3,1.3v7h-3Z"/>
      <path d="M128.1,257.8c-1.1,0-2.2-.3-3.1-.9-.9-.6-1.7-1.4-2.2-2.3-.6-1-.8-2.1-.8-3.2s.2-1.7.5-2.5c.3-.8.8-1.5,1.3-2.1s1.2-1.1,2-1.4c.7-.3,1.5-.5,2.4-.5s2.2.3,3.1.9c.9.6,1.7,1.4,2.2,2.3.6,1,.8,2.1.8,3.3s-.2,1.7-.5,2.5c-.3.8-.8,1.5-1.3,2.1-.6.6-1.2,1.1-1.9,1.4-.7.3-1.5.5-2.4.5ZM128.1,254.8c.6,0,1.1-.2,1.6-.5.5-.3.8-.7,1.1-1.3.3-.5.4-1.1.4-1.7s-.1-1.2-.4-1.7-.7-.9-1.1-1.3-1-.5-1.6-.5-1.1.2-1.6.5c-.5.3-.8.7-1.1,1.3-.3.5-.4,1.1-.4,1.7s.1,1.2.4,1.8c.3.5.7.9,1.1,1.2.5.3,1,.5,1.6.5Z"/>
      <path d="M143.8,253.8l2.7,1.5c-.6.8-1.3,1.4-2.1,1.9-.8.5-1.8.7-2.8.7s-2.2-.3-3.1-.9c-.9-.6-1.7-1.4-2.2-2.3-.6-1-.8-2.1-.8-3.2s.2-1.7.5-2.5c.3-.8.8-1.5,1.3-2.1s1.2-1.1,2-1.4c.7-.3,1.5-.5,2.4-.5s1.9.2,2.8.7c.8.5,1.6,1.1,2.1,1.9l-2.7,1.4c-.3-.3-.6-.6-1-.8-.4-.2-.8-.3-1.2-.3-.6,0-1.1.2-1.6.5s-.8.7-1.1,1.3c-.3.5-.4,1.1-.4,1.7s.1,1.2.4,1.7c.3.5.7.9,1.1,1.3.5.3,1,.5,1.6.5s.8,0,1.2-.3c.4-.2.7-.4,1-.7Z"/>
      <path d="M153.7,257.8c-1.1,0-2.2-.3-3.1-.9-.9-.6-1.7-1.4-2.2-2.3-.6-1-.8-2.1-.8-3.2s.2-1.7.5-2.5c.3-.8.8-1.5,1.3-2.1s1.2-1.1,2-1.4c.7-.3,1.5-.5,2.4-.5s1.8.2,2.6.6,1.5,1,2,1.7,1,1.5,1.2,2.4c.3.9.3,1.8.2,2.8h-9c.1.5.3.9.6,1.2.3.4.6.7,1,.9.4.2.9.3,1.4.3.5,0,1-.1,1.4-.4s.8-.6,1.1-1l3.1.7c-.5,1.1-1.2,2-2.2,2.7-1,.7-2.1,1-3.3,1ZM150.7,250.1h6c0-.5-.3-.9-.6-1.3-.3-.4-.6-.7-1.1-.9-.4-.2-.9-.4-1.4-.4s-.9.1-1.4.3c-.4.2-.8.5-1.1.9-.3.4-.5.8-.6,1.3Z"/>
      <path d="M165.5,257.7c-.6,0-1.3-.2-1.8-.4s-1.1-.5-1.6-.9c-.5-.4-.8-.8-1.1-1.3l2.5-1.1c0,.2.3.3.5.5.2.2.5.3.8.5.3.1.6.2,1,.2s.6,0,.9-.1c.3,0,.5-.2.7-.4s.3-.4.3-.7-.1-.5-.3-.7c-.2-.2-.5-.3-.8-.4-.3,0-.6-.2-.9-.2-.8-.2-1.5-.4-2.2-.7-.7-.3-1.2-.7-1.6-1.3-.4-.5-.6-1.1-.6-1.9s.2-1.5.6-2.1c.4-.6,1-1,1.7-1.4.7-.3,1.4-.5,2.2-.5s1.9.2,2.7.6c.8.4,1.5,1,1.9,1.7l-2.4,1.4c-.1-.2-.3-.4-.5-.5s-.4-.3-.7-.4c-.3-.1-.5-.2-.8-.2-.4,0-.7,0-1,0-.3,0-.5.2-.7.4-.2.2-.3.5-.3.8s.1.5.4.7c.2.2.5.3.9.3.3,0,.7.2,1,.3.7.2,1.4.5,2,.9.6.3,1.1.8,1.5,1.3.4.5.6,1.1.6,1.8,0,.8-.2,1.5-.7,2.1s-1.1,1-1.8,1.4c-.7.3-1.5.4-2.4.4Z"/>
      <path d="M177.7,257.8c-1.1,0-2.2-.3-3.1-.9-.9-.6-1.7-1.4-2.2-2.3-.6-1-.8-2.1-.8-3.2s.2-1.7.5-2.5c.3-.8.8-1.5,1.3-2.1s1.2-1.1,2-1.4c.7-.3,1.5-.5,2.4-.5s2.2.3,3.1.9c.9.6,1.7,1.4,2.2,2.3.6,1,.8,2.1.8,3.3s-.2,1.7-.5,2.5c-.3.8-.8,1.5-1.3,2.1-.6.6-1.2,1.1-1.9,1.4-.7.3-1.5.5-2.4.5ZM177.7,254.8c.6,0,1.1-.2,1.6-.5.5-.3.8-.7,1.1-1.3.3-.5.4-1.1.4-1.7s-.1-1.2-.4-1.7-.7-.9-1.1-1.3-1-.5-1.6-.5-1.1.2-1.6.5c-.5.3-.8.7-1.1,1.3-.3.5-.4,1.1-.4,1.7s.1,1.2.4,1.8c.3.5.7.9,1.1,1.2.5.3,1,.5,1.6.5Z"/>
      <path d="M189.5,257.7c-.6,0-1.3-.2-1.8-.4s-1.1-.5-1.6-.9c-.5-.4-.8-.8-1.1-1.3l2.5-1.1c0,.2.3.3.5.5.2.2.5.3.8.5.3.1.6.2,1,.2s.6,0,.9-.1c.3,0,.5-.2.7-.4s.3-.4.3-.7-.1-.5-.3-.7c-.2-.2-.5-.3-.8-.4-.3,0-.6-.2-.9-.2-.8-.2-1.5-.4-2.2-.7-.7-.3-1.2-.7-1.6-1.3-.4-.5-.6-1.1-.6-1.9s.2-1.5.6-2.1c.4-.6,1-1,1.7-1.4.7-.3,1.4-.5,2.2-.5s1.9.2,2.7.6c.8.4,1.5,1,1.9,1.7l-2.4,1.4c-.1-.2-.3-.4-.5-.5s-.4-.3-.7-.4c-.3-.1-.5-.2-.8-.2-.4,0-.7,0-1,0-.3,0-.5.2-.7.4-.2.2-.3.5-.3.8s.1.5.4.7c.2.2.5.3.9.3.3,0,.7.2,1,.3.7.2,1.4.5,2,.9.6.3,1.1.8,1.5,1.3.4.5.6,1.1.6,1.8,0,.8-.2,1.5-.7,2.1s-1.1,1-1.8,1.4c-.7.3-1.5.4-2.4.4Z"/>
      <path d="M86,281.3c-1.1,0-2.2-.3-3.1-.9-.9-.6-1.7-1.4-2.2-2.3-.6-1-.8-2.1-.8-3.2s.2-1.7.5-2.5c.3-.8.8-1.5,1.3-2.1s1.2-1.1,2-1.4c.7-.3,1.5-.5,2.4-.5s1.8.2,2.6.6,1.5,1,2,1.7,1,1.5,1.2,2.4c.3.9.3,1.8.2,2.8h-9c.1.5.3.9.6,1.2.3.4.6.7,1,.9.4.2.9.3,1.4.3.5,0,1-.1,1.4-.4s.8-.6,1.1-1l3.1.7c-.5,1.1-1.2,2-2.2,2.7-1,.7-2.1,1-3.3,1ZM83,273.7h6c0-.5-.3-.9-.6-1.3-.3-.4-.6-.7-1.1-.9-.4-.2-.9-.4-1.4-.4s-.9.1-1.4.3c-.4.2-.8.5-1.1.9-.3.4-.5.8-.6,1.3Z"/>
      <path d="M103.3,262.6h3v18.4h-3v-1.5c-.4.5-.9,1-1.5,1.3-.6.3-1.3.5-2.1.5s-1.7-.2-2.5-.5c-.8-.3-1.5-.8-2.1-1.4-.6-.6-1.1-1.3-1.4-2.1-.3-.8-.5-1.6-.5-2.5s.2-1.7.5-2.5.8-1.5,1.4-2.1c.6-.6,1.3-1.1,2.1-1.4.8-.3,1.6-.5,2.5-.5s1.5.2,2.1.5c.6.3,1.1.8,1.5,1.3v-7.7ZM99.8,278.5c.6,0,1.2-.2,1.7-.5.5-.3.9-.7,1.2-1.3.3-.5.4-1.1.4-1.8s-.1-1.3-.4-1.8c-.3-.5-.7-1-1.2-1.3-.5-.3-1.1-.5-1.7-.5s-1.2.2-1.7.5c-.5.3-.9.8-1.2,1.3s-.5,1.1-.5,1.8.2,1.3.5,1.8c.3.5.7,1,1.2,1.3.5.3,1.1.5,1.7.5Z"/>
      <path d="M110.8,267.2c-.4,0-.8-.1-1.1-.4-.3-.3-.5-.7-.5-1.1s.2-.8.5-1.1.7-.4,1.1-.4.8.1,1.1.4c.3.3.4.7.4,1.1s-.1.8-.4,1.1c-.3.3-.7.4-1.1.4ZM109.2,268.8h3v12.3h-3v-12.3Z"/>
      <path d="M121.7,271.8h-2.4v9.3h-3v-9.3h-1.8v-3h1.8v-3.8h3v3.8h2.4v3Z"/>
      <path d="M129.1,281.3c-1.1,0-2.2-.3-3.1-.9-.9-.6-1.7-1.4-2.2-2.3-.6-1-.8-2.1-.8-3.2s.2-1.7.5-2.5c.3-.8.8-1.5,1.3-2.1s1.2-1.1,2-1.4c.7-.3,1.5-.5,2.4-.5s2.2.3,3.1.9c.9.6,1.7,1.4,2.2,2.3.6,1,.8,2.1.8,3.3s-.2,1.7-.5,2.5c-.3.8-.8,1.5-1.3,2.1-.6.6-1.2,1.1-1.9,1.4-.7.3-1.5.5-2.4.5ZM129.1,278.3c.6,0,1.1-.2,1.6-.5.5-.3.8-.7,1.1-1.3.3-.5.4-1.1.4-1.7s-.1-1.2-.4-1.7-.7-.9-1.1-1.3-1-.5-1.6-.5-1.1.2-1.6.5c-.5.3-.8.7-1.1,1.3-.3.5-.4,1.1-.4,1.7s.1,1.2.4,1.8c.3.5.7.9,1.1,1.2.5.3,1,.5,1.6.5Z"/>
      <path d="M137.1,281v-12.3s3,0,3,0v1.1c.4-.4.9-.8,1.5-1,.6-.3,1.2-.4,1.9-.4s.9,0,1.3.2l-1.2,3c-.3-.1-.6-.2-.9-.2-.5,0-.9.1-1.3.3-.4.2-.7.5-.9.9-.2.4-.3.8-.3,1.3v7h-3Z"/>
      <path d="M147.7,267.2c-.4,0-.8-.1-1.1-.4-.3-.3-.5-.7-.5-1.1s.2-.8.5-1.1.7-.4,1.1-.4.8.1,1.1.4c.3.3.4.7.4,1.1s-.1.8-.4,1.1c-.3.3-.7.4-1.1.4ZM146.2,268.8h3v12.3h-3v-12.3Z"/>
      <path d="M161.1,268.8h3v12.3h-3v-1.5c-.5.5-.9,1-1.5,1.3-.6.3-1.2.5-2,.5s-1.8-.2-2.5-.5c-.8-.3-1.5-.8-2.1-1.4-.6-.6-1.1-1.3-1.4-2.1-.3-.8-.5-1.6-.5-2.5s.2-1.7.5-2.5c.3-.8.8-1.4,1.4-2,.6-.6,1.2-1,2-1.4.8-.3,1.6-.5,2.5-.5s1.5.2,2.2.5,1.2.8,1.6,1.4v-1.6ZM157.6,278.5c.6,0,1.2-.2,1.7-.5.5-.3.9-.7,1.2-1.3.3-.5.4-1.1.4-1.8s-.1-1.3-.4-1.8c-.3-.5-.7-1-1.2-1.3-.5-.3-1.1-.5-1.7-.5s-1.2.2-1.7.5c-.5.3-.9.8-1.2,1.3s-.5,1.1-.5,1.8.2,1.3.5,1.8c.3.5.7,1,1.2,1.3.5.3,1.1.5,1.7.5Z"/>
      <path d="M166.6,281v-18.4h3v18.4h-3Z"/>
      <path d="M177.7,281.3c-1.1,0-2.2-.3-3.1-.9-.9-.6-1.7-1.4-2.2-2.3-.6-1-.8-2.1-.8-3.2s.2-1.7.5-2.5c.3-.8.8-1.5,1.3-2.1s1.2-1.1,2-1.4c.7-.3,1.5-.5,2.4-.5s1.8.2,2.6.6,1.5,1,2,1.7,1,1.5,1.2,2.4c.3.9.3,1.8.2,2.8h-9c.1.5.3.9.6,1.2.3.4.6.7,1,.9.4.2.9.3,1.4.3.5,0,1-.1,1.4-.4s.8-.6,1.1-1l3.1.7c-.5,1.1-1.2,2-2.2,2.7-1,.7-2.1,1-3.3,1ZM174.7,273.7h6c0-.5-.3-.9-.6-1.3-.3-.4-.6-.7-1.1-.9-.4-.2-.9-.4-1.4-.4s-.9.1-1.4.3c-.4.2-.8.5-1.1.9-.3.4-.5.8-.6,1.3Z"/>
      <path d="M189.5,281.2c-.6,0-1.3-.2-1.8-.4s-1.1-.5-1.6-.9c-.5-.4-.8-.8-1.1-1.3l2.5-1.1c0,.2.3.3.5.5.2.2.5.3.8.5.3.1.6.2,1,.2s.6,0,.9-.1c.3,0,.5-.2.7-.4s.3-.4.3-.7-.1-.5-.3-.7c-.2-.2-.5-.3-.8-.4-.3,0-.6-.2-.9-.2-.8-.2-1.5-.4-2.2-.7-.7-.3-1.2-.7-1.6-1.3-.4-.5-.6-1.1-.6-1.9s.2-1.5.6-2.1c.4-.6,1-1,1.7-1.4.7-.3,1.4-.5,2.2-.5s1.9.2,2.7.6c.8.4,1.5,1,1.9,1.7l-2.4,1.4c-.1-.2-.3-.4-.5-.5s-.4-.3-.7-.4c-.3-.1-.5-.2-.8-.2-.4,0-.7,0-1,0-.3,0-.5.2-.7.4-.2.2-.3.5-.3.8s.1.5.4.7c.2.2.5.3.9.3.3,0,.7.2,1,.3.7.2,1.4.5,2,.9.6.3,1.1.8,1.5,1.3.4.5.6,1.1.6,1.8,0,.8-.2,1.5-.7,2.1s-1.1,1-1.8,1.4c-.7.3-1.5.4-2.4.4Z"/>
    </g>
    <g class="st4">
      <rect class="st11" x="431.4" y="140.4" width="13.7" height="468.8" transform="translate(37.2 789.1) rotate(-86.5)"/>
    </g>
    <g class="st2">
      <rect class="st11" x="255.7" y="534.5" width="453.5" height="11.3" transform="translate(-47.6 46.7) rotate(-5.3)"/>
    </g>
    <rect class="st13" x="422.7" y="255.3" width="103" height="459.5" transform="translate(913.6 -31.8) rotate(84.7)"/>
    <text class="st7" transform="translate(305.9 514.7) rotate(-5.3)"><tspan x="0" y="0">ACTUALIZACIÓN</tspan></text>
    <path class="st12" d="M526.6,669.2c13.7,0,27.4,0,41.1,0,5.1-7.5,10.1-14.9,15.2-22.4"/>
    <g>
      <path d="M58.9,407.2v-17.2h5.7c1.2,0,2.3.2,3.3.7,1,.4,1.9,1.1,2.7,1.9.8.8,1.4,1.7,1.8,2.7.4,1,.7,2.1.7,3.3s-.2,2.3-.7,3.3c-.4,1-1.1,1.9-1.8,2.7-.8.8-1.7,1.4-2.7,1.9-1,.4-2.1.7-3.3.7h-5.7ZM60.9,405.1h3.6c.9,0,1.7-.2,2.5-.5.8-.3,1.5-.8,2.1-1.4s1.1-1.3,1.4-2.1c.3-.8.5-1.6.5-2.5s-.2-1.7-.5-2.5c-.3-.8-.8-1.5-1.4-2.1-.6-.6-1.3-1.1-2.1-1.4s-1.6-.5-2.5-.5h-3.6v13Z"/>
      <path d="M76.3,392.9c-.3,0-.6-.1-.8-.3-.2-.2-.3-.5-.3-.8s.1-.6.3-.8.5-.3.8-.3.6.1.8.3c.2.2.3.5.3.8s-.1.6-.3.8c-.2.2-.5.3-.8.3ZM75.2,394.9h2.1v12.3h-2.1v-12.3Z"/>
      <path d="M83.9,407.4c-.7,0-1.3-.1-1.9-.4-.6-.2-1.2-.5-1.6-.9-.5-.4-.8-.8-1-1.3l1.8-.8c.1.3.3.5.7.8.3.2.7.4,1.1.6s.8.2,1.3.2.9,0,1.3-.2c.4-.1.7-.3,1-.6.2-.3.4-.6.4-1s-.1-.7-.4-1c-.3-.2-.6-.4-1-.6-.4-.1-.8-.3-1.3-.4-.8-.2-1.6-.5-2.3-.8-.7-.3-1.2-.7-1.6-1.1-.4-.5-.6-1.1-.6-1.8s.2-1.4.6-2c.4-.6,1-1,1.7-1.3.7-.3,1.4-.5,2.2-.5s1.9.2,2.7.6,1.4,1,1.8,1.7l-1.7,1c-.1-.3-.4-.6-.6-.8-.3-.2-.6-.4-1-.5-.4-.1-.7-.2-1.1-.2-.5,0-.9,0-1.3.2-.4.1-.7.3-1,.6-.2.3-.4.6-.4,1s.1.7.4.9c.3.2.6.4,1,.5.4.1.9.3,1.4.4.7.2,1.4.5,2.1.8.6.3,1.2.7,1.6,1.2.4.5.6,1,.6,1.7,0,.8-.2,1.4-.7,2-.4.6-1,1-1.7,1.3s-1.5.4-2.3.4Z"/>
      <path d="M93.5,391.9v3h3.6v2.1h-3.6v10.2h-2.1v-10.2h-1.6v-2.1h1.6v-3c0-.6.2-1.2.5-1.7.3-.5.7-.9,1.2-1.2s1.1-.5,1.7-.5.9,0,1.3.3c.4.2.8.5,1.2.8l-1.5,1.5c-.1-.2-.3-.3-.4-.4-.2,0-.4-.1-.6-.1-.4,0-.7.1-.9.4s-.4.6-.4.9Z"/>
      <path d="M99.3,407.2v-12.3h2.1v1.5c.4-.6,1-1,1.6-1.4s1.4-.5,2.2-.5.9,0,1.4.2l-.8,2.1c-.3-.1-.7-.2-1-.2-.6,0-1.2.1-1.7.4-.5.3-.9.7-1.2,1.2-.3.5-.5,1.1-.5,1.7v7.2h-2.1Z"/>
      <path d="M107.5,402.5v-7.6h2.1v7.1c0,.6.2,1.2.5,1.7.3.5.7.9,1.2,1.2.5.3,1.1.4,1.7.4s1.2-.1,1.7-.4c.5-.3.9-.7,1.2-1.2s.5-1.1.5-1.7v-7.1h2.1v12.3s-2,0-2,0v-1.6c-.4.6-1,1-1.7,1.4s-1.4.5-2.1.5-1.8-.2-2.5-.7c-.8-.4-1.4-1-1.8-1.8s-.7-1.6-.7-2.5Z"/>
      <path d="M127.2,397h-2.8v10.2h-2.1v-10.2s-2.1,0-2.1,0v-2.1h2.1v-3.8s2,0,2,0v3.8h2.8v2.1Z"/>
      <path d="M138.9,394.9h2.1v12.3h-2.1v-2.1c-.5.7-1,1.3-1.7,1.7-.7.4-1.5.7-2.4.7s-1.7-.2-2.5-.5-1.5-.8-2.1-1.4c-.6-.6-1.1-1.3-1.4-2.1s-.5-1.6-.5-2.5.2-1.7.5-2.5c.3-.8.8-1.5,1.4-2,.6-.6,1.3-1,2-1.4.8-.3,1.6-.5,2.5-.5s1.8.2,2.5.7c.7.5,1.3,1,1.8,1.8v-2.1ZM134.8,405.5c.8,0,1.5-.2,2.1-.6.6-.4,1-.9,1.4-1.6.3-.7.5-1.4.5-2.2s-.2-1.6-.5-2.3c-.3-.7-.8-1.2-1.4-1.6-.6-.4-1.3-.6-2.1-.6s-1.5.2-2.2.6c-.7.4-1.2.9-1.6,1.6-.4.7-.6,1.4-.6,2.2s.2,1.6.6,2.2c.4.7.9,1.2,1.6,1.6.7.4,1.4.6,2.2.6Z"/>
      <path d="M159.2,388.8h2.1v18.4h-2.1v-2.1c-.4.7-1,1.3-1.7,1.7-.7.4-1.5.7-2.5.7s-1.7-.2-2.5-.5c-.8-.3-1.5-.8-2.1-1.4-.6-.6-1.1-1.3-1.4-2.1-.3-.8-.5-1.6-.5-2.5s.2-1.7.5-2.5c.3-.8.8-1.5,1.4-2.1.6-.6,1.3-1.1,2.1-1.4.8-.3,1.6-.5,2.5-.5s1.8.2,2.5.7c.7.4,1.3,1,1.7,1.7v-8.2ZM155,405.5c.8,0,1.5-.2,2.1-.6.6-.4,1-.9,1.4-1.6.3-.7.5-1.4.5-2.2s-.2-1.6-.5-2.3c-.3-.7-.8-1.2-1.4-1.6-.6-.4-1.3-.6-2.1-.6s-1.5.2-2.2.6c-.7.4-1.2.9-1.6,1.6-.4.7-.6,1.4-.6,2.2s.2,1.6.6,2.2c.4.7.9,1.2,1.6,1.6.7.4,1.4.6,2.2.6Z"/>
      <path d="M169.4,407.5c-1.1,0-2.2-.3-3.1-.9-.9-.6-1.7-1.4-2.2-2.3-.6-1-.8-2.1-.8-3.2s.2-1.7.5-2.5c.3-.8.8-1.5,1.3-2.1s1.2-1.1,2-1.4c.7-.3,1.5-.5,2.4-.5s1.8.2,2.5.6c.8.4,1.4.9,2,1.6s1,1.4,1.2,2.3c.3.9.4,1.8.3,2.8h-10c0,.7.3,1.3.7,1.9.4.5.8,1,1.4,1.3.6.3,1.2.5,1.9.5.7,0,1.4-.2,2-.6.6-.4,1.1-.9,1.4-1.6l2.1.5c-.5,1.1-1.2,2-2.2,2.7-1,.7-2.1,1-3.3,1ZM165.4,400.2h8c0-.7-.3-1.3-.7-1.9-.4-.6-.9-1-1.4-1.4-.6-.3-1.2-.5-1.9-.5s-1.3.2-1.9.5c-.6.3-1,.8-1.4,1.4-.4.6-.6,1.2-.7,1.9Z"/>
      <path d="M183.6,407.2v-18.4h2.1v18.4h-2.1Z"/>
      <path d="M193.9,407.5c-1.1,0-2.2-.3-3.1-.9-.9-.6-1.7-1.4-2.2-2.3-.6-1-.8-2.1-.8-3.2s.2-1.7.5-2.5c.3-.8.8-1.5,1.3-2.1s1.2-1.1,2-1.4c.7-.3,1.5-.5,2.4-.5s2.2.3,3.1.9c.9.6,1.7,1.4,2.2,2.3.6,1,.8,2.1.8,3.3s-.2,1.7-.5,2.5c-.3.8-.8,1.5-1.3,2.1-.6.6-1.2,1.1-1.9,1.4-.7.3-1.5.5-2.4.5ZM193.9,405.4c.8,0,1.5-.2,2.1-.6.6-.4,1.1-.9,1.5-1.6.4-.7.5-1.4.5-2.2s-.2-1.5-.5-2.2c-.4-.7-.9-1.2-1.5-1.6-.6-.4-1.3-.6-2.1-.6s-1.5.2-2.1.6c-.6.4-1.1.9-1.5,1.6-.4.7-.5,1.4-.5,2.2s.2,1.6.6,2.2c.4.7.9,1.2,1.5,1.6.6.4,1.3.6,2,.6Z"/>
      <path d="M205.9,407.4c-.7,0-1.3-.1-1.9-.4-.6-.2-1.2-.5-1.6-.9-.5-.4-.8-.8-1-1.3l1.8-.8c.1.3.3.5.7.8.3.2.7.4,1.1.6s.8.2,1.3.2.9,0,1.3-.2c.4-.1.7-.3,1-.6.2-.3.4-.6.4-1s-.1-.7-.4-1c-.3-.2-.6-.4-1-.6-.4-.1-.8-.3-1.3-.4-.8-.2-1.6-.5-2.3-.8-.7-.3-1.2-.7-1.6-1.1-.4-.5-.6-1.1-.6-1.8s.2-1.4.6-2c.4-.6,1-1,1.7-1.3.7-.3,1.4-.5,2.2-.5s1.9.2,2.7.6,1.4,1,1.8,1.7l-1.7,1c-.1-.3-.4-.6-.6-.8-.3-.2-.6-.4-1-.5-.4-.1-.7-.2-1.1-.2-.5,0-.9,0-1.3.2-.4.1-.7.3-1,.6-.2.3-.4.6-.4,1s.1.7.4.9c.3.2.6.4,1,.5.4.1.9.3,1.4.4.7.2,1.4.5,2.1.8.6.3,1.2.7,1.6,1.2.4.5.6,1,.6,1.7,0,.8-.2,1.4-.7,2-.4.6-1,1-1.7,1.3s-1.5.4-2.3.4Z"/>
      <path d="M35.9,419.1c1.2,0,2.3.3,3.3.9,1,.6,1.8,1.4,2.3,2.3s.9,2.1.9,3.2-.2,1.7-.5,2.5-.8,1.5-1.4,2.1c-.6.6-1.3,1.1-2.1,1.4-.8.3-1.6.5-2.5.5s-1.4-.2-2-.5-1.1-.8-1.5-1.4v1.6h-3v-18.4h3v7.7c.4-.6.9-1,1.5-1.4s1.3-.5,2-.5ZM35.8,429.1c.6,0,1.2-.2,1.7-.5.5-.3.9-.8,1.2-1.3.3-.5.5-1.1.5-1.8s-.2-1.3-.5-1.8c-.3-.5-.7-1-1.2-1.3-.5-.3-1.1-.5-1.7-.5s-1.2.2-1.7.5-.9.8-1.2,1.3c-.3.5-.4,1.1-.4,1.8s.1,1.3.4,1.8c.3.5.7,1,1.2,1.3.5.3,1,.5,1.7.5Z"/>
      <path d="M49.7,432c-1.1,0-2.2-.3-3.1-.9-.9-.6-1.7-1.4-2.2-2.3-.6-1-.8-2.1-.8-3.2s.2-1.7.5-2.5c.3-.8.8-1.5,1.3-2.1s1.2-1.1,2-1.4c.7-.3,1.5-.5,2.4-.5s1.8.2,2.6.6,1.5,1,2,1.7,1,1.5,1.2,2.4c.3.9.3,1.8.2,2.8h-9c.1.5.3.9.6,1.2.3.4.6.7,1,.9.4.2.9.3,1.4.3.5,0,1-.1,1.4-.4s.8-.6,1.1-1l3.1.7c-.5,1.1-1.2,2-2.2,2.7-1,.7-2.1,1-3.3,1ZM46.7,424.3h6c0-.5-.3-.9-.6-1.3-.3-.4-.6-.7-1.1-.9-.4-.2-.9-.4-1.4-.4s-.9.1-1.4.3c-.4.2-.8.5-1.1.9-.3.4-.5.8-.6,1.3Z"/>
      <path d="M69,423.9v7.7h-3v-7c0-.5-.1-.9-.4-1.3-.2-.4-.6-.7-.9-.9-.4-.2-.8-.3-1.3-.3s-.9.1-1.3.3c-.4.2-.7.5-.9.9-.2.4-.3.8-.3,1.3v7h-3v-12.3s3,0,3,0v1.1c.4-.4.9-.8,1.5-1,.6-.3,1.2-.4,1.9-.4s1.7.2,2.4.7c.7.4,1.3,1,1.8,1.8.4.7.7,1.5.7,2.4Z"/>
      <path d="M76.5,432c-1.1,0-2.2-.3-3.1-.9-.9-.6-1.7-1.4-2.2-2.3-.6-1-.8-2.1-.8-3.2s.2-1.7.5-2.5c.3-.8.8-1.5,1.3-2.1s1.2-1.1,2-1.4c.7-.3,1.5-.5,2.4-.5s1.8.2,2.6.6,1.5,1,2,1.7,1,1.5,1.2,2.4c.3.9.3,1.8.2,2.8h-9c.1.5.3.9.6,1.2.3.4.6.7,1,.9.4.2.9.3,1.4.3.5,0,1-.1,1.4-.4s.8-.6,1.1-1l3.1.7c-.5,1.1-1.2,2-2.2,2.7-1,.7-2.1,1-3.3,1ZM73.5,424.3h6c0-.5-.3-.9-.6-1.3-.3-.4-.6-.7-1.1-.9-.4-.2-.9-.4-1.4-.4s-.9.1-1.4.3c-.4.2-.8.5-1.1.9-.3.4-.5.8-.6,1.3Z"/>
      <path d="M88.3,416.8v2.6h3.3v3h-3.3v9.3h-3v-9.3h-1.3v-3h1.3v-2.6c0-.7.2-1.3.5-1.9s.8-1,1.4-1.4c.6-.3,1.2-.5,1.9-.5s1,.1,1.5.3c.5.2,1,.5,1.3,1l-2.2,2.1c0-.1-.2-.2-.3-.3s-.3-.1-.4-.1c-.2,0-.4,0-.6.3-.2.2-.3.4-.3.6Z"/>
      <path d="M95.1,417.8c-.4,0-.8-.1-1.1-.4-.3-.3-.5-.7-.5-1.1s.2-.8.5-1.1.7-.4,1.1-.4.8.1,1.1.4c.3.3.4.7.4,1.1s-.1.8-.4,1.1c-.3.3-.7.4-1.1.4ZM93.6,419.4h3v12.3h-3v-12.3Z"/>
      <path d="M106.9,428l2.7,1.5c-.6.8-1.3,1.4-2.1,1.9-.8.5-1.8.7-2.8.7s-2.2-.3-3.1-.9c-.9-.6-1.7-1.4-2.2-2.3-.6-1-.8-2.1-.8-3.2s.2-1.7.5-2.5c.3-.8.8-1.5,1.3-2.1s1.2-1.1,2-1.4c.7-.3,1.5-.5,2.4-.5s1.9.2,2.8.7c.8.5,1.6,1.1,2.1,1.9l-2.7,1.4c-.3-.3-.6-.6-1-.8-.4-.2-.8-.3-1.2-.3-.6,0-1.1.2-1.6.5s-.8.7-1.1,1.3c-.3.5-.4,1.1-.4,1.7s.1,1.2.4,1.7c.3.5.7.9,1.1,1.3.5.3,1,.5,1.6.5s.8,0,1.2-.3c.4-.2.7-.4,1-.7Z"/>
      <path d="M112.8,417.8c-.4,0-.8-.1-1.1-.4-.3-.3-.5-.7-.5-1.1s.2-.8.5-1.1.7-.4,1.1-.4.8.1,1.1.4c.3.3.4.7.4,1.1s-.1.8-.4,1.1c-.3.3-.7.4-1.1.4ZM111.3,419.4h3v12.3h-3v-12.3Z"/>
      <path d="M122.3,432c-1.1,0-2.2-.3-3.1-.9-.9-.6-1.7-1.4-2.2-2.3-.6-1-.8-2.1-.8-3.2s.2-1.7.5-2.5c.3-.8.8-1.5,1.3-2.1s1.2-1.1,2-1.4c.7-.3,1.5-.5,2.4-.5s2.2.3,3.1.9c.9.6,1.7,1.4,2.2,2.3.6,1,.8,2.1.8,3.3s-.2,1.7-.5,2.5c-.3.8-.8,1.5-1.3,2.1-.6.6-1.2,1.1-1.9,1.4-.7.3-1.5.5-2.4.5ZM122.3,429c.6,0,1.1-.2,1.6-.5.5-.3.8-.7,1.1-1.3.3-.5.4-1.1.4-1.7s-.1-1.2-.4-1.7-.7-.9-1.1-1.3-1-.5-1.6-.5-1.1.2-1.6.5c-.5.3-.8.7-1.1,1.3-.3.5-.4,1.1-.4,1.7s.1,1.2.4,1.8c.3.5.7.9,1.1,1.2.5.3,1,.5,1.6.5Z"/>
      <path d="M134.1,431.9c-.6,0-1.3-.2-1.8-.4s-1.1-.5-1.6-.9c-.5-.4-.8-.8-1.1-1.3l2.5-1.1c0,.2.3.3.5.5.2.2.5.3.8.5.3.1.6.2,1,.2s.6,0,.9-.1c.3,0,.5-.2.7-.4s.3-.4.3-.7-.1-.5-.3-.7c-.2-.2-.5-.3-.8-.4-.3,0-.6-.2-.9-.2-.8-.2-1.5-.4-2.2-.7-.7-.3-1.2-.7-1.6-1.3-.4-.5-.6-1.1-.6-1.9s.2-1.5.6-2.1c.4-.6,1-1,1.7-1.4.7-.3,1.4-.5,2.2-.5s1.9.2,2.7.6c.8.4,1.5,1,1.9,1.7l-2.4,1.4c-.1-.2-.3-.4-.5-.5s-.4-.3-.7-.4c-.3-.1-.5-.2-.8-.2-.4,0-.7,0-1,0-.3,0-.5.2-.7.4-.2.2-.3.5-.3.8s.1.5.4.7c.2.2.5.3.9.3.3,0,.7.2,1,.3.7.2,1.4.5,2,.9.6.3,1.1.8,1.5,1.3.4.5.6,1.1.6,1.8,0,.8-.2,1.5-.7,2.1s-1.1,1-1.8,1.4c-.7.3-1.5.4-2.4.4Z"/>
      <path d="M156.3,413.3h3v18.4h-3v-1.5c-.4.5-.9,1-1.5,1.3-.6.3-1.3.5-2.1.5s-1.7-.2-2.5-.5c-.8-.3-1.5-.8-2.1-1.4-.6-.6-1.1-1.3-1.4-2.1-.3-.8-.5-1.6-.5-2.5s.2-1.7.5-2.5.8-1.5,1.4-2.1c.6-.6,1.3-1.1,2.1-1.4.8-.3,1.6-.5,2.5-.5s1.5.2,2.1.5c.6.3,1.1.8,1.5,1.3v-7.7ZM152.8,429.1c.6,0,1.2-.2,1.7-.5.5-.3.9-.7,1.2-1.3.3-.5.4-1.1.4-1.8s-.1-1.3-.4-1.8c-.3-.5-.7-1-1.2-1.3-.5-.3-1.1-.5-1.7-.5s-1.2.2-1.7.5c-.5.3-.9.8-1.2,1.3s-.5,1.1-.5,1.8.2,1.3.5,1.8c.3.5.7,1,1.2,1.3.5.3,1.1.5,1.7.5Z"/>
      <path d="M167.4,432c-1.1,0-2.2-.3-3.1-.9-.9-.6-1.7-1.4-2.2-2.3-.6-1-.8-2.1-.8-3.2s.2-1.7.5-2.5c.3-.8.8-1.5,1.3-2.1s1.2-1.1,2-1.4c.7-.3,1.5-.5,2.4-.5s1.8.2,2.6.6,1.5,1,2,1.7,1,1.5,1.2,2.4c.3.9.3,1.8.2,2.8h-9c.1.5.3.9.6,1.2.3.4.6.7,1,.9.4.2.9.3,1.4.3.5,0,1-.1,1.4-.4s.8-.6,1.1-1l3.1.7c-.5,1.1-1.2,2-2.2,2.7-1,.7-2.1,1-3.3,1ZM164.4,424.3h6c0-.5-.3-.9-.6-1.3-.3-.4-.6-.7-1.1-.9-.4-.2-.9-.4-1.4-.4s-.9.1-1.4.3c-.4.2-.8.5-1.1.9-.3.4-.5.8-.6,1.3Z"/>
      <path d="M181.6,431.7v-18.4h3v18.4h-3Z"/>
      <path d="M196.6,419.4h3v12.3h-3v-1.5c-.5.5-.9,1-1.5,1.3-.6.3-1.2.5-2,.5s-1.8-.2-2.5-.5c-.8-.3-1.5-.8-2.1-1.4-.6-.6-1.1-1.3-1.4-2.1-.3-.8-.5-1.6-.5-2.5s.2-1.7.5-2.5c.3-.8.8-1.4,1.4-2,.6-.6,1.2-1,2-1.4.8-.3,1.6-.5,2.5-.5s1.5.2,2.2.5,1.2.8,1.6,1.4v-1.6ZM193.1,429.1c.6,0,1.2-.2,1.7-.5.5-.3.9-.7,1.2-1.3.3-.5.4-1.1.4-1.8s-.1-1.3-.4-1.8c-.3-.5-.7-1-1.2-1.3-.5-.3-1.1-.5-1.7-.5s-1.2.2-1.7.5c-.5.3-.9.8-1.2,1.3s-.5,1.1-.5,1.8.2,1.3.5,1.8c.3.5.7,1,1.2,1.3.5.3,1.1.5,1.7.5Z"/>
      <path d="M205.7,431.9c-.6,0-1.3-.2-1.8-.4s-1.1-.5-1.6-.9c-.5-.4-.8-.8-1.1-1.3l2.5-1.1c0,.2.3.3.5.5.2.2.5.3.8.5.3.1.6.2,1,.2s.6,0,.9-.1c.3,0,.5-.2.7-.4s.3-.4.3-.7-.1-.5-.3-.7c-.2-.2-.5-.3-.8-.4-.3,0-.6-.2-.9-.2-.8-.2-1.5-.4-2.2-.7-.7-.3-1.2-.7-1.6-1.3-.4-.5-.6-1.1-.6-1.9s.2-1.5.6-2.1c.4-.6,1-1,1.7-1.4.7-.3,1.4-.5,2.2-.5s1.9.2,2.7.6c.8.4,1.5,1,1.9,1.7l-2.4,1.4c-.1-.2-.3-.4-.5-.5s-.4-.3-.7-.4c-.3-.1-.5-.2-.8-.2-.4,0-.7,0-1,0-.3,0-.5.2-.7.4-.2.2-.3.5-.3.8s.1.5.4.7c.2.2.5.3.9.3.3,0,.7.2,1,.3.7.2,1.4.5,2,.9.6.3,1.1.8,1.5,1.3.4.5.6,1.1.6,1.8,0,.8-.2,1.5-.7,2.1s-1.1,1-1.8,1.4c-.7.3-1.5.4-2.4.4Z"/>
      <path d="M36.9,448.4v7.7h-3v-7c0-.5-.1-.9-.4-1.3-.2-.4-.6-.7-.9-.9-.4-.2-.8-.3-1.3-.3s-.9.1-1.3.3c-.4.2-.7.5-.9.9-.2.4-.3.8-.3,1.3v7h-3v-12.3s3,0,3,0v1.1c.4-.4.9-.8,1.5-1,.6-.3,1.2-.4,1.9-.4s1.7.2,2.4.7c.7.4,1.3,1,1.8,1.8.4.7.7,1.5.7,2.4Z"/>
      <path d="M38.8,451.6v-7.7h3v6.9c0,.5.1.9.4,1.3s.6.7.9.9c.4.2.8.3,1.3.3s.9-.1,1.3-.3.7-.5.9-.9c.2-.4.4-.8.4-1.3v-6.9h3v12.3s-3,0-3,0v-1.1c-.4.4-.9.8-1.5,1s-1.2.4-1.9.4-1.7-.2-2.4-.7-1.3-1-1.8-1.8c-.4-.7-.7-1.5-.7-2.4Z"/>
      <path d="M57.7,456.5c-1.1,0-2.2-.3-3.1-.9-.9-.6-1.7-1.4-2.2-2.3-.6-1-.8-2.1-.8-3.2s.2-1.7.5-2.5c.3-.8.8-1.5,1.3-2.1s1.2-1.1,2-1.4c.7-.3,1.5-.5,2.4-.5s1.8.2,2.6.6,1.5,1,2,1.7,1,1.5,1.2,2.4c.3.9.3,1.8.2,2.8h-9c.1.5.3.9.6,1.2.3.4.6.7,1,.9.4.2.9.3,1.4.3.5,0,1-.1,1.4-.4s.8-.6,1.1-1l3.1.7c-.5,1.1-1.2,2-2.2,2.7-1,.7-2.1,1-3.3,1ZM54.7,448.8h6c0-.5-.3-.9-.6-1.3-.3-.4-.6-.7-1.1-.9-.4-.2-.9-.4-1.4-.4s-.9.1-1.4.3c-.4.2-.8.5-1.1.9-.3.4-.5.8-.6,1.3Z"/>
      <path d="M72.8,456.2h-3.9l-4.5-12.3h3.2l3.2,8.8,3.2-8.8h3.2l-4.5,12.3Z"/>
      <path d="M87.8,443.9h3v12.3h-3v-1.5c-.5.5-.9,1-1.5,1.3-.6.3-1.2.5-2,.5s-1.8-.2-2.5-.5c-.8-.3-1.5-.8-2.1-1.4-.6-.6-1.1-1.3-1.4-2.1-.3-.8-.5-1.6-.5-2.5s.2-1.7.5-2.5c.3-.8.8-1.4,1.4-2,.6-.6,1.2-1,2-1.4.8-.3,1.6-.5,2.5-.5s1.5.2,2.2.5,1.2.8,1.6,1.4v-1.6ZM84.3,453.6c.6,0,1.2-.2,1.7-.5.5-.3.9-.7,1.2-1.3.3-.5.4-1.1.4-1.8s-.1-1.3-.4-1.8c-.3-.5-.7-1-1.2-1.3-.5-.3-1.1-.5-1.7-.5s-1.2.2-1.7.5c-.5.3-.9.8-1.2,1.3s-.5,1.1-.5,1.8.2,1.3.5,1.8c.3.5.7,1,1.2,1.3.5.3,1.1.5,1.7.5Z"/>
      <path d="M96.8,456.4c-.6,0-1.3-.2-1.8-.4s-1.1-.5-1.6-.9c-.5-.4-.8-.8-1.1-1.3l2.5-1.1c0,.2.3.3.5.5.2.2.5.3.8.5.3.1.6.2,1,.2s.6,0,.9-.1c.3,0,.5-.2.7-.4s.3-.4.3-.7-.1-.5-.3-.7c-.2-.2-.5-.3-.8-.4-.3,0-.6-.2-.9-.2-.8-.2-1.5-.4-2.2-.7-.7-.3-1.2-.7-1.6-1.3-.4-.5-.6-1.1-.6-1.9s.2-1.5.6-2.1c.4-.6,1-1,1.7-1.4.7-.3,1.4-.5,2.2-.5s1.9.2,2.7.6c.8.4,1.5,1,1.9,1.7l-2.4,1.4c-.1-.2-.3-.4-.5-.5s-.4-.3-.7-.4c-.3-.1-.5-.2-.8-.2-.4,0-.7,0-1,0-.3,0-.5.2-.7.4-.2.2-.3.5-.3.8s.1.5.4.7c.2.2.5.3.9.3.3,0,.7.2,1,.3.7.2,1.4.5,2,.9.6.3,1.1.8,1.5,1.3.4.5.6,1.1.6,1.8,0,.8-.2,1.5-.7,2.1s-1.1,1-1.8,1.4c-.7.3-1.5.4-2.4.4Z"/>
      <path d="M117.3,456.2h-3.9l-4.5-12.3h3.2l3.2,8.8,3.2-8.8h3.2l-4.5,12.3Z"/>
      <path d="M128.5,456.5c-1.1,0-2.2-.3-3.1-.9-.9-.6-1.7-1.4-2.2-2.3-.6-1-.8-2.1-.8-3.2s.2-1.7.5-2.5c.3-.8.8-1.5,1.3-2.1s1.2-1.1,2-1.4c.7-.3,1.5-.5,2.4-.5s1.8.2,2.6.6,1.5,1,2,1.7,1,1.5,1.2,2.4c.3.9.3,1.8.2,2.8h-9c.1.5.3.9.6,1.2.3.4.6.7,1,.9.4.2.9.3,1.4.3.5,0,1-.1,1.4-.4s.8-.6,1.1-1l3.1.7c-.5,1.1-1.2,2-2.2,2.7-1,.7-2.1,1-3.3,1ZM125.5,448.8h6c0-.5-.3-.9-.6-1.3-.3-.4-.6-.7-1.1-.9-.4-.2-.9-.4-1.4-.4s-.9.1-1.4.3c-.4.2-.8.5-1.1.9-.3.4-.5.8-.6,1.3Z"/>
      <path d="M136.6,456.2v-12.3s3,0,3,0v1.1c.4-.4.9-.8,1.5-1,.6-.3,1.2-.4,1.9-.4s.9,0,1.3.2l-1.2,3c-.3-.1-.6-.2-.9-.2-.5,0-.9.1-1.3.3-.4.2-.7.5-.9.9-.2.4-.3.8-.3,1.3v7h-3Z"/>
      <path d="M149.2,456.4c-.6,0-1.3-.2-1.8-.4s-1.1-.5-1.6-.9c-.5-.4-.8-.8-1.1-1.3l2.5-1.1c0,.2.3.3.5.5.2.2.5.3.8.5.3.1.6.2,1,.2s.6,0,.9-.1c.3,0,.5-.2.7-.4s.3-.4.3-.7-.1-.5-.3-.7c-.2-.2-.5-.3-.8-.4-.3,0-.6-.2-.9-.2-.8-.2-1.5-.4-2.2-.7-.7-.3-1.2-.7-1.6-1.3-.4-.5-.6-1.1-.6-1.9s.2-1.5.6-2.1c.4-.6,1-1,1.7-1.4.7-.3,1.4-.5,2.2-.5s1.9.2,2.7.6c.8.4,1.5,1,1.9,1.7l-2.4,1.4c-.1-.2-.3-.4-.5-.5s-.4-.3-.7-.4c-.3-.1-.5-.2-.8-.2-.4,0-.7,0-1,0-.3,0-.5.2-.7.4-.2.2-.3.5-.3.8s.1.5.4.7c.2.2.5.3.9.3.3,0,.7.2,1,.3.7.2,1.4.5,2,.9.6.3,1.1.8,1.5,1.3.4.5.6,1.1.6,1.8,0,.8-.2,1.5-.7,2.1s-1.1,1-1.8,1.4c-.7.3-1.5.4-2.4.4Z"/>
      <path d="M157.5,442.3c-.4,0-.8-.1-1.1-.4-.3-.3-.5-.7-.5-1.1s.2-.8.5-1.1.7-.4,1.1-.4.8.1,1.1.4c.3.3.4.7.4,1.1s-.1.8-.4,1.1c-.3.3-.7.4-1.1.4ZM156,443.9h3v12.3h-3v-12.3Z"/>
      <path d="M167,456.5c-1.1,0-2.2-.3-3.1-.9-.9-.6-1.7-1.4-2.2-2.3-.6-1-.8-2.1-.8-3.2s.2-1.7.5-2.5c.3-.8.8-1.5,1.3-2.1s1.2-1.1,2-1.4c.7-.3,1.5-.5,2.4-.5s2.2.3,3.1.9c.9.6,1.7,1.4,2.2,2.3.6,1,.8,2.1.8,3.3s-.2,1.7-.5,2.5c-.3.8-.8,1.5-1.3,2.1-.6.6-1.2,1.1-1.9,1.4-.7.3-1.5.5-2.4.5ZM167,453.5c.6,0,1.1-.2,1.6-.5.5-.3.8-.7,1.1-1.3.3-.5.4-1.1.4-1.7s-.1-1.2-.4-1.7-.7-.9-1.1-1.3-1-.5-1.6-.5-1.1.2-1.6.5c-.5.3-.8.7-1.1,1.3-.3.5-.4,1.1-.4,1.7s.1,1.2.4,1.8c.3.5.7.9,1.1,1.2.5.3,1,.5,1.6.5Z"/>
      <path d="M186.3,448.4v7.7h-3v-7c0-.5-.1-.9-.4-1.3-.2-.4-.6-.7-.9-.9-.4-.2-.8-.3-1.3-.3s-.9.1-1.3.3c-.4.2-.7.5-.9.9-.2.4-.3.8-.3,1.3v7h-3v-12.3s3,0,3,0v1.1c.4-.4.9-.8,1.5-1,.6-.3,1.2-.4,1.9-.4s1.7.2,2.4.7c.7.4,1.3,1,1.8,1.8.4.7.7,1.5.7,2.4Z"/>
      <path d="M193.9,456.5c-1.1,0-2.2-.3-3.1-.9-.9-.6-1.7-1.4-2.2-2.3-.6-1-.8-2.1-.8-3.2s.2-1.7.5-2.5c.3-.8.8-1.5,1.3-2.1s1.2-1.1,2-1.4c.7-.3,1.5-.5,2.4-.5s1.8.2,2.6.6,1.5,1,2,1.7,1,1.5,1.2,2.4c.3.9.3,1.8.2,2.8h-9c.1.5.3.9.6,1.2.3.4.6.7,1,.9.4.2.9.3,1.4.3.5,0,1-.1,1.4-.4s.8-.6,1.1-1l3.1.7c-.5,1.1-1.2,2-2.2,2.7-1,.7-2.1,1-3.3,1ZM190.9,448.8h6c0-.5-.3-.9-.6-1.3-.3-.4-.6-.7-1.1-.9-.4-.2-.9-.4-1.4-.4s-.9.1-1.4.3c-.4.2-.8.5-1.1.9-.3.4-.5.8-.6,1.3Z"/>
      <path d="M205.7,456.4c-.6,0-1.3-.2-1.8-.4s-1.1-.5-1.6-.9c-.5-.4-.8-.8-1.1-1.3l2.5-1.1c0,.2.3.3.5.5.2.2.5.3.8.5.3.1.6.2,1,.2s.6,0,.9-.1c.3,0,.5-.2.7-.4s.3-.4.3-.7-.1-.5-.3-.7c-.2-.2-.5-.3-.8-.4-.3,0-.6-.2-.9-.2-.8-.2-1.5-.4-2.2-.7-.7-.3-1.2-.7-1.6-1.3-.4-.5-.6-1.1-.6-1.9s.2-1.5.6-2.1c.4-.6,1-1,1.7-1.4.7-.3,1.4-.5,2.2-.5s1.9.2,2.7.6c.8.4,1.5,1,1.9,1.7l-2.4,1.4c-.1-.2-.3-.4-.5-.5s-.4-.3-.7-.4c-.3-.1-.5-.2-.8-.2-.4,0-.7,0-1,0-.3,0-.5.2-.7.4-.2.2-.3.5-.3.8s.1.5.4.7c.2.2.5.3.9.3.3,0,.7.2,1,.3.7.2,1.4.5,2,.9.6.3,1.1.8,1.5,1.3.4.5.6,1.1.6,1.8,0,.8-.2,1.5-.7,2.1s-1.1,1-1.8,1.4c-.7.3-1.5.4-2.4.4Z"/>
      <path d="M73.5,462.3h2.1v18.4h-2.1v-2.1c-.4.7-1,1.3-1.7,1.7-.7.4-1.5.7-2.5.7s-1.7-.2-2.5-.5c-.8-.3-1.5-.8-2.1-1.4-.6-.6-1.1-1.3-1.4-2.1-.3-.8-.5-1.6-.5-2.5s.2-1.7.5-2.5c.3-.8.8-1.5,1.4-2.1.6-.6,1.3-1.1,2.1-1.4.8-.3,1.6-.5,2.5-.5s1.8.2,2.5.7c.7.4,1.3,1,1.7,1.7v-8.2ZM69.3,479c.8,0,1.5-.2,2.1-.6.6-.4,1-.9,1.4-1.6.3-.7.5-1.4.5-2.2s-.2-1.6-.5-2.3c-.3-.7-.8-1.2-1.4-1.6-.6-.4-1.3-.6-2.1-.6s-1.5.2-2.2.6c-.7.4-1.2.9-1.6,1.6-.4.7-.6,1.4-.6,2.2s.2,1.6.6,2.2c.4.7.9,1.2,1.6,1.6.7.4,1.4.6,2.2.6Z"/>
      <path d="M83.7,481c-1.1,0-2.2-.3-3.1-.9-.9-.6-1.7-1.4-2.2-2.3-.6-1-.8-2.1-.8-3.2s.2-1.7.5-2.5c.3-.8.8-1.5,1.3-2.1s1.2-1.1,2-1.4c.7-.3,1.5-.5,2.4-.5s1.8.2,2.5.6c.8.4,1.4.9,2,1.6s1,1.4,1.2,2.3c.3.9.4,1.8.3,2.8h-10c0,.7.3,1.3.7,1.9.4.5.8,1,1.4,1.3.6.3,1.2.5,1.9.5.7,0,1.4-.2,2-.6.6-.4,1.1-.9,1.4-1.6l2.1.5c-.5,1.1-1.2,2-2.2,2.7-1,.7-2.1,1-3.3,1ZM79.7,473.7h8c0-.7-.3-1.3-.7-1.9-.4-.6-.9-1-1.4-1.4-.6-.3-1.2-.5-1.9-.5s-1.3.2-1.9.5c-.6.3-1,.8-1.4,1.4-.4.6-.6,1.2-.7,1.9Z"/>
      <path d="M105.9,481c-1.2,0-2.3-.2-3.3-.7s-1.9-1.1-2.7-1.9c-.8-.8-1.4-1.8-1.8-2.8-.4-1.1-.7-2.2-.7-3.4s.2-2.4.7-3.4c.4-1.1,1-2,1.8-2.8.8-.8,1.7-1.5,2.7-1.9s2.1-.7,3.3-.7,2.3.2,3.3.7,1.9,1.1,2.7,1.9,1.4,1.8,1.8,2.8c.4,1.1.7,2.2.7,3.4s-.2,2.4-.7,3.4c-.4,1.1-1,2-1.8,2.8-.8.8-1.7,1.5-2.7,1.9s-2.1.7-3.3.7ZM105.9,478.9c.9,0,1.7-.2,2.5-.5s1.4-.9,2-1.5c.6-.6,1-1.4,1.4-2.2.3-.8.5-1.7.5-2.6s-.2-1.8-.5-2.6-.8-1.6-1.4-2.2-1.3-1.1-2-1.5-1.6-.5-2.5-.5-1.7.2-2.5.5-1.5.9-2,1.5c-.6.6-1,1.4-1.4,2.2-.3.8-.5,1.7-.5,2.6s.2,1.8.5,2.6c.3.8.8,1.6,1.4,2.2.6.6,1.3,1.1,2,1.5s1.6.5,2.5.5Z"/>
      <path d="M117.8,481c-.6,0-1.1,0-1.7-.3s-1-.5-1.5-.9l1.3-1.6c.2.2.5.4.8.5.3.1.7.2,1,.2.5,0,1-.1,1.5-.4.4-.3.8-.7,1.1-1.1.3-.5.4-1,.4-1.5v-12.4h2.1v12.4c0,.9-.2,1.8-.7,2.5s-1,1.4-1.8,1.9-1.6.7-2.5.7Z"/>
      <path d="M131.8,481c-.9,0-1.8-.1-2.7-.4-.9-.3-1.6-.7-2.2-1.2-.6-.5-1.1-1.2-1.4-1.9l1.9-.7c.2.5.5.9.9,1.2.4.3,1,.6,1.6.8s1.2.3,1.9.3,1.4-.1,2.1-.4c.6-.2,1.1-.6,1.5-1,.4-.4.6-.9.6-1.5s-.2-1.1-.6-1.5c-.4-.4-.9-.7-1.6-.9s-1.3-.4-2-.5c-1.2-.2-2.2-.5-3.2-.8-.9-.4-1.7-.9-2.2-1.5-.5-.7-.8-1.5-.8-2.6s.3-1.9.9-2.6c.6-.7,1.3-1.3,2.3-1.7.9-.4,2-.6,3.1-.6s1.8.1,2.6.4,1.6.7,2.3,1.2c.7.5,1.1,1.2,1.4,2l-1.9.7c-.2-.5-.5-.9-.9-1.2s-1-.6-1.6-.8c-.6-.2-1.2-.3-1.9-.3-.7,0-1.4.1-2,.4s-1.1.6-1.5,1-.6.9-.6,1.5.2,1.2.5,1.6.9.6,1.5.8,1.3.3,2.1.5c1.1.2,2.1.5,3.1.9s1.7.9,2.3,1.6c.6.7.9,1.5.9,2.5s-.3,1.9-.9,2.6c-.6.7-1.3,1.3-2.3,1.7-.9.4-2,.6-3.1.6Z"/>
      <path d="M155.1,468.4h2.2l-6.7,18.4h-2.2l2.2-6.1-4.4-12.3h2.3l3.2,9.4,3.5-9.4Z"/>
      <path d="M173.5,481c-1.2,0-2.3-.2-3.3-.7s-1.9-1.1-2.7-1.9c-.8-.8-1.4-1.8-1.8-2.8-.4-1.1-.7-2.2-.7-3.4s.2-2.4.7-3.4c.4-1.1,1-2,1.8-2.8.8-.8,1.7-1.5,2.7-1.9s2.1-.7,3.3-.7,2.3.2,3.3.7,1.9,1.1,2.7,1.9,1.4,1.8,1.8,2.8c.4,1.1.7,2.2.7,3.4s-.2,2.4-.7,3.4c-.4,1.1-1,2-1.8,2.8-.8.8-1.7,1.5-2.7,1.9s-2.1.7-3.3.7ZM173.5,478.9c.9,0,1.7-.2,2.5-.5s1.4-.9,2-1.5c.6-.6,1-1.4,1.4-2.2.3-.8.5-1.7.5-2.6s-.2-1.8-.5-2.6-.8-1.6-1.4-2.2-1.3-1.1-2-1.5-1.6-.5-2.5-.5-1.7.2-2.5.5-1.5.9-2,1.5c-.6.6-1,1.4-1.4,2.2-.3.8-.5,1.7-.5,2.6s.2,1.8.5,2.6c.3.8.8,1.6,1.4,2.2.6.6,1.3,1.1,2,1.5s1.6.5,2.5.5Z"/>
      <path d="M184,480.7l3.3-17.2h1.6l4.6,12.2,4.6-12.2h1.6l3.3,17.2h-2.1l-2.4-12.4-4.4,11.5h-1.4l-4.3-11.5-2.4,12.4h-2.1Z"/>
      <path d="M205.5,480.7v-17.2h5.7c.9,0,1.8.2,2.5.7s1.3,1.1,1.8,1.8c.4.8.7,1.6.7,2.6s-.2,1.8-.7,2.6c-.4.8-1,1.4-1.8,1.8-.7.4-1.6.7-2.5.7h-3.6v7h-2.1ZM207.6,471.6h3.4c.6,0,1.1-.1,1.5-.4.5-.3.8-.6,1.1-1.1.3-.5.4-1,.4-1.6s-.1-1.1-.4-1.6c-.3-.5-.6-.8-1.1-1.1-.5-.3-1-.4-1.5-.4h-3.4v6.2Z"/>
    </g>
    <g>
      <path d="M570.4,544h3.4l6.2,17.2h-3.2l-1.1-3h-7.4l-1.1,3h-3.2l6.2-17.2ZM569.5,555.2h5.2l-2.6-7.1-2.6,7.1Z"/>
      <path d="M581.1,556.7v-7.7h3v6.9c0,.5.1.9.4,1.3.2.4.6.7.9.9.4.2.8.3,1.3.3s.9-.1,1.3-.3c.4-.2.7-.5.9-.9.2-.4.4-.8.4-1.3v-6.9h3v12.3s-3,0-3,0v-1.1c-.4.4-.9.8-1.5,1s-1.2.4-1.9.4-1.7-.2-2.4-.7c-.7-.4-1.3-1-1.8-1.8-.4-.7-.7-1.5-.7-2.4Z"/>
      <path d="M594.8,561.2v-12.3h3v1.1c.4-.4.9-.8,1.5-1s1.2-.4,1.9-.4,1.6.2,2.3.6c.7.4,1.3.9,1.7,1.6.4-.7,1-1.2,1.7-1.6.7-.4,1.5-.6,2.3-.6s1.7.2,2.4.7c.7.4,1.3,1,1.8,1.8.4.7.7,1.5.7,2.4v7.7h-3v-6.9c0-.5-.1-.9-.3-1.3-.2-.4-.5-.7-.9-1-.4-.2-.8-.4-1.3-.4s-.9.1-1.3.3c-.4.2-.7.5-.9.9-.2.4-.4.8-.4,1.3v6.9h-3v-6.9c0-.5-.1-.9-.3-1.3-.2-.4-.5-.7-.9-.9-.4-.2-.8-.3-1.3-.3s-.9.1-1.3.4c-.4.2-.7.6-.9,1-.2.4-.3.8-.3,1.3v6.9h-3Z"/>
      <path d="M621.7,561.5c-1.1,0-2.2-.3-3.1-.9-.9-.6-1.7-1.4-2.2-2.3-.6-1-.8-2.1-.8-3.2s.2-1.7.5-2.5.8-1.5,1.3-2.1c.6-.6,1.2-1.1,2-1.4s1.5-.5,2.4-.5,1.8.2,2.6.6c.8.4,1.5,1,2,1.7s1,1.5,1.2,2.4.3,1.8.2,2.8h-9c.1.5.3.9.6,1.2s.6.7,1,.9c.4.2.9.3,1.4.3.5,0,1-.1,1.4-.4.4-.3.8-.6,1.1-1l3.1.7c-.5,1.1-1.2,2-2.2,2.7s-2.1,1-3.3,1ZM618.7,553.8h6c0-.5-.3-.9-.6-1.3-.3-.4-.6-.7-1.1-1-.4-.2-.9-.4-1.4-.4s-.9.1-1.4.3c-.4.2-.8.5-1.1.9s-.5.8-.6,1.3Z"/>
      <path d="M641,553.4v7.7h-3v-7c0-.5-.1-.9-.4-1.3-.2-.4-.6-.7-.9-.9-.4-.2-.8-.3-1.3-.3s-.9.1-1.3.3c-.4.2-.7.5-.9.9-.2.4-.3.8-.3,1.3v7h-3v-12.3s3,0,3,0v1.1c.4-.4.9-.8,1.5-1s1.2-.4,1.9-.4,1.7.2,2.4.7c.7.4,1.3,1,1.8,1.8.4.7.7,1.5.7,2.4Z"/>
      <path d="M650,551.9h-2.4v9.3h-3v-9.3h-1.8v-3h1.8v-3.8h3v3.8h2.4v3Z"/>
      <path d="M661.2,548.9h3v12.3h-3v-1.5c-.5.5-.9,1-1.5,1.3-.6.3-1.2.5-2,.5s-1.8-.2-2.5-.5c-.8-.3-1.5-.8-2.1-1.4-.6-.6-1.1-1.3-1.4-2.1-.3-.8-.5-1.6-.5-2.5s.2-1.7.5-2.5c.3-.8.8-1.4,1.4-2,.6-.6,1.2-1,2-1.4.8-.3,1.6-.5,2.5-.5s1.5.2,2.2.5,1.2.8,1.6,1.4v-1.6ZM657.7,558.6c.6,0,1.2-.2,1.7-.5.5-.3.9-.7,1.2-1.3.3-.5.4-1.1.4-1.8s-.1-1.3-.4-1.8-.7-1-1.2-1.3-1.1-.5-1.7-.5-1.2.2-1.7.5c-.5.3-.9.8-1.2,1.3s-.5,1.1-.5,1.8.2,1.3.5,1.8.7,1,1.2,1.3c.5.3,1.1.5,1.7.5Z"/>
      <path d="M672.5,561.2v-18.4h3v18.4h-3Z"/>
      <path d="M687.5,548.9h3v12.3h-3v-1.5c-.5.5-.9,1-1.5,1.3-.6.3-1.2.5-2,.5s-1.8-.2-2.5-.5c-.8-.3-1.5-.8-2.1-1.4-.6-.6-1.1-1.3-1.4-2.1-.3-.8-.5-1.6-.5-2.5s.2-1.7.5-2.5c.3-.8.8-1.4,1.4-2,.6-.6,1.2-1,2-1.4.8-.3,1.6-.5,2.5-.5s1.5.2,2.2.5,1.2.8,1.6,1.4v-1.6ZM684,558.6c.6,0,1.2-.2,1.7-.5.5-.3.9-.7,1.2-1.3.3-.5.4-1.1.4-1.8s-.1-1.3-.4-1.8-.7-1-1.2-1.3-1.1-.5-1.7-.5-1.2.2-1.7.5c-.5.3-.9.8-1.2,1.3s-.5,1.1-.5,1.8.2,1.3.5,1.8.7,1,1.2,1.3c.5.3,1.1.5,1.7.5Z"/>
      <path d="M572.3,585.7h-3.9l-4.5-12.3h3.2l3.2,8.8,3.2-8.8h3.2l-4.5,12.3Z"/>
      <path d="M580.1,571.9c-.4,0-.8-.1-1.1-.4-.3-.3-.5-.7-.5-1.1s.2-.8.5-1.1c.3-.3.7-.4,1.1-.4s.8.1,1.1.4c.3.3.4.7.4,1.1s-.1.8-.4,1.1-.7.4-1.1.4ZM578.5,573.4h3v12.3h-3v-12.3Z"/>
      <path d="M587.9,585.9c-.6,0-1.3-.2-1.8-.4-.6-.2-1.1-.5-1.6-.9-.5-.4-.8-.8-1.1-1.3l2.5-1.1c0,.2.3.3.5.5s.5.3.8.5c.3.1.6.2,1,.2s.6,0,.9-.1c.3,0,.5-.2.7-.4s.3-.4.3-.7-.1-.5-.3-.7c-.2-.2-.5-.3-.8-.4-.3,0-.6-.2-.9-.2-.8-.2-1.5-.4-2.2-.7-.7-.3-1.2-.8-1.6-1.3s-.6-1.1-.6-1.9.2-1.5.6-2.1c.4-.6,1-1,1.7-1.4.7-.3,1.4-.5,2.2-.5s1.9.2,2.7.6c.8.4,1.5,1,1.9,1.7l-2.4,1.4c-.1-.2-.3-.4-.5-.5s-.4-.3-.7-.4c-.3-.1-.5-.2-.8-.2-.4,0-.7,0-1,0-.3,0-.5.2-.7.4s-.3.5-.3.8.1.5.4.7.5.3.9.3c.3,0,.7.2,1,.3.7.2,1.4.5,2,.9.6.3,1.1.8,1.5,1.3.4.5.6,1.1.6,1.8,0,.8-.2,1.5-.7,2.1-.5.6-1.1,1-1.8,1.4-.7.3-1.5.4-2.4.4Z"/>
      <path d="M596.2,571.9c-.4,0-.8-.1-1.1-.4-.3-.3-.5-.7-.5-1.1s.2-.8.5-1.1c.3-.3.7-.4,1.1-.4s.8.1,1.1.4c.3.3.4.7.4,1.1s-.1.8-.4,1.1-.7.4-1.1.4ZM594.7,573.4h3v12.3h-3v-12.3Z"/>
      <path d="M607.1,573.1c1.2,0,2.3.3,3.3.9s1.8,1.4,2.3,2.3c.6,1,.9,2.1.9,3.2s-.2,1.7-.5,2.5-.8,1.5-1.4,2.1c-.6.6-1.3,1.1-2.1,1.4s-1.6.5-2.5.5-1.4-.2-2-.5c-.6-.3-1.1-.8-1.5-1.4v1.6h-3v-18.4h3v7.7c.4-.6.9-1,1.5-1.4.6-.3,1.3-.5,2-.5ZM607.1,583.1c.6,0,1.2-.2,1.7-.5.5-.3.9-.8,1.2-1.3s.5-1.1.5-1.8-.2-1.3-.5-1.8c-.3-.5-.7-1-1.2-1.3-.5-.3-1.1-.5-1.7-.5s-1.2.2-1.7.5c-.5.3-.9.8-1.2,1.3s-.4,1.1-.4,1.8.1,1.3.4,1.8.7,1,1.2,1.3c.5.3,1,.5,1.7.5Z"/>
      <path d="M616.8,571.9c-.4,0-.8-.1-1.1-.4-.3-.3-.5-.7-.5-1.1s.2-.8.5-1.1c.3-.3.7-.4,1.1-.4s.8.1,1.1.4c.3.3.4.7.4,1.1s-.1.8-.4,1.1-.7.4-1.1.4ZM615.2,573.4h3v12.3h-3v-12.3Z"/>
      <path d="M621.2,585.7v-18.4h3v18.4h-3Z"/>
      <path d="M628.6,571.9c-.4,0-.8-.1-1.1-.4-.3-.3-.5-.7-.5-1.1s.2-.8.5-1.1c.3-.3.7-.4,1.1-.4s.8.1,1.1.4c.3.3.4.7.4,1.1s-.1.8-.4,1.1-.7.4-1.1.4ZM627.1,573.4h3v12.3h-3v-12.3Z"/>
      <path d="M642,567.3h3v18.4h-3v-1.5c-.4.5-.9,1-1.5,1.3-.6.3-1.3.5-2.1.5s-1.7-.2-2.5-.5c-.8-.3-1.5-.8-2.1-1.4-.6-.6-1.1-1.3-1.4-2.1-.3-.8-.5-1.6-.5-2.5s.2-1.7.5-2.5.8-1.5,1.4-2.1c.6-.6,1.3-1.1,2.1-1.4.8-.3,1.6-.5,2.5-.5s1.5.2,2.1.5c.6.3,1.1.8,1.5,1.3v-7.7ZM638.5,583.1c.6,0,1.2-.2,1.7-.5.5-.3.9-.7,1.2-1.3.3-.5.4-1.1.4-1.8s-.1-1.3-.4-1.8-.7-1-1.2-1.3-1.1-.5-1.7-.5-1.2.2-1.7.5c-.5.3-.9.8-1.2,1.3s-.5,1.1-.5,1.8.2,1.3.5,1.8.7,1,1.2,1.3c.5.3,1.1.5,1.7.5Z"/>
      <path d="M657,573.4h3v12.3h-3v-1.5c-.5.5-.9,1-1.5,1.3-.6.3-1.2.5-2,.5s-1.8-.2-2.5-.5c-.8-.3-1.5-.8-2.1-1.4-.6-.6-1.1-1.3-1.4-2.1-.3-.8-.5-1.6-.5-2.5s.2-1.7.5-2.5c.3-.8.8-1.4,1.4-2,.6-.6,1.2-1,2-1.4.8-.3,1.6-.5,2.5-.5s1.5.2,2.2.5,1.2.8,1.6,1.4v-1.6ZM653.5,583.1c.6,0,1.2-.2,1.7-.5.5-.3.9-.7,1.2-1.3.3-.5.4-1.1.4-1.8s-.1-1.3-.4-1.8-.7-1-1.2-1.3-1.1-.5-1.7-.5-1.2.2-1.7.5c-.5.3-.9.8-1.2,1.3s-.5,1.1-.5,1.8.2,1.3.5,1.8.7,1,1.2,1.3c.5.3,1.1.5,1.7.5Z"/>
      <path d="M671.5,567.3h3v18.4h-3v-1.5c-.4.5-.9,1-1.5,1.3-.6.3-1.3.5-2.1.5s-1.7-.2-2.5-.5c-.8-.3-1.5-.8-2.1-1.4-.6-.6-1.1-1.3-1.4-2.1-.3-.8-.5-1.6-.5-2.5s.2-1.7.5-2.5.8-1.5,1.4-2.1c.6-.6,1.3-1.1,2.1-1.4.8-.3,1.6-.5,2.5-.5s1.5.2,2.1.5c.6.3,1.1.8,1.5,1.3v-7.7ZM668,583.1c.6,0,1.2-.2,1.7-.5.5-.3.9-.7,1.2-1.3.3-.5.4-1.1.4-1.8s-.1-1.3-.4-1.8-.7-1-1.2-1.3-1.1-.5-1.7-.5-1.2.2-1.7.5c-.5.3-.9.8-1.2,1.3s-.5,1.1-.5,1.8.2,1.3.5,1.8.7,1,1.2,1.3c.5.3,1.1.5,1.7.5Z"/>
      <path d="M692.5,567.3h3v18.4h-3v-1.5c-.4.5-.9,1-1.5,1.3-.6.3-1.3.5-2.1.5s-1.7-.2-2.5-.5c-.8-.3-1.5-.8-2.1-1.4-.6-.6-1.1-1.3-1.4-2.1-.3-.8-.5-1.6-.5-2.5s.2-1.7.5-2.5.8-1.5,1.4-2.1c.6-.6,1.3-1.1,2.1-1.4.8-.3,1.6-.5,2.5-.5s1.5.2,2.1.5c.6.3,1.1.8,1.5,1.3v-7.7ZM689,583.1c.6,0,1.2-.2,1.7-.5.5-.3.9-.7,1.2-1.3.3-.5.4-1.1.4-1.8s-.1-1.3-.4-1.8-.7-1-1.2-1.3-1.1-.5-1.7-.5-1.2.2-1.7.5c-.5.3-.9.8-1.2,1.3s-.5,1.1-.5,1.8.2,1.3.5,1.8.7,1,1.2,1.3c.5.3,1.1.5,1.7.5Z"/>
      <path d="M703.7,586c-1.1,0-2.2-.3-3.1-.9-.9-.6-1.7-1.4-2.2-2.3-.6-1-.8-2.1-.8-3.2s.2-1.7.5-2.5.8-1.5,1.3-2.1c.6-.6,1.2-1.1,2-1.4s1.5-.5,2.4-.5,1.8.2,2.6.6c.8.4,1.5,1,2,1.7s1,1.5,1.2,2.4.3,1.8.2,2.8h-9c.1.5.3.9.6,1.2s.6.7,1,.9c.4.2.9.3,1.4.3.5,0,1-.1,1.4-.4.4-.3.8-.6,1.1-1l3.1.7c-.5,1.1-1.2,2-2.2,2.7s-2.1,1-3.3,1ZM700.7,578.3h6c0-.5-.3-.9-.6-1.3-.3-.4-.6-.7-1.1-1-.4-.2-.9-.4-1.4-.4s-.9.1-1.4.3c-.4.2-.8.5-1.1.9s-.5.8-.6,1.3Z"/>
      <path d="M724.5,576.4h-2.4v9.3h-3v-9.3h-1.8v-3h1.8v-3.8h3v3.8h2.4v3Z"/>
      <path d="M726.2,581.2v-7.7h3v6.9c0,.5.1.9.4,1.3.2.4.6.7.9.9.4.2.8.3,1.3.3s.9-.1,1.3-.3c.4-.2.7-.5.9-.9.2-.4.4-.8.4-1.3v-6.9h3v12.3s-3,0-3,0v-1.1c-.4.4-.9.8-1.5,1s-1.2.4-1.9.4-1.7-.2-2.4-.7c-.7-.4-1.3-1-1.8-1.8-.4-.7-.7-1.5-.7-2.4Z"/>
      <path d="M568.3,610.4c-.6,0-1.3-.2-1.8-.4-.6-.2-1.1-.5-1.6-.9-.5-.4-.8-.8-1.1-1.3l2.5-1.1c0,.2.3.3.5.5s.5.3.8.5c.3.1.6.2,1,.2s.6,0,.9-.1c.3,0,.5-.2.7-.4s.3-.4.3-.7-.1-.5-.3-.7c-.2-.2-.5-.3-.8-.4-.3,0-.6-.2-.9-.2-.8-.2-1.5-.4-2.2-.7-.7-.3-1.2-.8-1.6-1.3s-.6-1.1-.6-1.9.2-1.5.6-2.1c.4-.6,1-1,1.7-1.4.7-.3,1.4-.5,2.2-.5s1.9.2,2.7.6c.8.4,1.5,1,1.9,1.7l-2.4,1.4c-.1-.2-.3-.4-.5-.5s-.4-.3-.7-.4c-.3-.1-.5-.2-.8-.2-.4,0-.7,0-1,0-.3,0-.5.2-.7.4s-.3.5-.3.8.1.5.4.7.5.3.9.3c.3,0,.7.2,1,.3.7.2,1.4.5,2,.9.6.3,1.1.8,1.5,1.3.4.5.6,1.1.6,1.8,0,.8-.2,1.5-.7,2.1-.5.6-1.1,1-1.8,1.4-.7.3-1.5.4-2.4.4Z"/>
      <path d="M576.6,596.4c-.4,0-.8-.1-1.1-.4-.3-.3-.5-.7-.5-1.1s.2-.8.5-1.1c.3-.3.7-.4,1.1-.4s.8.1,1.1.4c.3.3.4.7.4,1.1s-.1.8-.4,1.1-.7.4-1.1.4ZM575,597.9h3v12.3h-3v-12.3Z"/>
      <path d="M587.5,600.9h-2.4v9.3h-3v-9.3h-1.8v-3h1.8v-3.8h3v3.8h2.4v3Z"/>
      <path d="M591.1,596.4c-.4,0-.8-.1-1.1-.4-.3-.3-.5-.7-.5-1.1s.2-.8.5-1.1c.3-.3.7-.4,1.1-.4s.8.1,1.1.4c.3.3.4.7.4,1.1s-.1.8-.4,1.1-.7.4-1.1.4ZM589.6,597.9h3v12.3h-3v-12.3Z"/>
      <path d="M600.6,610.5c-1.1,0-2.2-.3-3.1-.9-.9-.6-1.7-1.4-2.2-2.3-.6-1-.8-2.1-.8-3.2s.2-1.7.5-2.5.8-1.5,1.3-2.1c.6-.6,1.2-1.1,2-1.4s1.5-.5,2.4-.5,2.2.3,3.1.9c.9.6,1.7,1.4,2.2,2.3.6,1,.8,2.1.8,3.3s-.2,1.7-.5,2.5c-.3.8-.8,1.5-1.3,2.1-.6.6-1.2,1.1-1.9,1.4s-1.5.5-2.4.5ZM600.6,607.5c.6,0,1.1-.2,1.6-.5.5-.3.8-.7,1.1-1.3.3-.5.4-1.1.4-1.7s-.1-1.2-.4-1.7c-.3-.5-.7-.9-1.1-1.3-.5-.3-1-.5-1.6-.5s-1.1.2-1.6.5c-.5.3-.8.7-1.1,1.3-.3.5-.4,1.1-.4,1.7s.1,1.2.4,1.8c.3.5.7.9,1.1,1.2.5.3,1,.5,1.6.5Z"/>
      <path d="M621.1,610.2h-3l-4.1-12.3h2.9l2.7,7.9,2.6-7.9h3l2.6,7.9,2.7-7.9h2.9l-4.1,12.3h-3l-2.7-8-2.6,8Z"/>
      <path d="M640.2,610.5c-1.1,0-2.2-.3-3.1-.9-.9-.6-1.7-1.4-2.2-2.3-.6-1-.8-2.1-.8-3.2s.2-1.7.5-2.5.8-1.5,1.3-2.1c.6-.6,1.2-1.1,2-1.4s1.5-.5,2.4-.5,1.8.2,2.6.6c.8.4,1.5,1,2,1.7s1,1.5,1.2,2.4.3,1.8.2,2.8h-9c.1.5.3.9.6,1.2s.6.7,1,.9c.4.2.9.3,1.4.3.5,0,1-.1,1.4-.4.4-.3.8-.6,1.1-1l3.1.7c-.5,1.1-1.2,2-2.2,2.7s-2.1,1-3.3,1ZM637.2,602.8h6c0-.5-.3-.9-.6-1.3-.3-.4-.6-.7-1.1-1-.4-.2-.9-.4-1.4-.4s-.9.1-1.4.3c-.4.2-.8.5-1.1.9s-.5.8-.6,1.3Z"/>
      <path d="M654.6,597.6c1.2,0,2.3.3,3.3.9s1.8,1.4,2.3,2.3c.6,1,.9,2.1.9,3.2s-.2,1.7-.5,2.5-.8,1.5-1.4,2.1c-.6.6-1.3,1.1-2.1,1.4s-1.6.5-2.5.5-1.4-.2-2-.5c-.6-.3-1.1-.8-1.5-1.4v1.6h-3v-18.4h3v7.7c.4-.6.9-1,1.5-1.4.6-.3,1.3-.5,2-.5ZM654.6,607.6c.6,0,1.2-.2,1.7-.5.5-.3.9-.8,1.2-1.3s.5-1.1.5-1.8-.2-1.3-.5-1.8c-.3-.5-.7-1-1.2-1.3-.5-.3-1.1-.5-1.7-.5s-1.2.2-1.7.5c-.5.3-.9.8-1.2,1.3s-.4,1.1-.4,1.8.1,1.3.4,1.8.7,1,1.2,1.3c.5.3,1,.5,1.7.5Z"/>
      <path d="M677.6,607l1.8,1c-.6.8-1.3,1.4-2.1,1.9s-1.8.7-2.8.7-2.2-.3-3.1-.9c-.9-.6-1.7-1.4-2.2-2.3-.6-1-.8-2.1-.8-3.2s.2-1.7.5-2.5.8-1.5,1.3-2.1c.6-.6,1.2-1.1,2-1.4s1.5-.5,2.4-.5,1.9.2,2.8.7,1.6,1.1,2.1,1.9l-1.8,1c-.4-.5-.9-.9-1.4-1.1-.5-.3-1.1-.4-1.7-.4s-1.4.2-2.1.6-1.1.9-1.5,1.6-.5,1.4-.5,2.2.2,1.5.5,2.2c.4.7.9,1.2,1.5,1.6.6.4,1.3.6,2.1.6s1.2-.1,1.7-.4c.5-.3,1-.6,1.3-1.1Z"/>
      <path d="M686.8,610.5c-1.1,0-2.2-.3-3.1-.9-.9-.6-1.7-1.4-2.2-2.3-.6-1-.8-2.1-.8-3.2s.2-1.7.5-2.5.8-1.5,1.3-2.1c.6-.6,1.2-1.1,2-1.4s1.5-.5,2.4-.5,2.2.3,3.1.9c.9.6,1.7,1.4,2.2,2.3.6,1,.8,2.1.8,3.3s-.2,1.7-.5,2.5c-.3.8-.8,1.5-1.3,2.1-.6.6-1.2,1.1-1.9,1.4s-1.5.5-2.4.5ZM686.8,608.5c.8,0,1.5-.2,2.1-.6.6-.4,1.1-.9,1.5-1.6.4-.7.5-1.4.5-2.2s-.2-1.5-.5-2.2c-.4-.7-.9-1.2-1.5-1.6-.6-.4-1.3-.6-2.1-.6s-1.5.2-2.1.6-1.1.9-1.5,1.6-.5,1.4-.5,2.2.2,1.6.6,2.2c.4.7.9,1.2,1.5,1.6.6.4,1.3.6,2,.6Z"/>
      <path d="M705.8,602.6v7.6h-2.1v-7.2c0-.6-.2-1.2-.5-1.7-.3-.5-.7-.9-1.2-1.2-.5-.3-1.1-.4-1.7-.4s-1.2.1-1.7.4c-.5.3-.9.7-1.2,1.2-.3.5-.5,1.1-.5,1.7v7.2h-2.1v-12.3h2.1v1.5c.4-.6,1-1,1.6-1.4.7-.3,1.4-.5,2.2-.5s1.8.2,2.5.7,1.4,1,1.8,1.8c.4.8.7,1.6.7,2.5Z"/>
      <path d="M713.6,605.5v-7.6h2.1v7.1c0,.6.2,1.2.5,1.7.3.5.7.9,1.2,1.2.5.3,1.1.4,1.7.4s1.2-.1,1.7-.4c.5-.3.9-.7,1.2-1.2.3-.5.5-1.1.5-1.7v-7.1h2.1v12.3s-2,0-2,0v-1.6c-.4.6-1,1-1.7,1.4-.7.3-1.4.5-2.1.5s-1.8-.2-2.5-.7c-.8-.4-1.4-1-1.8-1.8-.4-.8-.7-1.6-.7-2.5Z"/>
      <path d="M737.8,602.6v7.6h-2.1v-7.2c0-.6-.2-1.2-.5-1.7-.3-.5-.7-.9-1.2-1.2-.5-.3-1.1-.4-1.7-.4s-1.2.1-1.7.4c-.5.3-.9.7-1.2,1.2-.3.5-.5,1.1-.5,1.7v7.2h-2.1v-12.3h2.1v1.5c.4-.6,1-1,1.6-1.4.7-.3,1.4-.5,2.2-.5s1.8.2,2.5.7,1.4,1,1.8,1.8c.4.8.7,1.6.7,2.5Z"/>
      <path d="M574.5,616.3h2.1v18.4h-2.1v-2.1c-.4.7-1,1.3-1.7,1.7-.7.4-1.5.7-2.5.7s-1.7-.2-2.5-.5c-.8-.3-1.5-.8-2.1-1.4-.6-.6-1.1-1.3-1.4-2.1-.3-.8-.5-1.6-.5-2.5s.2-1.7.5-2.5.8-1.5,1.4-2.1,1.3-1.1,2.1-1.4c.8-.3,1.6-.5,2.5-.5s1.8.2,2.5.7c.7.4,1.3,1,1.7,1.7v-8.2ZM570.4,633c.8,0,1.5-.2,2.1-.6.6-.4,1-.9,1.4-1.6.3-.7.5-1.4.5-2.2s-.2-1.6-.5-2.3c-.3-.7-.8-1.2-1.4-1.6-.6-.4-1.3-.6-2.1-.6s-1.5.2-2.2.6c-.7.4-1.2.9-1.6,1.6-.4.7-.6,1.4-.6,2.2s.2,1.6.6,2.2c.4.7.9,1.2,1.6,1.6.7.4,1.4.6,2.2.6Z"/>
      <path d="M580.6,620.5c-.3,0-.6-.1-.8-.3-.2-.2-.3-.5-.3-.8s.1-.6.3-.8c.2-.2.5-.3.8-.3s.6.1.8.3c.2.2.3.5.3.8s-.1.6-.3.8c-.2.2-.5.3-.8.3ZM579.5,622.5h2.1v12.3h-2.1v-12.3Z"/>
      <path d="M588.2,634.9c-.7,0-1.3-.1-1.9-.4s-1.2-.5-1.6-.9-.8-.8-1-1.3l1.8-.8c.1.3.3.5.7.8.3.2.7.4,1.1.6.4.1.8.2,1.3.2s.9,0,1.3-.2c.4-.1.7-.3,1-.6.2-.3.4-.6.4-1s-.1-.7-.4-1c-.3-.2-.6-.4-1-.6-.4-.1-.8-.3-1.3-.4-.8-.2-1.6-.5-2.3-.8-.7-.3-1.2-.7-1.6-1.1-.4-.5-.6-1.1-.6-1.8s.2-1.4.6-2,1-1,1.7-1.3c.7-.3,1.4-.5,2.2-.5s1.9.2,2.7.6c.8.4,1.4,1,1.8,1.7l-1.7,1c-.1-.3-.4-.6-.6-.8s-.6-.4-1-.5-.7-.2-1.1-.2c-.5,0-.9,0-1.3.2-.4.1-.7.3-1,.6-.2.3-.4.6-.4,1s.1.7.4.9c.3.2.6.4,1,.5s.9.3,1.4.4c.7.2,1.4.5,2.1.8s1.2.7,1.6,1.2.6,1,.6,1.7c0,.8-.2,1.4-.7,2s-1,1-1.7,1.3-1.5.4-2.3.4Z"/>
      <path d="M600.3,635c-1.1,0-2.2-.3-3.1-.9-.9-.6-1.7-1.4-2.2-2.3-.6-1-.8-2.1-.8-3.2s.2-1.7.5-2.5.8-1.5,1.3-2.1c.6-.6,1.2-1.1,2-1.4s1.5-.5,2.4-.5,1.8.2,2.5.6c.8.4,1.4.9,2,1.5.6.7,1,1.4,1.2,2.3.3.9.4,1.8.3,2.8h-10c0,.7.3,1.3.7,1.9s.8,1,1.4,1.3c.6.3,1.2.5,1.9.5.7,0,1.4-.2,2-.6.6-.4,1.1-.9,1.4-1.6l2.1.5c-.5,1.1-1.2,2-2.2,2.7s-2.1,1-3.3,1ZM596.3,627.7h8c0-.7-.3-1.3-.7-1.9-.4-.6-.9-1-1.4-1.4-.6-.3-1.2-.5-1.9-.5s-1.3.2-1.9.5c-.6.3-1,.8-1.4,1.4-.4.6-.6,1.2-.7,1.9Z"/>
      <path d="M619.2,627.1v7.6h-2.1v-7.2c0-.6-.2-1.2-.5-1.7-.3-.5-.7-.9-1.2-1.2-.5-.3-1.1-.4-1.7-.4s-1.2.1-1.7.4c-.5.3-.9.7-1.2,1.2-.3.5-.5,1.1-.5,1.7v7.2h-2.1v-12.3h2.1v1.5c.4-.6,1-1,1.6-1.4.7-.3,1.4-.5,2.2-.5s1.8.2,2.5.7,1.4,1,1.8,1.8c.4.8.7,1.6.7,2.5ZM615.8,620.9c-.3,0-.6,0-1-.3s-.8-.4-1.1-.7-.7-.5-1-.6c-.3-.2-.6-.2-.7-.2-.2,0-.3.2-.4.4,0,.2-.1.5,0,.8l-1.3.4c-.2-.5-.2-1,0-1.4.1-.5.3-.8.7-1.1.3-.3.8-.4,1.3-.4s.7,0,1,.3.7.4,1.1.6c.4.2.7.4,1,.6s.6.3.8.3.3,0,.4-.2c0-.1.1-.3.1-.5s0-.3,0-.5l1.3-.4c.2.5.2,1,0,1.5-.1.5-.4.8-.7,1.1-.4.3-.8.4-1.3.4Z"/>
      <path d="M626.8,635c-1.1,0-2.2-.3-3.1-.9-.9-.6-1.7-1.4-2.2-2.3-.6-1-.8-2.1-.8-3.2s.2-1.7.5-2.5.8-1.5,1.3-2.1c.6-.6,1.2-1.1,2-1.4s1.5-.5,2.4-.5,2.2.3,3.1.9c.9.6,1.7,1.4,2.2,2.3.6,1,.8,2.1.8,3.3s-.2,1.7-.5,2.5c-.3.8-.8,1.5-1.3,2.1-.6.6-1.2,1.1-1.9,1.4s-1.5.5-2.4.5ZM626.8,633c.8,0,1.5-.2,2.1-.6.6-.4,1.1-.9,1.5-1.6.4-.7.5-1.4.5-2.2s-.2-1.5-.5-2.2c-.4-.7-.9-1.2-1.5-1.6-.6-.4-1.3-.6-2.1-.6s-1.5.2-2.1.6-1.1.9-1.5,1.6-.5,1.4-.5,2.2.2,1.6.6,2.2c.4.7.9,1.2,1.5,1.6.6.4,1.3.6,2,.6Z"/>
      <path d="M650.9,622.5h2.1v12.3h-2.1v-2.1c-.5.7-1,1.3-1.7,1.7-.7.4-1.5.7-2.4.7s-1.7-.2-2.5-.5-1.5-.8-2.1-1.4c-.6-.6-1.1-1.3-1.4-2.1s-.5-1.6-.5-2.5.2-1.7.5-2.5c.3-.8.8-1.5,1.4-2s1.3-1,2-1.4,1.6-.5,2.5-.5,1.8.2,2.5.7c.7.5,1.3,1,1.8,1.8v-2.1ZM646.8,633c.8,0,1.5-.2,2.1-.6.6-.4,1-.9,1.4-1.6.3-.7.5-1.4.5-2.2s-.2-1.6-.5-2.3c-.3-.7-.8-1.2-1.4-1.6-.6-.4-1.3-.6-2.1-.6s-1.5.2-2.2.6c-.7.4-1.2.9-1.6,1.6-.4.7-.6,1.4-.6,2.2s.2,1.6.6,2.2c.4.7.9,1.2,1.6,1.6.7.4,1.4.6,2.2.6Z"/>
      <path d="M661.8,624.5h-2.8v10.2h-2.1v-10.2s-2.1,0-2.1,0v-2.1h2.1v-3.8s2,0,2,0v3.8h2.8v2.1Z"/>
      <path d="M664,634.7v-12.3h2.1v1.5c.4-.6,1-1,1.6-1.4.7-.3,1.4-.5,2.2-.5s.9,0,1.4.2l-.8,2.1c-.3-.1-.7-.2-1-.2-.6,0-1.2.1-1.7.4-.5.3-.9.7-1.2,1.2-.3.5-.5,1.1-.5,1.7v7.2h-2.1Z"/>
      <path d="M681.9,622.5h2.1v12.3h-2.1v-2.1c-.5.7-1,1.3-1.7,1.7-.7.4-1.5.7-2.4.7s-1.7-.2-2.5-.5-1.5-.8-2.1-1.4c-.6-.6-1.1-1.3-1.4-2.1s-.5-1.6-.5-2.5.2-1.7.5-2.5c.3-.8.8-1.5,1.4-2s1.3-1,2-1.4,1.6-.5,2.5-.5,1.8.2,2.5.7c.7.5,1.3,1,1.8,1.8v-2.1ZM677.8,633c.8,0,1.5-.2,2.1-.6.6-.4,1-.9,1.4-1.6.3-.7.5-1.4.5-2.2s-.2-1.6-.5-2.3c-.3-.7-.8-1.2-1.4-1.6-.6-.4-1.3-.6-2.1-.6s-1.5.2-2.2.6c-.7.4-1.2.9-1.6,1.6-.4.7-.6,1.4-.6,2.2s.2,1.6.6,2.2c.4.7.9,1.2,1.6,1.6.7.4,1.4.6,2.2.6Z"/>
      <path d="M694.6,631.5l1.8,1c-.6.8-1.3,1.4-2.1,1.9s-1.8.7-2.8.7-2.2-.3-3.1-.9c-.9-.6-1.7-1.4-2.2-2.3-.6-1-.8-2.1-.8-3.2s.2-1.7.5-2.5.8-1.5,1.3-2.1c.6-.6,1.2-1.1,2-1.4s1.5-.5,2.4-.5,1.9.2,2.8.7,1.6,1.1,2.1,1.9l-1.8,1c-.4-.5-.9-.9-1.4-1.1-.5-.3-1.1-.4-1.7-.4s-1.4.2-2.1.6-1.1.9-1.5,1.6-.5,1.4-.5,2.2.2,1.5.5,2.2c.4.7.9,1.2,1.5,1.6.6.4,1.3.6,2.1.6s1.2-.1,1.7-.4c.5-.3,1-.6,1.3-1.1Z"/>
      <path d="M705,624.5h-2.8v10.2h-2.1v-10.2s-2.1,0-2.1,0v-2.1h2.1v-3.8s2,0,2,0v3.8h2.8v2.1Z"/>
      <path d="M708.1,620.5c-.3,0-.6-.1-.8-.3-.2-.2-.3-.5-.3-.8s.1-.6.3-.8c.2-.2.5-.3.8-.3s.6.1.8.3c.2.2.3.5.3.8s-.1.6-.3.8c-.2.2-.5.3-.8.3ZM707.1,622.5h2.1v12.3h-2.1v-12.3Z"/>
      <path d="M718.2,634.7h-2.6l-4.5-12.3h2.2l3.6,9.9,3.6-9.9h2.2l-4.5,12.3Z"/>
      <path d="M729.6,635c-1.1,0-2.2-.3-3.1-.9-.9-.6-1.7-1.4-2.2-2.3-.6-1-.8-2.1-.8-3.2s.2-1.7.5-2.5.8-1.5,1.3-2.1c.6-.6,1.2-1.1,2-1.4s1.5-.5,2.4-.5,2.2.3,3.1.9c.9.6,1.7,1.4,2.2,2.3.6,1,.8,2.1.8,3.3s-.2,1.7-.5,2.5c-.3.8-.8,1.5-1.3,2.1-.6.6-1.2,1.1-1.9,1.4s-1.5.5-2.4.5ZM729.6,633c.8,0,1.5-.2,2.1-.6.6-.4,1.1-.9,1.5-1.6.4-.7.5-1.4.5-2.2s-.2-1.5-.5-2.2c-.4-.7-.9-1.2-1.5-1.6-.6-.4-1.3-.6-2.1-.6s-1.5.2-2.1.6-1.1.9-1.5,1.6-.5,1.4-.5,2.2.2,1.6.6,2.2c.4.7.9,1.2,1.5,1.6.6.4,1.3.6,2,.6Z"/>
    </g>
    <g class="st5">
      <rect class="st11" x="283.4" y="466.1" width="14.3" height="441.6" transform="translate(-412.4 936.2) rotate(-86.6)"/>
    </g>
    <rect class="st0" x="244.6" y="407.1" width="103" height="447" transform="translate(943.2 372.4) rotate(93.4)"/>
    <text class="st9" transform="translate(103 633.1) rotate(3.4)"><tspan x="0" y="0">DISEÑO DE TEMAS</tspan></text>
    <g class="st3">
      <rect class="st11" x="471.3" y="771" width="11.3" height="450.3" transform="translate(-541 1424.7) rotate(-87.2)"/>
    </g>
    <rect class="st14" x="422.4" y="709.8" width="108.3" height="459.5" transform="translate(1437.9 508.6) rotate(92.8)"/>
    <text class="st8" transform="translate(285.8 926.6) rotate(2.8)"><tspan x="0" y="0">VISUALIZACIÓN DE</tspan><tspan x="0" y="39.3">DATOS</tspan></text>
    <g>
      <path d="M69.9,865.8c-1.2,0-2.3-.2-3.3-.7-1-.5-1.9-1.1-2.7-1.9-.8-.8-1.4-1.8-1.8-2.8-.4-1.1-.6-2.2-.6-3.4s.2-2.4.7-3.5c.5-1.1,1.1-2,1.9-2.8.8-.8,1.7-1.4,2.7-1.9,1-.4,2.1-.7,3.2-.7s2.5.3,3.7.9c1.2.6,2.2,1.5,3,2.6l-1.8,1c-.6-.8-1.4-1.4-2.2-1.8-.9-.4-1.7-.6-2.7-.6s-1.7.2-2.5.5c-.8.4-1.5.8-2,1.5s-1.1,1.4-1.4,2.2c-.3.8-.5,1.7-.5,2.7s.2,1.8.5,2.6c.3.8.8,1.6,1.4,2.2.6.6,1.3,1.1,2,1.5s1.6.5,2.5.5,1.4-.1,2-.4c.6-.2,1.2-.6,1.8-1,.5-.4,1-.9,1.4-1.5.4-.6.7-1.2.9-1.9h-4.2v-1.8h6.6c0,1.2-.2,2.3-.7,3.4s-1.1,2-1.8,2.8-1.7,1.4-2.7,1.9-2.1.7-3.2.7Z"/>
      <path d="M85.9,865.8c-1.1,0-2.2-.3-3.1-.9-.9-.6-1.7-1.4-2.2-2.3-.6-1-.8-2.1-.8-3.2s.2-1.7.5-2.5c.3-.8.8-1.5,1.3-2.1.6-.6,1.2-1.1,2-1.4s1.5-.5,2.4-.5,1.8.2,2.5.6c.8.4,1.4.9,2,1.5.6.7,1,1.4,1.2,2.3.3.9.4,1.8.3,2.8h-10c0,.7.3,1.3.7,1.9.4.5.8,1,1.4,1.3.6.3,1.2.5,1.9.5.7,0,1.4-.2,2-.6.6-.4,1.1-.9,1.4-1.6l2.1.5c-.5,1.1-1.2,2-2.2,2.7s-2.1,1-3.3,1ZM81.9,858.5h8c0-.7-.3-1.3-.7-1.9-.4-.6-.9-1-1.4-1.4-.6-.3-1.2-.5-1.9-.5s-1.3.2-1.9.5-1,.8-1.4,1.4c-.4.6-.6,1.2-.7,1.9Z"/>
      <path d="M97.8,865.8c-.7,0-1.3-.1-1.9-.4-.6-.2-1.2-.5-1.6-.9s-.8-.8-1-1.3l1.8-.8c.1.3.3.5.7.8.3.2.7.4,1.1.6.4.1.8.2,1.3.2s.9,0,1.3-.2.7-.3,1-.6c.2-.3.4-.6.4-1s-.1-.7-.4-1c-.3-.2-.6-.4-1-.6-.4-.1-.8-.3-1.3-.4-.8-.2-1.6-.5-2.3-.8-.7-.3-1.2-.7-1.6-1.1-.4-.5-.6-1.1-.6-1.8s.2-1.4.6-2c.4-.6,1-1,1.7-1.3.7-.3,1.4-.5,2.2-.5s1.9.2,2.7.6,1.4,1,1.8,1.7l-1.7,1c-.1-.3-.4-.6-.6-.8-.3-.2-.6-.4-1-.5s-.7-.2-1.1-.2c-.5,0-.9,0-1.3.2-.4.1-.7.3-1,.6-.2.3-.4.6-.4,1s.1.7.4.9c.3.2.6.4,1,.5.4.1.9.3,1.4.4.7.2,1.4.5,2.1.8.6.3,1.2.7,1.6,1.2.4.5.6,1,.6,1.7,0,.8-.2,1.4-.7,2s-1,1-1.7,1.3-1.5.4-2.3.4Z"/>
      <path d="M111,855.3h-2.8v10.2h-2.1v-10.2s-2.1,0-2.1,0v-2.1h2.1v-3.8s2,0,2,0v3.8h2.8v2.1Z"/>
      <path d="M114.1,851.3c-.3,0-.6-.1-.8-.3-.2-.2-.3-.5-.3-.8s.1-.6.3-.8c.2-.2.5-.3.8-.3s.6.1.8.3c.2.2.3.5.3.8s-.1.6-.3.8c-.2.2-.5.3-.8.3ZM113.1,853.3h2.1v12.3h-2.1v-12.3Z"/>
      <path d="M123.3,865.8c-1.1,0-2.2-.3-3.1-.9-.9-.6-1.7-1.4-2.2-2.3-.6-1-.8-2.1-.8-3.2s.2-1.7.5-2.5c.3-.8.8-1.5,1.3-2.1.6-.6,1.2-1.1,2-1.4s1.5-.5,2.4-.5,2.2.3,3.1.9c.9.6,1.7,1.4,2.2,2.3.6,1,.8,2.1.8,3.3s-.2,1.7-.5,2.5c-.3.8-.8,1.5-1.3,2.1-.6.6-1.2,1.1-1.9,1.4s-1.5.5-2.4.5ZM123.3,863.8c.8,0,1.5-.2,2.1-.6s1.1-.9,1.5-1.6c.4-.7.5-1.4.5-2.2s-.2-1.5-.5-2.2c-.4-.7-.9-1.2-1.5-1.6-.6-.4-1.3-.6-2.1-.6s-1.5.2-2.1.6c-.6.4-1.1.9-1.5,1.6-.4.7-.5,1.4-.5,2.2s.2,1.6.6,2.2c.4.7.9,1.2,1.5,1.6.6.4,1.3.6,2,.6Z"/>
      <path d="M142.3,857.9v7.6h-2.1v-7.2c0-.6-.2-1.2-.5-1.7-.3-.5-.7-.9-1.2-1.2-.5-.3-1.1-.4-1.7-.4s-1.2.1-1.7.4c-.5.3-.9.7-1.2,1.2-.3.5-.5,1.1-.5,1.7v7.2h-2.1v-12.3h2.1v1.5c.4-.6,1-1,1.6-1.4.7-.3,1.4-.5,2.2-.5s1.8.2,2.5.7c.8.4,1.4,1,1.8,1.8.4.8.7,1.6.7,2.5Z"/>
      <path d="M154.4,853.3h2.1v12.3h-2.1v-2.1c-.5.7-1,1.3-1.7,1.7-.7.4-1.5.7-2.4.7s-1.7-.2-2.5-.5-1.5-.8-2.1-1.4c-.6-.6-1.1-1.3-1.4-2.1s-.5-1.6-.5-2.5.2-1.7.5-2.5c.3-.8.8-1.5,1.4-2s1.3-1,2-1.4c.8-.3,1.6-.5,2.5-.5s1.8.2,2.5.7,1.3,1,1.8,1.8v-2.1ZM150.3,863.8c.8,0,1.5-.2,2.1-.6.6-.4,1-.9,1.4-1.6.3-.7.5-1.4.5-2.2s-.2-1.6-.5-2.3c-.3-.7-.8-1.2-1.4-1.6-.6-.4-1.3-.6-2.1-.6s-1.5.2-2.2.6c-.7.4-1.2.9-1.6,1.6-.4.7-.6,1.4-.6,2.2s.2,1.6.6,2.2c.4.7.9,1.2,1.6,1.6.7.4,1.4.6,2.2.6Z"/>
      <path d="M171.1,855.3h-2.8v10.2h-2.1v-10.2s-2.1,0-2.1,0v-2.1h2.1v-3.8s2,0,2,0v3.8h2.8v2.1Z"/>
      <path d="M172.8,860.9v-7.6h2.1v7.1c0,.6.2,1.2.5,1.7.3.5.7.9,1.2,1.2.5.3,1.1.4,1.7.4s1.2-.1,1.7-.4c.5-.3.9-.7,1.2-1.2.3-.5.5-1.1.5-1.7v-7.1h2.1v12.3s-2,0-2,0v-1.6c-.4.6-1,1-1.7,1.4s-1.4.5-2.1.5-1.8-.2-2.5-.7c-.8-.4-1.4-1-1.8-1.8-.4-.8-.7-1.6-.7-2.5Z"/>
      <path d="M189.8,865.8c-.7,0-1.3-.1-1.9-.4-.6-.2-1.2-.5-1.6-.9s-.8-.8-1-1.3l1.8-.8c.1.3.3.5.7.8.3.2.7.4,1.1.6.4.1.8.2,1.3.2s.9,0,1.3-.2.7-.3,1-.6c.2-.3.4-.6.4-1s-.1-.7-.4-1c-.3-.2-.6-.4-1-.6-.4-.1-.8-.3-1.3-.4-.8-.2-1.6-.5-2.3-.8-.7-.3-1.2-.7-1.6-1.1-.4-.5-.6-1.1-.6-1.8s.2-1.4.6-2c.4-.6,1-1,1.7-1.3.7-.3,1.4-.5,2.2-.5s1.9.2,2.7.6,1.4,1,1.8,1.7l-1.7,1c-.1-.3-.4-.6-.6-.8-.3-.2-.6-.4-1-.5s-.7-.2-1.1-.2c-.5,0-.9,0-1.3.2-.4.1-.7.3-1,.6-.2.3-.4.6-.4,1s.1.7.4.9c.3.2.6.4,1,.5.4.1.9.3,1.4.4.7.2,1.4.5,2.1.8.6.3,1.2.7,1.6,1.2.4.5.6,1,.6,1.7,0,.8-.2,1.4-.7,2s-1,1-1.7,1.3-1.5.4-2.3.4Z"/>
      <path d="M75.7,868.8h2.1v18.4h-2.1v-2.1c-.4.7-1,1.3-1.7,1.7-.7.4-1.5.7-2.5.7s-1.7-.2-2.5-.5c-.8-.3-1.5-.8-2.1-1.4-.6-.6-1.1-1.3-1.4-2.1-.3-.8-.5-1.6-.5-2.5s.2-1.7.5-2.5.8-1.5,1.4-2.1c.6-.6,1.3-1.1,2.1-1.4.8-.3,1.6-.5,2.5-.5s1.8.2,2.5.7,1.3,1,1.7,1.7v-8.2ZM71.6,885.5c.8,0,1.5-.2,2.1-.6.6-.4,1-.9,1.4-1.6.3-.7.5-1.4.5-2.2s-.2-1.6-.5-2.3c-.3-.7-.8-1.2-1.4-1.6-.6-.4-1.3-.6-2.1-.6s-1.5.2-2.2.6c-.7.4-1.2.9-1.6,1.6s-.6,1.4-.6,2.2.2,1.6.6,2.2c.4.7.9,1.2,1.6,1.6.7.4,1.4.6,2.2.6Z"/>
      <path d="M90.5,874.9h2.1v12.3h-2.1v-2.1c-.5.7-1,1.3-1.7,1.7-.7.4-1.5.7-2.4.7s-1.7-.2-2.5-.5-1.5-.8-2.1-1.4c-.6-.6-1.1-1.3-1.4-2.1s-.5-1.6-.5-2.5.2-1.7.5-2.5c.3-.8.8-1.5,1.4-2s1.3-1,2-1.4c.8-.3,1.6-.5,2.5-.5s1.8.2,2.5.7,1.3,1,1.8,1.8v-2.1ZM86.4,885.5c.8,0,1.5-.2,2.1-.6.6-.4,1-.9,1.4-1.6.3-.7.5-1.4.5-2.2s-.2-1.6-.5-2.3c-.3-.7-.8-1.2-1.4-1.6-.6-.4-1.3-.6-2.1-.6s-1.5.2-2.2.6c-.7.4-1.2.9-1.6,1.6-.4.7-.6,1.4-.6,2.2s.2,1.6.6,2.2c.4.7.9,1.2,1.6,1.6.7.4,1.4.6,2.2.6Z"/>
      <path d="M101.3,877h-2.8v10.2h-2.1v-10.2s-2.1,0-2.1,0v-2.1h2.1v-3.8s2,0,2,0v3.8h2.8v2.1Z"/>
      <path d="M108.6,887.5c-1.1,0-2.2-.3-3.1-.9-.9-.6-1.7-1.4-2.2-2.3-.6-1-.8-2.1-.8-3.2s.2-1.7.5-2.5c.3-.8.8-1.5,1.3-2.1.6-.6,1.2-1.1,2-1.4s1.5-.5,2.4-.5,2.2.3,3.1.9c.9.6,1.7,1.4,2.2,2.3.6,1,.8,2.1.8,3.3s-.2,1.7-.5,2.5c-.3.8-.8,1.5-1.3,2.1-.6.6-1.2,1.1-1.9,1.4s-1.5.5-2.4.5ZM108.6,885.5c.8,0,1.5-.2,2.1-.6s1.1-.9,1.5-1.6c.4-.7.5-1.4.5-2.2s-.2-1.5-.5-2.2c-.4-.7-.9-1.2-1.5-1.6-.6-.4-1.3-.6-2.1-.6s-1.5.2-2.1.6c-.6.4-1.1.9-1.5,1.6-.4.7-.5,1.4-.5,2.2s.2,1.6.6,2.2c.4.7.9,1.2,1.5,1.6.6.4,1.3.6,2,.6Z"/>
      <path d="M120.6,887.4c-.7,0-1.3-.1-1.9-.4-.6-.2-1.2-.5-1.6-.9s-.8-.8-1-1.3l1.8-.8c.1.3.3.5.7.8.3.2.7.4,1.1.6.4.1.8.2,1.3.2s.9,0,1.3-.2.7-.3,1-.6c.2-.3.4-.6.4-1s-.1-.7-.4-1c-.3-.2-.6-.4-1-.6-.4-.1-.8-.3-1.3-.4-.8-.2-1.6-.5-2.3-.8-.7-.3-1.2-.7-1.6-1.1-.4-.5-.6-1.1-.6-1.8s.2-1.4.6-2c.4-.6,1-1,1.7-1.3.7-.3,1.4-.5,2.2-.5s1.9.2,2.7.6,1.4,1,1.8,1.7l-1.7,1c-.1-.3-.4-.6-.6-.8-.3-.2-.6-.4-1-.5s-.7-.2-1.1-.2c-.5,0-.9,0-1.3.2-.4.1-.7.3-1,.6-.2.3-.4.6-.4,1s.1.7.4.9c.3.2.6.4,1,.5.4.1.9.3,1.4.4.7.2,1.4.5,2.1.8.6.3,1.2.7,1.6,1.2.4.5.6,1,.6,1.7,0,.8-.2,1.4-.7,2s-1,1-1.7,1.3-1.5.4-2.3.4Z"/>
      <path d="M141.7,884l1.8,1c-.6.8-1.3,1.4-2.1,1.9s-1.8.7-2.8.7-2.2-.3-3.1-.9c-.9-.6-1.7-1.4-2.2-2.3-.6-1-.8-2.1-.8-3.2s.2-1.7.5-2.5c.3-.8.8-1.5,1.3-2.1.6-.6,1.2-1.1,2-1.4s1.5-.5,2.4-.5,1.9.2,2.8.7,1.6,1.1,2.1,1.9l-1.8,1c-.4-.5-.9-.9-1.4-1.1-.5-.3-1.1-.4-1.7-.4s-1.4.2-2.1.6-1.1.9-1.5,1.6c-.4.7-.5,1.4-.5,2.2s.2,1.5.5,2.2c.4.7.9,1.2,1.5,1.6.6.4,1.3.6,2.1.6s1.2-.1,1.7-.4c.5-.3,1-.6,1.3-1.1Z"/>
      <path d="M150.9,887.5c-1.1,0-2.2-.3-3.1-.9-.9-.6-1.7-1.4-2.2-2.3-.6-1-.8-2.1-.8-3.2s.2-1.7.5-2.5c.3-.8.8-1.5,1.3-2.1.6-.6,1.2-1.1,2-1.4s1.5-.5,2.4-.5,2.2.3,3.1.9c.9.6,1.7,1.4,2.2,2.3.6,1,.8,2.1.8,3.3s-.2,1.7-.5,2.5c-.3.8-.8,1.5-1.3,2.1-.6.6-1.2,1.1-1.9,1.4s-1.5.5-2.4.5ZM150.9,885.5c.8,0,1.5-.2,2.1-.6s1.1-.9,1.5-1.6c.4-.7.5-1.4.5-2.2s-.2-1.5-.5-2.2c-.4-.7-.9-1.2-1.5-1.6-.6-.4-1.3-.6-2.1-.6s-1.5.2-2.1.6c-.6.4-1.1.9-1.5,1.6-.4.7-.5,1.4-.5,2.2s.2,1.6.6,2.2c.4.7.9,1.2,1.5,1.6.6.4,1.3.6,2,.6Z"/>
      <path d="M169.9,879.6v7.6h-2.1v-7.2c0-.6-.2-1.2-.5-1.7-.3-.5-.7-.9-1.2-1.2-.5-.3-1.1-.4-1.7-.4s-1.2.1-1.7.4c-.5.3-.9.7-1.2,1.2-.3.5-.5,1.1-.5,1.7v7.2h-2.1v-12.3h2.1v1.5c.4-.6,1-1,1.6-1.4.7-.3,1.4-.5,2.2-.5s1.8.2,2.5.7c.8.4,1.4,1,1.8,1.8.4.8.7,1.6.7,2.5Z"/>
      <path d="M183.6,887.5c-1.1,0-2.2-.3-3.1-.9-.9-.6-1.7-1.4-2.2-2.3-.6-1-.8-2.1-.8-3.2s.2-1.7.5-2.5c.3-.8.8-1.5,1.3-2.1.6-.6,1.2-1.1,2-1.4s1.5-.5,2.4-.5,1.8.2,2.5.6c.8.4,1.4.9,2,1.5.6.7,1,1.4,1.2,2.3.3.9.4,1.8.3,2.8h-10c0,.7.3,1.3.7,1.9.4.5.8,1,1.4,1.3.6.3,1.2.5,1.9.5.7,0,1.4-.2,2-.6.6-.4,1.1-.9,1.4-1.6l2.1.5c-.5,1.1-1.2,2-2.2,2.7s-2.1,1-3.3,1ZM179.7,880.2h8c0-.7-.3-1.3-.7-1.9-.4-.6-.9-1-1.4-1.4-.6-.3-1.2-.5-1.9-.5s-1.3.2-1.9.5-1,.8-1.4,1.4c-.4.6-.6,1.2-.7,1.9Z"/>
      <path d="M191.7,887.2v-18.4h2.1v18.4h-2.1Z"/>
      <path d="M132.1,908.9v-17.2h6.1c.9,0,1.8.2,2.5.7.8.5,1.4,1.1,1.8,1.9.4.8.7,1.6.7,2.6s-.2,1.8-.7,2.6c-.5.8-1.1,1.4-1.8,1.9-.8.5-1.6.7-2.5.7h-3.1v6.8h-3ZM135.1,899.1h2.8c.4,0,.8-.1,1.2-.3.4-.2.6-.5.8-.9.2-.4.3-.8.3-1.2s-.1-.9-.3-1.2c-.2-.4-.5-.6-.8-.9-.4-.2-.7-.3-1.2-.3h-2.8v4.8Z"/>
      <path d="M150,909.2c-1.1,0-2.2-.3-3.1-.9-.9-.6-1.7-1.4-2.2-2.3-.6-1-.8-2.1-.8-3.2s.2-1.7.5-2.5c.3-.8.8-1.5,1.3-2.1.6-.6,1.2-1.1,2-1.4s1.5-.5,2.4-.5,2.2.3,3.1.9c.9.6,1.7,1.4,2.2,2.3.6,1,.8,2.1.8,3.3s-.2,1.7-.5,2.5c-.3.8-.8,1.5-1.3,2.1-.6.6-1.2,1.1-1.9,1.4s-1.5.5-2.4.5ZM150,906.2c.6,0,1.1-.2,1.6-.5.5-.3.8-.7,1.1-1.3.3-.5.4-1.1.4-1.7s-.1-1.2-.4-1.7c-.3-.5-.7-.9-1.1-1.3s-1-.5-1.6-.5-1.1.2-1.6.5c-.5.3-.8.7-1.1,1.3-.3.5-.4,1.1-.4,1.7s.1,1.2.4,1.8c.3.5.7.9,1.1,1.2.5.3,1,.5,1.6.5Z"/>
      <path d="M158.1,908.9v-12.3s3,0,3,0v1.1c.4-.4.9-.8,1.5-1,.6-.3,1.2-.4,1.9-.4s.9,0,1.3.2l-1.2,3c-.3-.1-.6-.2-.9-.2-.5,0-.9.1-1.3.3-.4.2-.7.5-.9.9-.2.4-.3.8-.3,1.3v7h-3Z"/>
      <path d="M174.1,899.6h-2.4v9.3h-3v-9.3h-1.8v-3h1.8v-3.8h3v3.8h2.4v3Z"/>
      <path d="M185.2,896.6h3v12.3h-3v-1.5c-.5.5-.9,1-1.5,1.3-.6.3-1.2.5-2,.5s-1.8-.2-2.5-.5c-.8-.3-1.5-.8-2.1-1.4-.6-.6-1.1-1.3-1.4-2.1-.3-.8-.5-1.6-.5-2.5s.2-1.7.5-2.5c.3-.8.8-1.4,1.4-2,.6-.6,1.2-1,2-1.4.8-.3,1.6-.5,2.5-.5s1.5.2,2.2.5,1.2.8,1.6,1.4v-1.6ZM181.7,906.3c.6,0,1.2-.2,1.7-.5.5-.3.9-.7,1.2-1.3.3-.5.4-1.1.4-1.8s-.1-1.3-.4-1.8-.7-1-1.2-1.3c-.5-.3-1.1-.5-1.7-.5s-1.2.2-1.7.5c-.5.3-.9.8-1.2,1.3s-.5,1.1-.5,1.8.2,1.3.5,1.8c.3.5.7,1,1.2,1.3.5.3,1.1.5,1.7.5Z"/>
      <path d="M190.7,908.9v-18.4h3v18.4h-3Z"/>
      <path d="M58.2,930.6v-17.2h6.2c.9,0,1.7.2,2.5.6.7.4,1.3.9,1.7,1.6.4.7.6,1.5.6,2.4s0,.8-.2,1.3-.3.8-.6,1.1c-.3.3-.6.6-1,.8.5.1,1,.4,1.3.7.3.3.6.7.8,1.2.2.5.3.9.4,1.4s.1.9.1,1.3c0,.9-.2,1.7-.7,2.4-.4.7-1.1,1.3-1.8,1.7-.8.4-1.6.6-2.5.6h-6.9ZM61.2,920h2.9c.6,0,1.1-.2,1.6-.6.4-.4.6-.9.6-1.5s-.2-1.2-.6-1.5-.9-.5-1.6-.5h-2.9v4.1ZM61.2,928h3.7c.5,0,.9-.1,1.3-.4s.7-.6.9-1c.2-.4.4-.9.4-1.4s-.1-.9-.4-1.3c-.2-.4-.6-.7-.9-1-.4-.3-.8-.4-1.3-.4h-3.7v5.4Z"/>
      <path d="M74.1,916.7c-.4,0-.8-.1-1.1-.4s-.5-.7-.5-1.1.2-.8.5-1.1c.3-.3.7-.4,1.1-.4s.8.1,1.1.4c.3.3.4.7.4,1.1s-.1.8-.4,1.1c-.3.3-.7.4-1.1.4ZM72.6,918.3h3v12.3h-3v-12.3Z"/>
      <path d="M85,918c1.2,0,2.3.3,3.3.9,1,.6,1.8,1.4,2.3,2.3.6,1,.9,2.1.9,3.2s-.2,1.7-.5,2.5-.8,1.5-1.4,2.1c-.6.6-1.3,1.1-2.1,1.4-.8.3-1.6.5-2.5.5s-1.4-.2-2-.5-1.1-.8-1.5-1.4v1.6h-3v-18.4h3v7.7c.4-.6.9-1,1.5-1.4.6-.3,1.3-.5,2-.5ZM85,928c.6,0,1.2-.2,1.7-.5.5-.3.9-.8,1.2-1.3.3-.5.5-1.1.5-1.8s-.2-1.3-.5-1.8c-.3-.5-.7-1-1.2-1.3-.5-.3-1.1-.5-1.7-.5s-1.2.2-1.7.5-.9.8-1.2,1.3-.4,1.1-.4,1.8.1,1.3.4,1.8.7,1,1.2,1.3,1,.5,1.7.5Z"/>
      <path d="M93.2,930.6v-18.4h3v18.4h-3Z"/>
      <path d="M100.7,916.7c-.4,0-.8-.1-1.1-.4s-.5-.7-.5-1.1.2-.8.5-1.1c.3-.3.7-.4,1.1-.4s.8.1,1.1.4c.3.3.4.7.4,1.1s-.1.8-.4,1.1c-.3.3-.7.4-1.1.4ZM99.2,918.3h3v12.3h-3v-12.3Z"/>
      <path d="M110.2,930.9c-1.1,0-2.2-.3-3.1-.9-.9-.6-1.7-1.4-2.2-2.3-.6-1-.8-2.1-.8-3.2s.2-1.7.5-2.5c.3-.8.8-1.5,1.3-2.1.6-.6,1.2-1.1,2-1.4s1.5-.5,2.4-.5,2.2.3,3.1.9c.9.6,1.7,1.4,2.2,2.3.6,1,.8,2.1.8,3.3s-.2,1.7-.5,2.5c-.3.8-.8,1.5-1.3,2.1-.6.6-1.2,1.1-1.9,1.4s-1.5.5-2.4.5ZM110.2,927.9c.6,0,1.1-.2,1.6-.5.5-.3.8-.7,1.1-1.3.3-.5.4-1.1.4-1.7s-.1-1.2-.4-1.7c-.3-.5-.7-.9-1.1-1.3s-1-.5-1.6-.5-1.1.2-1.6.5c-.5.3-.8.7-1.1,1.3-.3.5-.4,1.1-.4,1.7s.1,1.2.4,1.8c.3.5.7.9,1.1,1.2.5.3,1,.5,1.6.5Z"/>
      <path d="M118.3,930.6v-12.3h3v1.1c.4-.4.9-.8,1.5-1,.6-.3,1.2-.4,1.9-.4s1.6.2,2.3.6c.7.4,1.3.9,1.7,1.6.4-.7,1-1.2,1.7-1.6.7-.4,1.5-.6,2.3-.6s1.7.2,2.4.7c.7.4,1.3,1,1.8,1.8.4.7.7,1.5.7,2.4v7.7h-3v-6.9c0-.5-.1-.9-.3-1.3-.2-.4-.5-.7-.9-1-.4-.2-.8-.4-1.3-.4s-.9.1-1.3.3c-.4.2-.7.5-.9.9-.2.4-.4.8-.4,1.3v6.9h-3v-6.9c0-.5-.1-.9-.3-1.3-.2-.4-.5-.7-.9-.9-.4-.2-.8-.3-1.3-.3s-.9.1-1.3.4-.7.6-.9,1c-.2.4-.3.8-.3,1.3v6.9h-3Z"/>
      <path d="M145.2,930.9c-1.1,0-2.2-.3-3.1-.9-.9-.6-1.7-1.4-2.2-2.3-.6-1-.8-2.1-.8-3.2s.2-1.7.5-2.5c.3-.8.8-1.5,1.3-2.1.6-.6,1.2-1.1,2-1.4s1.5-.5,2.4-.5,1.8.2,2.6.6,1.5,1,2,1.7,1,1.5,1.2,2.4c.3.9.3,1.8.2,2.8h-9c.1.5.3.9.6,1.2.3.4.6.7,1,.9.4.2.9.3,1.4.3.5,0,1-.1,1.4-.4.4-.3.8-.6,1.1-1l3.1.7c-.5,1.1-1.2,2-2.2,2.7s-2.1,1-3.3,1ZM142.2,923.2h6c0-.5-.3-.9-.6-1.3-.3-.4-.6-.7-1.1-1-.4-.2-.9-.4-1.4-.4s-.9.1-1.4.3c-.4.2-.8.5-1.1.9-.3.4-.5.8-.6,1.3ZM144.4,917l1-3.5h3l-2,3.5h-2Z"/>
      <path d="M159.8,921.3h-2.4v9.3h-3v-9.3h-1.8v-3h1.8v-3.8h3v3.8h2.4v3Z"/>
      <path d="M162,930.6v-12.3s3,0,3,0v1.1c.4-.4.9-.8,1.5-1,.6-.3,1.2-.4,1.9-.4s.9,0,1.3.2l-1.2,3c-.3-.1-.6-.2-.9-.2-.5,0-.9.1-1.3.3-.4.2-.7.5-.9.9-.2.4-.3.8-.3,1.3v7h-3Z"/>
      <path d="M172.6,916.7c-.4,0-.8-.1-1.1-.4s-.5-.7-.5-1.1.2-.8.5-1.1c.3-.3.7-.4,1.1-.4s.8.1,1.1.4c.3.3.4.7.4,1.1s-.1.8-.4,1.1c-.3.3-.7.4-1.1.4ZM171.1,918.3h3v12.3h-3v-12.3Z"/>
      <path d="M184.3,926.9l2.7,1.5c-.6.8-1.3,1.4-2.1,1.9s-1.8.7-2.8.7-2.2-.3-3.1-.9c-.9-.6-1.7-1.4-2.2-2.3-.6-1-.8-2.1-.8-3.2s.2-1.7.5-2.5c.3-.8.8-1.5,1.3-2.1.6-.6,1.2-1.1,2-1.4s1.5-.5,2.4-.5,1.9.2,2.8.7,1.6,1.1,2.1,1.9l-2.7,1.4c-.3-.3-.6-.6-1-.8s-.8-.3-1.2-.3c-.6,0-1.1.2-1.6.5-.5.3-.8.7-1.1,1.3-.3.5-.4,1.1-.4,1.7s.1,1.2.4,1.7c.3.5.7.9,1.1,1.3.5.3,1,.5,1.6.5s.8,0,1.2-.3c.4-.2.7-.4,1-.7Z"/>
      <path d="M194.2,930.9c-1.1,0-2.2-.3-3.1-.9-.9-.6-1.7-1.4-2.2-2.3-.6-1-.8-2.1-.8-3.2s.2-1.7.5-2.5c.3-.8.8-1.5,1.3-2.1.6-.6,1.2-1.1,2-1.4s1.5-.5,2.4-.5,2.2.3,3.1.9c.9.6,1.7,1.4,2.2,2.3.6,1,.8,2.1.8,3.3s-.2,1.7-.5,2.5c-.3.8-.8,1.5-1.3,2.1-.6.6-1.2,1.1-1.9,1.4s-1.5.5-2.4.5ZM194.2,927.9c.6,0,1.1-.2,1.6-.5.5-.3.8-.7,1.1-1.3.3-.5.4-1.1.4-1.7s-.1-1.2-.4-1.7c-.3-.5-.7-.9-1.1-1.3s-1-.5-1.6-.5-1.1.2-1.6.5c-.5.3-.8.7-1.1,1.3-.3.5-.4,1.1-.4,1.7s.1,1.2.4,1.8c.3.5.7.9,1.1,1.2.5.3,1,.5,1.6.5Z"/>
    </g>
    <g class="st1">
      <rect class="st11" x="277.8" y="813.9" width="425.2" height="14.3" transform="translate(-55.5 35.8) rotate(-4)"/>
    </g>
    <rect class="st10" x="437.7" y="558" width="103" height="431.5" transform="translate(1227.4 232.2) rotate(86)"/>
    <text class="st9" transform="translate(301.9 798.6) rotate(-4)"><tspan x="0" y="0">SOPORTE OJS/OMP</tspan></text>
    <g>
      <path d="M118.2,729.5v-17.2h5.7c.9,0,1.8.2,2.5.7.7.5,1.3,1.1,1.8,1.8.4.8.7,1.6.7,2.6s-.2,1.8-.7,2.6c-.4.8-1,1.4-1.8,1.8s-1.6.7-2.5.7h-3.6v7h-2.1ZM120.3,720.4h3.4c.6,0,1.1-.1,1.5-.4.5-.3.8-.6,1.1-1.1.3-.5.4-1,.4-1.6s-.1-1.1-.4-1.6c-.3-.5-.6-.8-1.1-1.1-.5-.3-1-.4-1.5-.4h-3.4v6.2Z"/>
      <path d="M130.9,729.5v-12.3h2.1v1.5c.4-.6,1-1,1.6-1.4.7-.3,1.4-.5,2.2-.5s.9,0,1.4.2l-.8,2.1c-.3-.1-.7-.2-1-.2-.6,0-1.2.1-1.7.4-.5.3-.9.7-1.2,1.2-.3.5-.5,1.1-.5,1.7v7.2h-2.1Z"/>
      <path d="M144.4,729.8c-1.1,0-2.2-.3-3.1-.9-.9-.6-1.7-1.4-2.2-2.3-.6-1-.8-2.1-.8-3.2s.2-1.7.5-2.5c.3-.8.8-1.5,1.3-2.1.6-.6,1.2-1.1,2-1.4s1.5-.5,2.4-.5,1.8.2,2.5.6c.8.4,1.4.9,2,1.5.6.7,1,1.4,1.2,2.3.3.9.4,1.8.3,2.8h-10c0,.7.3,1.3.7,1.9.4.5.8,1,1.4,1.3.6.3,1.2.5,1.9.5.7,0,1.4-.2,2-.6.6-.4,1.1-.9,1.4-1.6l2.1.5c-.5,1.1-1.2,2-2.2,2.7s-2.1,1-3.3,1ZM140.4,722.5h8c0-.7-.3-1.3-.7-1.9-.4-.6-.9-1-1.4-1.4-.6-.3-1.2-.5-1.9-.5s-1.3.2-1.9.5-1,.8-1.4,1.4c-.4.6-.6,1.2-.7,1.9Z"/>
      <path d="M156.3,729.7c-.7,0-1.3-.1-1.9-.4-.6-.2-1.2-.5-1.6-.9s-.8-.8-1-1.3l1.8-.8c.1.3.3.5.7.8.3.2.7.4,1.1.6.4.1.8.2,1.3.2s.9,0,1.3-.2.7-.3,1-.6c.2-.3.4-.6.4-1s-.1-.7-.4-1c-.3-.2-.6-.4-1-.6-.4-.1-.8-.3-1.3-.4-.8-.2-1.6-.5-2.3-.8-.7-.3-1.2-.7-1.6-1.1-.4-.5-.6-1.1-.6-1.8s.2-1.4.6-2c.4-.6,1-1,1.7-1.3.7-.3,1.4-.5,2.2-.5s1.9.2,2.7.6,1.4,1,1.8,1.7l-1.7,1c-.1-.3-.4-.6-.6-.8-.3-.2-.6-.4-1-.5s-.7-.2-1.1-.2c-.5,0-.9,0-1.3.2-.4.1-.7.3-1,.6-.2.3-.4.6-.4,1s.1.7.4.9c.3.2.6.4,1,.5.4.1.9.3,1.4.4.7.2,1.4.5,2.1.8.6.3,1.2.7,1.6,1.2.4.5.6,1,.6,1.7,0,.8-.2,1.4-.7,2s-1,1-1.7,1.3-1.5.4-2.3.4Z"/>
      <path d="M169.5,719.3h-2.8v10.2h-2.1v-10.2s-2.1,0-2.1,0v-2.1h2.1v-3.8s2,0,2,0v3.8h2.8v2.1Z"/>
      <path d="M181.2,717.3h2.1v12.3h-2.1v-2.1c-.5.7-1,1.3-1.7,1.7-.7.4-1.5.7-2.4.7s-1.7-.2-2.5-.5-1.5-.8-2.1-1.4c-.6-.6-1.1-1.3-1.4-2.1s-.5-1.6-.5-2.5.2-1.7.5-2.5c.3-.8.8-1.5,1.4-2s1.3-1,2-1.4c.8-.3,1.6-.5,2.5-.5s1.8.2,2.5.7,1.3,1,1.8,1.8v-2.1ZM177.1,727.8c.8,0,1.5-.2,2.1-.6.6-.4,1-.9,1.4-1.6.3-.7.5-1.4.5-2.2s-.2-1.6-.5-2.3c-.3-.7-.8-1.2-1.4-1.6-.6-.4-1.3-.6-2.1-.6s-1.5.2-2.2.6c-.7.4-1.2.9-1.6,1.6-.4.7-.6,1.4-.6,2.2s.2,1.6.6,2.2c.4.7.9,1.2,1.6,1.6.7.4,1.4.6,2.2.6Z"/>
      <path d="M185.7,729.5v-12.3h2.1v1.5c.4-.6,1-1,1.6-1.4.7-.3,1.4-.5,2.2-.5s1.7.2,2.5.7c.8.4,1.3,1,1.8,1.8.4-.7,1-1.3,1.8-1.8.7-.4,1.6-.7,2.5-.7s1.8.2,2.5.7,1.4,1,1.8,1.8c.4.8.7,1.6.7,2.5v7.6h-2.1v-7.1c0-.6-.1-1.2-.4-1.7s-.7-.9-1.2-1.2c-.5-.3-1-.5-1.7-.5s-1.2.1-1.7.4c-.5.3-.9.7-1.2,1.2-.3.5-.4,1.1-.4,1.7v7.1h-2.1v-7.1c0-.7-.1-1.2-.4-1.7s-.7-.9-1.2-1.2c-.5-.3-1.1-.4-1.7-.4s-1.1.2-1.6.5-.9.7-1.2,1.2c-.3.5-.4,1.1-.4,1.7v7.1h-2.1Z"/>
      <path d="M212.6,729.8c-1.1,0-2.2-.3-3.1-.9-.9-.6-1.7-1.4-2.2-2.3-.6-1-.8-2.1-.8-3.2s.2-1.7.5-2.5c.3-.8.8-1.5,1.3-2.1.6-.6,1.2-1.1,2-1.4s1.5-.5,2.4-.5,2.2.3,3.1.9c.9.6,1.7,1.4,2.2,2.3.6,1,.8,2.1.8,3.3s-.2,1.7-.5,2.5c-.3.8-.8,1.5-1.3,2.1-.6.6-1.2,1.1-1.9,1.4s-1.5.5-2.4.5ZM212.6,727.8c.8,0,1.5-.2,2.1-.6s1.1-.9,1.5-1.6c.4-.7.5-1.4.5-2.2s-.2-1.5-.5-2.2c-.4-.7-.9-1.2-1.5-1.6-.6-.4-1.3-.6-2.1-.6s-1.5.2-2.1.6c-.6.4-1.1.9-1.5,1.6-.4.7-.5,1.4-.5,2.2s.2,1.6.6,2.2c.4.7.9,1.2,1.5,1.6.6.4,1.3.6,2,.6Z"/>
      <path d="M224.6,729.7c-.7,0-1.3-.1-1.9-.4-.6-.2-1.2-.5-1.6-.9s-.8-.8-1-1.3l1.8-.8c.1.3.3.5.7.8.3.2.7.4,1.1.6.4.1.8.2,1.3.2s.9,0,1.3-.2.7-.3,1-.6c.2-.3.4-.6.4-1s-.1-.7-.4-1c-.3-.2-.6-.4-1-.6-.4-.1-.8-.3-1.3-.4-.8-.2-1.6-.5-2.3-.8-.7-.3-1.2-.7-1.6-1.1-.4-.5-.6-1.1-.6-1.8s.2-1.4.6-2c.4-.6,1-1,1.7-1.3.7-.3,1.4-.5,2.2-.5s1.9.2,2.7.6,1.4,1,1.8,1.7l-1.7,1c-.1-.3-.4-.6-.6-.8-.3-.2-.6-.4-1-.5s-.7-.2-1.1-.2c-.5,0-.9,0-1.3.2-.4.1-.7.3-1,.6-.2.3-.4.6-.4,1s.1.7.4.9c.3.2.6.4,1,.5.4.1.9.3,1.4.4.7.2,1.4.5,2.1.8.6.3,1.2.7,1.6,1.2.4.5.6,1,.6,1.7,0,.8-.2,1.4-.7,2s-1,1-1.7,1.3-1.5.4-2.3.4Z"/>
      <path d="M150.8,751.4c-.6,0-1.3-.2-1.8-.4-.6-.2-1.1-.5-1.6-.9-.5-.4-.8-.8-1.1-1.3l2.5-1.1c0,.2.3.3.5.5.2.2.5.3.8.5.3.1.6.2,1,.2s.6,0,.9-.1.5-.2.7-.4.3-.4.3-.7-.1-.5-.3-.7c-.2-.2-.5-.3-.8-.4-.3,0-.6-.2-.9-.2-.8-.2-1.5-.4-2.2-.7-.7-.3-1.2-.8-1.6-1.3s-.6-1.1-.6-1.9.2-1.5.6-2.1c.4-.6,1-1,1.7-1.4.7-.3,1.4-.5,2.2-.5s1.9.2,2.7.6c.8.4,1.5,1,1.9,1.7l-2.4,1.4c-.1-.2-.3-.4-.5-.5s-.4-.3-.7-.4c-.3-.1-.5-.2-.8-.2-.4,0-.7,0-1,0-.3,0-.5.2-.7.4-.2.2-.3.5-.3.8s.1.5.4.7.5.3.9.3c.3,0,.7.2,1,.3.7.2,1.4.5,2,.9.6.3,1.1.8,1.5,1.3.4.5.6,1.1.6,1.8,0,.8-.2,1.5-.7,2.1-.5.6-1.1,1-1.8,1.4-.7.3-1.5.4-2.4.4Z"/>
      <path d="M163,751.5c-1.1,0-2.2-.3-3.1-.9-.9-.6-1.7-1.4-2.2-2.3-.6-1-.8-2.1-.8-3.2s.2-1.7.5-2.5c.3-.8.8-1.5,1.3-2.1.6-.6,1.2-1.1,2-1.4s1.5-.5,2.4-.5,1.8.2,2.6.6,1.5,1,2,1.7,1,1.5,1.2,2.4c.3.9.3,1.8.2,2.8h-9c.1.5.3.9.6,1.2.3.4.6.7,1,.9.4.2.9.3,1.4.3.5,0,1-.1,1.4-.4.4-.3.8-.6,1.1-1l3.1.7c-.5,1.1-1.2,2-2.2,2.7s-2.1,1-3.3,1ZM160,743.8h6c0-.5-.3-.9-.6-1.3-.3-.4-.6-.7-1.1-1-.4-.2-.9-.4-1.4-.4s-.9.1-1.4.3c-.4.2-.8.5-1.1.9-.3.4-.5.8-.6,1.3Z"/>
      <path d="M171.1,751.2v-12.3s3,0,3,0v1.1c.4-.4.9-.8,1.5-1,.6-.3,1.2-.4,1.9-.4s.9,0,1.3.2l-1.2,3c-.3-.1-.6-.2-.9-.2-.5,0-.9.1-1.3.3-.4.2-.7.5-.9.9-.2.4-.3.8-.3,1.3v7h-3Z"/>
      <path d="M188.1,751.2h-3.9l-4.5-12.3h3.2l3.2,8.8,3.2-8.8h3.2l-4.5,12.3Z"/>
      <path d="M195.9,737.4c-.4,0-.8-.1-1.1-.4s-.5-.7-.5-1.1.2-.8.5-1.1c.3-.3.7-.4,1.1-.4s.8.1,1.1.4c.3.3.4.7.4,1.1s-.1.8-.4,1.1c-.3.3-.7.4-1.1.4ZM194.4,738.9h3v12.3h-3v-12.3Z"/>
      <path d="M207.6,747.5l2.7,1.5c-.6.8-1.3,1.4-2.1,1.9s-1.8.7-2.8.7-2.2-.3-3.1-.9c-.9-.6-1.7-1.4-2.2-2.3-.6-1-.8-2.1-.8-3.2s.2-1.7.5-2.5c.3-.8.8-1.5,1.3-2.1.6-.6,1.2-1.1,2-1.4s1.5-.5,2.4-.5,1.9.2,2.8.7,1.6,1.1,2.1,1.9l-2.7,1.4c-.3-.3-.6-.6-1-.8s-.8-.3-1.2-.3c-.6,0-1.1.2-1.6.5-.5.3-.8.7-1.1,1.3-.3.5-.4,1.1-.4,1.7s.1,1.2.4,1.7c.3.5.7.9,1.1,1.3.5.3,1,.5,1.6.5s.8,0,1.2-.3c.4-.2.7-.4,1-.7Z"/>
      <path d="M213.6,737.4c-.4,0-.8-.1-1.1-.4s-.5-.7-.5-1.1.2-.8.5-1.1c.3-.3.7-.4,1.1-.4s.8.1,1.1.4c.3.3.4.7.4,1.1s-.1.8-.4,1.1c-.3.3-.7.4-1.1.4ZM212.1,738.9h3v12.3h-3v-12.3Z"/>
      <path d="M223.1,751.5c-1.1,0-2.2-.3-3.1-.9-.9-.6-1.7-1.4-2.2-2.3-.6-1-.8-2.1-.8-3.2s.2-1.7.5-2.5c.3-.8.8-1.5,1.3-2.1.6-.6,1.2-1.1,2-1.4s1.5-.5,2.4-.5,2.2.3,3.1.9c.9.6,1.7,1.4,2.2,2.3.6,1,.8,2.1.8,3.3s-.2,1.7-.5,2.5c-.3.8-.8,1.5-1.3,2.1-.6.6-1.2,1.1-1.9,1.4s-1.5.5-2.4.5ZM223.1,748.5c.6,0,1.1-.2,1.6-.5.5-.3.8-.7,1.1-1.3.3-.5.4-1.1.4-1.7s-.1-1.2-.4-1.7c-.3-.5-.7-.9-1.1-1.3s-1-.5-1.6-.5-1.1.2-1.6.5c-.5.3-.8.7-1.1,1.3-.3.5-.4,1.1-.4,1.7s.1,1.2.4,1.8c.3.5.7.9,1.1,1.2.5.3,1,.5,1.6.5Z"/>
      <path d="M114.5,763.6h-2.4v9.3h-3v-9.3h-1.8v-3h1.8v-3.8h3v3.8h2.4v3Z"/>
      <path d="M121.8,773.2c-1.1,0-2.2-.3-3.1-.9-.9-.6-1.7-1.4-2.2-2.3-.6-1-.8-2.1-.8-3.2s.2-1.7.5-2.5c.3-.8.8-1.5,1.3-2.1.6-.6,1.2-1.1,2-1.4s1.5-.5,2.4-.5,2.2.3,3.1.9c.9.6,1.7,1.4,2.2,2.3.6,1,.8,2.1.8,3.3s-.2,1.7-.5,2.5c-.3.8-.8,1.5-1.3,2.1-.6.6-1.2,1.1-1.9,1.4s-1.5.5-2.4.5ZM121.8,770.2c.6,0,1.1-.2,1.6-.5.5-.3.8-.7,1.1-1.3.3-.5.4-1.1.4-1.7s-.1-1.2-.4-1.7c-.3-.5-.7-.9-1.1-1.3s-1-.5-1.6-.5-1.1.2-1.6.5c-.5.3-.8.7-1.1,1.3-.3.5-.4,1.1-.4,1.7s.1,1.2.4,1.8c.3.5.7.9,1.1,1.2.5.3,1,.5,1.6.5Z"/>
      <path d="M139.2,754.5h3v18.4h-3v-1.5c-.4.5-.9,1-1.5,1.3-.6.3-1.3.5-2.1.5s-1.7-.2-2.5-.5c-.8-.3-1.5-.8-2.1-1.4-.6-.6-1.1-1.3-1.4-2.1-.3-.8-.5-1.6-.5-2.5s.2-1.7.5-2.5.8-1.5,1.4-2.1c.6-.6,1.3-1.1,2.1-1.4.8-.3,1.6-.5,2.5-.5s1.5.2,2.1.5c.6.3,1.1.8,1.5,1.3v-7.7ZM135.7,770.3c.6,0,1.2-.2,1.7-.5.5-.3.9-.7,1.2-1.3.3-.5.4-1.1.4-1.8s-.1-1.3-.4-1.8-.7-1-1.2-1.3c-.5-.3-1.1-.5-1.7-.5s-1.2.2-1.7.5c-.5.3-.9.8-1.2,1.3s-.5,1.1-.5,1.8.2,1.3.5,1.8c.3.5.7,1,1.2,1.3.5.3,1.1.5,1.7.5Z"/>
      <path d="M150.3,773.2c-1.1,0-2.2-.3-3.1-.9-.9-.6-1.7-1.4-2.2-2.3-.6-1-.8-2.1-.8-3.2s.2-1.7.5-2.5c.3-.8.8-1.5,1.3-2.1.6-.6,1.2-1.1,2-1.4s1.5-.5,2.4-.5,2.2.3,3.1.9c.9.6,1.7,1.4,2.2,2.3.6,1,.8,2.1.8,3.3s-.2,1.7-.5,2.5c-.3.8-.8,1.5-1.3,2.1-.6.6-1.2,1.1-1.9,1.4s-1.5.5-2.4.5ZM150.3,770.2c.6,0,1.1-.2,1.6-.5.5-.3.8-.7,1.1-1.3.3-.5.4-1.1.4-1.7s-.1-1.2-.4-1.7c-.3-.5-.7-.9-1.1-1.3s-1-.5-1.6-.5-1.1.2-1.6.5c-.5.3-.8.7-1.1,1.3-.3.5-.4,1.1-.4,1.7s.1,1.2.4,1.8c.3.5.7.9,1.1,1.2.5.3,1,.5,1.6.5Z"/>
      <path d="M169.9,773.2c-1.1,0-2.2-.3-3.1-.9-.9-.6-1.7-1.4-2.2-2.3-.6-1-.8-2.1-.8-3.2s.2-1.7.5-2.5c.3-.8.8-1.5,1.3-2.1.6-.6,1.2-1.1,2-1.4s1.5-.5,2.4-.5,1.8.2,2.6.6,1.5,1,2,1.7,1,1.5,1.2,2.4c.3.9.3,1.8.2,2.8h-9c.1.5.3.9.6,1.2.3.4.6.7,1,.9.4.2.9.3,1.4.3.5,0,1-.1,1.4-.4.4-.3.8-.6,1.1-1l3.1.7c-.5,1.1-1.2,2-2.2,2.7s-2.1,1-3.3,1ZM166.9,765.5h6c0-.5-.3-.9-.6-1.3-.3-.4-.6-.7-1.1-1-.4-.2-.9-.4-1.4-.4s-.9.1-1.4.3c-.4.2-.8.5-1.1.9-.3.4-.5.8-.6,1.3Z"/>
      <path d="M177.8,772.9v-18.4h3v18.4h-3Z"/>
      <path d="M198.8,760.6h3v12.3h-3v-1.5c-.5.5-.9,1-1.5,1.3-.6.3-1.2.5-2,.5s-1.8-.2-2.5-.5c-.8-.3-1.5-.8-2.1-1.4-.6-.6-1.1-1.3-1.4-2.1-.3-.8-.5-1.6-.5-2.5s.2-1.7.5-2.5c.3-.8.8-1.4,1.4-2,.6-.6,1.2-1,2-1.4.8-.3,1.6-.5,2.5-.5s1.5.2,2.2.5,1.2.8,1.6,1.4v-1.6ZM195.3,770.3c.6,0,1.2-.2,1.7-.5.5-.3.9-.7,1.2-1.3.3-.5.4-1.1.4-1.8s-.1-1.3-.4-1.8-.7-1-1.2-1.3c-.5-.3-1.1-.5-1.7-.5s-1.2.2-1.7.5c-.5.3-.9.8-1.2,1.3s-.5,1.1-.5,1.8.2,1.3.5,1.8c.3.5.7,1,1.2,1.3.5.3,1.1.5,1.7.5Z"/>
      <path d="M215.5,765.1v7.7h-3v-7c0-.5-.1-.9-.4-1.3-.2-.4-.6-.7-.9-.9-.4-.2-.8-.3-1.3-.3s-.9.1-1.3.3c-.4.2-.7.5-.9.9-.2.4-.3.8-.3,1.3v7h-3v-12.3s3,0,3,0v1.1c.4-.4.9-.8,1.5-1,.6-.3,1.2-.4,1.9-.4s1.7.2,2.4.7c.7.4,1.3,1,1.8,1.8.4.7.7,1.5.7,2.4ZM212,759.3c-.3,0-.7-.1-1.1-.3-.4-.2-.8-.4-1.2-.7s-.8-.5-1.1-.6c-.3-.2-.5-.2-.6,0-.1.1-.2.2-.2.4s0,.4,0,.7l-1.8.5c-.2-.6-.3-1.2-.2-1.7.1-.5.4-.9.7-1.3s.9-.5,1.5-.5.6,0,1,.3c.4.2.8.4,1.2.6.4.2.7.4,1,.6s.5.3.6.3.3,0,.3-.2c0-.1,0-.3,0-.4,0-.2,0-.3-.1-.5l1.8-.6c.2.7.3,1.3.1,1.8-.1.5-.4,1-.8,1.3-.4.3-.9.5-1.5.5Z"/>
      <path d="M223.1,773.2c-1.1,0-2.2-.3-3.1-.9-.9-.6-1.7-1.4-2.2-2.3-.6-1-.8-2.1-.8-3.2s.2-1.7.5-2.5c.3-.8.8-1.5,1.3-2.1.6-.6,1.2-1.1,2-1.4s1.5-.5,2.4-.5,2.2.3,3.1.9c.9.6,1.7,1.4,2.2,2.3.6,1,.8,2.1.8,3.3s-.2,1.7-.5,2.5c-.3.8-.8,1.5-1.3,2.1-.6.6-1.2,1.1-1.9,1.4s-1.5.5-2.4.5ZM223.1,770.2c.6,0,1.1-.2,1.6-.5.5-.3.8-.7,1.1-1.3.3-.5.4-1.1.4-1.7s-.1-1.2-.4-1.7c-.3-.5-.7-.9-1.1-1.3s-1-.5-1.6-.5-1.1.2-1.6.5c-.5.3-.8.7-1.1,1.3-.3.5-.4,1.1-.4,1.7s.1,1.2.4,1.8c.3.5.7.9,1.1,1.2.5.3,1,.5,1.6.5Z"/>
    </g>
    <rect class="st14" x="394.3" y="81.7" width="103" height="478.6" transform="translate(793.6 -104.2) rotate(93.5)"/>
    <text class="st6" transform="translate(254.1 320.8) rotate(3.5)"><tspan x="0" y="0">IMPLEMENTACIÓN</tspan></text>
  </g>
</svg>