<?xml version="1.0" encoding="UTF-8"?>
<svg id="Capa_2" data-name="Capa 2" xmlns="http://www.w3.org/2000/svg" viewBox="0 0 1474.45 494.64">
  <defs>
    <style>
      .cls-1 {
        fill: #fff;
      }
    </style>
  </defs>
  <g id="Capa_2-2" data-name="Capa 2">
    <g id="Capa_1-2" data-name="Capa 1-2">
      <g>
        <path class="cls-1" d="M1365.26,74.67c19.64,0,35.61,15.97,35.61,35.61v68.32c0,19.64-15.97,35.61-35.61,35.61h-266.19c-19.64,0-35.61-15.97-35.61-35.61v-68.32c0-19.64,15.97-35.61,35.61-35.61h266.19M1365.26,1.14h-266.19c-60.27,0-109.13,48.86-109.13,109.13v68.32c0,60.27,48.86,109.13,109.13,109.13h266.19c60.27,0,109.13-48.86,109.13-109.13v-68.32c0-60.27-48.86-109.13-109.13-109.13h0Z"/>
        <rect class="cls-1" x="821.2" width="89.12" height="483.31"/>
        <path class="cls-1" d="M510.94,115.45c10.08-15.93,22.02-27.6,35.82-35.04l3.19-.8h191.62V0h-194.8c-15.93,0-32.38,4.78-49.37,14.33-7.44,4.25-17.65,12.87-30.65,25.88-13.02,13.02-22.18,23.49-27.47,31.46-8.5,12.74-12.74,27.6-12.74,44.59v250.82h.04-.04c0,16.98,4.24,31.85,12.74,44.59,5.3,7.96,14.46,18.44,27.47,31.46,13,13,23.22,21.62,30.65,25.88,16.98,9.56,33.44,14.33,49.37,14.33h194.8v-79.63h-191.62l-3.19-.8c-13.81-7.44-25.76-19.11-35.82-35.04-.54-1.07-.79-3.99-.79-8.75V124.2c0-4.78.26-7.69.79-8.75h0Z"/>
        <path class="cls-1" d="M121.76,1.14c-15.93,0-32.39,4.78-49.37,14.33-7.96,4.78-18.45,13.68-31.46,26.68-13,13-22.16,23.23-27.47,30.65-7.96,11.67-11.95,26.81-11.95,45.38v43c0,19.65,5.44,37.7,16.32,54.15,10.87,16.45,26.14,27.34,45.79,32.64l207.02,58.92c6.37,1.07,9.56,5.57,9.56,13.53v46.97c0,3.19-4.51,9.29-13.53,18.31-9.03,9.03-16.47,15.14-22.3,18.31l-4.78.8H0v79.63h79.26c180.25,0,196.69-4.78,213.69-14.33,7.96-4.25,18.31-12.86,31.05-25.88,12.74-13,21.75-23.49,27.07-31.46,8.49-11.66,12.74-26.8,12.74-45.38v-50.16c0-19.11-5.57-37.02-16.71-53.75-11.15-16.71-26.27-27.73-45.38-33.05l-207.82-60.52c-5.84-1.05-8.75-5.57-8.75-13.53v-39.81c0-3.19,4.11-9.03,12.35-17.52,8.23-8.49,15.53-14.33,21.9-17.52l4.78-.79h227.44V1.14H121.76Z"/>
        <g>
          <path class="cls-1" d="M1413.15,399.67c-15.9,10.59-34.5,15.97-55.27,15.97h-251.53c-20.78,0-39.38-5.38-55.29-15.97-9.07-6.03-20.34-15.82-34.45-29.94-12.56-12.57-21.39-22.84-26.85-31.24v35.58c0,15.97,4.79,32.48,14.38,49.5,4.27,7.47,12.9,17.71,25.95,30.74,13.05,13.05,23.55,22.24,31.54,27.56,12.78,8.52,27.69,12.77,44.71,12.77v-.04.04h251.53c17.04,0,31.94-4.25,44.71-12.77,7.99-5.32,18.48-14.49,31.54-27.56,13.03-13.03,21.68-23.27,25.95-30.74,9.58-17.04,14.38-33.53,14.38-49.5v-35.59c-5.51,8.47-14.33,18.72-26.85,31.24-14.1,14.1-25.36,23.89-34.45,29.94h.01Z"/>
          <path class="cls-1" d="M1474.42,234.06c-5.52,8.46-14.32,18.7-26.82,31.19-14.1,14.1-25.36,23.89-34.45,29.94-15.37,10.26-33.3,15.57-53.27,15.91-.67,0-1.33.06-2,.06h-251.53c-.67,0-1.33-.06-2-.06-19.97-.34-37.9-5.65-53.28-15.91-9.07-6.03-20.34-15.82-34.45-29.92-12.54-12.54-21.35-22.78-26.81-31.18,0,.32-.03.64-.03.95v40.98c0,15.97,4.79,32.48,14.38,49.5,4.27,7.47,12.9,17.71,25.95,30.74,13.05,13.05,23.55,22.24,31.54,27.56,12.78,8.52,27.69,12.77,44.71,12.77v-.04.04h251.53c17.04,0,31.94-4.25,44.71-12.77,7.99-5.32,18.48-14.49,31.54-27.56,13.03-13.03,21.68-23.27,25.95-30.74,9.58-17.04,14.38-33.53,14.38-49.5v-40.98c0-.32-.03-.64-.03-.96h0Z"/>
        </g>
      </g>
    </g>
  </g>
</svg>