<?xml version="1.0" encoding="UTF-8"?>
<svg id="Capa_1" xmlns="http://www.w3.org/2000/svg" version="1.1" viewBox="0 0 768 1024">
  <!-- Generator: Adobe Illustrator 29.3.1, SVG Export Plug-In . SVG Version: 2.1.0 Build 151)  -->
  <defs>
    <style>
      .st0 {
        fill: #fff;
      }

      .st1 {
        opacity: .7;
      }

      .st2 {
        fill: #046e7c;
      }
    </style>
  </defs>
  <rect class="st2" x="-2.7" y="-2.6" width="773.3" height="1029.1"/>
  <g>
    <g>
      <path class="st0" d="M82.2,524.1c-9.5,0-18.3-1.8-26.5-5.5-8.2-3.7-15.3-8.8-21.4-15.4-6.1-6.6-10.9-14.1-14.3-22.7-3.5-8.6-5.2-17.8-5.2-27.6s1.8-19.5,5.4-28.1c3.6-8.6,8.6-16.1,14.9-22.5,6.3-6.4,13.5-11.4,21.6-14.9,8.1-3.6,16.7-5.3,25.8-5.3s20.1,2.4,29.5,7.2c9.3,4.8,17.4,11.8,24.1,21l-14.7,7.9c-5-6.4-11-11.3-17.9-14.7-6.9-3.4-14-5.1-21.2-5.1s-13.5,1.4-19.6,4.2c-6.2,2.8-11.6,6.7-16.4,11.8-4.7,5-8.4,10.8-11.1,17.4-2.7,6.6-4,13.7-4,21.4s1.3,14.6,4,21.2c2.7,6.6,6.3,12.4,11,17.4,4.7,5,10.1,8.9,16.3,11.7,6.2,2.8,12.8,4.2,19.9,4.2s11-.9,16-2.8c5.1-1.9,9.7-4.6,14-8,4.3-3.5,7.9-7.5,11-12.2,3-4.7,5.3-9.9,6.9-15.5h-33.8v-14.7h53c0,9.6-1.9,18.6-5.4,27-3.6,8.4-8.4,15.8-14.6,22.2-6.2,6.4-13.3,11.4-21.3,15-8.1,3.6-16.7,5.4-25.9,5.4Z"/>
      <path class="st0" d="M157.6,521.6v-137.1h84.1v16.5h-67.7v39h55.4v16.5h-55.4v48.8h67.7v16.5h-84.1Z"/>
      <path class="st0" d="M300.3,524.1c-7.4,0-14.5-1.2-21.3-3.5-6.9-2.3-12.8-5.6-18-9.9-5.1-4.3-8.8-9.4-10.9-15.4l15.4-5.8c1.3,3.7,3.7,6.8,7.3,9.5,3.6,2.7,7.8,4.8,12.6,6.3,4.8,1.5,9.8,2.3,15,2.3s11.3-1,16.4-2.9c5.1-1.9,9.2-4.6,12.3-8.1,3.1-3.5,4.7-7.5,4.7-12.1s-1.6-8.7-4.9-11.7c-3.3-3-7.4-5.5-12.5-7.2-5.1-1.8-10.4-3.2-16-4.2-9.5-1.6-17.9-3.8-25.4-6.7-7.5-2.9-13.4-7-17.7-12.2-4.3-5.2-6.5-12.1-6.5-20.7s2.3-14.9,6.9-20.9c4.6-5.9,10.7-10.5,18.3-13.8,7.6-3.3,15.7-4.9,24.5-4.9s14.3,1.1,21.1,3.4c6.8,2.3,12.8,5.5,18.1,9.8,5.2,4.3,9,9.6,11.3,15.8l-15.6,5.7c-1.3-3.7-3.7-6.9-7.3-9.6-3.6-2.7-7.7-4.8-12.5-6.3-4.8-1.5-9.8-2.2-15-2.2-5.8,0-11.2.9-16.3,2.8-5,2-9.1,4.7-12.2,8.1-3.1,3.5-4.7,7.5-4.7,12s1.5,9.7,4.4,12.6c2.9,2.9,6.9,5.1,11.9,6.5,5,1.4,10.7,2.7,16.9,3.8,8.9,1.5,17.1,3.9,24.7,7.1,7.6,3.2,13.7,7.5,18.3,12.9,4.6,5.4,6.9,11.9,6.9,19.8s-2.3,14.9-6.9,20.9c-4.6,5.9-10.7,10.5-18.3,13.8-7.6,3.3-15.8,4.9-24.7,4.9Z"/>
      <path class="st0" d="M459.9,384.5v16.5h-45.6v120.6h-16.5v-120.6h-45.5v-16.5h107.6Z"/>
      <path class="st0" d="M471.2,521.6v-137.1h16.5v137.1h-16.5Z"/>
      <path class="st0" d="M566.6,524.1c-9.3,0-18-1.8-26.1-5.5-8.2-3.7-15.3-8.8-21.5-15.3-6.2-6.5-11.1-14.1-14.6-22.7-3.5-8.6-5.3-17.8-5.3-27.6s1.8-19,5.3-27.6c3.5-8.6,8.4-16.1,14.6-22.7,6.2-6.5,13.4-11.6,21.5-15.3,8.2-3.7,16.9-5.5,26.1-5.5s18.1,1.8,26.2,5.5c8.2,3.7,15.3,8.8,21.5,15.3,6.2,6.5,11,14.1,14.5,22.7,3.5,8.6,5.2,17.8,5.2,27.6s-1.7,19-5.2,27.6c-3.5,8.6-8.3,16.1-14.5,22.7-6.2,6.5-13.4,11.6-21.5,15.3-8.2,3.7-16.9,5.5-26.2,5.5ZM566.6,507.7c7.1,0,13.8-1.4,19.9-4.3,6.2-2.9,11.6-6.8,16.3-11.9,4.7-5.1,8.3-10.9,11-17.4,2.6-6.6,4-13.6,4-21s-1.3-14.5-4-21.1c-2.7-6.6-6.4-12.4-11-17.4-4.7-5-10.1-8.9-16.3-11.8-6.2-2.9-12.8-4.3-19.8-4.3s-13.8,1.4-19.9,4.3c-6.2,2.9-11.6,6.8-16.3,11.9-4.7,5.1-8.3,10.9-11,17.4-2.6,6.6-4,13.6-4,21s1.3,14.6,4,21.2c2.7,6.6,6.3,12.4,11,17.4,4.7,5,10.1,9,16.3,11.8,6.2,2.8,12.8,4.3,19.8,4.3ZM562.5,373.7l7.8-28.2h16.5l-13.3,28.2h-11Z"/>
      <path class="st0" d="M642.3,521.6v-137.1h17.8l68.5,107.3v-107.3h16.5v137.1h-17.7l-68.5-107.3v107.3h-16.5Z"/>
    </g>
    <g class="st1">
      <path class="st0" d="M267.1,651.4v-76h47.6v13.2h-34.4v15.4h27.3v13.2h-27.3v20.8h34.4v13.2h-47.6Z"/>
      <path class="st0" d="M320.3,651.4v-76h25.2c5.2,0,10.2,1,14.7,3,4.6,2,8.6,4.7,12.1,8.2,3.5,3.5,6.2,7.5,8.2,12.1,2,4.6,3,9.5,3,14.7s-1,10.2-3,14.7c-2,4.6-4.7,8.6-8.2,12.1s-7.5,6.2-12.1,8.2-9.5,3-14.7,3h-25.2ZM333.6,638.1h11.9c3.4,0,6.5-.6,9.5-1.9s5.6-3.1,7.9-5.3c2.3-2.3,4.1-4.9,5.4-7.9,1.3-3,2-6.2,2-9.6s-.7-6.6-2-9.6c-1.3-3-3.1-5.6-5.4-7.9-2.3-2.3-4.9-4.1-7.9-5.3-3-1.3-6.2-1.9-9.5-1.9h-11.9v49.5Z"/>
      <path class="st0" d="M483,575.4v13.2h-23.2v62.7h-13.2v-62.7h-23.2v-13.2h59.7Z"/>
      <path class="st0" d="M518.2,652.8c-5.1,0-10-1-14.5-3.1-4.5-2-8.5-4.9-11.9-8.5-3.4-3.6-6.1-7.8-8.1-12.6-2-4.8-2.9-9.8-2.9-15.3s1-10.5,2.9-15.3c2-4.8,4.6-8.9,8.1-12.6,3.4-3.6,7.4-6.4,11.9-8.5,4.5-2,9.4-3.1,14.5-3.1s10,1,14.5,3.1c4.5,2,8.5,4.9,11.9,8.5,3.4,3.6,6.1,7.8,8.1,12.6,1.9,4.8,2.9,9.8,2.9,15.3s-1,10.5-2.9,15.3c-1.9,4.8-4.6,8.9-8.1,12.6-3.4,3.6-7.4,6.4-11.9,8.5-4.5,2-9.4,3.1-14.5,3.1ZM518.2,639.5c3.3,0,6.5-.7,9.4-2.1,2.9-1.4,5.5-3.3,7.7-5.7,2.2-2.4,4-5.2,5.2-8.3s1.9-6.5,1.9-10.1-.6-7-1.9-10.1c-1.3-3.2-3-5.9-5.2-8.3-2.2-2.4-4.8-4.3-7.7-5.6-2.9-1.4-6-2.1-9.4-2.1s-6.5.7-9.4,2.1c-2.9,1.4-5.5,3.3-7.7,5.7-2.2,2.4-4,5.2-5.2,8.3s-1.9,6.5-1.9,10.1.6,7,1.9,10.1c1.3,3.1,3,5.9,5.2,8.3,2.2,2.4,4.8,4.3,7.7,5.6,2.9,1.4,6,2,9.4,2Z"/>
      <path class="st0" d="M558.9,651.4v-76h29.1c4.1,0,7.8,1,11.2,3.1,3.3,2.1,6,4.8,7.9,8.3,2,3.5,2.9,7.3,2.9,11.5s-.6,6.6-1.9,9.5c-1.2,2.9-3,5.4-5.2,7.5s-4.8,3.7-7.7,4.8l18.2,31.4h-15.2l-17.6-30.2h-8.5v30.2h-13.2ZM572.1,607.9h14.4c1.9,0,3.6-.5,5.2-1.4,1.6-.9,2.8-2.2,3.7-3.8s1.4-3.4,1.4-5.3-.5-3.8-1.4-5.4-2.2-2.9-3.7-3.8c-1.6-.9-3.3-1.4-5.2-1.4h-14.4v21.1Z"/>
      <path class="st0" d="M618.8,651.4v-76h13.2v76h-13.2Z"/>
      <path class="st0" d="M665.4,575.4h15.2l27.6,76h-14.1l-4.9-13.5h-32.6l-4.9,13.5h-14.1l27.6-76ZM661.6,624.7h22.8l-11.4-31.3-11.4,31.3Z"/>
      <path class="st0" d="M710.8,651.4v-76h13.2v62.7h31.6v13.2h-44.9Z"/>
    </g>
    <rect class="st0" x="397.5" y="395.8" width="17.1" height="255.5"/>
  </g>
</svg>