<?xml version="1.0" encoding="UTF-8"?>
<svg id="Capa_1" xmlns="http://www.w3.org/2000/svg" version="1.1" viewBox="0 0 820 1180">
  <!-- Generator: Adobe Illustrator 29.3.1, SVG Export Plug-In . SVG Version: 2.1.0 Build 151)  -->
  <defs>
    <style>
      .st0 {
        fill: #fff;
      }

      .st1 {
        opacity: .7;
      }

      .st2 {
        fill: #046e7c;
      }
    </style>
  </defs>
  <rect class="st2" x="-4.1" y="-3.4" width="828.3" height="1186.7"/>
  <g>
    <g>
      <path class="st0" d="M86.7,603c-10.1,0-19.6-2-28.4-5.9-8.8-3.9-16.4-9.4-23-16.5-6.5-7-11.7-15.1-15.4-24.3-3.7-9.2-5.6-19-5.6-29.5s1.9-20.9,5.8-30.1c3.9-9.2,9.2-17.3,15.9-24.1,6.7-6.9,14.5-12.2,23.2-16,8.7-3.8,17.9-5.7,27.6-5.7s21.6,2.6,31.6,7.8c10,5.2,18.6,12.7,25.8,22.4l-15.7,8.5c-5.4-6.9-11.8-12.1-19.1-15.7-7.4-3.6-14.9-5.5-22.7-5.5s-14.4,1.5-21,4.5c-6.6,3-12.4,7.2-17.5,12.6-5.1,5.4-9,11.6-11.9,18.7-2.9,7.1-4.3,14.7-4.3,23s1.4,15.6,4.3,22.7c2.9,7.1,6.8,13.3,11.8,18.6,5,5.3,10.8,9.5,17.5,12.5,6.6,3,13.7,4.5,21.3,4.5s11.7-1,17.1-3c5.4-2,10.4-4.9,15-8.6,4.6-3.7,8.5-8.1,11.7-13.1,3.3-5,5.7-10.6,7.4-16.6h-36.2v-15.7h56.7c0,10.3-2,19.9-5.8,28.9-3.8,9-9,17-15.6,23.8-6.6,6.9-14.2,12.2-22.9,16.1-8.6,3.9-17.9,5.8-27.7,5.8Z"/>
      <path class="st0" d="M167.5,600.2v-146.8h90.1v17.6h-72.5v41.7h59.4v17.6h-59.4v52.2h72.5v17.6h-90.1Z"/>
      <path class="st0" d="M320.4,603c-7.9,0-15.5-1.2-22.9-3.7-7.3-2.5-13.8-6-19.2-10.6-5.5-4.6-9.4-10.1-11.7-16.5l16.5-6.2c1.4,3.9,4,7.3,7.8,10.2,3.8,2.9,8.3,5.2,13.5,6.8,5.2,1.6,10.5,2.4,16,2.4s12.1-1,17.6-3.1c5.4-2.1,9.8-4.9,13.2-8.7,3.4-3.7,5-8,5-13s-1.7-9.3-5.2-12.5c-3.5-3.3-8-5.8-13.4-7.8-5.5-1.9-11.2-3.4-17.1-4.5-10.1-1.7-19.2-4.1-27.2-7.2-8-3.1-14.3-7.5-19-13.1-4.7-5.6-7-13-7-22.1s2.5-16,7.4-22.3c4.9-6.4,11.4-11.3,19.6-14.8,8.1-3.5,16.9-5.2,26.2-5.2s15.3,1.2,22.6,3.6c7.3,2.4,13.8,5.9,19.4,10.5,5.6,4.6,9.6,10.2,12.1,16.9l-16.7,6.1c-1.4-4-4-7.4-7.8-10.3-3.8-2.9-8.3-5.1-13.4-6.7-5.1-1.6-10.5-2.4-16.1-2.4-6.2,0-12,.9-17.4,3-5.4,2.1-9.8,5-13.1,8.7-3.4,3.7-5,8-5,12.9s1.6,10.4,4.7,13.5c3.1,3.1,7.4,5.4,12.7,7,5.4,1.5,11.4,2.9,18.1,4.1,9.5,1.6,18.3,4.1,26.4,7.6,8.1,3.5,14.6,8.1,19.6,13.8,4.9,5.7,7.4,12.8,7.4,21.2s-2.5,16-7.4,22.3c-4.9,6.4-11.5,11.3-19.6,14.8-8.1,3.5-16.9,5.2-26.4,5.2Z"/>
      <path class="st0" d="M491.2,453.4v17.6h-48.9v129.2h-17.6v-129.2h-48.8v-17.6h115.3Z"/>
      <path class="st0" d="M503.4,600.2v-146.8h17.6v146.8h-17.6Z"/>
      <path class="st0" d="M605.6,603c-9.9,0-19.3-2-28-5.9-8.7-3.9-16.4-9.4-23.1-16.4-6.6-7-11.9-15.1-15.6-24.3-3.8-9.2-5.7-19-5.7-29.5s1.9-20.3,5.7-29.5c3.8-9.2,9-17.3,15.6-24.3,6.6-7,14.3-12.5,23.1-16.4,8.7-3.9,18.1-5.9,28-5.9s19.4,2,28.1,5.9c8.7,4,16.4,9.4,23.1,16.4,6.6,7,11.8,15.1,15.6,24.3,3.7,9.2,5.6,19,5.6,29.5s-1.9,20.3-5.6,29.5c-3.7,9.2-8.9,17.3-15.6,24.3-6.6,7-14.3,12.5-23.1,16.4-8.7,4-18.1,5.9-28.1,5.9ZM605.6,585.4c7.6,0,14.7-1.5,21.3-4.6,6.6-3.1,12.4-7.3,17.4-12.7,5-5.4,8.9-11.6,11.7-18.7s4.2-14.5,4.2-22.5-1.4-15.5-4.3-22.6c-2.9-7.1-6.8-13.3-11.8-18.7-5-5.3-10.8-9.6-17.4-12.6-6.6-3.1-13.7-4.6-21.2-4.6s-14.7,1.5-21.3,4.6c-6.6,3.1-12.4,7.3-17.4,12.7-5,5.4-8.9,11.6-11.7,18.7s-4.2,14.5-4.2,22.5,1.4,15.6,4.3,22.7c2.9,7.1,6.8,13.3,11.8,18.7,5,5.4,10.8,9.6,17.4,12.6,6.6,3,13.7,4.6,21.2,4.6ZM601.2,441.9l8.4-30.2h17.6l-14.3,30.2h-11.7Z"/>
      <path class="st0" d="M686.6,600.2v-146.8h19.1l73.3,115v-115h17.6v146.8h-19l-73.4-115v115h-17.6Z"/>
    </g>
    <g class="st1">
      <path class="st0" d="M284.8,739.3v-81.4h51v14.2h-36.8v16.5h29.2v14.2h-29.2v22.3h36.8v14.2h-51Z"/>
      <path class="st0" d="M341.8,739.3v-81.4h27c5.6,0,10.9,1.1,15.8,3.2,4.9,2.1,9.2,5,13,8.8,3.7,3.7,6.7,8.1,8.8,13,2.1,4.9,3.2,10.2,3.2,15.8s-1.1,10.9-3.2,15.8c-2.1,4.9-5,9.2-8.8,13-3.7,3.7-8.1,6.7-13,8.8-4.9,2.1-10.2,3.2-15.8,3.2h-27ZM356,725.1h12.8c3.6,0,7-.7,10.2-2.1,3.2-1.4,6-3.3,8.5-5.7,2.4-2.4,4.4-5.2,5.8-8.4s2.1-6.6,2.1-10.3-.7-7.1-2.1-10.3c-1.4-3.2-3.3-6-5.8-8.4-2.4-2.4-5.3-4.3-8.4-5.7-3.2-1.4-6.6-2.1-10.2-2.1h-12.8v53Z"/>
      <path class="st0" d="M516,657.9v14.2h-24.9v67.2h-14.2v-67.2h-24.9v-14.2h63.9Z"/>
      <path class="st0" d="M553.7,740.8c-5.5,0-10.7-1.1-15.5-3.3-4.8-2.2-9.1-5.2-12.8-9.1-3.7-3.9-6.6-8.4-8.7-13.5-2.1-5.1-3.1-10.5-3.1-16.4s1-11.3,3.1-16.4c2.1-5.1,5-9.6,8.7-13.5,3.7-3.9,7.9-6.9,12.8-9.1,4.8-2.2,10-3.3,15.5-3.3s10.7,1.1,15.6,3.3c4.8,2.2,9.1,5.2,12.8,9.1,3.7,3.9,6.6,8.4,8.6,13.5,2.1,5.1,3.1,10.5,3.1,16.4s-1,11.3-3.1,16.4c-2.1,5.1-5,9.6-8.6,13.5-3.7,3.9-7.9,6.9-12.8,9.1-4.8,2.2-10,3.3-15.6,3.3ZM553.7,726.6c3.6,0,6.9-.7,10.1-2.2,3.1-1.5,5.9-3.5,8.3-6.1,2.4-2.6,4.2-5.5,5.6-8.9,1.3-3.4,2-7,2-10.8s-.7-7.4-2-10.8c-1.4-3.4-3.2-6.4-5.6-8.9-2.4-2.6-5.1-4.6-8.3-6-3.1-1.5-6.5-2.2-10-2.2s-6.9.7-10.1,2.2c-3.1,1.5-5.9,3.5-8.3,6.1-2.4,2.6-4.2,5.6-5.6,8.9-1.3,3.4-2,7-2,10.8s.7,7.5,2,10.9c1.4,3.4,3.2,6.3,5.6,8.9,2.4,2.6,5.1,4.6,8.3,6,3.1,1.5,6.5,2.2,10,2.2Z"/>
      <path class="st0" d="M597.3,739.3v-81.4h31.2c4.4,0,8.4,1.1,12,3.3,3.6,2.2,6.4,5.2,8.5,8.9,2.1,3.7,3.1,7.8,3.1,12.3s-.7,7.1-2,10.1c-1.3,3.1-3.2,5.7-5.6,8s-5.1,4-8.2,5.1l19.5,33.6h-16.3l-18.8-32.4h-9.1v32.4h-14.2ZM611.5,692.7h15.4c2,0,3.9-.5,5.5-1.5,1.7-1,3-2.4,4-4.1,1-1.7,1.5-3.6,1.5-5.7s-.5-4-1.5-5.8c-1-1.7-2.3-3.1-4-4.1-1.7-1-3.5-1.5-5.5-1.5h-15.4v22.6Z"/>
      <path class="st0" d="M661.4,739.3v-81.4h14.2v81.4h-14.2Z"/>
      <path class="st0" d="M711.4,657.9h16.3l29.6,81.4h-15.1l-5.2-14.4h-34.9l-5.2,14.4h-15.1l29.5-81.4ZM707.4,710.7h24.5l-12.3-33.5-12.2,33.5Z"/>
      <path class="st0" d="M760.1,739.3v-81.4h14.2v67.2h33.9v14.2h-48.1Z"/>
    </g>
    <rect class="st0" x="424.4" y="465.5" width="18.3" height="273.6"/>
  </g>
</svg>