<?xml version="1.0" encoding="UTF-8"?>
<svg id="Capa_1" xmlns="http://www.w3.org/2000/svg" version="1.1" viewBox="0 0 1366 768">
  <!-- Generator: Adobe Illustrator 29.3.1, SVG Export Plug-In . SVG Version: 2.1.0 Build 151)  -->
  <defs>
    <style>
      .st0 {
        fill: #fff;
      }

      .st1 {
        opacity: .7;
      }

      .st2 {
        fill: #046e7c;
      }
    </style>
  </defs>
  <rect class="st2" x="-1.2" y="-1.2" width="1367.2" height="769.3"/>
  <g>
    <path class="st0" d="M174.9,426.1c-15.8,0-30.5-3.1-44.2-9.2-13.7-6.2-25.6-14.7-35.8-25.6-10.2-10.9-18.2-23.6-23.9-37.9-5.8-14.3-8.7-29.6-8.7-46s3-32.5,9.1-46.9c6-14.4,14.3-26.9,24.8-37.6,10.5-10.7,22.5-19,36.1-24.9,13.6-5.9,27.9-8.9,43-8.9s33.6,4,49.2,12.1c15.6,8.1,29,19.7,40.2,35l-24.5,13.2c-8.4-10.7-18.3-18.8-29.8-24.5-11.5-5.7-23.3-8.5-35.4-8.5s-22.5,2.3-32.8,7c-10.3,4.7-19.4,11.2-27.3,19.6-7.9,8.4-14.1,18.1-18.5,29.1-4.5,11-6.7,22.9-6.7,35.8s2.2,24.3,6.7,35.3c4.5,11,10.6,20.7,18.4,29,7.8,8.3,16.9,14.8,27.2,19.5,10.3,4.7,21.4,7,33.2,7s18.3-1.6,26.7-4.7c8.4-3.2,16.2-7.6,23.4-13.4,7.1-5.8,13.2-12.6,18.3-20.4,5.1-7.8,8.9-16.4,11.5-25.8h-56.4v-24.5h88.4c-.1,16-3.1,31-9.1,45.1-5.9,14-14,26.4-24.3,37.1-10.3,10.7-22.2,19-35.6,25.1-13.5,6-27.9,9.1-43.2,9.1Z"/>
    <path class="st0" d="M300.7,421.9v-228.7h140.3v27.4h-112.9v65h92.5v27.4h-92.5v81.3h112.9v27.4h-140.3Z"/>
    <path class="st0" d="M538.9,426.1c-12.3,0-24.2-1.9-35.6-5.8s-21.4-9.4-30-16.6c-8.6-7.2-14.6-15.7-18.2-25.6l25.6-9.6c2.2,6.1,6.2,11.4,12.2,15.9,5.9,4.5,12.9,8,21,10.5,8.1,2.5,16.4,3.8,25,3.8s18.9-1.6,27.4-4.8c8.4-3.2,15.3-7.7,20.5-13.5,5.2-5.8,7.8-12.5,7.8-20.3s-2.7-14.5-8.2-19.5c-5.4-5.1-12.4-9.1-20.9-12.1-8.5-3-17.4-5.3-26.6-6.9-15.8-2.6-29.9-6.3-42.4-11.2-12.5-4.8-22.3-11.6-29.6-20.3-7.2-8.7-10.9-20.2-10.9-34.5s3.8-24.9,11.5-34.8c7.7-9.9,17.8-17.6,30.5-23,12.6-5.4,26.2-8.2,40.8-8.2s23.8,1.9,35.2,5.6c11.4,3.8,21.4,9.2,30.1,16.4,8.7,7.2,15,16,18.8,26.3l-26,9.5c-2.2-6.2-6.2-11.6-12.2-16.1-5.9-4.5-12.9-8-20.9-10.5-8-2.5-16.4-3.7-25.1-3.7-9.7-.1-18.7,1.5-27.1,4.7-8.4,3.3-15.2,7.8-20.4,13.6-5.2,5.8-7.8,12.5-7.8,20.1s2.4,16.1,7.3,21c4.8,4.8,11.5,8.5,19.8,10.9,8.4,2.4,17.8,4.5,28.3,6.4,14.8,2.5,28.5,6.5,41.2,11.8,12.6,5.4,22.8,12.6,30.5,21.5,7.7,8.9,11.5,19.9,11.5,33s-3.8,24.9-11.5,34.8c-7.7,9.9-17.8,17.6-30.5,23-12.6,5.4-26.4,8.2-41.2,8.2Z"/>
    <path class="st0" d="M805,193.2v27.4h-76.1v201.2h-27.4v-201.2h-76v-27.4h179.5Z"/>
    <path class="st0" d="M823.9,421.9v-228.7h27.4v228.7h-27.4Z"/>
    <path class="st0" d="M983,426.1c-15.5,0-30-3.1-43.6-9.2-13.6-6.2-25.6-14.7-35.9-25.6-10.3-10.9-18.5-23.5-24.3-37.8-5.9-14.3-8.8-29.6-8.8-46s2.9-31.7,8.8-46c5.9-14.3,14-26.9,24.3-37.8,10.3-10.9,22.3-19.4,35.9-25.6,13.6-6.2,28.2-9.2,43.6-9.2s30.2,3.1,43.8,9.2c13.6,6.2,25.6,14.7,35.9,25.6,10.3,10.9,18.4,23.5,24.3,37.8,5.8,14.3,8.7,29.6,8.7,46s-2.9,31.7-8.7,46c-5.8,14.3-13.9,26.9-24.3,37.8-10.3,10.9-22.3,19.4-35.9,25.6-13.6,6.2-28.2,9.2-43.8,9.2ZM983,398.7c11.9,0,23-2.4,33.2-7.2,10.3-4.8,19.3-11.4,27.1-19.8,7.8-8.4,13.9-18.1,18.3-29.1,4.4-10.9,6.6-22.6,6.6-35s-2.2-24.1-6.7-35.2c-4.5-11.1-10.6-20.7-18.4-29.1-7.8-8.3-16.8-14.9-27.1-19.7-10.3-4.8-21.3-7.2-33.1-7.2s-23,2.4-33.2,7.2c-10.3,4.8-19.3,11.4-27.1,19.8-7.8,8.4-13.9,18.1-18.3,29.1-4.4,10.9-6.6,22.6-6.6,35s2.2,24.3,6.7,35.3c4.5,11,10.6,20.7,18.4,29.1,7.8,8.4,16.8,14.9,27.1,19.7s21.3,7.1,33.1,7.1ZM976.1,175.2l13.1-47h27.4l-22.2,47h-18.3Z"/>
    <path class="st0" d="M1109.3,421.9v-228.7h29.7l114.2,179v-179h27.4v228.7h-29.6l-114.3-179v179h-27.4Z"/>
  </g>
  <g class="st1">
    <path class="st0" d="M483.4,638.4v-126.7h79.5v22.1h-57.4v25.7h45.5v22.1h-45.5v34.8h57.4v22.1h-79.5Z"/>
    <path class="st0" d="M572.2,638.4v-126.7h42c8.7,0,16.9,1.6,24.6,4.9,7.6,3.3,14.4,7.8,20.2,13.7,5.8,5.8,10.4,12.6,13.7,20.2,3.3,7.6,4.9,15.8,4.9,24.6s-1.6,16.9-4.9,24.6c-3.3,7.6-7.8,14.4-13.7,20.2-5.8,5.8-12.6,10.4-20.2,13.7-7.6,3.3-15.8,4.9-24.6,4.9h-42ZM594.3,616.3h19.9c5.6,0,10.9-1.1,15.9-3.2,5-2.1,9.4-5.1,13.2-8.9,3.8-3.8,6.8-8.1,9-13.1s3.3-10.3,3.3-16.1-1.1-11.1-3.3-16c-2.2-4.9-5.2-9.3-9-13.1s-8.2-6.8-13.1-8.9c-4.9-2.1-10.3-3.2-15.9-3.2h-19.9v82.5Z"/>
    <path class="st0" d="M843.6,511.7v22.1h-38.7v104.6h-22.1v-104.6h-38.7v-22.1h99.6Z"/>
    <path class="st0" d="M902.2,640.7c-8.6,0-16.6-1.7-24.2-5.1s-14.2-8.1-19.9-14.2c-5.7-6-10.2-13-13.5-21-3.3-7.9-4.9-16.4-4.9-25.5s1.6-17.5,4.9-25.5c3.3-7.9,7.8-14.9,13.5-21,5.7-6,12.4-10.8,19.9-14.2,7.5-3.4,15.6-5.1,24.2-5.1s16.7,1.7,24.3,5.1c7.5,3.4,14.2,8.1,19.9,14.2,5.7,6,10.2,13,13.4,21,3.2,7.9,4.8,16.4,4.8,25.5s-1.6,17.5-4.8,25.5c-3.2,7.9-7.7,14.9-13.4,21-5.7,6-12.4,10.8-19.9,14.2-7.5,3.4-15.6,5.1-24.3,5.1ZM902.2,618.7c5.6,0,10.8-1.1,15.7-3.4,4.9-2.3,9.2-5.4,12.9-9.5,3.7-4,6.6-8.6,8.7-13.9,2.1-5.2,3.1-10.9,3.1-16.8s-1.1-11.6-3.2-16.9c-2.1-5.3-5-9.9-8.7-13.9s-8-7.1-12.9-9.4c-4.9-2.3-10.1-3.4-15.6-3.4s-10.8,1.1-15.7,3.4c-4.9,2.3-9.2,5.4-12.9,9.5-3.7,4-6.6,8.6-8.7,13.9-2.1,5.2-3.1,10.9-3.1,16.8s1.1,11.7,3.2,16.9c2.1,5.2,5,9.9,8.7,13.9,3.7,4,8,7.2,12.9,9.4,4.9,2.3,10.1,3.4,15.6,3.4Z"/>
    <path class="st0" d="M970.1,638.4v-126.7h48.6c6.9,0,13.1,1.7,18.6,5.2,5.6,3.4,10,8,13.2,13.8,3.3,5.8,4.9,12.1,4.9,19.1s-1,11-3.1,15.8c-2.1,4.8-5,8.9-8.7,12.4-3.7,3.5-8,6.2-12.8,8l30.3,52.4h-25.4l-29.3-50.4h-14.2v50.4h-22.1ZM992.2,565.9h24c3.1,0,6-.8,8.6-2.4,2.6-1.6,4.7-3.7,6.2-6.3,1.6-2.7,2.4-5.6,2.4-8.9s-.8-6.3-2.4-9c-1.6-2.7-3.7-4.8-6.2-6.3-2.6-1.6-5.5-2.4-8.6-2.4h-24v35.2Z"/>
    <path class="st0" d="M1070,638.4v-126.7h22.1v126.7h-22.1Z"/>
    <path class="st0" d="M1147.9,511.7h25.4l46.1,126.7h-23.4l-8.1-22.4h-54.3l-8.1,22.4h-23.4l46-126.7ZM1141.5,593.9h38.1l-19.1-52.2-19,52.2Z"/>
    <path class="st0" d="M1223.6,638.4v-126.7h22.1v104.6h52.8v22.1h-74.9Z"/>
  </g>
  <rect class="st0" x="700.9" y="212" width="28.5" height="426.2"/>
</svg>