<?xml version="1.0" encoding="UTF-8"?>
<svg id="Capa_1" xmlns="http://www.w3.org/2000/svg" version="1.1" viewBox="0 0 430 932">
  <!-- Generator: Adobe Illustrator 29.3.1, SVG Export Plug-In . SVG Version: 2.1.0 Build 151)  -->
  <defs>
    <style>
      .st0 {
        fill: #fff;
      }

      .st1 {
        opacity: .7;
      }

      .st2 {
        fill: #046e7c;
      }
    </style>
  </defs>
  <rect class="st2" x="-1" y="-1.2" width="432" height="934.5"/>
  <g>
    <g>
      <path class="st0" d="M45,472.8c-5.3,0-10.3-1-14.9-3.1-4.6-2.1-8.6-5-12.1-8.7-3.4-3.7-6.1-8-8.1-12.8-1.9-4.8-2.9-10-2.9-15.5s1-11,3.1-15.8c2-4.9,4.8-9.1,8.4-12.7,3.5-3.6,7.6-6.4,12.2-8.4,4.6-2,9.4-3,14.5-3s11.3,1.4,16.6,4.1c5.3,2.7,9.8,6.7,13.6,11.8l-8.3,4.5c-2.8-3.6-6.2-6.4-10.1-8.3-3.9-1.9-7.9-2.9-11.9-2.9s-7.6.8-11.1,2.4c-3.5,1.6-6.5,3.8-9.2,6.6-2.7,2.8-4.8,6.1-6.3,9.8-1.5,3.7-2.3,7.7-2.3,12.1s.8,8.2,2.3,11.9c1.5,3.7,3.6,7,6.2,9.8s5.7,5,9.2,6.6c3.5,1.6,7.2,2.4,11.2,2.4s6.2-.5,9-1.6c2.8-1.1,5.5-2.6,7.9-4.5,2.4-1.9,4.5-4.2,6.2-6.9,1.7-2.6,3-5.6,3.9-8.7h-19v-8.3h29.8c0,5.4-1.1,10.5-3.1,15.2-2,4.7-4.7,8.9-8.2,12.5-3.5,3.6-7.5,6.4-12,8.5s-9.4,3.1-14.6,3.1Z"/>
      <path class="st0" d="M87.5,471.4v-77.2h47.4v9.3h-38.1v21.9h31.2v9.3h-31.2v27.5h38.1v9.3h-47.4Z"/>
      <path class="st0" d="M167.9,472.8c-4.2,0-8.2-.7-12-2-3.9-1.3-7.2-3.2-10.1-5.6-2.9-2.4-4.9-5.3-6.1-8.7l8.7-3.3c.7,2.1,2.1,3.9,4.1,5.4,2,1.5,4.4,2.7,7.1,3.6,2.7.8,5.5,1.3,8.4,1.3s6.4-.5,9.2-1.6c2.8-1.1,5.2-2.6,6.9-4.5,1.8-1.9,2.6-4.2,2.6-6.8s-.9-4.9-2.8-6.6c-1.8-1.7-4.2-3.1-7.1-4.1-2.9-1-5.9-1.8-9-2.3-5.3-.9-10.1-2.1-14.3-3.8-4.2-1.6-7.5-3.9-10-6.9-2.4-2.9-3.7-6.8-3.7-11.6s1.3-8.4,3.9-11.7c2.6-3.3,6-5.9,10.3-7.8,4.3-1.8,8.9-2.8,13.8-2.8s8,.6,11.9,1.9c3.8,1.3,7.2,3.1,10.2,5.5,2.9,2.4,5.1,5.4,6.3,8.9l-8.8,3.2c-.7-2.1-2.1-3.9-4.1-5.4-2-1.5-4.4-2.7-7.1-3.5-2.7-.8-5.5-1.2-8.5-1.2-3.3,0-6.3.5-9.2,1.6-2.8,1.1-5.1,2.6-6.9,4.6-1.8,1.9-2.6,4.2-2.6,6.8s.8,5.5,2.5,7.1c1.6,1.6,3.9,2.9,6.7,3.7,2.8.8,6,1.5,9.5,2.2,5,.8,9.6,2.2,13.9,4,4.3,1.8,7.7,4.2,10.3,7.3,2.6,3,3.9,6.7,3.9,11.1s-1.3,8.4-3.9,11.7c-2.6,3.3-6,5.9-10.3,7.8-4.3,1.8-8.9,2.8-13.9,2.8Z"/>
      <path class="st0" d="M257.7,394.2v9.3h-25.7v67.9h-9.3v-67.9h-25.6v-9.3h60.6Z"/>
      <path class="st0" d="M264.1,471.4v-77.2h9.3v77.2h-9.3Z"/>
      <path class="st0" d="M317.8,472.8c-5.2,0-10.1-1-14.7-3.1-4.6-2.1-8.6-5-12.1-8.6-3.5-3.7-6.2-7.9-8.2-12.8-2-4.8-3-10-3-15.5s1-10.7,3-15.5c2-4.8,4.7-9.1,8.2-12.8,3.5-3.7,7.5-6.6,12.1-8.6,4.6-2.1,9.5-3.1,14.7-3.1s10.2,1,14.8,3.1c4.6,2.1,8.6,5,12.1,8.6,3.5,3.7,6.2,7.9,8.2,12.8,2,4.8,3,10,3,15.5s-1,10.7-3,15.5c-2,4.8-4.7,9.1-8.2,12.8-3.5,3.7-7.5,6.6-12.1,8.6s-9.5,3.1-14.8,3.1ZM317.8,463.6c4,0,7.7-.8,11.2-2.4,3.5-1.6,6.5-3.9,9.2-6.7,2.6-2.8,4.7-6.1,6.2-9.8,1.5-3.7,2.2-7.6,2.2-11.8s-.8-8.2-2.3-11.9c-1.5-3.7-3.6-7-6.2-9.8-2.6-2.8-5.7-5-9.2-6.6-3.5-1.6-7.2-2.4-11.2-2.4s-7.7.8-11.2,2.4c-3.5,1.6-6.5,3.9-9.2,6.7-2.6,2.8-4.7,6.1-6.2,9.8-1.5,3.7-2.2,7.6-2.2,11.8s.8,8.2,2.3,11.9c1.5,3.7,3.6,7,6.2,9.8,2.6,2.8,5.7,5,9.2,6.6s7.2,2.4,11.2,2.4ZM315.5,388.1l4.4-15.9h9.3l-7.5,15.9h-6.2Z"/>
      <path class="st0" d="M360.4,471.4v-77.2h10l38.5,60.4v-60.4h9.3v77.2h-10l-38.6-60.4v60.4h-9.3Z"/>
    </g>
    <g class="st1">
      <path class="st0" d="M149.2,544.5v-42.8h26.8v7.5h-19.4v8.7h15.4v7.5h-15.4v11.7h19.4v7.5h-26.8Z"/>
      <path class="st0" d="M179.1,544.5v-42.8h14.2c3,0,5.7.6,8.3,1.7,2.6,1.1,4.8,2.6,6.8,4.6,2,2,3.5,4.2,4.6,6.8,1.1,2.6,1.7,5.3,1.7,8.3s-.6,5.7-1.7,8.3c-1.1,2.6-2.6,4.8-4.6,6.8-2,2-4.2,3.5-6.8,4.6-2.6,1.1-5.3,1.7-8.3,1.7h-14.2ZM186.6,537h6.7c1.9,0,3.7-.4,5.4-1.1,1.7-.7,3.2-1.7,4.4-3,1.3-1.3,2.3-2.8,3-4.4.7-1.7,1.1-3.5,1.1-5.4s-.4-3.7-1.1-5.4-1.7-3.1-3-4.4-2.8-2.3-4.4-3c-1.7-.7-3.5-1.1-5.4-1.1h-6.7v27.9Z"/>
      <path class="st0" d="M270.7,501.7v7.5h-13.1v35.3h-7.5v-35.3h-13.1v-7.5h33.6Z"/>
      <path class="st0" d="M290.5,545.3c-2.9,0-5.6-.6-8.2-1.7-2.5-1.2-4.8-2.7-6.7-4.8-1.9-2-3.5-4.4-4.6-7.1-1.1-2.7-1.6-5.5-1.6-8.6s.5-5.9,1.6-8.6c1.1-2.7,2.6-5,4.6-7.1,1.9-2,4.2-3.6,6.7-4.8,2.5-1.2,5.3-1.7,8.2-1.7s5.6.6,8.2,1.7c2.5,1.2,4.8,2.7,6.7,4.8,1.9,2,3.4,4.4,4.5,7.1,1.1,2.7,1.6,5.5,1.6,8.6s-.5,5.9-1.6,8.6c-1.1,2.7-2.6,5-4.5,7.1-1.9,2-4.2,3.6-6.7,4.8s-5.3,1.7-8.2,1.7ZM290.5,537.8c1.9,0,3.6-.4,5.3-1.2,1.7-.8,3.1-1.8,4.4-3.2,1.3-1.4,2.2-2.9,2.9-4.7.7-1.8,1.1-3.7,1.1-5.7s-.4-3.9-1.1-5.7c-.7-1.8-1.7-3.3-2.9-4.7s-2.7-2.4-4.3-3.2c-1.6-.8-3.4-1.2-5.3-1.2s-3.6.4-5.3,1.2c-1.6.8-3.1,1.8-4.4,3.2-1.3,1.4-2.2,2.9-2.9,4.7-.7,1.8-1.1,3.7-1.1,5.7s.4,3.9,1.1,5.7c.7,1.8,1.7,3.3,2.9,4.7,1.3,1.4,2.7,2.4,4.3,3.2,1.6.8,3.4,1.1,5.3,1.1Z"/>
      <path class="st0" d="M313.5,544.5v-42.8h16.4c2.3,0,4.4.6,6.3,1.7,1.9,1.2,3.4,2.7,4.5,4.7s1.7,4.1,1.7,6.5-.4,3.7-1.1,5.3c-.7,1.6-1.7,3-2.9,4.2-1.3,1.2-2.7,2.1-4.3,2.7l10.2,17.7h-8.6l-9.9-17h-4.8v17h-7.5ZM320.9,520h8.1c1.1,0,2-.3,2.9-.8.9-.5,1.6-1.2,2.1-2.1.5-.9.8-1.9.8-3s-.3-2.1-.8-3c-.5-.9-1.2-1.6-2.1-2.1-.9-.5-1.8-.8-2.9-.8h-8.1v11.9Z"/>
      <path class="st0" d="M347.2,544.5v-42.8h7.5v42.8h-7.5Z"/>
      <path class="st0" d="M373.5,501.7h8.6l15.6,42.8h-7.9l-2.8-7.6h-18.3l-2.8,7.6h-7.9l15.5-42.8ZM371.3,529.4h12.9l-6.4-17.6-6.4,17.6Z"/>
      <path class="st0" d="M399,544.5v-42.8h7.5v35.3h17.8v7.5h-25.3Z"/>
    </g>
    <rect class="st0" x="222.6" y="400.6" width="9.6" height="143.9"/>
  </g>
</svg>