<?xml version="1.0" encoding="UTF-8"?>
<svg id="Capa_1" xmlns="http://www.w3.org/2000/svg" version="1.1" xmlns:xlink="http://www.w3.org/1999/xlink" viewBox="0 0 820 1180">
  <!-- Generator: Adobe Illustrator 29.3.1, SVG Export Plug-In . SVG Version: 2.1.0 Build 151)  -->
  <defs>
    <style>
      .st0 {
        fill: #8a236e;
      }

      .st1 {
        filter: url(#AI_DesenfoqueGaussiano_74);
      }

      .st1, .st2, .st3, .st4, .st5 {
        opacity: .5;
      }

      .st2 {
        filter: url(#AI_DesenfoqueGaussiano_71);
      }

      .st6, .st7 {
        font-size: 38.5px;
      }

      .st6, .st7, .st8 {
        fill: #fff;
        font-family: BonoboSemiBold, Bonobo;
      }

      .st9 {
        fill: #cd3c17;
      }

      .st3 {
        filter: url(#AI_DesenfoqueGaussiano_73);
      }

      .st10 {
        fill: #333;
      }

      .st11 {
        fill: none;
        stroke: #4d4d4d;
        stroke-miterlimit: 10;
        stroke-width: 2px;
      }

      .st7 {
        opacity: 1;
      }

      .st4 {
        filter: url(#AI_DesenfoqueGaussiano_7);
      }

      .st5 {
        filter: url(#AI_DesenfoqueGaussiano_72);
      }

      .st8 {
        font-size: 38.5px;
      }

      .st12 {
        fill: #f29c37;
      }

      .st13 {
        fill: #046e7c;
      }
    </style>
    <filter id="AI_DesenfoqueGaussiano_7">
      <feGaussianBlur stdDeviation="7"/>
    </filter>
    <filter id="AI_DesenfoqueGaussiano_71" data-name="AI_DesenfoqueGaussiano_7">
      <feGaussianBlur stdDeviation="7"/>
    </filter>
    <filter id="AI_DesenfoqueGaussiano_72" data-name="AI_DesenfoqueGaussiano_7">
      <feGaussianBlur stdDeviation="7"/>
    </filter>
    <filter id="AI_DesenfoqueGaussiano_73" data-name="AI_DesenfoqueGaussiano_7">
      <feGaussianBlur stdDeviation="7"/>
    </filter>
    <filter id="AI_DesenfoqueGaussiano_74" data-name="AI_DesenfoqueGaussiano_7">
      <feGaussianBlur stdDeviation="7"/>
    </filter>
  </defs>
  <g>
    <path d="M648.9,134.3c-1.6,0-3-.3-4.4-.9-1.3-.6-2.5-1.5-3.5-2.5s-1.8-2.3-2.3-3.7c-.6-1.4-.8-2.9-.8-4.5s.3-3.2.9-4.6c.6-1.4,1.4-2.6,2.5-3.7s2.2-1.8,3.6-2.4c1.3-.6,2.7-.8,4.2-.8s3.2.4,4.7,1.1c1.5.8,2.9,1.9,4,3.5l-3.5,1.9c-.7-.9-1.5-1.5-2.5-2-.9-.4-1.9-.6-2.8-.6s-1.8.2-2.7.6c-.9.4-1.6.9-2.3,1.6-.7.7-1.2,1.5-1.6,2.5s-.6,2-.6,3.1.2,2.1.6,3c.4.9.9,1.8,1.5,2.5.7.7,1.4,1.2,2.3,1.6.9.4,1.8.6,2.8.6s1.3-.1,1.9-.3,1.2-.5,1.8-.9c.6-.4,1.1-.9,1.5-1.4.4-.6.8-1.2,1.1-1.9h-4.1v-3.4h8.7c0,1.6-.2,3.2-.8,4.6s-1.3,2.7-2.4,3.8c-1,1.1-2.2,2-3.5,2.6-1.3.6-2.8.9-4.4.9Z"/>
    <path d="M662.9,133.8v-22.4h14.1v3.9h-10.2v4.6h8.1v3.9h-8.1v6.2h10.2v3.9h-14.1Z"/>
    <path d="M688.6,134.3c-1.2,0-2.4-.2-3.6-.6-1.1-.4-2.1-1-3-1.7-.9-.7-1.5-1.6-1.8-2.6l3.7-1.3c.1.4.5.8.9,1.2.5.4,1,.6,1.7.8.7.2,1.4.3,2.1.3s1.5-.1,2.2-.4c.7-.2,1.2-.6,1.6-1,.4-.4.6-.9.6-1.5s-.2-1.1-.7-1.5c-.4-.4-1-.7-1.7-.9-.7-.2-1.4-.4-2.1-.5-1.6-.2-3-.6-4.3-1.1-1.3-.5-2.3-1.2-3-2.1-.7-.9-1.1-2.1-1.1-3.5s.4-2.5,1.2-3.6c.8-1,1.8-1.8,3.1-2.4,1.3-.6,2.6-.8,4.1-.8s2.4.2,3.6.6,2.1.9,3,1.7c.9.7,1.5,1.6,1.9,2.7l-3.7,1.3c-.2-.4-.5-.8-.9-1.2-.5-.4-1-.6-1.7-.8-.7-.2-1.4-.3-2.1-.3-.8,0-1.5.1-2.2.4s-1.2.6-1.7,1c-.4.4-.6.9-.6,1.5s.2,1.3.6,1.6c.4.4.9.6,1.6.8.7.2,1.4.3,2.2.5,1.5.2,2.9.6,4.2,1.2,1.3.6,2.3,1.3,3.1,2.2.8.9,1.2,2.1,1.2,3.4s-.4,2.5-1.2,3.6-1.8,1.8-3.1,2.4c-1.3.6-2.7.8-4.2.8Z"/>
    <path d="M716.8,111.4v3.9h-6.9v18.5h-3.9v-18.5h-6.9v-3.9h17.6Z"/>
    <path d="M720.5,133.8v-22.4h3.9v22.4h-3.9Z"/>
    <path d="M739.2,134.3c-1.5,0-2.9-.3-4.3-.9-1.3-.6-2.5-1.4-3.5-2.5-1-1.1-1.8-2.3-2.4-3.7-.6-1.4-.9-2.9-.9-4.5s.3-3.1.9-4.5c.6-1.4,1.4-2.6,2.4-3.7s2.2-1.9,3.5-2.5c1.3-.6,2.8-.9,4.3-.9s3,.3,4.3.9c1.3.6,2.5,1.4,3.5,2.5s1.8,2.3,2.4,3.7c.6,1.4.9,2.9.9,4.5s-.3,3.1-.9,4.5c-.6,1.4-1.4,2.6-2.4,3.7-1,1.1-2.2,1.9-3.5,2.5-1.3.6-2.8.9-4.3.9ZM739.2,130.3c1,0,1.9-.2,2.8-.6.9-.4,1.6-1,2.3-1.7s1.2-1.5,1.5-2.5c.4-.9.6-1.9.6-3s-.2-2.1-.6-3c-.4-.9-.9-1.8-1.5-2.5-.7-.7-1.4-1.3-2.3-1.7-.9-.4-1.8-.6-2.8-.6s-1.9.2-2.8.6c-.9.4-1.6,1-2.3,1.7-.7.7-1.2,1.5-1.5,2.5-.4.9-.6,1.9-.6,3s.2,2.1.6,3c.4.9.9,1.8,1.5,2.5.7.7,1.4,1.3,2.3,1.7s1.8.6,2.8.6ZM738.1,109.6l1.3-4.6h3.9l-2.6,4.6h-2.6Z"/>
    <path d="M753.1,133.8v-22.4h4.2l9.5,15.4v-15.4h3.9v22.4h-4.2l-9.5-15.4v15.4h-3.9Z"/>
    <path d="M616.1,163v-22.4h14.1v3.9h-10.2v4.6h8.1v3.9h-8.1v6.2h10.2v3.9h-14.1Z"/>
    <path d="M633.7,163v-22.4h7.4c1.5,0,3,.3,4.4.9,1.4.6,2.5,1.4,3.6,2.4,1,1,1.8,2.2,2.4,3.6.6,1.4.9,2.8.9,4.4s-.3,3-.9,4.4c-.6,1.4-1.4,2.5-2.4,3.6s-2.2,1.8-3.6,2.4c-1.4.6-2.8.9-4.4.9h-7.4ZM637.7,159.1h3.5c1,0,1.9-.2,2.8-.6s1.7-.9,2.3-1.6c.7-.7,1.2-1.4,1.6-2.3s.6-1.8.6-2.8-.2-2-.6-2.8c-.4-.9-.9-1.7-1.6-2.3-.7-.7-1.4-1.2-2.3-1.6-.9-.4-1.8-.6-2.8-.6h-3.5v14.6Z"/>
    <path d="M655.5,163v-22.4h3.9v22.4h-3.9Z"/>
    <path d="M680.7,140.6v3.9h-6.9v18.5h-3.9v-18.5h-6.9v-3.9h17.6Z"/>
    <path d="M693.1,163.4c-1.5,0-2.9-.3-4.3-.9-1.3-.6-2.5-1.4-3.5-2.5-1-1.1-1.8-2.3-2.4-3.7-.6-1.4-.9-2.9-.9-4.5s.3-3.1.9-4.5c.6-1.4,1.4-2.6,2.4-3.7s2.2-1.9,3.5-2.5c1.3-.6,2.8-.9,4.3-.9s3,.3,4.3.9c1.3.6,2.5,1.4,3.5,2.5s1.8,2.3,2.4,3.7c.6,1.4.9,2.9.9,4.5s-.3,3.1-.9,4.5c-.6,1.4-1.4,2.6-2.4,3.7-1,1.1-2.2,1.9-3.5,2.5-1.3.6-2.8.9-4.3.9ZM693.1,159.5c1,0,1.9-.2,2.8-.6.9-.4,1.6-1,2.3-1.7s1.2-1.5,1.5-2.5c.4-.9.6-1.9.6-3s-.2-2.1-.6-3c-.4-.9-.9-1.8-1.5-2.5-.7-.7-1.4-1.3-2.3-1.7-.9-.4-1.8-.6-2.8-.6s-1.9.2-2.8.6c-.9.4-1.6,1-2.3,1.7-.7.7-1.2,1.5-1.5,2.5-.4.9-.6,1.9-.6,3s.2,2.1.6,3c.4.9.9,1.8,1.5,2.5.7.7,1.4,1.3,2.3,1.7s1.8.6,2.8.6Z"/>
    <path d="M707,163v-22.4h8.6c1.2,0,2.3.3,3.3.9,1,.6,1.8,1.4,2.3,2.4.6,1,.9,2.2.9,3.4s-.2,1.9-.6,2.8c-.4.8-.9,1.6-1.5,2.2-.7.6-1.4,1.1-2.3,1.4l5.4,9.3h-4.5l-5.2-8.9h-2.5v8.9h-3.9ZM711,150.2h4.2c.6,0,1.1-.1,1.5-.4.5-.3.8-.7,1.1-1.1.3-.5.4-1,.4-1.6s-.1-1.1-.4-1.6c-.3-.5-.6-.8-1.1-1.1-.5-.3-1-.4-1.5-.4h-4.2v6.2Z"/>
    <path d="M726.7,163v-22.4h3.9v22.4h-3.9Z"/>
    <path d="M742.4,140.6h4.5l8.2,22.4h-4.2l-1.4-4h-9.6l-1.4,4h-4.2l8.1-22.4ZM741.3,155.1h6.7l-3.4-9.3-3.4,9.3Z"/>
    <path d="M757.8,163v-22.4h3.9v18.5h9.3v3.9h-13.3Z"/>
  </g>
  <g>
    <path class="st13" d="M232,168.1c-3.8,0-7.4-.8-10.7-2.3-3.3-1.5-6.3-3.6-8.8-6.3-2.5-2.7-4.5-5.8-6-9.3-1.4-3.5-2.2-7.3-2.2-11.3s.7-7.8,2.2-11.3c1.4-3.5,3.4-6.6,6-9.3,2.5-2.7,5.5-4.8,8.8-6.3,3.3-1.5,6.9-2.3,10.7-2.3s7.4.8,10.8,2.3c3.3,1.5,6.3,3.6,8.8,6.3,2.5,2.7,4.5,5.8,6,9.3,1.4,3.5,2.1,7.3,2.1,11.3s-.7,7.8-2.1,11.3c-1.4,3.5-3.4,6.6-6,9.3-2.5,2.7-5.5,4.8-8.8,6.3-3.3,1.5-6.9,2.3-10.8,2.3ZM232,158.3c2.5,0,4.8-.5,6.9-1.5,2.2-1,4.1-2.4,5.7-4.2,1.6-1.8,2.9-3.8,3.9-6.2.9-2.3,1.4-4.8,1.4-7.5s-.5-5.1-1.4-7.5c-.9-2.3-2.2-4.4-3.9-6.2-1.6-1.8-3.5-3.2-5.7-4.2-2.2-1-4.5-1.5-6.9-1.5s-4.8.5-6.9,1.5c-2.2,1-4.1,2.4-5.7,4.2-1.6,1.8-2.9,3.8-3.9,6.2-.9,2.3-1.4,4.8-1.4,7.5s.5,5.2,1.4,7.5c.9,2.3,2.2,4.4,3.9,6.2,1.6,1.8,3.5,3.2,5.7,4.2,2.2,1,4.5,1.5,6.9,1.5Z"/>
    <path class="st13" d="M271.1,168.1c-2.1,0-4.1-.3-6-1-2-.7-3.8-1.7-5.4-3.1l6.3-7.5c.6.5,1.3.9,2.2,1.3.9.4,1.8.6,3,.6s2.8-.4,4-1.1c1.2-.8,2.2-1.8,2.9-3,.7-1.2,1.1-2.6,1.1-4.1v-39.2h9.8v39.2c0,3.3-.8,6.3-2.4,9-1.6,2.7-3.8,4.9-6.5,6.5s-5.7,2.5-9,2.5Z"/>
    <path class="st13" d="M318.8,168.1c-3.1,0-6.1-.5-8.9-1.5s-5.3-2.4-7.5-4.2c-2.1-1.8-3.7-4-4.6-6.6l9.2-3.4c.4,1.1,1.1,2,2.3,2.9,1.2.9,2.6,1.6,4.2,2.1,1.7.5,3.4.8,5.3.8s3.8-.3,5.5-.9c1.7-.6,3.1-1.4,4.1-2.5s1.6-2.3,1.6-3.8-.5-2.7-1.6-3.6c-1.1-.9-2.5-1.7-4.2-2.3-1.7-.6-3.5-1-5.3-1.3-4-.6-7.6-1.6-10.7-2.9-3.2-1.3-5.7-3.1-7.5-5.3-1.8-2.3-2.8-5.2-2.8-8.8s1-6.4,2.9-8.9c2-2.5,4.5-4.5,7.7-5.9,3.2-1.4,6.6-2.1,10.3-2.1s6,.5,8.9,1.4c2.9,1,5.4,2.4,7.5,4.2,2.2,1.8,3.7,4.1,4.6,6.7l-9.2,3.3c-.4-1.1-1.1-2-2.3-2.9-1.2-.9-2.6-1.6-4.2-2.1-1.7-.5-3.4-.8-5.3-.8-1.9,0-3.7.3-5.4.9-1.7.6-3.1,1.5-4.2,2.5s-1.6,2.3-1.6,3.7.5,3.1,1.5,4.1c1,.9,2.3,1.6,4,2,1.7.4,3.6.8,5.6,1.1,3.7.6,7.2,1.6,10.4,3,3.2,1.4,5.7,3.2,7.7,5.6,1.9,2.3,2.9,5.1,2.9,8.5s-1,6.4-2.9,8.9c-1.9,2.6-4.5,4.5-7.7,6-3.2,1.4-6.7,2.1-10.4,2.1Z"/>
    <path class="st13" d="M373.2,110.9l-16.3,60.7h-9.8l16.3-60.7h9.8Z"/>
    <path class="st13" d="M407.3,168.1c-3.8,0-7.4-.8-10.7-2.3-3.3-1.5-6.3-3.6-8.8-6.3-2.5-2.7-4.5-5.8-6-9.3-1.4-3.5-2.2-7.3-2.2-11.3s.7-7.8,2.2-11.3c1.4-3.5,3.4-6.6,6-9.3,2.5-2.7,5.5-4.8,8.8-6.3,3.3-1.5,6.9-2.3,10.7-2.3s7.4.8,10.8,2.3c3.3,1.5,6.3,3.6,8.8,6.3,2.5,2.7,4.5,5.8,6,9.3,1.4,3.5,2.1,7.3,2.1,11.3s-.7,7.8-2.1,11.3c-1.4,3.5-3.4,6.6-6,9.3-2.5,2.7-5.5,4.8-8.8,6.3-3.3,1.5-6.9,2.3-10.8,2.3ZM407.3,158.3c2.5,0,4.8-.5,6.9-1.5,2.2-1,4.1-2.4,5.7-4.2,1.6-1.8,2.9-3.8,3.9-6.2.9-2.3,1.4-4.8,1.4-7.5s-.5-5.1-1.4-7.5c-.9-2.3-2.2-4.4-3.9-6.2-1.6-1.8-3.5-3.2-5.7-4.2-2.2-1-4.5-1.5-6.9-1.5s-4.8.5-6.9,1.5c-2.2,1-4.1,2.4-5.7,4.2-1.6,1.8-2.9,3.8-3.9,6.2-.9,2.3-1.4,4.8-1.4,7.5s.5,5.2,1.4,7.5c.9,2.3,2.2,4.4,3.9,6.2,1.6,1.8,3.5,3.2,5.7,4.2,2.2,1,4.5,1.5,6.9,1.5Z"/>
    <path class="st13" d="M440.3,167.1l10.9-56.2h8.1l13.7,36,13.7-36h8.1l10.9,56.2h-10l-6.7-34.8-12.6,33.5h-6.7l-12.6-33.5-6.7,34.8h-10Z"/>
    <path class="st13" d="M513.8,167.1v-56.2h20.1c3.1,0,5.8.8,8.3,2.3s4.4,3.6,5.9,6.1,2.2,5.4,2.2,8.5-.7,6-2.2,8.6c-1.5,2.6-3.5,4.6-6,6.1-2.5,1.5-5.2,2.3-8.1,2.3h-10.3v22.4h-9.8ZM523.6,134.9h9.2c1.4,0,2.7-.3,3.8-1,1.2-.7,2.1-1.6,2.8-2.8.7-1.2,1-2.5,1-3.9s-.3-2.8-1-4c-.7-1.2-1.6-2.1-2.8-2.8-1.2-.7-2.4-1-3.8-1h-9.2v15.6Z"/>
  </g>
  <rect x="584.8" y="105.2" width="1.5" height="68.2"/>
  <path class="st11" d="M205,404.7c-14.4,0-28.9.1-43.3.2-5.3-13.3-10.7-26.5-16-39.8"/>
  <path class="st11" d="M249.9,616.3c-14.4,0-28.9.1-43.3.2-5.3-13.3-10.7-26.5-16-39.8"/>
  <path class="st11" d="M285.2,932.7c-14.4,0-28.9.1-43.3.2-5.3-13.3-10.7-26.5-16-39.8"/>
  <path class="st11" d="M248.6,1090.4c-14.4,0-28.9.1-43.3.2-5.3-13.3-10.7-26.5-16-39.8"/>
  <g>
    <path d="M76.1,256.4c-1.5,0-2.7-.4-3.8-1.1-1.1-.7-1.9-1.7-2.5-2.9-.6-1.2-.9-2.5-.9-4v-10.6h2.2v10.6c0,1,.2,2,.6,2.9.4.9.9,1.6,1.7,2.1s1.6.8,2.7.8,2-.3,2.7-.8,1.3-1.2,1.7-2.1.6-1.8.6-2.9v-10.6h2.2v10.6c0,1.1-.2,2.1-.5,3.1-.3,1-.8,1.8-1.4,2.5s-1.4,1.3-2.2,1.7c-.9.4-1.9.6-3,.6Z"/>
    <path d="M93.1,245.2h-3v10.8h-2.2v-10.8s-2.2,0-2.2,0v-2.2h2.2v-4.1s2.2,0,2.2,0v4.1h3v2.2Z"/>
    <path d="M96.4,240.9c-.3,0-.6-.1-.9-.3-.2-.2-.4-.5-.4-.8s.1-.6.4-.8c.2-.2.5-.3.9-.3s.6.1.9.3c.2.2.4.5.4.8s-.1.6-.3.8c-.2.2-.5.3-.9.3ZM95.3,243h2.2v13h-2.2v-13Z"/>
    <path d="M100.6,256v-19.5h2.2v19.5h-2.2Z"/>
    <path d="M107.1,240.9c-.3,0-.6-.1-.9-.3-.2-.2-.4-.5-.4-.8s.1-.6.4-.8c.2-.2.5-.3.9-.3s.6.1.9.3c.2.2.4.5.4.8s-.1.6-.3.8c-.2.2-.5.3-.9.3ZM106,243h2.2v13h-2.2v-13Z"/>
    <path d="M121.8,245.2l-8,8.6h8v2.2h-11.1v-2.2l8-8.6h-8v-2.2h11.1v2.2Z"/>
    <path d="M134.7,243h2.2v13h-2.2v-2.2c-.5.8-1.1,1.4-1.8,1.8-.7.5-1.6.7-2.6.7s-1.8-.2-2.7-.5c-.8-.4-1.6-.9-2.2-1.5-.6-.6-1.1-1.4-1.5-2.2s-.5-1.7-.5-2.7.2-1.8.5-2.6.8-1.5,1.4-2.2,1.3-1.1,2.2-1.5,1.7-.5,2.6-.5,1.9.2,2.7.7,1.4,1.1,1.9,1.9v-2.2ZM130.4,254.3c.9,0,1.6-.2,2.2-.6.6-.4,1.1-1,1.5-1.7.3-.7.5-1.5.5-2.4s-.2-1.7-.5-2.4c-.3-.7-.8-1.3-1.5-1.7s-1.4-.6-2.2-.6-1.6.2-2.3.6c-.7.4-1.3,1-1.7,1.7-.4.7-.6,1.5-.6,2.4s.2,1.7.6,2.4c.4.7,1,1.3,1.7,1.7.7.4,1.5.6,2.3.6Z"/>
    <path d="M154.2,256.4c-1.2,0-2.4-.2-3.5-.7-1.1-.5-2-1.2-2.9-2-.8-.9-1.5-1.9-1.9-3-.5-1.1-.7-2.4-.7-3.7s.2-2.5.7-3.7c.5-1.1,1.1-2.1,1.9-3,.8-.9,1.8-1.5,2.9-2,1.1-.5,2.2-.7,3.5-.7s2.4.2,3.5.7c1.1.5,2,1.2,2.9,2s1.5,1.9,1.9,3c.5,1.1.7,2.4.7,3.7s-.2,2.5-.7,3.7c-.5,1.1-1.1,2.1-1.9,3-.8.9-1.8,1.5-2.9,2-1.1.5-2.2.7-3.5.7ZM154.2,254.2c.9,0,1.8-.2,2.6-.6.8-.4,1.5-.9,2.2-1.6.6-.7,1.1-1.4,1.5-2.3s.5-1.8.5-2.8-.2-1.9-.5-2.8c-.4-.9-.8-1.7-1.5-2.3-.6-.7-1.3-1.2-2.2-1.6-.8-.4-1.7-.6-2.6-.6s-1.8.2-2.6.6c-.8.4-1.5.9-2.2,1.6-.6.7-1.1,1.4-1.5,2.3-.4.9-.5,1.8-.5,2.8s.2,1.9.5,2.8.8,1.6,1.5,2.3c.6.7,1.3,1.2,2.2,1.6s1.7.6,2.6.6Z"/>
    <path d="M166.8,256.4c-.6,0-1.2-.1-1.8-.3-.6-.2-1.1-.5-1.6-.9l1.4-1.7c.3.2.5.4.9.5.3.1.7.2,1.1.2.6,0,1.1-.2,1.6-.5.5-.3.8-.7,1.1-1.2s.4-1,.4-1.6v-13.1h2.2v13.1c0,1-.2,1.9-.7,2.7s-1.1,1.5-1.9,2-1.7.8-2.7.8Z"/>
    <path d="M181.7,256.4c-1,0-1.9-.2-2.8-.5-.9-.3-1.7-.7-2.4-1.3-.7-.6-1.2-1.3-1.4-2l2-.8c.2.5.5.9,1,1.3.5.4,1,.6,1.7.8.6.2,1.3.3,2,.3s1.5-.1,2.2-.4c.7-.3,1.2-.6,1.6-1.1.4-.5.6-1,.6-1.6s-.2-1.2-.6-1.6c-.4-.4-1-.7-1.7-1-.7-.2-1.4-.4-2.1-.6-1.3-.2-2.4-.5-3.4-.9-1-.4-1.8-.9-2.4-1.6-.6-.7-.9-1.6-.9-2.7s.3-2,.9-2.8,1.4-1.4,2.4-1.8c1-.4,2.1-.6,3.2-.6s1.9.1,2.8.4c.9.3,1.7.7,2.4,1.3.7.6,1.2,1.3,1.5,2.1l-2.1.8c-.2-.5-.5-.9-1-1.3-.5-.4-1-.6-1.7-.8-.6-.2-1.3-.3-2-.3-.8,0-1.5.1-2.2.4-.7.3-1.2.6-1.6,1.1s-.6,1-.6,1.6.2,1.3.6,1.7c.4.4.9.7,1.6.9.7.2,1.4.4,2.2.5,1.2.2,2.3.5,3.3.9s1.8,1,2.4,1.7c.6.7.9,1.6.9,2.6s-.3,2-.9,2.8-1.4,1.4-2.4,1.8-2.1.6-3.3.6Z"/>
    <path d="M196.9,251.1v-8.1h2.2v7.6c0,.7.2,1.3.5,1.8.3.5.8,1,1.3,1.3.5.3,1.1.5,1.8.5s1.3-.2,1.8-.5c.5-.3,1-.7,1.3-1.3.3-.5.5-1.1.5-1.8v-7.6h2.2v13s-2.2,0-2.2,0v-1.7c-.5.6-1.1,1.1-1.8,1.4-.7.4-1.5.5-2.3.5s-1.9-.2-2.7-.7c-.8-.5-1.4-1.1-1.9-1.9-.5-.8-.7-1.7-.7-2.7Z"/>
    <path d="M75.8,281.4c-1.2,0-2.4-.2-3.5-.7-1.1-.5-2-1.2-2.9-2-.8-.9-1.5-1.9-1.9-3-.5-1.1-.7-2.4-.7-3.7s.2-2.5.7-3.7c.5-1.1,1.1-2.1,1.9-3,.8-.9,1.8-1.5,2.9-2,1.1-.5,2.2-.7,3.5-.7s2.4.2,3.5.7c1.1.5,2,1.2,2.9,2s1.5,1.9,1.9,3c.5,1.1.7,2.4.7,3.7s-.2,2.5-.7,3.7c-.5,1.1-1.1,2.1-1.9,3-.8.9-1.8,1.5-2.9,2-1.1.5-2.2.7-3.5.7ZM75.8,279.2c.9,0,1.8-.2,2.6-.6.8-.4,1.5-.9,2.2-1.6.6-.7,1.1-1.4,1.5-2.3s.5-1.8.5-2.8-.2-1.9-.5-2.8c-.4-.9-.8-1.7-1.5-2.3-.6-.7-1.3-1.2-2.2-1.6-.8-.4-1.7-.6-2.6-.6s-1.8.2-2.6.6c-.8.4-1.5.9-2.2,1.6-.6.7-1.1,1.4-1.5,2.3-.4.9-.5,1.8-.5,2.8s.2,1.9.5,2.8.8,1.6,1.5,2.3c.6.7,1.3,1.2,2.2,1.6s1.7.6,2.6.6Z"/>
    <path d="M86.8,281l3.5-18.2h1.7l4.9,12.9,4.9-12.9h1.7l3.5,18.2h-2.2l-2.6-13.2-4.6,12.2h-1.4l-4.6-12.2-2.5,13.2h-2.2Z"/>
    <path d="M109.7,281v-18.2h6c1,0,1.9.2,2.6.7s1.4,1.1,1.9,1.9c.5.8.7,1.7.7,2.7s-.2,1.9-.7,2.7c-.5.8-1.1,1.5-1.9,1.9-.8.5-1.7.7-2.6.7h-3.8v7.5h-2.2ZM111.9,271.4h3.6c.6,0,1.1-.1,1.6-.4.5-.3.9-.7,1.2-1.2.3-.5.4-1.1.4-1.7s-.1-1.2-.4-1.7c-.3-.5-.7-.9-1.2-1.2-.5-.3-1-.4-1.6-.4h-3.6v6.6Z"/>
    <path d="M132,287.5h-2.2v-19.5h2.2v2.2c.4-.8,1-1.4,1.8-1.9.7-.5,1.6-.7,2.6-.7s1.8.2,2.7.5c.8.4,1.6.8,2.2,1.5s1.1,1.4,1.5,2.2.5,1.7.5,2.7-.2,1.8-.5,2.7-.8,1.6-1.5,2.2-1.4,1.1-2.2,1.5c-.8.4-1.7.5-2.7.5s-1.9-.2-2.6-.7c-.7-.5-1.3-1.1-1.8-1.9v8.7ZM136.4,269.8c-.8,0-1.6.2-2.2.6-.6.4-1.1,1-1.5,1.7s-.5,1.5-.5,2.4.2,1.7.5,2.4c.3.7.8,1.3,1.5,1.7.6.4,1.4.6,2.2.6s1.6-.2,2.3-.6c.7-.4,1.3-1,1.7-1.7.4-.7.6-1.5.6-2.4s-.2-1.7-.6-2.4-1-1.3-1.7-1.7c-.7-.4-1.5-.6-2.3-.6Z"/>
    <path d="M155.8,268h2.2v13h-2.2v-2.2c-.5.8-1.1,1.4-1.8,1.8-.7.5-1.6.7-2.6.7s-1.8-.2-2.7-.5c-.8-.4-1.6-.9-2.2-1.5-.6-.6-1.1-1.4-1.5-2.2s-.5-1.7-.5-2.7.2-1.8.5-2.6.8-1.5,1.4-2.2,1.3-1.1,2.2-1.5,1.7-.5,2.6-.5,1.9.2,2.7.7,1.4,1.1,1.9,1.9v-2.2ZM151.4,279.3c.9,0,1.6-.2,2.2-.6.6-.4,1.1-1,1.5-1.7.3-.7.5-1.5.5-2.4s-.2-1.7-.5-2.4c-.3-.7-.8-1.3-1.5-1.7s-1.4-.6-2.2-.6-1.6.2-2.3.6c-.7.4-1.3,1-1.7,1.7-.4.7-.6,1.5-.6,2.4s.2,1.7.6,2.4c.4.7,1,1.3,1.7,1.7.7.4,1.5.6,2.3.6Z"/>
    <path d="M160.5,281v-13h2.2v1.6c.5-.6,1-1.1,1.7-1.4.7-.4,1.5-.5,2.3-.5s1,0,1.5.2l-.9,2.2c-.4-.1-.7-.2-1-.2-.7,0-1.2.2-1.8.5-.5.3-1,.7-1.3,1.3-.3.5-.5,1.1-.5,1.8v7.6h-2.2Z"/>
    <path d="M179.6,268h2.2v13h-2.2v-2.2c-.5.8-1.1,1.4-1.8,1.8-.7.5-1.6.7-2.6.7s-1.8-.2-2.7-.5c-.8-.4-1.6-.9-2.2-1.5-.6-.6-1.1-1.4-1.5-2.2s-.5-1.7-.5-2.7.2-1.8.5-2.6.8-1.5,1.4-2.2,1.3-1.1,2.2-1.5,1.7-.5,2.6-.5,1.9.2,2.7.7,1.4,1.1,1.9,1.9v-2.2ZM175.2,279.3c.9,0,1.6-.2,2.2-.6.6-.4,1.1-1,1.5-1.7.3-.7.5-1.5.5-2.4s-.2-1.7-.5-2.4c-.3-.7-.8-1.3-1.5-1.7s-1.4-.6-2.2-.6-1.6.2-2.3.6c-.7.4-1.3,1-1.7,1.7-.4.7-.6,1.5-.6,2.4s.2,1.7.6,2.4c.4.7,1,1.3,1.7,1.7.7.4,1.5.6,2.3.6Z"/>
    <path d="M190.6,281v-19.5h2.2v19.5h-2.2Z"/>
    <path d="M206.2,268h2.2v13h-2.2v-2.2c-.5.8-1.1,1.4-1.8,1.8-.7.5-1.6.7-2.6.7s-1.8-.2-2.7-.5c-.8-.4-1.6-.9-2.2-1.5-.6-.6-1.1-1.4-1.5-2.2s-.5-1.7-.5-2.7.2-1.8.5-2.6.8-1.5,1.4-2.2,1.3-1.1,2.2-1.5,1.7-.5,2.6-.5,1.9.2,2.7.7,1.4,1.1,1.9,1.9v-2.2ZM201.9,279.3c.9,0,1.6-.2,2.2-.6.6-.4,1.1-1,1.5-1.7.3-.7.5-1.5.5-2.4s-.2-1.7-.5-2.4c-.3-.7-.8-1.3-1.5-1.7s-1.4-.6-2.2-.6-1.6.2-2.3.6c-.7.4-1.3,1-1.7,1.7-.4.7-.6,1.5-.6,2.4s.2,1.7.6,2.4c.4.7,1,1.3,1.7,1.7.7.4,1.5.6,2.3.6Z"/>
    <path d="M61.2,293h2.2v13.4c0,.9-.2,1.7-.6,2.4-.4.7-.9,1.4-1.5,1.9s-1.3,1-2.1,1.3-1.6.5-2.5.5-1.8-.2-2.6-.6c-.8-.4-1.6-.9-2.2-1.6-.6-.7-1.1-1.4-1.4-2.3l2-.9c.2.6.5,1.1.9,1.6.4.5.9.9,1.5,1.1.6.3,1.2.4,1.8.4s1.1-.1,1.7-.3c.5-.2,1-.5,1.4-.8.4-.4.8-.8,1-1.2.2-.5.4-1,.4-1.5v-2.6c-.4.7-1,1.4-1.7,1.8s-1.6.7-2.5.7-1.8-.2-2.6-.5c-.8-.4-1.5-.8-2.1-1.5-.6-.6-1.1-1.4-1.4-2.2-.3-.8-.5-1.7-.5-2.7s.2-1.8.5-2.7c.3-.8.8-1.6,1.4-2.2.6-.6,1.3-1.1,2.1-1.5.8-.4,1.7-.5,2.6-.5s1.8.2,2.5.7c.7.5,1.3,1.1,1.7,1.8v-2.2ZM56.9,304.3c.8,0,1.6-.2,2.2-.7.6-.4,1.1-1,1.4-1.7.3-.7.5-1.5.5-2.3s-.2-1.7-.5-2.4-.8-1.3-1.4-1.7c-.6-.4-1.3-.6-2.2-.6s-1.6.2-2.2.6c-.7.4-1.2,1-1.6,1.7-.4.7-.6,1.5-.6,2.4s.2,1.7.6,2.4c.4.7.9,1.3,1.6,1.7.7.4,1.4.6,2.2.6Z"/>
    <path d="M72.1,306.4c-1.2,0-2.3-.3-3.3-.9-1-.6-1.8-1.4-2.4-2.5-.6-1-.9-2.2-.9-3.4s.2-1.8.5-2.7.8-1.6,1.4-2.2c.6-.6,1.3-1.1,2.1-1.5.8-.4,1.6-.5,2.5-.5s1.9.2,2.7.6,1.5.9,2.1,1.6,1,1.5,1.3,2.4c.3.9.4,1.9.3,3h-10.6c.1.7.3,1.4.7,2,.4.6.9,1,1.5,1.4.6.3,1.3.5,2,.5.8,0,1.5-.2,2.1-.6.6-.4,1.1-1,1.5-1.7l2.2.5c-.5,1.2-1.3,2.1-2.4,2.8-1,.7-2.2,1.1-3.5,1.1ZM67.8,298.6h8.5c0-.7-.3-1.4-.7-2s-.9-1.1-1.5-1.4c-.6-.4-1.3-.5-2-.5s-1.4.2-2,.5c-.6.4-1.1.8-1.5,1.4s-.6,1.3-.7,2Z"/>
    <path d="M84.7,306.3c-.7,0-1.4-.2-2-.4s-1.2-.6-1.7-1-.9-.9-1.1-1.4l1.9-.8c.1.3.4.6.7.8.3.3.7.5,1.2.6.4.2.9.2,1.3.2s.9,0,1.3-.2.8-.4,1-.7c.3-.3.4-.6.4-1s-.1-.8-.4-1c-.3-.2-.7-.4-1.1-.6s-.9-.3-1.3-.4c-.9-.2-1.7-.5-2.4-.8-.7-.3-1.3-.7-1.7-1.2-.4-.5-.6-1.1-.6-1.9s.2-1.5.7-2.1c.4-.6,1-1,1.8-1.4.7-.3,1.5-.5,2.3-.5s2,.2,2.9.7c.9.5,1.5,1.1,1.9,1.8l-1.8,1c-.1-.3-.4-.6-.7-.8-.3-.2-.6-.4-1-.6s-.8-.2-1.2-.2c-.5,0-1,0-1.4.2-.4.1-.8.4-1.1.7-.3.3-.4.7-.4,1.1s.1.8.4,1c.3.2.6.4,1.1.5.5.1,1,.3,1.5.5.8.3,1.5.5,2.2.9.7.3,1.2.7,1.7,1.2.4.5.6,1.1.6,1.8,0,.8-.2,1.5-.7,2.1s-1.1,1-1.9,1.4-1.6.5-2.4.4Z"/>
    <path d="M98.7,295.2h-3v10.8h-2.2v-10.8s-2.2,0-2.2,0v-2.2h2.2v-4.1s2.2,0,2.2,0v4.1h3v2.2Z"/>
    <path d="M102,290.9c-.3,0-.6-.1-.9-.3-.2-.2-.4-.5-.4-.8s.1-.6.4-.8c.2-.2.5-.3.9-.3s.6.1.9.3c.2.2.4.5.4.8s-.1.6-.3.8c-.2.2-.5.3-.9.3ZM100.9,293h2.2v13h-2.2v-13Z"/>
    <path d="M111.8,306.4c-1.2,0-2.3-.3-3.3-.9-1-.6-1.8-1.4-2.4-2.5-.6-1-.9-2.2-.9-3.4s.2-1.8.5-2.7.8-1.6,1.4-2.2c.6-.6,1.3-1.1,2.1-1.5.8-.4,1.6-.5,2.5-.5s2.3.3,3.3.9c1,.6,1.8,1.4,2.4,2.5s.9,2.2.9,3.5-.2,1.8-.5,2.7c-.3.8-.8,1.5-1.4,2.2s-1.3,1.1-2.1,1.5c-.8.4-1.6.5-2.5.5ZM111.8,304.2c.8,0,1.5-.2,2.2-.6.7-.4,1.2-1,1.5-1.7.4-.7.6-1.5.6-2.3s-.2-1.6-.6-2.3c-.4-.7-.9-1.3-1.6-1.7s-1.4-.6-2.2-.6-1.5.2-2.2.6c-.6.4-1.2,1-1.5,1.7-.4.7-.6,1.5-.6,2.3s.2,1.7.6,2.4c.4.7.9,1.3,1.6,1.7s1.4.6,2.2.6ZM111.2,291.6l1-3.7h2.2l-1.8,3.7h-1.5Z"/>
    <path d="M131.9,298v8.1h-2.2v-7.6c0-.7-.2-1.3-.5-1.8-.3-.5-.8-1-1.3-1.3-.5-.3-1.1-.5-1.8-.5s-1.2.2-1.8.5c-.5.3-1,.7-1.3,1.3-.3.5-.5,1.1-.5,1.8v7.6h-2.2v-13h2.2v1.6c.5-.6,1-1.1,1.7-1.4.7-.4,1.5-.5,2.3-.5s1.9.2,2.7.7c.8.5,1.4,1.1,1.9,1.9.5.8.7,1.7.7,2.7Z"/>
    <path d="M151.2,286.5h2.2v19.5h-2.2v-2.2c-.4.8-1,1.4-1.8,1.8-.7.5-1.6.7-2.6.7s-1.8-.2-2.7-.5c-.8-.4-1.5-.8-2.2-1.5s-1.1-1.4-1.5-2.2c-.4-.8-.5-1.7-.5-2.7s.2-1.8.5-2.7c.4-.8.8-1.6,1.5-2.2s1.4-1.1,2.2-1.5,1.7-.5,2.7-.5,1.9.2,2.6.7c.7.5,1.3,1.1,1.8,1.8v-8.7ZM146.8,304.3c.9,0,1.6-.2,2.2-.6.6-.4,1.1-1,1.5-1.7.3-.7.5-1.5.5-2.4s-.2-1.7-.5-2.4c-.3-.7-.8-1.3-1.5-1.7s-1.4-.6-2.2-.6-1.6.2-2.3.6c-.7.4-1.3,1-1.7,1.7-.4.7-.6,1.5-.6,2.4s.2,1.7.6,2.4c.4.7,1,1.3,1.7,1.7.7.4,1.5.6,2.3.6Z"/>
    <path d="M162.1,306.4c-1.2,0-2.3-.3-3.3-.9-1-.6-1.8-1.4-2.4-2.5-.6-1-.9-2.2-.9-3.4s.2-1.8.5-2.7.8-1.6,1.4-2.2c.6-.6,1.3-1.1,2.1-1.5.8-.4,1.6-.5,2.5-.5s1.9.2,2.7.6,1.5.9,2.1,1.6,1,1.5,1.3,2.4c.3.9.4,1.9.3,3h-10.6c.1.7.3,1.4.7,2,.4.6.9,1,1.5,1.4.6.3,1.3.5,2,.5.8,0,1.5-.2,2.1-.6.6-.4,1.1-1,1.5-1.7l2.2.5c-.5,1.2-1.3,2.1-2.4,2.8-1,.7-2.2,1.1-3.5,1.1ZM157.9,298.6h8.5c0-.7-.3-1.4-.7-2s-.9-1.1-1.5-1.4c-.6-.4-1.3-.5-2-.5s-1.4.2-2,.5c-.6.4-1.1.8-1.5,1.4s-.6,1.3-.7,2Z"/>
    <path d="M183.9,295.2h-3v10.8h-2.2v-10.8s-2.2,0-2.2,0v-2.2h2.2v-4.1s2.2,0,2.2,0v4.1h3v2.2Z"/>
    <path d="M185.7,301.1v-8.1h2.2v7.6c0,.7.2,1.3.5,1.8.3.5.8,1,1.3,1.3.5.3,1.1.5,1.8.5s1.3-.2,1.8-.5c.5-.3,1-.7,1.3-1.3.3-.5.5-1.1.5-1.8v-7.6h2.2v13s-2.2,0-2.2,0v-1.7c-.5.6-1.1,1.1-1.8,1.4-.7.4-1.5.5-2.3.5s-1.9-.2-2.7-.7c-.8-.5-1.4-1.1-1.9-1.9-.5-.8-.7-1.7-.7-2.7Z"/>
    <path d="M203.8,306.3c-.7,0-1.4-.2-2-.4s-1.2-.6-1.7-1-.9-.9-1.1-1.4l1.9-.8c.1.3.4.6.7.8.3.3.7.5,1.2.6.4.2.9.2,1.3.2s.9,0,1.3-.2.8-.4,1-.7c.3-.3.4-.6.4-1s-.1-.8-.4-1c-.3-.2-.7-.4-1.1-.6s-.9-.3-1.3-.4c-.9-.2-1.7-.5-2.4-.8-.7-.3-1.3-.7-1.7-1.2-.4-.5-.6-1.1-.6-1.9s.2-1.5.7-2.1c.4-.6,1-1,1.8-1.4.7-.3,1.5-.5,2.3-.5s2,.2,2.9.7c.9.5,1.5,1.1,1.9,1.8l-1.8,1c-.1-.3-.4-.6-.7-.8-.3-.2-.6-.4-1-.6s-.8-.2-1.2-.2c-.5,0-1,0-1.4.2-.4.1-.8.4-1.1.7-.3.3-.4.7-.4,1.1s.1.8.4,1c.3.2.6.4,1.1.5.5.1,1,.3,1.5.5.8.3,1.5.5,2.2.9.7.3,1.2.7,1.7,1.2.4.5.6,1.1.6,1.8,0,.8-.2,1.5-.7,2.1s-1.1,1-1.9,1.4-1.6.5-2.4.4Z"/>
    <path d="M111.1,337.5h-3.2v-19.5h3.2v1.7c.4-.6.9-1.1,1.6-1.4.6-.4,1.3-.6,2.2-.6s1.8.2,2.7.5c.8.4,1.5.8,2.2,1.5s1.1,1.4,1.5,2.2.5,1.7.5,2.7-.2,1.8-.5,2.7-.8,1.6-1.5,2.2-1.4,1.1-2.2,1.5c-.8.4-1.7.5-2.7.5s-1.6-.2-2.2-.6-1.1-.8-1.6-1.4v8.1ZM114.8,320.8c-.7,0-1.2.2-1.8.5s-.9.8-1.2,1.4c-.3.6-.4,1.2-.4,1.9s.1,1.3.4,1.9c.3.6.7,1,1.2,1.4s1.1.5,1.8.5,1.3-.2,1.8-.5,1-.8,1.3-1.4c.3-.6.5-1.2.5-1.9s-.2-1.3-.5-1.9c-.3-.6-.8-1-1.3-1.4s-1.2-.5-1.8-.5Z"/>
    <path d="M123.7,331v-13s3.2,0,3.2,0v1.2c.5-.5,1-.8,1.6-1.1.6-.3,1.3-.4,2-.4s1,0,1.4.2l-1.2,3.2c-.3-.1-.7-.2-1-.2-.5,0-1,.1-1.4.4-.4.2-.8.6-1,1-.2.4-.4.9-.4,1.4v7.4h-3.2Z"/>
    <path d="M138.5,331.4c-1.2,0-2.3-.3-3.3-.9-1-.6-1.8-1.4-2.4-2.5-.6-1-.9-2.2-.9-3.4s.2-1.8.5-2.7.8-1.6,1.4-2.2c.6-.6,1.3-1.1,2.1-1.5.8-.4,1.6-.5,2.5-.5s2.3.3,3.3.9c1,.6,1.8,1.4,2.4,2.5s.9,2.2.9,3.5-.2,1.8-.5,2.7c-.3.8-.8,1.5-1.4,2.2s-1.3,1.1-2.1,1.5c-.8.4-1.6.5-2.5.5ZM138.5,328.2c.6,0,1.2-.2,1.7-.5.5-.3.9-.8,1.2-1.3.3-.6.4-1.2.4-1.8s-.1-1.3-.4-1.9c-.3-.6-.7-1-1.2-1.3-.5-.3-1.1-.5-1.7-.5s-1.2.2-1.7.5c-.5.3-.9.8-1.2,1.4-.3.6-.4,1.2-.4,1.8s.2,1.3.5,1.9c.3.6.7,1,1.2,1.3.5.3,1.1.5,1.7.5Z"/>
    <path d="M155.1,327.1l2.9,1.5c-.6.8-1.3,1.5-2.2,2-.9.5-1.9.7-3,.7s-2.3-.3-3.3-.9c-1-.6-1.8-1.4-2.4-2.5-.6-1-.9-2.2-.9-3.4s.2-1.8.5-2.7.8-1.6,1.4-2.2c.6-.6,1.3-1.1,2.1-1.5.8-.4,1.6-.5,2.5-.5s2,.2,3,.7,1.7,1.2,2.2,2l-2.9,1.5c-.3-.3-.7-.6-1.1-.8-.4-.2-.8-.3-1.3-.3-.6,0-1.2.2-1.7.5-.5.3-.9.8-1.2,1.4-.3.6-.4,1.2-.4,1.8s.1,1.3.4,1.8c.3.6.7,1,1.2,1.3.5.3,1.1.5,1.7.5s.9,0,1.3-.3.8-.5,1.1-.8Z"/>
    <path d="M165.6,331.4c-1.2,0-2.3-.3-3.3-.9-1-.6-1.8-1.4-2.4-2.5-.6-1-.9-2.2-.9-3.4s.2-1.8.5-2.7.8-1.6,1.4-2.2c.6-.6,1.3-1.1,2.1-1.5.8-.4,1.6-.5,2.5-.5s1.9.2,2.8.6c.8.4,1.6,1,2.2,1.8.6.7,1,1.6,1.3,2.5.3,1,.3,2,.2,3h-9.5c.1.5.3.9.6,1.3.3.4.6.7,1.1.9s.9.3,1.4.4c.6,0,1.1-.1,1.5-.4s.8-.6,1.1-1.1l3.2.8c-.5,1.2-1.3,2.1-2.4,2.8-1,.7-2.2,1.1-3.5,1.1ZM162.4,323.2h6.4c0-.5-.3-1-.6-1.4s-.7-.8-1.1-1-.9-.4-1.5-.4-1,.1-1.4.4-.8.6-1.1,1c-.3.4-.5.9-.6,1.4Z"/>
    <path d="M178.1,331.3c-.7,0-1.3-.2-2-.4-.6-.2-1.2-.5-1.7-.9-.5-.4-.9-.9-1.1-1.4l2.7-1.1c.1.2.3.4.5.6.2.2.5.4.8.5.3.1.7.2,1.1.2s.6,0,.9-.1c.3,0,.5-.2.7-.4.2-.2.3-.4.3-.7s-.1-.6-.3-.7c-.2-.2-.5-.3-.8-.4-.3,0-.7-.2-1-.3-.8-.2-1.6-.4-2.3-.8-.7-.3-1.3-.8-1.7-1.3-.4-.6-.6-1.2-.6-2s.2-1.6.7-2.2,1-1.1,1.8-1.4c.7-.3,1.5-.5,2.4-.5s2,.2,2.8.6c.9.4,1.5,1,2,1.8l-2.5,1.5c-.1-.2-.3-.4-.5-.6-.2-.2-.5-.3-.7-.4-.3-.1-.6-.2-.9-.2-.4,0-.7,0-1.1.1-.3,0-.6.2-.8.4-.2.2-.3.5-.3.8s.1.6.4.7c.3.2.6.3.9.4.4,0,.7.2,1.1.3.8.3,1.5.6,2.2.9.7.4,1.2.8,1.6,1.3s.6,1.2.6,1.9c0,.8-.3,1.6-.8,2.2s-1.2,1.1-1.9,1.4c-.8.3-1.6.5-2.5.4Z"/>
    <path d="M191.1,331.4c-1.2,0-2.3-.3-3.3-.9-1-.6-1.8-1.4-2.4-2.5-.6-1-.9-2.2-.9-3.4s.2-1.8.5-2.7.8-1.6,1.4-2.2c.6-.6,1.3-1.1,2.1-1.5.8-.4,1.6-.5,2.5-.5s2.3.3,3.3.9c1,.6,1.8,1.4,2.4,2.5s.9,2.2.9,3.5-.2,1.8-.5,2.7c-.3.8-.8,1.5-1.4,2.2s-1.3,1.1-2.1,1.5c-.8.4-1.6.5-2.5.5ZM191.1,328.2c.6,0,1.2-.2,1.7-.5.5-.3.9-.8,1.2-1.3.3-.6.4-1.2.4-1.8s-.1-1.3-.4-1.9c-.3-.6-.7-1-1.2-1.3-.5-.3-1.1-.5-1.7-.5s-1.2.2-1.7.5c-.5.3-.9.8-1.2,1.4-.3.6-.4,1.2-.4,1.8s.2,1.3.5,1.9c.3.6.7,1,1.2,1.3.5.3,1.1.5,1.7.5Z"/>
    <path d="M203.6,331.3c-.7,0-1.3-.2-2-.4-.6-.2-1.2-.5-1.7-.9-.5-.4-.9-.9-1.1-1.4l2.7-1.1c.1.2.3.4.5.6.2.2.5.4.8.5.3.1.7.2,1.1.2s.6,0,.9-.1c.3,0,.5-.2.7-.4.2-.2.3-.4.3-.7s-.1-.6-.3-.7c-.2-.2-.5-.3-.8-.4-.3,0-.7-.2-1-.3-.8-.2-1.6-.4-2.3-.8-.7-.3-1.3-.8-1.7-1.3-.4-.6-.6-1.2-.6-2s.2-1.6.7-2.2,1-1.1,1.8-1.4c.7-.3,1.5-.5,2.4-.5s2,.2,2.8.6c.9.4,1.5,1,2,1.8l-2.5,1.5c-.1-.2-.3-.4-.5-.6-.2-.2-.5-.3-.7-.4-.3-.1-.6-.2-.9-.2-.4,0-.7,0-1.1.1-.3,0-.6.2-.8.4-.2.2-.3.5-.3.8s.1.6.4.7c.3.2.6.3.9.4.4,0,.7.2,1.1.3.8.3,1.5.6,2.2.9.7.4,1.2.8,1.6,1.3s.6,1.2.6,1.9c0,.8-.3,1.6-.8,2.2s-1.2,1.1-1.9,1.4c-.8.3-1.6.5-2.5.4Z"/>
    <path d="M93.8,356.4c-1.2,0-2.3-.3-3.3-.9-1-.6-1.8-1.4-2.4-2.5-.6-1-.9-2.2-.9-3.4s.2-1.8.5-2.7.8-1.6,1.4-2.2c.6-.6,1.3-1.1,2.1-1.5.8-.4,1.6-.5,2.5-.5s1.9.2,2.8.6c.8.4,1.6,1,2.2,1.8.6.7,1,1.6,1.3,2.5.3,1,.3,2,.2,3h-9.5c.1.5.3.9.6,1.3.3.4.6.7,1.1.9s.9.3,1.4.4c.6,0,1.1-.1,1.5-.4s.8-.6,1.1-1.1l3.2.8c-.5,1.2-1.3,2.1-2.4,2.8-1,.7-2.2,1.1-3.5,1.1ZM90.6,348.2h6.4c0-.5-.3-1-.6-1.4s-.7-.8-1.1-1-.9-.4-1.5-.4-1,.1-1.4.4-.8.6-1.1,1c-.3.4-.5.9-.6,1.4Z"/>
    <path d="M112.2,336.5h3.2v19.5h-3.2v-1.6c-.4.6-.9,1.1-1.6,1.4s-1.4.5-2.2.5-1.8-.2-2.7-.5c-.8-.4-1.5-.8-2.2-1.5s-1.1-1.4-1.5-2.2c-.4-.8-.5-1.7-.5-2.7s.2-1.8.5-2.7.8-1.5,1.5-2.2,1.4-1.1,2.2-1.5c.8-.4,1.7-.5,2.7-.5s1.6.2,2.2.5c.6.4,1.2.8,1.6,1.4v-8.1ZM108.4,353.3c.7,0,1.3-.2,1.8-.5s.9-.8,1.2-1.4c.3-.6.4-1.2.4-1.9s-.1-1.3-.4-1.9c-.3-.6-.7-1-1.2-1.4s-1.1-.5-1.8-.5-1.3.2-1.8.5c-.6.3-1,.8-1.3,1.4-.3.6-.5,1.2-.5,1.9s.2,1.3.5,1.9c.3.6.8,1,1.3,1.4s1.2.5,1.8.5Z"/>
    <path d="M120.1,341.4c-.5,0-.9-.2-1.2-.5-.3-.3-.5-.7-.5-1.2s.2-.8.5-1.2c.3-.3.7-.5,1.2-.5s.8.2,1.2.5.5.7.5,1.2-.2.9-.5,1.2c-.3.3-.7.5-1.2.5ZM118.5,343h3.2v13h-3.2v-13Z"/>
    <path d="M131.7,346.2h-2.5v9.8h-3.2v-9.8h-1.9v-3.2h1.9v-4.1h3.2v4.1h2.5v3.2Z"/>
    <path d="M139.5,356.4c-1.2,0-2.3-.3-3.3-.9-1-.6-1.8-1.4-2.4-2.5-.6-1-.9-2.2-.9-3.4s.2-1.8.5-2.7.8-1.6,1.4-2.2c.6-.6,1.3-1.1,2.1-1.5.8-.4,1.6-.5,2.5-.5s2.3.3,3.3.9c1,.6,1.8,1.4,2.4,2.5s.9,2.2.9,3.5-.2,1.8-.5,2.7c-.3.8-.8,1.5-1.4,2.2s-1.3,1.1-2.1,1.5c-.8.4-1.6.5-2.5.5ZM139.5,353.2c.6,0,1.2-.2,1.7-.5.5-.3.9-.8,1.2-1.3.3-.6.4-1.2.4-1.8s-.1-1.3-.4-1.9c-.3-.6-.7-1-1.2-1.3-.5-.3-1.1-.5-1.7-.5s-1.2.2-1.7.5c-.5.3-.9.8-1.2,1.4-.3.6-.4,1.2-.4,1.8s.2,1.3.5,1.9c.3.6.7,1,1.2,1.3.5.3,1.1.5,1.7.5Z"/>
    <path d="M148.1,356v-13s3.2,0,3.2,0v1.2c.5-.5,1-.8,1.6-1.1.6-.3,1.3-.4,2-.4s1,0,1.4.2l-1.2,3.2c-.3-.1-.7-.2-1-.2-.5,0-1,.1-1.4.4-.4.2-.8.6-1,1-.2.4-.4.9-.4,1.4v7.4h-3.2Z"/>
    <path d="M159.3,341.4c-.5,0-.9-.2-1.2-.5-.3-.3-.5-.7-.5-1.2s.2-.8.5-1.2c.3-.3.7-.5,1.2-.5s.8.2,1.2.5.5.7.5,1.2-.2.9-.5,1.2c-.3.3-.7.5-1.2.5ZM157.7,343h3.2v13h-3.2v-13Z"/>
    <path d="M173.4,343h3.2v13h-3.2v-1.6c-.5.6-1,1.1-1.6,1.4-.6.4-1.3.5-2.1.5s-1.9-.2-2.7-.5c-.8-.4-1.6-.9-2.2-1.5-.6-.6-1.1-1.4-1.5-2.2-.4-.8-.5-1.7-.5-2.7s.2-1.8.5-2.6.8-1.5,1.4-2.1,1.3-1.1,2.1-1.4c.8-.3,1.7-.5,2.6-.5s1.6.2,2.3.6c.7.4,1.3.9,1.7,1.5v-1.7ZM169.7,353.3c.7,0,1.3-.2,1.8-.5s.9-.8,1.2-1.4c.3-.6.4-1.2.4-1.9s-.1-1.3-.4-1.9c-.3-.6-.7-1-1.2-1.4s-1.1-.5-1.8-.5-1.3.2-1.8.5c-.6.3-1,.8-1.3,1.4-.3.6-.5,1.2-.5,1.9s.2,1.3.5,1.9c.3.6.8,1,1.3,1.4s1.2.5,1.8.5Z"/>
    <path d="M179.3,356v-19.5h3.2v19.5h-3.2Z"/>
    <path d="M191.1,356.4c-1.2,0-2.3-.3-3.3-.9-1-.6-1.8-1.4-2.4-2.5-.6-1-.9-2.2-.9-3.4s.2-1.8.5-2.7.8-1.6,1.4-2.2c.6-.6,1.3-1.1,2.1-1.5.8-.4,1.6-.5,2.5-.5s1.9.2,2.8.6c.8.4,1.6,1,2.2,1.8.6.7,1,1.6,1.3,2.5.3,1,.3,2,.2,3h-9.5c.1.5.3.9.6,1.3.3.4.6.7,1.1.9s.9.3,1.4.4c.6,0,1.1-.1,1.5-.4s.8-.6,1.1-1.1l3.2.8c-.5,1.2-1.3,2.1-2.4,2.8-1,.7-2.2,1.1-3.5,1.1ZM187.9,348.2h6.4c0-.5-.3-1-.6-1.4s-.7-.8-1.1-1-.9-.4-1.5-.4-1,.1-1.4.4-.8.6-1.1,1c-.3.4-.5.9-.6,1.4Z"/>
    <path d="M203.6,356.3c-.7,0-1.3-.2-2-.4-.6-.2-1.2-.5-1.7-.9-.5-.4-.9-.9-1.1-1.4l2.7-1.1c.1.2.3.4.5.6.2.2.5.4.8.5.3.1.7.2,1.1.2s.6,0,.9-.1c.3,0,.5-.2.7-.4.2-.2.3-.4.3-.7s-.1-.6-.3-.7c-.2-.2-.5-.3-.8-.4-.3,0-.7-.2-1-.3-.8-.2-1.6-.4-2.3-.8-.7-.3-1.3-.8-1.7-1.3-.4-.6-.6-1.2-.6-2s.2-1.6.7-2.2,1-1.1,1.8-1.4c.7-.3,1.5-.5,2.4-.5s2,.2,2.8.6c.9.4,1.5,1,2,1.8l-2.5,1.5c-.1-.2-.3-.4-.5-.6-.2-.2-.5-.3-.7-.4-.3-.1-.6-.2-.9-.2-.4,0-.7,0-1.1.1-.3,0-.6.2-.8.4-.2.2-.3.5-.3.8s.1.6.4.7c.3.2.6.3.9.4.4,0,.7.2,1.1.3.8.3,1.5.6,2.2.9.7.4,1.2.8,1.6,1.3s.6,1.2.6,1.9c0,.8-.3,1.6-.8,2.2s-1.2,1.1-1.9,1.4c-.8.3-1.6.5-2.5.4Z"/>
  </g>
  <g class="st4">
    <rect class="st10" x="460.2" y="206.8" width="14.5" height="497.4" transform="translate(-16 894.1) rotate(-86.5)"/>
  </g>
  <g class="st2">
    <rect class="st10" x="273.8" y="624.9" width="481.1" height="12" transform="translate(-55.8 50) rotate(-5.3)"/>
  </g>
  <rect class="st12" x="451" y="328.8" width="109.3" height="487.5" transform="translate(1029.3 16.3) rotate(84.7)"/>
  <text class="st8" transform="translate(327.1 604) rotate(-5.3)"><tspan x="0" y="0">ACTUALIZACIÓN</tspan></text>
  <path class="st11" d="M561.2,767.9c14.5,0,29.1,0,43.6,0,5.4-7.9,10.7-15.8,16.1-23.7"/>
  <g>
    <path d="M65,489.9v-18.2h6c1.3,0,2.4.2,3.5.7,1.1.5,2.1,1.1,2.9,2s1.5,1.8,2,2.9c.5,1.1.7,2.3.7,3.5s-.2,2.4-.7,3.5c-.5,1.1-1.1,2.1-2,2.9s-1.8,1.5-2.9,2c-1.1.5-2.3.7-3.5.7h-6ZM67.2,487.7h3.8c1,0,1.8-.2,2.7-.5.8-.4,1.6-.9,2.2-1.5.6-.6,1.1-1.4,1.5-2.2.4-.8.5-1.7.5-2.7s-.2-1.8-.5-2.7c-.4-.8-.9-1.6-1.5-2.2-.6-.6-1.4-1.1-2.2-1.5-.8-.4-1.7-.5-2.7-.5h-3.8v13.8Z"/>
    <path d="M83.5,474.8c-.3,0-.6-.1-.9-.3-.2-.2-.4-.5-.4-.8s.1-.6.4-.8c.2-.2.5-.3.9-.3s.6.1.9.3c.2.2.4.5.4.8s-.1.6-.3.8c-.2.2-.5.3-.9.3ZM82.4,476.9h2.2v13h-2.2v-13Z"/>
    <path d="M91.5,490.1c-.7,0-1.4-.2-2-.4s-1.2-.6-1.7-1-.9-.9-1.1-1.4l1.9-.8c.1.3.4.6.7.8.3.3.7.5,1.2.6.4.2.9.2,1.3.2s.9,0,1.3-.2.8-.4,1-.7c.3-.3.4-.6.4-1s-.1-.8-.4-1c-.3-.2-.7-.4-1.1-.6s-.9-.3-1.3-.4c-.9-.2-1.7-.5-2.4-.8-.7-.3-1.3-.7-1.7-1.2-.4-.5-.6-1.1-.6-1.9s.2-1.5.7-2.1c.4-.6,1-1,1.8-1.4.7-.3,1.5-.5,2.3-.5s2,.2,2.9.7c.9.5,1.5,1.1,1.9,1.8l-1.8,1c-.1-.3-.4-.6-.7-.8-.3-.2-.6-.4-1-.6s-.8-.2-1.2-.2c-.5,0-1,0-1.4.2-.4.1-.8.4-1.1.7-.3.3-.4.7-.4,1.1s.1.8.4,1c.3.2.6.4,1.1.5.5.1,1,.3,1.5.5.8.3,1.5.5,2.2.9.7.3,1.2.7,1.7,1.2.4.5.6,1.1.6,1.8,0,.8-.2,1.5-.7,2.1s-1.1,1-1.9,1.4-1.6.5-2.4.4Z"/>
    <path d="M101.7,473.7v3.2h3.8v2.2h-3.8v10.8h-2.2v-10.8h-1.7v-2.2h1.7v-3.2c0-.7.2-1.3.5-1.8s.8-1,1.3-1.3c.6-.3,1.2-.5,1.8-.5s1,0,1.4.3.9.5,1.2.9l-1.6,1.5c-.1-.2-.3-.3-.5-.4-.2,0-.4-.1-.6-.1-.4,0-.7.1-1,.4-.3.3-.4.6-.4,1Z"/>
    <path d="M108,489.9v-13h2.2v1.6c.5-.6,1-1.1,1.7-1.4.7-.4,1.5-.5,2.3-.5s1,0,1.5.2l-.9,2.2c-.4-.1-.7-.2-1-.2-.7,0-1.2.2-1.8.5-.5.3-1,.7-1.3,1.3-.3.5-.5,1.1-.5,1.8v7.6h-2.2Z"/>
    <path d="M116.7,484.9v-8.1h2.2v7.6c0,.7.2,1.3.5,1.8.3.5.8,1,1.3,1.3.5.3,1.1.5,1.8.5s1.3-.2,1.8-.5c.5-.3,1-.7,1.3-1.3.3-.5.5-1.1.5-1.8v-7.6h2.2v13s-2.2,0-2.2,0v-1.7c-.5.6-1.1,1.1-1.8,1.4-.7.4-1.5.5-2.3.5s-1.9-.2-2.7-.7c-.8-.5-1.4-1.1-1.9-1.9-.5-.8-.7-1.7-.7-2.7Z"/>
    <path d="M137.5,479.1h-3v10.8h-2.2v-10.8s-2.2,0-2.2,0v-2.2h2.2v-4.1s2.2,0,2.2,0v4.1h3v2.2Z"/>
    <path d="M149.9,476.9h2.2v13h-2.2v-2.2c-.5.8-1.1,1.4-1.8,1.8-.7.5-1.6.7-2.6.7s-1.8-.2-2.7-.5c-.8-.4-1.6-.9-2.2-1.5-.6-.6-1.1-1.4-1.5-2.2s-.5-1.7-.5-2.7.2-1.8.5-2.6.8-1.5,1.4-2.2,1.3-1.1,2.2-1.5,1.7-.5,2.6-.5,1.9.2,2.7.7,1.4,1.1,1.9,1.9v-2.2ZM145.6,488.1c.9,0,1.6-.2,2.2-.6.6-.4,1.1-1,1.5-1.7.3-.7.5-1.5.5-2.4s-.2-1.7-.5-2.4c-.3-.7-.8-1.3-1.5-1.7s-1.4-.6-2.2-.6-1.6.2-2.3.6c-.7.4-1.3,1-1.7,1.7-.4.7-.6,1.5-.6,2.4s.2,1.7.6,2.4c.4.7,1,1.3,1.7,1.7.7.4,1.5.6,2.3.6Z"/>
    <path d="M171.4,470.4h2.2v19.5h-2.2v-2.2c-.4.8-1,1.4-1.8,1.8-.7.5-1.6.7-2.6.7s-1.8-.2-2.7-.5c-.8-.4-1.5-.8-2.2-1.5s-1.1-1.4-1.5-2.2c-.4-.8-.5-1.7-.5-2.7s.2-1.8.5-2.7c.4-.8.8-1.6,1.5-2.2s1.4-1.1,2.2-1.5,1.7-.5,2.7-.5,1.9.2,2.6.7c.7.5,1.3,1.1,1.8,1.8v-8.7ZM167,488.1c.9,0,1.6-.2,2.2-.6.6-.4,1.1-1,1.5-1.7.3-.7.5-1.5.5-2.4s-.2-1.7-.5-2.4c-.3-.7-.8-1.3-1.5-1.7s-1.4-.6-2.2-.6-1.6.2-2.3.6c-.7.4-1.3,1-1.7,1.7-.4.7-.6,1.5-.6,2.4s.2,1.7.6,2.4c.4.7,1,1.3,1.7,1.7.7.4,1.5.6,2.3.6Z"/>
    <path d="M182.3,490.2c-1.2,0-2.3-.3-3.3-.9-1-.6-1.8-1.4-2.4-2.5-.6-1-.9-2.2-.9-3.4s.2-1.8.5-2.7.8-1.6,1.4-2.2c.6-.6,1.3-1.1,2.1-1.5.8-.4,1.6-.5,2.5-.5s1.9.2,2.7.6,1.5.9,2.1,1.6,1,1.5,1.3,2.4c.3.9.4,1.9.3,3h-10.6c.1.7.3,1.4.7,2,.4.6.9,1,1.5,1.4.6.3,1.3.5,2,.5.8,0,1.5-.2,2.1-.6.6-.4,1.1-1,1.5-1.7l2.2.5c-.5,1.2-1.3,2.1-2.4,2.8-1,.7-2.2,1.1-3.5,1.1ZM178.1,482.5h8.5c0-.7-.3-1.4-.7-2s-.9-1.1-1.5-1.4c-.6-.4-1.3-.5-2-.5s-1.4.2-2,.5c-.6.4-1.1.8-1.5,1.4s-.6,1.3-.7,2Z"/>
    <path d="M197.4,489.9v-19.5h2.2v19.5h-2.2Z"/>
    <path d="M208.3,490.2c-1.2,0-2.3-.3-3.3-.9-1-.6-1.8-1.4-2.4-2.5-.6-1-.9-2.2-.9-3.4s.2-1.8.5-2.7.8-1.6,1.4-2.2c.6-.6,1.3-1.1,2.1-1.5.8-.4,1.6-.5,2.5-.5s2.3.3,3.3.9c1,.6,1.8,1.4,2.4,2.5s.9,2.2.9,3.5-.2,1.8-.5,2.7c-.3.8-.8,1.5-1.4,2.2s-1.3,1.1-2.1,1.5c-.8.4-1.6.5-2.5.5ZM208.3,488c.8,0,1.5-.2,2.2-.6.7-.4,1.2-1,1.5-1.7.4-.7.6-1.5.6-2.3s-.2-1.6-.6-2.3c-.4-.7-.9-1.3-1.6-1.7s-1.4-.6-2.2-.6-1.5.2-2.2.6c-.6.4-1.2,1-1.5,1.7-.4.7-.6,1.5-.6,2.3s.2,1.7.6,2.4c.4.7.9,1.3,1.6,1.7s1.4.6,2.2.6Z"/>
    <path d="M221,490.1c-.7,0-1.4-.2-2-.4s-1.2-.6-1.7-1-.9-.9-1.1-1.4l1.9-.8c.1.3.4.6.7.8.3.3.7.5,1.2.6.4.2.9.2,1.3.2s.9,0,1.3-.2.8-.4,1-.7c.3-.3.4-.6.4-1s-.1-.8-.4-1c-.3-.2-.7-.4-1.1-.6s-.9-.3-1.3-.4c-.9-.2-1.7-.5-2.4-.8-.7-.3-1.3-.7-1.7-1.2-.4-.5-.6-1.1-.6-1.9s.2-1.5.7-2.1c.4-.6,1-1,1.8-1.4.7-.3,1.5-.5,2.3-.5s2,.2,2.9.7c.9.5,1.5,1.1,1.9,1.8l-1.8,1c-.1-.3-.4-.6-.7-.8-.3-.2-.6-.4-1-.6s-.8-.2-1.2-.2c-.5,0-1,0-1.4.2-.4.1-.8.4-1.1.7-.3.3-.4.7-.4,1.1s.1.8.4,1c.3.2.6.4,1.1.5.5.1,1,.3,1.5.5.8.3,1.5.5,2.2.9.7.3,1.2.7,1.7,1.2.4.5.6,1.1.6,1.8,0,.8-.2,1.5-.7,2.1s-1.1,1-1.9,1.4-1.6.5-2.4.4Z"/>
    <path d="M40.6,502.5c1.3,0,2.4.3,3.5.9s1.9,1.4,2.5,2.5.9,2.2.9,3.4-.2,1.8-.5,2.7c-.4.8-.8,1.6-1.5,2.2s-1.4,1.1-2.2,1.5c-.8.4-1.7.5-2.7.5s-1.5-.2-2.2-.6c-.6-.4-1.2-.8-1.6-1.4v1.7h-3.2v-19.5h3.2v8.1c.4-.6,1-1.1,1.6-1.4.6-.4,1.3-.6,2.2-.6ZM40.6,513.1c.7,0,1.3-.2,1.8-.5.6-.3,1-.8,1.3-1.4.3-.6.5-1.2.5-1.9s-.2-1.3-.5-1.9c-.3-.6-.8-1-1.3-1.4-.6-.3-1.2-.5-1.8-.5s-1.2.2-1.8.5-.9.8-1.2,1.4c-.3.6-.4,1.2-.4,1.9s.1,1.3.4,1.9c.3.6.7,1,1.2,1.4.5.3,1.1.5,1.8.5Z"/>
    <path d="M55.3,516.2c-1.2,0-2.3-.3-3.3-.9-1-.6-1.8-1.4-2.4-2.5-.6-1-.9-2.2-.9-3.4s.2-1.8.5-2.7.8-1.6,1.4-2.2c.6-.6,1.3-1.1,2.1-1.5.8-.4,1.6-.5,2.5-.5s1.9.2,2.8.6c.8.4,1.6,1,2.2,1.8.6.7,1,1.6,1.3,2.5.3,1,.3,2,.2,3h-9.5c.1.5.3.9.6,1.3.3.4.6.7,1.1.9s.9.3,1.4.4c.6,0,1.1-.1,1.5-.4s.8-.6,1.1-1.1l3.2.8c-.5,1.2-1.3,2.1-2.4,2.8-1,.7-2.2,1.1-3.5,1.1ZM52.1,508.1h6.4c0-.5-.3-1-.6-1.4s-.7-.8-1.1-1-.9-.4-1.5-.4-1,.1-1.4.4-.8.6-1.1,1c-.3.4-.5.9-.6,1.4Z"/>
    <path d="M75.7,507.7v8.2h-3.2v-7.4c0-.5-.1-1-.4-1.4-.3-.4-.6-.8-1-1-.4-.2-.9-.4-1.4-.4s-1,.1-1.4.4c-.4.2-.8.6-1,1-.2.4-.4.9-.4,1.4v7.4h-3.2v-13s3.2,0,3.2,0v1.2c.5-.5,1-.8,1.6-1.1.6-.3,1.3-.4,2-.4s1.8.2,2.6.7c.8.5,1.4,1.1,1.9,1.9.5.8.7,1.6.7,2.6Z"/>
    <path d="M83.8,516.2c-1.2,0-2.3-.3-3.3-.9-1-.6-1.8-1.4-2.4-2.5-.6-1-.9-2.2-.9-3.4s.2-1.8.5-2.7.8-1.6,1.4-2.2c.6-.6,1.3-1.1,2.1-1.5.8-.4,1.6-.5,2.5-.5s1.9.2,2.8.6c.8.4,1.6,1,2.2,1.8.6.7,1,1.6,1.3,2.5.3,1,.3,2,.2,3h-9.5c.1.5.3.9.6,1.3.3.4.6.7,1.1.9s.9.3,1.4.4c.6,0,1.1-.1,1.5-.4s.8-.6,1.1-1.1l3.2.8c-.5,1.2-1.3,2.1-2.4,2.8-1,.7-2.2,1.1-3.5,1.1ZM80.6,508.1h6.4c0-.5-.3-1-.6-1.4s-.7-.8-1.1-1-.9-.4-1.5-.4-1,.1-1.4.4-.8.6-1.1,1c-.3.4-.5.9-.6,1.4Z"/>
    <path d="M96.3,500.1v2.7h3.5v3.2h-3.5v9.8h-3.2v-9.8h-1.4v-3.2h1.4v-2.7c0-.7.2-1.4.6-2,.4-.6.9-1.1,1.5-1.5.6-.4,1.3-.6,2.1-.6s1.1.1,1.6.3c.5.2,1,.6,1.4,1l-2.3,2.2c0-.1-.2-.3-.3-.3s-.3-.1-.4-.1c-.3,0-.5,0-.7.3-.2.2-.3.4-.3.6Z"/>
    <path d="M103.5,501.2c-.5,0-.9-.2-1.2-.5-.3-.3-.5-.7-.5-1.2s.2-.8.5-1.2c.3-.3.7-.5,1.2-.5s.8.2,1.2.5.5.7.5,1.2-.2.9-.5,1.2c-.3.3-.7.5-1.2.5ZM101.9,502.9h3.2v13h-3.2v-13Z"/>
    <path d="M115.9,512l2.9,1.5c-.6.8-1.3,1.5-2.2,2-.9.5-1.9.7-3,.7s-2.3-.3-3.3-.9c-1-.6-1.8-1.4-2.4-2.5-.6-1-.9-2.2-.9-3.4s.2-1.8.5-2.7.8-1.6,1.4-2.2c.6-.6,1.3-1.1,2.1-1.5.8-.4,1.6-.5,2.5-.5s2,.2,3,.7,1.7,1.2,2.2,2l-2.9,1.5c-.3-.3-.7-.6-1.1-.8-.4-.2-.8-.3-1.3-.3-.6,0-1.2.2-1.7.5-.5.3-.9.8-1.2,1.4-.3.6-.4,1.2-.4,1.8s.1,1.3.4,1.8c.3.6.7,1,1.2,1.3.5.3,1.1.5,1.7.5s.9,0,1.3-.3.8-.5,1.1-.8Z"/>
    <path d="M122.3,501.2c-.5,0-.9-.2-1.2-.5-.3-.3-.5-.7-.5-1.2s.2-.8.5-1.2c.3-.3.7-.5,1.2-.5s.8.2,1.2.5.5.7.5,1.2-.2.9-.5,1.2c-.3.3-.7.5-1.2.5ZM120.6,502.9h3.2v13h-3.2v-13Z"/>
    <path d="M132.4,516.2c-1.2,0-2.3-.3-3.3-.9-1-.6-1.8-1.4-2.4-2.5-.6-1-.9-2.2-.9-3.4s.2-1.8.5-2.7.8-1.6,1.4-2.2c.6-.6,1.3-1.1,2.1-1.5.8-.4,1.6-.5,2.5-.5s2.3.3,3.3.9c1,.6,1.8,1.4,2.4,2.5s.9,2.2.9,3.5-.2,1.8-.5,2.7c-.3.8-.8,1.5-1.4,2.2s-1.3,1.1-2.1,1.5c-.8.4-1.6.5-2.5.5ZM132.4,513c.6,0,1.2-.2,1.7-.5.5-.3.9-.8,1.2-1.3.3-.6.4-1.2.4-1.8s-.1-1.3-.4-1.9c-.3-.6-.7-1-1.2-1.3-.5-.3-1.1-.5-1.7-.5s-1.2.2-1.7.5c-.5.3-.9.8-1.2,1.4-.3.6-.4,1.2-.4,1.8s.2,1.3.5,1.9c.3.6.7,1,1.2,1.3.5.3,1.1.5,1.7.5Z"/>
    <path d="M144.8,516.1c-.7,0-1.3-.2-2-.4-.6-.2-1.2-.5-1.7-.9-.5-.4-.9-.9-1.1-1.4l2.7-1.1c.1.2.3.4.5.6.2.2.5.4.8.5.3.1.7.2,1.1.2s.6,0,.9-.1c.3,0,.5-.2.7-.4.2-.2.3-.4.3-.7s-.1-.6-.3-.7c-.2-.2-.5-.3-.8-.4-.3,0-.7-.2-1-.3-.8-.2-1.6-.4-2.3-.8-.7-.3-1.3-.8-1.7-1.3-.4-.6-.6-1.2-.6-2s.2-1.6.7-2.2,1-1.1,1.8-1.4c.7-.3,1.5-.5,2.4-.5s2,.2,2.8.6c.9.4,1.5,1,2,1.8l-2.5,1.5c-.1-.2-.3-.4-.5-.6-.2-.2-.5-.3-.7-.4-.3-.1-.6-.2-.9-.2-.4,0-.7,0-1.1.1-.3,0-.6.2-.8.4-.2.2-.3.5-.3.8s.1.6.4.7c.3.2.6.3.9.4.4,0,.7.2,1.1.3.8.3,1.5.6,2.2.9.7.4,1.2.8,1.6,1.3s.6,1.2.6,1.9c0,.8-.3,1.6-.8,2.2s-1.2,1.1-1.9,1.4c-.8.3-1.6.5-2.5.4Z"/>
    <path d="M168.4,496.4h3.2v19.5h-3.2v-1.6c-.4.6-.9,1.1-1.6,1.4s-1.4.5-2.2.5-1.8-.2-2.7-.5c-.8-.4-1.5-.8-2.2-1.5s-1.1-1.4-1.5-2.2c-.4-.8-.5-1.7-.5-2.7s.2-1.8.5-2.7.8-1.5,1.5-2.2,1.4-1.1,2.2-1.5c.8-.4,1.7-.5,2.7-.5s1.6.2,2.2.5c.6.4,1.2.8,1.6,1.4v-8.1ZM164.6,513.2c.7,0,1.3-.2,1.8-.5s.9-.8,1.2-1.4c.3-.6.4-1.2.4-1.9s-.1-1.3-.4-1.9c-.3-.6-.7-1-1.2-1.4s-1.1-.5-1.8-.5-1.3.2-1.8.5c-.6.3-1,.8-1.3,1.4-.3.6-.5,1.2-.5,1.9s.2,1.3.5,1.9c.3.6.8,1,1.3,1.4s1.2.5,1.8.5Z"/>
    <path d="M180.2,516.2c-1.2,0-2.3-.3-3.3-.9-1-.6-1.8-1.4-2.4-2.5-.6-1-.9-2.2-.9-3.4s.2-1.8.5-2.7.8-1.6,1.4-2.2c.6-.6,1.3-1.1,2.1-1.5.8-.4,1.6-.5,2.5-.5s1.9.2,2.8.6c.8.4,1.6,1,2.2,1.8.6.7,1,1.6,1.3,2.5.3,1,.3,2,.2,3h-9.5c.1.5.3.9.6,1.3.3.4.6.7,1.1.9s.9.3,1.4.4c.6,0,1.1-.1,1.5-.4s.8-.6,1.1-1.1l3.2.8c-.5,1.2-1.3,2.1-2.4,2.8-1,.7-2.2,1.1-3.5,1.1ZM177,508.1h6.4c0-.5-.3-1-.6-1.4s-.7-.8-1.1-1-.9-.4-1.5-.4-1,.1-1.4.4-.8.6-1.1,1c-.3.4-.5.9-.6,1.4Z"/>
    <path d="M195.2,515.9v-19.5h3.2v19.5h-3.2Z"/>
    <path d="M211.1,502.9h3.2v13h-3.2v-1.6c-.5.6-1,1.1-1.6,1.4-.6.4-1.3.5-2.1.5s-1.9-.2-2.7-.5c-.8-.4-1.6-.9-2.2-1.5-.6-.6-1.1-1.4-1.5-2.2-.4-.8-.5-1.7-.5-2.7s.2-1.8.5-2.6.8-1.5,1.4-2.1,1.3-1.1,2.1-1.4c.8-.3,1.7-.5,2.6-.5s1.6.2,2.3.6c.7.4,1.3.9,1.7,1.5v-1.7ZM207.4,513.2c.7,0,1.3-.2,1.8-.5s.9-.8,1.2-1.4c.3-.6.4-1.2.4-1.9s-.1-1.3-.4-1.9c-.3-.6-.7-1-1.2-1.4s-1.1-.5-1.8-.5-1.3.2-1.8.5c-.6.3-1,.8-1.3,1.4-.3.6-.5,1.2-.5,1.9s.2,1.3.5,1.9c.3.6.8,1,1.3,1.4s1.2.5,1.8.5Z"/>
    <path d="M220.8,516.1c-.7,0-1.3-.2-2-.4-.6-.2-1.2-.5-1.7-.9-.5-.4-.9-.9-1.1-1.4l2.7-1.1c.1.2.3.4.5.6.2.2.5.4.8.5.3.1.7.2,1.1.2s.6,0,.9-.1c.3,0,.5-.2.7-.4.2-.2.3-.4.3-.7s-.1-.6-.3-.7c-.2-.2-.5-.3-.8-.4-.3,0-.7-.2-1-.3-.8-.2-1.6-.4-2.3-.8-.7-.3-1.3-.8-1.7-1.3-.4-.6-.6-1.2-.6-2s.2-1.6.7-2.2,1-1.1,1.8-1.4c.7-.3,1.5-.5,2.4-.5s2,.2,2.8.6c.9.4,1.5,1,2,1.8l-2.5,1.5c-.1-.2-.3-.4-.5-.6-.2-.2-.5-.3-.7-.4-.3-.1-.6-.2-.9-.2-.4,0-.7,0-1.1.1-.3,0-.6.2-.8.4-.2.2-.3.5-.3.8s.1.6.4.7c.3.2.6.3.9.4.4,0,.7.2,1.1.3.8.3,1.5.6,2.2.9.7.4,1.2.8,1.6,1.3s.6,1.2.6,1.9c0,.8-.3,1.6-.8,2.2s-1.2,1.1-1.9,1.4c-.8.3-1.6.5-2.5.4Z"/>
    <path d="M41.7,533.7v8.2h-3.2v-7.4c0-.5-.1-1-.4-1.4-.3-.4-.6-.8-1-1-.4-.2-.9-.4-1.4-.4s-1,.1-1.4.4c-.4.2-.8.6-1,1-.2.4-.4.9-.4,1.4v7.4h-3.2v-13s3.2,0,3.2,0v1.2c.5-.5,1-.8,1.6-1.1.6-.3,1.3-.4,2-.4s1.8.2,2.6.7c.8.5,1.4,1.1,1.9,1.9.5.8.7,1.6.7,2.6Z"/>
    <path d="M43.8,537.1v-8.2h3.2v7.4c0,.5.1,1,.4,1.4.3.4.6.8,1,1,.4.2.9.4,1.4.4s1-.1,1.4-.4c.4-.2.8-.6,1-1,.3-.4.4-.9.4-1.4v-7.4h3.2v13s-3.2,0-3.2,0v-1.2c-.5.5-1,.8-1.6,1.1-.6.3-1.3.4-2,.4s-1.8-.2-2.6-.7c-.8-.5-1.4-1.1-1.9-1.9-.5-.8-.7-1.6-.7-2.6Z"/>
    <path d="M63.8,542.2c-1.2,0-2.3-.3-3.3-.9-1-.6-1.8-1.4-2.4-2.5-.6-1-.9-2.2-.9-3.4s.2-1.8.5-2.7c.3-.8.8-1.6,1.4-2.2.6-.6,1.3-1.1,2.1-1.5s1.6-.5,2.5-.5,1.9.2,2.8.6c.8.4,1.6,1,2.2,1.8.6.7,1,1.6,1.3,2.5s.3,2,.2,3h-9.5c.1.5.3.9.6,1.3.3.4.6.7,1.1.9s.9.3,1.4.4c.6,0,1.1-.1,1.5-.4s.8-.6,1.1-1.1l3.2.8c-.5,1.2-1.3,2.1-2.4,2.8-1,.7-2.2,1.1-3.5,1.1ZM60.6,534.1h6.4c0-.5-.3-1-.6-1.4-.3-.4-.7-.8-1.1-1-.5-.3-.9-.4-1.5-.4s-1,.1-1.4.4-.8.6-1.1,1c-.3.4-.5.9-.6,1.4Z"/>
    <path d="M79.8,541.9h-4.1l-4.7-13h3.4l3.4,9.4,3.4-9.4h3.4l-4.7,13Z"/>
    <path d="M95.7,528.9h3.2v13h-3.2v-1.6c-.5.6-1,1.1-1.6,1.4s-1.3.5-2.1.5-1.9-.2-2.7-.5c-.8-.4-1.6-.9-2.2-1.5-.6-.6-1.1-1.4-1.5-2.2-.4-.8-.5-1.7-.5-2.7s.2-1.8.5-2.6.8-1.5,1.4-2.1c.6-.6,1.3-1.1,2.1-1.4.8-.3,1.7-.5,2.6-.5s1.6.2,2.3.6c.7.4,1.3.9,1.7,1.5v-1.7ZM92,539.2c.7,0,1.3-.2,1.8-.5s.9-.8,1.2-1.4c.3-.6.4-1.2.4-1.9s-.1-1.3-.4-1.9c-.3-.6-.7-1-1.2-1.4s-1.1-.5-1.8-.5-1.3.2-1.8.5c-.6.3-1,.8-1.3,1.4-.3.6-.5,1.2-.5,1.9s.2,1.3.5,1.9c.3.6.8,1,1.3,1.4s1.2.5,1.8.5Z"/>
    <path d="M105.3,542.1c-.7,0-1.3-.2-2-.4s-1.2-.5-1.7-.9-.9-.9-1.1-1.4l2.7-1.1c.1.2.3.4.5.6s.5.4.8.5c.3.1.7.2,1.1.2s.6,0,.9-.1.5-.2.7-.4c.2-.2.3-.4.3-.7s-.1-.6-.3-.7c-.2-.2-.5-.3-.8-.4-.3,0-.7-.2-1-.3-.8-.2-1.6-.4-2.3-.8-.7-.3-1.3-.8-1.7-1.3-.4-.6-.6-1.2-.6-2s.2-1.6.7-2.2,1-1.1,1.8-1.4c.7-.3,1.5-.5,2.4-.5s2,.2,2.8.6c.9.4,1.5,1,2,1.8l-2.5,1.5c-.1-.2-.3-.4-.5-.6s-.5-.3-.7-.4c-.3-.1-.6-.2-.9-.2-.4,0-.7,0-1.1.1-.3,0-.6.2-.8.4-.2.2-.3.5-.3.8s.1.6.4.7c.3.2.6.3.9.4.4,0,.7.2,1.1.3.8.3,1.5.6,2.2.9.7.4,1.2.8,1.6,1.3.4.5.6,1.2.6,1.9,0,.8-.3,1.6-.8,2.2-.5.6-1.2,1.1-1.9,1.4s-1.6.5-2.5.4Z"/>
    <path d="M127.1,541.9h-4.1l-4.7-13h3.4l3.4,9.4,3.4-9.4h3.4l-4.7,13Z"/>
    <path d="M138.9,542.2c-1.2,0-2.3-.3-3.3-.9-1-.6-1.8-1.4-2.4-2.5-.6-1-.9-2.2-.9-3.4s.2-1.8.5-2.7c.3-.8.8-1.6,1.4-2.2.6-.6,1.3-1.1,2.1-1.5s1.6-.5,2.5-.5,1.9.2,2.8.6c.8.4,1.6,1,2.2,1.8.6.7,1,1.6,1.3,2.5s.3,2,.2,3h-9.5c.1.5.3.9.6,1.3.3.4.6.7,1.1.9s.9.3,1.4.4c.6,0,1.1-.1,1.5-.4s.8-.6,1.1-1.1l3.2.8c-.5,1.2-1.3,2.1-2.4,2.8-1,.7-2.2,1.1-3.5,1.1ZM135.7,534.1h6.4c0-.5-.3-1-.6-1.4-.3-.4-.7-.8-1.1-1-.5-.3-.9-.4-1.5-.4s-1,.1-1.4.4-.8.6-1.1,1c-.3.4-.5.9-.6,1.4Z"/>
    <path d="M147.5,541.9v-13s3.2,0,3.2,0v1.2c.5-.5,1-.8,1.6-1.1.6-.3,1.3-.4,2-.4s1,0,1.4.2l-1.2,3.2c-.3-.1-.7-.2-1-.2-.5,0-1,.1-1.4.4-.4.2-.8.6-1,1-.2.4-.4.9-.4,1.4v7.4h-3.2Z"/>
    <path d="M160.9,542.1c-.7,0-1.3-.2-2-.4s-1.2-.5-1.7-.9-.9-.9-1.1-1.4l2.7-1.1c.1.2.3.4.5.6s.5.4.8.5c.3.1.7.2,1.1.2s.6,0,.9-.1.5-.2.7-.4c.2-.2.3-.4.3-.7s-.1-.6-.3-.7c-.2-.2-.5-.3-.8-.4-.3,0-.7-.2-1-.3-.8-.2-1.6-.4-2.3-.8-.7-.3-1.3-.8-1.7-1.3-.4-.6-.6-1.2-.6-2s.2-1.6.7-2.2,1-1.1,1.8-1.4c.7-.3,1.5-.5,2.4-.5s2,.2,2.8.6c.9.4,1.5,1,2,1.8l-2.5,1.5c-.1-.2-.3-.4-.5-.6s-.5-.3-.7-.4c-.3-.1-.6-.2-.9-.2-.4,0-.7,0-1.1.1-.3,0-.6.2-.8.4-.2.2-.3.5-.3.8s.1.6.4.7c.3.2.6.3.9.4.4,0,.7.2,1.1.3.8.3,1.5.6,2.2.9.7.4,1.2.8,1.6,1.3.4.5.6,1.2.6,1.9,0,.8-.3,1.6-.8,2.2-.5.6-1.2,1.1-1.9,1.4s-1.6.5-2.5.4Z"/>
    <path d="M169.7,527.2c-.5,0-.9-.2-1.2-.5-.3-.3-.5-.7-.5-1.2s.2-.8.5-1.2c.3-.3.7-.5,1.2-.5s.8.2,1.2.5c.3.3.5.7.5,1.2s-.2.9-.5,1.2-.7.5-1.2.5ZM168.1,528.9h3.2v13h-3.2v-13Z"/>
    <path d="M179.8,542.2c-1.2,0-2.3-.3-3.3-.9-1-.6-1.8-1.4-2.4-2.5-.6-1-.9-2.2-.9-3.4s.2-1.8.5-2.7c.3-.8.8-1.6,1.4-2.2.6-.6,1.3-1.1,2.1-1.5s1.6-.5,2.5-.5,2.3.3,3.3.9c1,.6,1.8,1.4,2.4,2.5s.9,2.2.9,3.5-.2,1.8-.5,2.7-.8,1.5-1.4,2.2c-.6.6-1.3,1.1-2.1,1.5-.8.4-1.6.5-2.5.5ZM179.8,539c.6,0,1.2-.2,1.7-.5s.9-.8,1.2-1.3.4-1.2.4-1.8-.1-1.3-.4-1.9c-.3-.6-.7-1-1.2-1.3-.5-.3-1.1-.5-1.7-.5s-1.2.2-1.7.5c-.5.3-.9.8-1.2,1.4-.3.6-.4,1.2-.4,1.8s.2,1.3.5,1.9c.3.6.7,1,1.2,1.3s1.1.5,1.7.5Z"/>
    <path d="M200.2,533.7v8.2h-3.2v-7.4c0-.5-.1-1-.4-1.4-.3-.4-.6-.8-1-1-.4-.2-.9-.4-1.4-.4s-1,.1-1.4.4c-.4.2-.8.6-1,1-.2.4-.4.9-.4,1.4v7.4h-3.2v-13s3.2,0,3.2,0v1.2c.5-.5,1-.8,1.6-1.1.6-.3,1.3-.4,2-.4s1.8.2,2.6.7c.8.5,1.4,1.1,1.9,1.9.5.8.7,1.6.7,2.6Z"/>
    <path d="M208.3,542.2c-1.2,0-2.3-.3-3.3-.9-1-.6-1.8-1.4-2.4-2.5-.6-1-.9-2.2-.9-3.4s.2-1.8.5-2.7c.3-.8.8-1.6,1.4-2.2.6-.6,1.3-1.1,2.1-1.5s1.6-.5,2.5-.5,1.9.2,2.8.6c.8.4,1.6,1,2.2,1.8.6.7,1,1.6,1.3,2.5s.3,2,.2,3h-9.5c.1.5.3.9.6,1.3.3.4.6.7,1.1.9s.9.3,1.4.4c.6,0,1.1-.1,1.5-.4s.8-.6,1.1-1.1l3.2.8c-.5,1.2-1.3,2.1-2.4,2.8-1,.7-2.2,1.1-3.5,1.1ZM205.1,534.1h6.4c0-.5-.3-1-.6-1.4-.3-.4-.7-.8-1.1-1-.5-.3-.9-.4-1.5-.4s-1,.1-1.4.4-.8.6-1.1,1c-.3.4-.5.9-.6,1.4Z"/>
    <path d="M220.8,542.1c-.7,0-1.3-.2-2-.4s-1.2-.5-1.7-.9-.9-.9-1.1-1.4l2.7-1.1c.1.2.3.4.5.6s.5.4.8.5c.3.1.7.2,1.1.2s.6,0,.9-.1.5-.2.7-.4c.2-.2.3-.4.3-.7s-.1-.6-.3-.7c-.2-.2-.5-.3-.8-.4-.3,0-.7-.2-1-.3-.8-.2-1.6-.4-2.3-.8-.7-.3-1.3-.8-1.7-1.3-.4-.6-.6-1.2-.6-2s.2-1.6.7-2.2,1-1.1,1.8-1.4c.7-.3,1.5-.5,2.4-.5s2,.2,2.8.6c.9.4,1.5,1,2,1.8l-2.5,1.5c-.1-.2-.3-.4-.5-.6s-.5-.3-.7-.4c-.3-.1-.6-.2-.9-.2-.4,0-.7,0-1.1.1-.3,0-.6.2-.8.4-.2.2-.3.5-.3.8s.1.6.4.7c.3.2.6.3.9.4.4,0,.7.2,1.1.3.8.3,1.5.6,2.2.9.7.4,1.2.8,1.6,1.3.4.5.6,1.2.6,1.9,0,.8-.3,1.6-.8,2.2-.5.6-1.2,1.1-1.9,1.4s-1.6.5-2.5.4Z"/>
    <path d="M80.5,548.4h2.2v19.5h-2.2v-2.2c-.4.8-1,1.4-1.8,1.8-.7.5-1.6.7-2.6.7s-1.8-.2-2.7-.5c-.8-.4-1.5-.8-2.2-1.5-.6-.6-1.1-1.4-1.5-2.2s-.5-1.7-.5-2.7.2-1.8.5-2.7c.4-.8.8-1.6,1.5-2.2.6-.6,1.4-1.1,2.2-1.5.8-.4,1.7-.5,2.7-.5s1.9.2,2.6.7c.7.5,1.3,1.1,1.8,1.8v-8.7ZM76.1,566.1c.9,0,1.6-.2,2.2-.6.6-.4,1.1-1,1.5-1.7.3-.7.5-1.5.5-2.4s-.2-1.7-.5-2.4c-.3-.7-.8-1.3-1.5-1.7-.6-.4-1.4-.6-2.2-.6s-1.6.2-2.3.6c-.7.4-1.3,1-1.7,1.7s-.6,1.5-.6,2.4.2,1.7.6,2.4,1,1.3,1.7,1.7c.7.4,1.5.6,2.3.6Z"/>
    <path d="M91.4,568.2c-1.2,0-2.3-.3-3.3-.9-1-.6-1.8-1.4-2.4-2.5-.6-1-.9-2.2-.9-3.4s.2-1.8.5-2.7c.3-.8.8-1.6,1.4-2.2.6-.6,1.3-1.1,2.1-1.5s1.6-.5,2.5-.5,1.9.2,2.7.6,1.5.9,2.1,1.6,1,1.5,1.3,2.4c.3.9.4,1.9.3,3h-10.6c.1.7.3,1.4.7,2s.9,1,1.5,1.4,1.3.5,2,.5c.8,0,1.5-.2,2.1-.6.6-.4,1.1-1,1.5-1.7l2.2.5c-.5,1.2-1.3,2.1-2.4,2.8-1,.7-2.2,1.1-3.5,1.1ZM87.2,560.5h8.5c0-.7-.3-1.4-.7-2-.4-.6-.9-1.1-1.5-1.4s-1.3-.5-2-.5-1.4.2-2,.5c-.6.4-1.1.8-1.5,1.4s-.6,1.3-.7,2Z"/>
    <path d="M114.9,568.2c-1.2,0-2.4-.2-3.5-.7-1.1-.5-2-1.2-2.9-2-.8-.9-1.5-1.9-1.9-3-.5-1.1-.7-2.4-.7-3.7s.2-2.5.7-3.7c.5-1.1,1.1-2.1,1.9-3,.8-.9,1.8-1.5,2.9-2,1.1-.5,2.2-.7,3.5-.7s2.4.2,3.5.7c1.1.5,2,1.2,2.9,2,.8.9,1.5,1.9,1.9,3,.5,1.1.7,2.4.7,3.7s-.2,2.5-.7,3.7c-.5,1.1-1.1,2.1-1.9,3-.8.9-1.8,1.5-2.9,2-1.1.5-2.2.7-3.5.7ZM114.9,566c.9,0,1.8-.2,2.6-.6.8-.4,1.5-.9,2.2-1.6.6-.7,1.1-1.4,1.5-2.3s.5-1.8.5-2.8-.2-1.9-.5-2.8c-.4-.9-.8-1.7-1.5-2.3s-1.3-1.2-2.2-1.6c-.8-.4-1.7-.6-2.6-.6s-1.8.2-2.6.6c-.8.4-1.5.9-2.2,1.6-.6.7-1.1,1.4-1.5,2.3s-.5,1.8-.5,2.8.2,1.9.5,2.8.8,1.6,1.5,2.3c.6.7,1.3,1.2,2.2,1.6s1.7.6,2.6.6Z"/>
    <path d="M127.6,568.2c-.6,0-1.2-.1-1.8-.3-.6-.2-1.1-.5-1.6-.9l1.4-1.7c.3.2.5.4.9.5.3.1.7.2,1.1.2.6,0,1.1-.2,1.6-.5.5-.3.8-.7,1.1-1.2s.4-1,.4-1.6v-13.1h2.2v13.1c0,1-.2,1.9-.7,2.7s-1.1,1.5-1.9,2-1.7.8-2.7.8Z"/>
    <path d="M142.4,568.2c-1,0-1.9-.2-2.8-.5-.9-.3-1.7-.7-2.4-1.3-.7-.6-1.2-1.3-1.4-2l2-.8c.2.5.5.9,1,1.3.5.4,1,.6,1.7.8.6.2,1.3.3,2,.3s1.5-.1,2.2-.4c.7-.3,1.2-.6,1.6-1.1.4-.5.6-1,.6-1.6s-.2-1.2-.6-1.6c-.4-.4-1-.7-1.7-1-.7-.2-1.4-.4-2.1-.6-1.3-.2-2.4-.5-3.4-.9-1-.4-1.8-.9-2.4-1.6-.6-.7-.9-1.6-.9-2.7s.3-2,.9-2.8,1.4-1.4,2.4-1.8c1-.4,2.1-.7,3.2-.7s1.9.1,2.8.4c.9.3,1.7.7,2.4,1.3.7.6,1.2,1.3,1.5,2.1l-2.1.8c-.2-.5-.5-.9-1-1.3-.5-.4-1-.6-1.7-.8-.6-.2-1.3-.3-2-.3-.8,0-1.5.1-2.2.4-.7.3-1.2.6-1.6,1.1-.4.5-.6,1-.6,1.6s.2,1.3.6,1.7c.4.4.9.7,1.6.9.7.2,1.4.4,2.2.5,1.2.2,2.3.5,3.3.9,1,.4,1.8,1,2.4,1.7s.9,1.6.9,2.6-.3,2-.9,2.8c-.6.8-1.4,1.4-2.4,1.8-1,.4-2.1.6-3.3.6Z"/>
    <path d="M167.1,554.9h2.3l-7.1,19.5h-2.3l2.4-6.5-4.7-13h2.4l3.4,10,3.7-10Z"/>
    <path d="M186.7,568.2c-1.2,0-2.4-.2-3.5-.7-1.1-.5-2-1.2-2.9-2-.8-.9-1.5-1.9-1.9-3-.5-1.1-.7-2.4-.7-3.7s.2-2.5.7-3.7c.5-1.1,1.1-2.1,1.9-3,.8-.9,1.8-1.5,2.9-2,1.1-.5,2.2-.7,3.5-.7s2.4.2,3.5.7c1.1.5,2,1.2,2.9,2,.8.9,1.5,1.9,1.9,3,.5,1.1.7,2.4.7,3.7s-.2,2.5-.7,3.7c-.5,1.1-1.1,2.1-1.9,3-.8.9-1.8,1.5-2.9,2-1.1.5-2.2.7-3.5.7ZM186.7,566c.9,0,1.8-.2,2.6-.6.8-.4,1.5-.9,2.2-1.6.6-.7,1.1-1.4,1.5-2.3s.5-1.8.5-2.8-.2-1.9-.5-2.8c-.4-.9-.8-1.7-1.5-2.3s-1.3-1.2-2.2-1.6c-.8-.4-1.7-.6-2.6-.6s-1.8.2-2.6.6c-.8.4-1.5.9-2.2,1.6-.6.7-1.1,1.4-1.5,2.3s-.5,1.8-.5,2.8.2,1.9.5,2.8.8,1.6,1.5,2.3c.6.7,1.3,1.2,2.2,1.6s1.7.6,2.6.6Z"/>
    <path d="M197.7,567.9l3.5-18.2h1.7l4.9,12.9,4.9-12.9h1.7l3.5,18.2h-2.2l-2.6-13.2-4.6,12.2h-1.4l-4.6-12.2-2.5,13.2h-2.2Z"/>
    <path d="M220.6,567.9v-18.2h6c1,0,1.9.2,2.6.7.8.5,1.4,1.1,1.9,1.9.5.8.7,1.7.7,2.7s-.2,1.9-.7,2.7c-.5.8-1.1,1.5-1.9,1.9s-1.7.7-2.6.7h-3.8v7.5h-2.2ZM222.8,558.2h3.6c.6,0,1.1-.1,1.6-.4.5-.3.9-.7,1.2-1.2.3-.5.4-1.1.4-1.7s-.1-1.2-.4-1.7c-.3-.5-.7-.9-1.2-1.2-.5-.3-1-.4-1.6-.4h-3.6v6.6Z"/>
  </g>
  <g>
    <path d="M607.7,635.1h3.7l6.6,18.2h-3.4l-1.2-3.2h-7.8l-1.2,3.2h-3.4l6.6-18.2ZM606.8,646.9h5.5l-2.7-7.5-2.7,7.5Z"/>
    <path d="M619.1,648.5v-8.2h3.2v7.4c0,.5.1,1,.4,1.4.3.4.6.8,1,1,.4.2.9.4,1.4.4s1-.1,1.4-.4.8-.6,1-1c.3-.4.4-.9.4-1.4v-7.4h3.2v13s-3.2,0-3.2,0v-1.2c-.5.5-1,.8-1.6,1.1-.6.3-1.3.4-2,.4s-1.8-.2-2.6-.7c-.8-.5-1.4-1.1-1.9-1.9-.5-.8-.7-1.6-.7-2.6Z"/>
    <path d="M633.6,653.3v-13h3.2v1.2c.4-.5,1-.8,1.6-1.1.6-.3,1.3-.4,2-.4s1.7.2,2.5.6c.8.4,1.4,1,1.8,1.7.5-.7,1.1-1.3,1.8-1.7.8-.4,1.6-.6,2.5-.6s1.8.2,2.6.7c.8.5,1.4,1.1,1.9,1.9s.7,1.6.7,2.6v8.2h-3.2v-7.4c0-.5-.1-1-.4-1.4-.2-.4-.6-.8-1-1-.4-.3-.9-.4-1.4-.4s-1,.1-1.4.4c-.4.2-.7.6-1,1-.3.4-.4.9-.4,1.4v7.4h-3.2v-7.4c0-.5-.1-1-.4-1.4-.2-.4-.6-.7-1-1s-.9-.4-1.4-.4-1,.1-1.4.4-.7.6-1,1c-.2.4-.4.9-.4,1.4v7.4h-3.2Z"/>
    <path d="M662.2,653.6c-1.2,0-2.3-.3-3.3-.9-1-.6-1.8-1.4-2.4-2.5s-.9-2.2-.9-3.4.2-1.8.5-2.7c.3-.8.8-1.6,1.4-2.2.6-.6,1.3-1.1,2.1-1.5.8-.4,1.6-.5,2.5-.5s1.9.2,2.8.6c.8.4,1.6,1,2.2,1.8.6.7,1,1.6,1.3,2.5s.3,2,.2,3h-9.5c.1.5.3.9.6,1.3s.6.7,1.1.9.9.3,1.4.4c.6,0,1.1-.1,1.5-.4.5-.3.8-.6,1.1-1.1l3.2.8c-.5,1.2-1.3,2.1-2.4,2.8s-2.2,1.1-3.5,1.1ZM659,645.5h6.4c0-.5-.3-1-.6-1.4-.3-.4-.7-.8-1.1-1-.5-.3-.9-.4-1.5-.4s-1,.1-1.4.4-.8.6-1.1,1c-.3.4-.5.9-.6,1.4Z"/>
    <path d="M682.6,645.1v8.2h-3.2v-7.4c0-.5-.1-1-.4-1.4-.3-.4-.6-.8-1-1-.4-.2-.9-.4-1.4-.4s-1,.1-1.4.4c-.4.2-.8.6-1,1-.2.4-.4.9-.4,1.4v7.4h-3.2v-13s3.2,0,3.2,0v1.2c.5-.5,1-.8,1.6-1.1.6-.3,1.3-.4,2-.4s1.8.2,2.6.7c.8.5,1.4,1.1,1.9,1.9s.7,1.6.7,2.6Z"/>
    <path d="M692.2,643.5h-2.5v9.8h-3.2v-9.8h-1.9v-3.2h1.9v-4.1h3.2v4.1h2.5v3.2Z"/>
    <path d="M704,640.3h3.2v13h-3.2v-1.6c-.5.6-1,1.1-1.6,1.4s-1.3.5-2.1.5-1.9-.2-2.7-.5c-.8-.4-1.6-.9-2.2-1.5s-1.1-1.4-1.5-2.2c-.4-.8-.5-1.7-.5-2.7s.2-1.8.5-2.6c.3-.8.8-1.5,1.4-2.1s1.3-1.1,2.1-1.4c.8-.3,1.7-.5,2.6-.5s1.6.2,2.3.6c.7.4,1.3.9,1.7,1.5v-1.7ZM700.3,650.6c.7,0,1.3-.2,1.8-.5.5-.3.9-.8,1.2-1.4.3-.6.4-1.2.4-1.9s-.1-1.3-.4-1.9c-.3-.6-.7-1-1.2-1.4s-1.1-.5-1.8-.5-1.3.2-1.8.5c-.5.3-1,.8-1.3,1.4s-.5,1.2-.5,1.9.2,1.3.5,1.9c.3.6.8,1,1.3,1.4.5.3,1.2.5,1.8.5Z"/>
    <path d="M716.1,653.3v-19.5h3.2v19.5h-3.2Z"/>
    <path d="M732,640.3h3.2v13h-3.2v-1.6c-.5.6-1,1.1-1.6,1.4s-1.3.5-2.1.5-1.9-.2-2.7-.5c-.8-.4-1.6-.9-2.2-1.5s-1.1-1.4-1.5-2.2c-.4-.8-.5-1.7-.5-2.7s.2-1.8.5-2.6c.3-.8.8-1.5,1.4-2.1s1.3-1.1,2.1-1.4c.8-.3,1.7-.5,2.6-.5s1.6.2,2.3.6c.7.4,1.3.9,1.7,1.5v-1.7ZM728.3,650.6c.7,0,1.3-.2,1.8-.5.5-.3.9-.8,1.2-1.4.3-.6.4-1.2.4-1.9s-.1-1.3-.4-1.9c-.3-.6-.7-1-1.2-1.4s-1.1-.5-1.8-.5-1.3.2-1.8.5c-.5.3-1,.8-1.3,1.4s-.5,1.2-.5,1.9.2,1.3.5,1.9c.3.6.8,1,1.3,1.4.5.3,1.2.5,1.8.5Z"/>
    <path d="M609.7,679.3h-4.1l-4.7-13h3.4l3.4,9.4,3.4-9.4h3.4l-4.7,13Z"/>
    <path d="M618,664.6c-.5,0-.9-.2-1.2-.5-.3-.3-.5-.7-.5-1.2s.2-.8.5-1.2c.3-.3.7-.5,1.2-.5s.8.2,1.2.5c.3.3.5.7.5,1.2s-.2.9-.5,1.2c-.3.3-.7.5-1.2.5ZM616.4,666.3h3.2v13h-3.2v-13Z"/>
    <path d="M626.3,679.5c-.7,0-1.3-.2-2-.4-.6-.2-1.2-.5-1.7-.9s-.9-.9-1.1-1.4l2.7-1.1c.1.2.3.4.5.6s.5.4.8.5c.3.1.7.2,1.1.2s.6,0,.9-.1.5-.2.7-.4c.2-.2.3-.4.3-.7s-.1-.6-.3-.7c-.2-.2-.5-.3-.8-.4-.3,0-.7-.2-1-.3-.8-.2-1.6-.4-2.3-.8s-1.3-.8-1.7-1.3-.6-1.2-.6-2,.2-1.6.7-2.2,1-1.1,1.8-1.4c.7-.3,1.5-.5,2.4-.5s2,.2,2.8.6c.9.4,1.5,1,2,1.8l-2.5,1.5c-.1-.2-.3-.4-.5-.6s-.5-.3-.7-.4-.6-.2-.9-.2c-.4,0-.7,0-1.1.1-.3,0-.6.2-.8.4-.2.2-.3.5-.3.8s.1.6.4.7c.3.2.6.3.9.4.4,0,.7.2,1.1.3.8.3,1.5.6,2.2.9.7.4,1.2.8,1.6,1.3.4.5.6,1.2.6,1.9,0,.8-.3,1.6-.8,2.2-.5.6-1.2,1.1-1.9,1.4s-1.6.5-2.5.4Z"/>
    <path d="M635.1,664.6c-.5,0-.9-.2-1.2-.5-.3-.3-.5-.7-.5-1.2s.2-.8.5-1.2c.3-.3.7-.5,1.2-.5s.8.2,1.2.5c.3.3.5.7.5,1.2s-.2.9-.5,1.2c-.3.3-.7.5-1.2.5ZM633.5,666.3h3.2v13h-3.2v-13Z"/>
    <path d="M646.7,665.9c1.3,0,2.4.3,3.5.9,1,.6,1.9,1.4,2.5,2.5.6,1,.9,2.2.9,3.4s-.2,1.8-.5,2.7-.8,1.6-1.5,2.2c-.6.6-1.4,1.1-2.2,1.5-.8.4-1.7.5-2.7.5s-1.5-.2-2.2-.6c-.6-.4-1.2-.8-1.6-1.4v1.7h-3.2v-19.5h3.2v8.1c.4-.6,1-1.1,1.6-1.4.6-.4,1.3-.6,2.2-.6ZM646.7,676.6c.7,0,1.3-.2,1.8-.5.6-.3,1-.8,1.3-1.4.3-.6.5-1.2.5-1.9s-.2-1.3-.5-1.9-.8-1-1.3-1.4-1.2-.5-1.8-.5-1.2.2-1.8.5c-.5.3-.9.8-1.2,1.4-.3.6-.4,1.2-.4,1.9s.1,1.3.4,1.9c.3.6.7,1,1.2,1.4.5.3,1.1.5,1.8.5Z"/>
    <path d="M656.9,664.6c-.5,0-.9-.2-1.2-.5-.3-.3-.5-.7-.5-1.2s.2-.8.5-1.2c.3-.3.7-.5,1.2-.5s.8.2,1.2.5c.3.3.5.7.5,1.2s-.2.9-.5,1.2c-.3.3-.7.5-1.2.5ZM655.3,666.3h3.2v13h-3.2v-13Z"/>
    <path d="M661.6,679.3v-19.5h3.2v19.5h-3.2Z"/>
    <path d="M669.5,664.6c-.5,0-.9-.2-1.2-.5-.3-.3-.5-.7-.5-1.2s.2-.8.5-1.2c.3-.3.7-.5,1.2-.5s.8.2,1.2.5c.3.3.5.7.5,1.2s-.2.9-.5,1.2c-.3.3-.7.5-1.2.5ZM667.9,666.3h3.2v13h-3.2v-13Z"/>
    <path d="M683.7,659.8h3.2v19.5h-3.2v-1.6c-.4.6-.9,1.1-1.6,1.4-.6.4-1.4.5-2.2.5s-1.8-.2-2.7-.5c-.8-.4-1.5-.8-2.2-1.5s-1.1-1.4-1.5-2.2c-.4-.8-.5-1.7-.5-2.7s.2-1.8.5-2.7c.4-.8.8-1.5,1.5-2.2s1.4-1.1,2.2-1.5,1.7-.5,2.7-.5,1.6.2,2.2.5c.6.4,1.2.8,1.6,1.4v-8.1ZM680,676.6c.7,0,1.3-.2,1.8-.5.5-.3.9-.8,1.2-1.4.3-.6.4-1.2.4-1.9s-.1-1.3-.4-1.9c-.3-.6-.7-1-1.2-1.4s-1.1-.5-1.8-.5-1.3.2-1.8.5c-.5.3-1,.8-1.3,1.4s-.5,1.2-.5,1.9.2,1.3.5,1.9c.3.6.8,1,1.3,1.4.5.3,1.2.5,1.8.5Z"/>
    <path d="M699.6,666.3h3.2v13h-3.2v-1.6c-.5.6-1,1.1-1.6,1.4s-1.3.5-2.1.5-1.9-.2-2.7-.5c-.8-.4-1.6-.9-2.2-1.5s-1.1-1.4-1.5-2.2c-.4-.8-.5-1.7-.5-2.7s.2-1.8.5-2.6c.3-.8.8-1.5,1.4-2.1s1.3-1.1,2.1-1.4c.8-.3,1.7-.5,2.6-.5s1.6.2,2.3.6c.7.4,1.3.9,1.7,1.5v-1.7ZM695.9,676.6c.7,0,1.3-.2,1.8-.5.5-.3.9-.8,1.2-1.4.3-.6.4-1.2.4-1.9s-.1-1.3-.4-1.9c-.3-.6-.7-1-1.2-1.4s-1.1-.5-1.8-.5-1.3.2-1.8.5c-.5.3-1,.8-1.3,1.4s-.5,1.2-.5,1.9.2,1.3.5,1.9c.3.6.8,1,1.3,1.4.5.3,1.2.5,1.8.5Z"/>
    <path d="M715,659.8h3.2v19.5h-3.2v-1.6c-.4.6-.9,1.1-1.6,1.4-.6.4-1.4.5-2.2.5s-1.8-.2-2.7-.5c-.8-.4-1.5-.8-2.2-1.5s-1.1-1.4-1.5-2.2c-.4-.8-.5-1.7-.5-2.7s.2-1.8.5-2.7c.4-.8.8-1.5,1.5-2.2s1.4-1.1,2.2-1.5,1.7-.5,2.7-.5,1.6.2,2.2.5c.6.4,1.2.8,1.6,1.4v-8.1ZM711.2,676.6c.7,0,1.3-.2,1.8-.5.5-.3.9-.8,1.2-1.4.3-.6.4-1.2.4-1.9s-.1-1.3-.4-1.9c-.3-.6-.7-1-1.2-1.4s-1.1-.5-1.8-.5-1.3.2-1.8.5c-.5.3-1,.8-1.3,1.4s-.5,1.2-.5,1.9.2,1.3.5,1.9c.3.6.8,1,1.3,1.4.5.3,1.2.5,1.8.5Z"/>
    <path d="M737.3,659.8h3.2v19.5h-3.2v-1.6c-.4.6-.9,1.1-1.6,1.4-.6.4-1.4.5-2.2.5s-1.8-.2-2.7-.5c-.8-.4-1.5-.8-2.2-1.5s-1.1-1.4-1.5-2.2c-.4-.8-.5-1.7-.5-2.7s.2-1.8.5-2.7c.4-.8.8-1.5,1.5-2.2s1.4-1.1,2.2-1.5,1.7-.5,2.7-.5,1.6.2,2.2.5c.6.4,1.2.8,1.6,1.4v-8.1ZM733.6,676.6c.7,0,1.3-.2,1.8-.5.5-.3.9-.8,1.2-1.4.3-.6.4-1.2.4-1.9s-.1-1.3-.4-1.9c-.3-.6-.7-1-1.2-1.4s-1.1-.5-1.8-.5-1.3.2-1.8.5c-.5.3-1,.8-1.3,1.4s-.5,1.2-.5,1.9.2,1.3.5,1.9c.3.6.8,1,1.3,1.4.5.3,1.2.5,1.8.5Z"/>
    <path d="M749.2,679.6c-1.2,0-2.3-.3-3.3-.9-1-.6-1.8-1.4-2.4-2.5s-.9-2.2-.9-3.4.2-1.8.5-2.7c.3-.8.8-1.6,1.4-2.2.6-.6,1.3-1.1,2.1-1.5.8-.4,1.6-.5,2.5-.5s1.9.2,2.8.6c.8.4,1.6,1,2.2,1.8.6.7,1,1.6,1.3,2.5s.3,2,.2,3h-9.5c.1.5.3.9.6,1.3s.6.7,1.1.9.9.3,1.4.4c.6,0,1.1-.1,1.5-.4.5-.3.8-.6,1.1-1.1l3.2.8c-.5,1.2-1.3,2.1-2.4,2.8s-2.2,1.1-3.5,1.1ZM746,671.5h6.4c0-.5-.3-1-.6-1.4-.3-.4-.7-.8-1.1-1-.5-.3-.9-.4-1.5-.4s-1,.1-1.4.4-.8.6-1.1,1c-.3.4-.5.9-.6,1.4Z"/>
    <path d="M771.2,669.5h-2.5v9.8h-3.2v-9.8h-1.9v-3.2h1.9v-4.1h3.2v4.1h2.5v3.2Z"/>
    <path d="M773,674.5v-8.2h3.2v7.4c0,.5.1,1,.4,1.4.3.4.6.8,1,1,.4.2.9.4,1.4.4s1-.1,1.4-.4.8-.6,1-1c.3-.4.4-.9.4-1.4v-7.4h3.2v13s-3.2,0-3.2,0v-1.2c-.5.5-1,.8-1.6,1.1-.6.3-1.3.4-2,.4s-1.8-.2-2.6-.7c-.8-.5-1.4-1.1-1.9-1.9-.5-.8-.7-1.6-.7-2.6Z"/>
    <path d="M605.5,705.5c-.7,0-1.3-.2-2-.4-.6-.2-1.2-.5-1.7-.9s-.9-.9-1.1-1.4l2.7-1.1c.1.2.3.4.5.6s.5.4.8.5c.3.1.7.2,1.1.2s.6,0,.9-.1.5-.2.7-.4c.2-.2.3-.4.3-.7s-.1-.6-.3-.7c-.2-.2-.5-.3-.8-.4-.3,0-.7-.2-1-.3-.8-.2-1.6-.4-2.3-.8s-1.3-.8-1.7-1.3-.6-1.2-.6-2,.2-1.6.7-2.2,1-1.1,1.8-1.4c.7-.3,1.5-.5,2.4-.5s2,.2,2.8.6c.9.4,1.5,1,2,1.8l-2.5,1.5c-.1-.2-.3-.4-.5-.6s-.5-.3-.7-.4-.6-.2-.9-.2c-.4,0-.7,0-1.1.1-.3,0-.6.2-.8.4-.2.2-.3.5-.3.8s.1.6.4.7c.3.2.6.3.9.4.4,0,.7.2,1.1.3.8.3,1.5.6,2.2.9.7.4,1.2.8,1.6,1.3.4.5.6,1.2.6,1.9,0,.8-.3,1.6-.8,2.2-.5.6-1.2,1.1-1.9,1.4s-1.6.5-2.5.4Z"/>
    <path d="M614.3,690.6c-.5,0-.9-.2-1.2-.5-.3-.3-.5-.7-.5-1.2s.2-.8.5-1.2c.3-.3.7-.5,1.2-.5s.8.2,1.2.5c.3.3.5.7.5,1.2s-.2.9-.5,1.2c-.3.3-.7.5-1.2.5ZM612.7,692.3h3.2v13h-3.2v-13Z"/>
    <path d="M625.9,695.5h-2.5v9.8h-3.2v-9.8h-1.9v-3.2h1.9v-4.1h3.2v4.1h2.5v3.2Z"/>
    <path d="M629.7,690.6c-.5,0-.9-.2-1.2-.5-.3-.3-.5-.7-.5-1.2s.2-.8.5-1.2c.3-.3.7-.5,1.2-.5s.8.2,1.2.5c.3.3.5.7.5,1.2s-.2.9-.5,1.2c-.3.3-.7.5-1.2.5ZM628.1,692.3h3.2v13h-3.2v-13Z"/>
    <path d="M639.8,705.6c-1.2,0-2.3-.3-3.3-.9-1-.6-1.8-1.4-2.4-2.5-.6-1-.9-2.2-.9-3.4s.2-1.8.5-2.7c.3-.8.8-1.6,1.4-2.2.6-.6,1.3-1.1,2.1-1.5.8-.4,1.6-.5,2.5-.5s2.3.3,3.3.9c1,.6,1.8,1.4,2.4,2.5s.9,2.2.9,3.5-.2,1.8-.5,2.7c-.3.8-.8,1.5-1.4,2.2-.6.6-1.3,1.1-2.1,1.5-.8.4-1.6.5-2.5.5ZM639.8,702.5c.6,0,1.2-.2,1.7-.5.5-.3.9-.8,1.2-1.3.3-.6.4-1.2.4-1.8s-.1-1.3-.4-1.9c-.3-.6-.7-1-1.2-1.3s-1.1-.5-1.7-.5-1.2.2-1.7.5c-.5.3-.9.8-1.2,1.4-.3.6-.4,1.2-.4,1.8s.2,1.3.5,1.9c.3.6.7,1,1.2,1.3.5.3,1.1.5,1.7.5Z"/>
    <path d="M661.6,705.3h-3.1l-4.3-13h3.1l2.8,8.4,2.8-8.4h3.1l2.8,8.4,2.8-8.4h3.1l-4.3,13h-3.1l-2.8-8.5-2.8,8.5Z"/>
    <path d="M681.8,705.6c-1.2,0-2.3-.3-3.3-.9-1-.6-1.8-1.4-2.4-2.5s-.9-2.2-.9-3.4.2-1.8.5-2.7c.3-.8.8-1.6,1.4-2.2.6-.6,1.3-1.1,2.1-1.5.8-.4,1.6-.5,2.5-.5s1.9.2,2.8.6c.8.4,1.6,1,2.2,1.8.6.7,1,1.6,1.3,2.5s.3,2,.2,3h-9.5c.1.5.3.9.6,1.3s.6.7,1.1.9.9.3,1.4.4c.6,0,1.1-.1,1.5-.4.5-.3.8-.6,1.1-1.1l3.2.8c-.5,1.2-1.3,2.1-2.4,2.8s-2.2,1.1-3.5,1.1ZM678.6,697.5h6.4c0-.5-.3-1-.6-1.4-.3-.4-.7-.8-1.1-1-.5-.3-.9-.4-1.5-.4s-1,.1-1.4.4-.8.6-1.1,1c-.3.4-.5.9-.6,1.4Z"/>
    <path d="M697.1,691.9c1.3,0,2.4.3,3.5.9,1,.6,1.9,1.4,2.5,2.5.6,1,.9,2.2.9,3.4s-.2,1.8-.5,2.7-.8,1.6-1.5,2.2c-.6.6-1.4,1.1-2.2,1.5-.8.4-1.7.5-2.7.5s-1.5-.2-2.2-.6c-.6-.4-1.2-.8-1.6-1.4v1.7h-3.2v-19.5h3.2v8.1c.4-.6,1-1.1,1.6-1.4.6-.4,1.3-.6,2.2-.6ZM697,702.6c.7,0,1.3-.2,1.8-.5.6-.3,1-.8,1.3-1.4.3-.6.5-1.2.5-1.9s-.2-1.3-.5-1.9-.8-1-1.3-1.4-1.2-.5-1.8-.5-1.2.2-1.8.5c-.5.3-.9.8-1.2,1.4-.3.6-.4,1.2-.4,1.9s.1,1.3.4,1.9c.3.6.7,1,1.2,1.4.5.3,1.1.5,1.8.5Z"/>
    <path d="M721.5,701.9l2,1.1c-.6.8-1.3,1.5-2.2,2-.9.5-1.9.7-2.9.7s-2.3-.3-3.3-.9c-1-.6-1.8-1.4-2.4-2.5-.6-1-.9-2.2-.9-3.4s.2-1.8.5-2.7c.3-.8.8-1.6,1.4-2.2.6-.6,1.3-1.1,2.1-1.5.8-.4,1.6-.5,2.5-.5s2,.2,2.9.7c.9.5,1.7,1.2,2.2,2l-2,1.1c-.4-.5-.9-.9-1.5-1.2s-1.2-.4-1.8-.4-1.5.2-2.2.6c-.7.4-1.2,1-1.6,1.7-.4.7-.6,1.5-.6,2.3s.2,1.6.6,2.3c.4.7.9,1.3,1.6,1.7.7.4,1.4.6,2.2.6s1.2-.1,1.8-.4,1-.7,1.4-1.1Z"/>
    <path d="M731.2,705.6c-1.2,0-2.3-.3-3.3-.9-1-.6-1.8-1.4-2.4-2.5-.6-1-.9-2.2-.9-3.4s.2-1.8.5-2.7c.3-.8.8-1.6,1.4-2.2.6-.6,1.3-1.1,2.1-1.5.8-.4,1.6-.5,2.5-.5s2.3.3,3.3.9c1,.6,1.8,1.4,2.4,2.5s.9,2.2.9,3.5-.2,1.8-.5,2.7c-.3.8-.8,1.5-1.4,2.2-.6.6-1.3,1.1-2.1,1.5-.8.4-1.6.5-2.5.5ZM731.2,703.4c.8,0,1.5-.2,2.2-.6.7-.4,1.2-1,1.5-1.7s.6-1.5.6-2.3-.2-1.6-.6-2.3-.9-1.3-1.6-1.7c-.6-.4-1.4-.6-2.2-.6s-1.5.2-2.2.6c-.7.4-1.2,1-1.5,1.7-.4.7-.6,1.5-.6,2.3s.2,1.7.6,2.4c.4.7.9,1.3,1.6,1.7.7.4,1.4.6,2.2.6Z"/>
    <path d="M751.4,697.2v8.1h-2.2v-7.6c0-.7-.2-1.3-.5-1.8-.3-.5-.7-1-1.3-1.3-.5-.3-1.1-.5-1.8-.5s-1.2.2-1.8.5c-.5.3-1,.7-1.3,1.3-.3.5-.5,1.1-.5,1.8v7.6h-2.2v-13h2.2v1.6c.5-.6,1-1.1,1.7-1.4s1.5-.5,2.3-.5,1.9.2,2.7.7,1.4,1.1,1.9,1.9c.5.8.7,1.7.7,2.7Z"/>
    <path d="M759.7,700.4v-8.1h2.2v7.6c0,.7.2,1.3.5,1.8.3.5.8,1,1.3,1.3.5.3,1.1.5,1.8.5s1.3-.2,1.8-.5,1-.7,1.3-1.3c.3-.5.5-1.1.5-1.8v-7.6h2.2v13s-2.2,0-2.2,0v-1.7c-.5.6-1.1,1.1-1.8,1.5s-1.5.5-2.3.5-1.9-.2-2.7-.7c-.8-.5-1.4-1.1-1.9-1.9-.5-.8-.7-1.7-.7-2.7Z"/>
    <path d="M785.3,697.2v8.1h-2.2v-7.6c0-.7-.2-1.3-.5-1.8-.3-.5-.7-1-1.3-1.3-.5-.3-1.1-.5-1.8-.5s-1.2.2-1.8.5c-.5.3-1,.7-1.3,1.3-.3.5-.5,1.1-.5,1.8v7.6h-2.2v-13h2.2v1.6c.5-.6,1-1.1,1.7-1.4s1.5-.5,2.3-.5,1.9.2,2.7.7,1.4,1.1,1.9,1.9c.5.8.7,1.7.7,2.7Z"/>
    <path d="M612.1,711.8h2.2v19.5h-2.2v-2.2c-.4.8-1,1.4-1.8,1.8-.7.5-1.6.7-2.6.7s-1.8-.2-2.7-.5c-.8-.4-1.5-.8-2.2-1.5s-1.1-1.4-1.5-2.2c-.4-.8-.5-1.7-.5-2.7s.2-1.8.5-2.7c.4-.8.8-1.6,1.5-2.2.6-.6,1.4-1.1,2.2-1.5.8-.4,1.7-.5,2.7-.5s1.9.2,2.6.7c.7.5,1.3,1.1,1.8,1.8v-8.7ZM607.7,729.5c.9,0,1.6-.2,2.2-.6.6-.4,1.1-1,1.5-1.7.3-.7.5-1.5.5-2.4s-.2-1.7-.5-2.4-.8-1.3-1.5-1.7c-.6-.4-1.4-.6-2.2-.6s-1.6.2-2.3.6c-.7.4-1.3,1-1.7,1.7s-.6,1.5-.6,2.4.2,1.7.6,2.4c.4.7,1,1.3,1.7,1.7.7.4,1.5.6,2.3.6Z"/>
    <path d="M618.5,716.2c-.3,0-.6-.1-.9-.3-.2-.2-.4-.5-.4-.8s.1-.6.4-.8c.2-.2.5-.3.9-.3s.6.1.9.3c.2.2.4.5.4.8s-.1.6-.3.8-.5.3-.9.3ZM617.4,718.3h2.2v13h-2.2v-13Z"/>
    <path d="M626.6,731.5c-.7,0-1.4-.2-2-.4s-1.2-.6-1.7-1c-.5-.4-.9-.9-1.1-1.4l1.9-.8c.1.3.4.6.7.8.3.3.7.5,1.2.6.4.2.9.2,1.3.2s.9,0,1.3-.2.8-.4,1-.7c.3-.3.4-.6.4-1s-.1-.8-.4-1c-.3-.2-.7-.4-1.1-.6-.4-.1-.9-.3-1.3-.4-.9-.2-1.7-.5-2.4-.8s-1.3-.7-1.7-1.2c-.4-.5-.6-1.1-.6-1.9s.2-1.5.7-2.1c.4-.6,1-1,1.8-1.4.7-.3,1.5-.5,2.3-.5s2,.2,2.9.7c.9.5,1.5,1.1,1.9,1.8l-1.8,1c-.1-.3-.4-.6-.7-.8s-.7-.4-1-.6-.8-.2-1.2-.2c-.5,0-1,0-1.4.2s-.8.4-1.1.7c-.3.3-.4.7-.4,1.1s.1.8.4,1c.3.2.7.4,1.1.5.5.1,1,.3,1.5.5.8.3,1.5.5,2.2.9.7.3,1.2.7,1.7,1.2.4.5.6,1.1.6,1.8,0,.8-.2,1.5-.7,2.1-.5.6-1.1,1-1.9,1.4-.8.3-1.6.5-2.4.4Z"/>
    <path d="M639.4,731.6c-1.2,0-2.3-.3-3.3-.9-1-.6-1.8-1.4-2.4-2.5-.6-1-.9-2.2-.9-3.4s.2-1.8.5-2.7c.3-.8.8-1.6,1.4-2.2.6-.6,1.3-1.1,2.1-1.5.8-.4,1.6-.5,2.5-.5s1.9.2,2.7.6,1.5.9,2.1,1.6c.6.7,1,1.5,1.3,2.4.3.9.4,1.9.3,3h-10.6c.1.7.3,1.4.7,2,.4.6.9,1,1.5,1.4.6.3,1.3.5,2,.5.8,0,1.5-.2,2.1-.6.6-.4,1.1-1,1.5-1.7l2.2.5c-.5,1.2-1.3,2.1-2.4,2.8s-2.2,1.1-3.5,1.1ZM635.2,723.9h8.5c0-.7-.3-1.4-.7-2-.4-.6-.9-1.1-1.5-1.4s-1.3-.5-2-.5-1.4.2-2,.5c-.6.4-1.1.8-1.5,1.4s-.6,1.3-.7,2Z"/>
    <path d="M659.6,723.2v8.1h-2.2v-7.6c0-.7-.2-1.3-.5-1.8-.3-.5-.7-1-1.3-1.3-.5-.3-1.1-.5-1.8-.5s-1.2.2-1.8.5c-.5.3-1,.7-1.3,1.3-.3.5-.5,1.1-.5,1.8v7.6h-2.2v-13h2.2v1.6c.5-.6,1-1.1,1.7-1.4s1.5-.5,2.3-.5,1.9.2,2.7.7,1.4,1.1,1.9,1.9c.5.8.7,1.7.7,2.7ZM655.9,716.7c-.3,0-.7-.1-1.1-.3s-.8-.4-1.2-.7-.8-.5-1.1-.7-.6-.2-.8-.2c-.2,0-.3.2-.4.4s-.1.5,0,.8l-1.4.4c-.2-.5-.2-1,0-1.5.1-.5.4-.9.7-1.2.4-.3.8-.4,1.4-.4s.7,0,1.1.3c.4.2.8.4,1.2.7.4.2.8.5,1.1.7.3.2.6.3.8.3s.3,0,.4-.2c0-.1.1-.3.2-.5,0-.2,0-.4,0-.5l1.4-.5c.2.6.2,1.1,0,1.6-.1.5-.4.9-.8,1.2s-.8.4-1.4.4Z"/>
    <path d="M667.6,731.6c-1.2,0-2.3-.3-3.3-.9-1-.6-1.8-1.4-2.4-2.5-.6-1-.9-2.2-.9-3.4s.2-1.8.5-2.7c.3-.8.8-1.6,1.4-2.2.6-.6,1.3-1.1,2.1-1.5.8-.4,1.6-.5,2.5-.5s2.3.3,3.3.9c1,.6,1.8,1.4,2.4,2.5s.9,2.2.9,3.5-.2,1.8-.5,2.7c-.3.8-.8,1.5-1.4,2.2-.6.6-1.3,1.1-2.1,1.5-.8.4-1.6.5-2.5.5ZM667.6,729.4c.8,0,1.5-.2,2.2-.6.7-.4,1.2-1,1.5-1.7s.6-1.5.6-2.3-.2-1.6-.6-2.3-.9-1.3-1.6-1.7c-.6-.4-1.4-.6-2.2-.6s-1.5.2-2.2.6c-.7.4-1.2,1-1.5,1.7-.4.7-.6,1.5-.6,2.3s.2,1.7.6,2.4c.4.7.9,1.3,1.6,1.7.7.4,1.4.6,2.2.6Z"/>
    <path d="M693.2,718.3h2.2v13h-2.2v-2.2c-.5.8-1.1,1.4-1.8,1.8s-1.6.7-2.6.7-1.8-.2-2.7-.5-1.6-.9-2.2-1.5-1.1-1.4-1.5-2.2c-.4-.8-.5-1.7-.5-2.7s.2-1.8.5-2.6.8-1.5,1.4-2.2c.6-.6,1.3-1.1,2.2-1.5.8-.4,1.7-.5,2.6-.5s1.9.2,2.7.7c.8.5,1.4,1.1,1.9,1.9v-2.2ZM688.8,729.5c.9,0,1.6-.2,2.2-.6.6-.4,1.1-1,1.5-1.7.3-.7.5-1.5.5-2.4s-.2-1.7-.5-2.4-.8-1.3-1.5-1.7c-.6-.4-1.4-.6-2.2-.6s-1.6.2-2.3.6-1.3,1-1.7,1.7c-.4.7-.6,1.5-.6,2.4s.2,1.7.6,2.4c.4.7,1,1.3,1.7,1.7.7.4,1.5.6,2.3.6Z"/>
    <path d="M704.7,720.5h-3v10.8h-2.2v-10.8s-2.2,0-2.2,0v-2.2h2.2v-4.1s2.2,0,2.2,0v4.1h3v2.2Z"/>
    <path d="M707,731.3v-13h2.2v1.6c.5-.6,1-1.1,1.7-1.4s1.5-.5,2.3-.5,1,0,1.5.2l-.9,2.2c-.4-.1-.7-.2-1-.2-.6,0-1.2.2-1.8.5-.5.3-1,.7-1.3,1.3-.3.5-.5,1.1-.5,1.8v7.6h-2.2Z"/>
    <path d="M726,718.3h2.2v13h-2.2v-2.2c-.5.8-1.1,1.4-1.8,1.8s-1.6.7-2.6.7-1.8-.2-2.7-.5-1.6-.9-2.2-1.5-1.1-1.4-1.5-2.2c-.4-.8-.5-1.7-.5-2.7s.2-1.8.5-2.6.8-1.5,1.4-2.2c.6-.6,1.3-1.1,2.2-1.5.8-.4,1.7-.5,2.6-.5s1.9.2,2.7.7c.8.5,1.4,1.1,1.9,1.9v-2.2ZM721.7,729.5c.9,0,1.6-.2,2.2-.6.6-.4,1.1-1,1.5-1.7.3-.7.5-1.5.5-2.4s-.2-1.7-.5-2.4-.8-1.3-1.5-1.7c-.6-.4-1.4-.6-2.2-.6s-1.6.2-2.3.6-1.3,1-1.7,1.7c-.4.7-.6,1.5-.6,2.4s.2,1.7.6,2.4c.4.7,1,1.3,1.7,1.7.7.4,1.5.6,2.3.6Z"/>
    <path d="M739.5,727.9l2,1.1c-.6.8-1.3,1.5-2.2,2-.9.5-1.9.7-2.9.7s-2.3-.3-3.3-.9c-1-.6-1.8-1.4-2.4-2.5-.6-1-.9-2.2-.9-3.4s.2-1.8.5-2.7c.3-.8.8-1.6,1.4-2.2.6-.6,1.3-1.1,2.1-1.5.8-.4,1.6-.5,2.5-.5s2,.2,2.9.7c.9.5,1.7,1.2,2.2,2l-2,1.1c-.4-.5-.9-.9-1.5-1.2s-1.2-.4-1.8-.4-1.5.2-2.2.6c-.7.4-1.2,1-1.6,1.7-.4.7-.6,1.5-.6,2.3s.2,1.6.6,2.3c.4.7.9,1.3,1.6,1.7.7.4,1.4.6,2.2.6s1.2-.1,1.8-.4,1-.7,1.4-1.1Z"/>
    <path d="M750.5,720.5h-3v10.8h-2.2v-10.8s-2.2,0-2.2,0v-2.2h2.2v-4.1s2.2,0,2.2,0v4.1h3v2.2Z"/>
    <path d="M753.9,716.2c-.3,0-.6-.1-.9-.3-.2-.2-.4-.5-.4-.8s.1-.6.4-.8c.2-.2.5-.3.9-.3s.6.1.9.3c.2.2.4.5.4.8s-.1.6-.3.8-.5.3-.9.3ZM752.8,718.3h2.2v13h-2.2v-13Z"/>
    <path d="M764.6,731.3h-2.8l-4.7-13h2.3l3.8,10.5,3.8-10.5h2.3l-4.7,13Z"/>
    <path d="M776.6,731.6c-1.2,0-2.3-.3-3.3-.9-1-.6-1.8-1.4-2.4-2.5-.6-1-.9-2.2-.9-3.4s.2-1.8.5-2.7c.3-.8.8-1.6,1.4-2.2.6-.6,1.3-1.1,2.1-1.5.8-.4,1.6-.5,2.5-.5s2.3.3,3.3.9c1,.6,1.8,1.4,2.4,2.5s.9,2.2.9,3.5-.2,1.8-.5,2.7c-.3.8-.8,1.5-1.4,2.2-.6.6-1.3,1.1-2.1,1.5-.8.4-1.6.5-2.5.5ZM776.6,729.4c.8,0,1.5-.2,2.2-.6.7-.4,1.2-1,1.5-1.7s.6-1.5.6-2.3-.2-1.6-.6-2.3-.9-1.3-1.6-1.7c-.6-.4-1.4-.6-2.2-.6s-1.5.2-2.2.6c-.7.4-1.2,1-1.5,1.7-.4.7-.6,1.5-.6,2.3s.2,1.7.6,2.4c.4.7.9,1.3,1.6,1.7.7.4,1.4.6,2.2.6Z"/>
  </g>
  <g class="st5">
    <rect class="st10" x="303.2" y="552.4" width="15.1" height="468.5" transform="translate(-492.9 1050.3) rotate(-86.6)"/>
  </g>
  <rect class="st0" x="262.1" y="489.8" width="109.3" height="474.3" transform="translate(1061.2 453.9) rotate(93.4)"/>
  <text class="st6" transform="translate(111.9 729.6) rotate(3.4)"><tspan x="0" y="0">DISEÑO DE TEMAS</tspan></text>
  <g class="st3">
    <rect class="st10" x="502.6" y="875.9" width="12" height="477.8" transform="translate(-629.3 1569.2) rotate(-87.2)"/>
  </g>
  <rect class="st13" x="450.7" y="810.9" width="114.9" height="487.5" transform="translate(1586.1 597.7) rotate(92.8)"/>
  <text class="st8" transform="translate(305.8 1041) rotate(2.8)"><tspan x="0" y="0">VISUALIZACIÓN DE</tspan><tspan x="0" y="41.7">DATOS</tspan></text>
  <g>
    <path d="M76.7,976.5c-1.3,0-2.4-.2-3.5-.7-1.1-.5-2-1.2-2.8-2-.8-.9-1.4-1.9-1.9-3s-.7-2.4-.7-3.7.2-2.6.7-3.7c.5-1.1,1.1-2.1,2-3s1.8-1.5,2.9-2c1.1-.5,2.2-.7,3.4-.7s2.7.3,3.9,1c1.2.6,2.3,1.6,3.2,2.8l-2,1.1c-.7-.8-1.5-1.5-2.4-2-.9-.5-1.9-.7-2.8-.7s-1.8.2-2.6.6c-.8.4-1.5.9-2.2,1.6-.6.7-1.1,1.4-1.5,2.3s-.5,1.8-.5,2.8.2,1.9.5,2.8c.4.9.8,1.6,1.5,2.3.6.7,1.3,1.2,2.2,1.6.8.4,1.7.6,2.6.6s1.5-.1,2.1-.4c.7-.3,1.3-.6,1.9-1.1.6-.5,1.1-1,1.5-1.6.4-.6.7-1.3.9-2.1h-4.5v-2h7c0,1.3-.2,2.5-.7,3.6-.5,1.1-1.1,2.1-1.9,3s-1.8,1.5-2.8,2c-1.1.5-2.2.7-3.4.7Z"/>
    <path d="M93.7,976.5c-1.2,0-2.3-.3-3.3-.9-1-.6-1.8-1.4-2.4-2.5-.6-1-.9-2.2-.9-3.4s.2-1.8.5-2.7c.3-.8.8-1.6,1.4-2.2.6-.6,1.3-1.1,2.1-1.5s1.6-.5,2.5-.5,1.9.2,2.7.6,1.5.9,2.1,1.6,1,1.5,1.3,2.4c.3.9.4,1.9.3,3h-10.6c.1.7.3,1.4.7,2s.9,1,1.5,1.4,1.3.5,2,.5c.8,0,1.5-.2,2.1-.6.6-.4,1.1-1,1.5-1.7l2.2.5c-.5,1.2-1.3,2.1-2.4,2.8-1,.7-2.2,1.1-3.5,1.1ZM89.5,968.8h8.5c0-.7-.3-1.4-.7-2-.4-.6-.9-1.1-1.5-1.4s-1.3-.5-2-.5-1.4.2-2,.5c-.6.4-1.1.8-1.5,1.4s-.6,1.3-.7,2Z"/>
    <path d="M106.4,976.4c-.7,0-1.4-.2-2-.4s-1.2-.6-1.7-1c-.5-.4-.9-.9-1.1-1.4l1.9-.8c.1.3.4.6.7.8.3.3.7.5,1.2.6.4.2.9.2,1.3.2s.9,0,1.3-.2.8-.4,1-.7c.3-.3.4-.6.4-1s-.1-.8-.4-1c-.3-.2-.7-.4-1.1-.6-.4-.1-.9-.3-1.3-.4-.9-.2-1.7-.5-2.4-.8-.7-.3-1.3-.7-1.7-1.2-.4-.5-.6-1.1-.6-1.9s.2-1.5.7-2.1c.4-.6,1-1,1.8-1.4.7-.3,1.5-.5,2.3-.5s2,.2,2.9.7c.9.5,1.5,1.1,1.9,1.8l-1.8,1c-.1-.3-.4-.6-.7-.8-.3-.2-.6-.4-1-.6s-.8-.2-1.2-.2c-.5,0-1,0-1.4.2-.4.1-.8.4-1.1.7-.3.3-.4.7-.4,1.1s.1.8.4,1c.3.2.6.4,1.1.5.5.1,1,.3,1.5.5.8.3,1.5.5,2.2.9.7.3,1.2.7,1.7,1.2s.6,1.1.6,1.8c0,.8-.2,1.5-.7,2.1s-1.1,1-1.9,1.4c-.8.3-1.6.5-2.4.4Z"/>
    <path d="M120.3,965.4h-3v10.8h-2.2v-10.8s-2.2,0-2.2,0v-2.2h2.2v-4.1s2.2,0,2.2,0v4.1h3v2.2Z"/>
    <path d="M123.7,961.1c-.3,0-.6-.1-.9-.3s-.4-.5-.4-.8.1-.6.4-.8c.2-.2.5-.3.9-.3s.6.1.9.3c.2.2.4.5.4.8s-.1.6-.3.8-.5.3-.9.3ZM122.5,963.2h2.2v13h-2.2v-13Z"/>
    <path d="M133.4,976.5c-1.2,0-2.3-.3-3.3-.9-1-.6-1.8-1.4-2.4-2.5-.6-1-.9-2.2-.9-3.4s.2-1.8.5-2.7c.3-.8.8-1.6,1.4-2.2.6-.6,1.3-1.1,2.1-1.5s1.6-.5,2.5-.5,2.3.3,3.3.9c1,.6,1.8,1.4,2.4,2.5s.9,2.2.9,3.5-.2,1.8-.5,2.7-.8,1.5-1.4,2.2c-.6.6-1.3,1.1-2.1,1.5-.8.4-1.6.5-2.5.5ZM133.4,974.3c.8,0,1.5-.2,2.2-.6.7-.4,1.2-1,1.5-1.7.4-.7.6-1.5.6-2.3s-.2-1.6-.6-2.3c-.4-.7-.9-1.3-1.6-1.7s-1.4-.6-2.2-.6-1.5.2-2.2.6c-.6.4-1.2,1-1.5,1.7-.4.7-.6,1.5-.6,2.3s.2,1.7.6,2.4c.4.7.9,1.3,1.6,1.7.7.4,1.4.6,2.2.6Z"/>
    <path d="M153.6,968.1v8.1h-2.2v-7.6c0-.7-.2-1.3-.5-1.8-.3-.5-.8-1-1.3-1.3-.5-.3-1.1-.5-1.8-.5s-1.2.2-1.8.5c-.5.3-1,.7-1.3,1.3-.3.5-.5,1.1-.5,1.8v7.6h-2.2v-13h2.2v1.6c.5-.6,1-1.1,1.7-1.4.7-.4,1.5-.5,2.3-.5s1.9.2,2.7.7c.8.5,1.4,1.1,1.9,1.9.5.8.7,1.7.7,2.7Z"/>
    <path d="M166.4,963.2h2.2v13h-2.2v-2.2c-.5.8-1.1,1.4-1.8,1.8-.7.5-1.6.7-2.6.7s-1.8-.2-2.7-.5-1.6-.9-2.2-1.5c-.6-.6-1.1-1.4-1.5-2.2s-.5-1.7-.5-2.7.2-1.8.5-2.6.8-1.5,1.4-2.2c.6-.6,1.3-1.1,2.2-1.5.8-.4,1.7-.5,2.6-.5s1.9.2,2.7.7c.8.5,1.4,1.1,1.9,1.9v-2.2ZM162,974.4c.9,0,1.6-.2,2.2-.6.6-.4,1.1-1,1.5-1.7.3-.7.5-1.5.5-2.4s-.2-1.7-.5-2.4c-.3-.7-.8-1.3-1.5-1.7-.6-.4-1.4-.6-2.2-.6s-1.6.2-2.3.6c-.7.4-1.3,1-1.7,1.7s-.6,1.5-.6,2.4.2,1.7.6,2.4,1,1.3,1.7,1.7c.7.4,1.5.6,2.3.6Z"/>
    <path d="M184.1,965.4h-3v10.8h-2.2v-10.8s-2.2,0-2.2,0v-2.2h2.2v-4.1s2.2,0,2.2,0v4.1h3v2.2Z"/>
    <path d="M185.9,971.2v-8.1h2.2v7.6c0,.7.2,1.3.5,1.8.3.5.8,1,1.3,1.3.5.3,1.1.5,1.8.5s1.3-.2,1.8-.5c.5-.3,1-.7,1.3-1.3.3-.5.5-1.1.5-1.8v-7.6h2.2v13s-2.2,0-2.2,0v-1.7c-.5.6-1.1,1.1-1.8,1.5-.7.4-1.5.5-2.3.5s-1.9-.2-2.7-.7c-.8-.5-1.4-1.1-1.9-1.9-.5-.8-.7-1.7-.7-2.7Z"/>
    <path d="M204,976.4c-.7,0-1.4-.2-2-.4s-1.2-.6-1.7-1c-.5-.4-.9-.9-1.1-1.4l1.9-.8c.1.3.4.6.7.8.3.3.7.5,1.2.6.4.2.9.2,1.3.2s.9,0,1.3-.2.8-.4,1-.7c.3-.3.4-.6.4-1s-.1-.8-.4-1c-.3-.2-.7-.4-1.1-.6-.4-.1-.9-.3-1.3-.4-.9-.2-1.7-.5-2.4-.8-.7-.3-1.3-.7-1.7-1.2-.4-.5-.6-1.1-.6-1.9s.2-1.5.7-2.1c.4-.6,1-1,1.8-1.4.7-.3,1.5-.5,2.3-.5s2,.2,2.9.7c.9.5,1.5,1.1,1.9,1.8l-1.8,1c-.1-.3-.4-.6-.7-.8-.3-.2-.6-.4-1-.6s-.8-.2-1.2-.2c-.5,0-1,0-1.4.2-.4.1-.8.4-1.1.7-.3.3-.4.7-.4,1.1s.1.8.4,1c.3.2.6.4,1.1.5.5.1,1,.3,1.5.5.8.3,1.5.5,2.2.9.7.3,1.2.7,1.7,1.2s.6,1.1.6,1.8c0,.8-.2,1.5-.7,2.1s-1.1,1-1.9,1.4c-.8.3-1.6.5-2.4.4Z"/>
    <path d="M82.9,979.7h2.2v19.5h-2.2v-2.2c-.4.8-1,1.4-1.8,1.8-.7.5-1.6.7-2.6.7s-1.8-.2-2.7-.5c-.8-.4-1.5-.8-2.2-1.5-.6-.6-1.1-1.4-1.5-2.2s-.5-1.7-.5-2.7.2-1.8.5-2.7c.4-.8.8-1.6,1.5-2.2.6-.6,1.4-1.1,2.2-1.5.8-.4,1.7-.5,2.7-.5s1.9.2,2.6.7c.7.5,1.3,1.1,1.8,1.8v-8.7ZM78.5,997.4c.9,0,1.6-.2,2.2-.6.6-.4,1.1-1,1.5-1.7.3-.7.5-1.5.5-2.4s-.2-1.7-.5-2.4c-.3-.7-.8-1.3-1.5-1.7-.6-.4-1.4-.6-2.2-.6s-1.6.2-2.3.6c-.7.4-1.3,1-1.7,1.7s-.6,1.5-.6,2.4.2,1.7.6,2.4,1,1.3,1.7,1.7c.7.4,1.5.6,2.3.6Z"/>
    <path d="M98.6,986.2h2.2v13h-2.2v-2.2c-.5.8-1.1,1.4-1.8,1.8-.7.5-1.6.7-2.6.7s-1.8-.2-2.7-.5-1.6-.9-2.2-1.5c-.6-.6-1.1-1.4-1.5-2.2s-.5-1.7-.5-2.7.2-1.8.5-2.6.8-1.5,1.4-2.2c.6-.6,1.3-1.1,2.2-1.5.8-.4,1.7-.5,2.6-.5s1.9.2,2.7.7c.8.5,1.4,1.1,1.9,1.9v-2.2ZM94.2,997.4c.9,0,1.6-.2,2.2-.6.6-.4,1.1-1,1.5-1.7.3-.7.5-1.5.5-2.4s-.2-1.7-.5-2.4c-.3-.7-.8-1.3-1.5-1.7-.6-.4-1.4-.6-2.2-.6s-1.6.2-2.3.6c-.7.4-1.3,1-1.7,1.7s-.6,1.5-.6,2.4.2,1.7.6,2.4,1,1.3,1.7,1.7c.7.4,1.5.6,2.3.6Z"/>
    <path d="M110.1,988.4h-3v10.8h-2.2v-10.8s-2.2,0-2.2,0v-2.2h2.2v-4.1s2.2,0,2.2,0v4.1h3v2.2Z"/>
    <path d="M117.8,999.5c-1.2,0-2.3-.3-3.3-.9-1-.6-1.8-1.4-2.4-2.5-.6-1-.9-2.2-.9-3.4s.2-1.8.5-2.7c.3-.8.8-1.6,1.4-2.2.6-.6,1.3-1.1,2.1-1.5s1.6-.5,2.5-.5,2.3.3,3.3.9c1,.6,1.8,1.4,2.4,2.5s.9,2.2.9,3.5-.2,1.8-.5,2.7-.8,1.5-1.4,2.2c-.6.6-1.3,1.1-2.1,1.5-.8.4-1.6.5-2.5.5ZM117.8,997.3c.8,0,1.5-.2,2.2-.6.7-.4,1.2-1,1.5-1.7.4-.7.6-1.5.6-2.3s-.2-1.6-.6-2.3c-.4-.7-.9-1.3-1.6-1.7s-1.4-.6-2.2-.6-1.5.2-2.2.6c-.6.4-1.2,1-1.5,1.7-.4.7-.6,1.5-.6,2.3s.2,1.7.6,2.4c.4.7.9,1.3,1.6,1.7.7.4,1.4.6,2.2.6Z"/>
    <path d="M130.5,999.4c-.7,0-1.4-.2-2-.4s-1.2-.6-1.7-1c-.5-.4-.9-.9-1.1-1.4l1.9-.8c.1.3.4.6.7.8.3.3.7.5,1.2.6.4.2.9.2,1.3.2s.9,0,1.3-.2.8-.4,1-.7c.3-.3.4-.6.4-1s-.1-.8-.4-1c-.3-.2-.7-.4-1.1-.6-.4-.1-.9-.3-1.3-.4-.9-.2-1.7-.5-2.4-.8-.7-.3-1.3-.7-1.7-1.2-.4-.5-.6-1.1-.6-1.9s.2-1.5.7-2.1c.4-.6,1-1,1.8-1.4.7-.3,1.5-.5,2.3-.5s2,.2,2.9.7c.9.5,1.5,1.1,1.9,1.8l-1.8,1c-.1-.3-.4-.6-.7-.8-.3-.2-.6-.4-1-.6s-.8-.2-1.2-.2c-.5,0-1,0-1.4.2-.4.1-.8.4-1.1.7-.3.3-.4.7-.4,1.1s.1.8.4,1c.3.2.6.4,1.1.5.5.1,1,.3,1.5.5.8.3,1.5.5,2.2.9.7.3,1.2.7,1.7,1.2s.6,1.1.6,1.8c0,.8-.2,1.5-.7,2.1s-1.1,1-1.9,1.4c-.8.3-1.6.5-2.4.4Z"/>
    <path d="M152.9,995.8l1.9,1.1c-.6.8-1.3,1.5-2.2,2-.9.5-1.9.7-2.9.7s-2.3-.3-3.3-.9c-1-.6-1.8-1.4-2.4-2.5-.6-1-.9-2.2-.9-3.4s.2-1.8.5-2.7c.3-.8.8-1.6,1.4-2.2.6-.6,1.3-1.1,2.1-1.5s1.6-.5,2.5-.5,2,.2,2.9.7c.9.5,1.7,1.2,2.2,2l-1.9,1.1c-.4-.5-.9-.9-1.5-1.2-.6-.3-1.2-.4-1.8-.4s-1.5.2-2.2.6c-.7.4-1.2,1-1.6,1.7-.4.7-.6,1.5-.6,2.3s.2,1.6.6,2.3c.4.7.9,1.3,1.6,1.7.7.4,1.4.6,2.2.6s1.2-.1,1.8-.4,1-.7,1.4-1.1Z"/>
    <path d="M162.7,999.5c-1.2,0-2.3-.3-3.3-.9-1-.6-1.8-1.4-2.4-2.5-.6-1-.9-2.2-.9-3.4s.2-1.8.5-2.7c.3-.8.8-1.6,1.4-2.2.6-.6,1.3-1.1,2.1-1.5s1.6-.5,2.5-.5,2.3.3,3.3.9c1,.6,1.8,1.4,2.4,2.5s.9,2.2.9,3.5-.2,1.8-.5,2.7-.8,1.5-1.4,2.2c-.6.6-1.3,1.1-2.1,1.5-.8.4-1.6.5-2.5.5ZM162.7,997.3c.8,0,1.5-.2,2.2-.6.7-.4,1.2-1,1.5-1.7.4-.7.6-1.5.6-2.3s-.2-1.6-.6-2.3c-.4-.7-.9-1.3-1.6-1.7s-1.4-.6-2.2-.6-1.5.2-2.2.6c-.6.4-1.2,1-1.5,1.7-.4.7-.6,1.5-.6,2.3s.2,1.7.6,2.4c.4.7.9,1.3,1.6,1.7.7.4,1.4.6,2.2.6Z"/>
    <path d="M182.8,991.1v8.1h-2.2v-7.6c0-.7-.2-1.3-.5-1.8-.3-.5-.8-1-1.3-1.3-.5-.3-1.1-.5-1.8-.5s-1.2.2-1.8.5c-.5.3-1,.7-1.3,1.3-.3.5-.5,1.1-.5,1.8v7.6h-2.2v-13h2.2v1.6c.5-.6,1-1.1,1.7-1.4.7-.4,1.5-.5,2.3-.5s1.9.2,2.7.7c.8.5,1.4,1.1,1.9,1.9.5.8.7,1.7.7,2.7Z"/>
    <path d="M197.4,999.5c-1.2,0-2.3-.3-3.3-.9-1-.6-1.8-1.4-2.4-2.5-.6-1-.9-2.2-.9-3.4s.2-1.8.5-2.7c.3-.8.8-1.6,1.4-2.2.6-.6,1.3-1.1,2.1-1.5s1.6-.5,2.5-.5,1.9.2,2.7.6,1.5.9,2.1,1.6,1,1.5,1.3,2.4c.3.9.4,1.9.3,3h-10.6c.1.7.3,1.4.7,2s.9,1,1.5,1.4,1.3.5,2,.5c.8,0,1.5-.2,2.1-.6.6-.4,1.1-1,1.5-1.7l2.2.5c-.5,1.2-1.3,2.1-2.4,2.8-1,.7-2.2,1.1-3.5,1.1ZM193.2,991.8h8.5c0-.7-.3-1.4-.7-2-.4-.6-.9-1.1-1.5-1.4s-1.3-.5-2-.5-1.4.2-2,.5c-.6.4-1.1.8-1.5,1.4s-.6,1.3-.7,2Z"/>
    <path d="M205.9,999.2v-19.5h2.2v19.5h-2.2Z"/>
    <path d="M142.8,1022.2v-18.2h6.5c1,0,1.9.2,2.7.7.8.5,1.4,1.2,1.9,2,.5.8.7,1.7.7,2.7s-.2,1.9-.7,2.8c-.5.8-1.1,1.5-1.9,2-.8.5-1.7.7-2.6.7h-3.3v7.2h-3.2ZM145.9,1011.8h3c.5,0,.9-.1,1.2-.3s.7-.5.9-.9c.2-.4.3-.8.3-1.3s-.1-.9-.3-1.3c-.2-.4-.5-.7-.9-.9s-.8-.3-1.2-.3h-3v5.1Z"/>
    <path d="M161.7,1022.5c-1.2,0-2.3-.3-3.3-.9-1-.6-1.8-1.4-2.4-2.5-.6-1-.9-2.2-.9-3.4s.2-1.8.5-2.7c.3-.8.8-1.6,1.4-2.2.6-.6,1.3-1.1,2.1-1.5s1.6-.5,2.5-.5,2.3.3,3.3.9c1,.6,1.8,1.4,2.4,2.5s.9,2.2.9,3.5-.2,1.8-.5,2.7-.8,1.5-1.4,2.2c-.6.6-1.3,1.1-2.1,1.5-.8.4-1.6.5-2.5.5ZM161.7,1019.4c.6,0,1.2-.2,1.7-.5s.9-.8,1.2-1.3.4-1.2.4-1.8-.1-1.3-.4-1.9c-.3-.6-.7-1-1.2-1.3-.5-.3-1.1-.5-1.7-.5s-1.2.2-1.7.5c-.5.3-.9.8-1.2,1.4-.3.6-.4,1.2-.4,1.8s.2,1.3.5,1.9c.3.6.7,1,1.2,1.3s1.1.5,1.7.5Z"/>
    <path d="M170.3,1022.2v-13s3.2,0,3.2,0v1.2c.5-.5,1-.8,1.6-1.1.6-.3,1.3-.4,2-.4s1,0,1.4.2l-1.2,3.2c-.3-.1-.7-.2-1-.2-.5,0-1,.1-1.4.4-.4.2-.8.6-1,1-.2.4-.4.9-.4,1.4v7.4h-3.2Z"/>
    <path d="M187.2,1012.4h-2.5v9.8h-3.2v-9.8h-1.9v-3.2h1.9v-4.1h3.2v4.1h2.5v3.2Z"/>
    <path d="M199.1,1009.2h3.2v13h-3.2v-1.6c-.5.6-1,1.1-1.6,1.4s-1.3.5-2.1.5-1.9-.2-2.7-.5c-.8-.4-1.6-.9-2.2-1.5-.6-.6-1.1-1.4-1.5-2.2-.4-.8-.5-1.7-.5-2.7s.2-1.8.5-2.6.8-1.5,1.4-2.1c.6-.6,1.3-1.1,2.1-1.4.8-.3,1.7-.5,2.6-.5s1.6.2,2.3.6c.7.4,1.3.9,1.7,1.5v-1.7ZM195.4,1019.5c.7,0,1.3-.2,1.8-.5s.9-.8,1.2-1.4c.3-.6.4-1.2.4-1.9s-.1-1.3-.4-1.9c-.3-.6-.7-1-1.2-1.4s-1.1-.5-1.8-.5-1.3.2-1.8.5c-.6.3-1,.8-1.3,1.4-.3.6-.5,1.2-.5,1.9s.2,1.3.5,1.9c.3.6.8,1,1.3,1.4s1.2.5,1.8.5Z"/>
    <path d="M204.9,1022.2v-19.5h3.2v19.5h-3.2Z"/>
    <path d="M64.3,1045.2v-18.2h6.6c1,0,1.8.2,2.6.6.8.4,1.4,1,1.8,1.7.5.7.7,1.6.7,2.6s0,.9-.2,1.3c-.1.5-.3.9-.6,1.2-.3.4-.6.6-1,.8.6.1,1,.4,1.4.8.4.4.6.8.8,1.3.2.5.3,1,.4,1.5s.1,1,.1,1.4c0,1-.2,1.8-.7,2.6s-1.1,1.4-1.9,1.8-1.7.7-2.7.7h-7.4ZM67.5,1034h3.1c.6,0,1.2-.2,1.6-.6.5-.4.7-.9.7-1.6s-.2-1.2-.7-1.6c-.5-.4-1-.5-1.6-.5h-3.1v4.3ZM67.5,1042.5h3.9c.5,0,1-.1,1.4-.4.4-.3.8-.6,1-1,.3-.4.4-.9.4-1.5s-.1-.9-.4-1.4c-.3-.4-.6-.8-1-1.1-.4-.3-.9-.4-1.4-.4h-3.9v5.8Z"/>
    <path d="M81.2,1030.5c-.5,0-.9-.2-1.2-.5-.3-.3-.5-.7-.5-1.2s.2-.8.5-1.2c.3-.3.7-.5,1.2-.5s.8.2,1.2.5c.3.3.5.7.5,1.2s-.2.9-.5,1.2-.7.5-1.2.5ZM79.5,1032.2h3.2v13h-3.2v-13Z"/>
    <path d="M92.8,1031.8c1.3,0,2.4.3,3.5.9,1,.6,1.9,1.4,2.5,2.5.6,1,.9,2.2.9,3.4s-.2,1.8-.5,2.7c-.4.8-.8,1.6-1.5,2.2-.6.6-1.4,1.1-2.2,1.5-.8.4-1.7.5-2.7.5s-1.5-.2-2.2-.6-1.2-.8-1.6-1.4v1.7h-3.2v-19.5h3.2v8.1c.4-.6,1-1.1,1.6-1.4s1.3-.6,2.2-.6ZM92.7,1042.5c.7,0,1.3-.2,1.8-.5.6-.3,1-.8,1.3-1.4.3-.6.5-1.2.5-1.9s-.2-1.3-.5-1.9c-.3-.6-.8-1-1.3-1.4s-1.2-.5-1.8-.5-1.2.2-1.8.5c-.5.3-.9.8-1.2,1.4-.3.6-.4,1.2-.4,1.9s.1,1.3.4,1.9c.3.6.7,1,1.2,1.4s1.1.5,1.8.5Z"/>
    <path d="M101.5,1045.2v-19.5h3.2v19.5h-3.2Z"/>
    <path d="M109.4,1030.5c-.5,0-.9-.2-1.2-.5-.3-.3-.5-.7-.5-1.2s.2-.8.5-1.2c.3-.3.7-.5,1.2-.5s.8.2,1.2.5c.3.3.5.7.5,1.2s-.2.9-.5,1.2-.7.5-1.2.5ZM107.8,1032.2h3.2v13h-3.2v-13Z"/>
    <path d="M119.5,1045.5c-1.2,0-2.3-.3-3.3-.9-1-.6-1.8-1.4-2.4-2.5-.6-1-.9-2.2-.9-3.4s.2-1.8.5-2.7c.3-.8.8-1.6,1.4-2.2.6-.6,1.3-1.1,2.1-1.5s1.6-.5,2.5-.5,2.3.3,3.3.9c1,.6,1.8,1.4,2.4,2.5s.9,2.2.9,3.5-.2,1.8-.5,2.7-.8,1.5-1.4,2.2c-.6.6-1.3,1.1-2.1,1.5-.8.4-1.6.5-2.5.5ZM119.5,1042.4c.6,0,1.2-.2,1.7-.5s.9-.8,1.2-1.3.4-1.2.4-1.8-.1-1.3-.4-1.9c-.3-.6-.7-1-1.2-1.3-.5-.3-1.1-.5-1.7-.5s-1.2.2-1.7.5c-.5.3-.9.8-1.2,1.4-.3.6-.4,1.2-.4,1.8s.2,1.3.5,1.9c.3.6.7,1,1.2,1.3s1.1.5,1.7.5Z"/>
    <path d="M128,1045.2v-13h3.2v1.2c.4-.5,1-.8,1.6-1.1.6-.3,1.3-.4,2-.4s1.7.2,2.5.6c.8.4,1.4,1,1.8,1.7.5-.7,1.1-1.3,1.8-1.7.8-.4,1.6-.6,2.5-.6s1.8.2,2.6.7c.8.5,1.4,1.1,1.9,1.9.5.8.7,1.6.7,2.6v8.2h-3.2v-7.4c0-.5-.1-1-.4-1.4-.2-.4-.6-.8-1-1s-.9-.4-1.4-.4-1,.1-1.4.4c-.4.2-.7.6-1,1-.3.4-.4.9-.4,1.4v7.4h-3.2v-7.4c0-.5-.1-1-.4-1.4s-.6-.7-1-1-.9-.4-1.4-.4-1,.1-1.4.4-.7.6-1,1c-.2.4-.4.9-.4,1.4v7.4h-3.2Z"/>
    <path d="M156.6,1045.5c-1.2,0-2.3-.3-3.3-.9-1-.6-1.8-1.4-2.4-2.5-.6-1-.9-2.2-.9-3.4s.2-1.8.5-2.7c.3-.8.8-1.6,1.4-2.2.6-.6,1.3-1.1,2.1-1.5s1.6-.5,2.5-.5,1.9.2,2.8.6c.8.4,1.6,1,2.2,1.8.6.7,1,1.6,1.3,2.5s.3,2,.2,3h-9.5c.1.5.3.9.6,1.3.3.4.6.7,1.1.9s.9.3,1.4.4c.6,0,1.1-.1,1.5-.4s.8-.6,1.1-1.1l3.2.8c-.5,1.2-1.3,2.1-2.4,2.8-1,.7-2.2,1.1-3.5,1.1ZM153.4,1037.4h6.4c0-.5-.3-1-.6-1.4-.3-.4-.7-.8-1.1-1-.5-.3-.9-.4-1.5-.4s-1,.1-1.4.4-.8.6-1.1,1c-.3.4-.5.9-.6,1.4ZM155.8,1030.8l1-3.7h3.2l-2.1,3.7h-2.1Z"/>
    <path d="M172.1,1035.4h-2.5v9.8h-3.2v-9.8h-1.9v-3.2h1.9v-4.1h3.2v4.1h2.5v3.2Z"/>
    <path d="M174.5,1045.2v-13s3.2,0,3.2,0v1.2c.5-.5,1-.8,1.6-1.1.6-.3,1.3-.4,2-.4s1,0,1.4.2l-1.2,3.2c-.3-.1-.7-.2-1-.2-.5,0-1,.1-1.4.4-.4.2-.8.6-1,1-.2.4-.4.9-.4,1.4v7.4h-3.2Z"/>
    <path d="M185.7,1030.5c-.5,0-.9-.2-1.2-.5-.3-.3-.5-.7-.5-1.2s.2-.8.5-1.2c.3-.3.7-.5,1.2-.5s.8.2,1.2.5c.3.3.5.7.5,1.2s-.2.9-.5,1.2-.7.5-1.2.5ZM184.1,1032.2h3.2v13h-3.2v-13Z"/>
    <path d="M198.1,1041.3l2.9,1.5c-.6.8-1.3,1.5-2.2,2s-1.9.7-3,.7-2.3-.3-3.3-.9c-1-.6-1.8-1.4-2.4-2.5-.6-1-.9-2.2-.9-3.4s.2-1.8.5-2.7c.3-.8.8-1.6,1.4-2.2.6-.6,1.3-1.1,2.1-1.5s1.6-.5,2.5-.5,2,.2,3,.7,1.7,1.2,2.2,2l-2.9,1.5c-.3-.3-.7-.6-1.1-.8-.4-.2-.8-.3-1.3-.3-.6,0-1.2.2-1.7.5-.5.3-.9.8-1.2,1.4-.3.6-.4,1.2-.4,1.8s.1,1.3.4,1.8c.3.6.7,1,1.2,1.3.5.3,1.1.5,1.7.5s.9,0,1.3-.3c.4-.2.8-.5,1.1-.8Z"/>
    <path d="M208.6,1045.5c-1.2,0-2.3-.3-3.3-.9-1-.6-1.8-1.4-2.4-2.5-.6-1-.9-2.2-.9-3.4s.2-1.8.5-2.7c.3-.8.8-1.6,1.4-2.2.6-.6,1.3-1.1,2.1-1.5s1.6-.5,2.5-.5,2.3.3,3.3.9c1,.6,1.8,1.4,2.4,2.5s.9,2.2.9,3.5-.2,1.8-.5,2.7-.8,1.5-1.4,2.2c-.6.6-1.3,1.1-2.1,1.5-.8.4-1.6.5-2.5.5ZM208.6,1042.4c.6,0,1.2-.2,1.7-.5s.9-.8,1.2-1.3.4-1.2.4-1.8-.1-1.3-.4-1.9c-.3-.6-.7-1-1.2-1.3-.5-.3-1.1-.5-1.7-.5s-1.2.2-1.7.5c-.5.3-.9.8-1.2,1.4-.3.6-.4,1.2-.4,1.8s.2,1.3.5,1.9c.3.6.7,1,1.2,1.3s1.1.5,1.7.5Z"/>
  </g>
  <g class="st1">
    <rect class="st10" x="297.3" y="921.4" width="451.1" height="15.1" transform="translate(-62.9 38.3) rotate(-4)"/>
  </g>
  <rect class="st9" x="467" y="649.9" width="109.3" height="457.8" transform="translate(1362.3 297.7) rotate(86)"/>
  <text class="st6" transform="translate(322.8 905.2) rotate(-4)"><tspan x="0" y="0">SOPORTE OJS/OMP</tspan></text>
  <g>
    <path d="M128,831.9v-18.2h6c1,0,1.9.2,2.6.7.8.5,1.4,1.1,1.9,1.9.5.8.7,1.7.7,2.7s-.2,1.9-.7,2.7c-.5.8-1.1,1.5-1.9,1.9s-1.7.7-2.6.7h-3.8v7.5h-2.2ZM130.1,822.2h3.6c.6,0,1.1-.1,1.6-.4.5-.3.9-.7,1.2-1.2.3-.5.4-1.1.4-1.7s-.1-1.2-.4-1.7c-.3-.5-.7-.9-1.2-1.2-.5-.3-1-.4-1.6-.4h-3.6v6.6Z"/>
    <path d="M141.4,831.9v-13h2.2v1.6c.5-.6,1-1.1,1.7-1.4.7-.4,1.5-.5,2.3-.5s1,0,1.5.2l-.9,2.2c-.4-.1-.7-.2-1-.2-.7,0-1.2.2-1.8.5-.5.3-1,.7-1.3,1.3-.3.5-.5,1.1-.5,1.8v7.6h-2.2Z"/>
    <path d="M155.7,832.2c-1.2,0-2.3-.3-3.3-.9-1-.6-1.8-1.4-2.4-2.5-.6-1-.9-2.2-.9-3.4s.2-1.8.5-2.7c.3-.8.8-1.6,1.4-2.2.6-.6,1.3-1.1,2.1-1.5s1.6-.5,2.5-.5,1.9.2,2.7.6,1.5.9,2.1,1.6,1,1.5,1.3,2.4c.3.9.4,1.9.3,3h-10.6c.1.7.3,1.4.7,2s.9,1,1.5,1.4,1.3.5,2,.5c.8,0,1.5-.2,2.1-.6.6-.4,1.1-1,1.5-1.7l2.2.5c-.5,1.2-1.3,2.1-2.4,2.8-1,.7-2.2,1.1-3.5,1.1ZM151.5,824.5h8.5c0-.7-.3-1.4-.7-2-.4-.6-.9-1.1-1.5-1.4s-1.3-.5-2-.5-1.4.2-2,.5c-.6.4-1.1.8-1.5,1.4s-.6,1.3-.7,2Z"/>
    <path d="M168.4,832.1c-.7,0-1.4-.2-2-.4s-1.2-.6-1.7-1c-.5-.4-.9-.9-1.1-1.4l1.9-.8c.1.3.4.6.7.8.3.3.7.5,1.2.6.4.2.9.2,1.3.2s.9,0,1.3-.2.8-.4,1-.7c.3-.3.4-.6.4-1s-.1-.8-.4-1c-.3-.2-.7-.4-1.1-.6-.4-.1-.9-.3-1.3-.4-.9-.2-1.7-.5-2.4-.8-.7-.3-1.3-.7-1.7-1.2-.4-.5-.6-1.1-.6-1.9s.2-1.5.7-2.1c.4-.6,1-1,1.8-1.4.7-.3,1.5-.5,2.3-.5s2,.2,2.9.7c.9.5,1.5,1.1,1.9,1.8l-1.8,1c-.1-.3-.4-.6-.7-.8-.3-.2-.6-.4-1-.6s-.8-.2-1.2-.2c-.5,0-1,0-1.4.2-.4.1-.8.4-1.1.7-.3.3-.4.7-.4,1.1s.1.8.4,1c.3.2.6.4,1.1.5.5.1,1,.3,1.5.5.8.3,1.5.5,2.2.9.7.3,1.2.7,1.7,1.2s.6,1.1.6,1.8c0,.8-.2,1.5-.7,2.1s-1.1,1-1.9,1.4c-.8.3-1.6.5-2.4.4Z"/>
    <path d="M182.4,821.1h-3v10.8h-2.2v-10.8s-2.2,0-2.2,0v-2.2h2.2v-4.1s2.2,0,2.2,0v4.1h3v2.2Z"/>
    <path d="M194.8,818.9h2.2v13h-2.2v-2.2c-.5.8-1.1,1.4-1.8,1.8-.7.5-1.6.7-2.6.7s-1.8-.2-2.7-.5-1.6-.9-2.2-1.5c-.6-.6-1.1-1.4-1.5-2.2s-.5-1.7-.5-2.7.2-1.8.5-2.6.8-1.5,1.4-2.2c.6-.6,1.3-1.1,2.2-1.5.8-.4,1.7-.5,2.6-.5s1.9.2,2.7.7c.8.5,1.4,1.1,1.9,1.9v-2.2ZM190.5,830.1c.9,0,1.6-.2,2.2-.6.6-.4,1.1-1,1.5-1.7.3-.7.5-1.5.5-2.4s-.2-1.7-.5-2.4c-.3-.7-.8-1.3-1.5-1.7-.6-.4-1.4-.6-2.2-.6s-1.6.2-2.3.6c-.7.4-1.3,1-1.7,1.7s-.6,1.5-.6,2.4.2,1.7.6,2.4,1,1.3,1.7,1.7c.7.4,1.5.6,2.3.6Z"/>
    <path d="M199.6,831.9v-13h2.2v1.6c.5-.6,1-1.1,1.7-1.4s1.5-.5,2.3-.5,1.8.2,2.6.7,1.4,1.1,1.9,1.9c.5-.8,1.1-1.4,1.9-1.9s1.7-.7,2.6-.7,1.9.2,2.7.7c.8.5,1.4,1.1,1.9,1.9.5.8.7,1.7.7,2.7v8.1h-2.2v-7.6c0-.6-.2-1.2-.5-1.8s-.7-1-1.3-1.3c-.5-.3-1.1-.5-1.8-.5s-1.2.2-1.8.5c-.5.3-.9.7-1.3,1.3-.3.5-.5,1.2-.5,1.9v7.6h-2.2v-7.6c0-.7-.2-1.3-.5-1.9-.3-.5-.7-1-1.3-1.3-.5-.3-1.1-.5-1.8-.5s-1.2.2-1.7.5c-.5.3-1,.8-1.3,1.3s-.5,1.1-.5,1.8v7.6h-2.2Z"/>
    <path d="M228.2,832.2c-1.2,0-2.3-.3-3.3-.9-1-.6-1.8-1.4-2.4-2.5-.6-1-.9-2.2-.9-3.4s.2-1.8.5-2.7c.3-.8.8-1.6,1.4-2.2.6-.6,1.3-1.1,2.1-1.5s1.6-.5,2.5-.5,2.3.3,3.3.9c1,.6,1.8,1.4,2.4,2.5s.9,2.2.9,3.5-.2,1.8-.5,2.7-.8,1.5-1.4,2.2c-.6.6-1.3,1.1-2.1,1.5-.8.4-1.6.5-2.5.5ZM228.2,830c.8,0,1.5-.2,2.2-.6.7-.4,1.2-1,1.5-1.7.4-.7.6-1.5.6-2.3s-.2-1.6-.6-2.3c-.4-.7-.9-1.3-1.6-1.7s-1.4-.6-2.2-.6-1.5.2-2.2.6c-.6.4-1.2,1-1.5,1.7-.4.7-.6,1.5-.6,2.3s.2,1.7.6,2.4c.4.7.9,1.3,1.6,1.7.7.4,1.4.6,2.2.6Z"/>
    <path d="M240.9,832.1c-.7,0-1.4-.2-2-.4s-1.2-.6-1.7-1c-.5-.4-.9-.9-1.1-1.4l1.9-.8c.1.3.4.6.7.8.3.3.7.5,1.2.6.4.2.9.2,1.3.2s.9,0,1.3-.2.8-.4,1-.7c.3-.3.4-.6.4-1s-.1-.8-.4-1c-.3-.2-.7-.4-1.1-.6-.4-.1-.9-.3-1.3-.4-.9-.2-1.7-.5-2.4-.8-.7-.3-1.3-.7-1.7-1.2-.4-.5-.6-1.1-.6-1.9s.2-1.5.7-2.1c.4-.6,1-1,1.8-1.4.7-.3,1.5-.5,2.3-.5s2,.2,2.9.7c.9.5,1.5,1.1,1.9,1.8l-1.8,1c-.1-.3-.4-.6-.7-.8-.3-.2-.6-.4-1-.6s-.8-.2-1.2-.2c-.5,0-1,0-1.4.2-.4.1-.8.4-1.1.7-.3.3-.4.7-.4,1.1s.1.8.4,1c.3.2.6.4,1.1.5.5.1,1,.3,1.5.5.8.3,1.5.5,2.2.9.7.3,1.2.7,1.7,1.2s.6,1.1.6,1.8c0,.8-.2,1.5-.7,2.1s-1.1,1-1.9,1.4c-.8.3-1.6.5-2.4.4Z"/>
    <path d="M162.5,855.1c-.7,0-1.3-.2-2-.4s-1.2-.5-1.7-.9-.9-.9-1.1-1.4l2.7-1.1c.1.2.3.4.5.6s.5.4.8.5c.3.1.7.2,1.1.2s.6,0,.9-.1.5-.2.7-.4c.2-.2.3-.4.3-.7s-.1-.6-.3-.7c-.2-.2-.5-.3-.8-.4-.3,0-.7-.2-1-.3-.8-.2-1.6-.4-2.3-.8-.7-.3-1.3-.8-1.7-1.3-.4-.6-.6-1.2-.6-2s.2-1.6.7-2.2,1-1.1,1.8-1.4c.7-.3,1.5-.5,2.4-.5s2,.2,2.8.6c.9.4,1.5,1,2,1.8l-2.5,1.5c-.1-.2-.3-.4-.5-.6s-.5-.3-.7-.4c-.3-.1-.6-.2-.9-.2-.4,0-.7,0-1.1.1-.3,0-.6.2-.8.4-.2.2-.3.5-.3.8s.1.6.4.7c.3.2.6.3.9.4.4,0,.7.2,1.1.3.8.3,1.5.6,2.2.9.7.4,1.2.8,1.6,1.3.4.5.6,1.2.6,1.9,0,.8-.3,1.6-.8,2.2-.5.6-1.2,1.1-1.9,1.4s-1.6.5-2.5.4Z"/>
    <path d="M175.5,855.2c-1.2,0-2.3-.3-3.3-.9-1-.6-1.8-1.4-2.4-2.5-.6-1-.9-2.2-.9-3.4s.2-1.8.5-2.7c.3-.8.8-1.6,1.4-2.2.6-.6,1.3-1.1,2.1-1.5s1.6-.5,2.5-.5,1.9.2,2.8.6c.8.4,1.6,1,2.2,1.8.6.7,1,1.6,1.3,2.5s.3,2,.2,3h-9.5c.1.5.3.9.6,1.3.3.4.6.7,1.1.9s.9.3,1.4.4c.6,0,1.1-.1,1.5-.4s.8-.6,1.1-1.1l3.2.8c-.5,1.2-1.3,2.1-2.4,2.8-1,.7-2.2,1.1-3.5,1.1ZM172.3,847.1h6.4c0-.5-.3-1-.6-1.4-.3-.4-.7-.8-1.1-1-.5-.3-.9-.4-1.5-.4s-1,.1-1.4.4-.8.6-1.1,1c-.3.4-.5.9-.6,1.4Z"/>
    <path d="M184.1,854.9v-13s3.2,0,3.2,0v1.2c.5-.5,1-.8,1.6-1.1.6-.3,1.3-.4,2-.4s1,0,1.4.2l-1.2,3.2c-.3-.1-.7-.2-1-.2-.5,0-1,.1-1.4.4-.4.2-.8.6-1,1-.2.4-.4.9-.4,1.4v7.4h-3.2Z"/>
    <path d="M202.1,854.9h-4.1l-4.7-13h3.4l3.4,9.4,3.4-9.4h3.4l-4.7,13Z"/>
    <path d="M210.4,840.2c-.5,0-.9-.2-1.2-.5-.3-.3-.5-.7-.5-1.2s.2-.8.5-1.2c.3-.3.7-.5,1.2-.5s.8.2,1.2.5c.3.3.5.7.5,1.2s-.2.9-.5,1.2-.7.5-1.2.5ZM208.8,841.9h3.2v13h-3.2v-13Z"/>
    <path d="M222.8,851l2.9,1.5c-.6.8-1.3,1.5-2.2,2s-1.9.7-3,.7-2.3-.3-3.3-.9c-1-.6-1.8-1.4-2.4-2.5-.6-1-.9-2.2-.9-3.4s.2-1.8.5-2.7c.3-.8.8-1.6,1.4-2.2.6-.6,1.3-1.1,2.1-1.5s1.6-.5,2.5-.5,2,.2,3,.7,1.7,1.2,2.2,2l-2.9,1.5c-.3-.3-.7-.6-1.1-.8-.4-.2-.8-.3-1.3-.3-.6,0-1.2.2-1.7.5-.5.3-.9.8-1.2,1.4-.3.6-.4,1.2-.4,1.8s.1,1.3.4,1.8c.3.6.7,1,1.2,1.3.5.3,1.1.5,1.7.5s.9,0,1.3-.3c.4-.2.8-.5,1.1-.8Z"/>
    <path d="M229.2,840.2c-.5,0-.9-.2-1.2-.5-.3-.3-.5-.7-.5-1.2s.2-.8.5-1.2c.3-.3.7-.5,1.2-.5s.8.2,1.2.5c.3.3.5.7.5,1.2s-.2.9-.5,1.2-.7.5-1.2.5ZM227.5,841.9h3.2v13h-3.2v-13Z"/>
    <path d="M239.3,855.2c-1.2,0-2.3-.3-3.3-.9-1-.6-1.8-1.4-2.4-2.5-.6-1-.9-2.2-.9-3.4s.2-1.8.5-2.7c.3-.8.8-1.6,1.4-2.2.6-.6,1.3-1.1,2.1-1.5s1.6-.5,2.5-.5,2.3.3,3.3.9c1,.6,1.8,1.4,2.4,2.5s.9,2.2.9,3.5-.2,1.8-.5,2.7-.8,1.5-1.4,2.2c-.6.6-1.3,1.1-2.1,1.5-.8.4-1.6.5-2.5.5ZM239.3,852c.6,0,1.2-.2,1.7-.5s.9-.8,1.2-1.3.4-1.2.4-1.8-.1-1.3-.4-1.9c-.3-.6-.7-1-1.2-1.3-.5-.3-1.1-.5-1.7-.5s-1.2.2-1.7.5c-.5.3-.9.8-1.2,1.4-.3.6-.4,1.2-.4,1.8s.2,1.3.5,1.9c.3.6.7,1,1.2,1.3s1.1.5,1.7.5Z"/>
    <path d="M124.1,868h-2.5v9.8h-3.2v-9.8h-1.9v-3.2h1.9v-4.1h3.2v4.1h2.5v3.2Z"/>
    <path d="M131.8,878.2c-1.2,0-2.3-.3-3.3-.9-1-.6-1.8-1.4-2.4-2.5-.6-1-.9-2.2-.9-3.4s.2-1.8.5-2.7c.3-.8.8-1.6,1.4-2.2.6-.6,1.3-1.1,2.1-1.5s1.6-.5,2.5-.5,2.3.3,3.3.9c1,.6,1.8,1.4,2.4,2.5s.9,2.2.9,3.5-.2,1.8-.5,2.7-.8,1.5-1.4,2.2c-.6.6-1.3,1.1-2.1,1.5-.8.4-1.6.5-2.5.5ZM131.8,875c.6,0,1.2-.2,1.7-.5s.9-.8,1.2-1.3.4-1.2.4-1.8-.1-1.3-.4-1.9c-.3-.6-.7-1-1.2-1.3-.5-.3-1.1-.5-1.7-.5s-1.2.2-1.7.5c-.5.3-.9.8-1.2,1.4-.3.6-.4,1.2-.4,1.8s.2,1.3.5,1.9c.3.6.7,1,1.2,1.3s1.1.5,1.7.5Z"/>
    <path d="M150.2,858.4h3.2v19.5h-3.2v-1.6c-.4.6-.9,1.1-1.6,1.4s-1.4.5-2.2.5-1.8-.2-2.7-.5c-.8-.4-1.5-.8-2.2-1.5-.6-.6-1.1-1.4-1.5-2.2s-.5-1.7-.5-2.7.2-1.8.5-2.7c.4-.8.8-1.5,1.5-2.2.6-.6,1.4-1.1,2.2-1.5s1.7-.5,2.7-.5,1.6.2,2.2.5c.6.4,1.2.8,1.6,1.4v-8.1ZM146.5,875.2c.7,0,1.3-.2,1.8-.5s.9-.8,1.2-1.4c.3-.6.4-1.2.4-1.9s-.1-1.3-.4-1.9c-.3-.6-.7-1-1.2-1.4s-1.1-.5-1.8-.5-1.3.2-1.8.5c-.6.3-1,.8-1.3,1.4-.3.6-.5,1.2-.5,1.9s.2,1.3.5,1.9c.3.6.8,1,1.3,1.4s1.2.5,1.8.5Z"/>
    <path d="M162.1,878.2c-1.2,0-2.3-.3-3.3-.9-1-.6-1.8-1.4-2.4-2.5-.6-1-.9-2.2-.9-3.4s.2-1.8.5-2.7c.3-.8.8-1.6,1.4-2.2.6-.6,1.3-1.1,2.1-1.5s1.6-.5,2.5-.5,2.3.3,3.3.9c1,.6,1.8,1.4,2.4,2.5s.9,2.2.9,3.5-.2,1.8-.5,2.7-.8,1.5-1.4,2.2c-.6.6-1.3,1.1-2.1,1.5-.8.4-1.6.5-2.5.5ZM162.1,875c.6,0,1.2-.2,1.7-.5s.9-.8,1.2-1.3.4-1.2.4-1.8-.1-1.3-.4-1.9c-.3-.6-.7-1-1.2-1.3-.5-.3-1.1-.5-1.7-.5s-1.2.2-1.7.5c-.5.3-.9.8-1.2,1.4-.3.6-.4,1.2-.4,1.8s.2,1.3.5,1.9c.3.6.7,1,1.2,1.3s1.1.5,1.7.5Z"/>
    <path d="M182.9,878.2c-1.2,0-2.3-.3-3.3-.9-1-.6-1.8-1.4-2.4-2.5-.6-1-.9-2.2-.9-3.4s.2-1.8.5-2.7c.3-.8.8-1.6,1.4-2.2.6-.6,1.3-1.1,2.1-1.5s1.6-.5,2.5-.5,1.9.2,2.8.6c.8.4,1.6,1,2.2,1.8.6.7,1,1.6,1.3,2.5s.3,2,.2,3h-9.5c.1.5.3.9.6,1.3.3.4.6.7,1.1.9s.9.3,1.4.4c.6,0,1.1-.1,1.5-.4s.8-.6,1.1-1.1l3.2.8c-.5,1.2-1.3,2.1-2.4,2.8-1,.7-2.2,1.1-3.5,1.1ZM179.7,870.1h6.4c0-.5-.3-1-.6-1.4-.3-.4-.7-.8-1.1-1-.5-.3-.9-.4-1.5-.4s-1,.1-1.4.4-.8.6-1.1,1c-.3.4-.5.9-.6,1.4Z"/>
    <path d="M191.2,877.9v-19.5h3.2v19.5h-3.2Z"/>
    <path d="M213.5,864.9h3.2v13h-3.2v-1.6c-.5.6-1,1.1-1.6,1.4s-1.3.5-2.1.5-1.9-.2-2.7-.5c-.8-.4-1.6-.9-2.2-1.5-.6-.6-1.1-1.4-1.5-2.2-.4-.8-.5-1.7-.5-2.7s.2-1.8.5-2.6.8-1.5,1.4-2.1c.6-.6,1.3-1.1,2.1-1.4.8-.3,1.7-.5,2.6-.5s1.6.2,2.3.6c.7.4,1.3.9,1.7,1.5v-1.7ZM209.8,875.2c.7,0,1.3-.2,1.8-.5s.9-.8,1.2-1.4c.3-.6.4-1.2.4-1.9s-.1-1.3-.4-1.9c-.3-.6-.7-1-1.2-1.4s-1.1-.5-1.8-.5-1.3.2-1.8.5c-.6.3-1,.8-1.3,1.4-.3.6-.5,1.2-.5,1.9s.2,1.3.5,1.9c.3.6.8,1,1.3,1.4s1.2.5,1.8.5Z"/>
    <path d="M231.2,869.7v8.2h-3.2v-7.4c0-.5-.1-1-.4-1.4-.3-.4-.6-.8-1-1-.4-.2-.9-.4-1.4-.4s-1,.1-1.4.4c-.4.2-.8.6-1,1-.2.4-.4.9-.4,1.4v7.4h-3.2v-13s3.2,0,3.2,0v1.2c.5-.5,1-.8,1.6-1.1.6-.3,1.3-.4,2-.4s1.8.2,2.6.7c.8.5,1.4,1.1,1.9,1.9.5.8.7,1.6.7,2.6ZM227.5,863.5c-.3,0-.7-.1-1.1-.3-.4-.2-.9-.5-1.3-.8-.4-.3-.8-.5-1.1-.7-.3-.2-.5-.2-.7,0-.1.1-.2.3-.2.4,0,.2,0,.4,0,.7l-1.9.5c-.2-.7-.3-1.3-.2-1.8s.4-1,.8-1.3c.4-.3.9-.5,1.6-.5s.7,0,1.1.3c.4.2.8.4,1.2.7s.8.5,1.1.7c.3.2.6.3.7.3s.3,0,.3-.2c0-.1,0-.3,0-.4s0-.3-.1-.5l1.9-.6c.2.7.3,1.3.1,1.9-.1.6-.4,1-.8,1.3-.4.3-.9.5-1.5.5Z"/>
    <path d="M239.3,878.2c-1.2,0-2.3-.3-3.3-.9-1-.6-1.8-1.4-2.4-2.5-.6-1-.9-2.2-.9-3.4s.2-1.8.5-2.7c.3-.8.8-1.6,1.4-2.2.6-.6,1.3-1.1,2.1-1.5s1.6-.5,2.5-.5,2.3.3,3.3.9c1,.6,1.8,1.4,2.4,2.5s.9,2.2.9,3.5-.2,1.8-.5,2.7-.8,1.5-1.4,2.2c-.6.6-1.3,1.1-2.1,1.5-.8.4-1.6.5-2.5.5ZM239.3,875c.6,0,1.2-.2,1.7-.5s.9-.8,1.2-1.3.4-1.2.4-1.8-.1-1.3-.4-1.9c-.3-.6-.7-1-1.2-1.3-.5-.3-1.1-.5-1.7-.5s-1.2.2-1.7.5c-.5.3-.9.8-1.2,1.4-.3.6-.4,1.2-.4,1.8s.2,1.3.5,1.9c.3.6.7,1,1.2,1.3s1.1.5,1.7.5Z"/>
  </g>
  <rect class="st13" x="420.9" y="144.5" width="109.3" height="507.8" transform="translate(902.5 -51.7) rotate(93.5)"/>
  <text class="st7" transform="translate(272.2 398.3) rotate(3.5)"><tspan x="0" y="0">IMPLEMENTACIÓN</tspan></text>
</svg>