<?xml version="1.0" encoding="UTF-8"?>
<svg id="Capa_1" xmlns="http://www.w3.org/2000/svg" version="1.1" xmlns:xlink="http://www.w3.org/1999/xlink" viewBox="0 0 390 844">
  <!-- Generator: Adobe Illustrator 29.3.1, SVG Export Plug-In . SVG Version: 2.1.0 Build 151)  -->
  <defs>
    <style>
      .st0 {
        font-size: 20.8px;
      }

      .st0, .st1, .st2, .st3, .st4 {
        fill: #fff;
        font-family: BonoboSemiBold, Bonobo;
      }

      .st5 {
        fill: #8a236e;
      }

      .st6 {
        filter: url(#AI_DesenfoqueGaussiano_74);
      }

      .st6, .st7, .st8, .st9, .st10 {
        opacity: .5;
      }

      .st7 {
        filter: url(#AI_DesenfoqueGaussiano_71);
      }

      .st11 {
        fill: #cd3c17;
      }

      .st8 {
        filter: url(#AI_DesenfoqueGaussiano_73);
      }

      .st12 {
        fill: #333;
      }

      .st13 {
        fill: none;
        stroke: #4d4d4d;
        stroke-miterlimit: 10;
        stroke-width: 2px;
      }

      .st9 {
        filter: url(#AI_DesenfoqueGaussiano_7);
      }

      .st1 {
        font-size: 20.8px;
      }

      .st10 {
        filter: url(#AI_DesenfoqueGaussiano_72);
      }

      .st2 {
        font-size: 20.8px;
      }

      .st3, .st4 {
        font-size: 20.8px;
      }

      .st14 {
        fill: #f29c37;
      }

      .st4 {
        opacity: 1;
      }

      .st15 {
        fill: #046e7c;
      }
    </style>
    <filter id="AI_DesenfoqueGaussiano_7">
      <feGaussianBlur stdDeviation="7"/>
    </filter>
    <filter id="AI_DesenfoqueGaussiano_71" data-name="AI_DesenfoqueGaussiano_7">
      <feGaussianBlur stdDeviation="7"/>
    </filter>
    <filter id="AI_DesenfoqueGaussiano_72" data-name="AI_DesenfoqueGaussiano_7">
      <feGaussianBlur stdDeviation="7"/>
    </filter>
    <filter id="AI_DesenfoqueGaussiano_73" data-name="AI_DesenfoqueGaussiano_7">
      <feGaussianBlur stdDeviation="7"/>
    </filter>
    <filter id="AI_DesenfoqueGaussiano_74" data-name="AI_DesenfoqueGaussiano_7">
      <feGaussianBlur stdDeviation="7"/>
    </filter>
  </defs>
  <g>
    <path d="M312.9,159.1c-.8,0-1.6-.2-2.4-.5-.7-.3-1.4-.8-1.9-1.4-.5-.6-1-1.3-1.3-2s-.5-1.6-.5-2.4.2-1.8.5-2.5c.3-.8.8-1.4,1.3-2s1.2-1,1.9-1.3c.7-.3,1.5-.5,2.2-.5s1.7.2,2.5.6c.8.4,1.5,1,2.2,1.9l-1.9,1c-.4-.5-.8-.8-1.3-1.1-.5-.2-1-.4-1.5-.4s-1,.1-1.5.3c-.5.2-.9.5-1.2.9s-.6.8-.9,1.3c-.2.5-.3,1.1-.3,1.7s.1,1.1.3,1.6.5.9.8,1.3c.4.4.8.7,1.2.9.5.2,1,.3,1.5.3s.7,0,1.1-.2c.3-.1.7-.3,1-.5.3-.2.6-.5.8-.8.2-.3.4-.7.6-1h-2.2v-1.8h4.7c0,.9-.1,1.7-.4,2.5-.3.8-.7,1.5-1.3,2.1-.5.6-1.2,1.1-1.9,1.4-.7.3-1.5.5-2.4.5Z"/>
    <path d="M320.4,158.9v-12.1h7.6v2.1h-5.5v2.5h4.4v2.1h-4.4v3.3h5.5v2.1h-7.6Z"/>
    <path d="M334.3,159.1c-.7,0-1.3-.1-1.9-.3-.6-.2-1.2-.5-1.6-.9-.5-.4-.8-.9-1-1.4l2-.7c0,.2.2.4.5.6.2.2.6.3.9.5s.7.2,1.2.2.8,0,1.2-.2c.4-.1.7-.3.9-.5.2-.2.3-.5.3-.8s-.1-.6-.4-.8c-.2-.2-.5-.4-.9-.5-.4-.1-.8-.2-1.1-.3-.9-.1-1.6-.3-2.3-.6s-1.2-.7-1.6-1.2c-.4-.5-.6-1.1-.6-1.9s.2-1.4.6-1.9c.4-.5,1-1,1.7-1.3.7-.3,1.4-.5,2.2-.5s1.3.1,1.9.3c.6.2,1.2.5,1.6.9.5.4.8.9,1,1.4l-2,.7c0-.2-.2-.4-.5-.6-.2-.2-.6-.3-.9-.5-.4-.1-.7-.2-1.2-.2-.4,0-.8,0-1.2.2-.4.1-.7.3-.9.6-.2.2-.3.5-.3.8s.1.7.3.9c.2.2.5.3.9.4.4,0,.8.2,1.2.2.8.1,1.6.3,2.2.6.7.3,1.2.7,1.7,1.2.4.5.6,1.1.6,1.8s-.2,1.4-.6,1.9c-.4.6-1,1-1.7,1.3-.7.3-1.4.5-2.2.5Z"/>
    <path d="M349.6,146.7v2.1h-3.7v10h-2.1v-10h-3.7v-2.1h9.5Z"/>
    <path d="M351.6,158.9v-12.1h2.1v12.1h-2.1Z"/>
    <path d="M361.7,159.1c-.8,0-1.6-.2-2.3-.5-.7-.3-1.4-.8-1.9-1.4-.5-.6-1-1.2-1.3-2-.3-.8-.5-1.6-.5-2.4s.2-1.7.5-2.4c.3-.8.7-1.4,1.3-2,.5-.6,1.2-1,1.9-1.4s1.5-.5,2.3-.5,1.6.2,2.3.5,1.4.8,1.9,1.4c.5.6,1,1.2,1.3,2,.3.8.5,1.6.5,2.4s-.2,1.7-.5,2.4c-.3.8-.7,1.4-1.3,2-.5.6-1.2,1-1.9,1.4-.7.3-1.5.5-2.3.5ZM361.7,157c.5,0,1-.1,1.5-.3.5-.2.9-.5,1.2-.9s.6-.8.8-1.3c.2-.5.3-1,.3-1.6s-.1-1.1-.3-1.6c-.2-.5-.5-.9-.8-1.3-.4-.4-.8-.7-1.2-.9-.5-.2-1-.3-1.5-.3s-1,.1-1.5.3c-.5.2-.9.5-1.2.9-.4.4-.6.8-.8,1.3-.2.5-.3,1-.3,1.6s.1,1.1.3,1.6c.2.5.5.9.8,1.3s.8.7,1.2.9c.5.2,1,.3,1.5.3ZM361.1,145.8l.7-2.5h2.1l-1.4,2.5h-1.4Z"/>
    <path d="M369.2,158.9v-12.1h2.3l5.1,8.3v-8.3h2.1v12.1h-2.3l-5.1-8.3v8.3h-2.1Z"/>
    <path d="M295.1,174.6v-12.1h7.6v2.1h-5.5v2.5h4.4v2.1h-4.4v3.3h5.5v2.1h-7.6Z"/>
    <path d="M304.7,174.6v-12.1h4c.8,0,1.6.2,2.4.5s1.4.8,1.9,1.3,1,1.2,1.3,1.9c.3.7.5,1.5.5,2.4s-.2,1.6-.5,2.4c-.3.7-.8,1.4-1.3,1.9s-1.2,1-1.9,1.3c-.7.3-1.5.5-2.4.5h-4ZM306.8,172.5h1.9c.5,0,1-.1,1.5-.3s.9-.5,1.3-.8c.4-.4.7-.8.9-1.3.2-.5.3-1,.3-1.5s-.1-1.1-.3-1.5c-.2-.5-.5-.9-.9-1.3-.4-.4-.8-.6-1.3-.9-.5-.2-1-.3-1.5-.3h-1.9v7.9Z"/>
    <path d="M316.4,174.6v-12.1h2.1v12.1h-2.1Z"/>
    <path d="M330.1,162.5v2.1h-3.7v10h-2.1v-10h-3.7v-2.1h9.5Z"/>
    <path d="M336.7,174.9c-.8,0-1.6-.2-2.3-.5-.7-.3-1.4-.8-1.9-1.4-.5-.6-1-1.2-1.3-2-.3-.8-.5-1.6-.5-2.4s.2-1.7.5-2.4c.3-.8.7-1.4,1.3-2,.5-.6,1.2-1,1.9-1.4s1.5-.5,2.3-.5,1.6.2,2.3.5,1.4.8,1.9,1.4c.5.6,1,1.2,1.3,2,.3.8.5,1.6.5,2.4s-.2,1.7-.5,2.4c-.3.8-.7,1.4-1.3,2-.5.6-1.2,1-1.9,1.4-.7.3-1.5.5-2.3.5ZM336.7,172.7c.5,0,1-.1,1.5-.3.5-.2.9-.5,1.2-.9s.6-.8.8-1.3c.2-.5.3-1,.3-1.6s-.1-1.1-.3-1.6c-.2-.5-.5-.9-.8-1.3-.4-.4-.8-.7-1.2-.9-.5-.2-1-.3-1.5-.3s-1,.1-1.5.3c-.5.2-.9.5-1.2.9-.4.4-.6.8-.8,1.3-.2.5-.3,1-.3,1.6s.1,1.1.3,1.6c.2.5.5.9.8,1.3s.8.7,1.2.9c.5.2,1,.3,1.5.3Z"/>
    <path d="M344.3,174.6v-12.1h4.7c.7,0,1.3.2,1.8.5.5.3,1,.8,1.3,1.3.3.6.5,1.2.5,1.8s0,1.1-.3,1.5c-.2.5-.5.9-.8,1.2-.4.3-.8.6-1.2.8l2.9,5h-2.4l-2.8-4.8h-1.4v4.8h-2.1ZM346.4,167.7h2.3c.3,0,.6,0,.8-.2.2-.2.4-.4.6-.6.2-.3.2-.5.2-.8s0-.6-.2-.9-.3-.5-.6-.6c-.2-.2-.5-.2-.8-.2h-2.3v3.4Z"/>
    <path d="M354.9,174.6v-12.1h2.1v12.1h-2.1Z"/>
    <path d="M363.4,162.5h2.4l4.4,12.1h-2.2l-.8-2.1h-5.2l-.8,2.1h-2.2l4.4-12.1ZM362.8,170.4h3.6l-1.8-5-1.8,5Z"/>
    <path d="M371.8,174.6v-12.1h2.1v10h5.1v2.1h-7.2Z"/>
  </g>
  <g>
    <path class="st15" d="M87.5,177.4c-2.1,0-4-.4-5.8-1.2s-3.4-1.9-4.8-3.4c-1.4-1.4-2.5-3.1-3.2-5-.8-1.9-1.2-3.9-1.2-6.1s.4-4.2,1.2-6.1,1.9-3.6,3.2-5c1.4-1.4,3-2.6,4.8-3.4,1.8-.8,3.7-1.2,5.8-1.2s4,.4,5.8,1.2c1.8.8,3.4,2,4.8,3.4,1.4,1.4,2.4,3.1,3.2,5,.8,1.9,1.2,3.9,1.2,6.1s-.4,4.2-1.2,6.1c-.8,1.9-1.8,3.6-3.2,5-1.4,1.4-3,2.6-4.8,3.4s-3.7,1.2-5.8,1.2ZM87.5,172.1c1.3,0,2.6-.3,3.8-.8,1.2-.5,2.2-1.3,3.1-2.3.9-1,1.6-2.1,2.1-3.3.5-1.3.7-2.6.7-4s-.3-2.8-.8-4c-.5-1.3-1.2-2.4-2.1-3.3-.9-1-1.9-1.7-3.1-2.3-1.2-.5-2.4-.8-3.7-.8s-2.6.3-3.8.8-2.2,1.3-3.1,2.3c-.9,1-1.6,2.1-2.1,3.3-.5,1.3-.7,2.6-.7,4s.3,2.8.8,4.1c.5,1.3,1.2,2.4,2.1,3.3.9,1,1.9,1.7,3.1,2.3,1.2.5,2.4.8,3.7.8Z"/>
    <path class="st15" d="M108.6,177.4c-1.1,0-2.2-.2-3.3-.6s-2-.9-2.9-1.7l3.4-4.1c.3.3.7.5,1.2.7.5.2,1,.3,1.6.3s1.5-.2,2.2-.6c.7-.4,1.2-1,1.6-1.6.4-.7.6-1.4.6-2.2v-21.2h5.3v21.2c0,1.8-.4,3.4-1.3,4.9-.9,1.5-2,2.6-3.5,3.5-1.5.9-3.1,1.3-4.8,1.3Z"/>
    <path class="st15" d="M134.4,177.4c-1.7,0-3.3-.3-4.8-.8-1.5-.5-2.9-1.3-4-2.3-1.2-1-2-2.2-2.5-3.6l5-1.8c.2.6.6,1.1,1.2,1.6.6.5,1.4.9,2.3,1.2.9.3,1.9.4,2.9.4s2-.2,3-.5c.9-.3,1.7-.8,2.2-1.4.6-.6.8-1.3.8-2.1s-.3-1.5-.9-2c-.6-.5-1.4-.9-2.3-1.2-.9-.3-1.9-.5-2.9-.7-2.2-.3-4.1-.8-5.8-1.5-1.7-.7-3.1-1.7-4-2.9-1-1.2-1.5-2.8-1.5-4.8s.5-3.4,1.6-4.8c1.1-1.4,2.4-2.4,4.2-3.2,1.7-.8,3.6-1.2,5.6-1.2s3.3.3,4.8.8c1.5.5,2.9,1.3,4.1,2.3,1.2,1,2,2.2,2.5,3.6l-5,1.8c-.2-.6-.6-1.1-1.2-1.6-.6-.5-1.4-.9-2.3-1.1-.9-.3-1.9-.4-2.9-.4-1,0-2,.1-2.9.5-.9.3-1.7.8-2.2,1.4s-.9,1.2-.9,2,.3,1.7.8,2.2c.5.5,1.3.9,2.2,1.1.9.2,1.9.4,3,.6,2,.3,3.9.9,5.6,1.6s3.1,1.8,4.1,3c1,1.3,1.6,2.8,1.6,4.6s-.5,3.4-1.6,4.8c-1,1.4-2.4,2.5-4.1,3.2-1.7.8-3.6,1.2-5.6,1.2Z"/>
    <path class="st15" d="M163.8,146.4l-8.8,32.8h-5.3l8.8-32.8h5.3Z"/>
    <path class="st15" d="M182.2,177.4c-2.1,0-4-.4-5.8-1.2s-3.4-1.9-4.8-3.4c-1.4-1.4-2.5-3.1-3.2-5-.8-1.9-1.2-3.9-1.2-6.1s.4-4.2,1.2-6.1,1.9-3.6,3.2-5c1.4-1.4,3-2.6,4.8-3.4,1.8-.8,3.7-1.2,5.8-1.2s4,.4,5.8,1.2c1.8.8,3.4,2,4.8,3.4,1.4,1.4,2.4,3.1,3.2,5s1.2,3.9,1.2,6.1-.4,4.2-1.2,6.1c-.8,1.9-1.8,3.6-3.2,5-1.4,1.4-3,2.6-4.8,3.4s-3.7,1.2-5.8,1.2ZM182.2,172.1c1.3,0,2.6-.3,3.8-.8,1.2-.5,2.2-1.3,3.1-2.3.9-1,1.6-2.1,2.1-3.3.5-1.3.7-2.6.7-4s-.3-2.8-.8-4c-.5-1.3-1.2-2.4-2.1-3.3-.9-1-1.9-1.7-3.1-2.3-1.2-.5-2.4-.8-3.7-.8s-2.6.3-3.8.8-2.2,1.3-3.1,2.3c-.9,1-1.6,2.1-2.1,3.3-.5,1.3-.7,2.6-.7,4s.3,2.8.8,4.1c.5,1.3,1.2,2.4,2.1,3.3.9,1,1.9,1.7,3.1,2.3,1.2.5,2.4.8,3.7.8Z"/>
    <path class="st15" d="M200.1,176.8l5.9-30.4h4.4l7.4,19.5,7.4-19.5h4.4l5.9,30.4h-5.4l-3.6-18.8-6.8,18.1h-3.6l-6.8-18.1-3.6,18.8h-5.4Z"/>
    <path class="st15" d="M239.8,176.8v-30.4h10.9c1.7,0,3.1.4,4.5,1.2,1.3.8,2.4,1.9,3.2,3.3.8,1.4,1.2,2.9,1.2,4.6s-.4,3.3-1.2,4.6c-.8,1.4-1.9,2.5-3.2,3.3-1.3.8-2.8,1.2-4.4,1.2h-5.6v12.1h-5.3ZM245.1,159.4h5c.8,0,1.4-.2,2.1-.6.6-.4,1.1-.9,1.5-1.5.4-.6.6-1.3.6-2.1s-.2-1.5-.6-2.1c-.4-.6-.9-1.1-1.5-1.5-.6-.4-1.3-.6-2.1-.6h-5v8.4Z"/>
  </g>
  <rect x="278.2" y="143.4" width=".8" height="36.9"/>
  <g>
    <path class="st13" d="M84.2,327.4c-7.8,0-15.6,0-23.4.1-2.9-7.2-5.8-14.3-8.7-21.5"/>
    <path class="st13" d="M108.4,441.9c-7.8,0-15.6,0-23.4.1-2.9-7.2-5.8-14.3-8.7-21.5"/>
    <path class="st13" d="M127.5,604.1c-7.8,0-15.6,0-23.4.1-2.9-7.2-5.8-14.3-8.7-21.5"/>
    <path class="st13" d="M107.7,681.5c-7.8,0-15.6,0-23.4.1-2.9-7.2-5.8-14.3-8.7-21.5"/>
    <g>
      <path d="M32.5,265.2c-.5,0-.9-.1-1.3-.4s-.7-.6-.9-1c-.2-.4-.3-.9-.3-1.4v-3.7h.8v3.7c0,.4,0,.7.2,1,.1.3.3.5.6.7s.6.3.9.3.7,0,.9-.3c.3-.2.4-.4.6-.7.1-.3.2-.6.2-1v-3.7h.8v3.7c0,.4,0,.7-.2,1.1s-.3.6-.5.9-.5.4-.8.6c-.3.1-.6.2-1,.2Z"/>
      <path d="M38.4,261.3h-1v3.8h-.8v-3.8s-.8,0-.8,0v-.8h.8v-1.4s.8,0,.8,0v1.4h1v.8Z"/>
      <path d="M39.5,259.8c-.1,0-.2,0-.3-.1,0,0-.1-.2-.1-.3s0-.2.1-.3.2-.1.3-.1.2,0,.3.1.1.2.1.3,0,.2-.1.3c0,0-.2.1-.3.1ZM39.2,260.6h.8v4.5h-.8v-4.5Z"/>
      <path d="M41,265.1v-6.8h.8v6.8h-.8Z"/>
      <path d="M43.2,259.8c-.1,0-.2,0-.3-.1,0,0-.1-.2-.1-.3s0-.2.1-.3.2-.1.3-.1.2,0,.3.1.1.2.1.3,0,.2-.1.3c0,0-.2.1-.3.1ZM42.9,260.6h.8v4.5h-.8v-4.5Z"/>
      <path d="M48.4,261.3l-2.8,3h2.8v.8h-3.8v-.8l2.8-3h-2.8v-.8h3.8v.8Z"/>
      <path d="M52.8,260.6h.8v4.5h-.8v-.8c-.2.3-.4.5-.6.6-.2.2-.5.2-.9.2s-.6,0-.9-.2-.5-.3-.8-.5-.4-.5-.5-.8c-.1-.3-.2-.6-.2-.9s0-.6.2-.9c.1-.3.3-.5.5-.8.2-.2.5-.4.7-.5.3-.1.6-.2.9-.2s.7,0,.9.2c.3.2.5.4.6.6v-.8ZM51.3,264.5c.3,0,.6,0,.8-.2.2-.1.4-.3.5-.6.1-.2.2-.5.2-.8s0-.6-.2-.8-.3-.4-.5-.6c-.2-.1-.5-.2-.8-.2s-.6,0-.8.2c-.2.1-.4.3-.6.6-.1.2-.2.5-.2.8s0,.6.2.8.3.4.6.6c.2.1.5.2.8.2Z"/>
      <path d="M59.6,265.2c-.4,0-.8,0-1.2-.3-.4-.2-.7-.4-1-.7-.3-.3-.5-.6-.7-1-.2-.4-.2-.8-.2-1.3s0-.9.2-1.3.4-.7.7-1c.3-.3.6-.5,1-.7.4-.2.8-.3,1.2-.3s.8,0,1.2.3c.4.2.7.4,1,.7.3.3.5.6.7,1,.2.4.2.8.2,1.3s0,.9-.2,1.3c-.2.4-.4.7-.7,1-.3.3-.6.5-1,.7-.4.2-.8.3-1.2.3ZM59.6,264.4c.3,0,.6,0,.9-.2s.5-.3.7-.5c.2-.2.4-.5.5-.8.1-.3.2-.6.2-1s0-.7-.2-1c-.1-.3-.3-.6-.5-.8s-.5-.4-.7-.5c-.3-.1-.6-.2-.9-.2s-.6,0-.9.2c-.3.1-.5.3-.7.5s-.4.5-.5.8c-.1.3-.2.6-.2,1s0,.7.2,1,.3.6.5.8c.2.2.5.4.7.5.3.1.6.2.9.2Z"/>
      <path d="M64,265.2c-.2,0-.4,0-.6-.1-.2,0-.4-.2-.6-.3l.5-.6c0,0,.2.1.3.2s.2,0,.4,0c.2,0,.4,0,.5-.2s.3-.2.4-.4c0-.2.1-.4.1-.6v-4.5h.8v4.5c0,.3,0,.6-.2.9-.2.3-.4.5-.7.7-.3.2-.6.3-.9.3Z"/>
      <path d="M69.1,265.2c-.3,0-.7,0-1-.2-.3-.1-.6-.3-.8-.5-.2-.2-.4-.4-.5-.7l.7-.3c0,.2.2.3.3.4.2.1.4.2.6.3.2,0,.5.1.7.1s.5,0,.8-.1c.2,0,.4-.2.6-.4s.2-.3.2-.6,0-.4-.2-.5c-.1-.1-.3-.3-.6-.3s-.5-.1-.7-.2c-.4,0-.8-.2-1.2-.3-.3-.1-.6-.3-.8-.6-.2-.2-.3-.6-.3-1s.1-.7.3-1c.2-.3.5-.5.8-.6s.7-.2,1.1-.2.7,0,1,.2c.3.1.6.3.8.5.2.2.4.4.5.7l-.7.3c0-.2-.2-.3-.3-.4-.2-.1-.4-.2-.6-.3-.2,0-.5-.1-.7-.1-.3,0-.5,0-.7.1-.2,0-.4.2-.6.4-.1.2-.2.3-.2.6s0,.4.2.6c.1.1.3.2.5.3.2,0,.5.1.8.2.4,0,.8.2,1.1.3.3.1.6.3.8.6.2.2.3.5.3.9s-.1.7-.3,1-.5.5-.8.6c-.3.2-.7.2-1.1.2Z"/>
      <path d="M74.4,263.4v-2.8h.8v2.6c0,.2,0,.4.2.6.1.2.3.3.4.4.2.1.4.2.6.2s.4,0,.6-.2c.2-.1.3-.3.4-.4.1-.2.2-.4.2-.6v-2.6h.8v4.5s-.8,0-.8,0v-.6c-.2.2-.4.4-.6.5-.2.1-.5.2-.8.2s-.6,0-.9-.2c-.3-.2-.5-.4-.7-.7-.2-.3-.2-.6-.2-.9Z"/>
      <path d="M32.4,273.5c-.4,0-.8,0-1.2-.3-.4-.2-.7-.4-1-.7-.3-.3-.5-.6-.7-1-.2-.4-.2-.8-.2-1.3s0-.9.2-1.3.4-.7.7-1c.3-.3.6-.5,1-.7.4-.2.8-.3,1.2-.3s.8,0,1.2.3c.4.2.7.4,1,.7.3.3.5.6.7,1,.2.4.2.8.2,1.3s0,.9-.2,1.3c-.2.4-.4.7-.7,1-.3.3-.6.5-1,.7-.4.2-.8.3-1.2.3ZM32.4,272.8c.3,0,.6,0,.9-.2s.5-.3.7-.5c.2-.2.4-.5.5-.8.1-.3.2-.6.2-1s0-.7-.2-1c-.1-.3-.3-.6-.5-.8s-.5-.4-.7-.5c-.3-.1-.6-.2-.9-.2s-.6,0-.9.2c-.3.1-.5.3-.7.5s-.4.5-.5.8c-.1.3-.2.6-.2,1s0,.7.2,1,.3.6.5.8c.2.2.5.4.7.5.3.1.6.2.9.2Z"/>
      <path d="M36.2,273.4l1.2-6.3h.6l1.7,4.5,1.7-4.5h.6l1.2,6.3h-.8l-.9-4.6-1.6,4.2h-.5l-1.6-4.2-.9,4.6h-.8Z"/>
      <path d="M44.2,273.4v-6.3h2.1c.3,0,.6,0,.9.2.3.2.5.4.6.7.2.3.2.6.2.9s0,.7-.2.9c-.2.3-.4.5-.7.7-.3.2-.6.2-.9.2h-1.3v2.6h-.8ZM44.9,270.1h1.3c.2,0,.4,0,.6-.2.2-.1.3-.2.4-.4.1-.2.2-.4.2-.6s0-.4-.2-.6c-.1-.2-.2-.3-.4-.4-.2-.1-.4-.2-.6-.2h-1.3v2.3Z"/>
      <path d="M51.9,275.7h-.8v-6.8h.8v.8c.2-.3.4-.5.6-.6.3-.2.6-.2.9-.2s.6,0,.9.2c.3.1.5.3.8.5.2.2.4.5.5.8.1.3.2.6.2.9s0,.6-.2.9c-.1.3-.3.5-.5.8s-.5.4-.8.5-.6.2-.9.2-.7,0-.9-.2c-.3-.2-.5-.4-.6-.6v3ZM53.4,269.5c-.3,0-.5,0-.8.2-.2.1-.4.3-.5.6-.1.2-.2.5-.2.8s0,.6.2.8c.1.2.3.4.5.6.2.1.5.2.8.2s.6,0,.8-.2c.2-.1.4-.3.6-.6.1-.2.2-.5.2-.8s0-.6-.2-.8c-.1-.2-.3-.4-.6-.6-.2-.1-.5-.2-.8-.2Z"/>
      <path d="M60.1,268.9h.8v4.5h-.8v-.8c-.2.3-.4.5-.6.6-.2.2-.5.2-.9.2s-.6,0-.9-.2-.5-.3-.8-.5-.4-.5-.5-.8c-.1-.3-.2-.6-.2-.9s0-.6.2-.9c.1-.3.3-.5.5-.8.2-.2.5-.4.7-.5.3-.1.6-.2.9-.2s.7,0,.9.2c.3.2.5.4.6.6v-.8ZM58.6,272.8c.3,0,.6,0,.8-.2.2-.1.4-.3.5-.6.1-.2.2-.5.2-.8s0-.6-.2-.8-.3-.4-.5-.6c-.2-.1-.5-.2-.8-.2s-.6,0-.8.2c-.2.1-.4.3-.6.6-.1.2-.2.5-.2.8s0,.6.2.8.3.4.6.6c.2.1.5.2.8.2Z"/>
      <path d="M61.8,273.4v-4.5h.8v.6c.2-.2.4-.4.6-.5.2-.1.5-.2.8-.2s.3,0,.5,0l-.3.8c-.1,0-.2,0-.4,0-.2,0-.4,0-.6.2-.2.1-.3.3-.4.4-.1.2-.2.4-.2.6v2.6h-.8Z"/>
      <path d="M68.4,268.9h.8v4.5h-.8v-.8c-.2.3-.4.5-.6.6-.2.2-.5.2-.9.2s-.6,0-.9-.2-.5-.3-.8-.5-.4-.5-.5-.8c-.1-.3-.2-.6-.2-.9s0-.6.2-.9c.1-.3.3-.5.5-.8.2-.2.5-.4.7-.5.3-.1.6-.2.9-.2s.7,0,.9.2c.3.2.5.4.6.6v-.8ZM66.9,272.8c.3,0,.6,0,.8-.2.2-.1.4-.3.5-.6.1-.2.2-.5.2-.8s0-.6-.2-.8-.3-.4-.5-.6c-.2-.1-.5-.2-.8-.2s-.6,0-.8.2c-.2.1-.4.3-.6.6-.1.2-.2.5-.2.8s0,.6.2.8.3.4.6.6c.2.1.5.2.8.2Z"/>
      <path d="M72.2,273.4v-6.8h.8v6.8h-.8Z"/>
      <path d="M77.6,268.9h.8v4.5h-.8v-.8c-.2.3-.4.5-.6.6-.2.2-.5.2-.9.2s-.6,0-.9-.2-.5-.3-.8-.5-.4-.5-.5-.8c-.1-.3-.2-.6-.2-.9s0-.6.2-.9c.1-.3.3-.5.5-.8.2-.2.5-.4.7-.5.3-.1.6-.2.9-.2s.7,0,.9.2c.3.2.5.4.6.6v-.8ZM76.1,272.8c.3,0,.6,0,.8-.2.2-.1.4-.3.5-.6.1-.2.2-.5.2-.8s0-.6-.2-.8-.3-.4-.5-.6c-.2-.1-.5-.2-.8-.2s-.6,0-.8.2c-.2.1-.4.3-.6.6-.1.2-.2.5-.2.8s0,.6.2.8.3.4.6.6c.2.1.5.2.8.2Z"/>
      <path d="M27.3,277.2h.8v4.7c0,.3,0,.6-.2.8-.1.3-.3.5-.5.7s-.5.3-.7.4c-.3.1-.6.2-.9.2s-.6,0-.9-.2c-.3-.1-.5-.3-.8-.6-.2-.2-.4-.5-.5-.8l.7-.3c0,.2.2.4.3.6.1.2.3.3.5.4.2,0,.4.1.6.1s.4,0,.6-.1c.2,0,.4-.2.5-.3.1-.1.3-.3.4-.4,0-.2.1-.3.1-.5v-.9c-.2.3-.4.5-.6.6s-.5.2-.9.2-.6,0-.9-.2c-.3-.1-.5-.3-.7-.5-.2-.2-.4-.5-.5-.8-.1-.3-.2-.6-.2-.9s0-.6.2-.9c.1-.3.3-.5.5-.8.2-.2.5-.4.7-.5.3-.1.6-.2.9-.2s.6,0,.9.2c.3.2.5.4.6.6v-.7ZM25.9,281.1c.3,0,.5,0,.8-.2.2-.2.4-.4.5-.6s.2-.5.2-.8,0-.6-.2-.8c-.1-.2-.3-.4-.5-.6-.2-.1-.5-.2-.8-.2s-.5,0-.8.2c-.2.1-.4.3-.6.6s-.2.5-.2.8,0,.6.2.8.3.4.6.6c.2.1.5.2.8.2Z"/>
      <path d="M31.1,281.8c-.4,0-.8-.1-1.1-.3-.3-.2-.6-.5-.8-.9s-.3-.8-.3-1.2,0-.6.2-.9.3-.5.5-.8c.2-.2.4-.4.7-.5.3-.1.6-.2.9-.2s.7,0,.9.2c.3.1.5.3.7.6.2.2.4.5.5.8.1.3.1.7.1,1h-3.7c0,.3.1.5.3.7s.3.4.5.5c.2.1.4.2.7.2.3,0,.5,0,.7-.2.2-.1.4-.3.5-.6l.8.2c-.2.4-.5.7-.8,1-.4.3-.8.4-1.2.4ZM29.6,279.2h2.9c0-.3-.1-.5-.2-.7-.1-.2-.3-.4-.5-.5-.2-.1-.4-.2-.7-.2s-.5,0-.7.2-.4.3-.5.5-.2.4-.3.7Z"/>
      <path d="M35.5,281.8c-.2,0-.5,0-.7-.1-.2,0-.4-.2-.6-.3-.2-.1-.3-.3-.4-.5l.6-.3c0,.1.1.2.2.3s.3.2.4.2.3,0,.5,0,.3,0,.5,0c.1,0,.3-.1.4-.2,0-.1.1-.2.1-.4s0-.3-.2-.4c-.1,0-.2-.2-.4-.2-.2,0-.3,0-.5-.1-.3,0-.6-.2-.8-.3-.2-.1-.4-.2-.6-.4-.1-.2-.2-.4-.2-.7s0-.5.2-.7c.2-.2.4-.4.6-.5s.5-.2.8-.2.7,0,1,.2c.3.2.5.4.7.6l-.6.4c0-.1-.1-.2-.2-.3-.1,0-.2-.1-.4-.2-.1,0-.3,0-.4,0-.2,0-.3,0-.5,0-.2,0-.3.1-.4.2,0,.1-.1.2-.1.4s0,.3.1.3.2.1.4.2c.2,0,.3,0,.5.2.3,0,.5.2.8.3s.4.3.6.4c.1.2.2.4.2.6,0,.3,0,.5-.2.7-.2.2-.4.4-.6.5-.3.1-.5.2-.8.1Z"/>
      <path d="M40.3,278h-1v3.8h-.8v-3.8s-.8,0-.8,0v-.8h.8v-1.4s.8,0,.8,0v1.4h1v.8Z"/>
      <path d="M41.5,276.5c-.1,0-.2,0-.3-.1,0,0-.1-.2-.1-.3s0-.2.1-.3.2-.1.3-.1.2,0,.3.1.1.2.1.3,0,.2-.1.3c0,0-.2.1-.3.1ZM41.1,277.2h.8v4.5h-.8v-4.5Z"/>
      <path d="M44.9,281.8c-.4,0-.8-.1-1.1-.3-.3-.2-.6-.5-.8-.9s-.3-.8-.3-1.2,0-.6.2-.9.3-.5.5-.8c.2-.2.4-.4.7-.5.3-.1.6-.2.9-.2s.8.1,1.1.3c.3.2.6.5.8.9.2.4.3.8.3,1.2s0,.6-.2.9c-.1.3-.3.5-.5.8-.2.2-.4.4-.7.5-.3.1-.6.2-.9.2ZM44.9,281.1c.3,0,.5,0,.8-.2.2-.1.4-.3.5-.6.1-.2.2-.5.2-.8s0-.6-.2-.8c-.1-.2-.3-.4-.5-.6-.2-.1-.5-.2-.8-.2s-.5,0-.8.2c-.2.1-.4.3-.5.6-.1.2-.2.5-.2.8s0,.6.2.8c.1.2.3.4.5.6.2.1.5.2.7.2ZM44.7,276.7l.4-1.3h.8l-.6,1.3h-.5Z"/>
      <path d="M51.9,278.9v2.8h-.8v-2.6c0-.2,0-.4-.2-.6-.1-.2-.3-.3-.4-.4-.2-.1-.4-.2-.6-.2s-.4,0-.6.2c-.2.1-.3.3-.4.4-.1.2-.2.4-.2.6v2.6h-.8v-4.5h.8v.6c.2-.2.4-.4.6-.5.2-.1.5-.2.8-.2s.6,0,.9.2c.3.2.5.4.7.7.2.3.2.6.2.9Z"/>
      <path d="M58.6,275h.8v6.8h-.8v-.8c-.2.3-.4.5-.6.6-.3.2-.6.2-.9.2s-.6,0-.9-.2c-.3-.1-.5-.3-.8-.5s-.4-.5-.5-.8c-.1-.3-.2-.6-.2-.9s0-.6.2-.9c.1-.3.3-.5.5-.8.2-.2.5-.4.8-.5.3-.1.6-.2.9-.2s.7,0,.9.2c.3.2.5.4.6.6v-3ZM57,281.1c.3,0,.6,0,.8-.2.2-.1.4-.3.5-.6.1-.2.2-.5.2-.8s0-.6-.2-.8-.3-.4-.5-.6c-.2-.1-.5-.2-.8-.2s-.6,0-.8.2c-.2.1-.4.3-.6.6-.1.2-.2.5-.2.8s0,.6.2.8.3.4.6.6c.2.1.5.2.8.2Z"/>
      <path d="M62.3,281.8c-.4,0-.8-.1-1.1-.3-.3-.2-.6-.5-.8-.9s-.3-.8-.3-1.2,0-.6.2-.9.3-.5.5-.8c.2-.2.4-.4.7-.5.3-.1.6-.2.9-.2s.7,0,.9.2c.3.1.5.3.7.6.2.2.4.5.5.8.1.3.1.7.1,1h-3.7c0,.3.1.5.3.7s.3.4.5.5c.2.1.4.2.7.2.3,0,.5,0,.7-.2.2-.1.4-.3.5-.6l.8.2c-.2.4-.5.7-.8,1-.4.3-.8.4-1.2.4ZM60.9,279.2h2.9c0-.3-.1-.5-.2-.7-.1-.2-.3-.4-.5-.5-.2-.1-.4-.2-.7-.2s-.5,0-.7.2-.4.3-.5.5-.2.4-.3.7Z"/>
      <path d="M69.9,278h-1v3.8h-.8v-3.8s-.8,0-.8,0v-.8h.8v-1.4s.8,0,.8,0v1.4h1v.8Z"/>
      <path d="M70.5,280v-2.8h.8v2.6c0,.2,0,.4.2.6.1.2.3.3.4.4.2.1.4.2.6.2s.4,0,.6-.2c.2-.1.3-.3.4-.4.1-.2.2-.4.2-.6v-2.6h.8v4.5s-.8,0-.8,0v-.6c-.2.2-.4.4-.6.5-.2.1-.5.2-.8.2s-.6,0-.9-.2c-.3-.2-.5-.4-.7-.7-.2-.3-.2-.6-.2-.9Z"/>
      <path d="M76.8,281.8c-.2,0-.5,0-.7-.1-.2,0-.4-.2-.6-.3-.2-.1-.3-.3-.4-.5l.6-.3c0,.1.1.2.2.3s.3.2.4.2.3,0,.5,0,.3,0,.5,0c.1,0,.3-.1.4-.2,0-.1.1-.2.1-.4s0-.3-.2-.4c-.1,0-.2-.2-.4-.2-.2,0-.3,0-.5-.1-.3,0-.6-.2-.8-.3-.2-.1-.4-.2-.6-.4-.1-.2-.2-.4-.2-.7s0-.5.2-.7c.2-.2.4-.4.6-.5s.5-.2.8-.2.7,0,1,.2c.3.2.5.4.7.6l-.6.4c0-.1-.1-.2-.2-.3-.1,0-.2-.1-.4-.2-.1,0-.3,0-.4,0-.2,0-.3,0-.5,0-.2,0-.3.1-.4.2,0,.1-.1.2-.1.4s0,.3.1.3.2.1.4.2c.2,0,.3,0,.5.2.3,0,.5.2.8.3s.4.3.6.4c.1.2.2.4.2.6,0,.3,0,.5-.2.7-.2.2-.4.4-.6.5-.3.1-.5.2-.8.1Z"/>
      <path d="M44.6,292.3h-1.1v-6.8h1.1v.6c.1-.2.3-.4.5-.5.2-.1.5-.2.8-.2s.6,0,.9.2c.3.1.5.3.8.5.2.2.4.5.5.8s.2.6.2.9,0,.6-.2.9c-.1.3-.3.5-.5.8s-.5.4-.8.5c-.3.1-.6.2-.9.2s-.5,0-.8-.2c-.2-.1-.4-.3-.5-.5v2.8ZM45.9,286.5c-.2,0-.4,0-.6.2-.2.1-.3.3-.4.5s-.2.4-.2.7,0,.5.2.7c.1.2.2.4.4.5s.4.2.6.2.4,0,.6-.2.3-.3.5-.5.2-.4.2-.7,0-.5-.2-.7-.3-.4-.5-.5c-.2-.1-.4-.2-.6-.2Z"/>
      <path d="M49,290.1v-4.5s1.1,0,1.1,0v.4c.2-.2.3-.3.6-.4.2,0,.4-.1.7-.1s.3,0,.5,0l-.4,1.1c-.1,0-.2,0-.3,0-.2,0-.3,0-.5.1-.1,0-.3.2-.3.3,0,.1-.1.3-.1.5v2.6h-1.1Z"/>
      <path d="M54.1,290.2c-.4,0-.8-.1-1.1-.3-.3-.2-.6-.5-.8-.9s-.3-.8-.3-1.2,0-.6.2-.9.3-.5.5-.8c.2-.2.4-.4.7-.5.3-.1.6-.2.9-.2s.8.1,1.1.3c.3.2.6.5.8.9.2.4.3.8.3,1.2s0,.6-.2.9c-.1.3-.3.5-.5.8-.2.2-.4.4-.7.5-.3.1-.6.2-.9.2ZM54.1,289.1c.2,0,.4,0,.6-.2s.3-.3.4-.5.2-.4.2-.6,0-.4-.2-.6c-.1-.2-.2-.3-.4-.5s-.4-.2-.6-.2-.4,0-.6.2-.3.3-.4.5c-.1.2-.2.4-.2.6s0,.5.2.6c.1.2.2.3.4.5s.4.2.6.2Z"/>
      <path d="M59.9,288.7l1,.5c-.2.3-.5.5-.8.7s-.7.3-1,.3-.8-.1-1.1-.3c-.3-.2-.6-.5-.8-.9s-.3-.8-.3-1.2,0-.6.2-.9.3-.5.5-.8c.2-.2.4-.4.7-.5.3-.1.6-.2.9-.2s.7,0,1,.3.6.4.8.7l-1,.5c-.1-.1-.2-.2-.4-.3-.1,0-.3,0-.4,0-.2,0-.4,0-.6.2s-.3.3-.4.5-.2.4-.2.6,0,.4.2.6.2.3.4.5.4.2.6.2.3,0,.4-.1c.1,0,.3-.2.4-.3Z"/>
      <path d="M63.6,290.2c-.4,0-.8-.1-1.1-.3-.3-.2-.6-.5-.8-.9-.2-.4-.3-.8-.3-1.2s0-.6.2-.9.3-.5.5-.8c.2-.2.4-.4.7-.5.3-.1.6-.2.9-.2s.7,0,1,.2c.3.1.5.4.7.6.2.3.4.6.4.9,0,.3.1.7,0,1h-3.3c0,.2.1.3.2.5s.2.2.4.3.3.1.5.1c.2,0,.4,0,.5-.1s.3-.2.4-.4l1.1.3c-.2.4-.5.7-.8,1-.4.3-.8.4-1.2.4ZM62.4,287.3h2.2c0-.2-.1-.3-.2-.5-.1-.1-.2-.3-.4-.3-.2,0-.3-.1-.5-.1s-.3,0-.5.1c-.2,0-.3.2-.4.3-.1.1-.2.3-.2.5Z"/>
      <path d="M67.9,290.1c-.2,0-.5,0-.7-.1-.2,0-.4-.2-.6-.3-.2-.1-.3-.3-.4-.5l.9-.4c0,0,0,.1.2.2,0,0,.2.1.3.2.1,0,.2,0,.4,0s.2,0,.3,0c.1,0,.2,0,.3-.1,0,0,0-.2,0-.3s0-.2-.1-.3-.2-.1-.3-.1-.2,0-.3,0c-.3,0-.6-.1-.8-.3-.2-.1-.4-.3-.6-.5-.1-.2-.2-.4-.2-.7s0-.6.2-.8.4-.4.6-.5.5-.2.8-.2.7,0,1,.2c.3.1.5.4.7.6l-.9.5c0,0-.1-.1-.2-.2s-.2-.1-.3-.2-.2,0-.3,0c-.1,0-.3,0-.4,0-.1,0-.2,0-.3.2,0,0-.1.2-.1.3s0,.2.1.3c0,0,.2,0,.3.1.1,0,.2,0,.4,0,.3,0,.5.2.7.3.2.1.4.3.6.5.1.2.2.4.2.7,0,.3,0,.5-.3.8s-.4.4-.7.5-.6.2-.9.1Z"/>
      <path d="M72.4,290.2c-.4,0-.8-.1-1.1-.3-.3-.2-.6-.5-.8-.9s-.3-.8-.3-1.2,0-.6.2-.9.3-.5.5-.8c.2-.2.4-.4.7-.5.3-.1.6-.2.9-.2s.8.1,1.1.3c.3.2.6.5.8.9.2.4.3.8.3,1.2s0,.6-.2.9c-.1.3-.3.5-.5.8-.2.2-.4.4-.7.5-.3.1-.6.2-.9.2ZM72.4,289.1c.2,0,.4,0,.6-.2s.3-.3.4-.5.2-.4.2-.6,0-.4-.2-.6c-.1-.2-.2-.3-.4-.5s-.4-.2-.6-.2-.4,0-.6.2-.3.3-.4.5c-.1.2-.2.4-.2.6s0,.5.2.6c.1.2.2.3.4.5s.4.2.6.2Z"/>
      <path d="M76.7,290.1c-.2,0-.5,0-.7-.1-.2,0-.4-.2-.6-.3-.2-.1-.3-.3-.4-.5l.9-.4c0,0,0,.1.2.2,0,0,.2.1.3.2.1,0,.2,0,.4,0s.2,0,.3,0c.1,0,.2,0,.3-.1,0,0,0-.2,0-.3s0-.2-.1-.3-.2-.1-.3-.1-.2,0-.3,0c-.3,0-.6-.1-.8-.3-.2-.1-.4-.3-.6-.5-.1-.2-.2-.4-.2-.7s0-.6.2-.8.4-.4.6-.5.5-.2.8-.2.7,0,1,.2c.3.1.5.4.7.6l-.9.5c0,0-.1-.1-.2-.2s-.2-.1-.3-.2-.2,0-.3,0c-.1,0-.3,0-.4,0-.1,0-.2,0-.3.2,0,0-.1.2-.1.3s0,.2.1.3c0,0,.2,0,.3.1.1,0,.2,0,.4,0,.3,0,.5.2.7.3.2.1.4.3.6.5.1.2.2.4.2.7,0,.3,0,.5-.3.8s-.4.4-.7.5-.6.2-.9.1Z"/>
      <path d="M38.6,298.5c-.4,0-.8-.1-1.1-.3-.3-.2-.6-.5-.8-.9-.2-.4-.3-.8-.3-1.2s0-.6.2-.9.3-.5.5-.8c.2-.2.4-.4.7-.5.3-.1.6-.2.9-.2s.7,0,1,.2c.3.1.5.4.7.6.2.3.4.6.4.9,0,.3.1.7,0,1h-3.3c0,.2.1.3.2.5s.2.2.4.3.3.1.5.1c.2,0,.4,0,.5-.1s.3-.2.4-.4l1.1.3c-.2.4-.5.7-.8,1-.4.3-.8.4-1.2.4ZM37.5,295.7h2.2c0-.2-.1-.3-.2-.5-.1-.1-.2-.3-.4-.3-.2,0-.3-.1-.5-.1s-.3,0-.5.1c-.2,0-.3.2-.4.3-.1.1-.2.3-.2.5Z"/>
      <path d="M45,291.6h1.1v6.8h-1.1v-.6c-.1.2-.3.4-.5.5-.2.1-.5.2-.8.2s-.6,0-.9-.2c-.3-.1-.5-.3-.8-.5s-.4-.5-.5-.8c-.1-.3-.2-.6-.2-.9s0-.6.2-.9c.1-.3.3-.5.5-.8.2-.2.5-.4.8-.5.3-.1.6-.2.9-.2s.5,0,.8.2c.2.1.4.3.5.5v-2.8ZM43.7,297.4c.2,0,.4,0,.6-.2.2-.1.3-.3.4-.5.1-.2.2-.4.2-.7s0-.5-.2-.7c-.1-.2-.2-.4-.4-.5-.2-.1-.4-.2-.6-.2s-.4,0-.6.2c-.2.1-.3.3-.5.5s-.2.4-.2.7,0,.5.2.7c.1.2.3.4.5.5.2.1.4.2.6.2Z"/>
      <path d="M47.8,293.3c-.2,0-.3,0-.4-.2-.1-.1-.2-.2-.2-.4s0-.3.2-.4c.1-.1.2-.2.4-.2s.3,0,.4.2c.1.1.2.2.2.4s0,.3-.2.4c-.1.1-.2.2-.4.2ZM47.2,293.9h1.1v4.5h-1.1v-4.5Z"/>
      <path d="M51.8,295h-.9v3.4h-1.1v-3.4h-.7v-1.1h.7v-1.4h1.1v1.4h.9v1.1Z"/>
      <path d="M54.5,298.5c-.4,0-.8-.1-1.1-.3-.3-.2-.6-.5-.8-.9s-.3-.8-.3-1.2,0-.6.2-.9.3-.5.5-.8c.2-.2.4-.4.7-.5.3-.1.6-.2.9-.2s.8.1,1.1.3c.3.2.6.5.8.9.2.4.3.8.3,1.2s0,.6-.2.9c-.1.3-.3.5-.5.8-.2.2-.4.4-.7.5-.3.1-.6.2-.9.2ZM54.5,297.4c.2,0,.4,0,.6-.2s.3-.3.4-.5.2-.4.2-.6,0-.4-.2-.6c-.1-.2-.2-.3-.4-.5s-.4-.2-.6-.2-.4,0-.6.2-.3.3-.4.5c-.1.2-.2.4-.2.6s0,.5.2.6c.1.2.2.3.4.5s.4.2.6.2Z"/>
      <path d="M57.5,298.4v-4.5s1.1,0,1.1,0v.4c.2-.2.3-.3.6-.4.2,0,.4-.1.7-.1s.3,0,.5,0l-.4,1.1c-.1,0-.2,0-.3,0-.2,0-.3,0-.5.1-.1,0-.3.2-.3.3,0,.1-.1.3-.1.5v2.6h-1.1Z"/>
      <path d="M61.3,293.3c-.2,0-.3,0-.4-.2-.1-.1-.2-.2-.2-.4s0-.3.2-.4c.1-.1.2-.2.4-.2s.3,0,.4.2c.1.1.2.2.2.4s0,.3-.2.4c-.1.1-.2.2-.4.2ZM60.8,293.9h1.1v4.5h-1.1v-4.5Z"/>
      <path d="M66.3,293.9h1.1v4.5h-1.1v-.6c-.2.2-.3.4-.5.5-.2.1-.4.2-.7.2s-.6,0-.9-.2c-.3-.1-.5-.3-.8-.5-.2-.2-.4-.5-.5-.8s-.2-.6-.2-.9,0-.6.2-.9c.1-.3.3-.5.5-.7s.5-.4.7-.5c.3-.1.6-.2.9-.2s.6,0,.8.2c.2.1.4.3.6.5v-.6ZM65,297.4c.2,0,.4,0,.6-.2.2-.1.3-.3.4-.5.1-.2.2-.4.2-.7s0-.5-.2-.7c-.1-.2-.2-.4-.4-.5-.2-.1-.4-.2-.6-.2s-.4,0-.6.2c-.2.1-.3.3-.5.5s-.2.4-.2.7,0,.5.2.7c.1.2.3.4.5.5.2.1.4.2.6.2Z"/>
      <path d="M68.3,298.4v-6.8h1.1v6.8h-1.1Z"/>
      <path d="M72.4,298.5c-.4,0-.8-.1-1.1-.3-.3-.2-.6-.5-.8-.9-.2-.4-.3-.8-.3-1.2s0-.6.2-.9.3-.5.5-.8c.2-.2.4-.4.7-.5.3-.1.6-.2.9-.2s.7,0,1,.2c.3.1.5.4.7.6.2.3.4.6.4.9,0,.3.1.7,0,1h-3.3c0,.2.1.3.2.5s.2.2.4.3.3.1.5.1c.2,0,.4,0,.5-.1s.3-.2.4-.4l1.1.3c-.2.4-.5.7-.8,1-.4.3-.8.4-1.2.4ZM71.3,295.7h2.2c0-.2-.1-.3-.2-.5-.1-.1-.2-.3-.4-.3-.2,0-.3-.1-.5-.1s-.3,0-.5.1c-.2,0-.3.2-.4.3-.1.1-.2.3-.2.5Z"/>
      <path d="M76.7,298.5c-.2,0-.5,0-.7-.1-.2,0-.4-.2-.6-.3-.2-.1-.3-.3-.4-.5l.9-.4c0,0,0,.1.2.2,0,0,.2.1.3.2.1,0,.2,0,.4,0s.2,0,.3,0c.1,0,.2,0,.3-.1,0,0,0-.2,0-.3s0-.2-.1-.3-.2-.1-.3-.1-.2,0-.3,0c-.3,0-.6-.1-.8-.3-.2-.1-.4-.3-.6-.5-.1-.2-.2-.4-.2-.7s0-.6.2-.8.4-.4.6-.5.5-.2.8-.2.7,0,1,.2c.3.1.5.4.7.6l-.9.5c0,0-.1-.1-.2-.2s-.2-.1-.3-.2-.2,0-.3,0c-.1,0-.3,0-.4,0-.1,0-.2,0-.3.2,0,0-.1.2-.1.3s0,.2.1.3c0,0,.2,0,.3.1.1,0,.2,0,.4,0,.3,0,.5.2.7.3.2.1.4.3.6.5.1.2.2.4.2.7,0,.3,0,.5-.3.8s-.4.4-.7.5-.6.2-.9.1Z"/>
    </g>
    <g class="st9">
      <rect class="st12" x="222.2" y="220.5" width="7.8" height="269" transform="translate(-142.1 558.8) rotate(-86.5)"/>
    </g>
    <g>
      <g class="st7">
        <rect class="st12" x="121.4" y="446.5" width="260.1" height="6.5" transform="translate(-40.3 25) rotate(-5.3)"/>
      </g>
      <rect class="st14" x="217.2" y="286.4" width="59.1" height="263.6" transform="translate(640.5 134) rotate(84.7)"/>
      <text class="st2" transform="translate(150.2 435.2) rotate(-5.3)"><tspan x="0" y="0">ACTUALIZACIÓN</tspan></text>
    </g>
    <path class="st13" d="M276.8,523.8c7.9,0,15.7,0,23.6,0,2.9-4.3,5.8-8.6,8.7-12.8"/>
    <g>
      <path d="M23.1,388.8v-6.3h2.1c.4,0,.8,0,1.2.2.4.2.7.4,1,.7s.5.6.7,1c.2.4.2.8.2,1.2s0,.8-.2,1.2c-.2.4-.4.7-.7,1s-.6.5-1,.7c-.4.2-.8.2-1.2.2h-2.1ZM23.8,388.1h1.3c.3,0,.6,0,.9-.2s.5-.3.8-.5.4-.5.5-.8c.1-.3.2-.6.2-.9s0-.6-.2-.9c-.1-.3-.3-.5-.5-.8-.2-.2-.5-.4-.8-.5-.3-.1-.6-.2-.9-.2h-1.3v4.8Z"/>
      <path d="M29.5,383.6c-.1,0-.2,0-.3-.1,0,0-.1-.2-.1-.3s0-.2.1-.3.2-.1.3-.1.2,0,.3.1.1.2.1.3,0,.2-.1.3c0,0-.2.1-.3.1ZM29.1,384.3h.8v4.5h-.8v-4.5Z"/>
      <path d="M32.3,388.9c-.2,0-.5,0-.7-.1-.2,0-.4-.2-.6-.3-.2-.1-.3-.3-.4-.5l.6-.3c0,.1.1.2.2.3s.3.2.4.2.3,0,.5,0,.3,0,.5,0c.1,0,.3-.1.4-.2,0-.1.1-.2.1-.4s0-.3-.2-.4c-.1,0-.2-.2-.4-.2-.2,0-.3,0-.5-.1-.3,0-.6-.2-.8-.3-.2-.1-.4-.2-.6-.4-.1-.2-.2-.4-.2-.7s0-.5.2-.7c.2-.2.4-.4.6-.5s.5-.2.8-.2.7,0,1,.2c.3.2.5.4.7.6l-.6.4c0-.1-.1-.2-.2-.3-.1,0-.2-.1-.4-.2-.1,0-.3,0-.4,0-.2,0-.3,0-.5,0-.2,0-.3.1-.4.2,0,.1-.1.2-.1.4s0,.3.1.3.2.1.4.2c.2,0,.3,0,.5.2.3,0,.5.2.8.3s.4.3.6.4c.1.2.2.4.2.6,0,.3,0,.5-.2.7-.2.2-.4.4-.6.5-.3.1-.5.2-.8.1Z"/>
      <path d="M35.8,383.2v1.1h1.3v.8h-1.3v3.8h-.8v-3.8h-.6v-.8h.6v-1.1c0-.2,0-.4.2-.6.1-.2.3-.3.5-.5s.4-.2.6-.2.3,0,.5.1c.2,0,.3.2.4.3l-.5.5c0,0,0-.1-.2-.1,0,0-.1,0-.2,0-.1,0-.3,0-.3.1s-.1.2-.1.3Z"/>
      <path d="M38,388.8v-4.5h.8v.6c.2-.2.4-.4.6-.5.2-.1.5-.2.8-.2s.3,0,.5,0l-.3.8c-.1,0-.2,0-.4,0-.2,0-.4,0-.6.2-.2.1-.3.3-.4.4-.1.2-.2.4-.2.6v2.6h-.8Z"/>
      <path d="M41,387.1v-2.8h.8v2.6c0,.2,0,.4.2.6.1.2.3.3.4.4.2.1.4.2.6.2s.4,0,.6-.2c.2-.1.3-.3.4-.4.1-.2.2-.4.2-.6v-2.6h.8v4.5s-.8,0-.8,0v-.6c-.2.2-.4.4-.6.5-.2.1-.5.2-.8.2s-.6,0-.9-.2c-.3-.2-.5-.4-.7-.7-.2-.3-.2-.6-.2-.9Z"/>
      <path d="M48.2,385.1h-1v3.8h-.8v-3.8s-.8,0-.8,0v-.8h.8v-1.4s.8,0,.8,0v1.4h1v.8Z"/>
      <path d="M52.5,384.3h.8v4.5h-.8v-.8c-.2.3-.4.5-.6.6-.2.2-.5.2-.9.2s-.6,0-.9-.2-.5-.3-.8-.5-.4-.5-.5-.8c-.1-.3-.2-.6-.2-.9s0-.6.2-.9c.1-.3.3-.5.5-.8.2-.2.5-.4.7-.5.3-.1.6-.2.9-.2s.7,0,.9.2c.3.2.5.4.6.6v-.8ZM51,388.2c.3,0,.6,0,.8-.2.2-.1.4-.3.5-.6.1-.2.2-.5.2-.8s0-.6-.2-.8-.3-.4-.5-.6c-.2-.1-.5-.2-.8-.2s-.6,0-.8.2c-.2.1-.4.3-.6.6-.1.2-.2.5-.2.8s0,.6.2.8.3.4.6.6c.2.1.5.2.8.2Z"/>
      <path d="M60,382.1h.8v6.8h-.8v-.8c-.2.3-.4.5-.6.6-.3.2-.6.2-.9.2s-.6,0-.9-.2c-.3-.1-.5-.3-.8-.5s-.4-.5-.5-.8c-.1-.3-.2-.6-.2-.9s0-.6.2-.9c.1-.3.3-.5.5-.8.2-.2.5-.4.8-.5.3-.1.6-.2.9-.2s.7,0,.9.2c.3.2.5.4.6.6v-3ZM58.5,388.2c.3,0,.6,0,.8-.2.2-.1.4-.3.5-.6.1-.2.2-.5.2-.8s0-.6-.2-.8-.3-.4-.5-.6c-.2-.1-.5-.2-.8-.2s-.6,0-.8.2c-.2.1-.4.3-.6.6-.1.2-.2.5-.2.8s0,.6.2.8.3.4.6.6c.2.1.5.2.8.2Z"/>
      <path d="M63.8,388.9c-.4,0-.8-.1-1.1-.3-.3-.2-.6-.5-.8-.9s-.3-.8-.3-1.2,0-.6.2-.9.3-.5.5-.8c.2-.2.4-.4.7-.5.3-.1.6-.2.9-.2s.7,0,.9.2c.3.1.5.3.7.6.2.2.4.5.5.8.1.3.1.7.1,1h-3.7c0,.3.1.5.3.7s.3.4.5.5c.2.1.4.2.7.2.3,0,.5,0,.7-.2.2-.1.4-.3.5-.6l.8.2c-.2.4-.5.7-.8,1-.4.3-.8.4-1.2.4ZM62.3,386.3h2.9c0-.3-.1-.5-.2-.7-.1-.2-.3-.4-.5-.5-.2-.1-.4-.2-.7-.2s-.5,0-.7.2-.4.3-.5.5-.2.4-.3.7Z"/>
      <path d="M69,388.8v-6.8h.8v6.8h-.8Z"/>
      <path d="M72.8,388.9c-.4,0-.8-.1-1.1-.3-.3-.2-.6-.5-.8-.9s-.3-.8-.3-1.2,0-.6.2-.9.3-.5.5-.8c.2-.2.4-.4.7-.5.3-.1.6-.2.9-.2s.8.1,1.1.3c.3.2.6.5.8.9.2.4.3.8.3,1.2s0,.6-.2.9c-.1.3-.3.5-.5.8-.2.2-.4.4-.7.5-.3.1-.6.2-.9.2ZM72.8,388.2c.3,0,.5,0,.8-.2.2-.1.4-.3.5-.6.1-.2.2-.5.2-.8s0-.6-.2-.8c-.1-.2-.3-.4-.5-.6-.2-.1-.5-.2-.8-.2s-.5,0-.8.2c-.2.1-.4.3-.5.6-.1.2-.2.5-.2.8s0,.6.2.8c.1.2.3.4.5.6.2.1.5.2.7.2Z"/>
      <path d="M77.2,388.9c-.2,0-.5,0-.7-.1-.2,0-.4-.2-.6-.3-.2-.1-.3-.3-.4-.5l.6-.3c0,.1.1.2.2.3s.3.2.4.2.3,0,.5,0,.3,0,.5,0c.1,0,.3-.1.4-.2,0-.1.1-.2.1-.4s0-.3-.2-.4c-.1,0-.2-.2-.4-.2-.2,0-.3,0-.5-.1-.3,0-.6-.2-.8-.3-.2-.1-.4-.2-.6-.4-.1-.2-.2-.4-.2-.7s0-.5.2-.7c.2-.2.4-.4.6-.5s.5-.2.8-.2.7,0,1,.2c.3.2.5.4.7.6l-.6.4c0-.1-.1-.2-.2-.3-.1,0-.2-.1-.4-.2-.1,0-.3,0-.4,0-.2,0-.3,0-.5,0-.2,0-.3.1-.4.2,0,.1-.1.2-.1.4s0,.3.1.3.2.1.4.2c.2,0,.3,0,.5.2.3,0,.5.2.8.3s.4.3.6.4c.1.2.2.4.2.6,0,.3,0,.5-.2.7-.2.2-.4.4-.6.5-.3.1-.5.2-.8.1Z"/>
      <path d="M14.6,392.5c.4,0,.8.1,1.2.3.4.2.6.5.9.9s.3.8.3,1.2,0,.6-.2.9-.3.5-.5.8-.5.4-.8.5c-.3.1-.6.2-.9.2s-.5,0-.8-.2c-.2-.1-.4-.3-.5-.5v.6h-1.1v-6.8h1.1v2.8c.1-.2.3-.4.5-.5.2-.1.5-.2.8-.2ZM14.6,396.2c.2,0,.4,0,.6-.2.2-.1.3-.3.5-.5s.2-.4.2-.7,0-.5-.2-.7c-.1-.2-.3-.4-.5-.5s-.4-.2-.6-.2-.4,0-.6.2-.3.3-.4.5c-.1.2-.2.4-.2.7s0,.5.2.7c.1.2.2.4.4.5s.4.2.6.2Z"/>
      <path d="M19.7,397.3c-.4,0-.8-.1-1.1-.3-.3-.2-.6-.5-.8-.9-.2-.4-.3-.8-.3-1.2s0-.6.2-.9.3-.5.5-.8c.2-.2.4-.4.7-.5.3-.1.6-.2.9-.2s.7,0,1,.2c.3.1.5.4.7.6.2.3.4.6.4.9,0,.3.1.7,0,1h-3.3c0,.2.1.3.2.5s.2.2.4.3.3.1.5.1c.2,0,.4,0,.5-.1s.3-.2.4-.4l1.1.3c-.2.4-.5.7-.8,1-.4.3-.8.4-1.2.4ZM18.6,394.4h2.2c0-.2-.1-.3-.2-.5-.1-.1-.2-.3-.4-.3-.2,0-.3-.1-.5-.1s-.3,0-.5.1c-.2,0-.3.2-.4.3-.1.1-.2.3-.2.5Z"/>
      <path d="M26.8,394.3v2.8h-1.1v-2.6c0-.2,0-.3-.1-.5,0-.1-.2-.3-.3-.3-.1,0-.3-.1-.5-.1s-.3,0-.5.1c-.1,0-.3.2-.3.3,0,.1-.1.3-.1.5v2.6h-1.1v-4.5s1.1,0,1.1,0v.4c.2-.2.3-.3.6-.4.2,0,.4-.1.7-.1s.6,0,.9.2c.3.2.5.4.6.6s.2.6.2.9Z"/>
      <path d="M29.6,397.3c-.4,0-.8-.1-1.1-.3-.3-.2-.6-.5-.8-.9-.2-.4-.3-.8-.3-1.2s0-.6.2-.9.3-.5.5-.8c.2-.2.4-.4.7-.5.3-.1.6-.2.9-.2s.7,0,1,.2c.3.1.5.4.7.6.2.3.4.6.4.9,0,.3.1.7,0,1h-3.3c0,.2.1.3.2.5s.2.2.4.3.3.1.5.1c.2,0,.4,0,.5-.1s.3-.2.4-.4l1.1.3c-.2.4-.5.7-.8,1-.4.3-.8.4-1.2.4ZM28.5,394.4h2.2c0-.2-.1-.3-.2-.5-.1-.1-.2-.3-.4-.3-.2,0-.3-.1-.5-.1s-.3,0-.5.1c-.2,0-.3.2-.4.3-.1.1-.2.3-.2.5Z"/>
      <path d="M33.9,391.7v.9h1.2v1.1h-1.2v3.4h-1.1v-3.4h-.5v-1.1h.5v-.9c0-.3,0-.5.2-.7.1-.2.3-.4.5-.5.2-.1.5-.2.7-.2s.4,0,.6.1.4.2.5.4l-.8.8c0,0,0,0-.1-.1,0,0,0,0-.2,0,0,0-.2,0-.2,0,0,0,0,.1,0,.2Z"/>
      <path d="M36.4,392.1c-.2,0-.3,0-.4-.2-.1-.1-.2-.2-.2-.4s0-.3.2-.4c.1-.1.2-.2.4-.2s.3,0,.4.2c.1.1.2.2.2.4s0,.3-.2.4c-.1.1-.2.2-.4.2ZM35.9,392.6h1.1v4.5h-1.1v-4.5Z"/>
      <path d="M40.7,395.8l1,.5c-.2.3-.5.5-.8.7s-.7.3-1,.3-.8-.1-1.1-.3c-.3-.2-.6-.5-.8-.9s-.3-.8-.3-1.2,0-.6.2-.9.3-.5.5-.8c.2-.2.4-.4.7-.5.3-.1.6-.2.9-.2s.7,0,1,.3.6.4.8.7l-1,.5c-.1-.1-.2-.2-.4-.3-.1,0-.3,0-.4,0-.2,0-.4,0-.6.2s-.3.3-.4.5-.2.4-.2.6,0,.4.2.6.2.3.4.5.4.2.6.2.3,0,.4-.1c.1,0,.3-.2.4-.3Z"/>
      <path d="M42.9,392.1c-.2,0-.3,0-.4-.2-.1-.1-.2-.2-.2-.4s0-.3.2-.4c.1-.1.2-.2.4-.2s.3,0,.4.2c.1.1.2.2.2.4s0,.3-.2.4c-.1.1-.2.2-.4.2ZM42.4,392.6h1.1v4.5h-1.1v-4.5Z"/>
      <path d="M46.4,397.3c-.4,0-.8-.1-1.1-.3-.3-.2-.6-.5-.8-.9s-.3-.8-.3-1.2,0-.6.2-.9.3-.5.5-.8c.2-.2.4-.4.7-.5.3-.1.6-.2.9-.2s.8.1,1.1.3c.3.2.6.5.8.9.2.4.3.8.3,1.2s0,.6-.2.9c-.1.3-.3.5-.5.8-.2.2-.4.4-.7.5-.3.1-.6.2-.9.2ZM46.4,396.2c.2,0,.4,0,.6-.2s.3-.3.4-.5.2-.4.2-.6,0-.4-.2-.6c-.1-.2-.2-.3-.4-.5s-.4-.2-.6-.2-.4,0-.6.2-.3.3-.4.5c-.1.2-.2.4-.2.6s0,.5.2.6c.1.2.2.3.4.5s.4.2.6.2Z"/>
      <path d="M50.8,397.2c-.2,0-.5,0-.7-.1-.2,0-.4-.2-.6-.3-.2-.1-.3-.3-.4-.5l.9-.4c0,0,0,.1.2.2,0,0,.2.1.3.2.1,0,.2,0,.4,0s.2,0,.3,0c.1,0,.2,0,.3-.1,0,0,0-.2,0-.3s0-.2-.1-.3-.2-.1-.3-.1-.2,0-.3,0c-.3,0-.6-.1-.8-.3-.2-.1-.4-.3-.6-.5-.1-.2-.2-.4-.2-.7s0-.6.2-.8.4-.4.6-.5.5-.2.8-.2.7,0,1,.2c.3.1.5.4.7.6l-.9.5c0,0-.1-.1-.2-.2s-.2-.1-.3-.2-.2,0-.3,0c-.1,0-.3,0-.4,0-.1,0-.2,0-.3.2,0,0-.1.2-.1.3s0,.2.1.3c0,0,.2,0,.3.1.1,0,.2,0,.4,0,.3,0,.5.2.7.3.2.1.4.3.6.5.1.2.2.4.2.7,0,.3,0,.5-.3.8s-.4.4-.7.5-.6.2-.9.1Z"/>
      <path d="M58.9,390.4h1.1v6.8h-1.1v-.6c-.1.2-.3.4-.5.5-.2.1-.5.2-.8.2s-.6,0-.9-.2c-.3-.1-.5-.3-.8-.5s-.4-.5-.5-.8c-.1-.3-.2-.6-.2-.9s0-.6.2-.9c.1-.3.3-.5.5-.8.2-.2.5-.4.8-.5.3-.1.6-.2.9-.2s.5,0,.8.2c.2.1.4.3.5.5v-2.8ZM57.6,396.2c.2,0,.4,0,.6-.2.2-.1.3-.3.4-.5.1-.2.2-.4.2-.7s0-.5-.2-.7c-.1-.2-.2-.4-.4-.5-.2-.1-.4-.2-.6-.2s-.4,0-.6.2c-.2.1-.3.3-.5.5s-.2.4-.2.7,0,.5.2.7c.1.2.3.4.5.5.2.1.4.2.6.2Z"/>
      <path d="M63,397.3c-.4,0-.8-.1-1.1-.3-.3-.2-.6-.5-.8-.9-.2-.4-.3-.8-.3-1.2s0-.6.2-.9.3-.5.5-.8c.2-.2.4-.4.7-.5.3-.1.6-.2.9-.2s.7,0,1,.2c.3.1.5.4.7.6.2.3.4.6.4.9,0,.3.1.7,0,1h-3.3c0,.2.1.3.2.5s.2.2.4.3.3.1.5.1c.2,0,.4,0,.5-.1s.3-.2.4-.4l1.1.3c-.2.4-.5.7-.8,1-.4.3-.8.4-1.2.4ZM61.9,394.4h2.2c0-.2-.1-.3-.2-.5-.1-.1-.2-.3-.4-.3-.2,0-.3-.1-.5-.1s-.3,0-.5.1c-.2,0-.3.2-.4.3-.1.1-.2.3-.2.5Z"/>
      <path d="M68.2,397.1v-6.8h1.1v6.8h-1.1Z"/>
      <path d="M73.8,392.6h1.1v4.5h-1.1v-.6c-.2.2-.3.4-.5.5-.2.1-.4.2-.7.2s-.6,0-.9-.2c-.3-.1-.5-.3-.8-.5-.2-.2-.4-.5-.5-.8s-.2-.6-.2-.9,0-.6.2-.9c.1-.3.3-.5.5-.7s.5-.4.7-.5c.3-.1.6-.2.9-.2s.6,0,.8.2c.2.1.4.3.6.5v-.6ZM72.5,396.2c.2,0,.4,0,.6-.2.2-.1.3-.3.4-.5.1-.2.2-.4.2-.7s0-.5-.2-.7c-.1-.2-.2-.4-.4-.5-.2-.1-.4-.2-.6-.2s-.4,0-.6.2c-.2.1-.3.3-.5.5s-.2.4-.2.7,0,.5.2.7c.1.2.3.4.5.5.2.1.4.2.6.2Z"/>
      <path d="M77.1,397.2c-.2,0-.5,0-.7-.1-.2,0-.4-.2-.6-.3-.2-.1-.3-.3-.4-.5l.9-.4c0,0,0,.1.2.2,0,0,.2.1.3.2.1,0,.2,0,.4,0s.2,0,.3,0c.1,0,.2,0,.3-.1,0,0,0-.2,0-.3s0-.2-.1-.3-.2-.1-.3-.1-.2,0-.3,0c-.3,0-.6-.1-.8-.3-.2-.1-.4-.3-.6-.5-.1-.2-.2-.4-.2-.7s0-.6.2-.8.4-.4.6-.5.5-.2.8-.2.7,0,1,.2c.3.1.5.4.7.6l-.9.5c0,0-.1-.1-.2-.2s-.2-.1-.3-.2-.2,0-.3,0c-.1,0-.3,0-.4,0-.1,0-.2,0-.3.2,0,0-.1.2-.1.3s0,.2.1.3c0,0,.2,0,.3.1.1,0,.2,0,.4,0,.3,0,.5.2.7.3.2.1.4.3.6.5.1.2.2.4.2.7,0,.3,0,.5-.3.8s-.4.4-.7.5-.6.2-.9.1Z"/>
      <path d="M15,402.6v2.8h-1.1v-2.6c0-.2,0-.3-.1-.5,0-.1-.2-.3-.3-.3-.1,0-.3-.1-.5-.1s-.3,0-.5.1c-.1,0-.3.2-.3.3,0,.1-.1.3-.1.5v2.6h-1.1v-4.5s1.1,0,1.1,0v.4c.2-.2.3-.3.6-.4.2,0,.4-.1.7-.1s.6,0,.9.2c.3.2.5.4.6.6s.2.6.2.9Z"/>
      <path d="M15.7,403.8v-2.8h1.1v2.6c0,.2,0,.3.1.5,0,.1.2.3.3.3.1,0,.3.1.5.1s.3,0,.5-.1c.1,0,.3-.2.3-.3,0-.1.1-.3.1-.5v-2.6h1.1v4.5s-1.1,0-1.1,0v-.4c-.2.2-.3.3-.6.4-.2,0-.4.1-.7.1s-.6,0-.9-.2-.5-.4-.6-.6c-.2-.3-.2-.6-.2-.9Z"/>
      <path d="M22.7,405.6c-.4,0-.8-.1-1.1-.3-.3-.2-.6-.5-.8-.9-.2-.4-.3-.8-.3-1.2s0-.6.2-.9.3-.5.5-.8c.2-.2.4-.4.7-.5.3-.1.6-.2.9-.2s.7,0,1,.2c.3.1.5.4.7.6.2.3.4.6.4.9,0,.3.1.7,0,1h-3.3c0,.2.1.3.2.5s.2.2.4.3.3.1.5.1c.2,0,.4,0,.5-.1s.3-.2.4-.4l1.1.3c-.2.4-.5.7-.8,1-.4.3-.8.4-1.2.4ZM21.6,402.8h2.2c0-.2-.1-.3-.2-.5-.1-.1-.2-.3-.4-.3-.2,0-.3-.1-.5-.1s-.3,0-.5.1c-.2,0-.3.2-.4.3-.1.1-.2.3-.2.5Z"/>
      <path d="M28.2,405.5h-1.4l-1.6-4.5h1.2l1.2,3.2,1.2-3.2h1.2l-1.6,4.5Z"/>
      <path d="M33.7,401h1.1v4.5h-1.1v-.6c-.2.2-.3.4-.5.5-.2.1-.4.2-.7.2s-.6,0-.9-.2c-.3-.1-.5-.3-.8-.5-.2-.2-.4-.5-.5-.8s-.2-.6-.2-.9,0-.6.2-.9c.1-.3.3-.5.5-.7s.5-.4.7-.5c.3-.1.6-.2.9-.2s.6,0,.8.2c.2.1.4.3.6.5v-.6ZM32.4,404.5c.2,0,.4,0,.6-.2.2-.1.3-.3.4-.5.1-.2.2-.4.2-.7s0-.5-.2-.7c-.1-.2-.2-.4-.4-.5-.2-.1-.4-.2-.6-.2s-.4,0-.6.2c-.2.1-.3.3-.5.5s-.2.4-.2.7,0,.5.2.7c.1.2.3.4.5.5.2.1.4.2.6.2Z"/>
      <path d="M37.1,405.5c-.2,0-.5,0-.7-.1-.2,0-.4-.2-.6-.3-.2-.1-.3-.3-.4-.5l.9-.4c0,0,0,.1.2.2,0,0,.2.1.3.2.1,0,.2,0,.4,0s.2,0,.3,0c.1,0,.2,0,.3-.1,0,0,0-.2,0-.3s0-.2-.1-.3-.2-.1-.3-.1-.2,0-.3,0c-.3,0-.6-.1-.8-.3-.2-.1-.4-.3-.6-.5-.1-.2-.2-.4-.2-.7s0-.6.2-.8.4-.4.6-.5.5-.2.8-.2.7,0,1,.2c.3.1.5.4.7.6l-.9.5c0,0-.1-.1-.2-.2s-.2-.1-.3-.2-.2,0-.3,0c-.1,0-.3,0-.4,0-.1,0-.2,0-.3.2,0,0-.1.2-.1.3s0,.2.1.3c0,0,.2,0,.3.1.1,0,.2,0,.4,0,.3,0,.5.2.7.3.2.1.4.3.6.5.1.2.2.4.2.7,0,.3,0,.5-.3.8s-.4.4-.7.5-.6.2-.9.1Z"/>
      <path d="M44.6,405.5h-1.4l-1.6-4.5h1.2l1.2,3.2,1.2-3.2h1.2l-1.6,4.5Z"/>
      <path d="M48.7,405.6c-.4,0-.8-.1-1.1-.3-.3-.2-.6-.5-.8-.9-.2-.4-.3-.8-.3-1.2s0-.6.2-.9.3-.5.5-.8c.2-.2.4-.4.7-.5.3-.1.6-.2.9-.2s.7,0,1,.2c.3.1.5.4.7.6.2.3.4.6.4.9,0,.3.1.7,0,1h-3.3c0,.2.1.3.2.5s.2.2.4.3.3.1.5.1c.2,0,.4,0,.5-.1s.3-.2.4-.4l1.1.3c-.2.4-.5.7-.8,1-.4.3-.8.4-1.2.4ZM47.6,402.8h2.2c0-.2-.1-.3-.2-.5-.1-.1-.2-.3-.4-.3-.2,0-.3-.1-.5-.1s-.3,0-.5.1c-.2,0-.3.2-.4.3-.1.1-.2.3-.2.5Z"/>
      <path d="M51.7,405.5v-4.5s1.1,0,1.1,0v.4c.2-.2.3-.3.6-.4.2,0,.4-.1.7-.1s.3,0,.5,0l-.4,1.1c-.1,0-.2,0-.3,0-.2,0-.3,0-.5.1-.1,0-.3.2-.3.3,0,.1-.1.3-.1.5v2.6h-1.1Z"/>
      <path d="M56.3,405.5c-.2,0-.5,0-.7-.1-.2,0-.4-.2-.6-.3-.2-.1-.3-.3-.4-.5l.9-.4c0,0,0,.1.2.2,0,0,.2.1.3.2.1,0,.2,0,.4,0s.2,0,.3,0c.1,0,.2,0,.3-.1,0,0,0-.2,0-.3s0-.2-.1-.3-.2-.1-.3-.1-.2,0-.3,0c-.3,0-.6-.1-.8-.3-.2-.1-.4-.3-.6-.5-.1-.2-.2-.4-.2-.7s0-.6.2-.8.4-.4.6-.5.5-.2.8-.2.7,0,1,.2c.3.1.5.4.7.6l-.9.5c0,0-.1-.1-.2-.2s-.2-.1-.3-.2-.2,0-.3,0c-.1,0-.3,0-.4,0-.1,0-.2,0-.3.2,0,0-.1.2-.1.3s0,.2.1.3c0,0,.2,0,.3.1.1,0,.2,0,.4,0,.3,0,.5.2.7.3.2.1.4.3.6.5.1.2.2.4.2.7,0,.3,0,.5-.3.8s-.4.4-.7.5-.6.2-.9.1Z"/>
      <path d="M59.4,400.4c-.2,0-.3,0-.4-.2-.1-.1-.2-.2-.2-.4s0-.3.2-.4c.1-.1.2-.2.4-.2s.3,0,.4.2c.1.1.2.2.2.4s0,.3-.2.4c-.1.1-.2.2-.4.2ZM58.8,401h1.1v4.5h-1.1v-4.5Z"/>
      <path d="M62.9,405.6c-.4,0-.8-.1-1.1-.3-.3-.2-.6-.5-.8-.9s-.3-.8-.3-1.2,0-.6.2-.9.3-.5.5-.8c.2-.2.4-.4.7-.5.3-.1.6-.2.9-.2s.8.1,1.1.3c.3.2.6.5.8.9.2.4.3.8.3,1.2s0,.6-.2.9c-.1.3-.3.5-.5.8-.2.2-.4.4-.7.5-.3.1-.6.2-.9.2ZM62.9,404.5c.2,0,.4,0,.6-.2s.3-.3.4-.5.2-.4.2-.6,0-.4-.2-.6c-.1-.2-.2-.3-.4-.5s-.4-.2-.6-.2-.4,0-.6.2-.3.3-.4.5c-.1.2-.2.4-.2.6s0,.5.2.6c.1.2.2.3.4.5s.4.2.6.2Z"/>
      <path d="M70,402.6v2.8h-1.1v-2.6c0-.2,0-.3-.1-.5,0-.1-.2-.3-.3-.3-.1,0-.3-.1-.5-.1s-.3,0-.5.1c-.1,0-.3.2-.3.3,0,.1-.1.3-.1.5v2.6h-1.1v-4.5s1.1,0,1.1,0v.4c.2-.2.3-.3.6-.4.2,0,.4-.1.7-.1s.6,0,.9.2c.3.2.5.4.6.6s.2.6.2.9Z"/>
      <path d="M72.8,405.6c-.4,0-.8-.1-1.1-.3-.3-.2-.6-.5-.8-.9-.2-.4-.3-.8-.3-1.2s0-.6.2-.9.3-.5.5-.8c.2-.2.4-.4.7-.5.3-.1.6-.2.9-.2s.7,0,1,.2c.3.1.5.4.7.6.2.3.4.6.4.9,0,.3.1.7,0,1h-3.3c0,.2.1.3.2.5s.2.2.4.3.3.1.5.1c.2,0,.4,0,.5-.1s.3-.2.4-.4l1.1.3c-.2.4-.5.7-.8,1-.4.3-.8.4-1.2.4ZM71.7,402.8h2.2c0-.2-.1-.3-.2-.5-.1-.1-.2-.3-.4-.3-.2,0-.3-.1-.5-.1s-.3,0-.5.1c-.2,0-.3.2-.4.3-.1.1-.2.3-.2.5Z"/>
      <path d="M77.1,405.5c-.2,0-.5,0-.7-.1-.2,0-.4-.2-.6-.3-.2-.1-.3-.3-.4-.5l.9-.4c0,0,0,.1.2.2,0,0,.2.1.3.2.1,0,.2,0,.4,0s.2,0,.3,0c.1,0,.2,0,.3-.1,0,0,0-.2,0-.3s0-.2-.1-.3-.2-.1-.3-.1-.2,0-.3,0c-.3,0-.6-.1-.8-.3-.2-.1-.4-.3-.6-.5-.1-.2-.2-.4-.2-.7s0-.6.2-.8.4-.4.6-.5.5-.2.8-.2.7,0,1,.2c.3.1.5.4.7.6l-.9.5c0,0-.1-.1-.2-.2s-.2-.1-.3-.2-.2,0-.3,0c-.1,0-.3,0-.4,0-.1,0-.2,0-.3.2,0,0-.1.2-.1.3s0,.2.1.3c0,0,.2,0,.3.1.1,0,.2,0,.4,0,.3,0,.5.2.7.3.2.1.4.3.6.5.1.2.2.4.2.7,0,.3,0,.5-.3.8s-.4.4-.7.5-.6.2-.9.1Z"/>
      <path d="M26.3,407h.8v6.8h-.8v-.8c-.2.3-.4.5-.6.6-.3.2-.6.2-.9.2s-.6,0-.9-.2c-.3-.1-.5-.3-.8-.5s-.4-.5-.5-.8c-.1-.3-.2-.6-.2-.9s0-.6.2-.9c.1-.3.3-.5.5-.8.2-.2.5-.4.8-.5.3-.1.6-.2.9-.2s.7,0,.9.2c.3.2.5.4.6.6v-3ZM24.8,413.2c.3,0,.6,0,.8-.2.2-.1.4-.3.5-.6.1-.2.2-.5.2-.8s0-.6-.2-.8-.3-.4-.5-.6c-.2-.1-.5-.2-.8-.2s-.6,0-.8.2c-.2.1-.4.3-.6.6-.1.2-.2.5-.2.8s0,.6.2.8.3.4.6.6c.2.1.5.2.8.2Z"/>
      <path d="M30.1,413.9c-.4,0-.8-.1-1.1-.3-.3-.2-.6-.5-.8-.9s-.3-.8-.3-1.2,0-.6.2-.9.3-.5.5-.8c.2-.2.4-.4.7-.5.3-.1.6-.2.9-.2s.7,0,.9.2c.3.1.5.3.7.6.2.2.4.5.5.8.1.3.1.7.1,1h-3.7c0,.3.1.5.3.7s.3.4.5.5c.2.1.4.2.7.2.3,0,.5,0,.7-.2.2-.1.4-.3.5-.6l.8.2c-.2.4-.5.7-.8,1-.4.3-.8.4-1.2.4ZM28.6,411.2h2.9c0-.3-.1-.5-.2-.7-.1-.2-.3-.4-.5-.5-.2-.1-.4-.2-.7-.2s-.5,0-.7.2-.4.3-.5.5-.2.4-.3.7Z"/>
      <path d="M38.2,413.9c-.4,0-.8,0-1.2-.3-.4-.2-.7-.4-1-.7-.3-.3-.5-.6-.7-1-.2-.4-.2-.8-.2-1.3s0-.9.2-1.3.4-.7.7-1c.3-.3.6-.5,1-.7.4-.2.8-.3,1.2-.3s.8,0,1.2.3c.4.2.7.4,1,.7.3.3.5.6.7,1,.2.4.2.8.2,1.3s0,.9-.2,1.3c-.2.4-.4.7-.7,1-.3.3-.6.5-1,.7-.4.2-.8.3-1.2.3ZM38.2,413.1c.3,0,.6,0,.9-.2s.5-.3.7-.5c.2-.2.4-.5.5-.8.1-.3.2-.6.2-1s0-.7-.2-1c-.1-.3-.3-.6-.5-.8s-.5-.4-.7-.5c-.3-.1-.6-.2-.9-.2s-.6,0-.9.2c-.3.1-.5.3-.7.5s-.4.5-.5.8c-.1.3-.2.6-.2,1s0,.7.2,1,.3.6.5.8c.2.2.5.4.7.5.3.1.6.2.9.2Z"/>
      <path d="M42.6,413.9c-.2,0-.4,0-.6-.1-.2,0-.4-.2-.6-.3l.5-.6c0,0,.2.1.3.2s.2,0,.4,0c.2,0,.4,0,.5-.2s.3-.2.4-.4c0-.2.1-.4.1-.6v-4.5h.8v4.5c0,.3,0,.6-.2.9-.2.3-.4.5-.7.7-.3.2-.6.3-.9.3Z"/>
      <path d="M47.7,413.9c-.3,0-.7,0-1-.2-.3-.1-.6-.3-.8-.5-.2-.2-.4-.4-.5-.7l.7-.3c0,.2.2.3.3.4.2.1.4.2.6.3.2,0,.5.1.7.1s.5,0,.8-.1c.2,0,.4-.2.6-.4s.2-.3.2-.6,0-.4-.2-.5c-.1-.1-.3-.3-.6-.3s-.5-.1-.7-.2c-.4,0-.8-.2-1.2-.3-.3-.1-.6-.3-.8-.6-.2-.2-.3-.6-.3-1s.1-.7.3-1c.2-.3.5-.5.8-.6s.7-.2,1.1-.2.7,0,1,.2c.3.1.6.3.8.5.2.2.4.4.5.7l-.7.3c0-.2-.2-.3-.3-.4-.2-.1-.4-.2-.6-.3-.2,0-.5-.1-.7-.1-.3,0-.5,0-.7.1-.2,0-.4.2-.6.4-.1.2-.2.3-.2.6s0,.4.2.6c.1.1.3.2.5.3.2,0,.5.1.8.2.4,0,.8.2,1.1.3.3.1.6.3.8.6.2.2.3.5.3.9s-.1.7-.3,1-.5.5-.8.6c-.3.2-.7.2-1.1.2Z"/>
      <path d="M56.3,409.3h.8l-2.5,6.8h-.8l.8-2.3-1.6-4.5h.8l1.2,3.5,1.3-3.5Z"/>
      <path d="M63.1,413.9c-.4,0-.8,0-1.2-.3-.4-.2-.7-.4-1-.7-.3-.3-.5-.6-.7-1-.2-.4-.2-.8-.2-1.3s0-.9.2-1.3.4-.7.7-1c.3-.3.6-.5,1-.7.4-.2.8-.3,1.2-.3s.8,0,1.2.3c.4.2.7.4,1,.7.3.3.5.6.7,1,.2.4.2.8.2,1.3s0,.9-.2,1.3c-.2.4-.4.7-.7,1-.3.3-.6.5-1,.7-.4.2-.8.3-1.2.3ZM63.1,413.1c.3,0,.6,0,.9-.2s.5-.3.7-.5c.2-.2.4-.5.5-.8.1-.3.2-.6.2-1s0-.7-.2-1c-.1-.3-.3-.6-.5-.8s-.5-.4-.7-.5c-.3-.1-.6-.2-.9-.2s-.6,0-.9.2c-.3.1-.5.3-.7.5s-.4.5-.5.8c-.1.3-.2.6-.2,1s0,.7.2,1,.3.6.5.8c.2.2.5.4.7.5.3.1.6.2.9.2Z"/>
      <path d="M66.9,413.8l1.2-6.3h.6l1.7,4.5,1.7-4.5h.6l1.2,6.3h-.8l-.9-4.6-1.6,4.2h-.5l-1.6-4.2-.9,4.6h-.8Z"/>
      <path d="M74.9,413.8v-6.3h2.1c.3,0,.6,0,.9.2.3.2.5.4.6.7.2.3.2.6.2.9s0,.7-.2.9c-.2.3-.4.5-.7.7-.3.2-.6.2-.9.2h-1.3v2.6h-.8ZM75.6,410.4h1.3c.2,0,.4,0,.6-.2.2-.1.3-.2.4-.4.1-.2.2-.4.2-.6s0-.4-.2-.6c-.1-.2-.2-.3-.4-.4-.2-.1-.4-.2-.6-.2h-1.3v2.3Z"/>
    </g>
    <g>
      <path d="M303,466.9h1.3l2.3,6.3h-1.2l-.4-1.1h-2.7l-.4,1.1h-1.2l2.3-6.3ZM302.7,471h1.9l-1-2.6-.9,2.6Z"/>
      <path d="M306.9,471.6v-2.8h1.1v2.6c0,.2,0,.3.1.5,0,.1.2.3.3.3.1,0,.3.1.5.1s.3,0,.5-.1c.1,0,.3-.2.3-.3,0-.1.1-.3.1-.5v-2.6h1.1v4.5s-1.1,0-1.1,0v-.4c-.2.2-.3.3-.6.4-.2,0-.4.1-.7.1s-.6,0-.9-.2-.5-.4-.6-.6c-.2-.3-.2-.6-.2-.9Z"/>
      <path d="M312,473.2v-4.5h1.1v.4c.2-.2.3-.3.5-.4.2,0,.4-.1.7-.1s.6,0,.9.2c.3.1.5.3.6.6.2-.2.4-.4.6-.6.3-.1.5-.2.9-.2s.6,0,.9.2c.3.2.5.4.6.6.2.3.2.6.2.9v2.8h-1.1v-2.6c0-.2,0-.3-.1-.5,0-.1-.2-.3-.3-.4-.1,0-.3-.1-.5-.1s-.3,0-.5.1c-.1,0-.3.2-.3.3,0,.1-.1.3-.1.5v2.6h-1.1v-2.6c0-.2,0-.3-.1-.5,0-.1-.2-.3-.3-.3-.1,0-.3-.1-.5-.1s-.3,0-.5.1-.3.2-.3.4c0,.1-.1.3-.1.5v2.6h-1.1Z"/>
      <path d="M321.9,473.4c-.4,0-.8-.1-1.1-.3-.3-.2-.6-.5-.8-.9-.2-.4-.3-.8-.3-1.2s0-.6.2-.9c.1-.3.3-.5.5-.8s.4-.4.7-.5.6-.2.9-.2.7,0,1,.2c.3.1.5.4.7.6s.4.6.4.9c0,.3.1.7,0,1h-3.3c0,.2.1.3.2.5,0,.1.2.2.4.3.1,0,.3.1.5.1.2,0,.4,0,.5-.1.2,0,.3-.2.4-.4l1.1.3c-.2.4-.5.7-.8,1-.4.3-.8.4-1.2.4ZM320.8,470.5h2.2c0-.2-.1-.3-.2-.5-.1-.1-.2-.3-.4-.3s-.3-.1-.5-.1-.3,0-.5.1c-.2,0-.3.2-.4.3s-.2.3-.2.5Z"/>
      <path d="M329,470.4v2.8h-1.1v-2.6c0-.2,0-.3-.1-.5s-.2-.3-.3-.3c-.1,0-.3-.1-.5-.1s-.3,0-.5.1c-.1,0-.3.2-.3.3,0,.1-.1.3-.1.5v2.6h-1.1v-4.5s1.1,0,1.1,0v.4c.2-.2.3-.3.6-.4.2,0,.4-.1.7-.1s.6,0,.9.2c.3.2.5.4.6.6s.2.6.2.9Z"/>
      <path d="M332.3,469.8h-.9v3.4h-1.1v-3.4h-.7v-1.1h.7v-1.4h1.1v1.4h.9v1.1Z"/>
      <path d="M336.4,468.7h1.1v4.5h-1.1v-.6c-.2.2-.3.4-.5.5-.2.1-.4.2-.7.2s-.6,0-.9-.2c-.3-.1-.5-.3-.8-.5-.2-.2-.4-.5-.5-.8-.1-.3-.2-.6-.2-.9s0-.6.2-.9c.1-.3.3-.5.5-.7s.5-.4.7-.5c.3-.1.6-.2.9-.2s.6,0,.8.2c.2.1.4.3.6.5v-.6ZM335.1,472.3c.2,0,.4,0,.6-.2.2-.1.3-.3.4-.5.1-.2.2-.4.2-.7s0-.5-.2-.7c-.1-.2-.2-.4-.4-.5-.2-.1-.4-.2-.6-.2s-.4,0-.6.2c-.2.1-.3.3-.5.5-.1.2-.2.4-.2.7s0,.5.2.7.3.4.5.5c.2.1.4.2.6.2Z"/>
      <path d="M340.6,473.2v-6.8h1.1v6.8h-1.1Z"/>
      <path d="M346.1,468.7h1.1v4.5h-1.1v-.6c-.2.2-.3.4-.5.5-.2.1-.4.2-.7.2s-.6,0-.9-.2c-.3-.1-.5-.3-.8-.5-.2-.2-.4-.5-.5-.8-.1-.3-.2-.6-.2-.9s0-.6.2-.9c.1-.3.3-.5.5-.7s.5-.4.7-.5c.3-.1.6-.2.9-.2s.6,0,.8.2c.2.1.4.3.6.5v-.6ZM344.8,472.3c.2,0,.4,0,.6-.2.2-.1.3-.3.4-.5.1-.2.2-.4.2-.7s0-.5-.2-.7c-.1-.2-.2-.4-.4-.5-.2-.1-.4-.2-.6-.2s-.4,0-.6.2c-.2.1-.3.3-.5.5-.1.2-.2.4-.2.7s0,.5.2.7.3.4.5.5c.2.1.4.2.6.2Z"/>
      <path d="M303.7,481.6h-1.4l-1.6-4.5h1.2l1.2,3.2,1.2-3.2h1.2l-1.6,4.5Z"/>
      <path d="M306.6,476.5c-.2,0-.3,0-.4-.2s-.2-.2-.2-.4,0-.3.2-.4.2-.2.4-.2.3,0,.4.2c.1.1.2.2.2.4s0,.3-.2.4-.2.2-.4.2ZM306,477h1.1v4.5h-1.1v-4.5Z"/>
      <path d="M309.4,481.6c-.2,0-.5,0-.7-.1-.2,0-.4-.2-.6-.3-.2-.1-.3-.3-.4-.5l.9-.4c0,0,0,.1.2.2,0,0,.2.1.3.2.1,0,.2,0,.4,0s.2,0,.3,0,.2,0,.3-.1,0-.2,0-.3,0-.2-.1-.3c0,0-.2-.1-.3-.1-.1,0-.2,0-.3,0-.3,0-.6-.1-.8-.3s-.4-.3-.6-.5c-.1-.2-.2-.4-.2-.7s0-.6.2-.8c.2-.2.4-.4.6-.5s.5-.2.8-.2.7,0,1,.2c.3.1.5.4.7.6l-.9.5c0,0-.1-.1-.2-.2,0,0-.2-.1-.3-.2,0,0-.2,0-.3,0-.1,0-.3,0-.4,0-.1,0-.2,0-.3.2s-.1.2-.1.3,0,.2.1.3c0,0,.2,0,.3.1.1,0,.2,0,.4,0,.3,0,.5.2.7.3.2.1.4.3.6.5.1.2.2.4.2.7,0,.3,0,.5-.3.8-.2.2-.4.4-.7.5s-.6.2-.9.1Z"/>
      <path d="M312.5,476.5c-.2,0-.3,0-.4-.2s-.2-.2-.2-.4,0-.3.2-.4.2-.2.4-.2.3,0,.4.2c.1.1.2.2.2.4s0,.3-.2.4-.2.2-.4.2ZM311.9,477h1.1v4.5h-1.1v-4.5Z"/>
      <path d="M316.5,476.9c.4,0,.8.1,1.2.3.4.2.6.5.9.9.2.4.3.8.3,1.2s0,.6-.2.9c-.1.3-.3.5-.5.8-.2.2-.5.4-.8.5s-.6.2-.9.2-.5,0-.8-.2-.4-.3-.5-.5v.6h-1.1v-6.8h1.1v2.8c.1-.2.3-.4.5-.5s.5-.2.8-.2ZM316.5,480.6c.2,0,.4,0,.6-.2.2-.1.3-.3.5-.5s.2-.4.2-.7,0-.5-.2-.7c-.1-.2-.3-.4-.5-.5-.2-.1-.4-.2-.6-.2s-.4,0-.6.2-.3.3-.4.5c-.1.2-.2.4-.2.7s0,.5.2.7c.1.2.2.4.4.5s.4.2.6.2Z"/>
      <path d="M320.1,476.5c-.2,0-.3,0-.4-.2s-.2-.2-.2-.4,0-.3.2-.4.2-.2.4-.2.3,0,.4.2c.1.1.2.2.2.4s0,.3-.2.4-.2.2-.4.2ZM319.5,477h1.1v4.5h-1.1v-4.5Z"/>
      <path d="M321.7,481.6v-6.8h1.1v6.8h-1.1Z"/>
      <path d="M324.4,476.5c-.2,0-.3,0-.4-.2s-.2-.2-.2-.4,0-.3.2-.4.2-.2.4-.2.3,0,.4.2c.1.1.2.2.2.4s0,.3-.2.4-.2.2-.4.2ZM323.9,477h1.1v4.5h-1.1v-4.5Z"/>
      <path d="M329.4,474.8h1.1v6.8h-1.1v-.6c-.1.2-.3.4-.5.5s-.5.2-.8.2-.6,0-.9-.2c-.3-.1-.5-.3-.8-.5s-.4-.5-.5-.8c-.1-.3-.2-.6-.2-.9s0-.6.2-.9c.1-.3.3-.5.5-.8s.5-.4.8-.5c.3-.1.6-.2.9-.2s.5,0,.8.2c.2.1.4.3.5.5v-2.8ZM328.1,480.6c.2,0,.4,0,.6-.2.2-.1.3-.3.4-.5.1-.2.2-.4.2-.7s0-.5-.2-.7c-.1-.2-.2-.4-.4-.5-.2-.1-.4-.2-.6-.2s-.4,0-.6.2c-.2.1-.3.3-.5.5-.1.2-.2.4-.2.7s0,.5.2.7.3.4.5.5c.2.1.4.2.6.2Z"/>
      <path d="M334.9,477h1.1v4.5h-1.1v-.6c-.2.2-.3.4-.5.5-.2.1-.4.2-.7.2s-.6,0-.9-.2c-.3-.1-.5-.3-.8-.5-.2-.2-.4-.5-.5-.8-.1-.3-.2-.6-.2-.9s0-.6.2-.9c.1-.3.3-.5.5-.7s.5-.4.7-.5c.3-.1.6-.2.9-.2s.6,0,.8.2c.2.1.4.3.6.5v-.6ZM333.6,480.6c.2,0,.4,0,.6-.2.2-.1.3-.3.4-.5.1-.2.2-.4.2-.7s0-.5-.2-.7c-.1-.2-.2-.4-.4-.5-.2-.1-.4-.2-.6-.2s-.4,0-.6.2c-.2.1-.3.3-.5.5-.1.2-.2.4-.2.7s0,.5.2.7.3.4.5.5c.2.1.4.2.6.2Z"/>
      <path d="M340.2,474.8h1.1v6.8h-1.1v-.6c-.1.2-.3.4-.5.5s-.5.2-.8.2-.6,0-.9-.2c-.3-.1-.5-.3-.8-.5s-.4-.5-.5-.8c-.1-.3-.2-.6-.2-.9s0-.6.2-.9c.1-.3.3-.5.5-.8s.5-.4.8-.5c.3-.1.6-.2.9-.2s.5,0,.8.2c.2.1.4.3.5.5v-2.8ZM338.9,480.6c.2,0,.4,0,.6-.2.2-.1.3-.3.4-.5.1-.2.2-.4.2-.7s0-.5-.2-.7c-.1-.2-.2-.4-.4-.5-.2-.1-.4-.2-.6-.2s-.4,0-.6.2c-.2.1-.3.3-.5.5-.1.2-.2.4-.2.7s0,.5.2.7.3.4.5.5c.2.1.4.2.6.2Z"/>
      <path d="M347.9,474.8h1.1v6.8h-1.1v-.6c-.1.2-.3.4-.5.5s-.5.2-.8.2-.6,0-.9-.2c-.3-.1-.5-.3-.8-.5s-.4-.5-.5-.8c-.1-.3-.2-.6-.2-.9s0-.6.2-.9c.1-.3.3-.5.5-.8s.5-.4.8-.5c.3-.1.6-.2.9-.2s.5,0,.8.2c.2.1.4.3.5.5v-2.8ZM346.6,480.6c.2,0,.4,0,.6-.2.2-.1.3-.3.4-.5.1-.2.2-.4.2-.7s0-.5-.2-.7c-.1-.2-.2-.4-.4-.5-.2-.1-.4-.2-.6-.2s-.4,0-.6.2c-.2.1-.3.3-.5.5-.1.2-.2.4-.2.7s0,.5.2.7.3.4.5.5c.2.1.4.2.6.2Z"/>
      <path d="M352,481.7c-.4,0-.8-.1-1.1-.3-.3-.2-.6-.5-.8-.9-.2-.4-.3-.8-.3-1.2s0-.6.2-.9c.1-.3.3-.5.5-.8s.4-.4.7-.5.6-.2.9-.2.7,0,1,.2c.3.1.5.4.7.6s.4.6.4.9c0,.3.1.7,0,1h-3.3c0,.2.1.3.2.5,0,.1.2.2.4.3.1,0,.3.1.5.1.2,0,.4,0,.5-.1.2,0,.3-.2.4-.4l1.1.3c-.2.4-.5.7-.8,1-.4.3-.8.4-1.2.4ZM350.9,478.9h2.2c0-.2-.1-.3-.2-.5-.1-.1-.2-.3-.4-.3s-.3-.1-.5-.1-.3,0-.5.1c-.2,0-.3.2-.4.3s-.2.3-.2.5Z"/>
      <path d="M359.7,478.1h-.9v3.4h-1.1v-3.4h-.7v-1.1h.7v-1.4h1.1v1.4h.9v1.1Z"/>
      <path d="M360.3,479.9v-2.8h1.1v2.6c0,.2,0,.3.1.5,0,.1.2.3.3.3.1,0,.3.1.5.1s.3,0,.5-.1c.1,0,.3-.2.3-.3,0-.1.1-.3.1-.5v-2.6h1.1v4.5s-1.1,0-1.1,0v-.4c-.2.2-.3.3-.6.4-.2,0-.4.1-.7.1s-.6,0-.9-.2-.5-.4-.6-.6c-.2-.3-.2-.6-.2-.9Z"/>
      <path d="M302.2,490c-.2,0-.5,0-.7-.1-.2,0-.4-.2-.6-.3-.2-.1-.3-.3-.4-.5l.9-.4c0,0,0,.1.2.2,0,0,.2.1.3.2.1,0,.2,0,.4,0s.2,0,.3,0,.2,0,.3-.1,0-.2,0-.3,0-.2-.1-.3c0,0-.2-.1-.3-.1-.1,0-.2,0-.3,0-.3,0-.6-.1-.8-.3s-.4-.3-.6-.5c-.1-.2-.2-.4-.2-.7s0-.6.2-.8c.2-.2.4-.4.6-.5s.5-.2.8-.2.7,0,1,.2c.3.1.5.4.7.6l-.9.5c0,0-.1-.1-.2-.2,0,0-.2-.1-.3-.2,0,0-.2,0-.3,0-.1,0-.3,0-.4,0-.1,0-.2,0-.3.2s-.1.2-.1.3,0,.2.1.3c0,0,.2,0,.3.1.1,0,.2,0,.4,0,.3,0,.5.2.7.3.2.1.4.3.6.5.1.2.2.4.2.7,0,.3,0,.5-.3.8-.2.2-.4.4-.7.5s-.6.2-.9.1Z"/>
      <path d="M305.3,484.8c-.2,0-.3,0-.4-.2s-.2-.2-.2-.4,0-.3.2-.4.2-.2.4-.2.3,0,.4.2c.1.1.2.2.2.4s0,.3-.2.4-.2.2-.4.2ZM304.7,485.4h1.1v4.5h-1.1v-4.5Z"/>
      <path d="M309.3,486.5h-.9v3.4h-1.1v-3.4h-.7v-1.1h.7v-1.4h1.1v1.4h.9v1.1Z"/>
      <path d="M310.6,484.8c-.2,0-.3,0-.4-.2s-.2-.2-.2-.4,0-.3.2-.4.2-.2.4-.2.3,0,.4.2c.1.1.2.2.2.4s0,.3-.2.4-.2.2-.4.2ZM310,485.4h1.1v4.5h-1.1v-4.5Z"/>
      <path d="M314.1,490c-.4,0-.8-.1-1.1-.3-.3-.2-.6-.5-.8-.9-.2-.4-.3-.8-.3-1.2s0-.6.2-.9c.1-.3.3-.5.5-.8s.4-.4.7-.5.6-.2.9-.2.8.1,1.1.3c.3.2.6.5.8.9.2.4.3.8.3,1.2s0,.6-.2.9c-.1.3-.3.5-.5.8-.2.2-.4.4-.7.5-.3.1-.6.2-.9.2ZM314.1,488.9c.2,0,.4,0,.6-.2.2-.1.3-.3.4-.5s.2-.4.2-.6,0-.4-.2-.6c-.1-.2-.2-.3-.4-.5-.2-.1-.4-.2-.6-.2s-.4,0-.6.2c-.2.1-.3.3-.4.5-.1.2-.2.4-.2.6s0,.5.2.6c.1.2.2.3.4.5.2.1.4.2.6.2Z"/>
      <path d="M321.7,489.9h-1.1l-1.5-4.5h1.1l1,2.9,1-2.9h1.1l1,2.9,1-2.9h1.1l-1.5,4.5h-1.1l-1-2.9-1,2.9Z"/>
      <path d="M328.7,490c-.4,0-.8-.1-1.1-.3-.3-.2-.6-.5-.8-.9-.2-.4-.3-.8-.3-1.2s0-.6.2-.9c.1-.3.3-.5.5-.8s.4-.4.7-.5.6-.2.9-.2.7,0,1,.2c.3.1.5.4.7.6s.4.6.4.9c0,.3.1.7,0,1h-3.3c0,.2.1.3.2.5,0,.1.2.2.4.3.1,0,.3.1.5.1.2,0,.4,0,.5-.1.2,0,.3-.2.4-.4l1.1.3c-.2.4-.5.7-.8,1-.4.3-.8.4-1.2.4ZM327.6,487.2h2.2c0-.2-.1-.3-.2-.5-.1-.1-.2-.3-.4-.3s-.3-.1-.5-.1-.3,0-.5.1c-.2,0-.3.2-.4.3s-.2.3-.2.5Z"/>
      <path d="M334,485.2c.4,0,.8.1,1.2.3.4.2.6.5.9.9.2.4.3.8.3,1.2s0,.6-.2.9c-.1.3-.3.5-.5.8-.2.2-.5.4-.8.5s-.6.2-.9.2-.5,0-.8-.2-.4-.3-.5-.5v.6h-1.1v-6.8h1.1v2.8c.1-.2.3-.4.5-.5s.5-.2.8-.2ZM334,488.9c.2,0,.4,0,.6-.2.2-.1.3-.3.5-.5s.2-.4.2-.7,0-.5-.2-.7c-.1-.2-.3-.4-.5-.5-.2-.1-.4-.2-.6-.2s-.4,0-.6.2-.3.3-.4.5c-.1.2-.2.4-.2.7s0,.5.2.7c.1.2.2.4.4.5s.4.2.6.2Z"/>
      <path d="M342.4,488.7l.7.4c-.2.3-.5.5-.8.7-.3.2-.7.3-1,.3s-.8-.1-1.1-.3c-.3-.2-.6-.5-.8-.9-.2-.4-.3-.8-.3-1.2s0-.6.2-.9c.1-.3.3-.5.5-.8s.4-.4.7-.5.6-.2.9-.2.7,0,1,.3c.3.2.6.4.8.7l-.7.4c-.1-.2-.3-.3-.5-.4-.2,0-.4-.1-.6-.1s-.5,0-.8.2-.4.3-.5.6c-.1.2-.2.5-.2.8s0,.6.2.8.3.4.5.6c.2.1.5.2.8.2s.4,0,.6-.2c.2-.1.4-.2.5-.4Z"/>
      <path d="M345.8,490c-.4,0-.8-.1-1.1-.3-.3-.2-.6-.5-.8-.9-.2-.4-.3-.8-.3-1.2s0-.6.2-.9c.1-.3.3-.5.5-.8s.4-.4.7-.5.6-.2.9-.2.8.1,1.1.3c.3.2.6.5.8.9.2.4.3.8.3,1.2s0,.6-.2.9c-.1.3-.3.5-.5.8-.2.2-.4.4-.7.5-.3.1-.6.2-.9.2ZM345.8,489.2c.3,0,.5,0,.8-.2.2-.1.4-.3.5-.6.1-.2.2-.5.2-.8s0-.6-.2-.8c-.1-.2-.3-.4-.5-.6-.2-.1-.5-.2-.8-.2s-.5,0-.8.2-.4.3-.5.6c-.1.2-.2.5-.2.8s0,.6.2.8c.1.2.3.4.5.6.2.1.5.2.7.2Z"/>
      <path d="M352.8,487.1v2.8h-.8v-2.6c0-.2,0-.4-.2-.6s-.3-.3-.4-.4-.4-.2-.6-.2-.4,0-.6.2c-.2.1-.3.3-.4.4s-.2.4-.2.6v2.6h-.8v-4.5h.8v.6c.2-.2.4-.4.6-.5.2-.1.5-.2.8-.2s.6,0,.9.2c.3.2.5.4.7.7.2.3.2.6.2.9Z"/>
      <path d="M355.7,488.2v-2.8h.8v2.6c0,.2,0,.4.2.6.1.2.3.3.4.4.2.1.4.2.6.2s.4,0,.6-.2.3-.3.4-.4.2-.4.2-.6v-2.6h.8v4.5s-.8,0-.8,0v-.6c-.2.2-.4.4-.6.5-.2.1-.5.2-.8.2s-.6,0-.9-.2c-.3-.2-.5-.4-.7-.7s-.2-.6-.2-.9Z"/>
      <path d="M364.6,487.1v2.8h-.8v-2.6c0-.2,0-.4-.2-.6s-.3-.3-.4-.4-.4-.2-.6-.2-.4,0-.6.2c-.2.1-.3.3-.4.4s-.2.4-.2.6v2.6h-.8v-4.5h.8v.6c.2-.2.4-.4.6-.5.2-.1.5-.2.8-.2s.6,0,.9.2c.3.2.5.4.7.7.2.3.2.6.2.9Z"/>
      <path d="M304.5,491.4h.8v6.8h-.8v-.8c-.2.3-.4.5-.6.6-.3.2-.6.2-.9.2s-.6,0-.9-.2c-.3-.1-.5-.3-.8-.5s-.4-.5-.5-.8c-.1-.3-.2-.6-.2-.9s0-.6.2-.9.3-.5.5-.8.5-.4.8-.5c.3-.1.6-.2.9-.2s.7,0,.9.2c.3.2.5.4.6.6v-3ZM303,497.6c.3,0,.6,0,.8-.2s.4-.3.5-.6c.1-.2.2-.5.2-.8s0-.6-.2-.8c-.1-.2-.3-.4-.5-.6s-.5-.2-.8-.2-.6,0-.8.2c-.2.1-.4.3-.6.6-.1.2-.2.5-.2.8s0,.6.2.8.3.4.6.6.5.2.8.2Z"/>
      <path d="M306.7,493c-.1,0-.2,0-.3-.1s-.1-.2-.1-.3,0-.2.1-.3.2-.1.3-.1.2,0,.3.1.1.2.1.3,0,.2-.1.3c0,0-.2.1-.3.1ZM306.4,493.7h.8v4.5h-.8v-4.5Z"/>
      <path d="M309.5,498.3c-.2,0-.5,0-.7-.1-.2,0-.4-.2-.6-.3s-.3-.3-.4-.5l.6-.3c0,.1.1.2.2.3.1,0,.3.2.4.2s.3,0,.5,0,.3,0,.5,0c.1,0,.3-.1.4-.2s.1-.2.1-.4,0-.3-.2-.4c-.1,0-.2-.2-.4-.2-.2,0-.3,0-.5-.1-.3,0-.6-.2-.8-.3-.2-.1-.4-.2-.6-.4s-.2-.4-.2-.7,0-.5.2-.7c.2-.2.4-.4.6-.5.3-.1.5-.2.8-.2s.7,0,1,.2c.3.2.5.4.7.6l-.6.4c0-.1-.1-.2-.2-.3-.1,0-.2-.1-.4-.2-.1,0-.3,0-.4,0-.2,0-.3,0-.5,0-.2,0-.3.1-.4.2s-.1.2-.1.4,0,.3.1.3c0,0,.2.1.4.2.2,0,.3.1.5.2.3,0,.5.2.8.3.2.1.4.3.6.4.1.2.2.4.2.6,0,.3,0,.5-.2.7-.2.2-.4.4-.6.5s-.5.2-.8.1Z"/>
      <path d="M314,498.3c-.4,0-.8-.1-1.1-.3-.3-.2-.6-.5-.8-.9-.2-.4-.3-.8-.3-1.2s0-.6.2-.9c.1-.3.3-.5.5-.8s.4-.4.7-.5.6-.2.9-.2.7,0,.9.2c.3.1.5.3.7.6.2.2.4.5.5.8.1.3.1.7.1,1h-3.7c0,.3.1.5.3.7.1.2.3.4.5.5s.4.2.7.2c.3,0,.5,0,.7-.2.2-.1.4-.3.5-.6l.8.2c-.2.4-.5.7-.8,1-.4.3-.8.4-1.2.4ZM312.5,495.6h2.9c0-.3-.1-.5-.2-.7-.1-.2-.3-.4-.5-.5-.2-.1-.4-.2-.7-.2s-.5,0-.7.2c-.2.1-.4.3-.5.5-.1.2-.2.4-.3.7Z"/>
      <path d="M321,495.4v2.8h-.8v-2.6c0-.2,0-.4-.2-.6s-.3-.3-.4-.4-.4-.2-.6-.2-.4,0-.6.2c-.2.1-.3.3-.4.4s-.2.4-.2.6v2.6h-.8v-4.5h.8v.6c.2-.2.4-.4.6-.5.2-.1.5-.2.8-.2s.6,0,.9.2c.3.2.5.4.7.7.2.3.2.6.2.9ZM319.7,493.1c-.1,0-.2,0-.4-.1s-.3-.2-.4-.2c-.1,0-.3-.2-.4-.2-.1,0-.2,0-.3,0,0,0-.1,0-.2.1s0,.2,0,.3h-.5c0,0,0-.2,0-.4,0-.2.1-.3.3-.4.1-.1.3-.2.5-.2s.2,0,.4,0c.1,0,.3.1.4.2.1,0,.3.2.4.2.1,0,.2,0,.3,0s.1,0,.1,0c0,0,0-.1,0-.2,0,0,0-.1,0-.2l.5-.2c0,.2,0,.4,0,.5,0,.2-.1.3-.3.4-.1.1-.3.2-.5.2Z"/>
      <path d="M323.8,498.3c-.4,0-.8-.1-1.1-.3-.3-.2-.6-.5-.8-.9-.2-.4-.3-.8-.3-1.2s0-.6.2-.9c.1-.3.3-.5.5-.8s.4-.4.7-.5.6-.2.9-.2.8.1,1.1.3c.3.2.6.5.8.9.2.4.3.8.3,1.2s0,.6-.2.9c-.1.3-.3.5-.5.8-.2.2-.4.4-.7.5-.3.1-.6.2-.9.2ZM323.8,497.6c.3,0,.5,0,.8-.2.2-.1.4-.3.5-.6.1-.2.2-.5.2-.8s0-.6-.2-.8c-.1-.2-.3-.4-.5-.6-.2-.1-.5-.2-.8-.2s-.5,0-.8.2-.4.3-.5.6c-.1.2-.2.5-.2.8s0,.6.2.8c.1.2.3.4.5.6.2.1.5.2.7.2Z"/>
      <path d="M332.6,493.7h.8v4.5h-.8v-.8c-.2.3-.4.5-.6.6s-.5.2-.9.2-.6,0-.9-.2c-.3-.1-.5-.3-.8-.5-.2-.2-.4-.5-.5-.8-.1-.3-.2-.6-.2-.9s0-.6.2-.9c.1-.3.3-.5.5-.8s.5-.4.7-.5c.3-.1.6-.2.9-.2s.7,0,.9.2.5.4.6.6v-.8ZM331.1,497.6c.3,0,.6,0,.8-.2s.4-.3.5-.6c.1-.2.2-.5.2-.8s0-.6-.2-.8c-.1-.2-.3-.4-.5-.6s-.5-.2-.8-.2-.6,0-.8.2c-.2.1-.4.3-.6.6s-.2.5-.2.8,0,.6.2.8.3.4.6.6.5.2.8.2Z"/>
      <path d="M336.6,494.5h-1v3.8h-.8v-3.8s-.8,0-.8,0v-.8h.8v-1.4s.8,0,.8,0v1.4h1v.8Z"/>
      <path d="M337.4,498.2v-4.5h.8v.6c.2-.2.4-.4.6-.5.2-.1.5-.2.8-.2s.3,0,.5,0l-.3.8c-.1,0-.2,0-.4,0-.2,0-.4,0-.6.2-.2.1-.3.3-.4.4s-.2.4-.2.6v2.6h-.8Z"/>
      <path d="M344,493.7h.8v4.5h-.8v-.8c-.2.3-.4.5-.6.6s-.5.2-.9.2-.6,0-.9-.2c-.3-.1-.5-.3-.8-.5-.2-.2-.4-.5-.5-.8-.1-.3-.2-.6-.2-.9s0-.6.2-.9c.1-.3.3-.5.5-.8s.5-.4.7-.5c.3-.1.6-.2.9-.2s.7,0,.9.2.5.4.6.6v-.8ZM342.5,497.6c.3,0,.6,0,.8-.2s.4-.3.5-.6c.1-.2.2-.5.2-.8s0-.6-.2-.8c-.1-.2-.3-.4-.5-.6s-.5-.2-.8-.2-.6,0-.8.2c-.2.1-.4.3-.6.6s-.2.5-.2.8,0,.6.2.8.3.4.6.6.5.2.8.2Z"/>
      <path d="M348.7,497l.7.4c-.2.3-.5.5-.8.7-.3.2-.7.3-1,.3s-.8-.1-1.1-.3c-.3-.2-.6-.5-.8-.9-.2-.4-.3-.8-.3-1.2s0-.6.2-.9c.1-.3.3-.5.5-.8s.4-.4.7-.5.6-.2.9-.2.7,0,1,.3c.3.2.6.4.8.7l-.7.4c-.1-.2-.3-.3-.5-.4-.2,0-.4-.1-.6-.1s-.5,0-.8.2-.4.3-.5.6c-.1.2-.2.5-.2.8s0,.6.2.8.3.4.5.6c.2.1.5.2.8.2s.4,0,.6-.2c.2-.1.4-.2.5-.4Z"/>
      <path d="M352.5,494.5h-1v3.8h-.8v-3.8s-.8,0-.8,0v-.8h.8v-1.4s.8,0,.8,0v1.4h1v.8Z"/>
      <path d="M353.7,493c-.1,0-.2,0-.3-.1s-.1-.2-.1-.3,0-.2.1-.3.2-.1.3-.1.2,0,.3.1.1.2.1.3,0,.2-.1.3c0,0-.2.1-.3.1ZM353.3,493.7h.8v4.5h-.8v-4.5Z"/>
      <path d="M357.4,498.2h-1l-1.6-4.5h.8l1.3,3.6,1.3-3.6h.8l-1.6,4.5Z"/>
      <path d="M361.6,498.3c-.4,0-.8-.1-1.1-.3-.3-.2-.6-.5-.8-.9-.2-.4-.3-.8-.3-1.2s0-.6.2-.9c.1-.3.3-.5.5-.8s.4-.4.7-.5.6-.2.9-.2.8.1,1.1.3c.3.2.6.5.8.9.2.4.3.8.3,1.2s0,.6-.2.9c-.1.3-.3.5-.5.8-.2.2-.4.4-.7.5-.3.1-.6.2-.9.2ZM361.6,497.6c.3,0,.5,0,.8-.2.2-.1.4-.3.5-.6.1-.2.2-.5.2-.8s0-.6-.2-.8c-.1-.2-.3-.4-.5-.6-.2-.1-.5-.2-.8-.2s-.5,0-.8.2-.4.3-.5.6c-.1.2-.2.5-.2.8s0,.6.2.8c.1.2.3.4.5.6.2.1.5.2.7.2Z"/>
    </g>
    <g>
      <g class="st10">
        <rect class="st12" x="137.3" y="405.7" width="8.2" height="253.3" transform="translate(-398.5 641.9) rotate(-86.6)"/>
      </g>
      <rect class="st5" x="115" y="373.5" width="59.1" height="256.4" transform="translate(654 387.1) rotate(93.4)"/>
      <text class="st1" transform="translate(33.8 503.1) rotate(3.4)"><tspan x="0" y="0">DISEÑO DE TEMAS</tspan></text>
    </g>
    <g>
      <g class="st8">
        <rect class="st12" x="245.1" y="565.5" width="6.5" height="258.3" transform="translate(-457.5 909.3) rotate(-87.2)"/>
      </g>
      <rect class="st15" x="217" y="530.4" width="62.1" height="263.6" transform="translate(921.4 446.2) rotate(92.8)"/>
      <text class="st0" transform="translate(140.8 654.7) rotate(2.8)"><tspan x="0" y="0">VISUALIZACIÓN DE</tspan><tspan x="0" y="22.5">DATOS</tspan></text>
    </g>
    <g>
      <path d="M40.3,626.4c-.4,0-.8,0-1.2-.3s-.7-.4-1-.7c-.3-.3-.5-.7-.7-1-.2-.4-.2-.8-.2-1.3s0-.9.2-1.3c.2-.4.4-.7.7-1,.3-.3.6-.5,1-.7.4-.2.8-.2,1.2-.2s.9.1,1.4.3c.4.2.8.5,1.1,1l-.7.4c-.2-.3-.5-.5-.8-.7s-.6-.2-1-.2-.6,0-.9.2c-.3.1-.5.3-.8.5-.2.2-.4.5-.5.8s-.2.6-.2,1,0,.7.2,1,.3.6.5.8c.2.2.5.4.8.5.3.1.6.2.9.2s.5,0,.7-.1c.2,0,.4-.2.6-.4s.4-.3.5-.6c.1-.2.2-.5.3-.7h-1.6v-.7h2.4c0,.4,0,.9-.2,1.2-.2.4-.4.7-.7,1-.3.3-.6.5-1,.7s-.8.2-1.2.2Z"/>
      <path d="M46.2,626.4c-.4,0-.8-.1-1.1-.3-.3-.2-.6-.5-.8-.9s-.3-.8-.3-1.2,0-.6.2-.9c.1-.3.3-.5.5-.8.2-.2.4-.4.7-.5s.6-.2.9-.2.7,0,.9.2c.3.1.5.3.7.6.2.2.4.5.5.8.1.3.1.7.1,1h-3.7c0,.3.1.5.3.7s.3.4.5.5c.2.1.4.2.7.2.3,0,.5,0,.7-.2.2-.1.4-.3.5-.6l.8.2c-.2.4-.5.7-.8,1-.4.3-.8.4-1.2.4ZM44.7,623.7h2.9c0-.3-.1-.5-.2-.7s-.3-.4-.5-.5-.4-.2-.7-.2-.5,0-.7.2c-.2.1-.4.3-.5.5-.1.2-.2.4-.3.7Z"/>
      <path d="M50.6,626.4c-.2,0-.5,0-.7-.1-.2,0-.4-.2-.6-.3s-.3-.3-.4-.5l.6-.3c0,.1.1.2.2.3.1,0,.3.2.4.2s.3,0,.5,0,.3,0,.5,0c.1,0,.3-.1.4-.2,0-.1.1-.2.1-.4s0-.3-.2-.4c-.1,0-.2-.2-.4-.2-.2,0-.3,0-.5-.1-.3,0-.6-.2-.8-.3-.2-.1-.4-.2-.6-.4-.1-.2-.2-.4-.2-.7s0-.5.2-.7c.2-.2.4-.4.6-.5s.5-.2.8-.2.7,0,1,.2c.3.2.5.4.7.6l-.6.4c0-.1-.1-.2-.2-.3-.1,0-.2-.1-.4-.2s-.3,0-.4,0c-.2,0-.3,0-.5,0-.2,0-.3.1-.4.2,0,.1-.1.2-.1.4s0,.3.1.3.2.1.4.2c.2,0,.3.1.5.2.3,0,.5.2.8.3.2.1.4.3.6.4.1.2.2.4.2.6,0,.3,0,.5-.2.7-.2.2-.4.4-.6.5-.3.1-.5.2-.8.1Z"/>
      <path d="M55.4,622.5h-1v3.8h-.8v-3.8s-.8,0-.8,0v-.8h.8v-1.4s.8,0,.8,0v1.4h1v.8Z"/>
      <path d="M56.6,621c-.1,0-.2,0-.3-.1s-.1-.2-.1-.3,0-.2.1-.3.2-.1.3-.1.2,0,.3.1.1.2.1.3,0,.2-.1.3-.2.1-.3.1ZM56.2,621.8h.8v4.5h-.8v-4.5Z"/>
      <path d="M60,626.4c-.4,0-.8-.1-1.1-.3-.3-.2-.6-.5-.8-.9s-.3-.8-.3-1.2,0-.6.2-.9c.1-.3.3-.5.5-.8.2-.2.4-.4.7-.5s.6-.2.9-.2.8.1,1.1.3c.3.2.6.5.8.9.2.4.3.8.3,1.2s0,.6-.2.9c-.1.3-.3.5-.5.8-.2.2-.4.4-.7.5s-.6.2-.9.2ZM60,625.6c.3,0,.5,0,.8-.2.2-.1.4-.3.5-.6.1-.2.2-.5.2-.8s0-.6-.2-.8c-.1-.2-.3-.4-.5-.6-.2-.1-.5-.2-.8-.2s-.5,0-.8.2c-.2.1-.4.3-.5.6s-.2.5-.2.8,0,.6.2.8.3.4.5.6c.2.1.5.2.7.2Z"/>
      <path d="M66.9,623.5v2.8h-.8v-2.6c0-.2,0-.4-.2-.6s-.3-.3-.4-.4c-.2-.1-.4-.2-.6-.2s-.4,0-.6.2c-.2.1-.3.3-.4.4-.1.2-.2.4-.2.6v2.6h-.8v-4.5h.8v.6c.2-.2.4-.4.6-.5.2-.1.5-.2.8-.2s.6,0,.9.2c.3.2.5.4.7.7.2.3.2.6.2.9Z"/>
      <path d="M71.4,621.8h.8v4.5h-.8v-.8c-.2.3-.4.5-.6.6s-.5.2-.9.2-.6,0-.9-.2c-.3-.1-.5-.3-.8-.5-.2-.2-.4-.5-.5-.8-.1-.3-.2-.6-.2-.9s0-.6.2-.9c.1-.3.3-.5.5-.8.2-.2.5-.4.7-.5.3-.1.6-.2.9-.2s.7,0,.9.2.5.4.6.6v-.8ZM69.9,625.7c.3,0,.6,0,.8-.2.2-.1.4-.3.5-.6.1-.2.2-.5.2-.8s0-.6-.2-.8c-.1-.2-.3-.4-.5-.6s-.5-.2-.8-.2-.6,0-.8.2c-.2.1-.4.3-.6.6-.1.2-.2.5-.2.8s0,.6.2.8.3.4.6.6c.2.1.5.2.8.2Z"/>
      <path d="M77.5,622.5h-1v3.8h-.8v-3.8s-.8,0-.8,0v-.8h.8v-1.4s.8,0,.8,0v1.4h1v.8Z"/>
      <path d="M78.2,624.6v-2.8h.8v2.6c0,.2,0,.4.2.6s.3.3.4.4c.2.1.4.2.6.2s.4,0,.6-.2c.2-.1.3-.3.4-.4.1-.2.2-.4.2-.6v-2.6h.8v4.5s-.8,0-.8,0v-.6c-.2.2-.4.4-.6.5-.2.1-.5.2-.8.2s-.6,0-.9-.2c-.3-.2-.5-.4-.7-.7-.2-.3-.2-.6-.2-.9Z"/>
      <path d="M84.4,626.4c-.2,0-.5,0-.7-.1-.2,0-.4-.2-.6-.3s-.3-.3-.4-.5l.6-.3c0,.1.1.2.2.3.1,0,.3.2.4.2s.3,0,.5,0,.3,0,.5,0c.1,0,.3-.1.4-.2,0-.1.1-.2.1-.4s0-.3-.2-.4c-.1,0-.2-.2-.4-.2-.2,0-.3,0-.5-.1-.3,0-.6-.2-.8-.3-.2-.1-.4-.2-.6-.4-.1-.2-.2-.4-.2-.7s0-.5.2-.7c.2-.2.4-.4.6-.5s.5-.2.8-.2.7,0,1,.2c.3.2.5.4.7.6l-.6.4c0-.1-.1-.2-.2-.3-.1,0-.2-.1-.4-.2s-.3,0-.4,0c-.2,0-.3,0-.5,0-.2,0-.3.1-.4.2,0,.1-.1.2-.1.4s0,.3.1.3.2.1.4.2c.2,0,.3.1.5.2.3,0,.5.2.8.3.2.1.4.3.6.4.1.2.2.4.2.6,0,.3,0,.5-.2.7-.2.2-.4.4-.6.5-.3.1-.5.2-.8.1Z"/>
      <path d="M42.4,629.9h.8v6.8h-.8v-.8c-.2.3-.4.5-.6.6-.3.2-.6.2-.9.2s-.6,0-.9-.2c-.3-.1-.5-.3-.8-.5s-.4-.5-.5-.8c-.1-.3-.2-.6-.2-.9s0-.6.2-.9c.1-.3.3-.5.5-.8s.5-.4.8-.5c.3-.1.6-.2.9-.2s.7,0,.9.2c.3.2.5.4.6.6v-3ZM40.9,636.1c.3,0,.6,0,.8-.2.2-.1.4-.3.5-.6.1-.2.2-.5.2-.8s0-.6-.2-.8c-.1-.2-.3-.4-.5-.6s-.5-.2-.8-.2-.6,0-.8.2c-.2.1-.4.3-.6.6-.1.2-.2.5-.2.8s0,.6.2.8.3.4.6.6c.2.1.5.2.8.2Z"/>
      <path d="M47.9,632.2h.8v4.5h-.8v-.8c-.2.3-.4.5-.6.6s-.5.2-.9.2-.6,0-.9-.2c-.3-.1-.5-.3-.8-.5-.2-.2-.4-.5-.5-.8-.1-.3-.2-.6-.2-.9s0-.6.2-.9c.1-.3.3-.5.5-.8.2-.2.5-.4.7-.5.3-.1.6-.2.9-.2s.7,0,.9.2.5.4.6.6v-.8ZM46.4,636.1c.3,0,.6,0,.8-.2.2-.1.4-.3.5-.6.1-.2.2-.5.2-.8s0-.6-.2-.8c-.1-.2-.3-.4-.5-.6s-.5-.2-.8-.2-.6,0-.8.2c-.2.1-.4.3-.6.6-.1.2-.2.5-.2.8s0,.6.2.8.3.4.6.6c.2.1.5.2.8.2Z"/>
      <path d="M51.9,632.9h-1v3.8h-.8v-3.8s-.8,0-.8,0v-.8h.8v-1.4s.8,0,.8,0v1.4h1v.8Z"/>
      <path d="M54.5,636.8c-.4,0-.8-.1-1.1-.3-.3-.2-.6-.5-.8-.9s-.3-.8-.3-1.2,0-.6.2-.9c.1-.3.3-.5.5-.8.2-.2.4-.4.7-.5s.6-.2.9-.2.8.1,1.1.3c.3.2.6.5.8.9.2.4.3.8.3,1.2s0,.6-.2.9c-.1.3-.3.5-.5.8-.2.2-.4.4-.7.5s-.6.2-.9.2ZM54.5,636.1c.3,0,.5,0,.8-.2.2-.1.4-.3.5-.6.1-.2.2-.5.2-.8s0-.6-.2-.8c-.1-.2-.3-.4-.5-.6-.2-.1-.5-.2-.8-.2s-.5,0-.8.2c-.2.1-.4.3-.5.6s-.2.5-.2.8,0,.6.2.8.3.4.5.6c.2.1.5.2.7.2Z"/>
      <path d="M58.9,636.8c-.2,0-.5,0-.7-.1-.2,0-.4-.2-.6-.3s-.3-.3-.4-.5l.6-.3c0,.1.1.2.2.3.1,0,.3.2.4.2s.3,0,.5,0,.3,0,.5,0c.1,0,.3-.1.4-.2,0-.1.1-.2.1-.4s0-.3-.2-.4c-.1,0-.2-.2-.4-.2-.2,0-.3,0-.5-.1-.3,0-.6-.2-.8-.3-.2-.1-.4-.2-.6-.4-.1-.2-.2-.4-.2-.7s0-.5.2-.7c.2-.2.4-.4.6-.5s.5-.2.8-.2.7,0,1,.2c.3.2.5.4.7.6l-.6.4c0-.1-.1-.2-.2-.3-.1,0-.2-.1-.4-.2s-.3,0-.4,0c-.2,0-.3,0-.5,0-.2,0-.3.1-.4.2,0,.1-.1.2-.1.4s0,.3.1.3.2.1.4.2c.2,0,.3.1.5.2.3,0,.5.2.8.3.2.1.4.3.6.4.1.2.2.4.2.6,0,.3,0,.5-.2.7-.2.2-.4.4-.6.5-.3.1-.5.2-.8.1Z"/>
      <path d="M66.7,635.5l.7.4c-.2.3-.5.5-.8.7s-.7.3-1,.3-.8-.1-1.1-.3c-.3-.2-.6-.5-.8-.9s-.3-.8-.3-1.2,0-.6.2-.9c.1-.3.3-.5.5-.8.2-.2.4-.4.7-.5s.6-.2.9-.2.7,0,1,.3.6.4.8.7l-.7.4c-.1-.2-.3-.3-.5-.4-.2,0-.4-.1-.6-.1s-.5,0-.8.2-.4.3-.5.6-.2.5-.2.8,0,.6.2.8c.1.2.3.4.5.6.2.1.5.2.8.2s.4,0,.6-.2c.2-.1.4-.2.5-.4Z"/>
      <path d="M70.1,636.8c-.4,0-.8-.1-1.1-.3-.3-.2-.6-.5-.8-.9s-.3-.8-.3-1.2,0-.6.2-.9c.1-.3.3-.5.5-.8.2-.2.4-.4.7-.5s.6-.2.9-.2.8.1,1.1.3c.3.2.6.5.8.9.2.4.3.8.3,1.2s0,.6-.2.9c-.1.3-.3.5-.5.8-.2.2-.4.4-.7.5s-.6.2-.9.2ZM70.1,636.1c.3,0,.5,0,.8-.2.2-.1.4-.3.5-.6.1-.2.2-.5.2-.8s0-.6-.2-.8c-.1-.2-.3-.4-.5-.6-.2-.1-.5-.2-.8-.2s-.5,0-.8.2c-.2.1-.4.3-.5.6s-.2.5-.2.8,0,.6.2.8.3.4.5.6c.2.1.5.2.7.2Z"/>
      <path d="M77.1,633.9v2.8h-.8v-2.6c0-.2,0-.4-.2-.6s-.3-.3-.4-.4c-.2-.1-.4-.2-.6-.2s-.4,0-.6.2c-.2.1-.3.3-.4.4-.1.2-.2.4-.2.6v2.6h-.8v-4.5h.8v.6c.2-.2.4-.4.6-.5.2-.1.5-.2.8-.2s.6,0,.9.2c.3.2.5.4.7.7.2.3.2.6.2.9Z"/>
      <path d="M82.1,636.8c-.4,0-.8-.1-1.1-.3-.3-.2-.6-.5-.8-.9s-.3-.8-.3-1.2,0-.6.2-.9c.1-.3.3-.5.5-.8.2-.2.4-.4.7-.5s.6-.2.9-.2.7,0,.9.2c.3.1.5.3.7.6.2.2.4.5.5.8.1.3.1.7.1,1h-3.7c0,.3.1.5.3.7s.3.4.5.5c.2.1.4.2.7.2.3,0,.5,0,.7-.2.2-.1.4-.3.5-.6l.8.2c-.2.4-.5.7-.8,1-.4.3-.8.4-1.2.4ZM80.7,634.1h2.9c0-.3-.1-.5-.2-.7s-.3-.4-.5-.5-.4-.2-.7-.2-.5,0-.7.2c-.2.1-.4.3-.5.5-.1.2-.2.4-.3.7Z"/>
      <path d="M85.1,636.7v-6.8h.8v6.8h-.8Z"/>
      <path d="M63.2,644.7v-6.3h2.3c.3,0,.7,0,.9.3.3.2.5.4.7.7.2.3.2.6.2,1s0,.7-.2,1c-.2.3-.4.5-.7.7-.3.2-.6.3-.9.3h-1.2v2.5h-1.1ZM64.3,641.1h1c.2,0,.3,0,.4-.1.1,0,.2-.2.3-.3,0-.1.1-.3.1-.4s0-.3-.1-.4c0-.1-.2-.2-.3-.3-.1,0-.3-.1-.4-.1h-1v1.8Z"/>
      <path d="M69.8,644.8c-.4,0-.8-.1-1.1-.3-.3-.2-.6-.5-.8-.9s-.3-.8-.3-1.2,0-.6.2-.9c.1-.3.3-.5.5-.8.2-.2.4-.4.7-.5s.6-.2.9-.2.8.1,1.1.3c.3.2.6.5.8.9.2.4.3.8.3,1.2s0,.6-.2.9c-.1.3-.3.5-.5.8-.2.2-.4.4-.7.5s-.6.2-.9.2ZM69.8,643.7c.2,0,.4,0,.6-.2s.3-.3.4-.5.2-.4.2-.6,0-.4-.2-.6c-.1-.2-.2-.3-.4-.5-.2-.1-.4-.2-.6-.2s-.4,0-.6.2-.3.3-.4.5-.2.4-.2.6,0,.5.2.6c.1.2.2.3.4.5.2.1.4.2.6.2Z"/>
      <path d="M72.7,644.7v-4.5s1.1,0,1.1,0v.4c.2-.2.3-.3.6-.4s.4-.1.7-.1.3,0,.5,0l-.4,1.1c-.1,0-.2,0-.3,0-.2,0-.3,0-.5.1-.1,0-.3.2-.3.3,0,.1-.1.3-.1.5v2.6h-1.1Z"/>
      <path d="M78.6,641.3h-.9v3.4h-1.1v-3.4h-.7v-1.1h.7v-1.4h1.1v1.4h.9v1.1Z"/>
      <path d="M82.7,640.2h1.1v4.5h-1.1v-.6c-.2.2-.3.4-.5.5-.2.1-.4.2-.7.2s-.6,0-.9-.2-.5-.3-.8-.5c-.2-.2-.4-.5-.5-.8-.1-.3-.2-.6-.2-.9s0-.6.2-.9c.1-.3.3-.5.5-.7.2-.2.5-.4.7-.5.3-.1.6-.2.9-.2s.6,0,.8.2c.2.1.4.3.6.5v-.6ZM81.4,643.7c.2,0,.4,0,.6-.2.2-.1.3-.3.4-.5.1-.2.2-.4.2-.7s0-.5-.2-.7c-.1-.2-.2-.4-.4-.5-.2-.1-.4-.2-.6-.2s-.4,0-.6.2c-.2.1-.3.3-.5.5-.1.2-.2.4-.2.7s0,.5.2.7c.1.2.3.4.5.5.2.1.4.2.6.2Z"/>
      <path d="M84.8,644.7v-6.8h1.1v6.8h-1.1Z"/>
      <path d="M33.8,652.6v-6.3h2.3c.3,0,.6,0,.9.2s.5.3.6.6.2.6.2.9,0,.3,0,.5-.1.3-.2.4c0,.1-.2.2-.4.3.2,0,.4.1.5.3.1.1.2.3.3.4,0,.2.1.3.1.5s0,.3,0,.5c0,.3,0,.6-.2.9-.2.3-.4.5-.7.6s-.6.2-.9.2h-2.6ZM34.9,648.8h1.1c.2,0,.4,0,.6-.2.2-.1.2-.3.2-.5s0-.4-.2-.6c-.2-.1-.3-.2-.6-.2h-1.1v1.5ZM34.9,651.7h1.3c.2,0,.3,0,.5-.1.1,0,.3-.2.3-.4,0-.2.1-.3.1-.5s0-.3-.1-.5c0-.1-.2-.3-.3-.4-.1,0-.3-.1-.5-.1h-1.3v2Z"/>
      <path d="M39.7,647.6c-.2,0-.3,0-.4-.2-.1-.1-.2-.2-.2-.4s0-.3.2-.4c.1-.1.2-.2.4-.2s.3,0,.4.2c.1.1.2.2.2.4s0,.3-.2.4c-.1.1-.2.2-.4.2ZM39.1,648.1h1.1v4.5h-1.1v-4.5Z"/>
      <path d="M43.7,648c.4,0,.8.1,1.2.3.4.2.6.5.9.9s.3.8.3,1.2,0,.6-.2.9c-.1.3-.3.5-.5.8s-.5.4-.8.5-.6.2-.9.2-.5,0-.8-.2-.4-.3-.5-.5v.6h-1.1v-6.8h1.1v2.8c.1-.2.3-.4.5-.5s.5-.2.8-.2ZM43.7,651.7c.2,0,.4,0,.6-.2.2-.1.3-.3.5-.5s.2-.4.2-.7,0-.5-.2-.7c-.1-.2-.3-.4-.5-.5s-.4-.2-.6-.2-.4,0-.6.2-.3.3-.4.5c-.1.2-.2.4-.2.7s0,.5.2.7c.1.2.2.4.4.5s.4.2.6.2Z"/>
      <path d="M46.7,652.6v-6.8h1.1v6.8h-1.1Z"/>
      <path d="M49.5,647.6c-.2,0-.3,0-.4-.2-.1-.1-.2-.2-.2-.4s0-.3.2-.4c.1-.1.2-.2.4-.2s.3,0,.4.2c.1.1.2.2.2.4s0,.3-.2.4c-.1.1-.2.2-.4.2ZM48.9,648.1h1.1v4.5h-1.1v-4.5Z"/>
      <path d="M53,652.8c-.4,0-.8-.1-1.1-.3-.3-.2-.6-.5-.8-.9s-.3-.8-.3-1.2,0-.6.2-.9c.1-.3.3-.5.5-.8.2-.2.4-.4.7-.5s.6-.2.9-.2.8.1,1.1.3c.3.2.6.5.8.9.2.4.3.8.3,1.2s0,.6-.2.9c-.1.3-.3.5-.5.8-.2.2-.4.4-.7.5s-.6.2-.9.2ZM53,651.7c.2,0,.4,0,.6-.2s.3-.3.4-.5.2-.4.2-.6,0-.4-.2-.6c-.1-.2-.2-.3-.4-.5-.2-.1-.4-.2-.6-.2s-.4,0-.6.2-.3.3-.4.5-.2.4-.2.6,0,.5.2.6c.1.2.2.3.4.5.2.1.4.2.6.2Z"/>
      <path d="M55.9,652.6v-4.5h1.1v.4c.2-.2.3-.3.6-.4s.4-.1.7-.1.6,0,.9.2c.3.1.5.3.6.6.2-.2.4-.4.6-.6.3-.1.5-.2.9-.2s.6,0,.9.2c.3.2.5.4.6.6.2.3.2.6.2.9v2.8h-1.1v-2.6c0-.2,0-.3-.1-.5,0-.1-.2-.3-.3-.4s-.3-.1-.5-.1-.3,0-.5.1c-.1,0-.3.2-.3.3,0,.1-.1.3-.1.5v2.6h-1.1v-2.6c0-.2,0-.3-.1-.5,0-.1-.2-.3-.3-.3-.1,0-.3-.1-.5-.1s-.3,0-.5.1c-.1,0-.3.2-.3.4,0,.1-.1.3-.1.5v2.6h-1.1Z"/>
      <path d="M65.8,652.8c-.4,0-.8-.1-1.1-.3-.3-.2-.6-.5-.8-.9-.2-.4-.3-.8-.3-1.2s0-.6.2-.9c.1-.3.3-.5.5-.8.2-.2.4-.4.7-.5s.6-.2.9-.2.7,0,1,.2c.3.1.5.4.7.6.2.3.4.6.4.9,0,.3.1.7,0,1h-3.3c0,.2.1.3.2.5s.2.2.4.3c.1,0,.3.1.5.1.2,0,.4,0,.5-.1s.3-.2.4-.4l1.1.3c-.2.4-.5.7-.8,1-.4.3-.8.4-1.2.4ZM64.7,649.9h2.2c0-.2-.1-.3-.2-.5-.1-.1-.2-.3-.4-.3s-.3-.1-.5-.1-.3,0-.5.1c-.2,0-.3.2-.4.3-.1.1-.2.3-.2.5ZM65.5,647.6l.4-1.3h1.1l-.7,1.3h-.7Z"/>
      <path d="M71.2,649.2h-.9v3.4h-1.1v-3.4h-.7v-1.1h.7v-1.4h1.1v1.4h.9v1.1Z"/>
      <path d="M72,652.6v-4.5s1.1,0,1.1,0v.4c.2-.2.3-.3.6-.4s.4-.1.7-.1.3,0,.5,0l-.4,1.1c-.1,0-.2,0-.3,0-.2,0-.3,0-.5.1-.1,0-.3.2-.3.3,0,.1-.1.3-.1.5v2.6h-1.1Z"/>
      <path d="M75.9,647.6c-.2,0-.3,0-.4-.2-.1-.1-.2-.2-.2-.4s0-.3.2-.4c.1-.1.2-.2.4-.2s.3,0,.4.2c.1.1.2.2.2.4s0,.3-.2.4c-.1.1-.2.2-.4.2ZM75.4,648.1h1.1v4.5h-1.1v-4.5Z"/>
      <path d="M80.2,651.3l1,.5c-.2.3-.5.5-.8.7s-.7.3-1,.3-.8-.1-1.1-.3c-.3-.2-.6-.5-.8-.9s-.3-.8-.3-1.2,0-.6.2-.9c.1-.3.3-.5.5-.8.2-.2.4-.4.7-.5s.6-.2.9-.2.7,0,1,.3.6.4.8.7l-1,.5c-.1-.1-.2-.2-.4-.3-.1,0-.3,0-.4,0-.2,0-.4,0-.6.2-.2.1-.3.3-.4.5-.1.2-.2.4-.2.6s0,.4.2.6c.1.2.2.3.4.5s.4.2.6.2.3,0,.4-.1c.1,0,.3-.2.4-.3Z"/>
      <path d="M83.9,652.8c-.4,0-.8-.1-1.1-.3-.3-.2-.6-.5-.8-.9s-.3-.8-.3-1.2,0-.6.2-.9c.1-.3.3-.5.5-.8.2-.2.4-.4.7-.5s.6-.2.9-.2.8.1,1.1.3c.3.2.6.5.8.9.2.4.3.8.3,1.2s0,.6-.2.9c-.1.3-.3.5-.5.8-.2.2-.4.4-.7.5s-.6.2-.9.2ZM83.9,651.7c.2,0,.4,0,.6-.2s.3-.3.4-.5.2-.4.2-.6,0-.4-.2-.6c-.1-.2-.2-.3-.4-.5-.2-.1-.4-.2-.6-.2s-.4,0-.6.2-.3.3-.4.5-.2.4-.2.6,0,.5.2.6c.1.2.2.3.4.5.2.1.4.2.6.2Z"/>
    </g>
    <g>
      <g class="st6">
        <rect class="st12" x="134" y="602" width="243.9" height="8.2" transform="translate(-41.2 19.1) rotate(-4)"/>
      </g>
      <g>
        <rect class="st11" x="225.8" y="453.5" width="59.1" height="247.5" transform="translate(813.7 282.7) rotate(86)"/>
        <text class="st3" transform="translate(147.9 591.6) rotate(-4)"><tspan x="0" y="0">SOPORTE OJS/OMP</tspan></text>
      </g>
    </g>
    <g>
      <path d="M67.2,558.7v-6.3h2.1c.3,0,.6,0,.9.2.3.2.5.4.6.7s.2.6.2.9,0,.7-.2.9c-.2.3-.4.5-.7.7-.3.2-.6.2-.9.2h-1.3v2.6h-.8ZM67.9,555.4h1.3c.2,0,.4,0,.6-.2.2-.1.3-.2.4-.4.1-.2.2-.4.2-.6s0-.4-.2-.6c-.1-.2-.2-.3-.4-.4-.2-.1-.4-.2-.6-.2h-1.3v2.3Z"/>
      <path d="M71.8,558.7v-4.5h.8v.6c.2-.2.4-.4.6-.5.2-.1.5-.2.8-.2s.3,0,.5,0l-.3.8c-.1,0-.2,0-.4,0-.2,0-.4,0-.6.2-.2.1-.3.3-.4.4-.1.2-.2.4-.2.6v2.6h-.8Z"/>
      <path d="M76.8,558.8c-.4,0-.8-.1-1.1-.3-.3-.2-.6-.5-.8-.9s-.3-.8-.3-1.2,0-.6.2-.9c.1-.3.3-.5.5-.8.2-.2.4-.4.7-.5s.6-.2.9-.2.7,0,.9.2c.3.1.5.3.7.6.2.2.4.5.5.8.1.3.1.7.1,1h-3.7c0,.3.1.5.3.7s.3.4.5.5c.2.1.4.2.7.2.3,0,.5,0,.7-.2.2-.1.4-.3.5-.6l.8.2c-.2.4-.5.7-.8,1-.4.3-.8.4-1.2.4ZM75.3,556.1h2.9c0-.3-.1-.5-.2-.7s-.3-.4-.5-.5-.4-.2-.7-.2-.5,0-.7.2c-.2.1-.4.3-.5.5-.1.2-.2.4-.3.7Z"/>
      <path d="M81.2,558.8c-.2,0-.5,0-.7-.1-.2,0-.4-.2-.6-.3s-.3-.3-.4-.5l.6-.3c0,.1.1.2.2.3.1,0,.3.2.4.2s.3,0,.5,0,.3,0,.5,0c.1,0,.3-.1.4-.2,0-.1.1-.2.1-.4s0-.3-.2-.4c-.1,0-.2-.2-.4-.2-.2,0-.3,0-.5-.1-.3,0-.6-.2-.8-.3-.2-.1-.4-.2-.6-.4-.1-.2-.2-.4-.2-.7s0-.5.2-.7c.2-.2.4-.4.6-.5s.5-.2.8-.2.7,0,1,.2c.3.2.5.4.7.6l-.6.4c0-.1-.1-.2-.2-.3-.1,0-.2-.1-.4-.2s-.3,0-.4,0c-.2,0-.3,0-.5,0-.2,0-.3.1-.4.2,0,.1-.1.2-.1.4s0,.3.1.3.2.1.4.2c.2,0,.3.1.5.2.3,0,.5.2.8.3.2.1.4.3.6.4.1.2.2.4.2.6,0,.3,0,.5-.2.7-.2.2-.4.4-.6.5-.3.1-.5.2-.8.1Z"/>
      <path d="M86,555h-1v3.8h-.8v-3.8s-.8,0-.8,0v-.8h.8v-1.4s.8,0,.8,0v1.4h1v.8Z"/>
      <path d="M90.3,554.2h.8v4.5h-.8v-.8c-.2.3-.4.5-.6.6s-.5.2-.9.2-.6,0-.9-.2c-.3-.1-.5-.3-.8-.5-.2-.2-.4-.5-.5-.8-.1-.3-.2-.6-.2-.9s0-.6.2-.9c.1-.3.3-.5.5-.8.2-.2.5-.4.7-.5.3-.1.6-.2.9-.2s.7,0,.9.2.5.4.6.6v-.8ZM88.8,558.1c.3,0,.6,0,.8-.2.2-.1.4-.3.5-.6.1-.2.2-.5.2-.8s0-.6-.2-.8c-.1-.2-.3-.4-.5-.6s-.5-.2-.8-.2-.6,0-.8.2c-.2.1-.4.3-.6.6-.1.2-.2.5-.2.8s0,.6.2.8.3.4.6.6c.2.1.5.2.8.2Z"/>
      <path d="M92,558.7v-4.5h.8v.6c.2-.2.4-.4.6-.5.2-.1.5-.2.8-.2s.6,0,.9.2c.3.2.5.4.7.6.2-.3.4-.5.7-.6s.6-.2.9-.2.6,0,.9.2c.3.2.5.4.7.7s.2.6.2.9v2.8h-.8v-2.6c0-.2,0-.4-.2-.6s-.3-.3-.4-.5c-.2-.1-.4-.2-.6-.2s-.4,0-.6.2c-.2.1-.3.3-.4.4-.1.2-.2.4-.2.6v2.6h-.8v-2.6c0-.2,0-.5-.2-.6-.1-.2-.3-.3-.4-.4-.2-.1-.4-.2-.6-.2s-.4,0-.6.2c-.2.1-.3.3-.4.5-.1.2-.2.4-.2.6v2.6h-.8Z"/>
      <path d="M101.9,558.8c-.4,0-.8-.1-1.1-.3-.3-.2-.6-.5-.8-.9s-.3-.8-.3-1.2,0-.6.2-.9c.1-.3.3-.5.5-.8.2-.2.4-.4.7-.5s.6-.2.9-.2.8.1,1.1.3c.3.2.6.5.8.9.2.4.3.8.3,1.2s0,.6-.2.9c-.1.3-.3.5-.5.8-.2.2-.4.4-.7.5s-.6.2-.9.2ZM101.9,558.1c.3,0,.5,0,.8-.2.2-.1.4-.3.5-.6.1-.2.2-.5.2-.8s0-.6-.2-.8c-.1-.2-.3-.4-.5-.6-.2-.1-.5-.2-.8-.2s-.5,0-.8.2c-.2.1-.4.3-.5.6s-.2.5-.2.8,0,.6.2.8.3.4.5.6c.2.1.5.2.7.2Z"/>
      <path d="M106.3,558.8c-.2,0-.5,0-.7-.1-.2,0-.4-.2-.6-.3s-.3-.3-.4-.5l.6-.3c0,.1.1.2.2.3.1,0,.3.2.4.2s.3,0,.5,0,.3,0,.5,0c.1,0,.3-.1.4-.2,0-.1.1-.2.1-.4s0-.3-.2-.4c-.1,0-.2-.2-.4-.2-.2,0-.3,0-.5-.1-.3,0-.6-.2-.8-.3-.2-.1-.4-.2-.6-.4-.1-.2-.2-.4-.2-.7s0-.5.2-.7c.2-.2.4-.4.6-.5s.5-.2.8-.2.7,0,1,.2c.3.2.5.4.7.6l-.6.4c0-.1-.1-.2-.2-.3-.1,0-.2-.1-.4-.2s-.3,0-.4,0c-.2,0-.3,0-.5,0-.2,0-.3.1-.4.2,0,.1-.1.2-.1.4s0,.3.1.3.2.1.4.2c.2,0,.3.1.5.2.3,0,.5.2.8.3.2.1.4.3.6.4.1.2.2.4.2.6,0,.3,0,.5-.2.7-.2.2-.4.4-.6.5-.3.1-.5.2-.8.1Z"/>
      <path d="M79.1,567.1c-.2,0-.5,0-.7-.1-.2,0-.4-.2-.6-.3-.2-.1-.3-.3-.4-.5l.9-.4c0,0,0,.1.2.2,0,0,.2.1.3.2.1,0,.2,0,.4,0s.2,0,.3,0c.1,0,.2,0,.3-.1,0,0,0-.2,0-.3s0-.2-.1-.3-.2-.1-.3-.1c-.1,0-.2,0-.3,0-.3,0-.6-.1-.8-.3-.2-.1-.4-.3-.6-.5-.1-.2-.2-.4-.2-.7s0-.6.2-.8c.2-.2.4-.4.6-.5s.5-.2.8-.2.7,0,1,.2c.3.1.5.4.7.6l-.9.5c0,0-.1-.1-.2-.2,0,0-.2-.1-.3-.2,0,0-.2,0-.3,0-.1,0-.3,0-.4,0-.1,0-.2,0-.3.2s-.1.2-.1.3,0,.2.1.3c0,0,.2,0,.3.1.1,0,.2,0,.4,0,.3,0,.5.2.7.3s.4.3.6.5c.1.2.2.4.2.7,0,.3,0,.5-.3.8-.2.2-.4.4-.7.5s-.6.2-.9.1Z"/>
      <path d="M83.6,567.2c-.4,0-.8-.1-1.1-.3-.3-.2-.6-.5-.8-.9-.2-.4-.3-.8-.3-1.2s0-.6.2-.9c.1-.3.3-.5.5-.8.2-.2.4-.4.7-.5s.6-.2.9-.2.7,0,1,.2c.3.1.5.4.7.6.2.3.4.6.4.9,0,.3.1.7,0,1h-3.3c0,.2.1.3.2.5s.2.2.4.3c.1,0,.3.1.5.1.2,0,.4,0,.5-.1s.3-.2.4-.4l1.1.3c-.2.4-.5.7-.8,1-.4.3-.8.4-1.2.4ZM82.5,564.3h2.2c0-.2-.1-.3-.2-.5-.1-.1-.2-.3-.4-.3s-.3-.1-.5-.1-.3,0-.5.1c-.2,0-.3.2-.4.3-.1.1-.2.3-.2.5Z"/>
      <path d="M86.6,567v-4.5s1.1,0,1.1,0v.4c.2-.2.3-.3.6-.4s.4-.1.7-.1.3,0,.5,0l-.4,1.1c-.1,0-.2,0-.3,0-.2,0-.3,0-.5.1-.1,0-.3.2-.3.3,0,.1-.1.3-.1.5v2.6h-1.1Z"/>
      <path d="M92.9,567h-1.4l-1.6-4.5h1.2l1.2,3.2,1.2-3.2h1.2l-1.6,4.5Z"/>
      <path d="M95.7,561.9c-.2,0-.3,0-.4-.2-.1-.1-.2-.2-.2-.4s0-.3.2-.4c.1-.1.2-.2.4-.2s.3,0,.4.2c.1.1.2.2.2.4s0,.3-.2.4c-.1.1-.2.2-.4.2ZM95.2,562.5h1.1v4.5h-1.1v-4.5Z"/>
      <path d="M100.1,565.7l1,.5c-.2.3-.5.5-.8.7s-.7.3-1,.3-.8-.1-1.1-.3c-.3-.2-.6-.5-.8-.9s-.3-.8-.3-1.2,0-.6.2-.9c.1-.3.3-.5.5-.8.2-.2.4-.4.7-.5s.6-.2.9-.2.7,0,1,.3.6.4.8.7l-1,.5c-.1-.1-.2-.2-.4-.3-.1,0-.3,0-.4,0-.2,0-.4,0-.6.2-.2.1-.3.3-.4.5-.1.2-.2.4-.2.6s0,.4.2.6c.1.2.2.3.4.5s.4.2.6.2.3,0,.4-.1c.1,0,.3-.2.4-.3Z"/>
      <path d="M102.2,561.9c-.2,0-.3,0-.4-.2-.1-.1-.2-.2-.2-.4s0-.3.2-.4c.1-.1.2-.2.4-.2s.3,0,.4.2c.1.1.2.2.2.4s0,.3-.2.4c-.1.1-.2.2-.4.2ZM101.7,562.5h1.1v4.5h-1.1v-4.5Z"/>
      <path d="M105.7,567.2c-.4,0-.8-.1-1.1-.3-.3-.2-.6-.5-.8-.9s-.3-.8-.3-1.2,0-.6.2-.9c.1-.3.3-.5.5-.8.2-.2.4-.4.7-.5s.6-.2.9-.2.8.1,1.1.3c.3.2.6.5.8.9.2.4.3.8.3,1.2s0,.6-.2.9c-.1.3-.3.5-.5.8-.2.2-.4.4-.7.5s-.6.2-.9.2ZM105.7,566.1c.2,0,.4,0,.6-.2s.3-.3.4-.5.2-.4.2-.6,0-.4-.2-.6c-.1-.2-.2-.3-.4-.5-.2-.1-.4-.2-.6-.2s-.4,0-.6.2-.3.3-.4.5-.2.4-.2.6,0,.5.2.6c.1.2.2.3.4.5.2.1.4.2.6.2Z"/>
      <path d="M65.8,571.9h-.9v3.4h-1.1v-3.4h-.7v-1.1h.7v-1.4h1.1v1.4h.9v1.1Z"/>
      <path d="M68.5,575.5c-.4,0-.8-.1-1.1-.3-.3-.2-.6-.5-.8-.9s-.3-.8-.3-1.2,0-.6.2-.9c.1-.3.3-.5.5-.8.2-.2.4-.4.7-.5s.6-.2.9-.2.8.1,1.1.3c.3.2.6.5.8.9.2.4.3.8.3,1.2s0,.6-.2.9c-.1.3-.3.5-.5.8-.2.2-.4.4-.7.5s-.6.2-.9.2ZM68.5,574.4c.2,0,.4,0,.6-.2s.3-.3.4-.5.2-.4.2-.6,0-.4-.2-.6c-.1-.2-.2-.3-.4-.5-.2-.1-.4-.2-.6-.2s-.4,0-.6.2-.3.3-.4.5-.2.4-.2.6,0,.5.2.6c.1.2.2.3.4.5.2.1.4.2.6.2Z"/>
      <path d="M74.9,568.6h1.1v6.8h-1.1v-.6c-.1.2-.3.4-.5.5s-.5.2-.8.2-.6,0-.9-.2c-.3-.1-.5-.3-.8-.5s-.4-.5-.5-.8c-.1-.3-.2-.6-.2-.9s0-.6.2-.9c.1-.3.3-.5.5-.8s.5-.4.8-.5c.3-.1.6-.2.9-.2s.5,0,.8.2c.2.1.4.3.5.5v-2.8ZM73.6,574.4c.2,0,.4,0,.6-.2.2-.1.3-.3.4-.5.1-.2.2-.4.2-.7s0-.5-.2-.7c-.1-.2-.2-.4-.4-.5-.2-.1-.4-.2-.6-.2s-.4,0-.6.2c-.2.1-.3.3-.5.5-.1.2-.2.4-.2.7s0,.5.2.7c.1.2.3.4.5.5.2.1.4.2.6.2Z"/>
      <path d="M79,575.5c-.4,0-.8-.1-1.1-.3-.3-.2-.6-.5-.8-.9s-.3-.8-.3-1.2,0-.6.2-.9c.1-.3.3-.5.5-.8.2-.2.4-.4.7-.5s.6-.2.9-.2.8.1,1.1.3c.3.2.6.5.8.9.2.4.3.8.3,1.2s0,.6-.2.9c-.1.3-.3.5-.5.8-.2.2-.4.4-.7.5s-.6.2-.9.2ZM79,574.4c.2,0,.4,0,.6-.2s.3-.3.4-.5.2-.4.2-.6,0-.4-.2-.6c-.1-.2-.2-.3-.4-.5-.2-.1-.4-.2-.6-.2s-.4,0-.6.2-.3.3-.4.5-.2.4-.2.6,0,.5.2.6c.1.2.2.3.4.5.2.1.4.2.6.2Z"/>
      <path d="M86.2,575.5c-.4,0-.8-.1-1.1-.3-.3-.2-.6-.5-.8-.9-.2-.4-.3-.8-.3-1.2s0-.6.2-.9c.1-.3.3-.5.5-.8.2-.2.4-.4.7-.5s.6-.2.9-.2.7,0,1,.2c.3.1.5.4.7.6.2.3.4.6.4.9,0,.3.1.7,0,1h-3.3c0,.2.1.3.2.5s.2.2.4.3c.1,0,.3.1.5.1.2,0,.4,0,.5-.1s.3-.2.4-.4l1.1.3c-.2.4-.5.7-.8,1-.4.3-.8.4-1.2.4ZM85.1,572.7h2.2c0-.2-.1-.3-.2-.5-.1-.1-.2-.3-.4-.3s-.3-.1-.5-.1-.3,0-.5.1c-.2,0-.3.2-.4.3-.1.1-.2.3-.2.5Z"/>
      <path d="M89.1,575.4v-6.8h1.1v6.8h-1.1Z"/>
      <path d="M96.8,570.8h1.1v4.5h-1.1v-.6c-.2.2-.3.4-.5.5-.2.1-.4.2-.7.2s-.6,0-.9-.2-.5-.3-.8-.5c-.2-.2-.4-.5-.5-.8-.1-.3-.2-.6-.2-.9s0-.6.2-.9c.1-.3.3-.5.5-.7.2-.2.5-.4.7-.5.3-.1.6-.2.9-.2s.6,0,.8.2c.2.1.4.3.6.5v-.6ZM95.5,574.4c.2,0,.4,0,.6-.2.2-.1.3-.3.4-.5.1-.2.2-.4.2-.7s0-.5-.2-.7c-.1-.2-.2-.4-.4-.5-.2-.1-.4-.2-.6-.2s-.4,0-.6.2c-.2.1-.3.3-.5.5-.1.2-.2.4-.2.7s0,.5.2.7c.1.2.3.4.5.5.2.1.4.2.6.2Z"/>
      <path d="M103,572.5v2.8h-1.1v-2.6c0-.2,0-.3-.1-.5,0-.1-.2-.3-.3-.3-.1,0-.3-.1-.5-.1s-.3,0-.5.1c-.1,0-.3.2-.3.3,0,.1-.1.3-.1.5v2.6h-1.1v-4.5s1.1,0,1.1,0v.4c.2-.2.3-.3.6-.4s.4-.1.7-.1.6,0,.9.2c.3.2.5.4.6.6s.2.6.2.9ZM101.7,570.4c-.1,0-.2,0-.4-.1-.2,0-.3-.2-.5-.3-.2,0-.3-.2-.4-.2s-.2,0-.2,0c0,0,0,0,0,.2,0,0,0,.1,0,.2l-.6.2c0-.2-.1-.4,0-.6s.1-.3.3-.5c.1-.1.3-.2.5-.2s.2,0,.4,0c.1,0,.3.1.4.2s.3.2.4.2c.1,0,.2,0,.2,0s0,0,.1,0c0,0,0,0,0-.2,0,0,0-.1,0-.2l.7-.2c0,.2,0,.5,0,.7s-.1.3-.3.5c-.1.1-.3.2-.5.2Z"/>
      <path d="M105.7,575.5c-.4,0-.8-.1-1.1-.3-.3-.2-.6-.5-.8-.9s-.3-.8-.3-1.2,0-.6.2-.9c.1-.3.3-.5.5-.8.2-.2.4-.4.7-.5s.6-.2.9-.2.8.1,1.1.3c.3.2.6.5.8.9.2.4.3.8.3,1.2s0,.6-.2.9c-.1.3-.3.5-.5.8-.2.2-.4.4-.7.5s-.6.2-.9.2ZM105.7,574.4c.2,0,.4,0,.6-.2s.3-.3.4-.5.2-.4.2-.6,0-.4-.2-.6c-.1-.2-.2-.3-.4-.5-.2-.1-.4-.2-.6-.2s-.4,0-.6.2-.3.3-.4.5-.2.4-.2.6,0,.5.2.6c.1.2.2.3.4.5.2.1.4.2.6.2Z"/>
    </g>
    <g>
      <rect class="st15" x="200.9" y="186.8" width="59.1" height="274.6" transform="translate(568.1 114) rotate(93.5)"/>
      <text class="st4" transform="translate(120.5 324) rotate(3.5)"><tspan x="0" y="0">IMPLEMENTACIÓN</tspan></text>
    </g>
  </g>
</svg>