<?xml version="1.0" encoding="UTF-8"?>
<svg id="Capa_1" xmlns="http://www.w3.org/2000/svg" version="1.1" xmlns:xlink="http://www.w3.org/1999/xlink" viewBox="0 0 1920 1080">
  <!-- Generator: Adobe Illustrator 29.3.1, SVG Export Plug-In . SVG Version: 2.1.0 Build 151)  -->
  <defs>
    <style>
      .st0 {
        fill: #8a236e;
      }

      .st1 {
        filter: url(#AI_DesenfoqueGaussiano_74);
      }

      .st1, .st2, .st3, .st4, .st5 {
        opacity: .5;
      }

      .st6 {
        opacity: 1;
      }

      .st6, .st7, .st8 {
        fill: #fff;
      }

      .st6, .st8 {
        font-family: BonoboSemiBold, Bonobo;
        font-size: 55px;
      }

      .st2 {
        filter: url(#AI_DesenfoqueGaussiano_71);
      }

      .st9 {
        fill: #cd3c17;
      }

      .st3 {
        filter: url(#AI_DesenfoqueGaussiano_73);
      }

      .st10 {
        fill: #333;
      }

      .st11 {
        fill: none;
        stroke: #4d4d4d;
        stroke-miterlimit: 10;
        stroke-width: 2px;
      }

      .st4 {
        filter: url(#AI_DesenfoqueGaussiano_7);
      }

      .st5 {
        filter: url(#AI_DesenfoqueGaussiano_72);
      }

      .st12 {
        fill: #f29c37;
      }

      .st13 {
        fill: #046e7c;
      }
    </style>
    <filter id="AI_DesenfoqueGaussiano_7">
      <feGaussianBlur stdDeviation="7"/>
    </filter>
    <filter id="AI_DesenfoqueGaussiano_71" data-name="AI_DesenfoqueGaussiano_7">
      <feGaussianBlur stdDeviation="7"/>
    </filter>
    <filter id="AI_DesenfoqueGaussiano_72" data-name="AI_DesenfoqueGaussiano_7">
      <feGaussianBlur stdDeviation="7"/>
    </filter>
    <filter id="AI_DesenfoqueGaussiano_73" data-name="AI_DesenfoqueGaussiano_7">
      <feGaussianBlur stdDeviation="7"/>
    </filter>
    <filter id="AI_DesenfoqueGaussiano_74" data-name="AI_DesenfoqueGaussiano_7">
      <feGaussianBlur stdDeviation="7"/>
    </filter>
  </defs>
  <rect class="st7" x="-5.7" y="-2.7" width="1931.3" height="1085.2"/>
  <g>
    <g>
      <path d="M1636.4,209.4c-2.5,0-4.8-.5-7-1.5-2.2-1-4-2.3-5.6-4.1-1.6-1.7-2.8-3.7-3.7-6-.9-2.3-1.4-4.7-1.4-7.3s.5-5.2,1.5-7.5c1-2.3,2.3-4.2,4-5.9,1.7-1.7,3.6-3,5.7-3.9,2.1-.9,4.4-1.4,6.7-1.4s5.1.6,7.6,1.8c2.4,1.2,4.6,3.1,6.5,5.6l-5.6,3c-1.2-1.4-2.5-2.5-4-3.2-1.5-.7-3-1-4.5-1s-3,.3-4.3.9-2.6,1.5-3.7,2.6c-1.1,1.1-1.9,2.4-2.5,4-.6,1.5-.9,3.2-.9,5s.3,3.3.9,4.8c.6,1.5,1.4,2.8,2.5,3.9,1.1,1.1,2.3,2,3.7,2.6,1.4.6,2.9,1,4.5,1s2.1-.2,3.1-.5c1-.3,2-.8,2.9-1.5s1.7-1.4,2.4-2.3c.7-.9,1.3-1.9,1.8-3.1h-6.6v-5.5h14c0,2.6-.3,5.1-1.2,7.4-.9,2.3-2.2,4.3-3.8,6.1-1.6,1.8-3.5,3.2-5.7,4.1s-4.5,1.5-7,1.5Z"/>
      <path d="M1658.8,208.8v-36.1h22.6v6.3h-16.3v7.3h13v6.3h-13v9.9h16.3v6.3h-22.6Z"/>
      <path d="M1700.1,209.4c-2,0-3.9-.3-5.7-.9-1.8-.6-3.4-1.5-4.8-2.7s-2.4-2.6-3-4.2l5.9-2.2c.2.7.7,1.3,1.5,1.9.7.6,1.6,1,2.7,1.4,1.1.3,2.2.5,3.4.5s2.4-.2,3.5-.6c1.1-.4,2-.9,2.6-1.6.7-.7,1-1.5,1-2.4s-.4-1.7-1.1-2.3c-.7-.6-1.6-1.1-2.7-1.5-1.1-.4-2.2-.6-3.4-.8-2.6-.4-4.9-1-6.9-1.8-2-.8-3.6-2-4.8-3.4-1.2-1.5-1.8-3.3-1.8-5.7s.6-4.1,1.9-5.7c1.3-1.6,2.9-2.9,4.9-3.8,2-.9,4.2-1.4,6.6-1.4s3.9.3,5.7.9c1.8.6,3.4,1.5,4.8,2.7,1.4,1.2,2.4,2.6,3,4.3l-5.9,2.1c-.2-.7-.7-1.3-1.5-1.9-.7-.6-1.6-1-2.7-1.4-1.1-.3-2.2-.5-3.4-.5-1.2,0-2.4.2-3.5.6-1.1.4-2,.9-2.7,1.6-.7.7-1,1.5-1,2.4s.3,2,1,2.6c.6.6,1.5,1,2.6,1.3s2.3.5,3.6.7c2.4.4,4.6,1,6.7,1.9,2,.9,3.7,2.1,4.9,3.6s1.9,3.3,1.9,5.4-.6,4.1-1.9,5.7c-1.2,1.6-2.9,2.9-4.9,3.8-2,.9-4.3,1.4-6.7,1.4Z"/>
      <path d="M1745.4,172.7v6.3h-11v29.8h-6.3v-29.8h-11v-6.3h28.3Z"/>
      <path d="M1751.3,208.8v-36.1h6.3v36.1h-6.3Z"/>
      <path d="M1781.3,209.4c-2.4,0-4.7-.5-6.9-1.5s-4-2.3-5.7-4c-1.6-1.7-2.9-3.7-3.8-6-.9-2.3-1.4-4.7-1.4-7.3s.5-5,1.4-7.3c.9-2.3,2.2-4.2,3.8-6,1.6-1.7,3.5-3.1,5.7-4,2.1-1,4.4-1.5,6.9-1.5s4.8.5,6.9,1.5c2.1,1,4,2.3,5.7,4s2.9,3.7,3.8,6,1.4,4.7,1.4,7.3-.5,5-1.4,7.3c-.9,2.3-2.2,4.2-3.8,6s-3.5,3.1-5.7,4-4.4,1.5-6.9,1.5ZM1781.3,203.2c1.6,0,3.1-.3,4.5-1,1.4-.7,2.6-1.5,3.7-2.7s1.9-2.5,2.5-4c.6-1.5.9-3.1.9-4.8s-.3-3.3-.9-4.8c-.6-1.5-1.4-2.8-2.5-4-1.1-1.1-2.3-2-3.7-2.7-1.4-.7-2.9-1-4.4-1s-3.1.3-4.5,1c-1.4.7-2.6,1.5-3.7,2.7-1.1,1.1-1.9,2.5-2.5,4-.6,1.5-.9,3.1-.9,4.8s.3,3.3.9,4.8c.6,1.5,1.4,2.8,2.5,4,1.1,1.1,2.3,2,3.7,2.7,1.4.6,2.9,1,4.4,1ZM1779.7,169.9l2.1-7.4h6.3l-4.2,7.4h-4.2Z"/>
      <path d="M1803.8,208.8v-36.1h6.8l15.2,24.7v-24.7h6.3v36.1h-6.8l-15.2-24.7v24.7h-6.3Z"/>
      <path d="M1583.5,259.9v-36.1h22.6v6.3h-16.3v7.3h13v6.3h-13v9.9h16.3v6.3h-22.6Z"/>
      <path d="M1611.9,259.9v-36.1h12c2.5,0,4.8.5,7,1.4s4.1,2.2,5.7,3.9,3,3.6,3.9,5.7c.9,2.2,1.4,4.5,1.4,7s-.5,4.8-1.4,7c-.9,2.2-2.2,4.1-3.9,5.7s-3.6,3-5.7,3.9-4.5,1.4-7,1.4h-12ZM1618.2,253.6h5.7c1.6,0,3.1-.3,4.5-.9,1.4-.6,2.7-1.5,3.7-2.5s1.9-2.3,2.5-3.7c.6-1.4.9-2.9.9-4.6s-.3-3.2-.9-4.6-1.5-2.7-2.5-3.7-2.3-1.9-3.7-2.5-2.9-.9-4.5-.9h-5.7v23.5Z"/>
      <path d="M1646.9,259.9v-36.1h6.3v36.1h-6.3Z"/>
      <path d="M1687.4,223.8v6.3h-11v29.8h-6.3v-29.8h-11v-6.3h28.3Z"/>
      <path d="M1707.2,260.6c-2.4,0-4.7-.5-6.9-1.5s-4-2.3-5.7-4c-1.6-1.7-2.9-3.7-3.8-6-.9-2.3-1.4-4.7-1.4-7.3s.5-5,1.4-7.3c.9-2.3,2.2-4.2,3.8-6,1.6-1.7,3.5-3.1,5.7-4,2.1-1,4.4-1.5,6.9-1.5s4.8.5,6.9,1.5c2.1,1,4,2.3,5.7,4s2.9,3.7,3.8,6,1.4,4.7,1.4,7.3-.5,5-1.4,7.3c-.9,2.3-2.2,4.2-3.8,6s-3.5,3.1-5.7,4-4.4,1.5-6.9,1.5ZM1707.2,254.3c1.6,0,3.1-.3,4.5-1,1.4-.7,2.6-1.5,3.7-2.7s1.9-2.5,2.5-4c.6-1.5.9-3.1.9-4.8s-.3-3.3-.9-4.8c-.6-1.5-1.4-2.8-2.5-4-1.1-1.1-2.3-2-3.7-2.7-1.4-.7-2.9-1-4.4-1s-3.1.3-4.5,1c-1.4.7-2.6,1.5-3.7,2.7-1.1,1.1-1.9,2.5-2.5,4-.6,1.5-.9,3.1-.9,4.8s.3,3.3.9,4.8c.6,1.5,1.4,2.8,2.5,4,1.1,1.1,2.3,2,3.7,2.7,1.4.6,2.9,1,4.4,1Z"/>
      <path d="M1729.7,259.9v-36.1h13.8c2,0,3.7.5,5.3,1.5,1.6,1,2.8,2.3,3.8,3.9.9,1.6,1.4,3.5,1.4,5.4s-.3,3.1-.9,4.5c-.6,1.4-1.4,2.5-2.5,3.5-1.1,1-2.3,1.8-3.6,2.3l8.6,14.9h-7.2l-8.3-14.3h-4v14.3h-6.3ZM1736,239.3h6.8c.9,0,1.7-.2,2.4-.7.7-.4,1.3-1,1.8-1.8.4-.8.7-1.6.7-2.5s-.2-1.8-.7-2.5c-.4-.8-1-1.4-1.8-1.8-.7-.4-1.6-.7-2.4-.7h-6.8v10Z"/>
      <path d="M1761.3,259.9v-36.1h6.3v36.1h-6.3Z"/>
      <path d="M1786.6,223.8h7.2l13.1,36.1h-6.7l-2.3-6.4h-15.5l-2.3,6.4h-6.7l13.1-36.1ZM1784.8,247.2h10.8l-5.4-14.9-5.4,14.9Z"/>
      <path d="M1811.3,259.9v-36.1h6.3v29.8h15v6.3h-21.3Z"/>
    </g>
    <g>
      <path class="st13" d="M888.1,268.8c-6.7,0-12.9-1.3-18.8-4-5.9-2.6-11-6.3-15.5-11-4.5-4.7-7.9-10.1-10.5-16.3-2.5-6.2-3.8-12.8-3.8-19.8s1.3-13.6,3.8-19.8c2.5-6.2,6-11.6,10.5-16.3,4.5-4.7,9.6-8.4,15.5-11,5.9-2.6,12.1-4,18.8-4s13,1.3,18.8,4c5.9,2.6,11,6.3,15.5,11,4.5,4.7,7.9,10.1,10.4,16.3,2.5,6.2,3.8,12.8,3.8,19.8s-1.3,13.6-3.8,19.8c-2.5,6.2-6,11.6-10.4,16.3-4.5,4.7-9.6,8.4-15.5,11-5.9,2.6-12.1,4-18.8,4ZM888.1,251.6c4.3,0,8.4-.9,12.2-2.7,3.8-1.8,7.1-4.2,10-7.3,2.9-3.1,5.1-6.7,6.8-10.8,1.6-4.1,2.4-8.4,2.4-13.1s-.8-9-2.5-13.1c-1.6-4.1-3.9-7.7-6.8-10.8-2.9-3.1-6.2-5.5-10-7.3-3.8-1.8-7.8-2.7-12.1-2.7s-8.4.9-12.2,2.7c-3.8,1.8-7.1,4.2-10,7.3-2.9,3.1-5.1,6.7-6.8,10.8-1.6,4.1-2.4,8.4-2.4,13.1s.8,9.1,2.5,13.2c1.6,4.1,3.9,7.7,6.8,10.8,2.9,3.1,6.2,5.6,10,7.3s7.8,2.6,12.1,2.6Z"/>
      <path class="st13" d="M956.5,268.8c-3.6,0-7.1-.6-10.6-1.8s-6.6-3-9.4-5.4l11-13.2c1,.8,2.3,1.6,3.8,2.3,1.5.7,3.2,1,5.2,1s4.9-.7,7-2c2.1-1.3,3.8-3.1,5.1-5.3,1.3-2.2,1.9-4.6,1.9-7.1v-68.7h17.2v68.7c0,5.8-1.4,11-4.2,15.8-2.8,4.8-6.6,8.6-11.3,11.5-4.7,2.9-10,4.3-15.7,4.3Z"/>
      <path class="st13" d="M1040,268.8c-5.4,0-10.7-.9-15.6-2.6s-9.4-4.2-13.1-7.4c-3.8-3.2-6.4-7.1-8.1-11.6l16.1-5.9c.7,1.9,2,3.6,4,5.1,2,1.5,4.5,2.8,7.4,3.7,2.9.9,6,1.4,9.4,1.4s6.6-.5,9.6-1.6c3-1.1,5.4-2.5,7.2-4.4,1.8-1.9,2.7-4.1,2.7-6.6s-1-4.7-2.9-6.4c-1.9-1.7-4.4-3-7.4-4-3-1-6.1-1.7-9.3-2.3-7-1.1-13.2-2.7-18.8-5-5.5-2.3-9.9-5.4-13.1-9.4-3.2-4-4.8-9.1-4.8-15.5s1.7-11.2,5.1-15.6c3.4-4.5,7.9-7.9,13.5-10.4,5.6-2.5,11.6-3.7,18.1-3.7s10.6.8,15.6,2.5c5,1.7,9.4,4.1,13.2,7.4,3.8,3.2,6.5,7.1,8.1,11.7l-16.2,5.8c-.7-1.9-2-3.6-4-5.1-2-1.5-4.5-2.8-7.4-3.7-2.9-.9-6-1.4-9.4-1.4-3.3,0-6.5.5-9.5,1.6-3,1.1-5.4,2.6-7.3,4.5-1.9,1.9-2.8,4-2.8,6.5s.9,5.5,2.6,7.1c1.8,1.6,4.1,2.8,7.1,3.5,3,.7,6.2,1.4,9.8,2,6.6,1,12.6,2.8,18.2,5.2,5.6,2.4,10.1,5.7,13.4,9.7,3.4,4.1,5.1,9,5.1,14.9s-1.7,11.2-5.1,15.6c-3.4,4.5-7.9,8-13.4,10.4-5.6,2.5-11.7,3.7-18.2,3.7Z"/>
      <path class="st13" d="M1135.3,168.5l-28.6,106.3h-17.2l28.6-106.3h17.2Z"/>
      <path class="st13" d="M1195.1,268.8c-6.7,0-12.9-1.3-18.8-4-5.9-2.6-11-6.3-15.5-11-4.5-4.7-7.9-10.1-10.5-16.3-2.5-6.2-3.8-12.8-3.8-19.8s1.3-13.6,3.8-19.8c2.5-6.2,6-11.6,10.5-16.3,4.5-4.7,9.6-8.4,15.5-11,5.9-2.6,12.1-4,18.8-4s13,1.3,18.8,4c5.9,2.6,11,6.3,15.5,11,4.5,4.7,7.9,10.1,10.4,16.3,2.5,6.2,3.8,12.8,3.8,19.8s-1.3,13.6-3.8,19.8c-2.5,6.2-6,11.6-10.4,16.3-4.5,4.7-9.6,8.4-15.5,11-5.9,2.6-12.1,4-18.8,4ZM1195.1,251.6c4.3,0,8.4-.9,12.2-2.7,3.8-1.8,7.1-4.2,10-7.3,2.9-3.1,5.1-6.7,6.8-10.8,1.6-4.1,2.4-8.4,2.4-13.1s-.8-9-2.5-13.1c-1.6-4.1-3.9-7.7-6.8-10.8-2.9-3.1-6.2-5.5-10-7.3-3.8-1.8-7.8-2.7-12.1-2.7s-8.4.9-12.2,2.7c-3.8,1.8-7.1,4.2-10,7.3-2.9,3.1-5.1,6.7-6.8,10.8-1.6,4.1-2.4,8.4-2.4,13.1s.8,9.1,2.5,13.2c1.6,4.1,3.9,7.7,6.8,10.8,2.9,3.1,6.2,5.6,10,7.3s7.8,2.6,12.1,2.6Z"/>
      <path class="st13" d="M1252.9,267l19.1-98.5h14.2l24,63.1,24-63.1h14.2l19.1,98.5h-17.5l-11.8-60.9-22.2,58.7h-11.7l-22.2-58.7-11.7,60.9h-17.5Z"/>
      <path class="st13" d="M1381.7,267v-98.5h35.2c5.3,0,10.2,1.3,14.5,4,4.3,2.7,7.8,6.3,10.3,10.8,2.5,4.5,3.8,9.4,3.8,14.8s-1.3,10.5-3.9,15c-2.6,4.5-6.1,8-10.4,10.7-4.4,2.6-9.1,4-14.3,4h-18v39.2h-17.2ZM1398.9,210.6h16.2c2.4,0,4.7-.6,6.7-1.8,2-1.2,3.6-2.9,4.8-4.9,1.2-2.1,1.8-4.4,1.8-6.9s-.6-4.9-1.8-7c-1.2-2.1-2.8-3.7-4.8-4.9-2-1.2-4.2-1.8-6.7-1.8h-16.2v27.4Z"/>
    </g>
    <rect x="1506" y="158.7" width="2.7" height="119.4"/>
  </g>
  <g>
    <g class="st4">
      <rect class="st10" x="531.4" y="401.7" width="18" height="713.6" transform="translate(-180.9 169.3) rotate(-15.3)"/>
    </g>
    <g class="st2">
      <rect class="st10" x="888.8" y="381" width="22.7" height="713.4"/>
    </g>
    <path class="st11" d="M268.4,946.2c-21.6,0-43.3.2-64.9.3-8-19.9-16-39.7-24-59.6"/>
    <g>
      <path d="M115.7,773.8c-1.4,0-2.6-.3-3.6-1-1-.7-1.8-1.6-2.4-2.8s-.8-2.4-.8-3.8v-10.2h2.1v10.2c0,1,.2,1.9.6,2.8s.9,1.5,1.6,2c.7.5,1.6.7,2.6.7s1.9-.3,2.6-.8c.7-.5,1.2-1.2,1.6-2,.4-.8.5-1.8.5-2.8v-10.2h2.1v10.2c0,1.1-.2,2-.5,3s-.8,1.7-1.4,2.4c-.6.7-1.3,1.2-2.2,1.6-.8.4-1.8.6-2.8.6Z"/>
      <path d="M132,763.1h-2.8v10.4h-2.1v-10.4s-2.1,0-2.1,0v-2.1h2.1v-3.9s2.1,0,2.1,0v3.9h2.8v2.1Z"/>
      <path d="M135.2,759c-.3,0-.6-.1-.8-.3-.2-.2-.3-.5-.3-.8s.1-.6.3-.8c.2-.2.5-.3.8-.3s.6.1.8.3c.2.2.3.5.3.8s-.1.6-.3.8c-.2.2-.5.3-.8.3ZM134.1,761h2.1v12.5h-2.1v-12.5Z"/>
      <path d="M139.3,773.5v-18.7h2.1v18.7h-2.1Z"/>
      <path d="M145.5,759c-.3,0-.6-.1-.8-.3-.2-.2-.3-.5-.3-.8s.1-.6.3-.8c.2-.2.5-.3.8-.3s.6.1.8.3c.2.2.3.5.3.8s-.1.6-.3.8c-.2.2-.5.3-.8.3ZM144.4,761h2.1v12.5h-2.1v-12.5Z"/>
      <path d="M159.6,763.1l-7.7,8.3h7.7v2.1h-10.7v-2.1l7.7-8.3h-7.7v-2.1h10.7v2.1Z"/>
      <path d="M172,761h2.1v12.5h-2.1v-2.1c-.5.7-1,1.3-1.7,1.8-.7.4-1.5.7-2.5.7s-1.8-.2-2.6-.5c-.8-.3-1.5-.8-2.1-1.4-.6-.6-1.1-1.3-1.4-2.1-.3-.8-.5-1.7-.5-2.6s.2-1.7.5-2.5c.3-.8.8-1.5,1.4-2.1s1.3-1.1,2.1-1.4,1.6-.5,2.5-.5,1.8.2,2.6.7,1.3,1.1,1.8,1.8v-2.1ZM167.8,771.8c.8,0,1.5-.2,2.1-.6.6-.4,1.1-1,1.4-1.6.3-.7.5-1.5.5-2.3s-.2-1.6-.5-2.3c-.3-.7-.8-1.2-1.4-1.6-.6-.4-1.3-.6-2.1-.6s-1.6.2-2.2.6c-.7.4-1.2,1-1.6,1.6-.4.7-.6,1.5-.6,2.3s.2,1.6.6,2.3c.4.7.9,1.2,1.6,1.6.7.4,1.4.6,2.2.6Z"/>
      <path d="M190.7,773.8c-1.2,0-2.3-.2-3.3-.7-1-.5-2-1.1-2.7-2-.8-.8-1.4-1.8-1.9-2.9-.5-1.1-.7-2.3-.7-3.5s.2-2.4.7-3.5c.4-1.1,1.1-2.1,1.9-2.9.8-.8,1.7-1.5,2.7-2,1-.5,2.2-.7,3.3-.7s2.3.2,3.3.7c1,.5,2,1.1,2.7,2,.8.8,1.4,1.8,1.9,2.9s.7,2.3.7,3.5-.2,2.4-.7,3.5-1.1,2.1-1.9,2.9c-.8.8-1.7,1.5-2.7,2-1,.5-2.2.7-3.3.7ZM190.7,771.7c.9,0,1.8-.2,2.5-.5.8-.4,1.5-.9,2.1-1.5.6-.6,1.1-1.4,1.4-2.2.3-.8.5-1.7.5-2.7s-.2-1.8-.5-2.7c-.3-.8-.8-1.6-1.4-2.2-.6-.6-1.3-1.1-2.1-1.5-.8-.4-1.6-.5-2.5-.5s-1.8.2-2.5.5c-.8.4-1.5.9-2.1,1.5-.6.6-1.1,1.4-1.4,2.2-.3.8-.5,1.7-.5,2.7s.2,1.9.5,2.7c.3.8.8,1.6,1.4,2.2.6.6,1.3,1.1,2.1,1.5.8.4,1.6.5,2.5.5Z"/>
      <path d="M202.9,773.8c-.6,0-1.2,0-1.7-.3-.6-.2-1.1-.5-1.5-.9l1.3-1.6c.2.2.5.4.8.5s.7.2,1.1.2c.5,0,1-.1,1.5-.4.5-.3.8-.7,1.1-1.1s.4-1,.4-1.5v-12.6h2.1v12.6c0,.9-.2,1.8-.7,2.6-.5.8-1.1,1.4-1.8,1.9-.8.5-1.6.7-2.6.7Z"/>
      <path d="M217.1,773.8c-.9,0-1.8-.1-2.7-.4-.9-.3-1.6-.7-2.3-1.3-.7-.5-1.1-1.2-1.4-2l2-.7c.2.5.5.9.9,1.2s1,.6,1.6.8,1.3.3,1.9.3,1.4-.1,2.1-.4,1.2-.6,1.6-1,.6-1,.6-1.5-.2-1.1-.6-1.5c-.4-.4-.9-.7-1.6-.9-.6-.2-1.3-.4-2-.5-1.2-.2-2.3-.5-3.2-.9-1-.4-1.7-.9-2.3-1.6s-.8-1.5-.8-2.6.3-1.9.9-2.7,1.4-1.3,2.3-1.8,2-.6,3.1-.6,1.8.1,2.7.4,1.6.7,2.3,1.3,1.1,1.2,1.4,2l-2,.7c-.2-.5-.5-.9-.9-1.2-.5-.3-1-.6-1.6-.8-.6-.2-1.3-.3-1.9-.3-.7,0-1.4.1-2.1.4-.6.2-1.2.6-1.6,1s-.6,1-.6,1.5.2,1.2.6,1.6c.4.4.9.6,1.5.8.6.2,1.4.3,2.2.5,1.1.2,2.2.5,3.1.9,1,.4,1.7,1,2.3,1.6.6.7.9,1.5.9,2.5s-.3,1.9-.9,2.7c-.6.8-1.4,1.3-2.3,1.8-1,.4-2,.6-3.1.6Z"/>
      <path d="M231.8,768.7v-7.7h2.1v7.3c0,.6.2,1.2.5,1.7.3.5.7.9,1.2,1.2s1.1.5,1.7.5,1.2-.2,1.7-.5c.5-.3.9-.7,1.2-1.2.3-.5.5-1.1.5-1.7v-7.3h2.1v12.5s-2.1,0-2.1,0v-1.6c-.5.6-1,1-1.7,1.4-.7.3-1.4.5-2.2.5s-1.8-.2-2.6-.7c-.8-.5-1.4-1.1-1.8-1.8-.5-.8-.7-1.6-.7-2.6Z"/>
      <path d="M115.4,798.8c-1.2,0-2.3-.2-3.3-.7-1-.5-2-1.1-2.7-2-.8-.8-1.4-1.8-1.9-2.9-.5-1.1-.7-2.3-.7-3.5s.2-2.4.7-3.5c.4-1.1,1.1-2.1,1.9-2.9.8-.8,1.7-1.5,2.7-2,1-.5,2.2-.7,3.3-.7s2.3.2,3.3.7c1,.5,2,1.1,2.7,2,.8.8,1.4,1.8,1.9,2.9s.7,2.3.7,3.5-.2,2.4-.7,3.5-1.1,2.1-1.9,2.9c-.8.8-1.7,1.5-2.7,2-1,.5-2.2.7-3.3.7ZM115.4,796.7c.9,0,1.8-.2,2.5-.5.8-.4,1.5-.9,2.1-1.5.6-.6,1.1-1.4,1.4-2.2.3-.8.5-1.7.5-2.7s-.2-1.8-.5-2.7c-.3-.8-.8-1.6-1.4-2.2-.6-.6-1.3-1.1-2.1-1.5-.8-.4-1.6-.5-2.5-.5s-1.8.2-2.5.5c-.8.4-1.5.9-2.1,1.5-.6.6-1.1,1.4-1.4,2.2-.3.8-.5,1.7-.5,2.7s.2,1.9.5,2.7c.3.8.8,1.6,1.4,2.2.6.6,1.3,1.1,2.1,1.5.8.4,1.6.5,2.5.5Z"/>
      <path d="M126,798.5l3.4-17.5h1.6l4.7,12.4,4.7-12.4h1.6l3.4,17.5h-2.1l-2.5-12.7-4.4,11.7h-1.4l-4.4-11.7-2.4,12.7h-2.1Z"/>
      <path d="M148,798.5v-17.5h5.8c.9,0,1.8.2,2.5.7.8.5,1.4,1.1,1.8,1.9s.7,1.6.7,2.6-.2,1.8-.7,2.6c-.5.8-1.1,1.4-1.8,1.8s-1.6.7-2.5.7h-3.7v7.2h-2.1ZM150.1,789.2h3.5c.6,0,1.1-.1,1.6-.4.5-.3.8-.7,1.1-1.1.3-.5.4-1,.4-1.6s-.1-1.2-.4-1.6c-.3-.5-.7-.9-1.1-1.1-.5-.3-1-.4-1.6-.4h-3.5v6.4Z"/>
      <path d="M169.4,804.7h-2.1v-18.7h2.1v2.1c.4-.7,1-1.3,1.7-1.8.7-.5,1.5-.7,2.5-.7s1.8.2,2.6.5,1.5.8,2.1,1.4c.6.6,1.1,1.3,1.4,2.1.3.8.5,1.6.5,2.5s-.2,1.8-.5,2.6c-.3.8-.8,1.5-1.4,2.1-.6.6-1.3,1.1-2.1,1.4-.8.3-1.6.5-2.6.5s-1.8-.2-2.5-.7c-.7-.5-1.3-1-1.7-1.8v8.4ZM173.6,787.7c-.8,0-1.5.2-2.1.6-.6.4-1.1,1-1.4,1.6s-.5,1.4-.5,2.3.2,1.6.5,2.3c.3.7.8,1.2,1.4,1.6.6.4,1.3.6,2.1.6s1.5-.2,2.2-.6c.7-.4,1.2-.9,1.6-1.6.4-.7.6-1.5.6-2.3s-.2-1.6-.6-2.3c-.4-.7-.9-1.2-1.6-1.6-.7-.4-1.4-.6-2.2-.6Z"/>
      <path d="M192.2,786h2.1v12.5h-2.1v-2.1c-.5.7-1,1.3-1.7,1.8-.7.4-1.5.7-2.5.7s-1.8-.2-2.6-.5c-.8-.3-1.5-.8-2.1-1.4-.6-.6-1.1-1.3-1.4-2.1-.3-.8-.5-1.7-.5-2.6s.2-1.7.5-2.5c.3-.8.8-1.5,1.4-2.1s1.3-1.1,2.1-1.4,1.6-.5,2.5-.5,1.8.2,2.6.7,1.3,1.1,1.8,1.8v-2.1ZM188,796.7c.8,0,1.5-.2,2.1-.6.6-.4,1.1-1,1.4-1.6.3-.7.5-1.5.5-2.3s-.2-1.6-.5-2.3c-.3-.7-.8-1.2-1.4-1.6-.6-.4-1.3-.6-2.1-.6s-1.6.2-2.2.6c-.7.4-1.2,1-1.6,1.6-.4.7-.6,1.5-.6,2.3s.2,1.6.6,2.3c.4.7.9,1.2,1.6,1.6.7.4,1.4.6,2.2.6Z"/>
      <path d="M196.8,798.5v-12.5h2.1v1.6c.4-.6,1-1,1.7-1.4.7-.3,1.4-.5,2.2-.5s.9,0,1.4.2l-.8,2.1c-.3-.1-.7-.2-1-.2-.6,0-1.2.2-1.7.5-.5.3-.9.7-1.2,1.2-.3.5-.5,1.1-.5,1.7v7.3h-2.1Z"/>
      <path d="M215.1,786h2.1v12.5h-2.1v-2.1c-.5.7-1,1.3-1.7,1.8-.7.4-1.5.7-2.5.7s-1.8-.2-2.6-.5c-.8-.3-1.5-.8-2.1-1.4-.6-.6-1.1-1.3-1.4-2.1-.3-.8-.5-1.7-.5-2.6s.2-1.7.5-2.5c.3-.8.8-1.5,1.4-2.1s1.3-1.1,2.1-1.4,1.6-.5,2.5-.5,1.8.2,2.6.7,1.3,1.1,1.8,1.8v-2.1ZM210.9,796.7c.8,0,1.5-.2,2.1-.6.6-.4,1.1-1,1.4-1.6.3-.7.5-1.5.5-2.3s-.2-1.6-.5-2.3c-.3-.7-.8-1.2-1.4-1.6-.6-.4-1.3-.6-2.1-.6s-1.6.2-2.2.6c-.7.4-1.2,1-1.6,1.6-.4.7-.6,1.5-.6,2.3s.2,1.6.6,2.3c.4.7.9,1.2,1.6,1.6.7.4,1.4.6,2.2.6Z"/>
      <path d="M225.7,798.5v-18.7h2.1v18.7h-2.1Z"/>
      <path d="M240.7,786h2.1v12.5h-2.1v-2.1c-.5.7-1,1.3-1.7,1.8-.7.4-1.5.7-2.5.7s-1.8-.2-2.6-.5c-.8-.3-1.5-.8-2.1-1.4-.6-.6-1.1-1.3-1.4-2.1-.3-.8-.5-1.7-.5-2.6s.2-1.7.5-2.5c.3-.8.8-1.5,1.4-2.1s1.3-1.1,2.1-1.4,1.6-.5,2.5-.5,1.8.2,2.6.7,1.3,1.1,1.8,1.8v-2.1ZM236.5,796.7c.8,0,1.5-.2,2.1-.6.6-.4,1.1-1,1.4-1.6.3-.7.5-1.5.5-2.3s-.2-1.6-.5-2.3c-.3-.7-.8-1.2-1.4-1.6-.6-.4-1.3-.6-2.1-.6s-1.6.2-2.2.6c-.7.4-1.2,1-1.6,1.6-.4.7-.6,1.5-.6,2.3s.2,1.6.6,2.3c.4.7.9,1.2,1.6,1.6.7.4,1.4.6,2.2.6Z"/>
      <path d="M101.4,810.9h2.1v12.9c0,.8-.2,1.6-.5,2.3-.4.7-.8,1.3-1.4,1.9-.6.5-1.3.9-2,1.2-.8.3-1.6.4-2.4.4s-1.7-.2-2.5-.6c-.8-.4-1.5-.9-2.1-1.5-.6-.6-1-1.4-1.3-2.2l1.9-.9c.2.6.4,1.1.9,1.6s.9.8,1.4,1.1c.6.3,1.1.4,1.7.4s1.1,0,1.6-.3c.5-.2,1-.5,1.4-.8.4-.3.7-.7,1-1.2.2-.5.4-.9.4-1.5v-2.5c-.4.7-1,1.3-1.7,1.7s-1.5.7-2.4.7-1.7-.2-2.5-.5c-.8-.3-1.5-.8-2-1.4-.6-.6-1-1.3-1.4-2.1s-.5-1.6-.5-2.5.2-1.8.5-2.6.8-1.5,1.4-2.1c.6-.6,1.3-1.1,2-1.4.8-.3,1.6-.5,2.5-.5s1.7.2,2.4.7,1.3,1,1.7,1.7v-2.1ZM97.3,821.7c.8,0,1.5-.2,2.1-.6.6-.4,1.1-1,1.4-1.7.3-.7.5-1.4.5-2.2s-.2-1.6-.5-2.3c-.3-.7-.8-1.2-1.4-1.6-.6-.4-1.3-.6-2.1-.6s-1.5.2-2.1.6-1.2,1-1.5,1.6c-.4.7-.6,1.5-.6,2.3s.2,1.6.6,2.3c.4.7.9,1.2,1.5,1.6.6.4,1.4.6,2.1.6Z"/>
      <path d="M111.8,823.8c-1.1,0-2.2-.3-3.1-.9-.9-.6-1.7-1.4-2.3-2.4-.6-1-.8-2.1-.8-3.3s.2-1.8.5-2.6.8-1.5,1.3-2.1,1.2-1.1,2-1.4c.8-.3,1.6-.5,2.4-.5s1.8.2,2.6.6c.8.4,1.5.9,2,1.6.6.7,1,1.5,1.3,2.3s.4,1.8.3,2.9h-10.2c.1.7.3,1.3.7,1.9.4.6.8,1,1.4,1.3.6.3,1.2.5,1.9.5.8,0,1.4-.2,2-.6.6-.4,1.1-.9,1.5-1.6l2.1.5c-.5,1.1-1.3,2-2.3,2.7-1,.7-2.1,1.1-3.4,1.1ZM107.8,816.3h8.1c0-.7-.3-1.3-.7-1.9-.4-.6-.9-1-1.5-1.4-.6-.3-1.2-.5-1.9-.5s-1.3.2-1.9.5c-.6.3-1.1.8-1.4,1.4-.4.6-.6,1.2-.7,1.9Z"/>
      <path d="M124,823.7c-.7,0-1.3-.2-2-.4s-1.2-.5-1.7-.9-.8-.9-1-1.4l1.8-.8c.1.3.3.5.7.8.3.2.7.5,1.1.6.4.1.9.2,1.3.2s.9,0,1.3-.2c.4-.1.7-.4,1-.6.3-.3.4-.6.4-1s-.1-.7-.4-1-.6-.4-1-.6c-.4-.1-.8-.3-1.3-.4-.9-.2-1.6-.5-2.3-.8-.7-.3-1.2-.7-1.6-1.2-.4-.5-.6-1.1-.6-1.8s.2-1.4.6-2c.4-.6,1-1,1.7-1.3.7-.3,1.4-.5,2.2-.5s1.9.2,2.8.6c.8.4,1.5,1,1.9,1.8l-1.7,1c-.1-.3-.4-.6-.6-.8-.3-.2-.6-.4-1-.5-.4-.1-.8-.2-1.1-.2-.5,0-.9,0-1.4.2-.4.1-.8.4-1,.6-.3.3-.4.6-.4,1.1s.1.7.4.9c.3.2.6.4,1.1.5.4.1.9.3,1.4.4.8.2,1.5.5,2.1.8.7.3,1.2.7,1.6,1.2.4.5.6,1.1.6,1.8,0,.8-.2,1.4-.7,2-.5.6-1.1,1-1.8,1.3s-1.5.4-2.3.4Z"/>
      <path d="M137.4,813h-2.8v10.4h-2.1v-10.4s-2.1,0-2.1,0v-2.1h2.1v-3.9s2.1,0,2.1,0v3.9h2.8v2.1Z"/>
      <path d="M140.6,808.9c-.3,0-.6-.1-.8-.3-.2-.2-.3-.5-.3-.8s.1-.6.3-.8c.2-.2.5-.3.8-.3s.6.1.8.3c.2.2.3.5.3.8s-.1.6-.3.8c-.2.2-.5.3-.8.3ZM139.5,810.9h2.1v12.5h-2.1v-12.5Z"/>
      <path d="M150,823.8c-1.1,0-2.2-.3-3.1-.9-.9-.6-1.7-1.4-2.3-2.4-.6-1-.8-2.1-.8-3.3s.2-1.8.5-2.6.8-1.5,1.3-2.1,1.2-1.1,2-1.4c.8-.3,1.6-.5,2.4-.5s2.2.3,3.1.9c.9.6,1.7,1.4,2.3,2.4.6,1,.8,2.1.8,3.3s-.2,1.8-.5,2.5c-.3.8-.8,1.5-1.3,2.1s-1.2,1.1-2,1.4c-.8.3-1.6.5-2.4.5ZM150,821.7c.8,0,1.5-.2,2.1-.6.6-.4,1.1-1,1.5-1.6.4-.7.5-1.4.5-2.2s-.2-1.6-.6-2.2c-.4-.7-.9-1.2-1.5-1.6-.6-.4-1.3-.6-2.1-.6s-1.5.2-2.1.6-1.1,1-1.5,1.6-.5,1.4-.5,2.2.2,1.6.6,2.3.9,1.2,1.5,1.6,1.3.6,2.1.6ZM149.4,809.6l1-3.6h2.1l-1.7,3.6h-1.4Z"/>
      <path d="M169.3,815.7v7.8h-2.1v-7.3c0-.6-.2-1.2-.5-1.7-.3-.5-.7-.9-1.2-1.2-.5-.3-1.1-.5-1.7-.5s-1.2.2-1.7.5c-.5.3-.9.7-1.2,1.2-.3.5-.5,1.1-.5,1.7v7.3h-2.1v-12.5h2.1v1.6c.4-.6,1-1,1.7-1.4.7-.3,1.4-.5,2.2-.5s1.8.2,2.6.7c.8.5,1.4,1.1,1.8,1.8.5.8.7,1.6.7,2.6Z"/>
      <path d="M187.9,804.7h2.1v18.7h-2.1v-2.1c-.4.7-1,1.3-1.7,1.8s-1.6.7-2.5.7-1.8-.2-2.5-.5c-.8-.3-1.5-.8-2.1-1.4s-1.1-1.3-1.4-2.1c-.3-.8-.5-1.6-.5-2.5s.2-1.8.5-2.6c.3-.8.8-1.5,1.4-2.1.6-.6,1.3-1.1,2.1-1.4.8-.3,1.6-.5,2.5-.5s1.8.2,2.5.7c.7.5,1.3,1,1.7,1.8v-8.4ZM183.7,821.7c.8,0,1.5-.2,2.1-.6.6-.4,1.1-1,1.4-1.6.3-.7.5-1.5.5-2.3s-.2-1.6-.5-2.3c-.3-.7-.8-1.2-1.4-1.6-.6-.4-1.3-.6-2.1-.6s-1.6.2-2.2.6-1.2,1-1.6,1.6c-.4.7-.6,1.5-.6,2.3s.2,1.6.6,2.3c.4.7.9,1.2,1.6,1.6.7.4,1.4.6,2.2.6Z"/>
      <path d="M198.4,823.8c-1.1,0-2.2-.3-3.1-.9-.9-.6-1.7-1.4-2.3-2.4-.6-1-.8-2.1-.8-3.3s.2-1.8.5-2.6.8-1.5,1.3-2.1,1.2-1.1,2-1.4c.8-.3,1.6-.5,2.4-.5s1.8.2,2.6.6c.8.4,1.5.9,2,1.6.6.7,1,1.5,1.3,2.3s.4,1.8.3,2.9h-10.2c.1.7.3,1.3.7,1.9.4.6.8,1,1.4,1.3.6.3,1.2.5,1.9.5.8,0,1.4-.2,2-.6.6-.4,1.1-.9,1.5-1.6l2.1.5c-.5,1.1-1.3,2-2.3,2.7-1,.7-2.1,1.1-3.4,1.1ZM194.3,816.3h8.1c0-.7-.3-1.3-.7-1.9-.4-.6-.9-1-1.5-1.4-.6-.3-1.2-.5-1.9-.5s-1.3.2-1.9.5c-.6.3-1.1.8-1.4,1.4-.4.6-.6,1.2-.7,1.9Z"/>
      <path d="M219.3,813h-2.8v10.4h-2.1v-10.4s-2.1,0-2.1,0v-2.1h2.1v-3.9s2.1,0,2.1,0v3.9h2.8v2.1Z"/>
      <path d="M221,818.7v-7.7h2.1v7.3c0,.6.2,1.2.5,1.7.3.5.7.9,1.2,1.2s1.1.5,1.7.5,1.2-.2,1.7-.5c.5-.3.9-.7,1.2-1.2.3-.5.5-1.1.5-1.7v-7.3h2.1v12.5s-2.1,0-2.1,0v-1.6c-.5.6-1,1-1.7,1.4-.7.3-1.4.5-2.2.5s-1.8-.2-2.6-.7c-.8-.5-1.4-1.1-1.8-1.8-.5-.8-.7-1.6-.7-2.6Z"/>
      <path d="M238.4,823.7c-.7,0-1.3-.2-2-.4s-1.2-.5-1.7-.9-.8-.9-1-1.4l1.8-.8c.1.3.3.5.7.8.3.2.7.5,1.1.6.4.1.9.2,1.3.2s.9,0,1.3-.2c.4-.1.7-.4,1-.6.3-.3.4-.6.4-1s-.1-.7-.4-1-.6-.4-1-.6c-.4-.1-.8-.3-1.3-.4-.9-.2-1.6-.5-2.3-.8-.7-.3-1.2-.7-1.6-1.2-.4-.5-.6-1.1-.6-1.8s.2-1.4.6-2c.4-.6,1-1,1.7-1.3.7-.3,1.4-.5,2.2-.5s1.9.2,2.8.6c.8.4,1.5,1,1.9,1.8l-1.7,1c-.1-.3-.4-.6-.6-.8-.3-.2-.6-.4-1-.5-.4-.1-.8-.2-1.1-.2-.5,0-.9,0-1.4.2-.4.1-.8.4-1,.6-.3.3-.4.6-.4,1.1s.1.7.4.9c.3.2.6.4,1.1.5.4.1.9.3,1.4.4.8.2,1.5.5,2.1.8.7.3,1.2.7,1.6,1.2.4.5.6,1.1.6,1.8,0,.8-.2,1.4-.7,2-.5.6-1.1,1-1.8,1.3s-1.5.4-2.3.4Z"/>
      <path d="M149.3,854.6h-3v-18.7h3v1.6c.4-.6.9-1,1.5-1.4.6-.4,1.3-.5,2.1-.5s1.8.2,2.6.5,1.5.8,2.1,1.4c.6.6,1.1,1.3,1.4,2.1.3.8.5,1.6.5,2.5s-.2,1.8-.5,2.6c-.3.8-.8,1.5-1.4,2.1-.6.6-1.3,1.1-2.1,1.4-.8.3-1.6.5-2.6.5s-1.5-.2-2.1-.5c-.6-.4-1.1-.8-1.5-1.4v7.8ZM152.9,838.5c-.6,0-1.2.2-1.7.5-.5.3-.9.8-1.2,1.3s-.4,1.2-.4,1.8.1,1.3.4,1.8c.3.6.7,1,1.2,1.3.5.3,1.1.5,1.7.5s1.2-.2,1.8-.5c.5-.3,1-.8,1.3-1.3s.5-1.2.5-1.8-.2-1.3-.5-1.8-.7-1-1.3-1.3c-.5-.3-1.1-.5-1.8-.5Z"/>
      <path d="M161.5,848.4v-12.5s3,0,3,0v1.1c.4-.4.9-.8,1.5-1.1.6-.3,1.2-.4,1.9-.4s.9,0,1.4.2l-1.2,3.1c-.3-.1-.6-.2-.9-.2-.5,0-.9.1-1.3.4-.4.2-.7.6-1,1-.2.4-.4.9-.4,1.3v7.1h-3Z"/>
      <path d="M175.6,848.7c-1.1,0-2.2-.3-3.1-.9-.9-.6-1.7-1.4-2.3-2.4-.6-1-.8-2.1-.8-3.3s.2-1.8.5-2.6.8-1.5,1.3-2.1,1.2-1.1,2-1.4c.8-.3,1.6-.5,2.4-.5s2.2.3,3.1.9c.9.6,1.7,1.4,2.3,2.4.6,1,.8,2.1.8,3.3s-.2,1.8-.5,2.5c-.3.8-.8,1.5-1.3,2.1s-1.2,1.1-2,1.4c-.8.3-1.6.5-2.4.5ZM175.6,845.7c.6,0,1.2-.2,1.6-.5.5-.3.9-.8,1.1-1.3.3-.5.4-1.1.4-1.7s-.1-1.2-.4-1.8-.7-1-1.2-1.3c-.5-.3-1-.5-1.6-.5s-1.1.2-1.6.5c-.5.3-.9.8-1.1,1.3s-.4,1.1-.4,1.8.1,1.3.4,1.8c.3.5.7,1,1.2,1.3.5.3,1,.5,1.6.5Z"/>
      <path d="M191.6,844.6l2.7,1.5c-.6.8-1.3,1.4-2.2,1.9s-1.8.7-2.8.7-2.2-.3-3.1-.9c-.9-.6-1.7-1.4-2.3-2.4-.6-1-.8-2.1-.8-3.3s.2-1.8.5-2.6.8-1.5,1.3-2.1,1.2-1.1,2-1.4c.8-.3,1.6-.5,2.4-.5s2,.2,2.8.7,1.6,1.1,2.2,1.9l-2.7,1.5c-.3-.3-.6-.6-1-.8-.4-.2-.8-.3-1.2-.3-.6,0-1.1.2-1.6.5-.5.3-.9.8-1.1,1.3s-.4,1.1-.4,1.8.1,1.2.4,1.7.7,1,1.1,1.3c.5.3,1,.5,1.6.5s.8,0,1.2-.3c.4-.2.7-.4,1-.8Z"/>
      <path d="M201.7,848.7c-1.1,0-2.2-.3-3.1-.9-.9-.6-1.7-1.4-2.3-2.4-.6-1-.8-2.1-.8-3.3s.2-1.8.5-2.6.8-1.5,1.3-2.1,1.2-1.1,2-1.4c.8-.3,1.6-.5,2.4-.5s1.9.2,2.7.6,1.5,1,2.1,1.7c.6.7,1,1.5,1.2,2.4.3.9.3,1.9.2,2.9h-9.1c.1.5.3.9.6,1.3.3.4.6.7,1,.9.4.2.9.3,1.4.3.5,0,1-.1,1.5-.4.4-.3.8-.6,1.1-1.1l3.1.7c-.5,1.1-1.3,2-2.3,2.7-1,.7-2.1,1.1-3.4,1.1ZM198.6,840.9h6.1c0-.5-.3-1-.6-1.4-.3-.4-.7-.7-1.1-1-.4-.2-.9-.4-1.4-.4s-1,.1-1.4.4-.8.6-1.1,1c-.3.4-.5.9-.6,1.4Z"/>
      <path d="M213.7,848.6c-.6,0-1.3-.2-1.9-.4-.6-.2-1.1-.5-1.6-.9-.5-.4-.8-.8-1.1-1.4l2.6-1.1c0,.2.3.3.5.5.2.2.5.3.8.5.3.1.7.2,1,.2s.6,0,.9-.1c.3,0,.5-.2.7-.4.2-.2.3-.4.3-.7s-.1-.5-.3-.7c-.2-.2-.5-.3-.8-.4-.3,0-.6-.2-.9-.2-.8-.2-1.5-.4-2.2-.7s-1.2-.8-1.6-1.3c-.4-.5-.6-1.2-.6-1.9s.2-1.5.7-2.1c.4-.6,1-1.1,1.7-1.4.7-.3,1.5-.5,2.3-.5s1.9.2,2.7.6,1.5,1,2,1.7l-2.4,1.4c-.1-.2-.3-.4-.5-.6-.2-.2-.4-.3-.7-.4-.3-.1-.5-.2-.8-.2-.4,0-.7,0-1,0-.3,0-.6.2-.7.4-.2.2-.3.5-.3.8s.1.6.4.7.6.3.9.4c.4,0,.7.2,1,.3.7.2,1.4.5,2.1.9s1.2.8,1.6,1.3.6,1.1.6,1.8c0,.8-.2,1.5-.7,2.1-.5.6-1.1,1.1-1.9,1.4-.8.3-1.6.4-2.4.4Z"/>
      <path d="M226.2,848.7c-1.1,0-2.2-.3-3.1-.9-.9-.6-1.7-1.4-2.3-2.4-.6-1-.8-2.1-.8-3.3s.2-1.8.5-2.6.8-1.5,1.3-2.1,1.2-1.1,2-1.4c.8-.3,1.6-.5,2.4-.5s2.2.3,3.1.9c.9.6,1.7,1.4,2.3,2.4.6,1,.8,2.1.8,3.3s-.2,1.8-.5,2.5c-.3.8-.8,1.5-1.3,2.1s-1.2,1.1-2,1.4c-.8.3-1.6.5-2.4.5ZM226.2,845.7c.6,0,1.2-.2,1.6-.5.5-.3.9-.8,1.1-1.3.3-.5.4-1.1.4-1.7s-.1-1.2-.4-1.8-.7-1-1.2-1.3c-.5-.3-1-.5-1.6-.5s-1.1.2-1.6.5c-.5.3-.9.8-1.1,1.3s-.4,1.1-.4,1.8.1,1.3.4,1.8c.3.5.7,1,1.2,1.3.5.3,1,.5,1.6.5Z"/>
      <path d="M238.2,848.6c-.6,0-1.3-.2-1.9-.4-.6-.2-1.1-.5-1.6-.9-.5-.4-.8-.8-1.1-1.4l2.6-1.1c0,.2.3.3.5.5.2.2.5.3.8.5.3.1.7.2,1,.2s.6,0,.9-.1c.3,0,.5-.2.7-.4.2-.2.3-.4.3-.7s-.1-.5-.3-.7c-.2-.2-.5-.3-.8-.4-.3,0-.6-.2-.9-.2-.8-.2-1.5-.4-2.2-.7s-1.2-.8-1.6-1.3c-.4-.5-.6-1.2-.6-1.9s.2-1.5.7-2.1c.4-.6,1-1.1,1.7-1.4.7-.3,1.5-.5,2.3-.5s1.9.2,2.7.6,1.5,1,2,1.7l-2.4,1.4c-.1-.2-.3-.4-.5-.6-.2-.2-.4-.3-.7-.4-.3-.1-.5-.2-.8-.2-.4,0-.7,0-1,0-.3,0-.6.2-.7.4-.2.2-.3.5-.3.8s.1.6.4.7.6.3.9.4c.4,0,.7.2,1,.3.7.2,1.4.5,2.1.9s1.2.8,1.6,1.3.6,1.1.6,1.8c0,.8-.2,1.5-.7,2.1-.5.6-1.1,1.1-1.9,1.4-.8.3-1.6.4-2.4.4Z"/>
      <path d="M132.7,873.7c-1.1,0-2.2-.3-3.1-.9-.9-.6-1.7-1.4-2.3-2.4-.6-1-.8-2.1-.8-3.3s.2-1.8.5-2.6.8-1.5,1.3-2.1,1.2-1.1,2-1.4c.8-.3,1.6-.5,2.4-.5s1.9.2,2.7.6,1.5,1,2.1,1.7c.6.7,1,1.5,1.2,2.4.3.9.3,1.9.2,2.9h-9.1c.1.5.3.9.6,1.3.3.4.6.7,1,.9.4.2.9.3,1.4.3.5,0,1-.1,1.5-.4.4-.3.8-.6,1.1-1.1l3.1.7c-.5,1.1-1.3,2-2.3,2.7-1,.7-2.1,1.1-3.4,1.1ZM129.6,865.9h6.1c0-.5-.3-1-.6-1.4-.3-.4-.7-.7-1.1-1-.4-.2-.9-.4-1.4-.4s-1,.1-1.4.4-.8.6-1.1,1c-.3.4-.5.9-.6,1.4Z"/>
      <path d="M150.4,854.6h3v18.7h-3v-1.6c-.4.6-.9,1-1.5,1.4-.6.3-1.3.5-2.1.5s-1.8-.2-2.5-.5c-.8-.3-1.5-.8-2.1-1.4s-1.1-1.3-1.4-2.1c-.3-.8-.5-1.6-.5-2.5s.2-1.8.5-2.5c.3-.8.8-1.5,1.4-2.1.6-.6,1.3-1.1,2.1-1.4s1.6-.5,2.5-.5,1.5.2,2.1.5c.6.3,1.1.8,1.5,1.4v-7.8ZM146.8,870.8c.6,0,1.2-.2,1.7-.5.5-.3.9-.8,1.2-1.3.3-.6.4-1.2.4-1.8s-.1-1.3-.4-1.8-.7-1-1.2-1.3c-.5-.3-1.1-.5-1.7-.5s-1.2.2-1.8.5c-.5.3-.9.8-1.3,1.3-.3.5-.5,1.2-.5,1.8s.2,1.3.5,1.8.7,1,1.3,1.3c.5.3,1.1.5,1.7.5Z"/>
      <path d="M158,859.3c-.4,0-.8-.1-1.1-.4-.3-.3-.5-.7-.5-1.1s.2-.8.5-1.1c.3-.3.7-.5,1.1-.5s.8.2,1.1.5.5.7.5,1.1-.2.8-.5,1.1c-.3.3-.7.4-1.1.4ZM156.4,860.9h3v12.5h-3v-12.5Z"/>
      <path d="M169.2,863.9h-2.4v9.4h-3v-9.4h-1.8v-3h1.8v-3.9h3v3.9h2.4v3Z"/>
      <path d="M176.6,873.7c-1.1,0-2.2-.3-3.1-.9-.9-.6-1.7-1.4-2.3-2.4-.6-1-.8-2.1-.8-3.3s.2-1.8.5-2.6.8-1.5,1.3-2.1,1.2-1.1,2-1.4c.8-.3,1.6-.5,2.4-.5s2.2.3,3.1.9c.9.6,1.7,1.4,2.3,2.4.6,1,.8,2.1.8,3.3s-.2,1.8-.5,2.5c-.3.8-.8,1.5-1.3,2.1s-1.2,1.1-2,1.4c-.8.3-1.6.5-2.4.5ZM176.6,870.7c.6,0,1.2-.2,1.6-.5.5-.3.9-.8,1.1-1.3.3-.5.4-1.1.4-1.7s-.1-1.2-.4-1.8-.7-1-1.2-1.3c-.5-.3-1-.5-1.6-.5s-1.1.2-1.6.5c-.5.3-.9.8-1.1,1.3s-.4,1.1-.4,1.8.1,1.3.4,1.8c.3.5.7,1,1.2,1.3.5.3,1,.5,1.6.5Z"/>
      <path d="M184.8,873.4v-12.5s3,0,3,0v1.1c.4-.4.9-.8,1.5-1.1.6-.3,1.2-.4,1.9-.4s.9,0,1.4.2l-1.2,3.1c-.3-.1-.6-.2-.9-.2-.5,0-.9.1-1.3.4-.4.2-.7.6-1,1-.2.4-.4.9-.4,1.3v7.1h-3Z"/>
      <path d="M195.6,859.3c-.4,0-.8-.1-1.1-.4-.3-.3-.5-.7-.5-1.1s.2-.8.5-1.1c.3-.3.7-.5,1.1-.5s.8.2,1.1.5.5.7.5,1.1-.2.8-.5,1.1c-.3.3-.7.4-1.1.4ZM194.1,860.9h3v12.5h-3v-12.5Z"/>
      <path d="M209.2,860.9h3v12.5h-3v-1.5c-.5.6-.9,1-1.5,1.4-.6.3-1.2.5-2,.5s-1.8-.2-2.6-.5-1.5-.8-2.1-1.4c-.6-.6-1.1-1.3-1.4-2.1s-.5-1.7-.5-2.6.2-1.7.5-2.5c.3-.8.8-1.5,1.4-2.1.6-.6,1.3-1.1,2-1.4s1.6-.5,2.5-.5,1.6.2,2.2.5,1.2.8,1.7,1.4v-1.6ZM205.7,870.8c.6,0,1.2-.2,1.7-.5.5-.3.9-.8,1.2-1.3.3-.6.4-1.2.4-1.8s-.1-1.3-.4-1.8-.7-1-1.2-1.3c-.5-.3-1.1-.5-1.7-.5s-1.2.2-1.8.5c-.5.3-.9.8-1.3,1.3-.3.5-.5,1.2-.5,1.8s.2,1.3.5,1.8.7,1,1.3,1.3c.5.3,1.1.5,1.7.5Z"/>
      <path d="M214.8,873.4v-18.7h3v18.7h-3Z"/>
      <path d="M226.2,873.7c-1.1,0-2.2-.3-3.1-.9-.9-.6-1.7-1.4-2.3-2.4-.6-1-.8-2.1-.8-3.3s.2-1.8.5-2.6.8-1.5,1.3-2.1,1.2-1.1,2-1.4c.8-.3,1.6-.5,2.4-.5s1.9.2,2.7.6,1.5,1,2.1,1.7c.6.7,1,1.5,1.2,2.4.3.9.3,1.9.2,2.9h-9.1c.1.5.3.9.6,1.3.3.4.6.7,1,.9.4.2.9.3,1.4.3.5,0,1-.1,1.5-.4.4-.3.8-.6,1.1-1.1l3.1.7c-.5,1.1-1.3,2-2.3,2.7-1,.7-2.1,1.1-3.4,1.1ZM223.1,865.9h6.1c0-.5-.3-1-.6-1.4-.3-.4-.7-.7-1.1-1-.4-.2-.9-.4-1.4-.4s-1,.1-1.4.4-.8.6-1.1,1c-.3.4-.5.9-.6,1.4Z"/>
      <path d="M238.2,873.6c-.6,0-1.3-.2-1.9-.4-.6-.2-1.1-.5-1.6-.9-.5-.4-.8-.8-1.1-1.4l2.6-1.1c0,.2.3.3.5.5.2.2.5.3.8.5.3.1.7.2,1,.2s.6,0,.9-.1c.3,0,.5-.2.7-.4.2-.2.3-.4.3-.7s-.1-.5-.3-.7c-.2-.2-.5-.3-.8-.4-.3,0-.6-.2-.9-.2-.8-.2-1.5-.4-2.2-.7s-1.2-.8-1.6-1.3c-.4-.5-.6-1.2-.6-1.9s.2-1.5.7-2.1c.4-.6,1-1.1,1.7-1.4.7-.3,1.5-.5,2.3-.5s1.9.2,2.7.6,1.5,1,2,1.7l-2.4,1.4c-.1-.2-.3-.4-.5-.6-.2-.2-.4-.3-.7-.4-.3-.1-.5-.2-.8-.2-.4,0-.7,0-1,0-.3,0-.6.2-.7.4-.2.2-.3.5-.3.8s.1.6.4.7.6.3.9.4c.4,0,.7.2,1,.3.7.2,1.4.5,2.1.9s1.2.8,1.6,1.3.6,1.1.6,1.8c0,.8-.2,1.5-.7,2.1-.5.6-1.1,1.1-1.9,1.4-.8.3-1.6.4-2.4.4Z"/>
    </g>
    <g class="st5">
      <rect class="st10" x="441.2" y="380.2" width="21.7" height="711.7"/>
    </g>
    <rect class="st13" x="284" y="367.1" width="163.8" height="724.8"/>
    <rect class="st0" x="899.8" y="373.8" width="163.8" height="720.6"/>
    <g class="st3">
      <rect class="st10" x="1280.7" y="380.3" width="22.7" height="713.7"/>
    </g>
    <rect class="st9" x="1291.7" y="372.9" width="163.8" height="721.1"/>
    <rect class="st12" x="544.2" y="369.1" width="163.8" height="751.6" transform="translate(-174.3 191.5) rotate(-15.3)"/>
    <text class="st6" transform="translate(384.4 992.3) rotate(-90)"><tspan x="0" y="0">IMPLEMENTACIÓN</tspan></text>
    <text class="st8" transform="translate(707.6 954.7) rotate(-105.3)"><tspan x="0" y="0">ACTUALIZACIÓN</tspan></text>
    <g class="st1">
      <rect class="st10" x="1540.1" y="391" width="18" height="721.5" transform="translate(-143.4 435.1) rotate(-15.3)"/>
    </g>
    <rect class="st13" x="1554" y="361.9" width="172.2" height="768.4" transform="translate(-138.7 458.9) rotate(-15.3)"/>
    <text class="st8" transform="translate(1700.6 998.7) rotate(-105.3)"><tspan x="0" y="0">VISUALIZACIÓN DE</tspan><tspan x="0" y="62.4">DATOS</tspan></text>
    <path class="st11" d="M674,578.7h65.3c8-19.9,16.1-39.7,24.1-59.6"/>
    <g>
      <path d="M707.6,381.7v-17.5h5.8c1.2,0,2.3.2,3.4.7,1.1.5,2,1.1,2.8,1.9.8.8,1.4,1.7,1.9,2.8s.7,2.2.7,3.4-.2,2.3-.7,3.4-1.1,2-1.9,2.8c-.8.8-1.7,1.4-2.8,1.9-1.1.5-2.2.7-3.4.7h-5.8ZM709.7,379.7h3.7c.9,0,1.8-.2,2.6-.5.8-.3,1.5-.8,2.1-1.4.6-.6,1.1-1.3,1.4-2.1.3-.8.5-1.7.5-2.6s-.2-1.8-.5-2.6c-.3-.8-.8-1.5-1.4-2.1-.6-.6-1.3-1.1-2.1-1.4-.8-.3-1.7-.5-2.6-.5h-3.7v13.3Z"/>
      <path d="M725.3,367.2c-.3,0-.6-.1-.8-.3-.2-.2-.3-.5-.3-.8s.1-.6.3-.8c.2-.2.5-.3.8-.3s.6.1.8.3c.2.2.3.5.3.8s-.1.6-.3.8c-.2.2-.5.3-.8.3ZM724.3,369.3h2.1v12.5h-2.1v-12.5Z"/>
      <path d="M733.1,382c-.7,0-1.3-.2-2-.4s-1.2-.5-1.7-.9-.8-.9-1-1.4l1.8-.8c.1.3.3.5.7.8.3.2.7.4,1.1.6.4.1.9.2,1.3.2s.9,0,1.3-.2c.4-.1.7-.4,1-.6.3-.3.4-.6.4-1s-.1-.7-.4-1-.6-.4-1-.6c-.4-.1-.8-.3-1.3-.4-.9-.2-1.6-.5-2.3-.8-.7-.3-1.2-.7-1.6-1.2-.4-.5-.6-1.1-.6-1.8s.2-1.4.6-2c.4-.6,1-1,1.7-1.3.7-.3,1.4-.5,2.2-.5s1.9.2,2.8.6c.8.4,1.5,1,1.9,1.8l-1.7,1c-.1-.3-.4-.6-.6-.8-.3-.2-.6-.4-1-.5-.4-.1-.8-.2-1.1-.2-.5,0-.9,0-1.4.2-.4.1-.8.4-1,.6-.3.3-.4.6-.4,1.1s.1.7.4.9c.3.2.6.4,1.1.5.4.1.9.3,1.4.4.8.2,1.5.5,2.1.8.7.3,1.2.7,1.6,1.2.4.5.6,1.1.6,1.8,0,.8-.2,1.4-.7,2s-1.1,1-1.8,1.3c-.7.3-1.5.4-2.3.4Z"/>
      <path d="M742.9,366.2v3.1h3.7v2.1h-3.7v10.4h-2.1v-10.4h-1.6v-2.1h1.6v-3.1c0-.6.2-1.2.5-1.7.3-.5.7-.9,1.3-1.2.5-.3,1.1-.5,1.7-.5s.9,0,1.4.3c.4.2.8.5,1.2.8l-1.5,1.5c-.1-.2-.3-.3-.5-.4s-.4-.1-.6-.1c-.4,0-.7.1-1,.4-.3.3-.4.6-.4,1Z"/>
      <path d="M748.8,381.7v-12.5h2.1v1.6c.4-.6,1-1,1.7-1.4.7-.3,1.4-.5,2.2-.5s.9,0,1.4.2l-.8,2.1c-.3-.1-.7-.2-1-.2-.6,0-1.2.2-1.7.5-.5.3-.9.7-1.2,1.2s-.5,1.1-.5,1.7v7.3h-2.1Z"/>
      <path d="M757.2,377v-7.7h2.1v7.3c0,.6.2,1.2.5,1.7.3.5.7.9,1.2,1.2.5.3,1.1.5,1.7.5s1.2-.2,1.7-.5c.5-.3.9-.7,1.2-1.2.3-.5.5-1.1.5-1.7v-7.3h2.1v12.5s-2.1,0-2.1,0v-1.6c-.5.6-1,1-1.7,1.4-.7.3-1.4.5-2.2.5s-1.8-.2-2.6-.7c-.8-.5-1.4-1.1-1.8-1.8-.5-.8-.7-1.6-.7-2.6Z"/>
      <path d="M777.2,371.4h-2.8v10.4h-2.1v-10.4s-2.1,0-2.1,0v-2.1h2.1v-3.9s2.1,0,2.1,0v3.9h2.8v2.1Z"/>
      <path d="M789.2,369.3h2.1v12.5h-2.1v-2.1c-.5.7-1,1.3-1.7,1.8-.7.4-1.5.7-2.5.7s-1.8-.2-2.6-.5c-.8-.3-1.5-.8-2.1-1.4-.6-.6-1.1-1.3-1.4-2.1-.3-.8-.5-1.7-.5-2.6s.2-1.7.5-2.5.8-1.5,1.4-2.1c.6-.6,1.3-1.1,2.1-1.4.8-.3,1.6-.5,2.5-.5s1.8.2,2.6.7c.7.5,1.3,1.1,1.8,1.8v-2.1ZM785,380c.8,0,1.5-.2,2.1-.6s1.1-1,1.4-1.6c.3-.7.5-1.5.5-2.3s-.2-1.6-.5-2.3c-.3-.7-.8-1.2-1.4-1.6-.6-.4-1.3-.6-2.1-.6s-1.6.2-2.2.6c-.7.4-1.2,1-1.6,1.6s-.6,1.5-.6,2.3.2,1.6.6,2.3c.4.7.9,1.2,1.6,1.6.7.4,1.4.6,2.2.6Z"/>
      <path d="M809.8,363h2.1v18.7h-2.1v-2.1c-.4.7-1,1.3-1.7,1.8s-1.6.7-2.5.7-1.8-.2-2.5-.5-1.5-.8-2.1-1.4c-.6-.6-1.1-1.3-1.4-2.1-.3-.8-.5-1.6-.5-2.5s.2-1.8.5-2.6c.3-.8.8-1.5,1.4-2.1s1.3-1.1,2.1-1.4,1.6-.5,2.5-.5,1.8.2,2.5.7c.7.4,1.3,1,1.7,1.8v-8.4ZM805.6,380c.8,0,1.5-.2,2.1-.6s1.1-1,1.4-1.6c.3-.7.5-1.5.5-2.3s-.2-1.6-.5-2.3c-.3-.7-.8-1.2-1.4-1.6-.6-.4-1.3-.6-2.1-.6s-1.6.2-2.2.6c-.7.4-1.2,1-1.6,1.6-.4.7-.6,1.5-.6,2.3s.2,1.6.6,2.3c.4.7.9,1.2,1.6,1.6.7.4,1.4.6,2.2.6Z"/>
      <path d="M820.3,382.1c-1.1,0-2.2-.3-3.1-.9-.9-.6-1.7-1.4-2.3-2.4-.6-1-.8-2.1-.8-3.3s.2-1.8.5-2.6c.3-.8.8-1.5,1.3-2.1.6-.6,1.2-1.1,2-1.4.8-.3,1.6-.5,2.4-.5s1.8.2,2.6.6c.8.4,1.5.9,2,1.6.6.7,1,1.5,1.3,2.3.3.9.4,1.8.3,2.9h-10.2c.1.7.3,1.3.7,1.9s.8,1,1.4,1.3,1.2.5,1.9.5c.8,0,1.4-.2,2-.6.6-.4,1.1-.9,1.5-1.6l2.1.5c-.5,1.1-1.3,2-2.3,2.7-1,.7-2.1,1.1-3.4,1.1ZM816.2,374.6h8.1c0-.7-.3-1.3-.7-1.9-.4-.6-.9-1-1.5-1.4-.6-.4-1.2-.5-1.9-.5s-1.3.2-1.9.5-1.1.8-1.4,1.4-.6,1.2-.7,1.9Z"/>
      <path d="M834.7,381.7v-18.7h2.1v18.7h-2.1Z"/>
      <path d="M845.2,382.1c-1.1,0-2.2-.3-3.1-.9-.9-.6-1.7-1.4-2.3-2.4-.6-1-.8-2.1-.8-3.3s.2-1.8.5-2.6c.3-.8.8-1.5,1.3-2.1.6-.6,1.2-1.1,2-1.4.8-.3,1.6-.5,2.4-.5s2.2.3,3.1.9c.9.6,1.7,1.4,2.3,2.4.6,1,.8,2.1.8,3.3s-.2,1.8-.5,2.5c-.3.8-.8,1.5-1.3,2.1-.6.6-1.2,1.1-2,1.4-.8.3-1.6.5-2.4.5ZM845.2,380c.8,0,1.5-.2,2.1-.6.6-.4,1.1-1,1.5-1.6.4-.7.5-1.4.5-2.2s-.2-1.6-.6-2.2c-.4-.7-.9-1.2-1.5-1.6-.6-.4-1.3-.6-2.1-.6s-1.5.2-2.1.6-1.1,1-1.5,1.6-.5,1.4-.5,2.2.2,1.6.6,2.3c.4.7.9,1.2,1.5,1.6.6.4,1.3.6,2.1.6Z"/>
      <path d="M857.4,382c-.7,0-1.3-.2-2-.4s-1.2-.5-1.7-.9-.8-.9-1-1.4l1.8-.8c.1.3.3.5.7.8.3.2.7.4,1.1.6.4.1.9.2,1.3.2s.9,0,1.3-.2c.4-.1.7-.4,1-.6.3-.3.4-.6.4-1s-.1-.7-.4-1-.6-.4-1-.6c-.4-.1-.8-.3-1.3-.4-.9-.2-1.6-.5-2.3-.8-.7-.3-1.2-.7-1.6-1.2-.4-.5-.6-1.1-.6-1.8s.2-1.4.6-2c.4-.6,1-1,1.7-1.3.7-.3,1.4-.5,2.2-.5s1.9.2,2.8.6c.8.4,1.5,1,1.9,1.8l-1.7,1c-.1-.3-.4-.6-.6-.8-.3-.2-.6-.4-1-.5-.4-.1-.8-.2-1.1-.2-.5,0-.9,0-1.4.2-.4.1-.8.4-1,.6-.3.3-.4.6-.4,1.1s.1.7.4.9c.3.2.6.4,1.1.5.4.1.9.3,1.4.4.8.2,1.5.5,2.1.8.7.3,1.2.7,1.6,1.2.4.5.6,1.1.6,1.8,0,.8-.2,1.4-.7,2s-1.1,1-1.8,1.3c-.7.3-1.5.4-2.3.4Z"/>
      <path d="M714.3,397.7c1.2,0,2.3.3,3.3.9s1.8,1.4,2.4,2.4c.6,1,.9,2.1.9,3.3s-.2,1.8-.5,2.6c-.3.8-.8,1.5-1.4,2.1-.6.6-1.3,1.1-2.1,1.4-.8.3-1.7.5-2.6.5s-1.5-.2-2.1-.5c-.6-.4-1.1-.8-1.5-1.4v1.6h-3v-18.7h3v7.8c.4-.6.9-1,1.5-1.4.6-.4,1.3-.5,2.1-.5ZM714.2,407.9c.6,0,1.2-.2,1.8-.5.5-.3,1-.8,1.3-1.3.3-.5.5-1.2.5-1.8s-.2-1.3-.5-1.8-.7-1-1.3-1.3c-.5-.3-1.1-.5-1.8-.5s-1.2.2-1.7.5c-.5.3-.9.8-1.2,1.3s-.4,1.2-.4,1.8.1,1.3.4,1.8c.3.6.7,1,1.2,1.3.5.3,1.1.5,1.7.5Z"/>
      <path d="M728.3,410.9c-1.1,0-2.2-.3-3.1-.9-.9-.6-1.7-1.4-2.3-2.4-.6-1-.8-2.1-.8-3.3s.2-1.8.5-2.6c.3-.8.8-1.5,1.3-2.1.6-.6,1.2-1.1,2-1.4.8-.3,1.6-.5,2.4-.5s1.9.2,2.7.6,1.5,1,2.1,1.7c.6.7,1,1.5,1.2,2.4.3.9.3,1.9.2,2.9h-9.1c.1.5.3.9.6,1.3.3.4.6.7,1,.9.4.2.9.3,1.4.3.5,0,1-.1,1.5-.4s.8-.6,1.1-1.1l3.1.7c-.5,1.1-1.3,2-2.3,2.7-1,.7-2.1,1.1-3.4,1.1ZM725.3,403.1h6.1c0-.5-.3-1-.6-1.4-.3-.4-.7-.7-1.1-1-.4-.2-.9-.4-1.4-.4s-1,.1-1.4.4c-.4.2-.8.6-1.1,1-.3.4-.5.9-.6,1.4Z"/>
      <path d="M748,402.7v7.9h-3v-7.1c0-.5-.1-.9-.4-1.3-.2-.4-.6-.7-1-1-.4-.2-.9-.4-1.3-.4s-.9.1-1.3.4c-.4.2-.7.6-1,1-.2.4-.4.9-.4,1.3v7.1h-3v-12.5s3,0,3,0v1.1c.4-.4.9-.8,1.5-1.1.6-.3,1.2-.4,1.9-.4s1.7.2,2.5.7c.7.4,1.3,1,1.8,1.8s.7,1.6.7,2.5Z"/>
      <path d="M755.7,410.9c-1.1,0-2.2-.3-3.1-.9-.9-.6-1.7-1.4-2.3-2.4-.6-1-.8-2.1-.8-3.3s.2-1.8.5-2.6c.3-.8.8-1.5,1.3-2.1.6-.6,1.2-1.1,2-1.4.8-.3,1.6-.5,2.4-.5s1.9.2,2.7.6,1.5,1,2.1,1.7c.6.7,1,1.5,1.2,2.4.3.9.3,1.9.2,2.9h-9.1c.1.5.3.9.6,1.3.3.4.6.7,1,.9.4.2.9.3,1.4.3.5,0,1-.1,1.5-.4s.8-.6,1.1-1.1l3.1.7c-.5,1.1-1.3,2-2.3,2.7-1,.7-2.1,1.1-3.4,1.1ZM752.6,403.1h6.1c0-.5-.3-1-.6-1.4-.3-.4-.7-.7-1.1-1-.4-.2-.9-.4-1.4-.4s-1,.1-1.4.4c-.4.2-.8.6-1.1,1-.3.4-.5.9-.6,1.4Z"/>
      <path d="M767.7,395.5v2.6h3.4v3h-3.4v9.4h-3v-9.4h-1.4v-3h1.4v-2.6c0-.7.2-1.4.5-2,.4-.6.8-1.1,1.4-1.4.6-.4,1.3-.5,2-.5s1,.1,1.6.3c.5.2,1,.5,1.4,1l-2.2,2.1c0-.1-.2-.2-.3-.3-.1,0-.3-.1-.4-.1-.2,0-.5,0-.6.3-.2.2-.3.4-.3.6Z"/>
      <path d="M774.7,396.5c-.4,0-.8-.1-1.1-.4-.3-.3-.5-.7-.5-1.1s.2-.8.5-1.1c.3-.3.7-.4,1.1-.4s.8.1,1.1.4c.3.3.5.7.5,1.1s-.2.8-.5,1.1-.7.4-1.1.4ZM773.1,398.1h3v12.5h-3v-12.5Z"/>
      <path d="M786.6,406.8l2.7,1.5c-.6.8-1.3,1.4-2.2,1.9s-1.8.7-2.8.7-2.2-.3-3.1-.9c-.9-.6-1.7-1.4-2.3-2.4-.6-1-.8-2.1-.8-3.3s.2-1.8.5-2.6c.3-.8.8-1.5,1.3-2.1.6-.6,1.2-1.1,2-1.4.8-.3,1.6-.5,2.4-.5s2,.2,2.8.7,1.6,1.1,2.2,1.9l-2.7,1.5c-.3-.3-.6-.6-1-.8s-.8-.3-1.2-.3c-.6,0-1.1.2-1.6.5-.5.3-.9.8-1.1,1.3-.3.5-.4,1.1-.4,1.8s.1,1.2.4,1.7.7,1,1.1,1.3c.5.3,1,.5,1.6.5s.8,0,1.2-.3.7-.4,1-.8Z"/>
      <path d="M792.7,396.5c-.4,0-.8-.1-1.1-.4-.3-.3-.5-.7-.5-1.1s.2-.8.5-1.1c.3-.3.7-.4,1.1-.4s.8.1,1.1.4c.3.3.5.7.5,1.1s-.2.8-.5,1.1-.7.4-1.1.4ZM791.1,398.1h3v12.5h-3v-12.5Z"/>
      <path d="M802.4,410.9c-1.1,0-2.2-.3-3.1-.9-.9-.6-1.7-1.4-2.3-2.4-.6-1-.8-2.1-.8-3.3s.2-1.8.5-2.6c.3-.8.8-1.5,1.3-2.1.6-.6,1.2-1.1,2-1.4.8-.3,1.6-.5,2.4-.5s2.2.3,3.1.9c.9.6,1.7,1.4,2.3,2.4.6,1,.8,2.1.8,3.3s-.2,1.8-.5,2.5c-.3.8-.8,1.5-1.3,2.1-.6.6-1.2,1.1-2,1.4-.8.3-1.6.5-2.4.5ZM802.4,407.8c.6,0,1.2-.2,1.6-.5.5-.3.9-.8,1.1-1.3.3-.5.4-1.1.4-1.7s-.1-1.2-.4-1.8c-.3-.5-.7-1-1.2-1.3-.5-.3-1-.5-1.6-.5s-1.1.2-1.6.5c-.5.3-.9.8-1.1,1.3s-.4,1.1-.4,1.8.1,1.3.4,1.8c.3.5.7,1,1.2,1.3.5.3,1,.5,1.6.5Z"/>
      <path d="M814.4,410.8c-.6,0-1.3-.2-1.9-.4-.6-.2-1.1-.5-1.6-.9-.5-.4-.8-.8-1.1-1.4l2.6-1.1c0,.2.3.3.5.5.2.2.5.3.8.5.3.1.7.2,1,.2s.6,0,.9-.1c.3,0,.5-.2.7-.4.2-.2.3-.4.3-.7s-.1-.5-.3-.7c-.2-.2-.5-.3-.8-.4s-.6-.2-.9-.2c-.8-.2-1.5-.4-2.2-.7-.7-.3-1.2-.8-1.6-1.3-.4-.5-.6-1.2-.6-1.9s.2-1.5.7-2.1c.4-.6,1-1.1,1.7-1.4.7-.3,1.5-.5,2.3-.5s1.9.2,2.7.6,1.5,1,2,1.7l-2.4,1.4c-.1-.2-.3-.4-.5-.6-.2-.2-.4-.3-.7-.4-.3-.1-.5-.2-.8-.2-.4,0-.7,0-1,0-.3,0-.6.2-.7.4-.2.2-.3.5-.3.8s.1.6.4.7c.2.2.6.3.9.4.4,0,.7.2,1,.3.7.2,1.4.5,2.1.9.6.4,1.2.8,1.6,1.3s.6,1.1.6,1.8c0,.8-.2,1.5-.7,2.1-.5.6-1.1,1.1-1.9,1.4s-1.6.4-2.4.4Z"/>
      <path d="M717.1,420.7h3v18.7h-3v-1.6c-.4.6-.9,1-1.5,1.4-.6.3-1.3.5-2.1.5s-1.8-.2-2.5-.5-1.5-.8-2.1-1.4c-.6-.6-1.1-1.3-1.4-2.1-.3-.8-.5-1.6-.5-2.5s.2-1.8.5-2.5c.3-.8.8-1.5,1.4-2.1s1.3-1.1,2.1-1.4,1.6-.5,2.5-.5,1.5.2,2.1.5c.6.3,1.1.8,1.5,1.4v-7.8ZM713.5,436.8c.6,0,1.2-.2,1.7-.5.5-.3.9-.8,1.2-1.3s.4-1.2.4-1.8-.1-1.3-.4-1.8-.7-1-1.2-1.3c-.5-.3-1.1-.5-1.7-.5s-1.2.2-1.8.5c-.5.3-.9.8-1.3,1.3-.3.5-.5,1.2-.5,1.8s.2,1.3.5,1.8c.3.5.7,1,1.3,1.3s1.1.5,1.7.5Z"/>
      <path d="M728.4,439.7c-1.1,0-2.2-.3-3.1-.9-.9-.6-1.7-1.4-2.3-2.4-.6-1-.8-2.1-.8-3.3s.2-1.8.5-2.6c.3-.8.8-1.5,1.3-2.1.6-.6,1.2-1.1,2-1.4.8-.3,1.6-.5,2.4-.5s1.9.2,2.7.6,1.5,1,2.1,1.7c.6.7,1,1.5,1.2,2.4.3.9.3,1.9.2,2.9h-9.1c.1.5.3.9.6,1.3.3.4.6.7,1,.9.4.2.9.3,1.4.3.5,0,1-.1,1.5-.4s.8-.6,1.1-1.1l3.1.7c-.5,1.1-1.3,2-2.3,2.7-1,.7-2.1,1.1-3.4,1.1ZM725.3,431.9h6.1c0-.5-.3-1-.6-1.4-.3-.4-.7-.7-1.1-1-.4-.2-.9-.4-1.4-.4s-1,.1-1.4.4c-.4.2-.8.6-1.1,1-.3.4-.5.9-.6,1.4Z"/>
      <path d="M742.9,439.4v-18.7h3v18.7h-3Z"/>
      <path d="M758.2,426.9h3v12.5h-3v-1.5c-.5.6-.9,1-1.5,1.4-.6.3-1.2.5-2,.5s-1.8-.2-2.6-.5-1.5-.8-2.1-1.4c-.6-.6-1.1-1.3-1.4-2.1s-.5-1.7-.5-2.6.2-1.7.5-2.5c.3-.8.8-1.5,1.4-2.1.6-.6,1.3-1.1,2-1.4s1.6-.5,2.5-.5,1.6.2,2.2.5c.7.4,1.2.8,1.7,1.4v-1.6ZM754.6,436.8c.6,0,1.2-.2,1.7-.5.5-.3.9-.8,1.2-1.3s.4-1.2.4-1.8-.1-1.3-.4-1.8-.7-1-1.2-1.3c-.5-.3-1.1-.5-1.7-.5s-1.2.2-1.8.5c-.5.3-.9.8-1.3,1.3-.3.5-.5,1.2-.5,1.8s.2,1.3.5,1.8c.3.5.7,1,1.3,1.3s1.1.5,1.7.5Z"/>
      <path d="M767.4,439.6c-.6,0-1.3-.2-1.9-.4-.6-.2-1.1-.5-1.6-.9-.5-.4-.8-.8-1.1-1.4l2.6-1.1c0,.2.3.3.5.5.2.2.5.3.8.5.3.1.7.2,1,.2s.6,0,.9-.1c.3,0,.5-.2.7-.4.2-.2.3-.4.3-.7s-.1-.5-.3-.7c-.2-.2-.5-.3-.8-.4s-.6-.2-.9-.2c-.8-.2-1.5-.4-2.2-.7-.7-.3-1.2-.8-1.6-1.3-.4-.5-.6-1.2-.6-1.9s.2-1.5.7-2.1c.4-.6,1-1.1,1.7-1.4.7-.3,1.5-.5,2.3-.5s1.9.2,2.7.6,1.5,1,2,1.7l-2.4,1.4c-.1-.2-.3-.4-.5-.6-.2-.2-.4-.3-.7-.4-.3-.1-.5-.2-.8-.2-.4,0-.7,0-1,0-.3,0-.6.2-.7.4-.2.2-.3.5-.3.8s.1.6.4.7c.2.2.6.3.9.4.4,0,.7.2,1,.3.7.2,1.4.5,2.1.9.6.4,1.2.8,1.6,1.3s.6,1.1.6,1.8c0,.8-.2,1.5-.7,2.1-.5.6-1.1,1.1-1.9,1.4s-1.6.4-2.4.4Z"/>
      <path d="M792,431.5v7.9h-3v-7.1c0-.5-.1-.9-.4-1.3-.2-.4-.6-.7-1-1-.4-.2-.9-.4-1.3-.4s-.9.1-1.3.4c-.4.2-.7.6-1,1-.2.4-.4.9-.4,1.3v7.1h-3v-12.5s3,0,3,0v1.1c.4-.4.9-.8,1.5-1.1.6-.3,1.2-.4,1.9-.4s1.7.2,2.5.7c.7.4,1.3,1,1.8,1.8s.7,1.6.7,2.5Z"/>
      <path d="M794,434.8v-7.9h3v7.1c0,.5.1.9.4,1.3.2.4.6.7,1,1,.4.2.8.4,1.3.4s.9-.1,1.3-.4.7-.6,1-1c.2-.4.4-.9.4-1.3v-7.1h3v12.5s-3,0-3,0v-1.1c-.4.4-1,.8-1.5,1.1-.6.3-1.2.4-1.9.4s-1.7-.2-2.5-.7c-.7-.4-1.3-1-1.8-1.8-.4-.7-.7-1.6-.7-2.5Z"/>
      <path d="M813.2,439.7c-1.1,0-2.2-.3-3.1-.9-.9-.6-1.7-1.4-2.3-2.4-.6-1-.8-2.1-.8-3.3s.2-1.8.5-2.6c.3-.8.8-1.5,1.3-2.1.6-.6,1.2-1.1,2-1.4.8-.3,1.6-.5,2.4-.5s1.9.2,2.7.6,1.5,1,2.1,1.7c.6.7,1,1.5,1.2,2.4.3.9.3,1.9.2,2.9h-9.1c.1.5.3.9.6,1.3.3.4.6.7,1,.9.4.2.9.3,1.4.3.5,0,1-.1,1.5-.4s.8-.6,1.1-1.1l3.1.7c-.5,1.1-1.3,2-2.3,2.7-1,.7-2.1,1.1-3.4,1.1ZM810.2,431.9h6.1c0-.5-.3-1-.6-1.4-.3-.4-.7-.7-1.1-1-.4-.2-.9-.4-1.4-.4s-1,.1-1.4.4c-.4.2-.8.6-1.1,1-.3.4-.5.9-.6,1.4Z"/>
      <path d="M828.5,439.4h-3.9l-4.5-12.5h3.2l3.3,9,3.3-9h3.2l-4.5,12.5Z"/>
      <path d="M843.9,426.9h3v12.5h-3v-1.5c-.5.6-.9,1-1.5,1.4-.6.3-1.2.5-2,.5s-1.8-.2-2.6-.5-1.5-.8-2.1-1.4c-.6-.6-1.1-1.3-1.4-2.1s-.5-1.7-.5-2.6.2-1.7.5-2.5c.3-.8.8-1.5,1.4-2.1.6-.6,1.3-1.1,2-1.4s1.6-.5,2.5-.5,1.6.2,2.2.5c.7.4,1.2.8,1.7,1.4v-1.6ZM840.3,436.8c.6,0,1.2-.2,1.7-.5.5-.3.9-.8,1.2-1.3s.4-1.2.4-1.8-.1-1.3-.4-1.8-.7-1-1.2-1.3c-.5-.3-1.1-.5-1.7-.5s-1.2.2-1.8.5c-.5.3-.9.8-1.3,1.3-.3.5-.5,1.2-.5,1.8s.2,1.3.5,1.8c.3.5.7,1,1.3,1.3s1.1.5,1.7.5Z"/>
      <path d="M853.1,439.6c-.6,0-1.3-.2-1.9-.4-.6-.2-1.1-.5-1.6-.9-.5-.4-.8-.8-1.1-1.4l2.6-1.1c0,.2.3.3.5.5.2.2.5.3.8.5.3.1.7.2,1,.2s.6,0,.9-.1c.3,0,.5-.2.7-.4.2-.2.3-.4.3-.7s-.1-.5-.3-.7c-.2-.2-.5-.3-.8-.4s-.6-.2-.9-.2c-.8-.2-1.5-.4-2.2-.7-.7-.3-1.2-.8-1.6-1.3-.4-.5-.6-1.2-.6-1.9s.2-1.5.7-2.1c.4-.6,1-1.1,1.7-1.4.7-.3,1.5-.5,2.3-.5s1.9.2,2.7.6,1.5,1,2,1.7l-2.4,1.4c-.1-.2-.3-.4-.5-.6-.2-.2-.4-.3-.7-.4-.3-.1-.5-.2-.8-.2-.4,0-.7,0-1,0-.3,0-.6.2-.7.4-.2.2-.3.5-.3.8s.1.6.4.7c.2.2.6.3.9.4.4,0,.7.2,1,.3.7.2,1.4.5,2.1.9.6.4,1.2.8,1.6,1.3s.6,1.1.6,1.8c0,.8-.2,1.5-.7,2.1-.5.6-1.1,1.1-1.9,1.4s-1.6.4-2.4.4Z"/>
      <path d="M715.3,468.2h-3.9l-4.5-12.5h3.2l3.3,9,3.3-9h3.2l-4.5,12.5Z"/>
      <path d="M726.7,468.5c-1.1,0-2.2-.3-3.1-.9-.9-.6-1.7-1.4-2.3-2.4-.6-1-.8-2.1-.8-3.3s.2-1.8.5-2.6c.3-.8.8-1.5,1.3-2.1.6-.6,1.2-1.1,2-1.4.8-.3,1.6-.5,2.4-.5s1.9.2,2.7.6,1.5,1,2.1,1.7c.6.7,1,1.5,1.2,2.4.3.9.3,1.9.2,2.9h-9.1c.1.5.3.9.6,1.3.3.4.6.7,1,.9.4.2.9.3,1.4.3.5,0,1-.1,1.5-.4s.8-.6,1.1-1.1l3.1.7c-.5,1.1-1.3,2-2.3,2.7-1,.7-2.1,1.1-3.4,1.1ZM723.7,460.7h6.1c0-.5-.3-1-.6-1.4-.3-.4-.7-.7-1.1-1-.4-.2-.9-.4-1.4-.4s-1,.1-1.4.4c-.4.2-.8.6-1.1,1-.3.4-.5.9-.6,1.4Z"/>
      <path d="M734.9,468.2v-12.5s3,0,3,0v1.1c.4-.4.9-.8,1.5-1.1.6-.3,1.2-.4,1.9-.4s.9,0,1.4.2l-1.2,3.1c-.3-.1-.6-.2-.9-.2-.5,0-.9.1-1.3.4-.4.2-.7.6-1,1-.2.4-.4.9-.4,1.3v7.1h-3Z"/>
      <path d="M747.8,468.4c-.6,0-1.3-.2-1.9-.4-.6-.2-1.1-.5-1.6-.9-.5-.4-.8-.8-1.1-1.4l2.6-1.1c0,.2.3.3.5.5.2.2.5.3.8.5.3.1.7.2,1,.2s.6,0,.9-.1c.3,0,.5-.2.7-.4.2-.2.3-.4.3-.7s-.1-.5-.3-.7c-.2-.2-.5-.3-.8-.4s-.6-.2-.9-.2c-.8-.2-1.5-.4-2.2-.7-.7-.3-1.2-.8-1.6-1.3-.4-.5-.6-1.2-.6-1.9s.2-1.5.7-2.1c.4-.6,1-1.1,1.7-1.4.7-.3,1.5-.5,2.3-.5s1.9.2,2.7.6,1.5,1,2,1.7l-2.4,1.4c-.1-.2-.3-.4-.5-.6-.2-.2-.4-.3-.7-.4-.3-.1-.5-.2-.8-.2-.4,0-.7,0-1,0-.3,0-.6.2-.7.4-.2.2-.3.5-.3.8s.1.6.4.7c.2.2.6.3.9.4.4,0,.7.2,1,.3.7.2,1.4.5,2.1.9.6.4,1.2.8,1.6,1.3s.6,1.1.6,1.8c0,.8-.2,1.5-.7,2.1-.5.6-1.1,1.1-1.9,1.4s-1.6.4-2.4.4Z"/>
      <path d="M756.3,454.1c-.4,0-.8-.1-1.1-.4-.3-.3-.5-.7-.5-1.1s.2-.8.5-1.1c.3-.3.7-.4,1.1-.4s.8.1,1.1.4c.3.3.5.7.5,1.1s-.2.8-.5,1.1-.7.4-1.1.4ZM754.7,455.7h3v12.5h-3v-12.5Z"/>
      <path d="M766,468.5c-1.1,0-2.2-.3-3.1-.9-.9-.6-1.7-1.4-2.3-2.4-.6-1-.8-2.1-.8-3.3s.2-1.8.5-2.6c.3-.8.8-1.5,1.3-2.1.6-.6,1.2-1.1,2-1.4.8-.3,1.6-.5,2.4-.5s2.2.3,3.1.9c.9.6,1.7,1.4,2.3,2.4.6,1,.8,2.1.8,3.3s-.2,1.8-.5,2.5c-.3.8-.8,1.5-1.3,2.1-.6.6-1.2,1.1-2,1.4-.8.3-1.6.5-2.4.5ZM766,465.5c.6,0,1.2-.2,1.6-.5.5-.3.9-.8,1.1-1.3.3-.5.4-1.1.4-1.7s-.1-1.2-.4-1.8c-.3-.5-.7-1-1.2-1.3-.5-.3-1-.5-1.6-.5s-1.1.2-1.6.5c-.5.3-.9.8-1.1,1.3s-.4,1.1-.4,1.8.1,1.3.4,1.8c.3.5.7,1,1.2,1.3.5.3,1,.5,1.6.5Z"/>
      <path d="M785.6,460.3v7.9h-3v-7.1c0-.5-.1-.9-.4-1.3-.2-.4-.6-.7-1-1-.4-.2-.9-.4-1.3-.4s-.9.1-1.3.4c-.4.2-.7.6-1,1-.2.4-.4.9-.4,1.3v7.1h-3v-12.5s3,0,3,0v1.1c.4-.4.9-.8,1.5-1.1.6-.3,1.2-.4,1.9-.4s1.7.2,2.5.7c.7.4,1.3,1,1.8,1.8s.7,1.6.7,2.5Z"/>
      <path d="M793.4,468.5c-1.1,0-2.2-.3-3.1-.9-.9-.6-1.7-1.4-2.3-2.4-.6-1-.8-2.1-.8-3.3s.2-1.8.5-2.6c.3-.8.8-1.5,1.3-2.1.6-.6,1.2-1.1,2-1.4.8-.3,1.6-.5,2.4-.5s1.9.2,2.7.6,1.5,1,2.1,1.7c.6.7,1,1.5,1.2,2.4.3.9.3,1.9.2,2.9h-9.1c.1.5.3.9.6,1.3.3.4.6.7,1,.9.4.2.9.3,1.4.3.5,0,1-.1,1.5-.4s.8-.6,1.1-1.1l3.1.7c-.5,1.1-1.3,2-2.3,2.7-1,.7-2.1,1.1-3.4,1.1ZM790.3,460.7h6.1c0-.5-.3-1-.6-1.4-.3-.4-.7-.7-1.1-1-.4-.2-.9-.4-1.4-.4s-1,.1-1.4.4c-.4.2-.8.6-1.1,1-.3.4-.5.9-.6,1.4Z"/>
      <path d="M805.3,468.4c-.6,0-1.3-.2-1.9-.4-.6-.2-1.1-.5-1.6-.9-.5-.4-.8-.8-1.1-1.4l2.6-1.1c0,.2.3.3.5.5.2.2.5.3.8.5.3.1.7.2,1,.2s.6,0,.9-.1c.3,0,.5-.2.7-.4.2-.2.3-.4.3-.7s-.1-.5-.3-.7c-.2-.2-.5-.3-.8-.4s-.6-.2-.9-.2c-.8-.2-1.5-.4-2.2-.7-.7-.3-1.2-.8-1.6-1.3-.4-.5-.6-1.2-.6-1.9s.2-1.5.7-2.1c.4-.6,1-1.1,1.7-1.4.7-.3,1.5-.5,2.3-.5s1.9.2,2.7.6,1.5,1,2,1.7l-2.4,1.4c-.1-.2-.3-.4-.5-.6-.2-.2-.4-.3-.7-.4-.3-.1-.5-.2-.8-.2-.4,0-.7,0-1,0-.3,0-.6.2-.7.4-.2.2-.3.5-.3.8s.1.6.4.7c.2.2.6.3.9.4.4,0,.7.2,1,.3.7.2,1.4.5,2.1.9.6.4,1.2.8,1.6,1.3s.6,1.1.6,1.8c0,.8-.2,1.5-.7,2.1-.5.6-1.1,1.1-1.9,1.4s-1.6.4-2.4.4Z"/>
      <path d="M828.6,449.5h2.1v18.7h-2.1v-2.1c-.4.7-1,1.3-1.7,1.8s-1.6.7-2.5.7-1.8-.2-2.5-.5-1.5-.8-2.1-1.4c-.6-.6-1.1-1.3-1.4-2.1-.3-.8-.5-1.6-.5-2.5s.2-1.8.5-2.6c.3-.8.8-1.5,1.4-2.1s1.3-1.1,2.1-1.4,1.6-.5,2.5-.5,1.8.2,2.5.7c.7.4,1.3,1,1.7,1.8v-8.4ZM824.4,466.5c.8,0,1.5-.2,2.1-.6s1.1-1,1.4-1.6c.3-.7.5-1.5.5-2.3s-.2-1.6-.5-2.3c-.3-.7-.8-1.2-1.4-1.6-.6-.4-1.3-.6-2.1-.6s-1.6.2-2.2.6c-.7.4-1.2,1-1.6,1.6-.4.7-.6,1.5-.6,2.3s.2,1.6.6,2.3c.4.7.9,1.2,1.6,1.6.7.4,1.4.6,2.2.6Z"/>
      <path d="M839,468.5c-1.1,0-2.2-.3-3.1-.9-.9-.6-1.7-1.4-2.3-2.4-.6-1-.8-2.1-.8-3.3s.2-1.8.5-2.6c.3-.8.8-1.5,1.3-2.1.6-.6,1.2-1.1,2-1.4.8-.3,1.6-.5,2.4-.5s1.8.2,2.6.6c.8.4,1.5.9,2,1.6.6.7,1,1.5,1.3,2.3.3.9.4,1.8.3,2.9h-10.2c.1.7.3,1.3.7,1.9s.8,1,1.4,1.3,1.2.5,1.9.5c.8,0,1.4-.2,2-.6.6-.4,1.1-.9,1.5-1.6l2.1.5c-.5,1.1-1.3,2-2.3,2.7-1,.7-2.1,1.1-3.4,1.1ZM835,461.1h8.1c0-.7-.3-1.3-.7-1.9-.4-.6-.9-1-1.5-1.4-.6-.4-1.2-.5-1.9-.5s-1.3.2-1.9.5-1.1.8-1.4,1.4-.6,1.2-.7,1.9Z"/>
      <path d="M715.7,497.3c-1.2,0-2.3-.2-3.3-.7-1-.5-2-1.1-2.7-2-.8-.8-1.4-1.8-1.9-2.9-.5-1.1-.7-2.3-.7-3.5s.2-2.4.7-3.5c.4-1.1,1.1-2.1,1.9-2.9.8-.8,1.7-1.5,2.7-2,1-.5,2.2-.7,3.3-.7s2.3.2,3.3.7c1,.5,2,1.1,2.7,2,.8.8,1.4,1.8,1.9,2.9.4,1.1.7,2.3.7,3.5s-.2,2.4-.7,3.5c-.4,1.1-1.1,2.1-1.9,2.9-.8.8-1.7,1.5-2.7,2-1,.5-2.2.7-3.3.7ZM715.7,495.3c.9,0,1.8-.2,2.5-.5s1.5-.9,2.1-1.5c.6-.6,1.1-1.4,1.4-2.2.3-.8.5-1.7.5-2.7s-.2-1.8-.5-2.7c-.3-.8-.8-1.6-1.4-2.2-.6-.6-1.3-1.1-2.1-1.5-.8-.4-1.6-.5-2.5-.5s-1.8.2-2.5.5c-.8.4-1.5.9-2.1,1.5-.6.6-1.1,1.4-1.4,2.2-.3.8-.5,1.7-.5,2.7s.2,1.9.5,2.7c.3.8.8,1.6,1.4,2.2.6.6,1.3,1.1,2.1,1.5.8.4,1.6.5,2.5.5Z"/>
      <path d="M727.9,497.3c-.6,0-1.2,0-1.7-.3-.6-.2-1.1-.5-1.5-.9l1.3-1.6c.2.2.5.4.8.5s.7.2,1.1.2c.5,0,1-.1,1.5-.4.5-.3.8-.7,1.1-1.1s.4-1,.4-1.5v-12.6h2.1v12.6c0,.9-.2,1.8-.7,2.6-.5.8-1.1,1.4-1.8,1.9-.8.5-1.6.7-2.6.7Z"/>
      <path d="M742.1,497.3c-.9,0-1.8-.1-2.7-.4s-1.6-.7-2.3-1.3c-.7-.5-1.1-1.2-1.4-2l2-.7c.2.5.5.9.9,1.2.5.3,1,.6,1.6.8s1.3.3,1.9.3,1.4-.1,2.1-.4,1.2-.6,1.6-1,.6-1,.6-1.5-.2-1.1-.6-1.5c-.4-.4-.9-.7-1.6-.9-.6-.2-1.3-.4-2-.5-1.2-.2-2.3-.5-3.2-.9-1-.4-1.7-.9-2.3-1.6-.6-.7-.8-1.5-.8-2.6s.3-1.9.9-2.7c.6-.8,1.4-1.3,2.3-1.8s2-.6,3.1-.6,1.8.1,2.7.4c.9.3,1.6.7,2.3,1.3.7.5,1.1,1.2,1.4,2l-2,.7c-.2-.5-.5-.9-.9-1.2-.5-.3-1-.6-1.6-.8-.6-.2-1.3-.3-1.9-.3-.7,0-1.4.1-2.1.4-.6.2-1.2.6-1.6,1s-.6,1-.6,1.5.2,1.2.6,1.6c.4.4.9.6,1.5.8.6.2,1.4.3,2.2.5,1.1.2,2.2.5,3.1.9,1,.4,1.7,1,2.3,1.6.6.7.9,1.5.9,2.5s-.3,1.9-.9,2.7c-.6.8-1.4,1.3-2.3,1.8-1,.4-2,.6-3.1.6Z"/>
      <path d="M765.8,484.5h2.2l-6.8,18.7h-2.2l2.3-6.2-4.5-12.5h2.3l3.2,9.6,3.5-9.6Z"/>
      <path d="M784.7,497.3c-1.2,0-2.3-.2-3.3-.7-1-.5-2-1.1-2.7-2-.8-.8-1.4-1.8-1.9-2.9-.5-1.1-.7-2.3-.7-3.5s.2-2.4.7-3.5c.4-1.1,1.1-2.1,1.9-2.9.8-.8,1.7-1.5,2.7-2,1-.5,2.2-.7,3.3-.7s2.3.2,3.3.7c1,.5,2,1.1,2.7,2,.8.8,1.4,1.8,1.9,2.9.4,1.1.7,2.3.7,3.5s-.2,2.4-.7,3.5c-.4,1.1-1.1,2.1-1.9,2.9-.8.8-1.7,1.5-2.7,2-1,.5-2.2.7-3.3.7ZM784.7,495.3c.9,0,1.8-.2,2.5-.5s1.5-.9,2.1-1.5c.6-.6,1.1-1.4,1.4-2.2.3-.8.5-1.7.5-2.7s-.2-1.8-.5-2.7c-.3-.8-.8-1.6-1.4-2.2-.6-.6-1.3-1.1-2.1-1.5-.8-.4-1.6-.5-2.5-.5s-1.8.2-2.5.5c-.8.4-1.5.9-2.1,1.5-.6.6-1.1,1.4-1.4,2.2-.3.8-.5,1.7-.5,2.7s.2,1.9.5,2.7c.3.8.8,1.6,1.4,2.2.6.6,1.3,1.1,2.1,1.5.8.4,1.6.5,2.5.5Z"/>
      <path d="M795.3,497l3.4-17.5h1.6l4.7,12.4,4.7-12.4h1.6l3.4,17.5h-2.1l-2.5-12.7-4.4,11.7h-1.4l-4.4-11.7-2.4,12.7h-2.1Z"/>
      <path d="M817.3,497v-17.5h5.8c.9,0,1.8.2,2.5.7.8.5,1.4,1.1,1.8,1.9.4.8.7,1.6.7,2.6s-.2,1.9-.7,2.6c-.5.8-1.1,1.4-1.8,1.8s-1.6.7-2.5.7h-3.7v7.2h-2.1ZM819.4,487.7h3.5c.6,0,1.1-.1,1.6-.4.5-.3.8-.7,1.1-1.1.3-.5.4-1,.4-1.6s-.1-1.2-.4-1.6c-.3-.5-.7-.9-1.1-1.1-.5-.3-1-.4-1.6-.4h-3.5v6.4Z"/>
    </g>
    <path class="st11" d="M1688.4,551.8h65.3c8-19.9,16.1-39.7,24.1-59.6"/>
    <g>
      <path d="M1698.4,398.4c-1.2,0-2.3-.2-3.4-.7s-2-1.1-2.7-2c-.8-.8-1.4-1.8-1.8-2.9s-.7-2.3-.7-3.5.2-2.5.7-3.6,1.1-2.1,1.9-2.9c.8-.8,1.7-1.5,2.8-1.9,1-.5,2.1-.7,3.3-.7s2.6.3,3.8.9c1.2.6,2.2,1.5,3.1,2.7l-1.9,1c-.6-.8-1.4-1.4-2.3-1.9-.9-.4-1.8-.6-2.7-.6s-1.7.2-2.5.5c-.8.4-1.5.9-2.1,1.5-.6.6-1.1,1.4-1.4,2.2-.3.8-.5,1.8-.5,2.7s.2,1.9.5,2.7c.3.8.8,1.6,1.4,2.2.6.6,1.3,1.1,2.1,1.5.8.4,1.6.5,2.5.5s1.4-.1,2-.4c.6-.2,1.2-.6,1.8-1,.5-.4,1-1,1.4-1.6.4-.6.7-1.3.9-2h-4.3v-1.9h6.8c0,1.2-.2,2.4-.7,3.4-.5,1.1-1.1,2-1.9,2.8s-1.7,1.5-2.7,1.9c-1,.5-2.1.7-3.3.7Z"/>
      <path d="M1714.8,398.4c-1.1,0-2.2-.3-3.1-.9-.9-.6-1.7-1.4-2.3-2.4-.6-1-.8-2.1-.8-3.3s.2-1.8.5-2.6c.3-.8.8-1.5,1.3-2.1.6-.6,1.2-1.1,2-1.4.8-.3,1.6-.5,2.4-.5s1.8.2,2.6.6c.8.4,1.5.9,2,1.6.6.7,1,1.5,1.3,2.3.3.9.4,1.8.3,2.9h-10.2c.1.7.3,1.3.7,1.9s.8,1,1.4,1.3,1.2.5,1.9.5c.8,0,1.4-.2,2-.6.6-.4,1.1-.9,1.5-1.6l2.1.5c-.5,1.1-1.3,2-2.3,2.7-1,.7-2.1,1.1-3.4,1.1ZM1710.7,390.9h8.1c0-.7-.3-1.3-.7-1.9-.4-.6-.9-1-1.5-1.4-.6-.4-1.2-.5-1.9-.5s-1.3.2-1.9.5-1.1.8-1.4,1.4-.6,1.2-.7,1.9Z"/>
      <path d="M1727,398.3c-.7,0-1.3-.2-2-.4s-1.2-.5-1.7-.9-.8-.9-1-1.4l1.8-.8c.1.3.3.5.7.8.3.2.7.4,1.1.6.4.1.9.2,1.3.2s.9,0,1.3-.2c.4-.1.7-.4,1-.6.3-.3.4-.6.4-1s-.1-.7-.4-1-.6-.4-1-.6c-.4-.1-.8-.3-1.3-.4-.9-.2-1.6-.5-2.3-.8-.7-.3-1.2-.7-1.6-1.2-.4-.5-.6-1.1-.6-1.8s.2-1.4.6-2c.4-.6,1-1,1.7-1.3.7-.3,1.4-.5,2.2-.5s1.9.2,2.8.6c.8.4,1.5,1,1.9,1.8l-1.7,1c-.1-.3-.4-.6-.6-.8-.3-.2-.6-.4-1-.5-.4-.1-.8-.2-1.1-.2-.5,0-.9,0-1.4.2-.4.1-.8.4-1,.6-.3.3-.4.6-.4,1.1s.1.7.4.9c.3.2.6.4,1.1.5.4.1.9.3,1.4.4.8.2,1.5.5,2.1.8.7.3,1.2.7,1.6,1.2.4.5.6,1.1.6,1.8,0,.8-.2,1.4-.7,2s-1.1,1-1.8,1.3c-.7.3-1.5.4-2.3.4Z"/>
      <path d="M1740.4,387.7h-2.8v10.4h-2.1v-10.4s-2.1,0-2.1,0v-2.1h2.1v-3.9s2.1,0,2.1,0v3.9h2.8v2.1Z"/>
      <path d="M1743.6,383.6c-.3,0-.6-.1-.8-.3-.2-.2-.3-.5-.3-.8s.1-.6.3-.8c.2-.2.5-.3.8-.3s.6.1.8.3c.2.2.3.5.3.8s-.1.6-.3.8c-.2.2-.5.3-.8.3ZM1742.5,385.6h2.1v12.5h-2.1v-12.5Z"/>
      <path d="M1752.9,398.4c-1.1,0-2.2-.3-3.1-.9-.9-.6-1.7-1.4-2.3-2.4-.6-1-.8-2.1-.8-3.3s.2-1.8.5-2.6c.3-.8.8-1.5,1.3-2.1.6-.6,1.2-1.1,2-1.4.8-.3,1.6-.5,2.4-.5s2.2.3,3.1.9c.9.6,1.7,1.4,2.3,2.4.6,1,.8,2.1.8,3.3s-.2,1.8-.5,2.5c-.3.8-.8,1.5-1.3,2.1-.6.6-1.2,1.1-2,1.4-.8.3-1.6.5-2.4.5ZM1752.9,396.3c.8,0,1.5-.2,2.1-.6.6-.4,1.1-1,1.5-1.6.4-.7.5-1.4.5-2.2s-.2-1.6-.6-2.2c-.4-.7-.9-1.2-1.5-1.6-.6-.4-1.3-.6-2.1-.6s-1.5.2-2.1.6-1.1,1-1.5,1.6-.5,1.4-.5,2.2.2,1.6.6,2.3c.4.7.9,1.2,1.5,1.6.6.4,1.3.6,2.1.6Z"/>
      <path d="M1772.3,390.3v7.8h-2.1v-7.3c0-.6-.2-1.2-.5-1.7-.3-.5-.7-.9-1.2-1.2-.5-.3-1.1-.5-1.7-.5s-1.2.2-1.7.5c-.5.3-.9.7-1.2,1.2s-.5,1.1-.5,1.7v7.3h-2.1v-12.5h2.1v1.6c.4-.6,1-1,1.7-1.4.7-.3,1.4-.5,2.2-.5s1.8.2,2.6.7c.8.5,1.4,1.1,1.8,1.8s.7,1.6.7,2.6Z"/>
      <path d="M1784.6,385.6h2.1v12.5h-2.1v-2.1c-.5.7-1,1.3-1.7,1.8-.7.4-1.5.7-2.5.7s-1.8-.2-2.6-.5c-.8-.3-1.5-.8-2.1-1.4-.6-.6-1.1-1.3-1.4-2.1-.3-.8-.5-1.7-.5-2.6s.2-1.7.5-2.5.8-1.5,1.4-2.1c.6-.6,1.3-1.1,2.1-1.4.8-.3,1.6-.5,2.5-.5s1.8.2,2.6.7c.7.5,1.3,1.1,1.8,1.8v-2.1ZM1780.4,396.4c.8,0,1.5-.2,2.1-.6s1.1-1,1.4-1.6c.3-.7.5-1.5.5-2.3s-.2-1.6-.5-2.3c-.3-.7-.8-1.2-1.4-1.6-.6-.4-1.3-.6-2.1-.6s-1.6.2-2.2.6c-.7.4-1.2,1-1.6,1.6s-.6,1.5-.6,2.3.2,1.6.6,2.3c.4.7.9,1.2,1.6,1.6.7.4,1.4.6,2.2.6Z"/>
      <path d="M1801.6,387.7h-2.8v10.4h-2.1v-10.4s-2.1,0-2.1,0v-2.1h2.1v-3.9s2.1,0,2.1,0v3.9h2.8v2.1Z"/>
      <path d="M1803.4,393.3v-7.7h2.1v7.3c0,.6.2,1.2.5,1.7.3.5.7.9,1.2,1.2.5.3,1.1.5,1.7.5s1.2-.2,1.7-.5c.5-.3.9-.7,1.2-1.2.3-.5.5-1.1.5-1.7v-7.3h2.1v12.5s-2.1,0-2.1,0v-1.6c-.5.6-1,1-1.7,1.4-.7.3-1.4.5-2.2.5s-1.8-.2-2.6-.7c-.8-.5-1.4-1.1-1.8-1.8-.5-.8-.7-1.6-.7-2.6Z"/>
      <path d="M1820.7,398.3c-.7,0-1.3-.2-2-.4s-1.2-.5-1.7-.9-.8-.9-1-1.4l1.8-.8c.1.3.3.5.7.8.3.2.7.4,1.1.6.4.1.9.2,1.3.2s.9,0,1.3-.2c.4-.1.7-.4,1-.6.3-.3.4-.6.4-1s-.1-.7-.4-1-.6-.4-1-.6c-.4-.1-.8-.3-1.3-.4-.9-.2-1.6-.5-2.3-.8-.7-.3-1.2-.7-1.6-1.2-.4-.5-.6-1.1-.6-1.8s.2-1.4.6-2c.4-.6,1-1,1.7-1.3.7-.3,1.4-.5,2.2-.5s1.9.2,2.8.6c.8.4,1.5,1,1.9,1.8l-1.7,1c-.1-.3-.4-.6-.6-.8-.3-.2-.6-.4-1-.5-.4-.1-.8-.2-1.1-.2-.5,0-.9,0-1.4.2-.4.1-.8.4-1,.6-.3.3-.4.6-.4,1.1s.1.7.4.9c.3.2.6.4,1.1.5.4.1.9.3,1.4.4.8.2,1.5.5,2.1.8.7.3,1.2.7,1.6,1.2.4.5.6,1.1.6,1.8,0,.8-.2,1.4-.7,2s-1.1,1-1.8,1.3c-.7.3-1.5.4-2.3.4Z"/>
      <path d="M1700.4,408.2h2.1v18.7h-2.1v-2.1c-.4.7-1,1.3-1.7,1.8s-1.6.7-2.5.7-1.8-.2-2.5-.5-1.5-.8-2.1-1.4c-.6-.6-1.1-1.3-1.4-2.1-.3-.8-.5-1.6-.5-2.5s.2-1.8.5-2.6c.3-.8.8-1.5,1.4-2.1s1.3-1.1,2.1-1.4,1.6-.5,2.5-.5,1.8.2,2.5.7c.7.4,1.3,1,1.7,1.8v-8.4ZM1696.2,425.2c.8,0,1.5-.2,2.1-.6s1.1-1,1.4-1.6c.3-.7.5-1.5.5-2.3s-.2-1.6-.5-2.3c-.3-.7-.8-1.2-1.4-1.6-.6-.4-1.3-.6-2.1-.6s-1.6.2-2.2.6c-.7.4-1.2,1-1.6,1.6-.4.7-.6,1.5-.6,2.3s.2,1.6.6,2.3c.4.7.9,1.2,1.6,1.6.7.4,1.4.6,2.2.6Z"/>
      <path d="M1715.4,414.4h2.1v12.5h-2.1v-2.1c-.5.7-1,1.3-1.7,1.8-.7.4-1.5.7-2.5.7s-1.8-.2-2.6-.5c-.8-.3-1.5-.8-2.1-1.4-.6-.6-1.1-1.3-1.4-2.1-.3-.8-.5-1.7-.5-2.6s.2-1.7.5-2.5.8-1.5,1.4-2.1c.6-.6,1.3-1.1,2.1-1.4.8-.3,1.6-.5,2.5-.5s1.8.2,2.6.7c.7.5,1.3,1.1,1.8,1.8v-2.1ZM1711.2,425.2c.8,0,1.5-.2,2.1-.6s1.1-1,1.4-1.6c.3-.7.5-1.5.5-2.3s-.2-1.6-.5-2.3c-.3-.7-.8-1.2-1.4-1.6-.6-.4-1.3-.6-2.1-.6s-1.6.2-2.2.6c-.7.4-1.2,1-1.6,1.6s-.6,1.5-.6,2.3.2,1.6.6,2.3c.4.7.9,1.2,1.6,1.6.7.4,1.4.6,2.2.6Z"/>
      <path d="M1726.5,416.5h-2.8v10.4h-2.1v-10.4s-2.1,0-2.1,0v-2.1h2.1v-3.9s2.1,0,2.1,0v3.9h2.8v2.1Z"/>
      <path d="M1733.9,427.2c-1.1,0-2.2-.3-3.1-.9-.9-.6-1.7-1.4-2.3-2.4-.6-1-.8-2.1-.8-3.3s.2-1.8.5-2.6c.3-.8.8-1.5,1.3-2.1.6-.6,1.2-1.1,2-1.4.8-.3,1.6-.5,2.4-.5s2.2.3,3.1.9c.9.6,1.7,1.4,2.3,2.4.6,1,.8,2.1.8,3.3s-.2,1.8-.5,2.5c-.3.8-.8,1.5-1.3,2.1-.6.6-1.2,1.1-2,1.4-.8.3-1.6.5-2.4.5ZM1733.9,425.1c.8,0,1.5-.2,2.1-.6.6-.4,1.1-1,1.5-1.6.4-.7.5-1.4.5-2.2s-.2-1.6-.6-2.2c-.4-.7-.9-1.2-1.5-1.6-.6-.4-1.3-.6-2.1-.6s-1.5.2-2.1.6-1.1,1-1.5,1.6-.5,1.4-.5,2.2.2,1.6.6,2.3c.4.7.9,1.2,1.5,1.6.6.4,1.3.6,2.1.6Z"/>
      <path d="M1746.1,427.1c-.7,0-1.3-.2-2-.4s-1.2-.5-1.7-.9-.8-.9-1-1.4l1.8-.8c.1.3.3.5.7.8.3.2.7.4,1.1.6.4.1.9.2,1.3.2s.9,0,1.3-.2c.4-.1.7-.4,1-.6.3-.3.4-.6.4-1s-.1-.7-.4-1-.6-.4-1-.6c-.4-.1-.8-.3-1.3-.4-.9-.2-1.6-.5-2.3-.8-.7-.3-1.2-.7-1.6-1.2-.4-.5-.6-1.1-.6-1.8s.2-1.4.6-2c.4-.6,1-1,1.7-1.3.7-.3,1.4-.5,2.2-.5s1.9.2,2.8.6c.8.4,1.5,1,1.9,1.8l-1.7,1c-.1-.3-.4-.6-.6-.8-.3-.2-.6-.4-1-.5-.4-.1-.8-.2-1.1-.2-.5,0-.9,0-1.4.2-.4.1-.8.4-1,.6-.3.3-.4.6-.4,1.1s.1.7.4.9c.3.2.6.4,1.1.5.4.1.9.3,1.4.4.8.2,1.5.5,2.1.8.7.3,1.2.7,1.6,1.2.4.5.6,1.1.6,1.8,0,.8-.2,1.4-.7,2s-1.1,1-1.8,1.3c-.7.3-1.5.4-2.3.4Z"/>
      <path d="M1767.6,423.6l1.9,1c-.6.8-1.3,1.4-2.2,1.9-.9.5-1.8.7-2.8.7s-2.2-.3-3.1-.9c-.9-.6-1.7-1.4-2.3-2.4-.6-1-.8-2.1-.8-3.3s.2-1.8.5-2.6c.3-.8.8-1.5,1.3-2.1.6-.6,1.2-1.1,2-1.4.8-.3,1.6-.5,2.4-.5s2,.2,2.8.7c.9.5,1.6,1.1,2.2,1.9l-1.9,1c-.4-.5-.9-.9-1.4-1.1-.5-.3-1.1-.4-1.7-.4s-1.5.2-2.1.6c-.6.4-1.1,1-1.5,1.6s-.5,1.4-.5,2.2.2,1.6.6,2.2c.4.7.9,1.2,1.5,1.6.6.4,1.3.6,2.1.6s1.2-.1,1.7-.4c.5-.3,1-.6,1.4-1.1Z"/>
      <path d="M1777,427.2c-1.1,0-2.2-.3-3.1-.9-.9-.6-1.7-1.4-2.3-2.4-.6-1-.8-2.1-.8-3.3s.2-1.8.5-2.6c.3-.8.8-1.5,1.3-2.1.6-.6,1.2-1.1,2-1.4.8-.3,1.6-.5,2.4-.5s2.2.3,3.1.9c.9.6,1.7,1.4,2.3,2.4.6,1,.8,2.1.8,3.3s-.2,1.8-.5,2.5c-.3.8-.8,1.5-1.3,2.1-.6.6-1.2,1.1-2,1.4-.8.3-1.6.5-2.4.5ZM1777,425.1c.8,0,1.5-.2,2.1-.6.6-.4,1.1-1,1.5-1.6.4-.7.5-1.4.5-2.2s-.2-1.6-.6-2.2c-.4-.7-.9-1.2-1.5-1.6-.6-.4-1.3-.6-2.1-.6s-1.5.2-2.1.6-1.1,1-1.5,1.6-.5,1.4-.5,2.2.2,1.6.6,2.3c.4.7.9,1.2,1.5,1.6.6.4,1.3.6,2.1.6Z"/>
      <path d="M1796.4,419.1v7.8h-2.1v-7.3c0-.6-.2-1.2-.5-1.7-.3-.5-.7-.9-1.2-1.2-.5-.3-1.1-.5-1.7-.5s-1.2.2-1.7.5c-.5.3-.9.7-1.2,1.2s-.5,1.1-.5,1.7v7.3h-2.1v-12.5h2.1v1.6c.4-.6,1-1,1.7-1.4.7-.3,1.4-.5,2.2-.5s1.8.2,2.6.7c.8.5,1.4,1.1,1.8,1.8s.7,1.6.7,2.6Z"/>
      <path d="M1810.4,427.2c-1.1,0-2.2-.3-3.1-.9-.9-.6-1.7-1.4-2.3-2.4-.6-1-.8-2.1-.8-3.3s.2-1.8.5-2.6c.3-.8.8-1.5,1.3-2.1.6-.6,1.2-1.1,2-1.4.8-.3,1.6-.5,2.4-.5s1.8.2,2.6.6c.8.4,1.5.9,2,1.6.6.7,1,1.5,1.3,2.3.3.9.4,1.8.3,2.9h-10.2c.1.7.3,1.3.7,1.9s.8,1,1.4,1.3,1.2.5,1.9.5c.8,0,1.4-.2,2-.6.6-.4,1.1-.9,1.5-1.6l2.1.5c-.5,1.1-1.3,2-2.3,2.7-1,.7-2.1,1.1-3.4,1.1ZM1806.3,419.8h8.1c0-.7-.3-1.3-.7-1.9-.4-.6-.9-1-1.5-1.4-.6-.4-1.2-.5-1.9-.5s-1.3.2-1.9.5-1.1.8-1.4,1.4-.6,1.2-.7,1.9Z"/>
      <path d="M1818.6,426.9v-18.7h2.1v18.7h-2.1Z"/>
      <path d="M1690.3,449v-17.5h6.2c.9,0,1.8.2,2.6.7.8.5,1.4,1.1,1.8,1.9.4.8.7,1.7.7,2.6s-.2,1.9-.7,2.7c-.5.8-1.1,1.4-1.9,1.9-.8.5-1.6.7-2.5.7h-3.2v7h-3ZM1693.4,439h2.9c.4,0,.8-.1,1.2-.3.4-.2.6-.5.9-.9.2-.4.3-.8.3-1.2s-.1-.9-.3-1.2c-.2-.4-.5-.7-.9-.9-.4-.2-.8-.3-1.2-.3h-2.9v4.9Z"/>
      <path d="M1708.6,449.3c-1.1,0-2.2-.3-3.1-.9-.9-.6-1.7-1.4-2.3-2.4-.6-1-.8-2.1-.8-3.3s.2-1.8.5-2.6c.3-.8.8-1.5,1.3-2.1.6-.6,1.2-1.1,2-1.4.8-.3,1.6-.5,2.4-.5s2.2.3,3.1.9c.9.6,1.7,1.4,2.3,2.4.6,1,.8,2.1.8,3.3s-.2,1.8-.5,2.5c-.3.8-.8,1.5-1.3,2.1-.6.6-1.2,1.1-2,1.4-.8.3-1.6.5-2.4.5ZM1708.6,446.3c.6,0,1.2-.2,1.6-.5.5-.3.9-.8,1.1-1.3.3-.5.4-1.1.4-1.7s-.1-1.2-.4-1.8c-.3-.5-.7-1-1.2-1.3-.5-.3-1-.5-1.6-.5s-1.1.2-1.6.5c-.5.3-.9.8-1.1,1.3s-.4,1.1-.4,1.8.1,1.3.4,1.8c.3.5.7,1,1.2,1.3.5.3,1,.5,1.6.5Z"/>
      <path d="M1716.8,449v-12.5s3,0,3,0v1.1c.4-.4.9-.8,1.5-1.1.6-.3,1.2-.4,1.9-.4s.9,0,1.4.2l-1.2,3.1c-.3-.1-.6-.2-.9-.2-.5,0-.9.1-1.3.4-.4.2-.7.6-1,1-.2.4-.4.9-.4,1.3v7.1h-3Z"/>
      <path d="M1733.1,439.6h-2.4v9.4h-3v-9.4h-1.8v-3h1.8v-3.9h3v3.9h2.4v3Z"/>
      <path d="M1744.5,436.5h3v12.5h-3v-1.5c-.5.6-.9,1-1.5,1.4-.6.3-1.2.5-2,.5s-1.8-.2-2.6-.5-1.5-.8-2.1-1.4c-.6-.6-1.1-1.3-1.4-2.1s-.5-1.7-.5-2.6.2-1.7.5-2.5c.3-.8.8-1.5,1.4-2.1.6-.6,1.3-1.1,2-1.4s1.6-.5,2.5-.5,1.6.2,2.2.5c.7.4,1.2.8,1.7,1.4v-1.6ZM1740.9,446.4c.6,0,1.2-.2,1.7-.5.5-.3.9-.8,1.2-1.3s.4-1.2.4-1.8-.1-1.3-.4-1.8-.7-1-1.2-1.3c-.5-.3-1.1-.5-1.7-.5s-1.2.2-1.8.5c-.5.3-.9.8-1.3,1.3-.3.5-.5,1.2-.5,1.8s.2,1.3.5,1.8c.3.5.7,1,1.3,1.3s1.1.5,1.7.5Z"/>
      <path d="M1750.1,449v-18.7h3v18.7h-3Z"/>
      <path d="M1690.3,471.1v-17.5h6.4c.9,0,1.8.2,2.5.6.7.4,1.3.9,1.8,1.6.4.7.7,1.5.7,2.5s0,.9-.2,1.3c-.1.4-.3.8-.6,1.2-.3.3-.6.6-1,.8.5.1,1,.4,1.3.7s.6.8.8,1.2c.2.5.3.9.4,1.4,0,.5.1.9.1,1.4,0,.9-.2,1.7-.7,2.5-.5.7-1.1,1.3-1.8,1.7-.8.4-1.6.6-2.6.6h-7.1ZM1693.4,460.4h3c.6,0,1.1-.2,1.6-.6.4-.4.7-.9.7-1.5s-.2-1.2-.7-1.5c-.4-.3-1-.5-1.6-.5h-3v4.1ZM1693.4,468.5h3.7c.5,0,.9-.1,1.3-.4.4-.2.7-.6,1-1,.2-.4.4-.9.4-1.4s-.1-.9-.4-1.3c-.2-.4-.6-.8-1-1-.4-.3-.8-.4-1.3-.4h-3.7v5.5Z"/>
      <path d="M1706.5,457c-.4,0-.8-.1-1.1-.4-.3-.3-.5-.7-.5-1.1s.2-.8.5-1.1c.3-.3.7-.4,1.1-.4s.8.1,1.1.4c.3.3.5.7.5,1.1s-.2.8-.5,1.1-.7.4-1.1.4ZM1705,458.6h3v12.5h-3v-12.5Z"/>
      <path d="M1717.7,458.2c1.2,0,2.3.3,3.3.9s1.8,1.4,2.4,2.4c.6,1,.9,2.1.9,3.3s-.2,1.8-.5,2.6c-.3.8-.8,1.5-1.4,2.1-.6.6-1.3,1.1-2.1,1.4-.8.3-1.7.5-2.6.5s-1.5-.2-2.1-.5c-.6-.4-1.1-.8-1.5-1.4v1.6h-3v-18.7h3v7.8c.4-.6.9-1,1.5-1.4.6-.4,1.3-.5,2.1-.5ZM1717.7,468.5c.6,0,1.2-.2,1.8-.5.5-.3,1-.8,1.3-1.3.3-.5.5-1.2.5-1.8s-.2-1.3-.5-1.8-.7-1-1.3-1.3c-.5-.3-1.1-.5-1.8-.5s-1.2.2-1.7.5c-.5.3-.9.8-1.2,1.3s-.4,1.2-.4,1.8.1,1.3.4,1.8c.3.6.7,1,1.2,1.3.5.3,1.1.5,1.7.5Z"/>
      <path d="M1726.1,471.1v-18.7h3v18.7h-3Z"/>
      <path d="M1733.7,457c-.4,0-.8-.1-1.1-.4-.3-.3-.5-.7-.5-1.1s.2-.8.5-1.1c.3-.3.7-.4,1.1-.4s.8.1,1.1.4c.3.3.5.7.5,1.1s-.2.8-.5,1.1-.7.4-1.1.4ZM1732.1,458.6h3v12.5h-3v-12.5Z"/>
      <path d="M1743.4,471.4c-1.1,0-2.2-.3-3.1-.9-.9-.6-1.7-1.4-2.3-2.4-.6-1-.8-2.1-.8-3.3s.2-1.8.5-2.6c.3-.8.8-1.5,1.3-2.1.6-.6,1.2-1.1,2-1.4.8-.3,1.6-.5,2.4-.5s2.2.3,3.1.9c.9.6,1.7,1.4,2.3,2.4.6,1,.8,2.1.8,3.3s-.2,1.8-.5,2.5c-.3.8-.8,1.5-1.3,2.1-.6.6-1.2,1.1-2,1.4-.8.3-1.6.5-2.4.5ZM1743.4,468.4c.6,0,1.2-.2,1.6-.5.5-.3.9-.8,1.1-1.3.3-.5.4-1.1.4-1.7s-.1-1.2-.4-1.8c-.3-.5-.7-1-1.2-1.3-.5-.3-1-.5-1.6-.5s-1.1.2-1.6.5c-.5.3-.9.8-1.1,1.3s-.4,1.1-.4,1.8.1,1.3.4,1.8c.3.5.7,1,1.2,1.3.5.3,1,.5,1.6.5Z"/>
      <path d="M1751.6,471.1v-12.5h3v1.1c.4-.4.9-.8,1.5-1.1s1.2-.4,1.9-.4,1.7.2,2.4.6c.7.4,1.3,1,1.7,1.6.4-.7,1-1.2,1.7-1.6.7-.4,1.5-.6,2.4-.6s1.7.2,2.5.7c.7.4,1.3,1,1.8,1.8s.7,1.6.7,2.5v7.9h-3v-7.1c0-.5-.1-.9-.4-1.3s-.6-.7-.9-1c-.4-.2-.8-.4-1.3-.4s-.9.1-1.3.4-.7.6-1,1c-.2.4-.4.9-.4,1.4v7.1h-3v-7.1c0-.5-.1-1-.3-1.4-.2-.4-.5-.7-.9-1-.4-.2-.8-.4-1.3-.4s-.9.1-1.3.4c-.4.2-.7.6-1,1s-.4.8-.4,1.3v7.1h-3Z"/>
      <path d="M1779,471.4c-1.1,0-2.2-.3-3.1-.9-.9-.6-1.7-1.4-2.3-2.4-.6-1-.8-2.1-.8-3.3s.2-1.8.5-2.6c.3-.8.8-1.5,1.3-2.1.6-.6,1.2-1.1,2-1.4.8-.3,1.6-.5,2.4-.5s1.9.2,2.7.6,1.5,1,2.1,1.7c.6.7,1,1.5,1.2,2.4.3.9.3,1.9.2,2.9h-9.1c.1.5.3.9.6,1.3.3.4.6.7,1,.9.4.2.9.3,1.4.3.5,0,1-.1,1.5-.4s.8-.6,1.1-1.1l3.1.7c-.5,1.1-1.3,2-2.3,2.7-1,.7-2.1,1.1-3.4,1.1ZM1775.9,463.6h6.1c0-.5-.3-1-.6-1.4-.3-.4-.7-.7-1.1-1-.4-.2-.9-.4-1.4-.4s-1,.1-1.4.4c-.4.2-.8.6-1.1,1-.3.4-.5.9-.6,1.4ZM1778.2,457.2l1-3.6h3l-2,3.6h-2Z"/>
      <path d="M1793.9,461.6h-2.4v9.4h-3v-9.4h-1.8v-3h1.8v-3.9h3v3.9h2.4v3Z"/>
      <path d="M1796.2,471.1v-12.5s3,0,3,0v1.1c.4-.4.9-.8,1.5-1.1.6-.3,1.2-.4,1.9-.4s.9,0,1.4.2l-1.2,3.1c-.3-.1-.6-.2-.9-.2-.5,0-.9.1-1.3.4-.4.2-.7.6-1,1-.2.4-.4.9-.4,1.3v7.1h-3Z"/>
      <path d="M1806.9,457c-.4,0-.8-.1-1.1-.4-.3-.3-.5-.7-.5-1.1s.2-.8.5-1.1c.3-.3.7-.4,1.1-.4s.8.1,1.1.4c.3.3.5.7.5,1.1s-.2.8-.5,1.1-.7.4-1.1.4ZM1805.4,458.6h3v12.5h-3v-12.5Z"/>
      <path d="M1818.9,467.3l2.7,1.5c-.6.8-1.3,1.4-2.2,1.9s-1.8.7-2.8.7-2.2-.3-3.1-.9c-.9-.6-1.7-1.4-2.3-2.4-.6-1-.8-2.1-.8-3.3s.2-1.8.5-2.6c.3-.8.8-1.5,1.3-2.1.6-.6,1.2-1.1,2-1.4.8-.3,1.6-.5,2.4-.5s2,.2,2.8.7,1.6,1.1,2.2,1.9l-2.7,1.5c-.3-.3-.6-.6-1-.8s-.8-.3-1.2-.3c-.6,0-1.1.2-1.6.5-.5.3-.9.8-1.1,1.3-.3.5-.4,1.1-.4,1.8s.1,1.2.4,1.7.7,1,1.1,1.3c.5.3,1,.5,1.6.5s.8,0,1.2-.3.7-.4,1-.8Z"/>
      <path d="M1829,471.4c-1.1,0-2.2-.3-3.1-.9-.9-.6-1.7-1.4-2.3-2.4-.6-1-.8-2.1-.8-3.3s.2-1.8.5-2.6c.3-.8.8-1.5,1.3-2.1.6-.6,1.2-1.1,2-1.4.8-.3,1.6-.5,2.4-.5s2.2.3,3.1.9c.9.6,1.7,1.4,2.3,2.4.6,1,.8,2.1.8,3.3s-.2,1.8-.5,2.5c-.3.8-.8,1.5-1.3,2.1-.6.6-1.2,1.1-2,1.4-.8.3-1.6.5-2.4.5ZM1829,468.4c.6,0,1.2-.2,1.6-.5.5-.3.9-.8,1.1-1.3.3-.5.4-1.1.4-1.7s-.1-1.2-.4-1.8c-.3-.5-.7-1-1.2-1.3-.5-.3-1-.5-1.6-.5s-1.1.2-1.6.5c-.5.3-.9.8-1.1,1.3s-.4,1.1-.4,1.8.1,1.3.4,1.8c.3.5.7,1,1.2,1.3.5.3,1,.5,1.6.5Z"/>
    </g>
    <path class="st11" d="M1083.3,946.7h77.9c9.6-19.9,19.2-39.7,28.8-59.6"/>
    <g>
      <path d="M1090.1,760.3h3.5l6.4,17.5h-3.2l-1.1-3.1h-7.5l-1.1,3.1h-3.2l6.3-17.5ZM1089.2,771.6h5.3l-2.6-7.2-2.6,7.2Z"/>
      <path d="M1101,773.1v-7.9h3v7.1c0,.5.1.9.4,1.3.2.4.6.7,1,1,.4.2.8.4,1.3.4s.9-.1,1.3-.4.7-.6,1-1c.2-.4.4-.9.4-1.3v-7.1h3v12.5s-3,0-3,0v-1.1c-.4.5-1,.8-1.5,1.1-.6.3-1.2.4-1.9.4s-1.7-.2-2.5-.7c-.7-.4-1.3-1-1.8-1.8s-.7-1.6-.7-2.5Z"/>
      <path d="M1115,777.7v-12.5h3v1.1c.4-.4.9-.8,1.5-1.1.6-.3,1.2-.4,1.9-.4s1.7.2,2.4.6c.7.4,1.3,1,1.7,1.6.4-.7,1-1.2,1.7-1.6.7-.4,1.5-.6,2.4-.6s1.7.2,2.5.7,1.3,1,1.8,1.8.7,1.6.7,2.5v7.9h-3v-7.1c0-.5-.1-.9-.4-1.3-.2-.4-.6-.7-.9-1-.4-.2-.8-.4-1.3-.4s-.9.1-1.3.4-.7.6-1,1c-.2.4-.4.9-.4,1.4v7.1h-3v-7.1c0-.5-.1-1-.3-1.4-.2-.4-.5-.7-.9-1-.4-.2-.8-.4-1.3-.4s-.9.1-1.3.4c-.4.2-.7.6-1,1-.2.4-.4.8-.4,1.3v7.1h-3Z"/>
      <path d="M1142.4,778.1c-1.1,0-2.2-.3-3.1-.9-.9-.6-1.7-1.4-2.3-2.4-.6-1-.8-2.1-.8-3.3s.2-1.8.5-2.6.8-1.5,1.3-2.1,1.2-1.1,2-1.4c.8-.3,1.6-.5,2.4-.5s1.9.2,2.7.6,1.5,1,2.1,1.7c.6.7,1,1.5,1.2,2.4.3.9.3,1.9.2,2.9h-9.1c.1.5.3.9.6,1.3.3.4.6.7,1,.9.4.2.9.3,1.4.3.5,0,1-.1,1.5-.4.4-.3.8-.6,1.1-1.1l3.1.7c-.5,1.1-1.3,2-2.3,2.7-1,.7-2.1,1.1-3.4,1.1ZM1139.3,770.3h6.1c0-.5-.3-1-.6-1.4-.3-.4-.7-.7-1.1-1-.4-.2-.9-.4-1.4-.4s-1,.1-1.4.4-.8.6-1.1,1c-.3.4-.5.9-.6,1.4Z"/>
      <path d="M1162,769.9v7.9h-3v-7.1c0-.5-.1-.9-.4-1.3-.2-.4-.6-.7-1-1-.4-.2-.9-.4-1.3-.4s-.9.1-1.3.4c-.4.2-.7.6-1,1-.2.4-.4.9-.4,1.3v7.1h-3v-12.5s3,0,3,0v1.1c.4-.4.9-.8,1.5-1.1.6-.3,1.2-.4,1.9-.4s1.7.2,2.5.7,1.3,1,1.8,1.8.7,1.6.7,2.5Z"/>
      <path d="M1171.2,768.3h-2.4v9.4h-3v-9.4h-1.8v-3h1.8v-3.9h3v3.9h2.4v3Z"/>
      <path d="M1182.6,765.3h3v12.5h-3v-1.5c-.5.6-.9,1-1.5,1.4-.6.3-1.2.5-2,.5s-1.8-.2-2.6-.5-1.5-.8-2.1-1.4c-.6-.6-1.1-1.3-1.4-2.1s-.5-1.7-.5-2.6.2-1.7.5-2.5c.3-.8.8-1.5,1.4-2.1.6-.6,1.3-1.1,2-1.4s1.6-.5,2.5-.5,1.6.2,2.2.5,1.2.8,1.7,1.4v-1.6ZM1179.1,775.1c.6,0,1.2-.2,1.7-.5.5-.3.9-.8,1.2-1.3.3-.6.4-1.2.4-1.8s-.1-1.3-.4-1.8-.7-1-1.2-1.3c-.5-.3-1.1-.5-1.7-.5s-1.2.2-1.8.5c-.5.3-.9.8-1.3,1.3-.3.5-.5,1.2-.5,1.8s.2,1.3.5,1.8.7,1,1.3,1.3c.5.3,1.1.5,1.7.5Z"/>
      <path d="M1194.2,777.7v-18.7h3v18.7h-3Z"/>
      <path d="M1209.4,765.3h3v12.5h-3v-1.5c-.5.6-.9,1-1.5,1.4-.6.3-1.2.5-2,.5s-1.8-.2-2.6-.5-1.5-.8-2.1-1.4c-.6-.6-1.1-1.3-1.4-2.1s-.5-1.7-.5-2.6.2-1.7.5-2.5c.3-.8.8-1.5,1.4-2.1.6-.6,1.3-1.1,2-1.4s1.6-.5,2.5-.5,1.6.2,2.2.5,1.2.8,1.7,1.4v-1.6ZM1205.9,775.1c.6,0,1.2-.2,1.7-.5.5-.3.9-.8,1.2-1.3.3-.6.4-1.2.4-1.8s-.1-1.3-.4-1.8-.7-1-1.2-1.3c-.5-.3-1.1-.5-1.7-.5s-1.2.2-1.8.5c-.5.3-.9.8-1.3,1.3-.3.5-.5,1.2-.5,1.8s.2,1.3.5,1.8.7,1,1.3,1.3c.5.3,1.1.5,1.7.5Z"/>
      <path d="M1092,806.6h-3.9l-4.5-12.5h3.2l3.3,9,3.3-9h3.2l-4.5,12.5Z"/>
      <path d="M1100,792.5c-.4,0-.8-.1-1.1-.4-.3-.3-.5-.7-.5-1.1s.2-.8.5-1.1c.3-.3.7-.5,1.1-.5s.8.2,1.1.5.5.7.5,1.1-.2.8-.5,1.1c-.3.3-.7.4-1.1.4ZM1098.4,794.1h3v12.5h-3v-12.5Z"/>
      <path d="M1107.9,806.8c-.6,0-1.3-.2-1.9-.4-.6-.2-1.1-.5-1.6-.9-.5-.4-.8-.8-1.1-1.4l2.6-1.1c0,.2.3.3.5.5.2.2.5.3.8.5.3.1.7.2,1,.2s.6,0,.9-.1c.3,0,.5-.2.7-.4.2-.2.3-.4.3-.7s-.1-.5-.3-.7c-.2-.2-.5-.3-.8-.4-.3,0-.6-.2-.9-.2-.8-.2-1.5-.4-2.2-.7s-1.2-.8-1.6-1.3c-.4-.5-.6-1.2-.6-1.9s.2-1.5.7-2.1c.4-.6,1-1.1,1.7-1.4.7-.3,1.5-.5,2.3-.5s1.9.2,2.7.6,1.5,1,2,1.7l-2.4,1.4c-.1-.2-.3-.4-.5-.6-.2-.2-.4-.3-.7-.4-.3-.1-.5-.2-.8-.2-.4,0-.7,0-1,0-.3,0-.6.2-.7.4-.2.2-.3.5-.3.8s.1.6.4.7.6.3.9.4c.4,0,.7.2,1,.3.7.2,1.4.5,2.1.9s1.2.8,1.6,1.3.6,1.1.6,1.8c0,.8-.2,1.5-.7,2.1-.5.6-1.1,1.1-1.9,1.4-.8.3-1.6.4-2.4.4Z"/>
      <path d="M1116.4,792.5c-.4,0-.8-.1-1.1-.4-.3-.3-.5-.7-.5-1.1s.2-.8.5-1.1c.3-.3.7-.5,1.1-.5s.8.2,1.1.5.5.7.5,1.1-.2.8-.5,1.1c-.3.3-.7.4-1.1.4ZM1114.8,794.1h3v12.5h-3v-12.5Z"/>
      <path d="M1127.5,793.7c1.2,0,2.3.3,3.3.9s1.8,1.4,2.4,2.4c.6,1,.9,2.1.9,3.3s-.2,1.8-.5,2.6c-.3.8-.8,1.5-1.4,2.1s-1.3,1.1-2.1,1.4c-.8.3-1.7.5-2.6.5s-1.5-.2-2.1-.5c-.6-.4-1.1-.8-1.5-1.4v1.6h-3v-18.7h3v7.8c.4-.6.9-1,1.5-1.4.6-.4,1.3-.5,2.1-.5ZM1127.5,803.9c.6,0,1.2-.2,1.8-.5.5-.3,1-.8,1.3-1.3.3-.5.5-1.2.5-1.8s-.2-1.3-.5-1.8-.7-1-1.3-1.3c-.5-.3-1.1-.5-1.8-.5s-1.2.2-1.7.5c-.5.3-.9.8-1.2,1.3s-.4,1.2-.4,1.8.1,1.3.4,1.8.7,1,1.2,1.3c.5.3,1.1.5,1.7.5Z"/>
      <path d="M1137.4,792.5c-.4,0-.8-.1-1.1-.4-.3-.3-.5-.7-.5-1.1s.2-.8.5-1.1c.3-.3.7-.5,1.1-.5s.8.2,1.1.5.5.7.5,1.1-.2.8-.5,1.1c-.3.3-.7.4-1.1.4ZM1135.8,794.1h3v12.5h-3v-12.5Z"/>
      <path d="M1141.9,806.6v-18.7h3v18.7h-3Z"/>
      <path d="M1149.5,792.5c-.4,0-.8-.1-1.1-.4-.3-.3-.5-.7-.5-1.1s.2-.8.5-1.1c.3-.3.7-.5,1.1-.5s.8.2,1.1.5.5.7.5,1.1-.2.8-.5,1.1c-.3.3-.7.4-1.1.4ZM1147.9,794.1h3v12.5h-3v-12.5Z"/>
      <path d="M1163.1,787.8h3v18.7h-3v-1.6c-.4.6-.9,1-1.5,1.4-.6.3-1.3.5-2.1.5s-1.8-.2-2.5-.5c-.8-.3-1.5-.8-2.1-1.4s-1.1-1.3-1.4-2.1c-.3-.8-.5-1.6-.5-2.5s.2-1.8.5-2.5c.3-.8.8-1.5,1.4-2.1.6-.6,1.3-1.1,2.1-1.4s1.6-.5,2.5-.5,1.5.2,2.1.5c.6.3,1.1.8,1.5,1.4v-7.8ZM1159.5,804c.6,0,1.2-.2,1.7-.5.5-.3.9-.8,1.2-1.3.3-.6.4-1.2.4-1.8s-.1-1.3-.4-1.8-.7-1-1.2-1.3c-.5-.3-1.1-.5-1.7-.5s-1.2.2-1.8.5c-.5.3-.9.8-1.3,1.3-.3.5-.5,1.2-.5,1.8s.2,1.3.5,1.8.7,1,1.3,1.3c.5.3,1.1.5,1.7.5Z"/>
      <path d="M1178.4,794.1h3v12.5h-3v-1.5c-.5.6-.9,1-1.5,1.4-.6.3-1.2.5-2,.5s-1.8-.2-2.6-.5-1.5-.8-2.1-1.4c-.6-.6-1.1-1.3-1.4-2.1s-.5-1.7-.5-2.6.2-1.7.5-2.5c.3-.8.8-1.5,1.4-2.1.6-.6,1.3-1.1,2-1.4s1.6-.5,2.5-.5,1.6.2,2.2.5,1.2.8,1.7,1.4v-1.6ZM1174.8,804c.6,0,1.2-.2,1.7-.5.5-.3.9-.8,1.2-1.3.3-.6.4-1.2.4-1.8s-.1-1.3-.4-1.8-.7-1-1.2-1.3c-.5-.3-1.1-.5-1.7-.5s-1.2.2-1.8.5c-.5.3-.9.8-1.3,1.3-.3.5-.5,1.2-.5,1.8s.2,1.3.5,1.8.7,1,1.3,1.3c.5.3,1.1.5,1.7.5Z"/>
      <path d="M1193.1,787.8h3v18.7h-3v-1.6c-.4.6-.9,1-1.5,1.4-.6.3-1.3.5-2.1.5s-1.8-.2-2.5-.5c-.8-.3-1.5-.8-2.1-1.4s-1.1-1.3-1.4-2.1c-.3-.8-.5-1.6-.5-2.5s.2-1.8.5-2.5c.3-.8.8-1.5,1.4-2.1.6-.6,1.3-1.1,2.1-1.4s1.6-.5,2.5-.5,1.5.2,2.1.5c.6.3,1.1.8,1.5,1.4v-7.8ZM1189.5,804c.6,0,1.2-.2,1.7-.5.5-.3.9-.8,1.2-1.3.3-.6.4-1.2.4-1.8s-.1-1.3-.4-1.8-.7-1-1.2-1.3c-.5-.3-1.1-.5-1.7-.5s-1.2.2-1.8.5c-.5.3-.9.8-1.3,1.3-.3.5-.5,1.2-.5,1.8s.2,1.3.5,1.8.7,1,1.3,1.3c.5.3,1.1.5,1.7.5Z"/>
      <path d="M1214.6,787.8h3v18.7h-3v-1.6c-.4.6-.9,1-1.5,1.4-.6.3-1.3.5-2.1.5s-1.8-.2-2.5-.5c-.8-.3-1.5-.8-2.1-1.4s-1.1-1.3-1.4-2.1c-.3-.8-.5-1.6-.5-2.5s.2-1.8.5-2.5c.3-.8.8-1.5,1.4-2.1.6-.6,1.3-1.1,2.1-1.4s1.6-.5,2.5-.5,1.5.2,2.1.5c.6.3,1.1.8,1.5,1.4v-7.8ZM1211,804c.6,0,1.2-.2,1.7-.5.5-.3.9-.8,1.2-1.3.3-.6.4-1.2.4-1.8s-.1-1.3-.4-1.8-.7-1-1.2-1.3c-.5-.3-1.1-.5-1.7-.5s-1.2.2-1.8.5c-.5.3-.9.8-1.3,1.3-.3.5-.5,1.2-.5,1.8s.2,1.3.5,1.8.7,1,1.3,1.3c.5.3,1.1.5,1.7.5Z"/>
      <path d="M1226,806.9c-1.1,0-2.2-.3-3.1-.9-.9-.6-1.7-1.4-2.3-2.4-.6-1-.8-2.1-.8-3.3s.2-1.8.5-2.6.8-1.5,1.3-2.1,1.2-1.1,2-1.4c.8-.3,1.6-.5,2.4-.5s1.9.2,2.7.6,1.5,1,2.1,1.7c.6.7,1,1.5,1.2,2.4.3.9.3,1.9.2,2.9h-9.1c.1.5.3.9.6,1.3.3.4.6.7,1,.9.4.2.9.3,1.4.3.5,0,1-.1,1.5-.4.4-.3.8-.6,1.1-1.1l3.1.7c-.5,1.1-1.3,2-2.3,2.7-1,.7-2.1,1.1-3.4,1.1ZM1222.9,799.1h6.1c0-.5-.3-1-.6-1.4-.3-.4-.7-.7-1.1-1-.4-.2-.9-.4-1.4-.4s-1,.1-1.4.4-.8.6-1.1,1c-.3.4-.5.9-.6,1.4Z"/>
      <path d="M1247.1,797.1h-2.4v9.4h-3v-9.4h-1.8v-3h1.8v-3.9h3v3.9h2.4v3Z"/>
      <path d="M1248.9,801.9v-7.9h3v7.1c0,.5.1.9.4,1.3.2.4.6.7,1,1,.4.2.8.4,1.3.4s.9-.1,1.3-.4.7-.6,1-1c.2-.4.4-.9.4-1.3v-7.1h3v12.5s-3,0-3,0v-1.1c-.4.5-1,.8-1.5,1.1-.6.3-1.2.4-1.9.4s-1.7-.2-2.5-.7c-.7-.4-1.3-1-1.8-1.8s-.7-1.6-.7-2.5Z"/>
      <path d="M1088,835.6c-.6,0-1.3-.2-1.9-.4-.6-.2-1.1-.5-1.6-.9-.5-.4-.8-.8-1.1-1.4l2.6-1.1c0,.2.3.3.5.5.2.2.5.3.8.5.3.1.7.2,1,.2s.6,0,.9-.1c.3,0,.5-.2.7-.4.2-.2.3-.4.3-.7s-.1-.5-.3-.7c-.2-.2-.5-.3-.8-.4-.3,0-.6-.2-.9-.2-.8-.2-1.5-.4-2.2-.7s-1.2-.8-1.6-1.3c-.4-.5-.6-1.2-.6-1.9s.2-1.5.7-2.1c.4-.6,1-1.1,1.7-1.4.7-.3,1.5-.5,2.3-.5s1.9.2,2.7.6,1.5,1,2,1.7l-2.4,1.4c-.1-.2-.3-.4-.5-.6-.2-.2-.4-.3-.7-.4-.3-.1-.5-.2-.8-.2-.4,0-.7,0-1,0-.3,0-.6.2-.7.4-.2.2-.3.5-.3.8s.1.6.4.7.6.3.9.4c.4,0,.7.2,1,.3.7.2,1.4.5,2.1.9s1.2.8,1.6,1.3.6,1.1.6,1.8c0,.8-.2,1.5-.7,2.1-.5.6-1.1,1.1-1.9,1.4-.8.3-1.6.4-2.4.4Z"/>
      <path d="M1096.4,821.3c-.4,0-.8-.1-1.1-.4-.3-.3-.5-.7-.5-1.1s.2-.8.5-1.1c.3-.3.7-.5,1.1-.5s.8.2,1.1.5.5.7.5,1.1-.2.8-.5,1.1c-.3.3-.7.4-1.1.4ZM1094.8,822.9h3v12.5h-3v-12.5Z"/>
      <path d="M1107.6,825.9h-2.4v9.4h-3v-9.4h-1.8v-3h1.8v-3.9h3v3.9h2.4v3Z"/>
      <path d="M1111.2,821.3c-.4,0-.8-.1-1.1-.4-.3-.3-.5-.7-.5-1.1s.2-.8.5-1.1c.3-.3.7-.5,1.1-.5s.8.2,1.1.5.5.7.5,1.1-.2.8-.5,1.1c-.3.3-.7.4-1.1.4ZM1109.6,822.9h3v12.5h-3v-12.5Z"/>
      <path d="M1120.9,835.7c-1.1,0-2.2-.3-3.1-.9-.9-.6-1.7-1.4-2.3-2.4-.6-1-.8-2.1-.8-3.3s.2-1.8.5-2.6.8-1.5,1.3-2.1,1.2-1.1,2-1.4c.8-.3,1.6-.5,2.4-.5s2.2.3,3.1.9c.9.6,1.7,1.4,2.3,2.4.6,1,.8,2.1.8,3.3s-.2,1.8-.5,2.5c-.3.8-.8,1.5-1.3,2.1s-1.2,1.1-2,1.4c-.8.3-1.6.5-2.4.5ZM1120.9,832.7c.6,0,1.2-.2,1.6-.5.5-.3.9-.8,1.1-1.3.3-.5.4-1.1.4-1.7s-.1-1.2-.4-1.8-.7-1-1.2-1.3c-.5-.3-1-.5-1.6-.5s-1.1.2-1.6.5c-.5.3-.9.8-1.1,1.3s-.4,1.1-.4,1.8.1,1.3.4,1.8c.3.5.7,1,1.2,1.3.5.3,1,.5,1.6.5Z"/>
      <path d="M1141.8,835.4h-3l-4.2-12.5h3l2.7,8.1,2.7-8.1h3l2.7,8.1,2.7-8.1h3l-4.2,12.5h-3l-2.7-8.1-2.7,8.1Z"/>
      <path d="M1161.3,835.7c-1.1,0-2.2-.3-3.1-.9-.9-.6-1.7-1.4-2.3-2.4-.6-1-.8-2.1-.8-3.3s.2-1.8.5-2.6.8-1.5,1.3-2.1,1.2-1.1,2-1.4c.8-.3,1.6-.5,2.4-.5s1.9.2,2.7.6,1.5,1,2.1,1.7c.6.7,1,1.5,1.2,2.4.3.9.3,1.9.2,2.9h-9.1c.1.5.3.9.6,1.3.3.4.6.7,1,.9.4.2.9.3,1.4.3.5,0,1-.1,1.5-.4.4-.3.8-.6,1.1-1.1l3.1.7c-.5,1.1-1.3,2-2.3,2.7-1,.7-2.1,1.1-3.4,1.1ZM1158.2,827.9h6.1c0-.5-.3-1-.6-1.4-.3-.4-.7-.7-1.1-1-.4-.2-.9-.4-1.4-.4s-1,.1-1.4.4-.8.6-1.1,1c-.3.4-.5.9-.6,1.4Z"/>
      <path d="M1175.9,822.5c1.2,0,2.3.3,3.3.9s1.8,1.4,2.4,2.4c.6,1,.9,2.1.9,3.3s-.2,1.8-.5,2.6c-.3.8-.8,1.5-1.4,2.1s-1.3,1.1-2.1,1.4c-.8.3-1.7.5-2.6.5s-1.5-.2-2.1-.5c-.6-.4-1.1-.8-1.5-1.4v1.6h-3v-18.7h3v7.8c.4-.6.9-1,1.5-1.4.6-.4,1.3-.5,2.1-.5ZM1175.9,832.8c.6,0,1.2-.2,1.8-.5.5-.3,1-.8,1.3-1.3.3-.5.5-1.2.5-1.8s-.2-1.3-.5-1.8-.7-1-1.3-1.3c-.5-.3-1.1-.5-1.8-.5s-1.2.2-1.7.5c-.5.3-.9.8-1.2,1.3s-.4,1.2-.4,1.8.1,1.3.4,1.8.7,1,1.2,1.3c.5.3,1.1.5,1.7.5Z"/>
      <path d="M1199.4,832.1l1.9,1c-.6.8-1.3,1.4-2.2,1.9-.9.5-1.8.7-2.8.7s-2.2-.3-3.1-.9c-.9-.6-1.7-1.4-2.3-2.4-.6-1-.8-2.1-.8-3.3s.2-1.8.5-2.6.8-1.5,1.3-2.1,1.2-1.1,2-1.4c.8-.3,1.6-.5,2.4-.5s2,.2,2.8.7c.9.5,1.6,1.1,2.2,1.9l-1.9,1c-.4-.5-.9-.9-1.4-1.1-.5-.3-1.1-.4-1.7-.4s-1.5.2-2.1.6c-.6.4-1.1,1-1.5,1.6s-.5,1.4-.5,2.2.2,1.6.6,2.2c.4.7.9,1.2,1.5,1.6.6.4,1.3.6,2.1.6s1.2-.1,1.7-.4c.5-.3,1-.6,1.4-1.1Z"/>
      <path d="M1208.8,835.7c-1.1,0-2.2-.3-3.1-.9-.9-.6-1.7-1.4-2.3-2.4-.6-1-.8-2.1-.8-3.3s.2-1.8.5-2.6.8-1.5,1.3-2.1,1.2-1.1,2-1.4c.8-.3,1.6-.5,2.4-.5s2.2.3,3.1.9c.9.6,1.7,1.4,2.3,2.4.6,1,.8,2.1.8,3.3s-.2,1.8-.5,2.5c-.3.8-.8,1.5-1.3,2.1s-1.2,1.1-2,1.4c-.8.3-1.6.5-2.4.5ZM1208.8,833.6c.8,0,1.5-.2,2.1-.6.6-.4,1.1-1,1.5-1.6.4-.7.5-1.4.5-2.2s-.2-1.6-.6-2.2c-.4-.7-.9-1.2-1.5-1.6-.6-.4-1.3-.6-2.1-.6s-1.5.2-2.1.6-1.1,1-1.5,1.6-.5,1.4-.5,2.2.2,1.6.6,2.3.9,1.2,1.5,1.6,1.3.6,2.1.6Z"/>
      <path d="M1228.1,827.6v7.8h-2.1v-7.3c0-.6-.2-1.2-.5-1.7-.3-.5-.7-.9-1.2-1.2-.5-.3-1.1-.5-1.7-.5s-1.2.2-1.7.5c-.5.3-.9.7-1.2,1.2-.3.5-.5,1.1-.5,1.7v7.3h-2.1v-12.5h2.1v1.6c.4-.6,1-1,1.7-1.4.7-.3,1.4-.5,2.2-.5s1.8.2,2.6.7c.8.5,1.4,1.1,1.8,1.8.5.8.7,1.6.7,2.6Z"/>
      <path d="M1236.1,830.6v-7.7h2.1v7.3c0,.6.2,1.2.5,1.7.3.5.7.9,1.2,1.2s1.1.5,1.7.5,1.2-.2,1.7-.5c.5-.3.9-.7,1.2-1.2.3-.5.5-1.1.5-1.7v-7.3h2.1v12.5s-2.1,0-2.1,0v-1.6c-.5.6-1,1-1.7,1.4-.7.3-1.4.5-2.2.5s-1.8-.2-2.6-.7c-.8-.5-1.4-1.1-1.8-1.8-.5-.8-.7-1.6-.7-2.6Z"/>
      <path d="M1260.7,827.6v7.8h-2.1v-7.3c0-.6-.2-1.2-.5-1.7-.3-.5-.7-.9-1.2-1.2-.5-.3-1.1-.5-1.7-.5s-1.2.2-1.7.5c-.5.3-.9.7-1.2,1.2-.3.5-.5,1.1-.5,1.7v7.3h-2.1v-12.5h2.1v1.6c.4-.6,1-1,1.7-1.4.7-.3,1.4-.5,2.2-.5s1.8.2,2.6.7c.8.5,1.4,1.1,1.8,1.8.5.8.7,1.6.7,2.6Z"/>
      <path d="M1094.3,845.5h2.1v18.7h-2.1v-2.1c-.4.7-1,1.3-1.7,1.8s-1.6.7-2.5.7-1.8-.2-2.5-.5c-.8-.3-1.5-.8-2.1-1.4s-1.1-1.3-1.4-2.1c-.3-.8-.5-1.6-.5-2.5s.2-1.8.5-2.6c.3-.8.8-1.5,1.4-2.1.6-.6,1.3-1.1,2.1-1.4.8-.3,1.6-.5,2.5-.5s1.8.2,2.5.7c.7.5,1.3,1,1.7,1.8v-8.4ZM1090.1,862.5c.8,0,1.5-.2,2.1-.6.6-.4,1.1-1,1.4-1.6.3-.7.5-1.5.5-2.3s-.2-1.6-.5-2.3c-.3-.7-.8-1.2-1.4-1.6-.6-.4-1.3-.6-2.1-.6s-1.6.2-2.2.6-1.2,1-1.6,1.6c-.4.7-.6,1.5-.6,2.3s.2,1.6.6,2.3c.4.7.9,1.2,1.6,1.6.7.4,1.4.6,2.2.6Z"/>
      <path d="M1100.5,849.7c-.3,0-.6-.1-.8-.3-.2-.2-.3-.5-.3-.8s.1-.6.3-.8c.2-.2.5-.3.8-.3s.6.1.8.3c.2.2.3.5.3.8s-.1.6-.3.8c-.2.2-.5.3-.8.3ZM1099.4,851.7h2.1v12.5h-2.1v-12.5Z"/>
      <path d="M1108.2,864.4c-.7,0-1.3-.2-2-.4s-1.2-.5-1.7-.9-.8-.9-1-1.4l1.8-.8c.1.3.3.5.7.8.3.2.7.5,1.1.6.4.1.9.2,1.3.2s.9,0,1.3-.2c.4-.1.7-.4,1-.6.3-.3.4-.6.4-1s-.1-.7-.4-1-.6-.4-1-.6c-.4-.1-.8-.3-1.3-.4-.9-.2-1.6-.5-2.3-.8-.7-.3-1.2-.7-1.6-1.2-.4-.5-.6-1.1-.6-1.8s.2-1.4.6-2c.4-.6,1-1,1.7-1.3.7-.3,1.4-.5,2.2-.5s1.9.2,2.8.6c.8.4,1.5,1,1.9,1.8l-1.7,1c-.1-.3-.4-.6-.6-.8-.3-.2-.6-.4-1-.5-.4-.1-.8-.2-1.1-.2-.5,0-.9,0-1.4.2-.4.1-.8.4-1,.6-.3.3-.4.6-.4,1.1s.1.7.4.9c.3.2.6.4,1.1.5.4.1.9.3,1.4.4.8.2,1.5.5,2.1.8.7.3,1.2.7,1.6,1.2.4.5.6,1.1.6,1.8,0,.8-.2,1.4-.7,2-.5.6-1.1,1-1.8,1.3s-1.5.4-2.3.4Z"/>
      <path d="M1120.5,864.5c-1.1,0-2.2-.3-3.1-.9-.9-.6-1.7-1.4-2.3-2.4-.6-1-.8-2.1-.8-3.3s.2-1.8.5-2.6.8-1.5,1.3-2.1,1.2-1.1,2-1.4c.8-.3,1.6-.5,2.4-.5s1.8.2,2.6.6c.8.4,1.5.9,2,1.6.6.7,1,1.5,1.3,2.3s.4,1.8.3,2.9h-10.2c.1.7.3,1.3.7,1.9.4.6.8,1,1.4,1.3.6.3,1.2.5,1.9.5.8,0,1.4-.2,2-.6.6-.4,1.1-.9,1.5-1.6l2.1.5c-.5,1.1-1.3,2-2.3,2.7-1,.7-2.1,1.1-3.4,1.1ZM1116.5,857.1h8.1c0-.7-.3-1.3-.7-1.9-.4-.6-.9-1-1.5-1.4-.6-.3-1.2-.5-1.9-.5s-1.3.2-1.9.5c-.6.3-1.1.8-1.4,1.4-.4.6-.6,1.2-.7,1.9Z"/>
      <path d="M1139.9,856.4v7.8h-2.1v-7.3c0-.6-.2-1.2-.5-1.7-.3-.5-.7-.9-1.2-1.2-.5-.3-1.1-.5-1.7-.5s-1.2.2-1.7.5c-.5.3-.9.7-1.2,1.2-.3.5-.5,1.1-.5,1.7v7.3h-2.1v-12.5h2.1v1.6c.4-.6,1-1,1.7-1.4.7-.3,1.4-.5,2.2-.5s1.8.2,2.6.7c.8.5,1.4,1.1,1.8,1.8.5.8.7,1.6.7,2.6ZM1136.4,850.2c-.3,0-.7,0-1-.3-.4-.2-.8-.4-1.2-.7-.4-.3-.7-.5-1.1-.6-.3-.2-.6-.2-.8-.2-.2,0-.3.2-.4.4s-.1.5,0,.8l-1.3.4c-.2-.5-.2-1,0-1.5.1-.5.4-.8.7-1.1.4-.3.8-.4,1.3-.4s.7,0,1,.3c.4.2.8.4,1.1.6.4.2.7.4,1.1.6.3.2.6.3.8.3s.3,0,.4-.2.1-.3.1-.5c0-.2,0-.3,0-.5l1.4-.4c.2.5.2,1.1,0,1.5-.1.5-.4.8-.7,1.1-.4.3-.8.4-1.3.4Z"/>
      <path d="M1147.6,864.5c-1.1,0-2.2-.3-3.1-.9-.9-.6-1.7-1.4-2.3-2.4-.6-1-.8-2.1-.8-3.3s.2-1.8.5-2.6.8-1.5,1.3-2.1,1.2-1.1,2-1.4c.8-.3,1.6-.5,2.4-.5s2.2.3,3.1.9c.9.6,1.7,1.4,2.3,2.4.6,1,.8,2.1.8,3.3s-.2,1.8-.5,2.5c-.3.8-.8,1.5-1.3,2.1s-1.2,1.1-2,1.4c-.8.3-1.6.5-2.4.5ZM1147.6,862.4c.8,0,1.5-.2,2.1-.6.6-.4,1.1-1,1.5-1.6.4-.7.5-1.4.5-2.2s-.2-1.6-.6-2.2c-.4-.7-.9-1.2-1.5-1.6-.6-.4-1.3-.6-2.1-.6s-1.5.2-2.1.6-1.1,1-1.5,1.6-.5,1.4-.5,2.2.2,1.6.6,2.3.9,1.2,1.5,1.6,1.3.6,2.1.6Z"/>
      <path d="M1172.2,851.7h2.1v12.5h-2.1v-2.1c-.5.7-1,1.3-1.7,1.8-.7.4-1.5.7-2.5.7s-1.8-.2-2.6-.5c-.8-.3-1.5-.8-2.1-1.4-.6-.6-1.1-1.3-1.4-2.1-.3-.8-.5-1.7-.5-2.6s.2-1.7.5-2.5c.3-.8.8-1.5,1.4-2.1s1.3-1.1,2.1-1.4,1.6-.5,2.5-.5,1.8.2,2.6.7,1.3,1.1,1.8,1.8v-2.1ZM1168,862.5c.8,0,1.5-.2,2.1-.6.6-.4,1.1-1,1.4-1.6.3-.7.5-1.5.5-2.3s-.2-1.6-.5-2.3c-.3-.7-.8-1.2-1.4-1.6-.6-.4-1.3-.6-2.1-.6s-1.6.2-2.2.6c-.7.4-1.2,1-1.6,1.6-.4.7-.6,1.5-.6,2.3s.2,1.6.6,2.3c.4.7.9,1.2,1.6,1.6.7.4,1.4.6,2.2.6Z"/>
      <path d="M1183.2,853.8h-2.8v10.4h-2.1v-10.4s-2.1,0-2.1,0v-2.1h2.1v-3.9s2.1,0,2.1,0v3.9h2.8v2.1Z"/>
      <path d="M1185.5,864.2v-12.5h2.1v1.6c.4-.6,1-1,1.7-1.4.7-.3,1.4-.5,2.2-.5s.9,0,1.4.2l-.8,2.1c-.3-.1-.7-.2-1-.2-.6,0-1.2.2-1.7.5-.5.3-.9.7-1.2,1.2-.3.5-.5,1.1-.5,1.7v7.3h-2.1Z"/>
      <path d="M1203.8,851.7h2.1v12.5h-2.1v-2.1c-.5.7-1,1.3-1.7,1.8-.7.4-1.5.7-2.5.7s-1.8-.2-2.6-.5c-.8-.3-1.5-.8-2.1-1.4-.6-.6-1.1-1.3-1.4-2.1-.3-.8-.5-1.7-.5-2.6s.2-1.7.5-2.5c.3-.8.8-1.5,1.4-2.1s1.3-1.1,2.1-1.4,1.6-.5,2.5-.5,1.8.2,2.6.7,1.3,1.1,1.8,1.8v-2.1ZM1199.6,862.5c.8,0,1.5-.2,2.1-.6.6-.4,1.1-1,1.4-1.6.3-.7.5-1.5.5-2.3s-.2-1.6-.5-2.3c-.3-.7-.8-1.2-1.4-1.6-.6-.4-1.3-.6-2.1-.6s-1.6.2-2.2.6c-.7.4-1.2,1-1.6,1.6-.4.7-.6,1.5-.6,2.3s.2,1.6.6,2.3c.4.7.9,1.2,1.6,1.6.7.4,1.4.6,2.2.6Z"/>
      <path d="M1216.7,860.9l1.9,1c-.6.8-1.3,1.4-2.2,1.9-.9.5-1.8.7-2.8.7s-2.2-.3-3.1-.9c-.9-.6-1.7-1.4-2.3-2.4-.6-1-.8-2.1-.8-3.3s.2-1.8.5-2.6.8-1.5,1.3-2.1,1.2-1.1,2-1.4c.8-.3,1.6-.5,2.4-.5s2,.2,2.8.7c.9.5,1.6,1.1,2.2,1.9l-1.9,1c-.4-.5-.9-.9-1.4-1.1-.5-.3-1.1-.4-1.7-.4s-1.5.2-2.1.6c-.6.4-1.1,1-1.5,1.6s-.5,1.4-.5,2.2.2,1.6.6,2.2c.4.7.9,1.2,1.5,1.6.6.4,1.3.6,2.1.6s1.2-.1,1.7-.4c.5-.3,1-.6,1.4-1.1Z"/>
      <path d="M1227.3,853.8h-2.8v10.4h-2.1v-10.4s-2.1,0-2.1,0v-2.1h2.1v-3.9s2.1,0,2.1,0v3.9h2.8v2.1Z"/>
      <path d="M1230.5,849.7c-.3,0-.6-.1-.8-.3-.2-.2-.3-.5-.3-.8s.1-.6.3-.8c.2-.2.5-.3.8-.3s.6.1.8.3c.2.2.3.5.3.8s-.1.6-.3.8c-.2.2-.5.3-.8.3ZM1229.4,851.7h2.1v12.5h-2.1v-12.5Z"/>
      <path d="M1240.8,864.2h-2.7l-4.6-12.5h2.2l3.7,10.1,3.7-10.1h2.2l-4.5,12.5Z"/>
      <path d="M1252.3,864.5c-1.1,0-2.2-.3-3.1-.9-.9-.6-1.7-1.4-2.3-2.4-.6-1-.8-2.1-.8-3.3s.2-1.8.5-2.6.8-1.5,1.3-2.1,1.2-1.1,2-1.4c.8-.3,1.6-.5,2.4-.5s2.2.3,3.1.9c.9.6,1.7,1.4,2.3,2.4.6,1,.8,2.1.8,3.3s-.2,1.8-.5,2.5c-.3.8-.8,1.5-1.3,2.1s-1.2,1.1-2,1.4c-.8.3-1.6.5-2.4.5ZM1252.3,862.4c.8,0,1.5-.2,2.1-.6.6-.4,1.1-1,1.5-1.6.4-.7.5-1.4.5-2.2s-.2-1.6-.6-2.2c-.4-.7-.9-1.2-1.5-1.6-.6-.4-1.3-.6-2.1-.6s-1.5.2-2.1.6-1.1,1-1.5,1.6-.5,1.4-.5,2.2.2,1.6.6,2.3.9,1.2,1.5,1.6,1.3.6,2.1.6Z"/>
    </g>
    <text class="st8" transform="translate(1001.8 983.8) rotate(-90)"><tspan x="0" y="0">DISEÑO DE TEMAS</tspan></text>
    <text class="st8" transform="translate(1392.5 987.5) rotate(-90)"><tspan x="0" y="0">SOPORTE OJS/OMP</tspan></text>
    <path class="st11" d="M1275.1,578.3c-21.6,0-43.3.2-64.9.3-8-19.9-16-39.7-24-59.6"/>
    <g>
      <path d="M1133.7,453.6v-17.5h5.8c.9,0,1.8.2,2.5.7.8.5,1.4,1.1,1.8,1.9.4.8.7,1.6.7,2.6s-.2,1.9-.7,2.6c-.5.8-1.1,1.4-1.8,1.8s-1.6.7-2.5.7h-3.7v7.2h-2.1ZM1135.8,444.3h3.5c.6,0,1.1-.1,1.6-.4.5-.3.8-.7,1.1-1.1.3-.5.4-1,.4-1.6s-.1-1.2-.4-1.6c-.3-.5-.7-.9-1.1-1.1-.5-.3-1-.4-1.6-.4h-3.5v6.4Z"/>
      <path d="M1146.6,453.6v-12.5h2.1v1.6c.4-.6,1-1,1.7-1.4.7-.3,1.4-.5,2.2-.5s.9,0,1.4.2l-.8,2.1c-.3-.1-.7-.2-1-.2-.6,0-1.2.2-1.7.5-.5.3-.9.7-1.2,1.2s-.5,1.1-.5,1.7v7.3h-2.1Z"/>
      <path d="M1160.4,454c-1.1,0-2.2-.3-3.1-.9-.9-.6-1.7-1.4-2.3-2.4-.6-1-.8-2.1-.8-3.3s.2-1.8.5-2.6c.3-.8.8-1.5,1.3-2.1.6-.6,1.2-1.1,2-1.4.8-.3,1.6-.5,2.4-.5s1.8.2,2.6.6c.8.4,1.5.9,2,1.6.6.7,1,1.5,1.3,2.3.3.9.4,1.8.3,2.9h-10.2c.1.7.3,1.3.7,1.9s.8,1,1.4,1.3,1.2.5,1.9.5c.8,0,1.4-.2,2-.6.6-.4,1.1-.9,1.5-1.6l2.1.5c-.5,1.1-1.3,2-2.3,2.7-1,.7-2.1,1.1-3.4,1.1ZM1156.3,446.5h8.1c0-.7-.3-1.3-.7-1.9-.4-.6-.9-1-1.5-1.4-.6-.4-1.2-.5-1.9-.5s-1.3.2-1.9.5-1.1.8-1.4,1.4-.6,1.2-.7,1.9Z"/>
      <path d="M1172.5,453.9c-.7,0-1.3-.2-2-.4s-1.2-.5-1.7-.9-.8-.9-1-1.4l1.8-.8c.1.3.3.5.7.8.3.2.7.4,1.1.6.4.1.9.2,1.3.2s.9,0,1.3-.2c.4-.1.7-.4,1-.6.3-.3.4-.6.4-1s-.1-.7-.4-1-.6-.4-1-.6c-.4-.1-.8-.3-1.3-.4-.9-.2-1.6-.5-2.3-.8-.7-.3-1.2-.7-1.6-1.2-.4-.5-.6-1.1-.6-1.8s.2-1.4.6-2c.4-.6,1-1,1.7-1.3.7-.3,1.4-.5,2.2-.5s1.9.2,2.8.6c.8.4,1.5,1,1.9,1.8l-1.7,1c-.1-.3-.4-.6-.6-.8-.3-.2-.6-.4-1-.5-.4-.1-.8-.2-1.1-.2-.5,0-.9,0-1.4.2-.4.1-.8.4-1,.6-.3.3-.4.6-.4,1.1s.1.7.4.9c.3.2.6.4,1.1.5.4.1.9.3,1.4.4.8.2,1.5.5,2.1.8.7.3,1.2.7,1.6,1.2.4.5.6,1.1.6,1.8,0,.8-.2,1.4-.7,2s-1.1,1-1.8,1.3c-.7.3-1.5.4-2.3.4Z"/>
      <path d="M1186,443.2h-2.8v10.4h-2.1v-10.4s-2.1,0-2.1,0v-2.1h2.1v-3.9s2.1,0,2.1,0v3.9h2.8v2.1Z"/>
      <path d="M1197.9,441.1h2.1v12.5h-2.1v-2.1c-.5.7-1,1.3-1.7,1.8-.7.4-1.5.7-2.5.7s-1.8-.2-2.6-.5c-.8-.3-1.5-.8-2.1-1.4-.6-.6-1.1-1.3-1.4-2.1-.3-.8-.5-1.7-.5-2.6s.2-1.7.5-2.5.8-1.5,1.4-2.1c.6-.6,1.3-1.1,2.1-1.4.8-.3,1.6-.5,2.5-.5s1.8.2,2.6.7c.7.5,1.3,1.1,1.8,1.8v-2.1ZM1193.7,451.9c.8,0,1.5-.2,2.1-.6s1.1-1,1.4-1.6c.3-.7.5-1.5.5-2.3s-.2-1.6-.5-2.3c-.3-.7-.8-1.2-1.4-1.6-.6-.4-1.3-.6-2.1-.6s-1.6.2-2.2.6c-.7.4-1.2,1-1.6,1.6s-.6,1.5-.6,2.3.2,1.6.6,2.3c.4.7.9,1.2,1.6,1.6.7.4,1.4.6,2.2.6Z"/>
      <path d="M1202.5,453.6v-12.5h2.1v1.6c.4-.6,1-1,1.7-1.4.7-.3,1.4-.5,2.2-.5s1.8.2,2.5.7c.8.4,1.4,1,1.8,1.8.4-.7,1-1.3,1.8-1.8.8-.4,1.6-.7,2.5-.7s1.8.2,2.6.7c.8.5,1.4,1.1,1.8,1.8s.7,1.6.7,2.6v7.8h-2.1v-7.3c0-.6-.2-1.2-.5-1.7-.3-.5-.7-.9-1.2-1.3s-1.1-.5-1.7-.5-1.2.1-1.7.4-.9.7-1.2,1.2c-.3.5-.5,1.1-.5,1.8v7.3h-2.1v-7.3c0-.7-.1-1.3-.4-1.8-.3-.5-.7-.9-1.2-1.2s-1.1-.4-1.7-.4-1.2.2-1.7.5-.9.7-1.2,1.3-.4,1.1-.4,1.7v7.3h-2.1Z"/>
      <path d="M1229.9,454c-1.1,0-2.2-.3-3.1-.9-.9-.6-1.7-1.4-2.3-2.4-.6-1-.8-2.1-.8-3.3s.2-1.8.5-2.6c.3-.8.8-1.5,1.3-2.1.6-.6,1.2-1.1,2-1.4.8-.3,1.6-.5,2.4-.5s2.2.3,3.1.9c.9.6,1.7,1.4,2.3,2.4.6,1,.8,2.1.8,3.3s-.2,1.8-.5,2.5c-.3.8-.8,1.5-1.3,2.1-.6.6-1.2,1.1-2,1.4-.8.3-1.6.5-2.4.5ZM1229.9,451.9c.8,0,1.5-.2,2.1-.6.6-.4,1.1-1,1.5-1.6.4-.7.5-1.4.5-2.2s-.2-1.6-.6-2.2c-.4-.7-.9-1.2-1.5-1.6-.6-.4-1.3-.6-2.1-.6s-1.5.2-2.1.6-1.1,1-1.5,1.6-.5,1.4-.5,2.2.2,1.6.6,2.3c.4.7.9,1.2,1.5,1.6.6.4,1.3.6,2.1.6Z"/>
      <path d="M1242.1,453.9c-.7,0-1.3-.2-2-.4s-1.2-.5-1.7-.9-.8-.9-1-1.4l1.8-.8c.1.3.3.5.7.8.3.2.7.4,1.1.6.4.1.9.2,1.3.2s.9,0,1.3-.2c.4-.1.7-.4,1-.6.3-.3.4-.6.4-1s-.1-.7-.4-1-.6-.4-1-.6c-.4-.1-.8-.3-1.3-.4-.9-.2-1.6-.5-2.3-.8-.7-.3-1.2-.7-1.6-1.2-.4-.5-.6-1.1-.6-1.8s.2-1.4.6-2c.4-.6,1-1,1.7-1.3.7-.3,1.4-.5,2.2-.5s1.9.2,2.8.6c.8.4,1.5,1,1.9,1.8l-1.7,1c-.1-.3-.4-.6-.6-.8-.3-.2-.6-.4-1-.5-.4-.1-.8-.2-1.1-.2-.5,0-.9,0-1.4.2-.4.1-.8.4-1,.6-.3.3-.4.6-.4,1.1s.1.7.4.9c.3.2.6.4,1.1.5.4.1.9.3,1.4.4.8.2,1.5.5,2.1.8.7.3,1.2.7,1.6,1.2.4.5.6,1.1.6,1.8,0,.8-.2,1.4-.7,2s-1.1,1-1.8,1.3c-.7.3-1.5.4-2.3.4Z"/>
      <path d="M1166.9,475.9c-.6,0-1.3-.2-1.9-.4-.6-.2-1.1-.5-1.6-.9-.5-.4-.8-.8-1.1-1.4l2.6-1.1c0,.2.3.3.5.5.2.2.5.3.8.5.3.1.7.2,1,.2s.6,0,.9-.1c.3,0,.5-.2.7-.4.2-.2.3-.4.3-.7s-.1-.5-.3-.7c-.2-.2-.5-.3-.8-.4s-.6-.2-.9-.2c-.8-.2-1.5-.4-2.2-.7-.7-.3-1.2-.8-1.6-1.3-.4-.5-.6-1.2-.6-1.9s.2-1.5.7-2.1c.4-.6,1-1.1,1.7-1.4.7-.3,1.5-.5,2.3-.5s1.9.2,2.7.6,1.5,1,2,1.7l-2.4,1.4c-.1-.2-.3-.4-.5-.6-.2-.2-.4-.3-.7-.4-.3-.1-.5-.2-.8-.2-.4,0-.7,0-1,0-.3,0-.6.2-.7.4-.2.2-.3.5-.3.8s.1.6.4.7c.2.2.6.3.9.4.4,0,.7.2,1,.3.7.2,1.4.5,2.1.9.6.4,1.2.8,1.6,1.3s.6,1.1.6,1.8c0,.8-.2,1.5-.7,2.1-.5.6-1.1,1.1-1.9,1.4s-1.6.4-2.4.4Z"/>
      <path d="M1179.4,476c-1.1,0-2.2-.3-3.1-.9-.9-.6-1.7-1.4-2.3-2.4-.6-1-.8-2.1-.8-3.3s.2-1.8.5-2.6c.3-.8.8-1.5,1.3-2.1.6-.6,1.2-1.1,2-1.4.8-.3,1.6-.5,2.4-.5s1.9.2,2.7.6,1.5,1,2.1,1.7c.6.7,1,1.5,1.2,2.4.3.9.3,1.9.2,2.9h-9.1c.1.5.3.9.6,1.3.3.4.6.7,1,.9.4.2.9.3,1.4.3.5,0,1-.1,1.5-.4s.8-.6,1.1-1.1l3.1.7c-.5,1.1-1.3,2-2.3,2.7-1,.7-2.1,1.1-3.4,1.1ZM1176.3,468.2h6.1c0-.5-.3-1-.6-1.4-.3-.4-.7-.7-1.1-1-.4-.2-.9-.4-1.4-.4s-1,.1-1.4.4c-.4.2-.8.6-1.1,1-.3.4-.5.9-.6,1.4Z"/>
      <path d="M1187.6,475.7v-12.5s3,0,3,0v1.1c.4-.4.9-.8,1.5-1.1.6-.3,1.2-.4,1.9-.4s.9,0,1.4.2l-1.2,3.1c-.3-.1-.6-.2-.9-.2-.5,0-.9.1-1.3.4-.4.2-.7.6-1,1-.2.4-.4.9-.4,1.3v7.1h-3Z"/>
      <path d="M1204.9,475.7h-3.9l-4.5-12.5h3.2l3.3,9,3.3-9h3.2l-4.5,12.5Z"/>
      <path d="M1212.9,461.6c-.4,0-.8-.1-1.1-.4-.3-.3-.5-.7-.5-1.1s.2-.8.5-1.1c.3-.3.7-.4,1.1-.4s.8.1,1.1.4c.3.3.5.7.5,1.1s-.2.8-.5,1.1-.7.4-1.1.4ZM1211.3,463.2h3v12.5h-3v-12.5Z"/>
      <path d="M1224.8,472l2.7,1.5c-.6.8-1.3,1.4-2.2,1.9s-1.8.7-2.8.7-2.2-.3-3.1-.9c-.9-.6-1.7-1.4-2.3-2.4-.6-1-.8-2.1-.8-3.3s.2-1.8.5-2.6c.3-.8.8-1.5,1.3-2.1.6-.6,1.2-1.1,2-1.4.8-.3,1.6-.5,2.4-.5s2,.2,2.8.7,1.6,1.1,2.2,1.9l-2.7,1.5c-.3-.3-.6-.6-1-.8s-.8-.3-1.2-.3c-.6,0-1.1.2-1.6.5-.5.3-.9.8-1.1,1.3-.3.5-.4,1.1-.4,1.8s.1,1.2.4,1.7.7,1,1.1,1.3c.5.3,1,.5,1.6.5s.8,0,1.2-.3.7-.4,1-.8Z"/>
      <path d="M1230.9,461.6c-.4,0-.8-.1-1.1-.4-.3-.3-.5-.7-.5-1.1s.2-.8.5-1.1c.3-.3.7-.4,1.1-.4s.8.1,1.1.4c.3.3.5.7.5,1.1s-.2.8-.5,1.1-.7.4-1.1.4ZM1229.4,463.2h3v12.5h-3v-12.5Z"/>
      <path d="M1240.6,476c-1.1,0-2.2-.3-3.1-.9-.9-.6-1.7-1.4-2.3-2.4-.6-1-.8-2.1-.8-3.3s.2-1.8.5-2.6c.3-.8.8-1.5,1.3-2.1.6-.6,1.2-1.1,2-1.4.8-.3,1.6-.5,2.4-.5s2.2.3,3.1.9c.9.6,1.7,1.4,2.3,2.4.6,1,.8,2.1.8,3.3s-.2,1.8-.5,2.5c-.3.8-.8,1.5-1.3,2.1-.6.6-1.2,1.1-2,1.4-.8.3-1.6.5-2.4.5ZM1240.6,473c.6,0,1.2-.2,1.6-.5.5-.3.9-.8,1.1-1.3.3-.5.4-1.1.4-1.7s-.1-1.2-.4-1.8c-.3-.5-.7-1-1.2-1.3-.5-.3-1-.5-1.6-.5s-1.1.2-1.6.5c-.5.3-.9.8-1.1,1.3s-.4,1.1-.4,1.8.1,1.3.4,1.8c.3.5.7,1,1.2,1.3.5.3,1,.5,1.6.5Z"/>
      <path d="M1129.9,488.4h-2.4v9.4h-3v-9.4h-1.8v-3h1.8v-3.9h3v3.9h2.4v3Z"/>
      <path d="M1137.4,498.1c-1.1,0-2.2-.3-3.1-.9-.9-.6-1.7-1.4-2.3-2.4-.6-1-.8-2.1-.8-3.3s.2-1.8.5-2.6c.3-.8.8-1.5,1.3-2.1.6-.6,1.2-1.1,2-1.4.8-.3,1.6-.5,2.4-.5s2.2.3,3.1.9c.9.6,1.7,1.4,2.3,2.4.6,1,.8,2.1.8,3.3s-.2,1.8-.5,2.5c-.3.8-.8,1.5-1.3,2.1-.6.6-1.2,1.1-2,1.4-.8.3-1.6.5-2.4.5ZM1137.4,495.1c.6,0,1.2-.2,1.6-.5.5-.3.9-.8,1.1-1.3.3-.5.4-1.1.4-1.7s-.1-1.2-.4-1.8c-.3-.5-.7-1-1.2-1.3-.5-.3-1-.5-1.6-.5s-1.1.2-1.6.5c-.5.3-.9.8-1.1,1.3s-.4,1.1-.4,1.8.1,1.3.4,1.8c.3.5.7,1,1.2,1.3.5.3,1,.5,1.6.5Z"/>
      <path d="M1155.1,479.1h3v18.7h-3v-1.6c-.4.6-.9,1-1.5,1.4-.6.3-1.3.5-2.1.5s-1.8-.2-2.5-.5-1.5-.8-2.1-1.4c-.6-.6-1.1-1.3-1.4-2.1-.3-.8-.5-1.6-.5-2.5s.2-1.8.5-2.5c.3-.8.8-1.5,1.4-2.1s1.3-1.1,2.1-1.4,1.6-.5,2.5-.5,1.5.2,2.1.5c.6.3,1.1.8,1.5,1.4v-7.8ZM1151.5,495.2c.6,0,1.2-.2,1.7-.5.5-.3.9-.8,1.2-1.3s.4-1.2.4-1.8-.1-1.3-.4-1.8-.7-1-1.2-1.3c-.5-.3-1.1-.5-1.7-.5s-1.2.2-1.8.5c-.5.3-.9.8-1.3,1.3-.3.5-.5,1.2-.5,1.8s.2,1.3.5,1.8c.3.5.7,1,1.3,1.3s1.1.5,1.7.5Z"/>
      <path d="M1166.4,498.1c-1.1,0-2.2-.3-3.1-.9-.9-.6-1.7-1.4-2.3-2.4-.6-1-.8-2.1-.8-3.3s.2-1.8.5-2.6c.3-.8.8-1.5,1.3-2.1.6-.6,1.2-1.1,2-1.4.8-.3,1.6-.5,2.4-.5s2.2.3,3.1.9c.9.6,1.7,1.4,2.3,2.4.6,1,.8,2.1.8,3.3s-.2,1.8-.5,2.5c-.3.8-.8,1.5-1.3,2.1-.6.6-1.2,1.1-2,1.4-.8.3-1.6.5-2.4.5ZM1166.4,495.1c.6,0,1.2-.2,1.6-.5.5-.3.9-.8,1.1-1.3.3-.5.4-1.1.4-1.7s-.1-1.2-.4-1.8c-.3-.5-.7-1-1.2-1.3-.5-.3-1-.5-1.6-.5s-1.1.2-1.6.5c-.5.3-.9.8-1.1,1.3s-.4,1.1-.4,1.8.1,1.3.4,1.8c.3.5.7,1,1.2,1.3.5.3,1,.5,1.6.5Z"/>
      <path d="M1186.4,498.1c-1.1,0-2.2-.3-3.1-.9-.9-.6-1.7-1.4-2.3-2.4-.6-1-.8-2.1-.8-3.3s.2-1.8.5-2.6c.3-.8.8-1.5,1.3-2.1.6-.6,1.2-1.1,2-1.4.8-.3,1.6-.5,2.4-.5s1.9.2,2.7.6,1.5,1,2.1,1.7c.6.7,1,1.5,1.2,2.4.3.9.3,1.9.2,2.9h-9.1c.1.5.3.9.6,1.3.3.4.6.7,1,.9.4.2.9.3,1.4.3.5,0,1-.1,1.5-.4s.8-.6,1.1-1.1l3.1.7c-.5,1.1-1.3,2-2.3,2.7-1,.7-2.1,1.1-3.4,1.1ZM1183.3,490.3h6.1c0-.5-.3-1-.6-1.4-.3-.4-.7-.7-1.1-1-.4-.2-.9-.4-1.4-.4s-1,.1-1.4.4c-.4.2-.8.6-1.1,1-.3.4-.5.9-.6,1.4Z"/>
      <path d="M1194.4,497.8v-18.7h3v18.7h-3Z"/>
      <path d="M1215.9,485.3h3v12.5h-3v-1.5c-.5.6-.9,1-1.5,1.4-.6.3-1.2.5-2,.5s-1.8-.2-2.6-.5-1.5-.8-2.1-1.4c-.6-.6-1.1-1.3-1.4-2.1s-.5-1.7-.5-2.6.2-1.7.5-2.5c.3-.8.8-1.5,1.4-2.1.6-.6,1.3-1.1,2-1.4s1.6-.5,2.5-.5,1.6.2,2.2.5c.7.4,1.2.8,1.7,1.4v-1.6ZM1212.3,495.2c.6,0,1.2-.2,1.7-.5.5-.3.9-.8,1.2-1.3s.4-1.2.4-1.8-.1-1.3-.4-1.8-.7-1-1.2-1.3c-.5-.3-1.1-.5-1.7-.5s-1.2.2-1.8.5c-.5.3-.9.8-1.3,1.3-.3.5-.5,1.2-.5,1.8s.2,1.3.5,1.8c.3.5.7,1,1.3,1.3s1.1.5,1.7.5Z"/>
      <path d="M1232.9,489.9v7.9h-3v-7.1c0-.5-.1-.9-.4-1.3-.2-.4-.6-.7-1-1-.4-.2-.9-.4-1.3-.4s-.9.1-1.3.4c-.4.2-.7.6-1,1-.2.4-.4.9-.4,1.3v7.1h-3v-12.5s3,0,3,0v1.1c.4-.4.9-.8,1.5-1.1.6-.3,1.2-.4,1.9-.4s1.7.2,2.5.7c.7.4,1.3,1,1.8,1.8s.7,1.6.7,2.5ZM1229.3,484c-.3,0-.7-.1-1.1-.3-.4-.2-.8-.5-1.3-.7-.4-.3-.8-.5-1.1-.6-.3-.2-.5-.2-.6,0-.1.1-.2.2-.2.4,0,.2,0,.4,0,.7l-1.8.5c-.2-.6-.3-1.2-.2-1.8.1-.5.4-1,.7-1.3.4-.3.9-.5,1.5-.5s.7,0,1.1.3.8.4,1.2.6.8.4,1.1.6c.3.2.5.3.7.3s.3,0,.3-.2c0-.1,0-.3,0-.4,0-.2,0-.3-.1-.5l1.8-.6c.2.7.3,1.3.1,1.8-.1.5-.4,1-.8,1.3-.4.3-.9.5-1.5.5Z"/>
      <path d="M1240.6,498.1c-1.1,0-2.2-.3-3.1-.9-.9-.6-1.7-1.4-2.3-2.4-.6-1-.8-2.1-.8-3.3s.2-1.8.5-2.6c.3-.8.8-1.5,1.3-2.1.6-.6,1.2-1.1,2-1.4.8-.3,1.6-.5,2.4-.5s2.2.3,3.1.9c.9.6,1.7,1.4,2.3,2.4.6,1,.8,2.1.8,3.3s-.2,1.8-.5,2.5c-.3.8-.8,1.5-1.3,2.1-.6.6-1.2,1.1-2,1.4-.8.3-1.6.5-2.4.5ZM1240.6,495.1c.6,0,1.2-.2,1.6-.5.5-.3.9-.8,1.1-1.3.3-.5.4-1.1.4-1.7s-.1-1.2-.4-1.8c-.3-.5-.7-1-1.2-1.3-.5-.3-1-.5-1.6-.5s-1.1.2-1.6.5c-.5.3-.9.8-1.1,1.3s-.4,1.1-.4,1.8.1,1.3.4,1.8c.3.5.7,1,1.2,1.3.5.3,1,.5,1.6.5Z"/>
    </g>
  </g>
</svg>