<?xml version="1.0" encoding="UTF-8"?>
<svg id="Capa_2" data-name="Capa 2" xmlns="http://www.w3.org/2000/svg" viewBox="0 0 1009.18 338.56">
  <defs>
    <style>
      .cls-1 {
        fill: #fff;
      }
    </style>
  </defs>
  <g id="Capa_1-2" data-name="Capa 1">
    <g>
      <path class="cls-1" d="M934.44,51.11c13.44,0,24.37,10.93,24.37,24.37v46.76c0,13.44-10.93,24.37-24.37,24.37h-182.19c-13.44,0-24.37-10.93-24.37-24.37v-46.76c0-13.44,10.93-24.37,24.37-24.37h182.19M934.44.78h-182.19c-41.25,0-74.69,33.44-74.69,74.69v46.76c0,41.25,33.44,74.69,74.69,74.69h182.19c41.25,0,74.69-33.44,74.69-74.69v-46.76c0-41.25-33.44-74.69-74.69-74.69h0Z"/>
      <rect class="cls-1" x="562.06" y="0" width="61" height="330.8"/>
      <path class="cls-1" d="M349.71,79.02c6.9-10.9,15.07-18.89,24.52-23.98l2.18-.55h131.15V0h-133.33c-10.9,0-22.16,3.27-33.79,9.81-5.09,2.91-12.08,8.81-20.98,17.71-8.91,8.91-15.18,16.08-18.8,21.53-5.82,8.72-8.72,18.89-8.72,30.52v171.67h.03s-.03,0-.03,0c0,11.62,2.9,21.8,8.72,30.52,3.63,5.45,9.9,12.62,18.8,21.53,8.9,8.9,15.89,14.8,20.98,17.71,11.62,6.54,22.89,9.81,33.79,9.81h133.33v-54.5h-131.15l-2.18-.55c-9.45-5.09-17.63-13.08-24.52-23.98-.37-.73-.54-2.73-.54-5.99V85.01c0-3.27.18-5.26.54-5.99Z"/>
      <path class="cls-1" d="M83.34.78c-10.9,0-22.17,3.27-33.79,9.81-5.45,3.27-12.63,9.36-21.53,18.26s-15.17,15.9-18.8,20.98c-5.45,7.99-8.18,18.35-8.18,31.06v29.43c0,13.45,3.72,25.8,11.17,37.06,7.44,11.26,17.89,18.71,31.34,22.34l141.69,40.33c4.36.73,6.54,3.81,6.54,9.26v32.15c0,2.18-3.09,6.36-9.26,12.53-6.18,6.18-11.27,10.36-15.26,12.53l-3.27.55H0v54.5h54.25c123.37,0,134.62-3.27,146.26-9.81,5.45-2.91,12.53-8.8,21.25-17.71,8.72-8.9,14.89-16.08,18.53-21.53,5.81-7.98,8.72-18.34,8.72-31.06v-34.33c0-13.08-3.81-25.34-11.44-36.79-7.63-11.44-17.98-18.98-31.06-22.62l-142.24-41.42c-4-.72-5.99-3.81-5.99-9.26v-27.25c0-2.18,2.81-6.18,8.45-11.99,5.63-5.81,10.63-9.81,14.99-11.99l3.27-.54h155.67V.78H83.34Z"/>
      <g>
        <path class="cls-1" d="M967.22,273.55c-10.88,7.25-23.61,10.93-37.83,10.93h-172.16c-14.22,0-26.95-3.68-37.84-10.93-6.21-4.13-13.92-10.83-23.58-20.49-8.6-8.6-14.64-15.63-18.38-21.38v24.35c0,10.93,3.28,22.23,9.84,33.88,2.92,5.11,8.83,12.12,17.76,21.04,8.93,8.93,16.12,15.22,21.59,18.86,8.75,5.83,18.95,8.74,30.6,8.74v-.03s0,.03,0,.03h172.16c11.66,0,21.86-2.91,30.6-8.74,5.47-3.64,12.65-9.92,21.59-18.86,8.92-8.92,14.84-15.93,17.76-21.04,6.56-11.66,9.84-22.95,9.84-33.88v-24.36c-3.77,5.8-9.81,12.81-18.38,21.38-9.65,9.65-17.36,16.35-23.58,20.49Z"/>
        <path class="cls-1" d="M1009.15,160.2c-3.78,5.79-9.8,12.8-18.36,21.35-9.65,9.65-17.36,16.35-23.58,20.49-10.52,7.02-22.79,10.66-36.46,10.89-.46,0-.91.04-1.37.04h-172.16c-.46,0-.91-.04-1.37-.04-13.67-.23-25.94-3.87-36.47-10.89-6.21-4.13-13.92-10.83-23.58-20.48-8.58-8.58-14.61-15.59-18.35-21.34,0,.22-.02.44-.02.65v28.05c0,10.93,3.28,22.23,9.84,33.88,2.92,5.11,8.83,12.12,17.76,21.04,8.93,8.93,16.12,15.22,21.59,18.86,8.75,5.83,18.95,8.74,30.6,8.74v-.03s0,.03,0,.03h172.16c11.66,0,21.86-2.91,30.6-8.74,5.47-3.64,12.65-9.92,21.59-18.86,8.92-8.92,14.84-15.93,17.76-21.04,6.56-11.66,9.84-22.95,9.84-33.88v-28.05c0-.22-.02-.44-.02-.66Z"/>
      </g>
    </g>
  </g>
</svg>