<?xml version="1.0" encoding="UTF-8"?>
<svg id="Capa_2" xmlns="http://www.w3.org/2000/svg" viewBox="0 0 1116 374.4">
  <defs>
    <style>
      .cls-1 {
        fill: #ce3c15;
      }

      .cls-2 {
        fill: #036e7c;
      }

      .cls-3 {
        fill: #f29c37;
      }
    </style>
  </defs>
  <g id="Capa_1-2" data-name="Capa_1">
    <g>
      <path class="cls-2" d="M1033.35,56.52c14.86,0,26.95,12.09,26.95,26.95v51.7c0,14.86-12.09,26.95-26.95,26.95h-201.48c-14.86,0-26.95-12.09-26.95-26.95v-51.7c0-14.86,12.09-26.95,26.95-26.95h201.48M1033.35.87h-201.48c-45.62,0-82.6,36.98-82.6,82.6v51.7c0,45.62,36.98,82.6,82.6,82.6h201.48c45.62,0,82.6-36.98,82.6-82.6v-51.7c0-45.62-36.98-82.6-82.6-82.6h0Z"/>
      <rect class="cls-2" x="621.55" y="0" width="67.46" height="365.81"/>
      <path class="cls-2" d="M386.73,87.39c7.63-12.05,16.67-20.89,27.12-26.52l2.41-.6h145.03V0h-147.44c-12.05,0-24.51,3.62-37.36,10.85-5.63,3.22-13.36,9.74-23.2,19.58-9.85,9.85-16.78,17.78-20.79,23.81-6.43,9.65-9.64,20.89-9.64,33.75v189.84h.04s-.04,0-.04,0c0,12.85,3.21,24.1,9.64,33.75,4.01,6.03,10.94,13.95,20.79,23.81,9.84,9.84,17.57,16.36,23.2,19.58,12.85,7.23,25.31,10.85,37.36,10.85h147.44v-60.26h-145.03l-2.41-.6c-10.45-5.63-19.49-14.46-27.12-26.52-.4-.81-.6-3.01-.6-6.63V94.01c0-3.61.2-5.82.6-6.63Z"/>
      <path class="cls-2" d="M92.17.87c-12.05,0-24.51,3.61-37.37,10.85-6.03,3.62-13.96,10.35-23.81,20.19s-16.78,17.58-20.79,23.2C4.18,63.94,1.16,75.4,1.16,89.46v32.54c0,14.87,4.12,28.53,12.35,40.98,8.23,12.46,19.78,20.7,34.65,24.71l156.69,44.6c4.82.81,7.23,4.22,7.23,10.24v35.56c0,2.41-3.42,7.03-10.24,13.86-6.84,6.83-12.46,11.45-16.87,13.86l-3.62.6H0v60.26h60c136.43,0,148.87-3.62,161.74-10.85,6.03-3.21,13.86-9.74,23.5-19.59,9.64-9.84,16.47-17.78,20.49-23.81,6.42-8.83,9.64-20.28,9.64-34.35v-37.97c0-14.47-4.22-28.02-12.66-40.68-8.44-12.65-19.89-20.99-34.35-25.01l-157.29-45.8c-4.43-.8-6.63-4.22-6.63-10.24v-30.13c0-2.41,3.11-6.83,9.34-13.26,6.23-6.42,11.75-10.85,16.57-13.26l3.62-.6h172.15V.87H92.17Z"/>
      <g>
        <path class="cls-3" d="M1069.6,302.5c-12.03,8.02-26.11,12.09-41.83,12.09h-190.38c-15.73,0-29.8-4.07-41.84-12.09-6.86-4.57-15.39-11.98-26.07-22.66-9.51-9.51-16.19-17.28-20.32-23.64v26.93c0,12.09,3.63,24.58,10.88,37.47,3.23,5.65,9.77,13.4,19.64,23.27,9.88,9.88,17.83,16.83,23.87,20.85,9.67,6.45,20.95,9.67,33.84,9.67v-.04s0,.04,0,.04h190.38c12.89,0,24.17-3.22,33.84-9.67,6.04-4.02,13.99-10.97,23.87-20.85,9.87-9.87,16.41-17.62,19.64-23.27,7.25-12.89,10.88-25.38,10.88-37.47v-26.94c-4.17,6.41-10.84,14.16-20.33,23.65-10.67,10.67-19.19,18.08-26.08,22.66Z"/>
        <path class="cls-1" d="M1115.97,177.16c-4.18,6.41-10.84,14.15-20.3,23.61-10.67,10.67-19.19,18.08-26.08,22.66-11.63,7.76-25.2,11.78-40.32,12.04-.51,0-1,.05-1.51.05h-190.38c-.51,0-1.01-.04-1.51-.05-15.12-.26-28.69-4.28-40.33-12.04-6.86-4.56-15.39-11.98-26.07-22.65-9.48-9.48-16.16-17.24-20.3-23.6,0,.24-.03.48-.03.72v31.02c0,12.09,3.63,24.58,10.88,37.47,3.23,5.65,9.77,13.4,19.64,23.27,9.88,9.88,17.83,16.83,23.87,20.85,9.67,6.45,20.95,9.67,33.84,9.67v-.04s0,.04,0,.04h190.38c12.89,0,24.17-3.22,33.84-9.67,6.04-4.02,13.99-10.97,23.87-20.85,9.87-9.87,16.41-17.62,19.64-23.27,7.25-12.89,10.88-25.38,10.88-37.47v-31.02c0-.24-.02-.49-.03-.73Z"/>
      </g>
    </g>
  </g>
</svg>