<?xml version="1.0" encoding="UTF-8"?>
<svg id="Capa_2" data-name="Capa 2" xmlns="http://www.w3.org/2000/svg" viewBox="0 0 1922 1081.5">
  <defs>
    <style>
      .cls-1 {
        fill: #fff;
      }

      .cls-2 {
        opacity: .72;
      }

      .cls-3 {
        fill: #046e7c;
      }
    </style>
  </defs>
  <g id="Texto">
    <g>
      <rect class="cls-3" width="1922" height="1081.5"/>
      <g>
        <g>
          <path class="cls-1" d="M114.7,531.75l46.74-241.48h22.25l65.2,171.45,65.03-171.45h22.25l46.92,241.48h-29.5l-33.98-175.25-61.23,162.14h-19.15l-61.23-162.14-33.81,175.25h-29.5Z"/>
          <path class="cls-1" d="M470.72,290.26h35.02l87.8,241.48h-30.7l-17.94-49.33h-113.32l-17.77,49.33h-30.88l87.8-241.48ZM442.26,453.44h91.94l-46.05-126.09-45.88,126.09Z"/>
          <path class="cls-1" d="M605.26,531.75v-241.48h84.87c12.88,0,24.52,3.16,34.93,9.49,10.41,6.33,18.69,14.86,24.84,25.62,6.15,10.75,9.23,22.74,9.23,35.96,0,11.62-2.3,22.19-6.9,31.74-4.6,9.55-10.9,17.51-18.89,23.89-7.99,6.38-17.05,10.78-27.17,13.2l58.65,101.6h-33.46l-57.61-99.18h-39.5v99.18h-28.98ZM634.24,403.59h52.96c7.82,0,15.01-1.92,21.56-5.78,6.55-3.85,11.76-9.08,15.61-15.7,3.85-6.61,5.78-14.06,5.78-22.34s-1.93-15.9-5.78-22.51c-3.85-6.61-9.05-11.84-15.61-15.7-6.55-3.85-13.74-5.78-21.56-5.78h-52.96v87.8Z"/>
          <path class="cls-1" d="M945.75,531.75h-37.43l-76.24-104.7-18.11,21.73v82.97h-28.98v-241.48h28.98v113.5l95.04-113.5h37.78l-95.73,114.01,94.7,127.47Z"/>
          <path class="cls-1" d="M956.09,531.75v-241.48h148.17v28.98h-119.19v68.65h97.63v28.98h-97.63v85.9h119.19v28.98h-148.17Z"/>
          <path class="cls-1" d="M1305.2,290.26v28.98h-80.38v212.51h-28.98v-212.51h-80.21v-28.98h189.56Z"/>
          <path class="cls-1" d="M1325.21,531.75v-241.48h28.98v241.48h-28.98Z"/>
          <path class="cls-1" d="M1381.09,531.75v-241.48h31.39l120.57,189.05v-189.05h28.98v241.48h-31.22l-120.74-189.05v189.05h-28.98Z"/>
          <path class="cls-1" d="M1695.71,536.23c-16.67,0-32.23-3.25-46.66-9.75-14.43-6.5-27.02-15.52-37.77-27.08-10.75-11.56-19.18-24.9-25.27-40.02-6.1-15.12-9.14-31.31-9.14-48.56s3.19-34.33,9.57-49.5c6.38-15.18,15.12-28.4,26.22-39.67,11.1-11.27,23.8-20.04,38.12-26.3,14.32-6.27,29.46-9.4,45.45-9.4,18.17,0,35.47,4.26,51.92,12.76,16.44,8.51,30.59,20.81,42.43,36.91l-25.87,13.97c-8.86-11.27-19.35-19.89-31.48-25.87-12.13-5.98-24.58-8.97-37.34-8.97s-23.72,2.47-34.58,7.42c-10.87,4.95-20.47,11.84-28.81,20.7-8.34,8.86-14.86,19.09-19.58,30.7-4.72,11.62-7.07,24.21-7.07,37.78s2.36,25.64,7.07,37.26c4.71,11.62,11.18,21.82,19.4,30.62,8.22,8.8,17.79,15.67,28.72,20.61,10.92,4.95,22.6,7.42,35.02,7.42,9.89,0,19.29-1.67,28.2-5,8.91-3.33,17.13-8.05,24.67-14.14,7.53-6.09,13.97-13.28,19.32-21.56,5.35-8.28,9.4-17.36,12.16-27.25h-59.51v-25.87h93.32c-.12,16.9-3.31,32.77-9.57,47.61-6.27,14.83-14.83,27.89-25.7,39.16-10.87,11.27-23.4,20.09-37.6,26.48-14.21,6.38-29.41,9.57-45.62,9.57Z"/>
        </g>
        <g class="cls-2">
          <path class="cls-1" d="M739.86,782.67c-12.05,0-23.37-2.4-33.97-7.19-10.61-4.79-19.91-11.43-27.93-19.91-8.02-8.48-14.29-18.3-18.83-29.46-4.54-11.15-6.81-23.1-6.81-35.82s2.27-24.79,6.81-35.95c4.54-11.15,10.82-20.95,18.83-29.39,8.02-8.44,17.33-15.06,27.93-19.85,10.6-4.79,21.93-7.19,33.97-7.19,14.42,0,27.7,3.33,39.83,9.99,12.13,6.66,22.18,15.54,30.16,26.66l-27.74,14.89c-5.01-6.19-11.22-11.15-18.64-14.89-7.42-3.73-15.29-5.6-23.6-5.6-7.81,0-15.14,1.59-22.01,4.77-6.87,3.18-12.9,7.59-18.07,13.23-5.18,5.64-9.21,12.17-12.09,19.6-2.88,7.42-4.33,15.33-4.33,23.73s1.46,16.42,4.39,23.79c2.93,7.38,6.98,13.89,12.15,19.53,5.17,5.64,11.18,10.05,18,13.23,6.83,3.18,14.14,4.77,21.95,4.77,8.48,0,16.39-1.89,23.73-5.66,7.34-3.77,13.51-8.76,18.51-14.95l27.74,15.01c-7.97,11.03-18.03,19.89-30.16,26.59-12.13,6.7-25.41,10.05-39.83,10.05Z"/>
          <path class="cls-1" d="M820.15,779.36v-178.14h31.05v178.14h-31.05Z"/>
          <path class="cls-1" d="M867.99,779.36v-178.14h111.72v31.05h-80.67v36.14h64v31.05h-64v48.86h80.67v31.05h-111.72Z"/>
          <path class="cls-1" d="M990.78,779.36v-178.14h33.59l75.2,122.03v-122.03h31.05v178.14h-33.47l-75.33-122.03v122.03h-31.05Z"/>
          <path class="cls-1" d="M1277.97,779.36v-178.14h31.05v178.14h-31.05ZM1285.47,587.22l10.18-36.65h31.05l-20.61,36.65h-20.61Z"/>
          <path class="cls-1" d="M1325.81,779.36v-178.14h105.23v31.05h-74.18v36.14h61.97v31.05h-61.97v79.91h-31.05Z"/>
          <path class="cls-1" d="M1435.74,779.36v-178.14h31.05v178.14h-31.05Z"/>
          <path class="cls-1" d="M1566.04,782.67c-12.05,0-23.37-2.4-33.97-7.19-10.61-4.79-19.91-11.43-27.93-19.91-8.02-8.48-14.29-18.3-18.83-29.46-4.54-11.15-6.81-23.1-6.81-35.82s2.27-24.79,6.81-35.95c4.54-11.15,10.82-20.95,18.83-29.39,8.02-8.44,17.33-15.06,27.93-19.85,10.6-4.79,21.93-7.19,33.97-7.19,14.42,0,27.7,3.33,39.83,9.99,12.13,6.66,22.18,15.54,30.16,26.66l-27.74,14.89c-5.01-6.19-11.22-11.15-18.64-14.89-7.42-3.73-15.29-5.6-23.6-5.6-7.81,0-15.14,1.59-22.01,4.77-6.87,3.18-12.9,7.59-18.07,13.23-5.18,5.64-9.21,12.17-12.09,19.6-2.88,7.42-4.33,15.33-4.33,23.73s1.46,16.42,4.39,23.79c2.93,7.38,6.98,13.89,12.15,19.53,5.17,5.64,11.18,10.05,18,13.23,6.83,3.18,14.14,4.77,21.95,4.77,8.48,0,16.39-1.89,23.73-5.66,7.34-3.77,13.51-8.76,18.51-14.95l27.74,15.01c-7.97,11.03-18.03,19.89-30.16,26.59-12.13,6.7-25.41,10.05-39.83,10.05Z"/>
          <path class="cls-1" d="M1724.33,782.67c-12.05,0-23.37-2.4-33.97-7.19-10.61-4.79-19.94-11.43-27.99-19.91-8.06-8.48-14.38-18.3-18.96-29.46-4.58-11.15-6.87-23.1-6.87-35.82s2.29-24.66,6.87-35.82c4.58-11.15,10.9-20.97,18.96-29.46,8.06-8.48,17.39-15.12,27.99-19.91,10.6-4.79,21.93-7.19,33.97-7.19s23.5,2.4,34.1,7.19c10.6,4.79,19.93,11.43,27.99,19.91,8.06,8.48,14.36,18.3,18.9,29.46,4.54,11.16,6.81,23.09,6.81,35.82s-2.27,24.67-6.81,35.82c-4.54,11.16-10.84,20.98-18.9,29.46-8.06,8.48-17.39,15.12-27.99,19.91-10.61,4.79-21.97,7.19-34.1,7.19ZM1724.33,751.62c7.8,0,15.14-1.61,22.01-4.84,6.87-3.22,12.92-7.65,18.13-13.3,5.22-5.64,9.29-12.15,12.22-19.53,2.93-7.38,4.39-15.27,4.39-23.67s-1.49-16.31-4.45-23.73c-2.97-7.42-7.06-13.93-12.28-19.53-5.22-5.6-11.24-10.01-18.07-13.23-6.83-3.22-14.15-4.83-21.95-4.83s-15.14,1.61-22.01,4.83c-6.87,3.23-12.92,7.66-18.13,13.3-5.22,5.64-9.29,12.15-12.22,19.53-2.93,7.38-4.39,15.27-4.39,23.67s1.48,16.42,4.45,23.79c2.97,7.38,7.06,13.89,12.28,19.53,5.22,5.64,11.24,10.05,18.07,13.23,6.83,3.18,14.14,4.77,21.95,4.77Z"/>
        </g>
        <rect class="cls-1" x="1186" y="299.28" width="40" height="479.96"/>
      </g>
    </g>
  </g>
</svg>