<?xml version="1.0" encoding="UTF-8"?>
<svg id="Capa_2" data-name="Capa 2" xmlns="http://www.w3.org/2000/svg" viewBox="0 0 1922 1081.5">
  <defs>
    <style>
      .cls-1 {
        fill: #fff;
      }

      .cls-2 {
        opacity: .72;
      }

      .cls-3 {
        fill: #046e7c;
      }
    </style>
  </defs>
  <g id="Texto">
    <g>
      <rect class="cls-3" width="1922" height="1081.5"/>
      <g class="cls-2">
        <path class="cls-1" d="M349.33,938.59v-164.14h19.7v164.14h-19.7Z"/>
        <path class="cls-1" d="M385.9,938.59v-164.14h21.34l81.95,128.5v-128.5h19.7v164.14h-21.22l-82.07-128.5v128.5h-19.7Z"/>
        <path class="cls-1" d="M576.88,938.59l-59.56-164.14h20.87l50.88,140.1,51-140.1h20.75l-59.56,164.14h-24.39Z"/>
        <path class="cls-1" d="M667.27,938.59v-164.14h100.71v19.7h-81.01v46.66h66.36v19.7h-66.36v58.39h81.01v19.7h-100.71Z"/>
        <path class="cls-1" d="M836.8,941.64c-8.83,0-17.35-1.39-25.56-4.16-8.21-2.77-15.38-6.74-21.51-11.9-6.14-5.16-10.49-11.29-13.07-18.41l18.41-6.92c1.56,4.38,4.47,8.19,8.73,11.43,4.26,3.24,9.28,5.76,15.07,7.56,5.78,1.8,11.76,2.7,17.94,2.7,7.03,0,13.58-1.15,19.64-3.46,6.06-2.3,10.96-5.53,14.71-9.67,3.75-4.14,5.63-8.99,5.63-14.54s-1.95-10.38-5.86-14.01c-3.91-3.63-8.91-6.53-15.01-8.68-6.1-2.15-12.47-3.81-19.11-4.98-11.33-1.88-21.48-4.55-30.42-8.03-8.95-3.48-16.02-8.34-21.22-14.6-5.2-6.25-7.8-14.5-7.8-24.74,0-9.53,2.75-17.86,8.27-24.97,5.51-7.11,12.8-12.62,21.87-16.53,9.07-3.91,18.83-5.86,29.31-5.86,8.68,0,17.1,1.35,25.26,4.04,8.17,2.7,15.38,6.62,21.63,11.78,6.25,5.16,10.75,11.45,13.48,18.88l-18.64,6.8c-1.56-4.46-4.48-8.3-8.73-11.55-4.26-3.24-9.26-5.74-15.01-7.5s-11.74-2.64-18-2.64c-6.96-.08-13.44,1.05-19.46,3.4-6.02,2.34-10.9,5.59-14.65,9.73-3.75,4.14-5.63,8.95-5.63,14.42,0,6.57,1.74,11.59,5.22,15.07,3.48,3.48,8.23,6.08,14.25,7.8,6.02,1.72,12.78,3.24,20.28,4.57,10.63,1.8,20.48,4.63,29.54,8.5,9.07,3.87,16.36,9.01,21.87,15.42,5.51,6.41,8.26,14.3,8.26,23.68s-2.75,17.86-8.26,24.97c-5.51,7.11-12.8,12.62-21.87,16.53-9.07,3.91-18.92,5.86-29.54,5.86Z"/>
        <path class="cls-1" d="M1036.22,938.59v-164.14h19.7v164.14h-19.7Z"/>
        <path class="cls-1" d="M1148.89,941.64c-11.33,0-21.91-2.21-31.71-6.62-9.81-4.42-18.37-10.55-25.68-18.41-7.31-7.86-13.03-16.92-17.18-27.2-4.14-10.28-6.21-21.28-6.21-33s2.17-23.33,6.51-33.65,10.28-19.3,17.82-26.97c7.54-7.66,16.18-13.62,25.91-17.88,9.73-4.26,20.03-6.39,30.89-6.39,12.35,0,24.11,2.89,35.29,8.68,11.18,5.79,20.79,14.15,28.84,25.09l-17.59,9.5c-6.02-7.66-13.15-13.52-21.4-17.59-8.25-4.06-16.71-6.1-25.38-6.1s-16.12,1.68-23.51,5.04c-7.39,3.36-13.91,8.05-19.58,14.07-5.67,6.02-10.1,12.98-13.31,20.87-3.21,7.9-4.81,16.45-4.81,25.68s1.6,17.43,4.81,25.32c3.2,7.9,7.6,14.83,13.19,20.81,5.59,5.98,12.09,10.65,19.52,14.01,7.42,3.36,15.36,5.04,23.8,5.04,6.72,0,13.11-1.13,19.17-3.4,6.06-2.27,11.65-5.47,16.77-9.61,5.12-4.14,9.5-9.03,13.13-14.65,3.63-5.63,6.39-11.8,8.27-18.52h-40.45v-17.59h63.43c-.08,11.49-2.25,22.28-6.51,32.36-4.26,10.08-10.08,18.95-17.47,26.61-7.39,7.66-15.91,13.66-25.56,18-9.65,4.34-19.99,6.51-31.01,6.51Z"/>
        <path class="cls-1" d="M1282.89,774.46h23.8l59.68,164.14h-20.87l-12.19-33.53h-77.03l-12.08,33.53h-20.99l59.68-164.14ZM1263.55,885.36h62.49l-31.3-85.7-31.19,85.7Z"/>
        <path class="cls-1" d="M1440.82,941.64c-11.1,0-21.53-2.21-31.3-6.62-9.77-4.42-18.35-10.51-25.73-18.29-7.39-7.78-13.17-16.82-17.35-27.14-4.18-10.32-6.27-21.34-6.27-33.06s2.09-22.75,6.27-33.06c4.18-10.32,9.97-19.36,17.35-27.14,7.39-7.78,15.96-13.87,25.73-18.29,9.77-4.42,20.2-6.62,31.3-6.62,13.29,0,25.52,3.09,36.7,9.26,11.18,6.18,20.44,14.38,27.79,24.62l-17.47,9.38c-5.47-7.19-12.37-12.91-20.69-17.18-8.32-4.26-17.1-6.39-26.32-6.39-8.52,0-16.47,1.72-23.86,5.16-7.39,3.44-13.85,8.17-19.4,14.19-5.55,6.02-9.89,12.98-13.01,20.87-3.13,7.9-4.69,16.3-4.69,25.21s1.58,17.43,4.75,25.32c3.17,7.9,7.54,14.85,13.13,20.87,5.59,6.02,12.08,10.73,19.46,14.13s15.26,5.1,23.62,5.1c9.54,0,18.39-2.17,26.55-6.51,8.17-4.34,14.99-10.02,20.46-17.06l17.47,9.5c-7.35,10.24-16.61,18.43-27.79,24.56-11.18,6.14-23.41,9.2-36.7,9.2Z"/>
        <path class="cls-1" d="M1517.73,938.59v-164.14h19.7v164.14h-19.7Z"/>
        <path class="cls-1" d="M1630.52,941.64c-11.1,0-21.53-2.21-31.3-6.62-9.77-4.42-18.37-10.53-25.79-18.35-7.43-7.81-13.25-16.86-17.47-27.14-4.22-10.28-6.33-21.28-6.33-33s2.11-22.72,6.33-33c4.22-10.28,10.04-19.32,17.47-27.14,7.42-7.82,16.02-13.93,25.79-18.35,9.77-4.42,20.2-6.62,31.3-6.62s21.65,2.21,31.42,6.62c9.77,4.42,18.37,10.53,25.79,18.35,7.42,7.82,13.23,16.86,17.41,27.14,4.18,10.28,6.27,21.28,6.27,33s-2.09,22.73-6.27,33c-4.18,10.28-9.99,19.33-17.41,27.14-7.43,7.82-16.02,13.93-25.79,18.35-9.77,4.41-20.24,6.62-31.42,6.62ZM1630.52,921.94c8.52,0,16.47-1.72,23.86-5.16,7.39-3.44,13.87-8.19,19.46-14.25,5.59-6.06,9.97-13.01,13.13-20.87,3.17-7.86,4.75-16.24,4.75-25.15s-1.6-17.33-4.81-25.27c-3.21-7.93-7.6-14.89-13.19-20.87-5.59-5.98-12.08-10.69-19.46-14.13-7.39-3.44-15.3-5.16-23.74-5.16s-16.47,1.72-23.86,5.16c-7.39,3.44-13.88,8.19-19.46,14.24-5.59,6.06-9.97,13.01-13.13,20.87-3.17,7.86-4.75,16.24-4.75,25.15s1.6,17.43,4.81,25.32c3.2,7.9,7.6,14.85,13.19,20.87,5.59,6.02,12.08,10.73,19.46,14.13,7.39,3.4,15.3,5.1,23.74,5.1ZM1625.59,761.56l9.38-33.76h19.7l-15.94,33.76h-13.13Z"/>
        <path class="cls-1" d="M1719.74,938.59v-164.14h21.34l81.95,128.5v-128.5h19.7v164.14h-21.22l-82.07-128.5v128.5h-19.7Z"/>
      </g>
      <g>
        <path class="cls-1" d="M203.68,590.14c-22.2,0-42.91-4.33-62.12-12.97-19.21-8.65-35.98-20.67-50.29-36.05-14.32-15.39-25.53-33.14-33.64-53.28-8.12-20.13-12.17-41.68-12.17-64.64s4.25-45.7,12.75-65.91c8.5-20.21,20.13-37.81,34.91-52.82,14.77-15,31.69-26.67,50.75-35.02,19.06-8.34,39.23-12.52,60.51-12.52,24.19,0,47.23,5.67,69.12,16.99,21.89,11.33,40.72,27.71,56.49,49.14l-34.45,18.6c-11.79-15-25.76-26.48-41.91-34.45-16.15-7.96-32.72-11.94-49.72-11.94s-31.58,3.29-46.04,9.87c-14.47,6.58-27.25,15.77-38.35,27.56-11.1,11.79-19.79,25.41-26.06,40.88-6.28,15.46-9.42,32.23-9.42,50.29s3.14,34.14,9.42,49.6c6.28,15.46,14.89,29.05,25.83,40.76,10.94,11.71,23.69,20.86,38.23,27.44,14.54,6.58,30.08,9.87,46.62,9.87,13.17,0,25.68-2.22,37.55-6.66,11.86-4.44,22.81-10.71,32.84-18.83,10.03-8.11,18.6-17.68,25.72-28.7,7.12-11.02,12.51-23.11,16.19-36.28h-79.23v-34.45h124.23c-.15,22.5-4.4,43.63-12.75,63.38-8.35,19.75-19.75,37.13-34.22,52.13-14.47,15.01-31.16,26.75-50.06,35.25-18.91,8.5-39.15,12.75-60.74,12.75Z"/>
        <path class="cls-1" d="M380.5,584.17v-321.49h197.26v38.58h-158.68v91.4h129.98v38.58h-129.98v114.36h158.68v38.58h-197.26Z"/>
        <path class="cls-1" d="M715.31,590.14c-17.3,0-33.99-2.72-50.06-8.15-16.07-5.43-30.12-13.2-42.14-23.31-12.02-10.1-20.55-22.12-25.6-36.05l36.05-13.55c3.06,8.58,8.76,16.04,17.11,22.39,8.34,6.35,18.18,11.29,29.51,14.81,11.33,3.52,23.04,5.28,35.13,5.28,13.78,0,26.6-2.26,38.46-6.77,11.86-4.51,21.47-10.83,28.82-18.95,7.35-8.11,11.02-17.6,11.02-28.48s-3.83-20.32-11.48-27.44c-7.66-7.12-17.45-12.78-29.39-16.99-11.94-4.21-24.42-7.46-37.43-9.76-22.2-3.67-42.06-8.92-59.59-15.73-17.53-6.81-31.38-16.34-41.56-28.59-10.18-12.25-15.27-28.4-15.27-48.45,0-18.68,5.4-34.98,16.19-48.91,10.79-13.93,25.07-24.72,42.83-32.38,17.76-7.65,36.89-11.48,57.41-11.48,16.99,0,33.49,2.64,49.49,7.92,16,5.28,30.12,12.97,42.37,23.08,12.25,10.1,21.05,22.43,26.41,36.97l-36.51,13.32c-3.06-8.73-8.77-16.26-17.11-22.62-8.35-6.35-18.14-11.25-29.39-14.7-11.25-3.44-23-5.17-35.25-5.17-13.63-.15-26.33,2.07-38.12,6.66-11.79,4.59-21.36,10.95-28.71,19.06-7.35,8.12-11.02,17.53-11.02,28.25,0,12.86,3.41,22.7,10.22,29.51,6.81,6.81,16.11,11.91,27.9,15.27,11.79,3.37,25.03,6.35,39.73,8.96,20.82,3.52,40.11,9.07,57.87,16.65,17.76,7.58,32.04,17.65,42.83,30.2,10.79,12.55,16.19,28.02,16.19,46.39s-5.4,34.98-16.19,48.91c-10.79,13.93-25.07,24.73-42.83,32.38-17.76,7.65-37.05,11.48-57.87,11.48Z"/>
        <path class="cls-1" d="M1089.39,262.68v38.58h-107.01v282.91h-38.58v-282.91h-106.78v-38.58h252.37Z"/>
        <path class="cls-1" d="M1116.02,584.17v-321.49h38.58v321.49h-38.58Z"/>
        <path class="cls-1" d="M1339.69,590.14c-21.74,0-42.18-4.33-61.31-12.97-19.14-8.65-35.98-20.63-50.52-35.94-14.55-15.31-25.95-33.03-34.22-53.16-8.27-20.13-12.4-41.68-12.4-64.64s4.13-44.51,12.4-64.64c8.27-20.13,19.67-37.85,34.22-53.16,14.54-15.31,31.38-27.29,50.52-35.94,19.14-8.65,39.57-12.97,61.31-12.97s42.4,4.33,61.54,12.97c19.14,8.65,35.97,20.63,50.52,35.94,14.54,15.31,25.91,33.03,34.1,53.16,8.19,20.13,12.29,41.68,12.29,64.64s-4.1,44.51-12.29,64.64c-8.19,20.13-19.56,37.85-34.1,53.16-14.55,15.31-31.38,27.29-50.52,35.94-19.14,8.65-39.65,12.97-61.54,12.97ZM1339.69,551.56c16.68,0,32.26-3.37,46.73-10.1,14.47-6.73,27.17-16.04,38.12-27.9,10.94-11.86,19.52-25.49,25.72-40.88s9.3-31.81,9.3-49.26-3.14-33.95-9.42-49.49c-6.28-15.54-14.89-29.16-25.83-40.88-10.95-11.71-23.65-20.93-38.12-27.67-14.47-6.73-29.97-10.1-46.5-10.1s-32.26,3.37-46.73,10.1c-14.47,6.74-27.18,16.04-38.12,27.9-10.95,11.87-19.52,25.49-25.72,40.88s-9.3,31.81-9.3,49.26,3.14,34.14,9.42,49.6c6.28,15.46,14.89,29.09,25.83,40.88,10.94,11.79,23.65,21.01,38.12,27.67,14.47,6.66,29.97,9.99,46.5,9.99ZM1330.04,237.42l18.37-66.14h38.58l-31.23,66.14h-25.72Z"/>
        <path class="cls-1" d="M1517.2,584.17v-321.49h41.79l160.52,251.68v-251.68h38.58v321.49h-41.56l-160.75-251.68v251.68h-38.58Z"/>
      </g>
      <rect class="cls-1" x="943" y="266.56" width="40" height="678.19"/>
      <g>
        <path class="cls-1" d="M800.42,708.87v-80.5h26.62c5.56,0,10.77,1.04,15.64,3.13,4.87,2.09,9.14,4.98,12.82,8.68,3.68,3.7,6.56,7.97,8.65,12.82,2.09,4.85,3.13,10.05,3.13,15.61s-1.04,10.76-3.13,15.61c-2.09,4.85-4.97,9.12-8.65,12.82-3.68,3.7-7.96,6.59-12.82,8.68-4.87,2.09-10.08,3.13-15.64,3.13h-26.62ZM810.08,699.21h16.96c4.22,0,8.17-.79,11.87-2.39,3.7-1.59,6.95-3.79,9.75-6.58s4.99-6.05,6.58-9.75c1.59-3.7,2.39-7.66,2.39-11.87s-.8-8.17-2.39-11.87c-1.59-3.7-3.79-6.95-6.61-9.75-2.82-2.8-6.07-4.99-9.75-6.58-3.68-1.59-7.63-2.39-11.84-2.39h-16.96v61.18Z"/>
        <path class="cls-1" d="M870.22,708.87v-80.5h49.39v9.66h-39.73v22.88h32.55v9.66h-32.55v28.63h39.73v9.66h-49.39Z"/>
        <path class="cls-1" d="M1006.44,708.87v-80.5h9.66v70.84h36.05v9.66h-45.71Z"/>
        <path class="cls-1" d="M1082.28,628.37h11.67l29.27,80.5h-10.24l-5.98-16.45h-37.78l-5.92,16.45h-10.29l29.27-80.5ZM1072.79,682.76h30.65l-15.35-42.03-15.29,42.03Z"/>
      </g>
    </g>
  </g>
</svg>