<?xml version="1.0" encoding="UTF-8"?>
<svg id="Capa_2" data-name="Capa 2" xmlns="http://www.w3.org/2000/svg" viewBox="0 0 37.5 37.39">
  <defs>
    <style>
      .cls-1 {
        fill: #ce3c15;
      }

      .cls-2 {
        fill: #036e7c;
      }

      .cls-3 {
        fill: #f29c37;
      }
    </style>
  </defs>
  <g id="Capa_2-2" data-name="Capa 2">
    <g>
      <path class="cls-2" d="M29.05,6.16c1.52,0,2.75,1.24,2.75,2.75v4.87c0,1.75-1.42,3.17-3.17,3.17H8.87c-1.75,0-3.17-1.42-3.17-3.17v-4.45c0-1.75,1.42-3.17,3.17-3.17h20.18M9.48,0C4.25,0,.01,4.24.01,9.46v4.19C.01,18.88,4.25,23.12,9.48,23.12h18.56c5.23,0,9.46-4.24,9.46-9.46v-4.19c0-5.23-4.24-9.46-9.46-9.46H9.48Z"/>
      <path class="cls-3" d="M32.76,30.61c-1.23.82-2.67,1.24-4.28,1.24H9.02c-1.61,0-3.05-.37-4.28-1.19-.7-.47-1.57-1.27-2.67-2.36-.97-.97-1.65-1.77-2.08-2.42v2.18c0,1.24.37,2.51,1.11,3.83.33.58,1,1.37,2.01,2.38,1.01,1.01,1.82,1.72,2.44,2.13.99.66,2.14.99,3.46.99h0s0,0,0,0h19.46c1.32,0,2.47-.33,3.46-.99.62-.41,1.43-1.12,2.44-2.13,1.01-1.01,1.68-1.8,2.01-2.38.74-1.32,1.11-2.59,1.11-3.83v-2.18c-.43.66-1.11,1.45-2.08,2.42-1.09,1.09-1.96,1.85-2.67,2.32Z"/>
      <path class="cls-1" d="M32.76,23.47c-1.23.82-2.67,1.24-4.28,1.24H9.02c-1.61,0-3.05-.37-4.28-1.19-.7-.47-1.57-1.27-2.67-2.36-.97-.97-1.65-1.77-2.08-2.42v2.18c0,1.24.37,2.51,1.11,3.83.33.58,1,1.37,2.01,2.38,1.01,1.01,1.82,1.72,2.44,2.13.99.66,2.14.99,3.46.99h0s0,0,0,0h19.46c1.32,0,2.47-.33,3.46-.99.62-.41,1.43-1.12,2.44-2.13,1.01-1.01,1.68-1.8,2.01-2.38.74-1.32,1.11-2.59,1.11-3.83v-2.18c-.43.66-1.11,1.45-2.08,2.42-1.09,1.09-1.96,1.85-2.67,2.32Z"/>
    </g>
  </g>
</svg>