<?xml version="1.0" encoding="UTF-8"?>
<svg id="Capa_1" xmlns="http://www.w3.org/2000/svg" version="1.1" viewBox="0 0 390 844">
  <!-- Generator: Adobe Illustrator 29.3.1, SVG Export Plug-In . SVG Version: 2.1.0 Build 151)  -->
  <defs>
    <style>
      .st0 {
        fill: #fff;
      }

      .st1 {
        opacity: .7;
      }

      .st2 {
        fill: #046e7c;
      }
    </style>
  </defs>
  <rect class="st2" x="-1" y="-.7" width="391.9" height="845.1"/>
  <g>
    <g>
      <path class="st0" d="M43.2,428.1c-4.8,0-9.2-.9-13.3-2.8-4.1-1.9-7.7-4.4-10.8-7.7-3.1-3.3-5.5-7.1-7.2-11.4-1.7-4.3-2.6-8.9-2.6-13.9s.9-9.8,2.7-14.1c1.8-4.3,4.3-8.1,7.5-11.3,3.2-3.2,6.8-5.7,10.9-7.5,4.1-1.8,8.4-2.7,13-2.7s10.1,1.2,14.8,3.6c4.7,2.4,8.7,5.9,12.1,10.5l-7.4,4c-2.5-3.2-5.5-5.7-9-7.4-3.5-1.7-7-2.6-10.7-2.6s-6.8.7-9.9,2.1c-3.1,1.4-5.8,3.4-8.2,5.9-2.4,2.5-4.2,5.5-5.6,8.8-1.3,3.3-2,6.9-2,10.8s.7,7.3,2,10.6c1.3,3.3,3.2,6.2,5.5,8.7,2.3,2.5,5.1,4.5,8.2,5.9,3.1,1.4,6.5,2.1,10,2.1s5.5-.5,8.1-1.4c2.5-1,4.9-2.3,7-4,2.2-1.7,4-3.8,5.5-6.2s2.7-5,3.5-7.8h-17v-7.4h26.6c0,4.8-.9,9.4-2.7,13.6-1.8,4.2-4.2,8-7.3,11.2-3.1,3.2-6.7,5.7-10.7,7.6-4.1,1.8-8.4,2.7-13,2.7Z"/>
      <path class="st0" d="M81.1,426.8v-69h42.3v8.3h-34v19.6h27.9v8.3h-27.9v24.5h34v8.3h-42.3Z"/>
      <path class="st0" d="M152.9,428.1c-3.7,0-7.3-.6-10.7-1.7-3.4-1.2-6.5-2.8-9-5-2.6-2.2-4.4-4.7-5.5-7.7l7.7-2.9c.7,1.8,1.9,3.4,3.7,4.8,1.8,1.4,3.9,2.4,6.3,3.2,2.4.8,4.9,1.1,7.5,1.1s5.7-.5,8.3-1.5c2.5-1,4.6-2.3,6.2-4.1s2.4-3.8,2.4-6.1-.8-4.4-2.5-5.9c-1.6-1.5-3.7-2.7-6.3-3.6-2.6-.9-5.2-1.6-8-2.1-4.8-.8-9-1.9-12.8-3.4-3.8-1.5-6.7-3.5-8.9-6.1-2.2-2.6-3.3-6.1-3.3-10.4s1.2-7.5,3.5-10.5c2.3-3,5.4-5.3,9.2-6.9,3.8-1.6,7.9-2.5,12.3-2.5s7.2.6,10.6,1.7c3.4,1.1,6.5,2.8,9.1,5,2.6,2.2,4.5,4.8,5.7,7.9l-7.8,2.9c-.7-1.9-1.9-3.5-3.7-4.9-1.8-1.4-3.9-2.4-6.3-3.2s-4.9-1.1-7.6-1.1c-2.9,0-5.6.4-8.2,1.4-2.5,1-4.6,2.3-6.2,4.1-1.6,1.7-2.4,3.8-2.4,6.1s.7,4.9,2.2,6.3c1.5,1.5,3.5,2.6,6,3.3,2.5.7,5.4,1.4,8.5,1.9,4.5.8,8.6,1.9,12.4,3.6,3.8,1.6,6.9,3.8,9.2,6.5s3.5,6,3.5,9.9-1.2,7.5-3.5,10.5-5.4,5.3-9.2,6.9c-3.8,1.6-7.9,2.5-12.4,2.5Z"/>
      <path class="st0" d="M233.2,357.9v8.3h-23v60.7h-8.3v-60.7h-22.9v-8.3h54.1Z"/>
      <path class="st0" d="M238.9,426.8v-69h8.3v69h-8.3Z"/>
      <path class="st0" d="M286.8,428.1c-4.7,0-9-.9-13.2-2.8-4.1-1.9-7.7-4.4-10.8-7.7-3.1-3.3-5.6-7.1-7.3-11.4s-2.7-8.9-2.7-13.9.9-9.5,2.7-13.9c1.8-4.3,4.2-8.1,7.3-11.4,3.1-3.3,6.7-5.9,10.8-7.7,4.1-1.9,8.5-2.8,13.2-2.8s9.1.9,13.2,2.8c4.1,1.9,7.7,4.4,10.8,7.7,3.1,3.3,5.6,7.1,7.3,11.4,1.8,4.3,2.6,8.9,2.6,13.9s-.9,9.5-2.6,13.9c-1.8,4.3-4.2,8.1-7.3,11.4-3.1,3.3-6.7,5.9-10.8,7.7-4.1,1.9-8.5,2.8-13.2,2.8ZM286.8,419.8c3.6,0,6.9-.7,10-2.2,3.1-1.4,5.8-3.4,8.2-6,2.3-2.5,4.2-5.5,5.5-8.8,1.3-3.3,2-6.8,2-10.6s-.7-7.3-2-10.6c-1.3-3.3-3.2-6.3-5.5-8.8s-5.1-4.5-8.2-5.9c-3.1-1.4-6.4-2.2-10-2.2s-6.9.7-10,2.2c-3.1,1.4-5.8,3.4-8.2,6-2.3,2.5-4.2,5.5-5.5,8.8-1.3,3.3-2,6.8-2,10.6s.7,7.3,2,10.6c1.3,3.3,3.2,6.2,5.5,8.8,2.3,2.5,5.1,4.5,8.2,5.9,3.1,1.4,6.4,2.1,10,2.1ZM284.8,352.4l3.9-14.2h8.3l-6.7,14.2h-5.5Z"/>
      <path class="st0" d="M324.9,426.8v-69h9l34.4,54v-54h8.3v69h-8.9l-34.5-54v54h-8.3Z"/>
    </g>
    <g class="st1">
      <path class="st0" d="M136.2,492.1v-38.2h24v6.7h-17.3v7.8h13.7v6.7h-13.7v10.5h17.3v6.7h-24Z"/>
      <path class="st0" d="M163,492.1v-38.2h12.7c2.6,0,5.1.5,7.4,1.5,2.3,1,4.3,2.4,6.1,4.1,1.8,1.8,3.1,3.8,4.1,6.1s1.5,4.8,1.5,7.4-.5,5.1-1.5,7.4-2.4,4.3-4.1,6.1c-1.8,1.8-3.8,3.1-6.1,4.1-2.3,1-4.8,1.5-7.4,1.5h-12.7ZM169.6,485.4h6c1.7,0,3.3-.3,4.8-1,1.5-.6,2.8-1.5,4-2.7,1.1-1.1,2-2.5,2.7-4,.7-1.5,1-3.1,1-4.8s-.3-3.3-1-4.8c-.7-1.5-1.6-2.8-2.7-4-1.1-1.1-2.5-2-4-2.7-1.5-.6-3.1-1-4.8-1h-6v24.9Z"/>
      <path class="st0" d="M244.8,453.9v6.7h-11.7v31.6h-6.7v-31.6h-11.7v-6.7h30Z"/>
      <path class="st0" d="M262.5,492.8c-2.6,0-5-.5-7.3-1.5-2.3-1-4.3-2.5-6-4.3s-3.1-3.9-4.1-6.3-1.5-5-1.5-7.7.5-5.3,1.5-7.7,2.3-4.5,4.1-6.3c1.7-1.8,3.7-3.2,6-4.3,2.3-1,4.7-1.5,7.3-1.5s5,.5,7.3,1.5c2.3,1,4.3,2.5,6,4.3,1.7,1.8,3.1,3.9,4.1,6.3,1,2.4,1.5,5,1.5,7.7s-.5,5.3-1.5,7.7c-1,2.4-2.3,4.5-4.1,6.3s-3.7,3.2-6,4.3c-2.3,1-4.7,1.5-7.3,1.5ZM262.5,486.2c1.7,0,3.2-.3,4.7-1,1.5-.7,2.8-1.6,3.9-2.9s2-2.6,2.6-4.2.9-3.3.9-5.1-.3-3.5-1-5.1c-.6-1.6-1.5-3-2.6-4.2-1.1-1.2-2.4-2.1-3.9-2.8s-3-1-4.7-1-3.2.3-4.7,1-2.8,1.6-3.9,2.9c-1.1,1.2-2,2.6-2.6,4.2-.6,1.6-.9,3.3-.9,5.1s.3,3.5,1,5.1c.6,1.6,1.5,3,2.6,4.2,1.1,1.2,2.4,2.2,3.9,2.8s3,1,4.7,1Z"/>
      <path class="st0" d="M283,492.1v-38.2h14.7c2.1,0,3.9.5,5.6,1.6,1.7,1,3,2.4,4,4.2,1,1.7,1.5,3.7,1.5,5.8s-.3,3.3-.9,4.8c-.6,1.4-1.5,2.7-2.6,3.8-1.1,1.1-2.4,1.9-3.9,2.4l9.1,15.8h-7.7l-8.8-15.2h-4.3v15.2h-6.7ZM289.6,470.2h7.2c.9,0,1.8-.2,2.6-.7.8-.5,1.4-1.1,1.9-1.9.5-.8.7-1.7.7-2.7s-.2-1.9-.7-2.7c-.5-.8-1.1-1.4-1.9-1.9-.8-.5-1.6-.7-2.6-.7h-7.2v10.6Z"/>
      <path class="st0" d="M313.1,492.1v-38.2h6.7v38.2h-6.7Z"/>
      <path class="st0" d="M336.6,453.9h7.7l13.9,38.2h-7.1l-2.5-6.8h-16.4l-2.5,6.8h-7.1l13.9-38.2ZM334.6,478.7h11.5l-5.8-15.7-5.7,15.7Z"/>
      <path class="st0" d="M359.4,492.1v-38.2h6.7v31.6h15.9v6.7h-22.6Z"/>
    </g>
    <rect class="st0" x="201.8" y="363.5" width="8.6" height="128.5"/>
  </g>
</svg>