<?xml version="1.0" encoding="UTF-8"?>
<svg id="Capa_1" xmlns="http://www.w3.org/2000/svg" version="1.1" viewBox="0 0 1280 720">
  <!-- Generator: Adobe Illustrator 29.3.1, SVG Export Plug-In . SVG Version: 2.1.0 Build 151)  -->
  <defs>
    <style>
      .st0 {
        fill: #fff;
      }

      .st1 {
        opacity: .7;
      }

      .st2 {
        fill: #046e7c;
      }
    </style>
  </defs>
  <rect class="st2" x="-5.1" y="-3" width="1290.2" height="726"/>
  <g>
    <path class="st0" d="M161.1,400.2c-14.9,0-28.8-2.9-41.7-8.7-12.9-5.8-24.2-13.9-33.8-24.2-9.6-10.3-17.1-22.2-22.6-35.8-5.4-13.5-8.2-28-8.2-43.4s2.9-30.7,8.6-44.2,13.5-25.4,23.4-35.5c9.9-10.1,21.3-17.9,34.1-23.5,12.8-5.6,26.3-8.4,40.6-8.4s31.7,3.8,46.4,11.4c14.7,7.6,27.3,18.6,37.9,33l-23.1,12.5c-7.9-10.1-17.3-17.8-28.1-23.1-10.8-5.3-22-8-33.4-8s-21.2,2.2-30.9,6.6c-9.7,4.4-18.3,10.6-25.7,18.5-7.5,7.9-13.3,17.1-17.5,27.4-4.2,10.4-6.3,21.6-6.3,33.8s2.1,22.9,6.3,33.3c4.2,10.4,10,19.5,17.3,27.4,7.3,7.9,15.9,14,25.7,18.4,9.8,4.4,20.2,6.6,31.3,6.6s17.2-1.5,25.2-4.5c8-3,15.3-7.2,22-12.6,6.7-5.4,12.5-11.9,17.3-19.3,4.8-7.4,8.4-15.5,10.9-24.4h-53.2v-23.1h83.4c-.1,15.1-3,29.3-8.6,42.5-5.6,13.3-13.3,24.9-23,35-9.7,10.1-20.9,18-33.6,23.7-12.7,5.7-26.3,8.6-40.8,8.6Z"/>
    <path class="st0" d="M279.8,396.2v-215.8h132.4v25.9h-106.5v61.4h87.2v25.9h-87.2v76.8h106.5v25.9h-132.4Z"/>
    <path class="st0" d="M504.5,400.2c-11.6,0-22.8-1.8-33.6-5.5-10.8-3.6-20.2-8.9-28.3-15.6-8.1-6.8-13.8-14.8-17.2-24.2l24.2-9.1c2.1,5.8,5.9,10.8,11.5,15,5.6,4.3,12.2,7.6,19.8,9.9,7.6,2.4,15.5,3.5,23.6,3.5s17.9-1.5,25.8-4.5c8-3,14.4-7.3,19.3-12.7,4.9-5.4,7.4-11.8,7.4-19.1s-2.6-13.6-7.7-18.4c-5.1-4.8-11.7-8.6-19.7-11.4-8-2.8-16.4-5-25.1-6.6-14.9-2.5-28.2-6-40-10.6-11.8-4.6-21.1-11-27.9-19.2-6.8-8.2-10.3-19.1-10.3-32.5s3.6-23.5,10.9-32.8c7.2-9.4,16.8-16.6,28.7-21.7,11.9-5.1,24.8-7.7,38.5-7.7s22.5,1.8,33.2,5.3c10.7,3.5,20.2,8.7,28.4,15.5,8.2,6.8,14.1,15.1,17.7,24.8l-24.5,8.9c-2.1-5.9-5.9-10.9-11.5-15.2-5.6-4.3-12.2-7.6-19.7-9.9-7.6-2.3-15.4-3.5-23.7-3.5-9.1-.1-17.7,1.4-25.6,4.5-7.9,3.1-14.3,7.3-19.3,12.8-4.9,5.4-7.4,11.8-7.4,19s2.3,15.2,6.9,19.8c4.6,4.6,10.8,8,18.7,10.3,7.9,2.3,16.8,4.3,26.7,6,14,2.4,26.9,6.1,38.8,11.2,11.9,5.1,21.5,11.8,28.7,20.3,7.2,8.4,10.9,18.8,10.9,31.1s-3.6,23.5-10.9,32.8c-7.2,9.4-16.8,16.6-28.7,21.7-11.9,5.1-24.9,7.7-38.8,7.7Z"/>
    <path class="st0" d="M755.7,180.4v25.9h-71.8v189.9h-25.9v-189.9h-71.7v-25.9h169.4Z"/>
    <path class="st0" d="M773.5,396.2v-215.8h25.9v215.8h-25.9Z"/>
    <path class="st0" d="M923.7,400.2c-14.6,0-28.3-2.9-41.2-8.7-12.8-5.8-24.2-13.8-33.9-24.1-9.8-10.3-17.4-22.2-23-35.7-5.5-13.5-8.3-28-8.3-43.4s2.8-29.9,8.3-43.4c5.5-13.5,13.2-25.4,23-35.7,9.8-10.3,21.1-18.3,33.9-24.1,12.8-5.8,26.6-8.7,41.2-8.7s28.5,2.9,41.3,8.7c12.8,5.8,24.1,13.8,33.9,24.1,9.8,10.3,17.4,22.2,22.9,35.7,5.5,13.5,8.2,28,8.2,43.4s-2.8,29.9-8.2,43.4c-5.5,13.5-13.1,25.4-22.9,35.7-9.8,10.3-21.1,18.3-33.9,24.1-12.8,5.8-26.6,8.7-41.3,8.7ZM923.7,374.4c11.2,0,21.7-2.3,31.4-6.8,9.7-4.5,18.2-10.8,25.6-18.7,7.3-8,13.1-17.1,17.3-27.4s6.2-21.3,6.2-33.1-2.1-22.8-6.3-33.2c-4.2-10.4-10-19.6-17.3-27.4-7.3-7.9-15.9-14.1-25.6-18.6-9.7-4.5-20.1-6.8-31.2-6.8s-21.7,2.3-31.4,6.8c-9.7,4.5-18.2,10.8-25.6,18.7-7.3,8-13.1,17.1-17.3,27.4s-6.2,21.3-6.2,33.1,2.1,22.9,6.3,33.3c4.2,10.4,10,19.5,17.3,27.4,7.3,7.9,15.9,14.1,25.6,18.6,9.7,4.5,20.1,6.7,31.2,6.7ZM917.2,163.5l12.3-44.4h25.9l-21,44.4h-17.3Z"/>
    <path class="st0" d="M1042.8,396.2v-215.8h28.1l107.8,168.9v-168.9h25.9v215.8h-27.9l-107.9-168.9v168.9h-25.9Z"/>
  </g>
  <g class="st1">
    <path class="st0" d="M452.2,600.6v-119.6h75v20.8h-54.2v24.3h43v20.8h-43v32.8h54.2v20.8h-75Z"/>
    <path class="st0" d="M536,600.6v-119.6h39.6c8.3,0,16,1.6,23.2,4.7,7.2,3.1,13.6,7.4,19,12.9,5.5,5.5,9.8,11.8,12.9,19,3.1,7.2,4.7,14.9,4.7,23.2s-1.6,16-4.7,23.2c-3.1,7.2-7.4,13.6-12.9,19-5.5,5.5-11.8,9.8-19,12.9-7.2,3.1-14.9,4.7-23.2,4.7h-39.6ZM556.9,579.7h18.8c5.3,0,10.3-1,15-3,4.7-2,8.8-4.8,12.4-8.4,3.6-3.6,6.4-7.7,8.5-12.4,2.1-4.7,3.1-9.8,3.1-15.2s-1-10.4-3.1-15.1c-2-4.7-4.9-8.8-8.5-12.4s-7.7-6.4-12.4-8.4c-4.7-2-9.7-3-15-3h-18.8v77.9Z"/>
    <path class="st0" d="M792.1,481v20.8h-36.6v98.7h-20.8v-98.7h-36.6v-20.8h94Z"/>
    <path class="st0" d="M847.4,602.8c-8.1,0-15.7-1.6-22.8-4.8-7.1-3.2-13.4-7.7-18.8-13.4-5.4-5.7-9.7-12.3-12.7-19.8-3.1-7.5-4.6-15.5-4.6-24s1.5-16.6,4.6-24c3.1-7.5,7.3-14.1,12.7-19.8,5.4-5.7,11.7-10.2,18.8-13.4,7.1-3.2,14.7-4.8,22.8-4.8s15.8,1.6,22.9,4.8c7.1,3.2,13.4,7.7,18.8,13.4,5.4,5.7,9.6,12.3,12.7,19.8,3,7.5,4.6,15.5,4.6,24s-1.5,16.6-4.6,24c-3,7.5-7.3,14.1-12.7,19.8-5.4,5.7-11.7,10.2-18.8,13.4-7.1,3.2-14.7,4.8-22.9,4.8ZM847.4,581.9c5.2,0,10.2-1.1,14.8-3.2s8.7-5.1,12.2-8.9c3.5-3.8,6.2-8.2,8.2-13.1s2.9-10.2,2.9-15.9-1-10.9-3-15.9c-2-5-4.7-9.4-8.2-13.1-3.5-3.8-7.5-6.7-12.1-8.9-4.6-2.2-9.5-3.2-14.7-3.2s-10.2,1.1-14.8,3.2c-4.6,2.2-8.7,5.1-12.2,8.9-3.5,3.8-6.2,8.2-8.2,13.1-2,5-2.9,10.2-2.9,15.9s1,11,3,16c2,5,4.7,9.3,8.2,13.1s7.5,6.7,12.1,8.9c4.6,2.1,9.5,3.2,14.7,3.2Z"/>
    <path class="st0" d="M911.5,600.6v-119.6h45.9c6.5,0,12.4,1.6,17.6,4.9,5.2,3.2,9.4,7.6,12.5,13,3.1,5.4,4.6,11.5,4.6,18.1s-1,10.4-2.9,14.9c-2,4.5-4.7,8.4-8.2,11.7-3.5,3.3-7.5,5.8-12.1,7.5l28.6,49.5h-24l-27.7-47.6h-13.4v47.6h-20.8ZM932.3,532.2h22.6c3,0,5.7-.7,8.1-2.2,2.4-1.5,4.4-3.5,5.9-6,1.5-2.5,2.2-5.3,2.2-8.4s-.7-6-2.2-8.5c-1.5-2.5-3.4-4.5-5.9-6-2.4-1.5-5.2-2.2-8.1-2.2h-22.6v33.2Z"/>
    <path class="st0" d="M1005.8,600.6v-119.6h20.8v119.6h-20.8Z"/>
    <path class="st0" d="M1079.3,481h24l43.5,119.6h-22.1l-7.7-21.2h-51.2l-7.7,21.2h-22.1l43.4-119.6ZM1073.3,558.5h36l-18-49.3-17.9,49.3Z"/>
    <path class="st0" d="M1150.7,600.6v-119.6h20.8v98.7h49.8v20.8h-70.6Z"/>
  </g>
  <rect class="st0" x="657.5" y="198.2" width="26.9" height="402.2"/>
</svg>