<?xml version="1.0" encoding="UTF-8"?>
<svg id="Capa_1" xmlns="http://www.w3.org/2000/svg" version="1.1" viewBox="0 0 1024 768">
  <!-- Generator: Adobe Illustrator 29.3.1, SVG Export Plug-In . SVG Version: 2.1.0 Build 151)  -->
  <defs>
    <style>
      .st0 {
        fill: #fff;
      }

      .st1 {
        opacity: .7;
      }

      .st2 {
        fill: #046e7c;
      }
    </style>
  </defs>
  <rect class="st2" x="-3.5" y="-.7" width="1031" height="769.3"/>
  <g>
    <g>
      <path class="st0" d="M130.1,399.3c-12,0-23.2-2.3-33.5-7-10.4-4.7-19.4-11.2-27.1-19.5-7.7-8.3-13.8-17.9-18.2-28.7-4.4-10.9-6.6-22.5-6.6-34.9s2.3-24.7,6.9-35.6,10.9-20.4,18.8-28.5c8-8.1,17.1-14.4,27.4-18.9,10.3-4.5,21.2-6.8,32.6-6.8s25.5,3.1,37.3,9.2c11.8,6.1,22,15,30.5,26.5l-18.6,10c-6.4-8.1-13.9-14.3-22.6-18.6-8.7-4.3-17.7-6.4-26.8-6.4s-17,1.8-24.8,5.3c-7.8,3.6-14.7,8.5-20.7,14.9-6,6.4-10.7,13.7-14.1,22.1-3.4,8.3-5.1,17.4-5.1,27.1s1.7,18.4,5.1,26.8c3.4,8.3,8,15.7,13.9,22,5.9,6.3,12.8,11.3,20.6,14.8,7.8,3.6,16.2,5.3,25.2,5.3s13.9-1.2,20.3-3.6c6.4-2.4,12.3-5.8,17.7-10.2,5.4-4.4,10-9.5,13.9-15.5,3.8-5.9,6.8-12.5,8.7-19.6h-42.7v-18.6h67c0,12.1-2.4,23.5-6.9,34.2-4.5,10.7-10.7,20-18.5,28.1-7.8,8.1-16.8,14.4-27,19-10.2,4.6-21.1,6.9-32.8,6.9Z"/>
      <path class="st0" d="M225.5,396.1v-173.5h106.4v20.8h-85.6v49.3h70.1v20.8h-70.1v61.7h85.6v20.8h-106.4Z"/>
      <path class="st0" d="M406.1,399.3c-9.3,0-18.3-1.5-27-4.4-8.7-2.9-16.3-7.1-22.7-12.6-6.5-5.5-11.1-11.9-13.8-19.5l19.5-7.3c1.7,4.6,4.7,8.7,9.2,12.1,4.5,3.4,9.8,6.1,15.9,8,6.1,1.9,12.4,2.9,19,2.9s14.4-1.2,20.8-3.7c6.4-2.4,11.6-5.8,15.6-10.2,4-4.4,5.9-9.5,5.9-15.4s-2.1-11-6.2-14.8c-4.1-3.8-9.4-6.9-15.9-9.2-6.4-2.3-13.2-4-20.2-5.3-12-2-22.7-4.8-32.2-8.5-9.5-3.7-16.9-8.8-22.4-15.4-5.5-6.6-8.2-15.3-8.2-26.1s2.9-18.9,8.7-26.4c5.8-7.5,13.5-13.3,23.1-17.5,9.6-4.1,19.9-6.2,31-6.2s18.1,1.4,26.7,4.3c8.6,2.8,16.3,7,22.9,12.5,6.6,5.5,11.4,12.1,14.2,19.9l-19.7,7.2c-1.7-4.7-4.7-8.8-9.2-12.2-4.5-3.4-9.8-6.1-15.9-7.9-6.1-1.9-12.4-2.8-19-2.8-7.4,0-14.2,1.1-20.6,3.6-6.4,2.5-11.5,5.9-15.5,10.3-4,4.4-5.9,9.5-5.9,15.2s1.8,12.2,5.5,15.9c3.7,3.7,8.7,6.4,15.1,8.2,6.4,1.8,13.5,3.4,21.4,4.8,11.2,1.9,21.6,4.9,31.2,9,9.6,4.1,17.3,9.5,23.1,16.3,5.8,6.8,8.7,15.1,8.7,25s-2.9,18.9-8.7,26.4c-5.8,7.5-13.5,13.3-23.1,17.5-9.6,4.1-20,6.2-31.2,6.2Z"/>
      <path class="st0" d="M608,222.6v20.8h-57.7v152.7h-20.8v-152.7h-57.6v-20.8h136.2Z"/>
      <path class="st0" d="M622.4,396.1v-173.5h20.8v173.5h-20.8Z"/>
      <path class="st0" d="M743,399.3c-11.7,0-22.8-2.3-33.1-7-10.3-4.7-19.4-11.1-27.3-19.4-7.8-8.3-14-17.8-18.5-28.7-4.5-10.9-6.7-22.5-6.7-34.9s2.2-24,6.7-34.9c4.5-10.9,10.6-20.4,18.5-28.7,7.8-8.3,16.9-14.7,27.3-19.4,10.3-4.7,21.4-7,33.1-7s22.9,2.3,33.2,7c10.3,4.7,19.4,11.1,27.3,19.4,7.8,8.3,14,17.8,18.4,28.7,4.4,10.9,6.6,22.5,6.6,34.9s-2.2,24-6.6,34.9c-4.4,10.9-10.6,20.4-18.4,28.7-7.8,8.3-16.9,14.7-27.3,19.4-10.3,4.7-21.4,7-33.2,7ZM743,378.5c9,0,17.4-1.8,25.2-5.5,7.8-3.6,14.7-8.7,20.6-15.1,5.9-6.4,10.5-13.8,13.9-22.1,3.3-8.3,5-17.2,5-26.6s-1.7-18.3-5.1-26.7c-3.4-8.4-8-15.7-13.9-22.1-5.9-6.3-12.8-11.3-20.6-14.9-7.8-3.6-16.2-5.5-25.1-5.5s-17.4,1.8-25.2,5.5c-7.8,3.6-14.7,8.7-20.6,15.1-5.9,6.4-10.5,13.8-13.9,22.1s-5,17.2-5,26.6,1.7,18.4,5.1,26.8c3.4,8.3,8,15.7,13.9,22.1,5.9,6.4,12.8,11.3,20.6,14.9,7.8,3.6,16.2,5.4,25.1,5.4ZM737.8,209l9.9-35.7h20.8l-16.9,35.7h-13.9Z"/>
      <path class="st0" d="M838.8,396.1v-173.5h22.6l86.6,135.8v-135.8h20.8v173.5h-22.4l-86.7-135.8v135.8h-20.8Z"/>
    </g>
    <g class="st1">
      <path class="st0" d="M364.1,560.3v-96.1h60.3v16.8h-43.5v19.5h34.5v16.8h-34.5v26.4h43.5v16.8h-60.3Z"/>
      <path class="st0" d="M431.4,560.3v-96.1h31.9c6.6,0,12.8,1.2,18.6,3.7,5.8,2.5,10.9,6,15.3,10.4,4.4,4.4,7.9,9.5,10.4,15.3s3.7,12,3.7,18.6-1.2,12.9-3.7,18.6c-2.5,5.8-6,10.9-10.4,15.3-4.4,4.4-9.5,7.9-15.3,10.4-5.8,2.5-12,3.7-18.6,3.7h-31.9ZM448.2,543.6h15.1c4.3,0,8.3-.8,12-2.4,3.8-1.6,7.1-3.9,10-6.7,2.9-2.9,5.1-6.2,6.8-10s2.5-7.8,2.5-12.2-.8-8.4-2.5-12.2c-1.6-3.8-3.9-7.1-6.8-10s-6.2-5.1-10-6.8c-3.8-1.6-7.8-2.4-12.1-2.4h-15.1v62.6Z"/>
      <path class="st0" d="M637.3,464.2v16.8h-29.4v79.4h-16.8v-79.4h-29.4v-16.8h75.5Z"/>
      <path class="st0" d="M681.8,562.1c-6.5,0-12.6-1.3-18.3-3.9-5.7-2.6-10.8-6.2-15.1-10.7-4.3-4.6-7.8-9.9-10.2-15.9-2.5-6-3.7-12.5-3.7-19.3s1.2-13.3,3.7-19.3c2.5-6,5.9-11.3,10.2-15.9,4.3-4.6,9.4-8.2,15.1-10.7,5.7-2.6,11.8-3.9,18.3-3.9s12.7,1.3,18.4,3.9c5.7,2.6,10.8,6.2,15.1,10.7s7.7,9.9,10.2,15.9c2.4,6,3.7,12.5,3.7,19.3s-1.2,13.3-3.7,19.3c-2.4,6-5.8,11.3-10.2,15.9s-9.4,8.2-15.1,10.7c-5.7,2.6-11.9,3.9-18.4,3.9ZM681.8,545.4c4.2,0,8.2-.9,11.9-2.6,3.7-1.7,7-4.1,9.8-7.2,2.8-3,5-6.6,6.6-10.5,1.6-4,2.4-8.2,2.4-12.8s-.8-8.8-2.4-12.8c-1.6-4-3.8-7.5-6.6-10.5-2.8-3-6.1-5.4-9.7-7.1-3.7-1.7-7.6-2.6-11.8-2.6s-8.2.9-11.9,2.6c-3.7,1.7-7,4.1-9.8,7.2-2.8,3-5,6.6-6.6,10.5-1.6,4-2.4,8.2-2.4,12.8s.8,8.9,2.4,12.8c1.6,4,3.8,7.5,6.6,10.5,2.8,3,6.1,5.4,9.8,7.1,3.7,1.7,7.6,2.6,11.8,2.6Z"/>
      <path class="st0" d="M733.3,560.3v-96.1h36.9c5.2,0,9.9,1.3,14.1,3.9,4.2,2.6,7.6,6.1,10,10.5,2.5,4.4,3.7,9.2,3.7,14.5s-.8,8.3-2.4,12c-1.6,3.6-3.8,6.8-6.6,9.4-2.8,2.7-6.1,4.7-9.7,6l23,39.8h-19.3l-22.2-38.2h-10.8v38.2h-16.8ZM750,505.4h18.2c2.4,0,4.6-.6,6.5-1.8,2-1.2,3.5-2.8,4.7-4.8,1.2-2,1.8-4.3,1.8-6.7s-.6-4.8-1.8-6.8c-1.2-2-2.8-3.6-4.7-4.8-2-1.2-4.1-1.8-6.5-1.8h-18.2v26.7Z"/>
      <path class="st0" d="M809,560.3v-96.1h16.8v96.1h-16.8Z"/>
      <path class="st0" d="M868.1,464.2h19.3l34.9,96.1h-17.8l-6.2-17h-41.2l-6.2,17h-17.8l34.9-96.1ZM863.3,526.6h28.9l-14.5-39.6-14.4,39.6Z"/>
      <path class="st0" d="M925.6,560.3v-96.1h16.8v79.4h40v16.8h-56.8Z"/>
    </g>
    <rect class="st0" x="529" y="236.9" width="21.6" height="323.3"/>
  </g>
</svg>